# Made in Blockbench 5.1.4
mtllib model.mtl

o cube
v 0.8791018530477352 0.03125 0.213247562591373
v 0.8791018530477352 0.90625 0.213247562591373
v -0.21800509180941763 0.90625 0.6676841385249171
v -0.21800509180941763 0.03125 0.6676841385249171
v -0.6006885241745075 0.03125 -0.2561953939863695
v -0.6006885241745075 0.90625 -0.2561953939863695
v 0.4964184206826454 0.90625 -0.7106319699199136
v 0.4964184206826454 0.03125 -0.7106319699199136
vt 0.1484375 0.7421875
vt 0.1484375 0.8515625149011612
vt 0 0.8515625149011612
vt 0.1484375 0.7421875
vt 0 0.8515625149011612
vt 0 0.7421875
vt 0.46875 0.7421875
vt 0.46875 0.8515625149011612
vt 0.3203125 0.8515625149011612
vt 0.46875 0.7421875
vt 0.3203125 0.8515625149011612
vt 0.3203125 0.7421875
vt 0.1484375 1
vt 0.1484375 0.8515625149011612
vt 0.3203125 0.8515625149011612
vt 0.1484375 1
vt 0.3203125 0.8515625149011612
vt 0.3203125 1
vt 0.640625 0.7421875
vt 0.640625 0.8515625149011612
vt 0.46875 0.8515625149011612
vt 0.640625 0.7421875
vt 0.46875 0.8515625149011612
vt 0.46875 0.7421875
vt 0.3203125 0.7421875
vt 0.3203125 0.8515625149011612
vt 0.1484375 0.8515625149011612
vt 0.3203125 0.7421875
vt 0.1484375 0.8515625149011612
vt 0.1484375 0.7421875
vn 0.38268343236508984 0 0.9238795325112866
vn 0.38268343236508984 0 0.9238795325112866
vn -0.38268343236508984 0 -0.9238795325112866
vn -0.38268343236508984 0 -0.9238795325112866
vn 0 1 0
vn 0 1 0
vn -0.9238795325112866 0 0.38268343236508984
vn -0.9238795325112866 0 0.38268343236508984
vn 0.9238795325112866 0 -0.38268343236508984
vn 0.9238795325112866 0 -0.38268343236508984
usemtl m_82f0958a-0f81-0d69-c3a6-bab5a8ab70ff
f 1/1/1 2/2/1 3/3/1
f 1/4/2 3/5/2 4/6/2
f 5/7/3 6/8/3 7/9/3
f 5/10/4 7/11/4 8/12/4
f 3/13/5 2/14/5 7/15/5
f 3/16/6 7/17/6 6/18/6
f 4/19/7 3/20/7 6/21/7
f 4/22/8 6/23/8 5/24/8
f 8/25/9 7/26/9 2/27/9
f 8/28/10 2/29/10 1/30/10
o plane
v -0.6956553104875194 0.03125 1.4743789498363333
v 1.7295284623546079 0.03125 0.4698349398779724
v 0.8206553104875194 0.03125 -1.7243789498363333
v -1.6045284623546079 0.03125 -0.7198349398779724
vt 0.34375 0.4140625
vt 0.34375 0.7421875
vt 0 0.7421875
vt 0.34375 0.4140625
vt 0 0.7421875
vt 0 0.4140625
vn 0 1 0
vn 0 1 0
usemtl m_82f0958a-0f81-0d69-c3a6-bab5a8ab70ff
f 9/31/11 10/32/11 11/33/11
f 9/34/12 11/35/12 12/36/12