{
	"asset":{
		"generator":"Khronos glTF Blender I/O v5.0.21",
		"version":"2.0"
	},
	"extensionsUsed":[
		"KHR_materials_specular"
	],
	"scene":0,
	"scenes":[
		{
			"name":"Scene",
			"nodes":[
				0
			]
		}
	],
	"nodes":[
		{
			"mesh":0,
			"name":"streetlamp_01",
			"rotation":[
				0,
				0.7071068286895752,
				0,
				0.7071068286895752
			]
		}
	],
	"materials":[
		{
			"doubleSided":true,
			"extensions":{
				"KHR_materials_specular":{
					"specularFactor":0
				}
			},
			"name":"Demo_Atlas",
			"normalTexture":{
				"index":0
			},
			"pbrMetallicRoughness":{
				"baseColorTexture":{
					"index":1
				},
				"metallicFactor":0,
				"roughnessFactor":0.5
			}
		}
	],
	"meshes":[
		{
			"name":"Cube.790",
			"primitives":[
				{
					"attributes":{
						"POSITION":0,
						"NORMAL":1,
						"TEXCOORD_0":2,
						"TEXCOORD_1":3,
						"TEXCOORD_2":4,
						"TEXCOORD_3":5
					},
					"indices":6,
					"material":0
				}
			]
		}
	],
	"textures":[
		{
			"sampler":0,
			"source":0
		},
		{
			"sampler":0,
			"source":1
		}
	],
	"images":[
		{
			"mimeType":"image/png",
			"name":"demo_texture_512x512_normal",
			"uri":"../textures/demo_texture_512x512_normal.png"
		},
		{
			"mimeType":"image/png",
			"name":"demo_texture_512x512_albedo_psified",
			"uri":"../textures/demo_texture_512x512_albedo_psified.png"
		}
	],
	"accessors":[
		{
			"bufferView":0,
			"componentType":5126,
			"count":448,
			"max":[
				2.964660167694092,
				9.265931129455566,
				0.24000000953674316
			],
			"min":[
				-0.24000000953674316,
				0,
				-0.24000000953674316
			],
			"type":"VEC3"
		},
		{
			"bufferView":1,
			"componentType":5126,
			"count":448,
			"type":"VEC3"
		},
		{
			"bufferView":2,
			"componentType":5126,
			"count":448,
			"type":"VEC2"
		},
		{
			"bufferView":3,
			"componentType":5126,
			"count":448,
			"type":"VEC2"
		},
		{
			"bufferView":4,
			"componentType":5126,
			"count":448,
			"type":"VEC2"
		},
		{
			"bufferView":5,
			"componentType":5126,
			"count":448,
			"type":"VEC2"
		},
		{
			"bufferView":6,
			"componentType":5123,
			"count":768,
			"type":"SCALAR"
		}
	],
	"bufferViews":[
		{
			"buffer":0,
			"byteLength":5376,
			"byteOffset":0,
			"target":34962
		},
		{
			"buffer":0,
			"byteLength":5376,
			"byteOffset":5376,
			"target":34962
		},
		{
			"buffer":0,
			"byteLength":3584,
			"byteOffset":10752,
			"target":34962
		},
		{
			"buffer":0,
			"byteLength":3584,
			"byteOffset":14336,
			"target":34962
		},
		{
			"buffer":0,
			"byteLength":3584,
			"byteOffset":17920,
			"target":34962
		},
		{
			"buffer":0,
			"byteLength":3584,
			"byteOffset":21504,
			"target":34962
		},
		{
			"buffer":0,
			"byteLength":1536,
			"byteOffset":25088,
			"target":34963
		}
	],
	"samplers":[
		{
			"magFilter":9728,
			"minFilter":9984
		}
	],
	"buffers":[
		{
			"byteLength":26624,
			"uri":"streetlamp_01.bin"
		}
	]
}
