{
	"asset":{
		"generator":"Khronos glTF Blender I/O v5.0.21",
		"version":"2.0"
	},
	"extensionsUsed":[
		"KHR_materials_specular"
	],
	"scene":0,
	"scenes":[
		{
			"name":"Scene",
			"nodes":[
				3
			]
		}
	],
	"nodes":[
		{
			"mesh":0,
			"name":"Cube.906",
			"rotation":[
				-1,
				0,
				0,
				3.791088740135416e-14
			],
			"translation":[
				0,
				0,
				-0.03800392150878906
			]
		},
		{
			"mesh":1,
			"name":"Cube.907",
			"rotation":[
				-1,
				0,
				0,
				3.791088740135416e-14
			],
			"translation":[
				0,
				0,
				-0.03833723068237305
			]
		},
		{
			"mesh":2,
			"name":"Cube.908",
			"rotation":[
				0,
				1,
				0,
				1.9470718370939721e-07
			],
			"translation":[
				0,
				0,
				-0.018337249755859375
			]
		},
		{
			"children":[
				0,
				1,
				2
			],
			"mesh":3,
			"name":"window_10"
		}
	],
	"materials":[
		{
			"doubleSided":true,
			"extensions":{
				"KHR_materials_specular":{
					"specularFactor":0
				}
			},
			"name":"Demo_Atlas",
			"normalTexture":{
				"index":0
			},
			"pbrMetallicRoughness":{
				"baseColorTexture":{
					"index":1
				},
				"metallicFactor":0,
				"roughnessFactor":0.5
			}
		}
	],
	"meshes":[
		{
			"name":"Cube.894",
			"primitives":[
				{
					"attributes":{
						"POSITION":0,
						"NORMAL":1,
						"TEXCOORD_0":2,
						"TEXCOORD_1":3,
						"TEXCOORD_2":4,
						"TEXCOORD_3":5,
						"TEXCOORD_4":6
					},
					"indices":7,
					"material":0
				}
			]
		},
		{
			"name":"Cube.895",
			"primitives":[
				{
					"attributes":{
						"POSITION":8,
						"NORMAL":9,
						"TEXCOORD_0":10,
						"TEXCOORD_1":11,
						"TEXCOORD_2":12,
						"TEXCOORD_3":13,
						"TEXCOORD_4":14
					},
					"indices":15,
					"material":0
				}
			]
		},
		{
			"name":"Cube.896",
			"primitives":[
				{
					"attributes":{
						"POSITION":16,
						"NORMAL":17,
						"TEXCOORD_0":18,
						"TEXCOORD_1":19,
						"TEXCOORD_2":20,
						"TEXCOORD_3":21,
						"TEXCOORD_4":22
					},
					"indices":23,
					"material":0
				}
			]
		},
		{
			"name":"window_10_Mesh",
			"primitives":[
				{
					"attributes":{
						"POSITION":24,
						"NORMAL":25,
						"TEXCOORD_0":26,
						"TEXCOORD_1":27,
						"TEXCOORD_2":28,
						"TEXCOORD_3":29,
						"TEXCOORD_4":30
					},
					"indices":31,
					"material":0
				}
			]
		}
	],
	"textures":[
		{
			"sampler":0,
			"source":0
		},
		{
			"sampler":0,
			"source":1
		}
	],
	"images":[
		{
			"mimeType":"image/png",
			"name":"demo_texture_512x512_normal",
			"uri":"../textures/demo_texture_512x512_normal.png"
		},
		{
			"mimeType":"image/png",
			"name":"demo_texture_512x512_albedo_psified",
			"uri":"../textures/demo_texture_512x512_albedo_psified.png"
		}
	],
	"accessors":[
		{
			"bufferView":0,
			"componentType":5126,
			"count":272,
			"max":[
				0.5614686012268066,
				-0.8775001168251038,
				0.009999539703130722
			],
			"min":[
				-0.5614686012268066,
				-2.2274999618530273,
				-0.05000045523047447
			],
			"type":"VEC3"
		},
		{
			"bufferView":1,
			"componentType":5126,
			"count":272,
			"type":"VEC3"
		},
		{
			"bufferView":2,
			"componentType":5126,
			"count":272,
			"type":"VEC2"
		},
		{
			"bufferView":3,
			"componentType":5126,
			"count":272,
			"type":"VEC2"
		},
		{
			"bufferView":4,
			"componentType":5126,
			"count":272,
			"type":"VEC2"
		},
		{
			"bufferView":5,
			"componentType":5126,
			"count":272,
			"type":"VEC2"
		},
		{
			"bufferView":6,
			"componentType":5126,
			"count":272,
			"type":"VEC2"
		},
		{
			"bufferView":7,
			"componentType":5123,
			"count":600,
			"type":"SCALAR"
		},
		{
			"bufferView":8,
			"componentType":5126,
			"count":48,
			"max":[
				0.5924999713897705,
				-0.8375000953674316,
				0.013727307319641113
			],
			"min":[
				-0.5924999713897705,
				-2.262500047683716,
				-0.05372822284698486
			],
			"type":"VEC3"
		},
		{
			"bufferView":9,
			"componentType":5126,
			"count":48,
			"type":"VEC3"
		},
		{
			"bufferView":10,
			"componentType":5126,
			"count":48,
			"type":"VEC2"
		},
		{
			"bufferView":11,
			"componentType":5126,
			"count":48,
			"type":"VEC2"
		},
		{
			"bufferView":12,
			"componentType":5126,
			"count":48,
			"type":"VEC2"
		},
		{
			"bufferView":13,
			"componentType":5126,
			"count":48,
			"type":"VEC2"
		},
		{
			"bufferView":14,
			"componentType":5126,
			"count":48,
			"type":"VEC2"
		},
		{
			"bufferView":15,
			"componentType":5123,
			"count":96,
			"type":"SCALAR"
		},
		{
			"bufferView":16,
			"componentType":5126,
			"count":48,
			"max":[
				0.6299999952316284,
				2.3000001907348633,
				0.06745553016662598
			],
			"min":[
				-0.6299999952316284,
				0.8000000715255737,
				-0.06745553016662598
			],
			"type":"VEC3"
		},
		{
			"bufferView":17,
			"componentType":5126,
			"count":48,
			"type":"VEC3"
		},
		{
			"bufferView":18,
			"componentType":5126,
			"count":48,
			"type":"VEC2"
		},
		{
			"bufferView":19,
			"componentType":5126,
			"count":48,
			"type":"VEC2"
		},
		{
			"bufferView":20,
			"componentType":5126,
			"count":48,
			"type":"VEC2"
		},
		{
			"bufferView":21,
			"componentType":5126,
			"count":48,
			"type":"VEC2"
		},
		{
			"bufferView":22,
			"componentType":5126,
			"count":48,
			"type":"VEC2"
		},
		{
			"bufferView":23,
			"componentType":5123,
			"count":96,
			"type":"SCALAR"
		},
		{
			"bufferView":24,
			"componentType":5126,
			"count":34,
			"max":[
				0.6150000095367432,
				2.25,
				-0.009999999776482582
			],
			"min":[
				-0.6150000095367432,
				0.800000011920929,
				-0.029999999329447746
			],
			"type":"VEC3"
		},
		{
			"bufferView":25,
			"componentType":5126,
			"count":34,
			"type":"VEC3"
		},
		{
			"bufferView":26,
			"componentType":5126,
			"count":34,
			"type":"VEC2"
		},
		{
			"bufferView":27,
			"componentType":5126,
			"count":34,
			"type":"VEC2"
		},
		{
			"bufferView":28,
			"componentType":5126,
			"count":34,
			"type":"VEC2"
		},
		{
			"bufferView":29,
			"componentType":5126,
			"count":34,
			"type":"VEC2"
		},
		{
			"bufferView":30,
			"componentType":5126,
			"count":34,
			"type":"VEC2"
		},
		{
			"bufferView":31,
			"componentType":5123,
			"count":60,
			"type":"SCALAR"
		}
	],
	"bufferViews":[
		{
			"buffer":0,
			"byteLength":3264,
			"byteOffset":0,
			"target":34962
		},
		{
			"buffer":0,
			"byteLength":3264,
			"byteOffset":3264,
			"target":34962
		},
		{
			"buffer":0,
			"byteLength":2176,
			"byteOffset":6528,
			"target":34962
		},
		{
			"buffer":0,
			"byteLength":2176,
			"byteOffset":8704,
			"target":34962
		},
		{
			"buffer":0,
			"byteLength":2176,
			"byteOffset":10880,
			"target":34962
		},
		{
			"buffer":0,
			"byteLength":2176,
			"byteOffset":13056,
			"target":34962
		},
		{
			"buffer":0,
			"byteLength":2176,
			"byteOffset":15232,
			"target":34962
		},
		{
			"buffer":0,
			"byteLength":1200,
			"byteOffset":17408,
			"target":34963
		},
		{
			"buffer":0,
			"byteLength":576,
			"byteOffset":18608,
			"target":34962
		},
		{
			"buffer":0,
			"byteLength":576,
			"byteOffset":19184,
			"target":34962
		},
		{
			"buffer":0,
			"byteLength":384,
			"byteOffset":19760,
			"target":34962
		},
		{
			"buffer":0,
			"byteLength":384,
			"byteOffset":20144,
			"target":34962
		},
		{
			"buffer":0,
			"byteLength":384,
			"byteOffset":20528,
			"target":34962
		},
		{
			"buffer":0,
			"byteLength":384,
			"byteOffset":20912,
			"target":34962
		},
		{
			"buffer":0,
			"byteLength":384,
			"byteOffset":21296,
			"target":34962
		},
		{
			"buffer":0,
			"byteLength":192,
			"byteOffset":21680,
			"target":34963
		},
		{
			"buffer":0,
			"byteLength":576,
			"byteOffset":21872,
			"target":34962
		},
		{
			"buffer":0,
			"byteLength":576,
			"byteOffset":22448,
			"target":34962
		},
		{
			"buffer":0,
			"byteLength":384,
			"byteOffset":23024,
			"target":34962
		},
		{
			"buffer":0,
			"byteLength":384,
			"byteOffset":23408,
			"target":34962
		},
		{
			"buffer":0,
			"byteLength":384,
			"byteOffset":23792,
			"target":34962
		},
		{
			"buffer":0,
			"byteLength":384,
			"byteOffset":24176,
			"target":34962
		},
		{
			"buffer":0,
			"byteLength":384,
			"byteOffset":24560,
			"target":34962
		},
		{
			"buffer":0,
			"byteLength":192,
			"byteOffset":24944,
			"target":34963
		},
		{
			"buffer":0,
			"byteLength":408,
			"byteOffset":25136,
			"target":34962
		},
		{
			"buffer":0,
			"byteLength":408,
			"byteOffset":25544,
			"target":34962
		},
		{
			"buffer":0,
			"byteLength":272,
			"byteOffset":25952,
			"target":34962
		},
		{
			"buffer":0,
			"byteLength":272,
			"byteOffset":26224,
			"target":34962
		},
		{
			"buffer":0,
			"byteLength":272,
			"byteOffset":26496,
			"target":34962
		},
		{
			"buffer":0,
			"byteLength":272,
			"byteOffset":26768,
			"target":34962
		},
		{
			"buffer":0,
			"byteLength":272,
			"byteOffset":27040,
			"target":34962
		},
		{
			"buffer":0,
			"byteLength":120,
			"byteOffset":27312,
			"target":34963
		}
	],
	"samplers":[
		{
			"magFilter":9728,
			"minFilter":9984
		}
	],
	"buffers":[
		{
			"byteLength":27432,
			"uri":"window_10.bin"
		}
	]
}
