{
	"asset":{
		"generator":"Khronos glTF Blender I/O v5.0.21",
		"version":"2.0"
	},
	"extensionsUsed":[
		"KHR_materials_specular"
	],
	"scene":0,
	"scenes":[
		{
			"name":"Scene",
			"nodes":[
				4
			]
		}
	],
	"nodes":[
		{
			"mesh":0,
			"name":"Cube.534",
			"translation":[
				0,
				-0.8000001907348633,
				0
			]
		},
		{
			"mesh":1,
			"name":"Cube.536",
			"rotation":[
				0,
				0,
				1,
				1.9470718370939721e-07
			],
			"translation":[
				0,
				-1.5200004577636719,
				-0.0433502197265625
			]
		},
		{
			"mesh":2,
			"name":"Cube.537",
			"rotation":[
				0,
				0,
				1,
				1.9470718370939721e-07
			],
			"translation":[
				0,
				-0.8000001907348633,
				0.0066375732421875
			]
		},
		{
			"mesh":3,
			"name":"Cube.538",
			"rotation":[
				0,
				0,
				1,
				1.9470718370939721e-07
			],
			"translation":[
				0,
				-0.8000001907348633,
				-0.0183563232421875
			]
		},
		{
			"children":[
				0,
				1,
				2,
				3
			],
			"mesh":4,
			"name":"window_1",
			"rotation":[
				1,
				0,
				0,
				4.1770416742440905e-14
			]
		}
	],
	"materials":[
		{
			"doubleSided":true,
			"extensions":{
				"KHR_materials_specular":{
					"specularFactor":0
				}
			},
			"name":"Demo_Atlas",
			"normalTexture":{
				"index":0
			},
			"pbrMetallicRoughness":{
				"baseColorTexture":{
					"index":1
				},
				"metallicFactor":0,
				"roughnessFactor":0.5
			}
		}
	],
	"meshes":[
		{
			"name":"Cube.1182",
			"primitives":[
				{
					"attributes":{
						"POSITION":0,
						"NORMAL":1,
						"TEXCOORD_0":2,
						"TEXCOORD_1":3,
						"TEXCOORD_2":4,
						"TEXCOORD_3":5,
						"TEXCOORD_4":6
					},
					"indices":7,
					"material":0
				}
			]
		},
		{
			"name":"Cube.1184",
			"primitives":[
				{
					"attributes":{
						"POSITION":8,
						"NORMAL":9,
						"TEXCOORD_0":10,
						"TEXCOORD_1":11,
						"TEXCOORD_2":12,
						"TEXCOORD_3":13,
						"TEXCOORD_4":14
					},
					"indices":15,
					"material":0
				}
			]
		},
		{
			"name":"Cube.1185",
			"primitives":[
				{
					"attributes":{
						"POSITION":16,
						"NORMAL":17,
						"TEXCOORD_0":18,
						"TEXCOORD_1":19,
						"TEXCOORD_2":20,
						"TEXCOORD_3":21,
						"TEXCOORD_4":22
					},
					"indices":23,
					"material":0
				}
			]
		},
		{
			"name":"Cube.1186",
			"primitives":[
				{
					"attributes":{
						"POSITION":24,
						"NORMAL":25,
						"TEXCOORD_0":26,
						"TEXCOORD_1":27,
						"TEXCOORD_2":28,
						"TEXCOORD_3":29,
						"TEXCOORD_4":30
					},
					"indices":31,
					"material":0
				}
			]
		},
		{
			"name":"Cube.1183",
			"primitives":[
				{
					"attributes":{
						"POSITION":32,
						"NORMAL":33,
						"TEXCOORD_0":34,
						"TEXCOORD_1":35,
						"TEXCOORD_2":36,
						"TEXCOORD_3":37,
						"TEXCOORD_4":38
					},
					"indices":7,
					"material":0
				}
			]
		}
	],
	"textures":[
		{
			"sampler":0,
			"source":0
		},
		{
			"sampler":0,
			"source":1
		}
	],
	"images":[
		{
			"mimeType":"image/png",
			"name":"demo_texture_512x512_normal",
			"uri":"../textures/demo_texture_512x512_normal.png"
		},
		{
			"mimeType":"image/png",
			"name":"demo_texture_512x512_albedo_psified",
			"uri":"../textures/demo_texture_512x512_albedo_psified.png"
		}
	],
	"accessors":[
		{
			"bufferView":0,
			"componentType":5126,
			"count":24,
			"max":[
				0.5818395018577576,
				-0.7568485736846924,
				-0.039307184517383575
			],
			"min":[
				-0.5818395614624023,
				-1.642126441001892,
				-0.05930718779563904
			],
			"type":"VEC3"
		},
		{
			"bufferView":1,
			"componentType":5126,
			"count":24,
			"type":"VEC3"
		},
		{
			"bufferView":2,
			"componentType":5126,
			"count":24,
			"type":"VEC2"
		},
		{
			"bufferView":3,
			"componentType":5126,
			"count":24,
			"type":"VEC2"
		},
		{
			"bufferView":4,
			"componentType":5126,
			"count":24,
			"type":"VEC2"
		},
		{
			"bufferView":5,
			"componentType":5126,
			"count":24,
			"type":"VEC2"
		},
		{
			"bufferView":6,
			"componentType":5126,
			"count":24,
			"type":"VEC2"
		},
		{
			"bufferView":7,
			"componentType":5123,
			"count":36,
			"type":"SCALAR"
		},
		{
			"bufferView":8,
			"componentType":5126,
			"count":96,
			"max":[
				0.6000010371208191,
				0.9499998092651367,
				0.03372776508331299
			],
			"min":[
				-0.6000010371208191,
				0.029999997466802597,
				-0.03372776508331299
			],
			"type":"VEC3"
		},
		{
			"bufferView":9,
			"componentType":5126,
			"count":96,
			"type":"VEC3"
		},
		{
			"bufferView":10,
			"componentType":5126,
			"count":96,
			"type":"VEC2"
		},
		{
			"bufferView":11,
			"componentType":5126,
			"count":96,
			"type":"VEC2"
		},
		{
			"bufferView":12,
			"componentType":5126,
			"count":96,
			"type":"VEC2"
		},
		{
			"bufferView":13,
			"componentType":5126,
			"count":96,
			"type":"VEC2"
		},
		{
			"bufferView":14,
			"componentType":5126,
			"count":96,
			"type":"VEC2"
		},
		{
			"bufferView":15,
			"componentType":5123,
			"count":192,
			"type":"SCALAR"
		},
		{
			"bufferView":16,
			"componentType":5126,
			"count":48,
			"max":[
				0.6000010371208191,
				0.75,
				0.03372776508331299
			],
			"min":[
				-0.6000010371208191,
				0.029999997466802597,
				-0.03372776508331299
			],
			"type":"VEC3"
		},
		{
			"bufferView":17,
			"componentType":5126,
			"count":48,
			"type":"VEC3"
		},
		{
			"bufferView":18,
			"componentType":5126,
			"count":48,
			"type":"VEC2"
		},
		{
			"bufferView":19,
			"componentType":5126,
			"count":48,
			"type":"VEC2"
		},
		{
			"bufferView":20,
			"componentType":5126,
			"count":48,
			"type":"VEC2"
		},
		{
			"bufferView":21,
			"componentType":5126,
			"count":48,
			"type":"VEC2"
		},
		{
			"bufferView":22,
			"componentType":5126,
			"count":48,
			"type":"VEC2"
		},
		{
			"bufferView":23,
			"componentType":5123,
			"count":96,
			"type":"SCALAR"
		},
		{
			"bufferView":24,
			"componentType":5126,
			"count":96,
			"max":[
				0.6300010681152344,
				1.6999998092651367,
				0.06745553016662598
			],
			"min":[
				-0.6300010681152344,
				0,
				-0.06745553016662598
			],
			"type":"VEC3"
		},
		{
			"bufferView":25,
			"componentType":5126,
			"count":96,
			"type":"VEC3"
		},
		{
			"bufferView":26,
			"componentType":5126,
			"count":96,
			"type":"VEC2"
		},
		{
			"bufferView":27,
			"componentType":5126,
			"count":96,
			"type":"VEC2"
		},
		{
			"bufferView":28,
			"componentType":5126,
			"count":96,
			"type":"VEC2"
		},
		{
			"bufferView":29,
			"componentType":5126,
			"count":96,
			"type":"VEC2"
		},
		{
			"bufferView":30,
			"componentType":5126,
			"count":96,
			"type":"VEC2"
		},
		{
			"bufferView":31,
			"componentType":5123,
			"count":192,
			"type":"SCALAR"
		},
		{
			"bufferView":32,
			"componentType":5126,
			"count":24,
			"max":[
				0.5818395018577576,
				-0.8516173362731934,
				0.009999999776482582
			],
			"min":[
				-0.5818395018577576,
				-1.5215061902999878,
				-0.009999999776482582
			],
			"type":"VEC3"
		},
		{
			"bufferView":33,
			"componentType":5126,
			"count":24,
			"type":"VEC3"
		},
		{
			"bufferView":34,
			"componentType":5126,
			"count":24,
			"type":"VEC2"
		},
		{
			"bufferView":35,
			"componentType":5126,
			"count":24,
			"type":"VEC2"
		},
		{
			"bufferView":36,
			"componentType":5126,
			"count":24,
			"type":"VEC2"
		},
		{
			"bufferView":37,
			"componentType":5126,
			"count":24,
			"type":"VEC2"
		},
		{
			"bufferView":38,
			"componentType":5126,
			"count":24,
			"type":"VEC2"
		}
	],
	"bufferViews":[
		{
			"buffer":0,
			"byteLength":288,
			"byteOffset":0,
			"target":34962
		},
		{
			"buffer":0,
			"byteLength":288,
			"byteOffset":288,
			"target":34962
		},
		{
			"buffer":0,
			"byteLength":192,
			"byteOffset":576,
			"target":34962
		},
		{
			"buffer":0,
			"byteLength":192,
			"byteOffset":768,
			"target":34962
		},
		{
			"buffer":0,
			"byteLength":192,
			"byteOffset":960,
			"target":34962
		},
		{
			"buffer":0,
			"byteLength":192,
			"byteOffset":1152,
			"target":34962
		},
		{
			"buffer":0,
			"byteLength":192,
			"byteOffset":1344,
			"target":34962
		},
		{
			"buffer":0,
			"byteLength":72,
			"byteOffset":1536,
			"target":34963
		},
		{
			"buffer":0,
			"byteLength":1152,
			"byteOffset":1608,
			"target":34962
		},
		{
			"buffer":0,
			"byteLength":1152,
			"byteOffset":2760,
			"target":34962
		},
		{
			"buffer":0,
			"byteLength":768,
			"byteOffset":3912,
			"target":34962
		},
		{
			"buffer":0,
			"byteLength":768,
			"byteOffset":4680,
			"target":34962
		},
		{
			"buffer":0,
			"byteLength":768,
			"byteOffset":5448,
			"target":34962
		},
		{
			"buffer":0,
			"byteLength":768,
			"byteOffset":6216,
			"target":34962
		},
		{
			"buffer":0,
			"byteLength":768,
			"byteOffset":6984,
			"target":34962
		},
		{
			"buffer":0,
			"byteLength":384,
			"byteOffset":7752,
			"target":34963
		},
		{
			"buffer":0,
			"byteLength":576,
			"byteOffset":8136,
			"target":34962
		},
		{
			"buffer":0,
			"byteLength":576,
			"byteOffset":8712,
			"target":34962
		},
		{
			"buffer":0,
			"byteLength":384,
			"byteOffset":9288,
			"target":34962
		},
		{
			"buffer":0,
			"byteLength":384,
			"byteOffset":9672,
			"target":34962
		},
		{
			"buffer":0,
			"byteLength":384,
			"byteOffset":10056,
			"target":34962
		},
		{
			"buffer":0,
			"byteLength":384,
			"byteOffset":10440,
			"target":34962
		},
		{
			"buffer":0,
			"byteLength":384,
			"byteOffset":10824,
			"target":34962
		},
		{
			"buffer":0,
			"byteLength":192,
			"byteOffset":11208,
			"target":34963
		},
		{
			"buffer":0,
			"byteLength":1152,
			"byteOffset":11400,
			"target":34962
		},
		{
			"buffer":0,
			"byteLength":1152,
			"byteOffset":12552,
			"target":34962
		},
		{
			"buffer":0,
			"byteLength":768,
			"byteOffset":13704,
			"target":34962
		},
		{
			"buffer":0,
			"byteLength":768,
			"byteOffset":14472,
			"target":34962
		},
		{
			"buffer":0,
			"byteLength":768,
			"byteOffset":15240,
			"target":34962
		},
		{
			"buffer":0,
			"byteLength":768,
			"byteOffset":16008,
			"target":34962
		},
		{
			"buffer":0,
			"byteLength":768,
			"byteOffset":16776,
			"target":34962
		},
		{
			"buffer":0,
			"byteLength":384,
			"byteOffset":17544,
			"target":34963
		},
		{
			"buffer":0,
			"byteLength":288,
			"byteOffset":17928,
			"target":34962
		},
		{
			"buffer":0,
			"byteLength":288,
			"byteOffset":18216,
			"target":34962
		},
		{
			"buffer":0,
			"byteLength":192,
			"byteOffset":18504,
			"target":34962
		},
		{
			"buffer":0,
			"byteLength":192,
			"byteOffset":18696,
			"target":34962
		},
		{
			"buffer":0,
			"byteLength":192,
			"byteOffset":18888,
			"target":34962
		},
		{
			"buffer":0,
			"byteLength":192,
			"byteOffset":19080,
			"target":34962
		},
		{
			"buffer":0,
			"byteLength":192,
			"byteOffset":19272,
			"target":34962
		}
	],
	"samplers":[
		{
			"magFilter":9728,
			"minFilter":9984
		}
	],
	"buffers":[
		{
			"byteLength":19464,
			"uri":"window_1.bin"
		}
	]
}
