{
	"asset":{
		"generator":"Khronos glTF Blender I/O v5.0.21",
		"version":"2.0"
	},
	"extensionsUsed":[
		"KHR_materials_specular"
	],
	"scene":0,
	"scenes":[
		{
			"name":"Scene",
			"nodes":[
				0
			]
		}
	],
	"nodes":[
		{
			"mesh":0,
			"name":"pavement_02"
		}
	],
	"materials":[
		{
			"doubleSided":true,
			"extensions":{
				"KHR_materials_specular":{
					"specularFactor":0
				}
			},
			"name":"Demo_Atlas",
			"normalTexture":{
				"index":0
			},
			"pbrMetallicRoughness":{
				"baseColorTexture":{
					"index":1
				},
				"metallicFactor":0,
				"roughnessFactor":0.5
			}
		}
	],
	"meshes":[
		{
			"name":"pavement_02_Mesh.001",
			"primitives":[
				{
					"attributes":{
						"POSITION":0,
						"NORMAL":1,
						"TEXCOORD_0":2,
						"TEXCOORD_1":3,
						"TEXCOORD_2":4,
						"TEXCOORD_3":5
					},
					"indices":6,
					"material":0
				}
			]
		}
	],
	"textures":[
		{
			"sampler":0,
			"source":0
		},
		{
			"sampler":0,
			"source":1
		}
	],
	"images":[
		{
			"mimeType":"image/png",
			"name":"demo_texture_512x512_normal",
			"uri":"../textures/demo_texture_512x512_normal.png"
		},
		{
			"mimeType":"image/png",
			"name":"demo_texture_512x512_albedo_psified",
			"uri":"../textures/demo_texture_512x512_albedo_psified.png"
		}
	],
	"accessors":[
		{
			"bufferView":0,
			"componentType":5126,
			"count":39,
			"max":[
				1,
				0.15000000596046448,
				1
			],
			"min":[
				-1,
				0,
				-1
			],
			"type":"VEC3"
		},
		{
			"bufferView":1,
			"componentType":5126,
			"count":39,
			"type":"VEC3"
		},
		{
			"bufferView":2,
			"componentType":5126,
			"count":39,
			"type":"VEC2"
		},
		{
			"bufferView":3,
			"componentType":5126,
			"count":39,
			"type":"VEC2"
		},
		{
			"bufferView":4,
			"componentType":5126,
			"count":39,
			"type":"VEC2"
		},
		{
			"bufferView":5,
			"componentType":5126,
			"count":39,
			"type":"VEC2"
		},
		{
			"bufferView":6,
			"componentType":5123,
			"count":60,
			"type":"SCALAR"
		}
	],
	"bufferViews":[
		{
			"buffer":0,
			"byteLength":468,
			"byteOffset":0,
			"target":34962
		},
		{
			"buffer":0,
			"byteLength":468,
			"byteOffset":468,
			"target":34962
		},
		{
			"buffer":0,
			"byteLength":312,
			"byteOffset":936,
			"target":34962
		},
		{
			"buffer":0,
			"byteLength":312,
			"byteOffset":1248,
			"target":34962
		},
		{
			"buffer":0,
			"byteLength":312,
			"byteOffset":1560,
			"target":34962
		},
		{
			"buffer":0,
			"byteLength":312,
			"byteOffset":1872,
			"target":34962
		},
		{
			"buffer":0,
			"byteLength":120,
			"byteOffset":2184,
			"target":34963
		}
	],
	"samplers":[
		{
			"magFilter":9728,
			"minFilter":9984
		}
	],
	"buffers":[
		{
			"byteLength":2304,
			"uri":"pavement_02.bin"
		}
	]
}
