# Made in Blockbench 5.1.4
mtllib model.mtl

o plane
v 0.3699115179401309 0.03125 -0.7600158773652745
v -0.8175884820598693 0.03125 -0.7600158773652743
v -0.8175884820598691 0.03125 0.2399841226347259
v 0.3699115179401311 0.03125 0.23998412263472568
vt 0.3977272727272727 0.28409090909090906
vt 0.3977272727272727 0.5
vt 0.14772727272727273 0.5
vt 0.14772727272727273 0.28409090909090906
vn 0 1 0
usemtl m_2cea859a-44f5-b393-4234-50e9cf81a985
f 1/1/1 2/2/1 3/3/1 4/4/1
o cube
v -0.8175884820598693 0.03125 -0.7600158773652743
v -0.8175884820598693 0.90625 -0.7600158773652743
v 0.3699115179401309 0.90625 -0.7600158773652745
v 0.3699115179401309 0.03125 -0.7600158773652745
v 0.3699115179401311 0.03125 0.23998412263472568
v 0.3699115179401311 0.90625 0.23998412263472568
v -0.8175884820598691 0.90625 0.2399841226347259
v -0.8175884820598691 0.03125 0.2399841226347259
v 0.361127489401208 0.71875 0.44351973891017604
v -0.8263725105987921 0.71875 0.44351973891017626
v 0.3627699545030097 0.71875 -0.9686703984850427
v -0.8247300454969906 0.71875 -0.9686703984850429
v 0.37155398304193266 0.90625 -0.7651328984850428
v -0.8159460169580675 0.90625 -0.7651328984850431
v 0.5477338077914865 0.6973637937343914 -0.7555430489671835
v 0.5477338077914865 0.6973637937343914 0.24583371885028749
v 0.369290447300761 0.9088862062656088 -0.7629503096886362
v 0.36929044730076094 0.9088862062656088 0.23842645812883406
v -0.8170538509821664 0.9026375000000001 -0.7680430489671836
v -0.8170538509821664 0.9026375000000001 0.23333371885028747
v -0.9954972114728922 0.6911125000000001 -0.7754503096886362
v -0.9954972114728922 0.6911125000000001 0.225926458128834
vt 0.2159090909090909 0.625
vt 0.2159090909090909 0.7840909090909091
vt 0 0.7840909090909091
vt 0 0.625
vt 0.6818181818181818 0.625
vt 0.6818181818181818 0.7840909090909091
vt 0.4659090909090909 0.7840909090909091
vt 0.4659090909090909 0.625
vt 0.9318181818181818 0.625
vt 0.9318181818181818 0.7840909090909091
vt 0.6818181818181818 0.7840909090909091
vt 0.6818181818181818 0.625
vt 0.4659090909090909 0.625
vt 0.4659090909090909 0.7840909090909091
vt 0.2159090909090909 0.7840909090909091
vt 0.2159090909090909 0.625
vt 0.3977272727272727 0.5454545454545452
vt 0.3977272727272727 0.5000000000000002
vt 0.14772727272727276 0.5000000000000002
vt 0.14772727272727276 0.5454545454545452
vt 0.3977272727272727 0.5454545454545452
vt 0.3977272727272727 0.5000000000000002
vt 0.14772727272727276 0.5000000000000002
vt 0.14772727272727276 0.5454545454545452
vt 0.3977272727272727 0.5511363636363633
vt 0.3977272727272727 0.494318181818182
vt 0.14772727272727276 0.494318181818182
vt 0.14772727272727276 0.5511363636363633
vt 0.3977272727272727 0.49431818181818143
vt 0.3977272727272727 0.551136363636364
vt 0.14772727272727276 0.551136363636364
vt 0.14772727272727276 0.49431818181818143
vn -1.3147377923192642e-16 0 -1
vn 1.3147377923192642e-16 0 1
vn 1 0 -1.6653345369377348e-16
vn -1 0 1.6653345369377348e-16
vn -8.907877576158949e-17 -0.735485706837986 -0.6775402386847796
vn 1.6430003051812667e-16 0.7354888316086062 -0.6775368466578089
vn -0.7643425513805525 -0.6448104094608489 -4.24295349621713e-17
vn 0.7643464388428445 -0.6448058013295644 4.2429750759678495e-17
usemtl m_2cea859a-44f5-b393-4234-50e9cf81a985
f 5/5/2 6/6/2 7/7/2 8/8/2
f 9/9/3 10/10/3 11/11/3 12/12/3
f 8/13/4 7/14/4 10/15/4 9/16/4
f 12/17/5 11/18/5 6/19/5 5/20/5
f 10/21/6 13/22/6 14/23/6 11/24/6
f 17/25/7 15/26/7 16/27/7 18/28/7
f 21/29/8 19/30/8 20/31/8 22/32/8
f 25/33/9 23/34/9 24/35/9 26/36/9