# Blender 5.1.1
# www.blender.org
mtllib PBP1_Building4_2sided.mtl
o PBP1_Building4_2sided
v 9.702389 -3.414735 3.495031
v 9.702389 -0.253911 3.495031
v 9.702389 -0.253912 3.652350
v 9.702389 -0.065541 3.495031
v 9.702389 -0.149520 3.741609
v 9.702389 -0.065541 3.741609
v 9.702389 -6.763928 3.495031
v 9.702389 -3.603105 3.495031
v 9.702389 -3.603105 3.652350
v 9.702389 -3.498713 3.741609
v 9.702389 -3.414735 3.752678
v 9.702389 -5.984852 3.495031
v 7.991023 -5.984852 3.495031
v 7.991023 -4.167408 3.495031
v 8.986953 -4.167408 3.495031
v 8.986953 -5.984852 3.495031
v 8.986953 -6.763928 3.495031
v 7.991023 -6.763928 3.495031
v 7.991023 -5.984852 3.330626
v 7.991023 -4.167408 3.330626
v 8.986953 -4.167408 3.330626
v 8.986953 -5.984852 3.330626
v 4.848778 -3.414735 3.495033
v 7.275583 -3.414735 3.495032
v 4.848778 -0.253911 3.495033
v 7.275583 -0.253911 3.495032
v 4.848778 -0.253912 3.652351
v 7.275583 -0.253912 3.652350
v 4.848778 -0.065541 3.495033
v 7.275583 -0.065541 3.495032
v 4.848778 -0.149520 3.741611
v 7.275584 -0.149520 3.741610
v 4.848778 -0.065541 3.741611
v 7.275584 -0.065541 3.741610
v 4.848778 -6.763928 3.495033
v 7.275583 -6.763928 3.495032
v 4.848778 -3.603105 3.495033
v 7.275583 -3.603105 3.495032
v 4.848778 -3.603105 3.652351
v 7.275583 -3.603105 3.652350
v 4.848778 -3.498713 3.741611
v 7.275584 -3.498713 3.741610
v 4.848778 -3.414735 3.752679
v 7.275584 -3.414735 3.752678
v 4.848778 -5.984852 3.495033
v 7.275583 -5.984852 3.495032
v 6.560147 -5.984852 3.495032
v 6.560147 -4.167408 3.495032
v 5.564215 -4.167408 3.495033
v 5.564215 -5.984852 3.495033
v 5.564215 -6.763928 3.495033
v 6.560147 -6.763928 3.495032
v 6.560147 -5.984852 3.330627
v 6.560147 -4.167408 3.330627
v 5.564215 -4.167408 3.330628
v 5.564215 -5.984852 3.330628
v 3.137410 -5.984852 3.495033
v 3.137410 -4.167408 3.495033
v 4.133341 -4.167408 3.495033
v 4.133341 -5.984852 3.495033
v 4.133340 -6.763928 3.495033
v 3.137410 -6.763928 3.495033
v 3.137410 -5.984852 3.330628
v 3.137410 -4.167408 3.330628
v 4.133341 -4.167408 3.330628
v 4.133341 -5.984852 3.330628
v -0.004835 -3.414735 3.495035
v 2.421971 -3.414735 3.495033
v -0.004835 -0.253911 3.495035
v 2.421971 -0.253911 3.495033
v -0.004835 -0.253912 3.652353
v 2.421971 -0.253912 3.652351
v -0.004835 -0.065541 3.495035
v 2.421972 -0.065541 3.495033
v -0.004835 -0.149520 3.741613
v 2.421971 -0.149520 3.741611
v -0.004835 -0.065541 3.741613
v 2.421972 -0.065541 3.741611
v -0.004835 -6.763928 3.495035
v 2.421971 -6.763928 3.495033
v -0.004835 -3.603105 3.495035
v 2.421971 -3.603105 3.495033
v -0.004835 -3.603105 3.652353
v 2.421971 -3.603105 3.652351
v -0.004835 -3.498713 3.741613
v 2.421971 -3.498713 3.741611
v -0.004835 -3.414735 3.752681
v 2.421972 -3.414735 3.752680
v -0.004835 -5.984852 3.495035
v 2.421971 -5.984852 3.495033
v 2.216871 -5.984852 3.495034
v 2.216871 -4.167408 3.495034
v 0.200267 -4.167408 3.495034
v 0.200267 -5.984852 3.495034
v 0.200267 -6.763928 3.495034
v 2.216871 -6.763928 3.495034
v -1.716203 -5.984852 3.495034
v -1.716203 -4.167408 3.495034
v -0.720271 -4.167408 3.495034
v -0.720271 -5.984852 3.495034
v -0.720273 -6.763928 3.495034
v -1.716203 -6.763928 3.495034
v -1.716203 -5.984852 3.330630
v -1.716203 -4.167408 3.330630
v -0.720271 -4.167408 3.330630
v -0.720271 -5.984852 3.330630
v -4.858447 -3.414735 3.495036
v -2.431640 -3.414735 3.495035
v -4.858447 -0.253911 3.495036
v -2.431640 -0.253911 3.495035
v -4.858447 -0.253912 3.652354
v -2.431640 -0.253912 3.652353
v -4.858447 -0.065541 3.495036
v -2.431640 -0.065541 3.495035
v -4.858446 -0.149520 3.741614
v -2.431640 -0.149520 3.741613
v -4.858446 -0.065541 3.741614
v -2.431640 -0.065541 3.741613
v -4.858447 -6.763928 3.495036
v -2.431640 -6.763928 3.495035
v -4.858447 -3.603105 3.495036
v -2.431640 -3.603105 3.495035
v -4.858447 -3.603105 3.652354
v -2.431640 -3.603105 3.652353
v -4.858446 -3.498713 3.741614
v -2.431640 -3.498713 3.741613
v -4.858446 -3.414735 3.752683
v -2.431640 -3.414735 3.752681
v -4.858447 -5.984852 3.495036
v -2.431640 -5.984852 3.495035
v -3.147078 -5.984852 3.495035
v -3.147078 -4.167408 3.495035
v -4.143009 -4.167408 3.495036
v -4.143009 -5.984852 3.495036
v -4.143009 -6.763928 3.495036
v -3.147078 -6.763928 3.495035
v -3.147078 -5.984852 3.330630
v -3.147078 -4.167408 3.330630
v -4.143009 -4.167408 3.330631
v -4.143009 -5.984852 3.330631
v -6.569816 -5.984852 3.495036
v -6.569816 -4.167408 3.495036
v -5.573884 -4.167408 3.495036
v -5.573884 -5.984852 3.495036
v -5.573884 -6.763928 3.495036
v -6.569816 -6.763928 3.495036
v -6.569816 -5.984852 3.330631
v -6.569816 -4.167408 3.330631
v -5.573884 -4.167408 3.330631
v -5.573884 -5.984852 3.330631
v -9.712061 -3.414735 3.495038
v -7.285255 -3.414735 3.495036
v -9.712061 -0.253911 3.495038
v -7.285255 -0.253911 3.495036
v -9.712061 -0.253912 3.652356
v -7.285255 -0.253912 3.652354
v -9.712061 -0.065541 3.495038
v -7.285255 -0.065541 3.495036
v -9.712061 -0.149520 3.741616
v -7.285254 -0.149520 3.741614
v -9.712061 -0.065541 3.741616
v -7.285254 -0.065541 3.741615
v -9.712061 -6.763928 3.495038
v -7.285255 -6.763928 3.495036
v -9.712061 -3.603105 3.495038
v -7.285255 -3.603105 3.495036
v -9.712061 -3.603105 3.652356
v -7.285255 -3.603105 3.652354
v -9.712061 -3.498713 3.741616
v -7.285254 -3.498713 3.741614
v -9.712061 -3.414735 3.752684
v -7.285254 -3.414735 3.752683
v -9.712061 -5.984852 3.495038
v -7.285255 -5.984852 3.495036
v -8.000691 -5.984852 3.495037
v -8.000691 -4.167408 3.495037
v -8.996621 -4.167408 3.495037
v -8.996621 -5.984852 3.495037
v -8.996621 -6.763928 3.495037
v -8.000691 -6.763928 3.495037
v -8.000691 -5.984852 3.330632
v -8.000691 -4.167408 3.330632
v -8.996621 -4.167408 3.330632
v -8.996621 -5.984852 3.330632
v -5.589468 2.444551 3.349763
v -6.513617 2.444551 3.349763
v -5.589468 0.648592 3.349763
v -6.513617 0.648592 3.349763
v -5.589468 2.444551 3.495031
v -6.513617 2.444551 3.495031
v -5.589468 0.648592 3.495031
v -6.513617 0.648592 3.495031
v -9.712061 -3.414735 3.413144
v -9.712061 -0.253911 3.413144
v -9.712061 -0.065541 3.413144
v -9.712061 -3.603105 3.413144
v -9.712061 -5.984852 3.413144
v -0.735864 2.444551 3.349760
v -1.660013 2.444551 3.349760
v -9.712061 -6.763929 3.395092
v -0.735864 0.648592 3.349760
v 9.702396 -3.414735 3.413131
v 9.702396 -0.253911 3.413131
v 9.702396 -0.065541 3.413131
v 9.702396 -3.603105 3.413131
v 9.702396 -5.984852 3.413131
v -1.660013 0.648592 3.349760
v -0.735864 2.444551 3.495028
v 9.702396 -6.763929 3.395078
v 2.216871 -5.984852 3.313833
v 2.216871 -4.167408 3.313833
v 0.200267 -4.167408 3.313834
v 0.200267 -5.984852 3.313834
v 0.200267 -6.763928 3.313834
v 2.216871 -6.763928 3.313833
v -1.660013 2.444551 3.495028
v 9.707214 -0.253912 -0.000013
v 9.707214 -6.763930 -0.000013
v 9.707214 -3.603106 -0.000013
v -0.735864 0.648592 3.495028
v -1.660013 0.648592 3.495028
v 4.117752 2.444551 3.349760
v 3.193603 2.444551 3.349760
v 4.117752 0.648592 3.349760
v 3.193603 0.648592 3.349760
v 4.117752 2.444551 3.495028
v 3.193603 2.444551 3.495028
v 4.117752 0.648592 3.495028
v 3.193603 0.648592 3.495028
v 8.971355 2.444551 3.349757
v -9.707241 -0.253912 -0.000013
v -9.707241 -6.763930 -0.000013
v -9.707241 -3.603106 -0.000013
v 8.047206 2.444551 3.349757
v 8.971355 0.648592 3.349757
v 8.047206 0.648592 3.349757
v 8.971355 2.444551 3.495025
v 8.047206 2.444551 3.495025
v 8.971355 0.648592 3.495025
v 8.047206 0.648592 3.495025
v 5.579796 2.444551 3.349766
v 6.503945 2.444551 3.349765
v 5.579796 0.648592 3.349766
v 6.503945 0.648592 3.349765
v 5.579796 2.444551 3.495034
v 6.503945 2.444551 3.495034
v 5.579796 0.648592 3.495034
v 6.503945 0.648592 3.495034
v 0.726191 2.444551 3.349766
v 1.650341 2.444551 3.349765
v 0.726191 0.648592 3.349766
v 1.650341 0.648592 3.349765
v 0.726191 2.444551 3.495034
v 1.650341 2.444551 3.495034
v 0.726191 0.648592 3.495034
v 1.650341 0.648592 3.495034
v -4.127423 2.444551 3.349769
v -3.203273 2.444551 3.349768
v -4.127423 0.648592 3.349769
v -3.203273 0.648592 3.349768
v -4.127423 2.444551 3.495038
v -3.203273 2.444551 3.495037
v -4.127423 0.648592 3.495038
v -3.203273 0.648592 3.495037
v -8.981028 2.444551 3.349769
v -8.056878 2.444551 3.349768
v -8.981028 0.648592 3.349769
v -8.056878 0.648592 3.349768
v -8.981028 2.444551 3.495037
v -8.056878 2.444551 3.495037
v -8.981028 0.648592 3.495037
v -8.056878 0.648592 3.495037
v -9.707241 3.095283 -0.000013
v 9.707214 3.095283 -0.000013
v 9.702396 3.095283 3.413131
v -9.712061 3.095283 3.413144
v -9.712061 3.095283 3.495038
v -7.285255 3.095283 3.495036
v -4.858447 3.095283 3.495036
v -2.431640 3.095283 3.495035
v -0.004835 3.095283 3.495035
v 2.421971 3.095283 3.495033
v 4.848778 3.095283 3.495033
v 7.275583 3.095283 3.495032
v 9.702389 3.095283 3.495031
v 9.702389 6.632846 3.741609
v 9.702389 6.548868 3.741609
v 9.702389 6.444476 3.652350
v 9.702389 6.444476 3.495031
v 7.275584 6.632846 3.741610
v 4.848778 6.632846 3.741611
v 7.275584 6.548868 3.741610
v 4.848778 6.548868 3.741611
v 7.275583 6.444476 3.652350
v 4.848778 6.444476 3.652351
v 7.275583 6.444476 3.495032
v 4.848778 6.444476 3.495033
v 2.421972 6.632846 3.741611
v -0.004835 6.632846 3.741613
v 2.421971 6.548868 3.741611
v -0.004835 6.548868 3.741613
v 2.421971 6.444476 3.652351
v -0.004835 6.444476 3.652353
v 2.421971 6.444476 3.495033
v -0.004835 6.444476 3.495035
v -2.431640 6.632846 3.741613
v -4.858446 6.632846 3.741614
v -2.431640 6.548868 3.741613
v -4.858446 6.548868 3.741614
v -2.431640 6.444476 3.652353
v -4.858447 6.444476 3.652354
v -2.431640 6.444476 3.495035
v -4.858447 6.444476 3.495036
v -7.285254 6.632846 3.741615
v -9.712061 6.632846 3.741616
v -7.285254 6.548868 3.741614
v -9.712061 6.548868 3.741616
v -9.712061 6.632846 3.495038
v -7.285255 6.444476 3.652354
v -9.712061 6.444476 3.652356
v -7.285255 6.444476 3.495036
v -9.712061 6.444476 3.495038
v -9.712061 6.632846 3.413144
v -9.712061 6.444476 3.413144
v 9.702396 6.632846 3.495025
v 9.702396 6.632846 3.413131
v 9.702396 6.444476 3.413131
v 9.707214 6.444476 -0.000013
v 9.707214 9.106576 -0.000013
v 9.707214 9.327004 -0.000013
v 7.280406 9.327004 -0.000012
v 4.853601 9.327004 -0.000013
v 2.426793 9.327004 -0.000012
v -0.000014 9.327004 -0.000013
v -2.426820 9.327004 -0.000012
v -4.853628 9.327004 -0.000013
v -7.280436 9.327004 -0.000012
v -9.707241 9.327004 -0.000013
v -9.707241 6.444476 -0.000013
v -9.707241 9.106576 -0.000013
v -8.056878 3.997786 3.495037
v -8.981028 3.997786 3.495037
v -8.056878 5.793744 3.495037
v -8.981028 5.793744 3.495037
v -8.056878 3.997786 3.349768
v -8.981028 3.997786 3.349769
v -8.056878 5.793744 3.349768
v -8.981028 5.793744 3.349769
v -3.203273 3.997786 3.495037
v -4.127423 3.997786 3.495038
v -3.203273 5.793744 3.495037
v -4.127423 5.793744 3.495038
v -3.203273 3.997786 3.349768
v -4.127423 3.997786 3.349769
v -3.203273 5.793744 3.349768
v -4.127423 5.793744 3.349769
v 1.650341 3.997786 3.495034
v 0.726191 3.997786 3.495034
v 1.650341 5.793744 3.495034
v 0.726191 5.793744 3.495034
v 1.650341 3.997786 3.349765
v 0.726191 3.997786 3.349766
v 1.650341 5.793744 3.349765
v 0.726191 5.793744 3.349766
v 6.503945 3.997786 3.495034
v 5.579796 3.997786 3.495034
v 6.503945 5.793744 3.495034
v 5.579796 5.793744 3.495034
v 6.503945 3.997786 3.349765
v 5.579796 3.997786 3.349766
v 6.503945 5.793744 3.349765
v 5.579796 5.793744 3.349766
v 8.047206 3.997786 3.495025
v 8.971355 3.997786 3.495025
v 8.047206 5.793744 3.495025
v 8.971355 5.793744 3.495025
v 8.047206 3.997786 3.349757
v 8.971355 3.997786 3.349757
v 8.047206 5.793744 3.349757
v 8.971355 5.793744 3.349757
v 3.193603 3.997786 3.495028
v 4.117752 3.997786 3.495028
v 3.193603 5.793744 3.495028
v 4.117752 5.793744 3.495028
v 3.193603 3.997786 3.349760
v 4.117752 3.997786 3.349760
v 3.193603 5.793744 3.349760
v 4.117752 5.793744 3.349760
v -1.660013 3.997786 3.495028
v -0.735864 3.997786 3.495028
v -1.660013 5.793744 3.495028
v -0.735864 5.793744 3.495028
v -1.660013 3.997786 3.349760
v -0.735864 3.997786 3.349760
v -1.660013 5.793744 3.349760
v -0.735864 5.793744 3.349760
v -6.513617 3.997786 3.495031
v -5.589468 3.997786 3.495031
v -6.513617 5.793744 3.495031
v -5.589468 5.793744 3.495031
v -6.513617 3.997786 3.349763
v -5.589468 3.997786 3.349763
v -6.513617 5.793744 3.349763
v -5.589468 5.793744 3.349763
v 9.702389 3.095282 3.652350
v 9.702389 3.283653 3.495031
v 9.702389 3.199674 3.741609
v 9.702389 3.283653 3.741609
v 4.848778 3.095282 3.652351
v 7.275583 3.095282 3.652350
v 4.848778 3.283653 3.495033
v 7.275583 3.283653 3.495032
v 4.848778 3.199674 3.741611
v 7.275584 3.199674 3.741610
v 4.848778 3.283653 3.741611
v 7.275584 3.283653 3.741610
v -0.004835 3.095282 3.652353
v 2.421971 3.095282 3.652351
v -0.004835 3.283653 3.495035
v 2.421972 3.283653 3.495033
v -0.004835 3.199674 3.741613
v 2.421971 3.199674 3.741611
v -0.004835 3.283653 3.741613
v 2.421972 3.283653 3.741611
v -4.858447 3.095282 3.652354
v -2.431640 3.095282 3.652353
v -4.858447 3.283653 3.495036
v -2.431640 3.283653 3.495035
v -4.858446 3.199674 3.741614
v -2.431640 3.199674 3.741613
v -4.858446 3.283653 3.741614
v -2.431640 3.283653 3.741613
v -9.712061 3.095282 3.652356
v -7.285255 3.095282 3.652354
v -9.712061 3.283653 3.495038
v -7.285255 3.283653 3.495036
v -9.712061 3.199674 3.741616
v -7.285254 3.199674 3.741614
v -9.712061 3.283653 3.741616
v -7.285254 3.283653 3.741615
v -9.712061 3.283653 3.413144
v 9.702396 3.283653 3.413131
v 1.208569 -4.167408 3.313833
v 1.208569 -6.763928 3.313833
v -5.589468 -0.904644 3.349763
v -6.513617 -0.904644 3.349763
v -5.589468 -2.700602 3.349763
v -6.513617 -2.700602 3.349763
v -5.589468 -0.904644 3.495031
v -6.513617 -0.904644 3.495031
v -5.589468 -2.700602 3.495031
v -6.513617 -2.700602 3.495031
v -0.735864 -0.904644 3.349760
v -1.660013 -0.904644 3.349760
v -0.735864 -2.700602 3.349760
v -1.660013 -2.700602 3.349760
v -0.735864 -0.904644 3.495028
v -1.660013 -0.904644 3.495028
v -0.735864 -2.700602 3.495028
v -1.660013 -2.700602 3.495028
v 4.117752 -0.904644 3.349760
v 3.193603 -0.904644 3.349760
v 4.117752 -2.700602 3.349760
v 3.193603 -2.700602 3.349760
v 4.117752 -0.904644 3.495028
v 3.193603 -0.904644 3.495028
v 4.117752 -2.700602 3.495028
v 3.193603 -2.700602 3.495028
v 8.971355 -0.904644 3.349757
v 8.047206 -0.904644 3.349757
v 8.971355 -2.700602 3.349757
v 8.047206 -2.700602 3.349757
v 8.971355 -0.904644 3.495025
v 8.047206 -0.904644 3.495025
v 8.971355 -2.700602 3.495025
v 8.047206 -2.700602 3.495025
v 5.579796 -0.904644 3.349766
v 6.503945 -0.904644 3.349765
v 5.579796 -2.700602 3.349766
v 6.503945 -2.700602 3.349765
v 5.579796 -0.904644 3.495034
v 6.503945 -0.904644 3.495034
v 5.579796 -2.700602 3.495034
v 6.503945 -2.700602 3.495034
v 0.726191 -0.904644 3.349766
v 1.650341 -0.904644 3.349765
v 0.726191 -2.700602 3.349766
v 1.650341 -2.700602 3.349765
v 0.726191 -0.904644 3.495034
v 1.650341 -0.904644 3.495034
v 0.726191 -2.700602 3.495034
v 1.650341 -2.700602 3.495034
v -4.127423 -0.904644 3.349769
v -3.203273 -0.904644 3.349768
v -4.127423 -2.700602 3.349769
v -3.203273 -2.700602 3.349768
v -4.127423 -0.904644 3.495038
v -3.203273 -0.904644 3.495037
v -4.127423 -2.700602 3.495038
v -3.203273 -2.700602 3.495037
v -8.981028 -0.904644 3.349769
v -8.056878 -0.904644 3.349768
v -8.981028 -2.700602 3.349769
v -8.056878 -2.700602 3.349768
v -8.981028 -0.904644 3.495037
v -8.056878 -0.904644 3.495037
v -8.981028 -2.700602 3.495037
v -8.056878 -2.700602 3.495037
v -9.702415 -3.414737 -3.495055
v -9.702415 -0.253913 -3.495055
v -9.702415 -0.253914 -3.652373
v -9.702415 -0.065543 -3.495055
v -9.702415 -0.149522 -3.741634
v -9.702415 -0.065543 -3.741634
v -9.702415 -6.763931 -3.495055
v -9.702415 -3.603107 -3.495055
v -9.702415 -3.603108 -3.652373
v -9.702415 -3.498716 -3.741634
v -9.702415 -3.414737 -3.752701
v -9.702415 -5.984855 -3.495055
v -7.991048 -5.984855 -3.495054
v -7.991048 -4.167411 -3.495054
v -8.986979 -4.167411 -3.495055
v -8.986979 -5.984855 -3.495055
v -8.986979 -6.763931 -3.495055
v -7.991048 -6.763931 -3.495054
v -7.991048 -5.984855 -3.330650
v -7.991048 -4.167411 -3.330650
v -8.986979 -4.167411 -3.330650
v -8.986979 -5.984855 -3.330650
v -4.848803 -3.414737 -3.495058
v -7.275609 -3.414737 -3.495056
v -4.848803 -0.253913 -3.495058
v -7.275609 -0.253913 -3.495056
v -4.848803 -0.253914 -3.652376
v -7.275609 -0.253914 -3.652373
v -4.848803 -0.065543 -3.495058
v -7.275609 -0.065543 -3.495056
v -4.848803 -0.149522 -3.741636
v -7.275609 -0.149522 -3.741633
v -4.848803 -0.065543 -3.741636
v -7.275609 -0.065543 -3.741633
v -4.848803 -6.763931 -3.495058
v -7.275609 -6.763931 -3.495056
v -4.848803 -3.603107 -3.495058
v -7.275609 -3.603107 -3.495056
v -4.848803 -3.603108 -3.652376
v -7.275609 -3.603108 -3.652373
v -4.848803 -3.498716 -3.741636
v -7.275609 -3.498716 -3.741633
v -4.848803 -3.414737 -3.752704
v -7.275609 -3.414737 -3.752702
v -4.848803 -5.984855 -3.495058
v -7.275609 -5.984855 -3.495056
v -6.560173 -5.984855 -3.495056
v -6.560173 -4.167411 -3.495056
v -5.564240 -4.167411 -3.495057
v -5.564240 -5.984855 -3.495057
v -5.564240 -6.763931 -3.495057
v -6.560173 -6.763931 -3.495056
v -6.560173 -5.984855 -3.330650
v -6.560173 -4.167411 -3.330650
v -5.564240 -4.167411 -3.330653
v -5.564240 -5.984855 -3.330653
v -3.137435 -5.984855 -3.495057
v -3.137435 -4.167411 -3.495057
v -4.133367 -4.167411 -3.495058
v -4.133367 -5.984855 -3.495058
v -4.133365 -6.763931 -3.495058
v -3.137435 -6.763931 -3.495057
v -3.137435 -5.984855 -3.330653
v -3.137435 -4.167411 -3.330653
v -4.133367 -4.167411 -3.330652
v -4.133367 -5.984855 -3.330652
v 0.004810 -3.414737 -3.495059
v -2.421996 -3.414737 -3.495059
v 0.004810 -0.253913 -3.495059
v -2.421996 -0.253913 -3.495059
v 0.004810 -0.253914 -3.652378
v -2.421996 -0.253914 -3.652376
v 0.004810 -0.065543 -3.495059
v -2.421997 -0.065543 -3.495059
v 0.004810 -0.149522 -3.741638
v -2.421996 -0.149522 -3.741636
v 0.004810 -0.065543 -3.741638
v -2.421997 -0.065543 -3.741636
v 0.004810 -6.763931 -3.495059
v -2.421996 -6.763931 -3.495059
v 0.004810 -3.603107 -3.495059
v -2.421996 -3.603107 -3.495059
v 0.004810 -3.603108 -3.652378
v -2.421996 -3.603108 -3.652376
v 0.004810 -3.498716 -3.741638
v -2.421996 -3.498716 -3.741636
v 0.004810 -3.414737 -3.752706
v -2.421997 -3.414737 -3.752705
v 0.004810 -5.984855 -3.495059
v -2.421996 -5.984855 -3.495059
v -2.216896 -5.984855 -3.495059
v -2.216896 -4.167411 -3.495059
v -0.200292 -4.167411 -3.495059
v -0.200292 -5.984855 -3.495059
v -0.200292 -6.763931 -3.495059
v -2.216896 -6.763931 -3.495059
v 1.716178 -5.984855 -3.495059
v 1.716178 -4.167411 -3.495059
v 0.720246 -4.167411 -3.495059
v 0.720246 -5.984855 -3.495059
v 0.720248 -6.763931 -3.495059
v 1.716178 -6.763931 -3.495059
v 1.716178 -5.984855 -3.330654
v 1.716178 -4.167411 -3.330654
v 0.720246 -4.167411 -3.330654
v 0.720246 -5.984855 -3.330654
v 4.858421 -3.414737 -3.495061
v 2.431615 -3.414737 -3.495060
v 4.858421 -0.253913 -3.495061
v 2.431615 -0.253913 -3.495060
v 4.858421 -0.253914 -3.652379
v 2.431615 -0.253914 -3.652377
v 4.858421 -0.065543 -3.495061
v 2.431615 -0.065543 -3.495060
v 4.858421 -0.149522 -3.741639
v 2.431615 -0.149522 -3.741637
v 4.858421 -0.065543 -3.741639
v 2.431615 -0.065543 -3.741637
v 4.858421 -6.763931 -3.495061
v 2.431615 -6.763931 -3.495060
v 4.858421 -3.603107 -3.495061
v 2.431615 -3.603107 -3.495060
v 4.858421 -3.603108 -3.652379
v 2.431615 -3.603108 -3.652377
v 4.858421 -3.498716 -3.741639
v 2.431615 -3.498716 -3.741637
v 4.858421 -3.414737 -3.752707
v 2.431615 -3.414737 -3.752706
v 4.858421 -5.984855 -3.495061
v 2.431615 -5.984855 -3.495060
v 3.147054 -5.984855 -3.495060
v 3.147054 -4.167411 -3.495060
v 4.142983 -4.167411 -3.495061
v 4.142983 -5.984855 -3.495061
v 4.142983 -6.763931 -3.495061
v 3.147054 -6.763931 -3.495060
v 3.147054 -5.984855 -3.330655
v 3.147054 -4.167411 -3.330655
v 4.142983 -4.167411 -3.330656
v 4.142983 -5.984855 -3.330656
v 6.569791 -5.984855 -3.495061
v 6.569791 -4.167411 -3.495061
v 5.573859 -4.167411 -3.495061
v 5.573859 -5.984855 -3.495061
v 5.573859 -6.763931 -3.495061
v 6.569791 -6.763931 -3.495061
v 6.569791 -5.984855 -3.330657
v 6.569791 -4.167411 -3.330657
v 5.573859 -4.167411 -3.330656
v 5.573859 -5.984855 -3.330656
v 9.712036 -3.414737 -3.495063
v 7.285231 -3.414737 -3.495063
v 9.712036 -0.253913 -3.495063
v 7.285231 -0.253913 -3.495063
v 9.712036 -0.253914 -3.652382
v 7.285231 -0.253914 -3.652380
v 9.712036 -0.065543 -3.495063
v 7.285231 -0.065543 -3.495063
v 9.712036 -0.149522 -3.741642
v 7.285231 -0.149522 -3.741640
v 9.712036 -0.065543 -3.741642
v 7.285231 -0.065543 -3.741640
v 9.712036 -6.763931 -3.495063
v 7.285231 -6.763931 -3.495063
v 9.712036 -3.603107 -3.495063
v 7.285231 -3.603107 -3.495063
v 9.712036 -3.603108 -3.652382
v 7.285231 -3.603108 -3.652380
v 9.712036 -3.498716 -3.741642
v 7.285231 -3.498716 -3.741640
v 9.712036 -3.414737 -3.752710
v 7.285231 -3.414737 -3.752709
v 9.712036 -5.984855 -3.495063
v 7.285231 -5.984855 -3.495063
v 8.000667 -5.984855 -3.495063
v 8.000667 -4.167411 -3.495063
v 8.996596 -4.167411 -3.495063
v 8.996596 -5.984855 -3.495063
v 8.996596 -6.763931 -3.495063
v 8.000667 -6.763931 -3.495063
v 8.000667 -5.984855 -3.330657
v 8.000667 -4.167411 -3.330657
v 8.996596 -4.167411 -3.330658
v 8.996596 -5.984855 -3.330658
v 5.589443 2.444549 -3.349788
v 6.513593 2.444549 -3.349788
v 5.589443 0.648590 -3.349788
v 6.513593 0.648590 -3.349788
v 5.589443 2.444549 -3.495056
v 6.513593 2.444549 -3.495057
v 5.589443 0.648590 -3.495056
v 6.513593 0.648590 -3.495057
v 9.712036 -3.414737 -3.413170
v 9.712036 -0.253913 -3.413170
v 9.712036 -0.065543 -3.413170
v 9.712036 -3.603107 -3.413170
v 9.712036 -5.984855 -3.413170
v 0.735839 2.444549 -3.349784
v 1.659988 2.444549 -3.349785
v 9.712036 -6.763932 -3.395117
v 0.735839 0.648590 -3.349784
v -9.702422 -3.414737 -3.413155
v -9.702422 -0.253913 -3.413155
v -9.702422 -0.065543 -3.413155
v -9.702422 -3.603107 -3.413155
v -9.702422 -5.984855 -3.413155
v 1.659988 0.648590 -3.349785
v 0.735839 2.444549 -3.495053
v -9.702422 -6.763932 -3.395102
v -2.216896 -5.984855 -3.313858
v -2.216896 -4.167411 -3.313858
v -0.200292 -4.167411 -3.313859
v -0.200292 -5.984855 -3.313859
v -0.200292 -6.763931 -3.313859
v -2.216896 -6.763931 -3.313858
v 1.659988 2.444549 -3.495053
v 0.735839 0.648590 -3.495053
v 1.659988 0.648590 -3.495053
v -4.117777 2.444549 -3.349785
v -3.193628 2.444549 -3.349784
v -4.117777 0.648590 -3.349785
v -3.193628 0.648590 -3.349784
v -4.117777 2.444549 -3.495053
v -3.193628 2.444549 -3.495053
v -4.117777 0.648590 -3.495053
v -3.193628 0.648590 -3.495053
v -8.971380 2.444549 -3.349780
v -8.047232 2.444549 -3.349781
v -8.971380 0.648590 -3.349780
v -8.047232 0.648590 -3.349781
v -8.971380 2.444549 -3.495049
v -8.047232 2.444549 -3.495048
v -8.971380 0.648590 -3.495049
v -8.047232 0.648590 -3.495048
v -5.579821 2.444549 -3.349791
v -6.503970 2.444549 -3.349789
v -5.579821 0.648590 -3.349791
v -6.503970 0.648590 -3.349789
v -5.579821 2.444549 -3.495059
v -6.503970 2.444549 -3.495057
v -5.579821 0.648590 -3.495059
v -6.503970 0.648590 -3.495057
v -0.726216 2.444549 -3.349791
v -1.650366 2.444549 -3.349790
v -0.726216 0.648590 -3.349791
v -1.650366 0.648590 -3.349790
v -0.726216 2.444549 -3.495059
v -1.650367 2.444549 -3.495059
v -0.726216 0.648590 -3.495059
v -1.650367 0.648590 -3.495059
v 4.127398 2.444549 -3.349794
v 3.203249 2.444549 -3.349793
v 4.127398 0.648590 -3.349794
v 3.203249 0.648590 -3.349793
v 4.127398 2.444549 -3.495063
v 3.203249 2.444549 -3.495061
v 4.127398 0.648590 -3.495063
v 3.203249 0.648590 -3.495061
v 8.981002 2.444549 -3.349795
v 8.056854 2.444549 -3.349794
v 8.981002 0.648590 -3.349795
v 8.056854 0.648590 -3.349794
v 8.981002 2.444549 -3.495063
v 8.056854 2.444549 -3.495063
v 8.981002 0.648590 -3.495063
v 8.056854 0.648590 -3.495063
v -9.702422 3.095280 -3.413155
v 9.712036 3.095280 -3.413170
v 9.712036 3.095280 -3.495063
v 7.285231 3.095280 -3.495063
v 4.858421 3.095280 -3.495061
v 2.431615 3.095280 -3.495060
v 0.004810 3.095280 -3.495059
v -2.421996 3.095280 -3.495059
v -4.848803 3.095280 -3.495058
v -7.275609 3.095280 -3.495056
v -9.702415 3.095280 -3.495055
v -9.702415 6.632846 -3.741634
v -9.702415 6.548867 -3.741634
v -9.702415 6.444476 -3.652373
v -9.702415 6.444476 -3.495055
v -7.275609 6.632846 -3.741633
v -4.848803 6.632846 -3.741636
v -7.275609 6.548867 -3.741633
v -4.848803 6.548867 -3.741636
v -7.275609 6.444476 -3.652373
v -4.848803 6.444476 -3.652376
v -7.275609 6.444476 -3.495056
v -4.848803 6.444476 -3.495058
v -2.421997 6.632846 -3.741636
v 0.004810 6.632846 -3.741638
v -2.421996 6.548867 -3.741636
v 0.004810 6.548867 -3.741638
v -2.421996 6.444476 -3.652376
v 0.004810 6.444476 -3.652378
v -2.421996 6.444476 -3.495059
v 0.004810 6.444476 -3.495059
v 2.431615 6.632846 -3.741637
v 4.858421 6.632846 -3.741639
v 2.431615 6.548867 -3.741637
v 4.858421 6.548867 -3.741639
v 2.431615 6.444476 -3.652377
v 4.858421 6.444476 -3.652379
v 2.431615 6.444476 -3.495060
v 4.858421 6.444476 -3.495061
v 7.285231 6.632846 -3.741640
v 9.712036 6.632846 -3.741642
v 7.285231 6.548867 -3.741640
v 9.712036 6.548867 -3.741642
v 9.712036 6.632846 -3.495063
v 7.285231 6.444476 -3.652380
v 9.712036 6.444476 -3.652382
v 7.285231 6.444476 -3.495063
v 9.712036 6.444476 -3.495063
v 9.712036 6.632846 -3.413170
v 9.712036 6.444476 -3.413170
v -9.702422 6.632846 -3.495048
v -9.702422 6.632846 -3.413155
v -9.702422 6.444476 -3.413155
v 8.056854 3.997784 -3.495063
v 8.981002 3.997784 -3.495063
v 8.056854 5.793743 -3.495063
v 8.981002 5.793743 -3.495063
v 8.056854 3.997784 -3.349794
v 8.981002 3.997784 -3.349795
v 8.056854 5.793743 -3.349794
v 8.981002 5.793743 -3.349795
v 3.203249 3.997784 -3.495061
v 4.127398 3.997784 -3.495063
v 3.203249 5.793743 -3.495061
v 4.127398 5.793743 -3.495063
v 3.203249 3.997784 -3.349793
v 4.127398 3.997784 -3.349794
v 3.203249 5.793743 -3.349793
v 4.127398 5.793743 -3.349794
v -1.650367 3.997784 -3.495059
v -0.726216 3.997784 -3.495059
v -1.650367 5.793743 -3.495059
v -0.726216 5.793743 -3.495059
v -1.650366 3.997784 -3.349790
v -0.726216 3.997784 -3.349791
v -1.650366 5.793743 -3.349790
v -0.726216 5.793743 -3.349791
v -6.503970 3.997784 -3.495057
v -5.579821 3.997784 -3.495059
v -6.503970 5.793743 -3.495057
v -5.579821 5.793743 -3.495059
v -6.503970 3.997784 -3.349789
v -5.579821 3.997784 -3.349791
v -6.503970 5.793743 -3.349789
v -5.579821 5.793743 -3.349791
v -8.047232 3.997784 -3.495048
v -8.971380 3.997784 -3.495049
v -8.047232 5.793743 -3.495048
v -8.971380 5.793743 -3.495049
v -8.047232 3.997784 -3.349781
v -8.971380 3.997784 -3.349780
v -8.047232 5.793743 -3.349781
v -8.971380 5.793743 -3.349780
v -3.193628 3.997784 -3.495053
v -4.117777 3.997784 -3.495053
v -3.193628 5.793743 -3.495053
v -4.117777 5.793743 -3.495053
v -3.193628 3.997784 -3.349784
v -4.117777 3.997784 -3.349785
v -3.193628 5.793743 -3.349784
v -4.117777 5.793743 -3.349785
v 1.659988 3.997784 -3.495053
v 0.735839 3.997784 -3.495053
v 1.659988 5.793743 -3.495053
v 0.735839 5.793743 -3.495053
v 1.659988 3.997784 -3.349785
v 0.735839 3.997784 -3.349784
v 1.659988 5.793743 -3.349785
v 0.735839 5.793743 -3.349784
v 6.513593 3.997784 -3.495057
v 5.589443 3.997784 -3.495056
v 6.513593 5.793743 -3.495057
v 5.589443 5.793743 -3.495056
v 6.513593 3.997784 -3.349788
v 5.589443 3.997784 -3.349788
v 6.513593 5.793743 -3.349788
v 5.589443 5.793743 -3.349788
v -9.702415 3.095280 -3.652373
v -9.702415 3.283651 -3.495055
v -9.702415 3.199672 -3.741634
v -9.702415 3.283651 -3.741634
v -4.848803 3.095280 -3.652376
v -7.275609 3.095280 -3.652373
v -4.848803 3.283651 -3.495058
v -7.275609 3.283651 -3.495056
v -4.848803 3.199672 -3.741636
v -7.275609 3.199672 -3.741633
v -4.848803 3.283651 -3.741636
v -7.275609 3.283651 -3.741633
v 0.004810 3.095280 -3.652378
v -2.421996 3.095280 -3.652376
v 0.004810 3.283651 -3.495059
v -2.421997 3.283651 -3.495059
v 0.004810 3.199672 -3.741638
v -2.421996 3.199672 -3.741636
v 0.004810 3.283651 -3.741638
v -2.421997 3.283651 -3.741636
v 4.858421 3.095280 -3.652379
v 2.431615 3.095280 -3.652377
v 4.858421 3.283651 -3.495061
v 2.431615 3.283651 -3.495060
v 4.858421 3.199672 -3.741639
v 2.431615 3.199672 -3.741637
v 4.858421 3.283651 -3.741639
v 2.431615 3.283651 -3.741637
v 9.712036 3.095280 -3.652382
v 7.285231 3.095280 -3.652380
v 9.712036 3.283651 -3.495063
v 7.285231 3.283651 -3.495063
v 9.712036 3.199672 -3.741642
v 7.285231 3.199672 -3.741640
v 9.712036 3.283651 -3.741642
v 7.285231 3.283651 -3.741640
v 9.712036 3.283651 -3.413170
v -9.702422 3.283651 -3.413155
v -1.208594 -4.167411 -3.313859
v -1.208594 -6.763931 -3.313859
v 5.589443 -0.904646 -3.349788
v 6.513593 -0.904646 -3.349788
v 5.589443 -2.700605 -3.349788
v 6.513593 -2.700605 -3.349788
v 5.589443 -0.904646 -3.495056
v 6.513593 -0.904646 -3.495057
v 5.589443 -2.700605 -3.495056
v 6.513593 -2.700605 -3.495057
v 0.735839 -0.904646 -3.349784
v 1.659988 -0.904646 -3.349785
v 0.735839 -2.700605 -3.349784
v 1.659988 -2.700605 -3.349785
v 0.735839 -0.904646 -3.495053
v 1.659988 -0.904646 -3.495053
v 0.735839 -2.700605 -3.495053
v 1.659988 -2.700605 -3.495053
v -4.117777 -0.904646 -3.349785
v -3.193628 -0.904646 -3.349784
v -4.117777 -2.700605 -3.349785
v -3.193628 -2.700605 -3.349784
v -4.117777 -0.904646 -3.495053
v -3.193628 -0.904646 -3.495053
v -4.117777 -2.700605 -3.495053
v -3.193628 -2.700605 -3.495053
v -8.971380 -0.904646 -3.349780
v -8.047232 -0.904646 -3.349781
v -8.971380 -2.700605 -3.349780
v -8.047232 -2.700605 -3.349781
v -8.971380 -0.904646 -3.495049
v -8.047232 -0.904646 -3.495048
v -8.971380 -2.700605 -3.495049
v -8.047232 -2.700605 -3.495048
v -5.579821 -0.904646 -3.349791
v -6.503970 -0.904646 -3.349789
v -5.579821 -2.700605 -3.349791
v -6.503970 -2.700605 -3.349789
v -5.579821 -0.904646 -3.495059
v -6.503970 -0.904646 -3.495057
v -5.579821 -2.700605 -3.495059
v -6.503970 -2.700605 -3.495057
v -0.726216 -0.904646 -3.349791
v -1.650366 -0.904646 -3.349790
v -0.726216 -2.700605 -3.349791
v -1.650366 -2.700605 -3.349790
v -0.726216 -0.904646 -3.495059
v -1.650367 -0.904646 -3.495059
v -0.726216 -2.700605 -3.495059
v -1.650367 -2.700605 -3.495059
v 4.127398 -0.904646 -3.349794
v 3.203249 -0.904646 -3.349793
v 4.127398 -2.700605 -3.349794
v 3.203249 -2.700605 -3.349793
v 4.127398 -0.904646 -3.495063
v 3.203249 -0.904646 -3.495061
v 4.127398 -2.700605 -3.495063
v 3.203249 -2.700605 -3.495061
v 8.981002 -0.904646 -3.349795
v 8.056854 -0.904646 -3.349794
v 8.981002 -2.700605 -3.349795
v 8.056854 -2.700605 -3.349794
v 8.981002 -0.904646 -3.495063
v 8.056854 -0.904646 -3.495063
v 8.981002 -2.700605 -3.495063
v 8.056854 -2.700605 -3.495063
vn -0.0000 -1.0000 -0.0000
vn -0.0000 -0.6499 0.7600
vn -0.0000 -0.0000 1.0000
vn -0.0000 1.0000 -0.0000
vn -0.0000 -0.1307 0.9914
vn -1.0000 -0.0000 -0.0000
vn 1.0000 -0.0000 -0.0000
vn -1.0000 -0.0000 -0.0014
vn 1.0000 -0.0000 0.0001
vn 1.0000 -0.0000 0.0014
vn -1.0000 0.0010 -0.0006
vn -0.0000 0.8115 0.5843
vn 1.0000 -0.0010 0.0007
vn -0.0000 -0.6499 -0.7600
vn -0.0000 -0.0000 -1.0000
vn -0.0000 -0.1307 -0.9914
vn -1.0000 -0.0000 -0.0001
vn 1.0000 0.0010 0.0006
vn -0.0000 0.8115 -0.5843
vn -1.0000 -0.0010 -0.0007
vt 0.223585 0.259319
vt 0.223585 0.316881
vt 0.459598 0.316881
vt 0.459598 0.259319
vt 0.223585 0.349541
vt 0.459598 0.349541
vt 0.459598 0.340441
vt 0.223585 0.340441
vt 0.223585 0.348647
vt 0.459598 0.348647
vt 0.594535 0.538416
vt 0.761992 0.538416
vt 0.761992 0.549003
vt 0.594535 0.549003
vt 0.899860 0.801300
vt 0.991755 0.801300
vt 0.991755 0.643633
vt 0.899860 0.643633
vt 0.293487 0.097533
vt 0.293487 0.275106
vt 0.390795 0.275106
vt 0.223585 0.330242
vt 0.459598 0.330242
vt 0.390795 0.097533
vt 0.459598 0.097533
vt 0.223585 0.097533
vt 0.985995 0.643361
vt 0.904888 0.643361
vt 0.904888 0.801347
vt 0.985995 0.801347
vt 0.904500 0.801347
vt 0.985607 0.801347
vt 0.985608 0.643361
vt 0.904500 0.643361
vt 0.993838 0.980168
vt 0.993838 0.815012
vt 0.903335 0.815012
vt 0.903335 0.980168
vt 0.390795 0.275106
vt 0.390795 0.097533
vt 0.995686 0.801300
vt 0.895928 0.801300
vt 0.964333 0.801356
vt 0.964333 0.643310
vt 0.931925 0.643310
vt 0.931925 0.801356
vt 0.209654 0.079231
vt 0.257126 0.079231
vt 0.257126 0.052698
vt 0.233390 0.052698
vt 0.209654 0.052698
vt 0.440658 0.275106
vt 0.243625 0.275106
vt 0.440658 0.097533
vt 0.243625 0.097533
vt 0.962744 0.801347
vt 0.962744 0.643361
vt 0.927752 0.643361
vt 0.927752 0.801347
vt 0.000000 0.000000
vt 0.274449 0.746888
vt 0.274449 0.800550
vt 0.274449 0.964603
vt 0.024511 0.964603
vt 0.024511 0.746888
vt 0.274449 0.977578
vt 0.744629 0.652431
vt 0.744629 0.949137
vt 0.866474 0.949137
vt 0.866474 0.741457
vt 0.745107 0.652485
vt 0.865969 0.652485
vt 0.865969 0.741510
vt 0.459528 0.097631
vt 0.459528 0.275280
vt 0.440779 0.275280
vt 0.440779 0.097631
vt 0.223613 0.275280
vt 0.223613 0.097631
vt 0.243598 0.097631
vt 0.243598 0.275280
vt 0.371643 0.328962
vt 0.300369 0.328962
vt 0.300369 0.351751
vt 0.417098 0.351751
vt 0.412083 0.341592
vt 0.300369 0.328953
vt 0.300369 0.351742
vt 0.412083 0.351742
vt 0.412083 0.341582
vt 0.371643 0.328953
vt 0.371643 0.328962
vt 0.412083 0.341592
vt 0.300369 0.351751
vt 0.300369 0.328962
vt 0.300369 0.328953
vt 0.371643 0.328953
vt 0.412083 0.341582
vt 0.412083 0.351742
vt 0.300369 0.351742
vt 0.223585 0.340014
vt 0.223585 0.635453
vt 0.024511 0.733914
vt 0.384996 0.575527
vt 0.384996 0.575527
vt 0.295534 0.575527
vt 0.295534 0.407284
vt 0.384996 0.407284
vt 0.384996 0.407284
vt 0.224767 0.340384
vt 0.224767 0.636487
vt 0.458593 0.636487
vt 0.458593 0.340384
vt 0.161680 0.575527
vt 0.161680 0.575527
vt 0.072218 0.575527
vt 0.072218 0.407284
vt 0.161680 0.407284
vt 0.161680 0.407284
vt 0.001451 0.340384
vt 0.001451 0.636487
vt 0.236375 0.636487
vt 0.236375 0.340384
vt 0.223585 0.337853
vt 0.223585 0.636383
vt 0.024511 0.733913
vt 0.459598 0.330906
vt 0.223585 0.330906
vt 0.223585 0.339111
vt 0.459598 0.339111
vt 0.439941 0.636193
vt 0.019178 0.636370
vt 0.020403 0.629986
vt 0.402359 0.628984
vt 0.413199 0.631063
vt 0.024511 0.917277
vt 0.024511 0.733914
vt 0.348933 0.647051
vt 0.554961 0.647051
vt 0.554961 0.995247
vt 0.348933 0.995247
vt 0.412083 0.351745
vt 0.412083 0.341586
vt 0.371643 0.328956
vt 0.300369 0.328956
vt 0.300366 0.351745
vt 0.412083 0.351745
vt 0.300369 0.351745
vt 0.300369 0.328956
vt 0.371643 0.328956
vt 0.412083 0.341586
vt 0.866474 0.652431
vt 0.744629 0.652431
vt 0.865969 0.949191
vt 0.745107 0.949191
vt 0.745107 0.652485
vt 0.274449 0.746889
vt 0.024511 0.733915
vt 0.274449 0.733913
s 0
usemtl Material.001
f 2/1/1 3/2/1 28/3/1 26/4/1
f 28/3/2 3/2/2 5/5/2 32/6/2
f 32/7/3 5/8/3 6/9/3 34/10/3
f 4/11/4 30/12/4 34/13/4 6/14/4
f 8/1/1 9/2/1 40/3/1 38/4/1
f 40/3/2 9/2/2 10/5/2 42/6/2
f 42/7/5 10/8/5 11/9/5 44/10/5
f 1/11/4 24/12/4 44/13/4 11/14/4
f 16/15/3 13/16/3 18/17/3 17/18/3
f 16/19/6 15/20/6 21/20/6 22/19/6
f 14/21/3 15/20/3 8/22/3 38/23/3
f 13/24/3 14/21/3 38/23/3 46/25/3
f 15/20/3 16/19/3 12/26/3 8/22/3
f 36/27/3 18/28/3 13/29/3 46/30/3
f 12/31/3 16/32/3 17/33/3 7/34/3
f 20/35/3 19/36/3 22/37/3 21/38/3
f 15/20/1 14/21/1 20/39/1 21/20/1
f 14/21/7 13/24/7 19/40/7 20/39/7
f 13/41/4 16/42/4 22/42/4 19/41/4
f 25/1/1 26/4/1 28/3/1 27/2/1
f 28/3/2 32/6/2 31/5/2 27/2/2
f 32/7/3 34/10/3 33/9/3 31/8/3
f 29/11/4 33/14/4 34/13/4 30/12/4
f 37/1/1 38/4/1 40/3/1 39/2/1
f 40/3/2 42/6/2 41/5/2 39/2/2
f 42/7/5 44/10/5 43/9/5 41/8/5
f 23/11/4 43/14/4 44/13/4 24/12/4
f 50/15/3 51/18/3 52/17/3 47/16/3
f 50/19/7 56/19/7 55/20/7 49/20/7
f 48/21/3 38/23/3 37/22/3 49/20/3
f 47/24/3 46/25/3 38/23/3 48/21/3
f 49/20/3 37/22/3 45/26/3 50/19/3
f 36/27/3 46/30/3 47/29/3 52/28/3
f 45/31/3 35/34/3 51/33/3 50/32/3
f 54/35/3 55/38/3 56/37/3 53/36/3
f 49/20/1 55/20/1 54/39/1 48/21/1
f 48/21/6 54/39/6 53/40/6 47/24/6
f 47/41/4 53/41/4 56/42/4 50/42/4
f 25/1/1 27/2/1 72/3/1 70/4/1
f 72/3/2 27/2/2 31/5/2 76/6/2
f 76/7/3 31/8/3 33/9/3 78/10/3
f 29/11/4 74/12/4 78/13/4 33/14/4
f 37/1/1 39/2/1 84/3/1 82/4/1
f 84/3/2 39/2/2 41/5/2 86/6/2
f 86/7/5 41/8/5 43/9/5 88/10/5
f 23/11/4 68/12/4 88/13/4 43/14/4
f 60/15/3 57/16/3 62/17/3 61/18/3
f 60/19/6 59/20/6 65/20/6 66/19/6
f 58/21/3 59/20/3 37/22/3 82/23/3
f 57/24/3 58/21/3 82/23/3 90/25/3
f 59/20/3 60/19/3 45/26/3 37/22/3
f 80/27/3 62/28/3 57/29/3 90/30/3
f 45/31/3 60/32/3 61/33/3 35/34/3
f 64/35/3 63/36/3 66/37/3 65/38/3
f 59/20/1 58/21/1 64/39/1 65/20/1
f 58/21/7 57/24/7 63/40/7 64/39/7
f 57/41/4 60/42/4 66/42/4 63/41/4
f 69/1/1 70/4/1 72/3/1 71/2/1
f 72/3/2 76/6/2 75/5/2 71/2/2
f 76/7/3 78/10/3 77/9/3 75/8/3
f 73/11/4 77/14/4 78/13/4 74/12/4
f 81/1/1 82/4/1 84/3/1 83/2/1
f 84/3/2 86/6/2 85/5/2 83/2/2
f 86/7/5 88/10/5 87/9/5 85/8/5
f 67/11/4 87/14/4 88/13/4 68/12/4
f 94/43/7 95/44/7 214/45/7 213/46/7
f 92/47/1 93/48/1 212/49/1 443/50/1 211/51/1
f 92/52/3 82/23/3 81/22/3 93/53/3
f 91/54/3 90/25/3 82/23/3 92/52/3
f 93/53/3 81/22/3 89/26/3 94/55/3
f 80/27/3 90/30/3 91/56/3 96/57/3
f 89/31/3 79/34/3 95/58/3 94/59/3
f 69/1/1 71/2/1 112/3/1 110/4/1
f 112/3/2 71/2/2 75/5/2 116/6/2
f 116/7/3 75/8/3 77/9/3 118/10/3
f 73/11/4 114/12/4 118/13/4 77/14/4
f 81/1/1 83/2/1 124/3/1 122/4/1
f 124/3/2 83/2/2 85/5/2 126/6/2
f 126/7/5 85/8/5 87/9/5 128/10/5
f 67/11/4 108/12/4 128/13/4 87/14/4
f 100/15/3 97/16/3 102/17/3 101/18/3
f 100/19/6 99/20/6 105/20/6 106/19/6
f 98/21/3 99/20/3 81/22/3 122/23/3
f 97/24/3 98/21/3 122/23/3 130/25/3
f 99/20/3 100/19/3 89/26/3 81/22/3
f 120/27/3 102/28/3 97/29/3 130/30/3
f 89/31/3 100/32/3 101/33/3 79/34/3
f 104/35/3 103/36/3 106/37/3 105/38/3
f 99/20/1 98/21/1 104/39/1 105/20/1
f 98/21/7 97/24/7 103/40/7 104/39/7
f 97/41/4 100/42/4 106/42/4 103/41/4
f 109/1/1 110/4/1 112/3/1 111/2/1
f 112/3/2 116/6/2 115/5/2 111/2/2
f 116/7/3 118/10/3 117/9/3 115/8/3
f 113/11/4 117/14/4 118/13/4 114/12/4
f 121/1/1 122/4/1 124/3/1 123/2/1
f 124/3/2 126/6/2 125/5/2 123/2/2
f 126/7/5 128/10/5 127/9/5 125/8/5
f 107/11/4 127/14/4 128/13/4 108/12/4
f 134/15/3 135/18/3 136/17/3 131/16/3
f 134/19/7 140/19/7 139/20/7 133/20/7
f 132/21/3 122/23/3 121/22/3 133/20/3
f 131/24/3 130/25/3 122/23/3 132/21/3
f 133/20/3 121/22/3 129/26/3 134/19/3
f 120/27/3 130/30/3 131/29/3 136/28/3
f 129/31/3 119/34/3 135/33/3 134/32/3
f 138/35/3 139/38/3 140/37/3 137/36/3
f 133/20/1 139/20/1 138/39/1 132/21/1
f 132/21/6 138/39/6 137/40/6 131/24/6
f 131/41/4 137/41/4 140/42/4 134/42/4
f 109/1/1 111/2/1 156/3/1 154/4/1
f 156/3/2 111/2/2 115/5/2 160/6/2
f 160/7/3 115/8/3 117/9/3 162/10/3
f 113/11/4 158/12/4 162/13/4 117/14/4
f 121/1/1 123/2/1 168/3/1 166/4/1
f 168/3/2 123/2/2 125/5/2 170/6/2
f 170/7/5 125/8/5 127/9/5 172/10/5
f 107/11/4 152/12/4 172/13/4 127/14/4
f 144/15/3 141/16/3 146/17/3 145/18/3
f 144/19/6 143/20/6 149/20/6 150/19/6
f 142/21/3 143/20/3 121/22/3 166/23/3
f 141/24/3 142/21/3 166/23/3 174/25/3
f 143/20/3 144/19/3 129/26/3 121/22/3
f 164/27/3 146/28/3 141/29/3 174/30/3
f 129/31/3 144/32/3 145/33/3 119/34/3
f 148/35/3 147/36/3 150/37/3 149/38/3
f 143/20/1 142/21/1 148/39/1 149/20/1
f 142/21/7 141/24/7 147/40/7 148/39/7
f 141/41/4 144/42/4 150/42/4 147/41/4
f 153/1/1 154/4/1 156/3/1 155/2/1
f 156/3/2 160/6/2 159/5/2 155/2/2
f 160/7/3 162/10/3 161/9/3 159/8/3
f 157/11/4 161/14/4 162/13/4 158/12/4
f 165/1/1 166/4/1 168/3/1 167/2/1
f 168/3/2 170/6/2 169/5/2 167/2/2
f 170/7/5 172/10/5 171/9/5 169/8/5
f 151/11/4 171/14/4 172/13/4 152/12/4
f 178/15/3 179/18/3 180/17/3 175/16/3
f 178/19/7 184/19/7 183/20/7 177/20/7
f 176/21/3 166/23/3 165/22/3 177/20/3
f 175/24/3 174/25/3 166/23/3 176/21/3
f 177/20/3 165/22/3 173/26/3 178/19/3
f 164/27/3 174/30/3 175/29/3 180/28/3
f 173/31/3 163/34/3 179/33/3 178/32/3
f 182/35/3 183/38/3 184/37/3 181/36/3
f 177/20/1 183/20/1 182/39/1 176/21/1
f 176/21/6 182/39/6 181/40/6 175/24/6
f 175/41/4 181/41/4 184/42/4 178/42/4
f 153/60/6 157/60/6 195/60/6 194/60/6
f 173/26/6 165/22/6 196/22/6 197/26/6
f 151/60/6 193/60/6 196/60/6 165/60/6
f 200/61/8 197/62/8 196/63/8 233/64/8 232/65/8
f 163/34/6 173/31/6 197/31/6 200/34/6
f 2/60/9 203/60/9 204/60/9 4/60/9
f 12/26/9 206/26/9 205/22/9 8/22/9
f 1/60/9 8/60/9 205/60/9 202/60/9
f 204/66/10 203/63/10 217/64/10
f 209/61/10 218/65/10 219/64/10 205/63/10 206/62/10
f 202/66/10 205/63/10 219/64/10
f 7/34/9 209/34/9 206/31/9 12/31/9
f 444/67/3 443/68/3 212/69/3 213/70/3
f 444/71/3 215/72/3 210/73/3
f 91/74/6 92/75/6 211/76/6 210/77/6
f 96/44/6 91/43/6 210/46/6 215/45/6
f 93/78/7 94/79/7 213/80/7 212/81/7
f 9/82/7 8/83/7 1/84/7 11/85/7 10/86/7
f 2/87/7 4/88/7 6/89/7 5/90/7 3/91/7
f 167/92/6 169/93/6 171/85/6 151/94/6 165/95/6
f 153/96/6 155/97/6 159/98/6 161/99/6 157/100/6
f 4/101/9 204/101/9 275/102/9 285/102/9
f 204/61/10 217/103/10 274/64/10 275/63/10
f 190/104/1 186/105/1 185/106/1 189/106/1
f 191/107/4 187/107/4 188/108/4 192/109/4
f 192/109/7 188/108/7 186/105/7 190/104/7
f 185/106/3 186/105/3 188/108/3 187/107/3
f 191/107/3 113/110/3 279/111/3 189/106/3
f 190/104/3 278/112/3 158/113/3 192/109/3
f 189/106/3 279/111/3 278/112/3 190/104/3
f 192/109/3 158/113/3 113/110/3 191/107/3
f 189/106/6 185/106/6 187/107/6 191/107/6
f 216/114/1 199/115/1 198/116/1 208/116/1
f 220/117/4 201/117/4 207/118/4 221/119/4
f 221/119/7 207/118/7 199/115/7 216/114/7
f 198/116/3 199/115/3 207/118/3 201/117/3
f 220/117/3 73/120/3 281/121/3 208/116/3
f 216/114/3 280/122/3 114/123/3 221/119/3
f 208/116/3 281/121/3 280/122/3 216/114/3
f 221/119/3 114/123/3 73/120/3 220/117/3
f 208/116/6 198/116/6 201/117/6 220/117/6
f 227/114/1 223/115/1 222/116/1 226/116/1
f 228/117/4 224/117/4 225/118/4 229/119/4
f 229/119/7 225/118/7 223/115/7 227/114/7
f 222/116/3 223/115/3 225/118/3 224/117/3
f 228/117/3 29/120/3 283/121/3 226/116/3
f 227/114/3 282/122/3 74/123/3 229/119/3
f 226/116/3 283/121/3 282/122/3 227/114/3
f 229/119/3 74/123/3 29/120/3 228/117/3
f 226/116/6 222/116/6 224/117/6 228/117/6
f 238/114/1 234/115/1 230/116/1 237/116/1
f 239/117/4 235/117/4 236/118/4 240/119/4
f 240/119/7 236/118/7 234/115/7 238/114/7
f 230/116/3 234/115/3 236/118/3 235/117/3
f 239/117/3 4/120/3 285/121/3 237/116/3
f 238/114/3 284/122/3 30/123/3 240/119/3
f 237/116/3 285/121/3 284/122/3 238/114/3
f 240/119/3 30/123/3 4/120/3 239/117/3
f 237/116/6 230/116/6 235/117/6 239/117/6
f 157/124/6 277/125/6 276/125/6 195/124/6
f 195/61/8 276/63/8 273/64/8 231/126/8
f 246/114/1 245/116/1 241/116/1 242/115/1
f 247/117/4 248/119/4 244/118/4 243/117/4
f 248/119/6 246/114/6 242/115/6 244/118/6
f 241/116/3 243/117/3 244/118/3 242/115/3
f 247/117/3 245/116/3 283/121/3 29/120/3
f 246/114/3 248/119/3 30/123/3 284/122/3
f 245/116/3 246/114/3 284/122/3 283/121/3
f 248/119/3 247/117/3 29/120/3 30/123/3
f 245/116/7 247/117/7 243/117/7 241/116/7
f 254/114/1 253/116/1 249/116/1 250/115/1
f 255/117/4 256/119/4 252/118/4 251/117/4
f 256/119/6 254/114/6 250/115/6 252/118/6
f 249/116/3 251/117/3 252/118/3 250/115/3
f 255/117/3 253/116/3 281/121/3 73/120/3
f 254/114/3 256/119/3 74/123/3 282/122/3
f 253/116/3 254/114/3 282/122/3 281/121/3
f 256/119/3 255/117/3 73/120/3 74/123/3
f 253/116/7 255/117/7 251/117/7 249/116/7
f 262/114/1 261/116/1 257/116/1 258/115/1
f 263/117/4 264/119/4 260/118/4 259/117/4
f 264/119/6 262/114/6 258/115/6 260/118/6
f 257/116/3 259/117/3 260/118/3 258/115/3
f 263/117/3 261/116/3 279/121/3 113/120/3
f 262/114/3 264/119/3 114/123/3 280/122/3
f 261/116/3 262/114/3 280/122/3 279/121/3
f 264/119/3 263/117/3 113/120/3 114/123/3
f 261/116/7 263/117/7 259/117/7 257/116/7
f 270/114/1 269/116/1 265/116/1 266/115/1
f 271/117/4 272/119/4 268/118/4 267/117/4
f 272/119/6 270/114/6 266/115/6 268/118/6
f 265/116/3 267/117/3 268/118/3 266/115/3
f 271/117/3 269/116/3 277/121/3 157/120/3
f 270/114/3 272/119/3 158/123/3 278/122/3
f 269/116/3 270/114/3 278/122/3 277/121/3
f 272/119/3 271/117/3 157/120/3 158/123/3
f 269/116/7 271/117/7 267/117/7 265/116/7
f 292/127/3 287/128/3 286/129/3 290/130/3
f 294/3/2 288/2/2 287/5/2 292/6/2
f 289/1/1 288/2/1 294/3/1 296/4/1
f 292/127/3 290/130/3 291/129/3 293/128/3
f 294/3/2 292/6/2 293/5/2 295/2/2
f 297/1/1 296/4/1 294/3/1 295/2/1
f 300/127/3 293/128/3 291/129/3 298/130/3
f 302/3/2 295/2/2 293/5/2 300/6/2
f 297/1/1 295/2/1 302/3/1 304/4/1
f 300/127/3 298/130/3 299/129/3 301/128/3
f 302/3/2 300/6/2 301/5/2 303/2/2
f 305/1/1 304/4/1 302/3/1 303/2/1
f 308/127/3 301/128/3 299/129/3 306/130/3
f 310/3/2 303/2/2 301/5/2 308/6/2
f 305/1/1 303/2/1 310/3/1 312/4/1
f 308/127/3 306/130/3 307/129/3 309/128/3
f 310/3/2 308/6/2 309/5/2 311/2/2
f 313/1/1 312/4/1 310/3/1 311/2/1
f 316/127/3 309/128/3 307/129/3 314/130/3
f 319/3/2 311/2/2 309/5/2 316/6/2
f 313/1/1 311/2/1 319/3/1 321/4/1
f 315/131/11 338/132/11 340/133/11 323/134/11 318/135/11
f 316/127/3 314/130/3 315/129/3 317/128/3
f 319/3/2 316/6/2 317/5/2 320/2/2
f 322/1/1 321/4/1 319/3/1 320/2/1
f 318/60/6 323/60/6 324/60/6 322/60/6
f 323/66/8 339/64/8 324/63/8
f 323/61/8 340/136/8 339/137/8
f 337/138/12 338/139/12 315/140/12 314/141/12
f 336/138/12 337/139/12 314/140/12 307/141/12
f 335/138/12 336/139/12 307/140/12 306/141/12
f 334/138/12 335/139/12 306/140/12 299/141/12
f 333/138/12 334/139/12 299/140/12 298/141/12
f 332/138/12 333/139/12 298/140/12 291/141/12
f 331/138/12 332/139/12 291/140/12 290/141/12
f 330/138/12 331/139/12 290/140/12 286/141/12
f 286/131/13 325/135/13 326/134/13 329/133/13 330/132/13
f 325/60/7 289/60/7 327/60/7 326/60/7
f 326/66/10 327/63/10 328/64/10
f 326/61/10 328/137/10 329/136/10
f 286/142/7 287/143/7 288/144/7 289/145/7 325/146/7
f 315/147/6 318/148/6 322/149/6 320/150/6 317/151/6
f 344/116/7 342/117/7 346/117/7 348/116/7
f 341/119/3 342/117/3 435/120/3 436/123/3
f 344/116/3 343/114/3 321/122/3 322/121/3
f 343/114/3 341/119/3 436/123/3 321/122/3
f 342/117/3 344/116/3 322/121/3 435/120/3
f 348/116/3 346/117/3 345/118/3 347/115/3
f 341/119/6 343/114/6 347/115/6 345/118/6
f 342/117/4 341/119/4 345/118/4 346/117/4
f 343/114/1 344/116/1 348/116/1 347/115/1
f 352/116/7 350/117/7 354/117/7 356/116/7
f 349/119/3 350/117/3 427/120/3 428/123/3
f 352/116/3 351/114/3 312/122/3 313/121/3
f 351/114/3 349/119/3 428/123/3 312/122/3
f 350/117/3 352/116/3 313/121/3 427/120/3
f 356/116/3 354/117/3 353/118/3 355/115/3
f 349/119/6 351/114/6 355/115/6 353/118/6
f 350/117/4 349/119/4 353/118/4 354/117/4
f 351/114/1 352/116/1 356/116/1 355/115/1
f 360/106/7 358/107/7 362/107/7 364/106/7
f 357/109/3 358/107/3 419/110/3 420/113/3
f 360/106/3 359/104/3 304/112/3 305/111/3
f 359/104/3 357/109/3 420/113/3 304/112/3
f 358/107/3 360/106/3 305/111/3 419/110/3
f 364/106/3 362/107/3 361/108/3 363/105/3
f 357/109/6 359/104/6 363/105/6 361/108/6
f 358/107/4 357/109/4 361/108/4 362/107/4
f 359/104/1 360/106/1 364/106/1 363/105/1
f 368/106/7 366/107/7 370/107/7 372/106/7
f 365/109/3 366/107/3 411/110/3 412/113/3
f 368/106/3 367/104/3 296/112/3 297/111/3
f 367/104/3 365/109/3 412/113/3 296/112/3
f 366/107/3 368/106/3 297/111/3 411/110/3
f 372/106/3 370/107/3 369/108/3 371/105/3
f 365/109/6 367/104/6 371/105/6 369/108/6
f 366/107/4 365/109/4 369/108/4 370/107/4
f 367/104/1 368/106/1 372/106/1 371/105/1
f 441/61/8 324/63/8 339/64/8 273/126/8
f 435/124/6 322/125/6 324/125/6 441/124/6
f 376/116/6 380/116/6 378/117/6 374/117/6
f 373/119/3 412/123/3 406/120/3 374/117/3
f 376/116/3 289/121/3 296/122/3 375/114/3
f 375/114/3 296/122/3 412/123/3 373/119/3
f 374/117/3 406/120/3 289/121/3 376/116/3
f 380/116/3 379/115/3 377/118/3 378/117/3
f 373/119/7 377/118/7 379/115/7 375/114/7
f 374/117/4 378/117/4 377/118/4 373/119/4
f 375/114/1 379/115/1 380/116/1 376/116/1
f 384/116/6 388/116/6 386/117/6 382/117/6
f 381/119/3 420/123/3 411/120/3 382/117/3
f 384/116/3 297/121/3 304/122/3 383/114/3
f 383/114/3 304/122/3 420/123/3 381/119/3
f 382/117/3 411/120/3 297/121/3 384/116/3
f 388/116/3 387/115/3 385/118/3 386/117/3
f 381/119/7 385/118/7 387/115/7 383/114/7
f 382/117/4 386/117/4 385/118/4 381/119/4
f 383/114/1 387/115/1 388/116/1 384/116/1
f 392/116/6 396/116/6 394/117/6 390/117/6
f 389/119/3 428/123/3 419/120/3 390/117/3
f 392/116/3 305/121/3 312/122/3 391/114/3
f 391/114/3 312/122/3 428/123/3 389/119/3
f 390/117/3 419/120/3 305/121/3 392/116/3
f 396/116/3 395/115/3 393/118/3 394/117/3
f 389/119/7 393/118/7 395/115/7 391/114/7
f 390/117/4 394/117/4 393/118/4 389/119/4
f 391/114/1 395/115/1 396/116/1 392/116/1
f 400/116/6 404/116/6 402/117/6 398/117/6
f 397/119/3 436/123/3 427/120/3 398/117/3
f 400/116/3 313/121/3 321/122/3 399/114/3
f 399/114/3 321/122/3 436/123/3 397/119/3
f 398/117/3 427/120/3 313/121/3 400/116/3
f 404/116/3 403/115/3 401/118/3 402/117/3
f 397/119/7 401/118/7 403/115/7 399/114/7
f 398/117/4 402/117/4 401/118/4 397/119/4
f 399/114/1 403/115/1 404/116/1 400/116/1
f 442/61/10 274/103/10 328/64/10 327/63/10
f 406/101/9 442/101/9 327/102/9 289/102/9
f 285/1/1 405/2/1 410/3/1 284/4/1
f 410/3/2 405/2/2 407/5/2 414/6/2
f 414/7/3 407/8/3 408/9/3 416/10/3
f 406/11/4 412/12/4 416/13/4 408/14/4
f 283/1/1 284/4/1 410/3/1 409/2/1
f 410/3/2 414/6/2 413/5/2 409/2/2
f 414/7/3 416/10/3 415/9/3 413/8/3
f 411/11/4 415/14/4 416/13/4 412/12/4
f 283/1/1 409/2/1 418/3/1 282/4/1
f 418/3/2 409/2/2 413/5/2 422/6/2
f 422/7/3 413/8/3 415/9/3 424/10/3
f 411/11/4 420/12/4 424/13/4 415/14/4
f 281/1/1 282/4/1 418/3/1 417/2/1
f 418/3/2 422/6/2 421/5/2 417/2/2
f 422/7/3 424/10/3 423/9/3 421/8/3
f 419/11/4 423/14/4 424/13/4 420/12/4
f 281/1/1 417/2/1 426/3/1 280/4/1
f 426/3/2 417/2/2 421/5/2 430/6/2
f 430/7/3 421/8/3 423/9/3 432/10/3
f 419/11/4 428/12/4 432/13/4 423/14/4
f 279/1/1 280/4/1 426/3/1 425/2/1
f 426/3/2 430/6/2 429/5/2 425/2/2
f 430/7/3 432/10/3 431/9/3 429/8/3
f 427/11/4 431/14/4 432/13/4 428/12/4
f 279/1/1 425/2/1 434/3/1 278/4/1
f 434/3/2 425/2/2 429/5/2 438/6/2
f 438/7/3 429/8/3 431/9/3 440/10/3
f 427/11/4 436/12/4 440/13/4 431/14/4
f 277/1/1 278/4/1 434/3/1 433/2/1
f 434/3/2 438/6/2 437/5/2 433/2/2
f 438/7/3 440/10/3 439/9/3 437/8/3
f 435/11/4 439/14/4 440/13/4 436/12/4
f 277/60/6 435/60/6 441/60/6 276/60/6
f 441/66/8 273/64/8 276/63/8
f 285/60/9 275/60/9 442/60/9 406/60/9
f 442/66/10 275/63/10 274/64/10
f 285/87/7 406/88/7 408/89/7 407/90/7 405/91/7
f 277/96/6 433/97/6 437/98/6 439/99/6 435/100/6
f 214/152/3 444/153/3 213/70/3
f 210/73/3 211/154/3 443/155/3 444/156/3
f 1/101/9 202/101/9 203/102/9 2/102/9
f 202/61/10 219/103/10 217/64/10 203/63/10
f 450/114/1 446/115/1 445/116/1 449/116/1
f 451/117/4 447/117/4 448/118/4 452/119/4
f 452/119/7 448/118/7 446/115/7 450/114/7
f 445/116/3 446/115/3 448/118/3 447/117/3
f 451/117/3 107/120/3 109/121/3 449/116/3
f 450/114/3 154/122/3 152/123/3 452/119/3
f 449/116/3 109/121/3 154/122/3 450/114/3
f 452/119/3 152/123/3 107/120/3 451/117/3
f 449/116/6 445/116/6 447/117/6 451/117/6
f 458/114/1 454/115/1 453/116/1 457/116/1
f 459/117/4 455/117/4 456/118/4 460/119/4
f 460/119/7 456/118/7 454/115/7 458/114/7
f 453/116/3 454/115/3 456/118/3 455/117/3
f 459/117/3 67/120/3 69/121/3 457/116/3
f 458/114/3 110/122/3 108/123/3 460/119/3
f 457/116/3 69/121/3 110/122/3 458/114/3
f 460/119/3 108/123/3 67/120/3 459/117/3
f 457/116/6 453/116/6 455/117/6 459/117/6
f 466/114/1 462/115/1 461/116/1 465/116/1
f 467/117/4 463/117/4 464/118/4 468/119/4
f 468/119/7 464/118/7 462/115/7 466/114/7
f 461/116/3 462/115/3 464/118/3 463/117/3
f 467/117/3 23/120/3 25/121/3 465/116/3
f 466/114/3 70/122/3 68/123/3 468/119/3
f 465/116/3 25/121/3 70/122/3 466/114/3
f 468/119/3 68/123/3 23/120/3 467/117/3
f 465/116/6 461/116/6 463/117/6 467/117/6
f 474/114/1 470/115/1 469/116/1 473/116/1
f 475/117/4 471/117/4 472/118/4 476/119/4
f 476/119/7 472/118/7 470/115/7 474/114/7
f 469/116/3 470/115/3 472/118/3 471/117/3
f 475/117/3 1/120/3 2/121/3 473/116/3
f 474/114/3 26/122/3 24/123/3 476/119/3
f 473/116/3 2/121/3 26/122/3 474/114/3
f 476/119/3 24/123/3 1/120/3 475/117/3
f 473/116/6 469/116/6 471/117/6 475/117/6
f 151/124/6 153/125/6 194/125/6 193/124/6
f 193/61/8 194/63/8 231/64/8 233/126/8
f 482/114/1 481/116/1 477/116/1 478/115/1
f 483/117/4 484/119/4 480/118/4 479/117/4
f 484/119/6 482/114/6 478/115/6 480/118/6
f 477/116/3 479/117/3 480/118/3 478/115/3
f 483/117/3 481/116/3 25/121/3 23/120/3
f 482/114/3 484/119/3 24/123/3 26/122/3
f 481/116/3 482/114/3 26/122/3 25/121/3
f 484/119/3 483/117/3 23/120/3 24/123/3
f 481/116/7 483/117/7 479/117/7 477/116/7
f 490/104/1 489/106/1 485/106/1 486/105/1
f 491/107/4 492/109/4 488/108/4 487/107/4
f 492/109/6 490/104/6 486/105/6 488/108/6
f 485/106/3 487/107/3 488/108/3 486/105/3
f 491/107/3 489/106/3 69/111/3 67/110/3
f 490/104/3 492/109/3 68/113/3 70/112/3
f 489/106/3 490/104/3 70/112/3 69/111/3
f 492/109/3 491/107/3 67/110/3 68/113/3
f 489/106/7 491/107/7 487/107/7 485/106/7
f 498/114/1 497/116/1 493/116/1 494/115/1
f 499/117/4 500/119/4 496/118/4 495/117/4
f 500/119/6 498/114/6 494/115/6 496/118/6
f 493/116/3 495/117/3 496/118/3 494/115/3
f 499/117/3 497/116/3 109/121/3 107/120/3
f 498/114/3 500/119/3 108/123/3 110/122/3
f 497/116/3 498/114/3 110/122/3 109/121/3
f 500/119/3 499/117/3 107/120/3 108/123/3
f 497/116/7 499/117/7 495/117/7 493/116/7
f 506/114/1 505/116/1 501/116/1 502/115/1
f 507/117/4 508/119/4 504/118/4 503/117/4
f 508/119/6 506/114/6 502/115/6 504/118/6
f 501/116/3 503/117/3 504/118/3 502/115/3
f 507/117/3 505/116/3 153/121/3 151/120/3
f 506/114/3 508/119/3 152/123/3 154/122/3
f 505/116/3 506/114/3 154/122/3 153/121/3
f 508/119/3 507/117/3 151/120/3 152/123/3
f 505/116/7 507/117/7 503/117/7 501/116/7
f 195/157/8 231/158/8 194/159/8
f 193/157/8 233/158/8 196/159/8
f 510/1/1 511/2/1 536/3/1 534/4/1
f 536/3/14 511/2/14 513/5/14 540/6/14
f 540/7/15 513/8/15 514/9/15 542/10/15
f 512/11/4 538/12/4 542/13/4 514/14/4
f 516/1/1 517/2/1 548/3/1 546/4/1
f 548/3/14 517/2/14 518/5/14 550/6/14
f 550/7/16 518/8/16 519/9/16 552/10/16
f 509/11/4 532/12/4 552/13/4 519/14/4
f 524/15/15 521/16/15 526/17/15 525/18/15
f 524/19/7 523/20/7 529/20/7 530/19/7
f 522/21/15 523/20/15 516/22/15 546/23/15
f 521/24/15 522/21/15 546/23/15 554/25/15
f 523/20/15 524/19/15 520/26/15 516/22/15
f 544/27/15 526/28/15 521/29/15 554/30/15
f 520/31/15 524/32/15 525/33/15 515/34/15
f 528/35/15 527/36/15 530/37/15 529/38/15
f 523/20/1 522/21/1 528/39/1 529/20/1
f 522/21/6 521/24/6 527/40/6 528/39/6
f 521/41/4 524/42/4 530/42/4 527/41/4
f 533/1/1 534/4/1 536/3/1 535/2/1
f 536/3/14 540/6/14 539/5/14 535/2/14
f 540/7/15 542/10/15 541/9/15 539/8/15
f 537/11/4 541/14/4 542/13/4 538/12/4
f 545/1/1 546/4/1 548/3/1 547/2/1
f 548/3/14 550/6/14 549/5/14 547/2/14
f 550/7/16 552/10/16 551/9/16 549/8/16
f 531/11/4 551/14/4 552/13/4 532/12/4
f 558/15/15 559/18/15 560/17/15 555/16/15
f 558/19/6 564/19/6 563/20/6 557/20/6
f 556/21/15 546/23/15 545/22/15 557/20/15
f 555/24/15 554/25/15 546/23/15 556/21/15
f 557/20/15 545/22/15 553/26/15 558/19/15
f 544/27/15 554/30/15 555/29/15 560/28/15
f 553/31/15 543/34/15 559/33/15 558/32/15
f 562/35/15 563/38/15 564/37/15 561/36/15
f 557/20/1 563/20/1 562/39/1 556/21/1
f 556/21/7 562/39/7 561/40/7 555/24/7
f 555/41/4 561/41/4 564/42/4 558/42/4
f 533/1/1 535/2/1 580/3/1 578/4/1
f 580/3/14 535/2/14 539/5/14 584/6/14
f 584/7/15 539/8/15 541/9/15 586/10/15
f 537/11/4 582/12/4 586/13/4 541/14/4
f 545/1/1 547/2/1 592/3/1 590/4/1
f 592/3/14 547/2/14 549/5/14 594/6/14
f 594/7/16 549/8/16 551/9/16 596/10/16
f 531/11/4 576/12/4 596/13/4 551/14/4
f 568/15/15 565/16/15 570/17/15 569/18/15
f 568/19/7 567/20/7 573/20/7 574/19/7
f 566/21/15 567/20/15 545/22/15 590/23/15
f 565/24/15 566/21/15 590/23/15 598/25/15
f 567/20/15 568/19/15 553/26/15 545/22/15
f 588/27/15 570/28/15 565/29/15 598/30/15
f 553/31/15 568/32/15 569/33/15 543/34/15
f 572/35/15 571/36/15 574/37/15 573/38/15
f 567/20/1 566/21/1 572/39/1 573/20/1
f 566/21/6 565/24/6 571/40/6 572/39/6
f 565/41/4 568/42/4 574/42/4 571/41/4
f 577/1/1 578/4/1 580/3/1 579/2/1
f 580/3/14 584/6/14 583/5/14 579/2/14
f 584/7/15 586/10/15 585/9/15 583/8/15
f 581/11/4 585/14/4 586/13/4 582/12/4
f 589/1/1 590/4/1 592/3/1 591/2/1
f 592/3/14 594/6/14 593/5/14 591/2/14
f 594/7/16 596/10/16 595/9/16 593/8/16
f 575/11/4 595/14/4 596/13/4 576/12/4
f 602/43/6 603/44/6 722/45/6 721/46/6
f 600/47/1 601/48/1 720/49/1 930/50/1 719/51/1
f 600/52/15 590/23/15 589/22/15 601/53/15
f 599/54/15 598/25/15 590/23/15 600/52/15
f 601/53/15 589/22/15 597/26/15 602/55/15
f 588/27/15 598/30/15 599/56/15 604/57/15
f 597/31/15 587/34/15 603/58/15 602/59/15
f 577/1/1 579/2/1 620/3/1 618/4/1
f 620/3/14 579/2/14 583/5/14 624/6/14
f 624/7/15 583/8/15 585/9/15 626/10/15
f 581/11/4 622/12/4 626/13/4 585/14/4
f 589/1/1 591/2/1 632/3/1 630/4/1
f 632/3/14 591/2/14 593/5/14 634/6/14
f 634/7/16 593/8/16 595/9/16 636/10/16
f 575/11/4 616/12/4 636/13/4 595/14/4
f 608/15/15 605/16/15 610/17/15 609/18/15
f 608/19/7 607/20/7 613/20/7 614/19/7
f 606/21/15 607/20/15 589/22/15 630/23/15
f 605/24/15 606/21/15 630/23/15 638/25/15
f 607/20/15 608/19/15 597/26/15 589/22/15
f 628/27/15 610/28/15 605/29/15 638/30/15
f 597/31/15 608/32/15 609/33/15 587/34/15
f 612/35/15 611/36/15 614/37/15 613/38/15
f 607/20/1 606/21/1 612/39/1 613/20/1
f 606/21/6 605/24/6 611/40/6 612/39/6
f 605/41/4 608/42/4 614/42/4 611/41/4
f 617/1/1 618/4/1 620/3/1 619/2/1
f 620/3/14 624/6/14 623/5/14 619/2/14
f 624/7/15 626/10/15 625/9/15 623/8/15
f 621/11/4 625/14/4 626/13/4 622/12/4
f 629/1/1 630/4/1 632/3/1 631/2/1
f 632/3/14 634/6/14 633/5/14 631/2/14
f 634/7/16 636/10/16 635/9/16 633/8/16
f 615/11/4 635/14/4 636/13/4 616/12/4
f 642/15/15 643/18/15 644/17/15 639/16/15
f 642/19/6 648/19/6 647/20/6 641/20/6
f 640/21/15 630/23/15 629/22/15 641/20/15
f 639/24/15 638/25/15 630/23/15 640/21/15
f 641/20/15 629/22/15 637/26/15 642/19/15
f 628/27/15 638/30/15 639/29/15 644/28/15
f 637/31/15 627/34/15 643/33/15 642/32/15
f 646/35/15 647/38/15 648/37/15 645/36/15
f 641/20/1 647/20/1 646/39/1 640/21/1
f 640/21/7 646/39/7 645/40/7 639/24/7
f 639/41/4 645/41/4 648/42/4 642/42/4
f 617/1/1 619/2/1 664/3/1 662/4/1
f 664/3/14 619/2/14 623/5/14 668/6/14
f 668/7/15 623/8/15 625/9/15 670/10/15
f 621/11/4 666/12/4 670/13/4 625/14/4
f 629/1/1 631/2/1 676/3/1 674/4/1
f 676/3/14 631/2/14 633/5/14 678/6/14
f 678/7/16 633/8/16 635/9/16 680/10/16
f 615/11/4 660/12/4 680/13/4 635/14/4
f 652/15/15 649/16/15 654/17/15 653/18/15
f 652/19/7 651/20/7 657/20/7 658/19/7
f 650/21/15 651/20/15 629/22/15 674/23/15
f 649/24/15 650/21/15 674/23/15 682/25/15
f 651/20/15 652/19/15 637/26/15 629/22/15
f 672/27/15 654/28/15 649/29/15 682/30/15
f 637/31/15 652/32/15 653/33/15 627/34/15
f 656/35/15 655/36/15 658/37/15 657/38/15
f 651/20/1 650/21/1 656/39/1 657/20/1
f 650/21/6 649/24/6 655/40/6 656/39/6
f 649/41/4 652/42/4 658/42/4 655/41/4
f 661/1/1 662/4/1 664/3/1 663/2/1
f 664/3/14 668/6/14 667/5/14 663/2/14
f 668/7/15 670/10/15 669/9/15 667/8/15
f 665/11/4 669/14/4 670/13/4 666/12/4
f 673/1/1 674/4/1 676/3/1 675/2/1
f 676/3/14 678/6/14 677/5/14 675/2/14
f 678/7/16 680/10/16 679/9/16 677/8/16
f 659/11/4 679/14/4 680/13/4 660/12/4
f 686/15/15 687/18/15 688/17/15 683/16/15
f 686/19/6 692/19/6 691/20/6 685/20/6
f 684/21/15 674/23/15 673/22/15 685/20/15
f 683/24/15 682/25/15 674/23/15 684/21/15
f 685/20/15 673/22/15 681/26/15 686/19/15
f 672/27/15 682/30/15 683/29/15 688/28/15
f 681/31/15 671/34/15 687/33/15 686/32/15
f 690/35/15 691/38/15 692/37/15 689/36/15
f 685/20/1 691/20/1 690/39/1 684/21/1
f 684/21/7 690/39/7 689/40/7 683/24/7
f 683/41/4 689/41/4 692/42/4 686/42/4
f 661/60/7 665/60/7 703/60/7 702/60/7
f 681/26/7 673/22/7 704/22/7 705/26/7
f 659/60/7 701/60/7 704/60/7 673/60/7
f 708/61/10 705/62/10 704/63/10 219/64/10 218/65/10
f 671/34/7 681/31/7 705/31/7 708/34/7
f 510/60/17 711/60/17 712/60/17 512/60/17
f 520/26/17 714/26/17 713/22/17 516/22/17
f 509/60/17 516/60/17 713/60/17 710/60/17
f 712/66/8 711/63/8 231/64/8
f 717/61/8 232/65/8 233/64/8 713/63/8 714/62/8
f 710/66/8 713/63/8 233/64/8
f 515/34/17 717/34/17 714/31/17 520/31/17
f 931/67/15 930/68/15 720/69/15 721/70/15
f 931/71/15 723/72/15 718/73/15
f 599/74/7 600/75/7 719/76/7 718/77/7
f 604/44/7 599/43/7 718/46/7 723/45/7
f 601/78/6 602/79/6 721/80/6 720/81/6
f 517/82/6 516/83/6 509/84/6 519/85/6 518/86/6
f 510/87/6 512/88/6 514/89/6 513/90/6 511/91/6
f 675/92/7 677/93/7 679/85/7 659/94/7 673/95/7
f 661/96/7 663/97/7 667/98/7 669/99/7 665/100/7
f 512/101/17 712/101/17 775/102/17 785/102/17
f 712/61/8 231/103/8 273/64/8 775/63/8
f 698/104/1 694/105/1 693/106/1 697/106/1
f 699/107/4 695/107/4 696/108/4 700/109/4
f 700/109/6 696/108/6 694/105/6 698/104/6
f 693/106/15 694/105/15 696/108/15 695/107/15
f 699/107/15 621/110/15 779/111/15 697/106/15
f 698/104/15 778/112/15 666/113/15 700/109/15
f 697/106/15 779/111/15 778/112/15 698/104/15
f 700/109/15 666/113/15 621/110/15 699/107/15
f 697/106/7 693/106/7 695/107/7 699/107/7
f 724/114/1 707/115/1 706/116/1 716/116/1
f 725/117/4 709/117/4 715/118/4 726/119/4
f 726/119/6 715/118/6 707/115/6 724/114/6
f 706/116/15 707/115/15 715/118/15 709/117/15
f 725/117/15 581/120/15 781/121/15 716/116/15
f 724/114/15 780/122/15 622/123/15 726/119/15
f 716/116/15 781/121/15 780/122/15 724/114/15
f 726/119/15 622/123/15 581/120/15 725/117/15
f 716/116/7 706/116/7 709/117/7 725/117/7
f 732/114/1 728/115/1 727/116/1 731/116/1
f 733/117/4 729/117/4 730/118/4 734/119/4
f 734/119/6 730/118/6 728/115/6 732/114/6
f 727/116/15 728/115/15 730/118/15 729/117/15
f 733/117/15 537/120/15 783/121/15 731/116/15
f 732/114/15 782/122/15 582/123/15 734/119/15
f 731/116/15 783/121/15 782/122/15 732/114/15
f 734/119/15 582/123/15 537/120/15 733/117/15
f 731/116/7 727/116/7 729/117/7 733/117/7
f 740/114/1 736/115/1 735/116/1 739/116/1
f 741/117/4 737/117/4 738/118/4 742/119/4
f 742/119/6 738/118/6 736/115/6 740/114/6
f 735/116/15 736/115/15 738/118/15 737/117/15
f 741/117/15 512/120/15 785/121/15 739/116/15
f 740/114/15 784/122/15 538/123/15 742/119/15
f 739/116/15 785/121/15 784/122/15 740/114/15
f 742/119/15 538/123/15 512/120/15 741/117/15
f 739/116/7 735/116/7 737/117/7 741/117/7
f 665/124/7 777/125/7 776/125/7 703/124/7
f 703/61/10 776/63/10 274/64/10 217/126/10
f 748/114/1 747/116/1 743/116/1 744/115/1
f 749/117/4 750/119/4 746/118/4 745/117/4
f 750/119/7 748/114/7 744/115/7 746/118/7
f 743/116/15 745/117/15 746/118/15 744/115/15
f 749/117/15 747/116/15 783/121/15 537/120/15
f 748/114/15 750/119/15 538/123/15 784/122/15
f 747/116/15 748/114/15 784/122/15 783/121/15
f 750/119/15 749/117/15 537/120/15 538/123/15
f 747/116/6 749/117/6 745/117/6 743/116/6
f 756/114/1 755/116/1 751/116/1 752/115/1
f 757/117/4 758/119/4 754/118/4 753/117/4
f 758/119/7 756/114/7 752/115/7 754/118/7
f 751/116/15 753/117/15 754/118/15 752/115/15
f 757/117/15 755/116/15 781/121/15 581/120/15
f 756/114/15 758/119/15 582/123/15 782/122/15
f 755/116/15 756/114/15 782/122/15 781/121/15
f 758/119/15 757/117/15 581/120/15 582/123/15
f 755/116/6 757/117/6 753/117/6 751/116/6
f 764/114/1 763/116/1 759/116/1 760/115/1
f 765/117/4 766/119/4 762/118/4 761/117/4
f 766/119/7 764/114/7 760/115/7 762/118/7
f 759/116/15 761/117/15 762/118/15 760/115/15
f 765/117/15 763/116/15 779/121/15 621/120/15
f 764/114/15 766/119/15 622/123/15 780/122/15
f 763/116/15 764/114/15 780/122/15 779/121/15
f 766/119/15 765/117/15 621/120/15 622/123/15
f 763/116/6 765/117/6 761/117/6 759/116/6
f 772/114/1 771/116/1 767/116/1 768/115/1
f 773/117/4 774/119/4 770/118/4 769/117/4
f 774/119/7 772/114/7 768/115/7 770/118/7
f 767/116/15 769/117/15 770/118/15 768/115/15
f 773/117/15 771/116/15 777/121/15 665/120/15
f 772/114/15 774/119/15 666/123/15 778/122/15
f 771/116/15 772/114/15 778/122/15 777/121/15
f 774/119/15 773/117/15 665/120/15 666/123/15
f 771/116/6 773/117/6 769/117/6 767/116/6
f 792/127/15 787/128/15 786/129/15 790/130/15
f 794/3/14 788/2/14 787/5/14 792/6/14
f 789/1/1 788/2/1 794/3/1 796/4/1
f 792/127/15 790/130/15 791/129/15 793/128/15
f 794/3/14 792/6/14 793/5/14 795/2/14
f 797/1/1 796/4/1 794/3/1 795/2/1
f 800/127/15 793/128/15 791/129/15 798/130/15
f 802/3/14 795/2/14 793/5/14 800/6/14
f 797/1/1 795/2/1 802/3/1 804/4/1
f 800/127/15 798/130/15 799/129/15 801/128/15
f 802/3/14 800/6/14 801/5/14 803/2/14
f 805/1/1 804/4/1 802/3/1 803/2/1
f 808/127/15 801/128/15 799/129/15 806/130/15
f 810/3/14 803/2/14 801/5/14 808/6/14
f 805/1/1 803/2/1 810/3/1 812/4/1
f 808/127/15 806/130/15 807/129/15 809/128/15
f 810/3/14 808/6/14 809/5/14 811/2/14
f 813/1/1 812/4/1 810/3/1 811/2/1
f 816/127/15 809/128/15 807/129/15 814/130/15
f 819/3/14 811/2/14 809/5/14 816/6/14
f 813/1/1 811/2/1 819/3/1 821/4/1
f 815/131/18 330/132/18 329/133/18 823/134/18 818/135/18
f 816/127/15 814/130/15 815/129/15 817/128/15
f 819/3/14 816/6/14 817/5/14 820/2/14
f 822/1/1 821/4/1 819/3/1 820/2/1
f 818/60/7 823/60/7 824/60/7 822/60/7
f 823/66/10 328/64/10 824/63/10
f 823/61/10 329/136/10 328/137/10
f 331/138/19 330/139/19 815/140/19 814/141/19
f 332/138/19 331/139/19 814/140/19 807/141/19
f 333/138/19 332/139/19 807/140/19 806/141/19
f 334/138/19 333/139/19 806/140/19 799/141/19
f 335/138/19 334/139/19 799/140/19 798/141/19
f 336/138/19 335/139/19 798/140/19 791/141/19
f 337/138/19 336/139/19 791/140/19 790/141/19
f 338/138/19 337/139/19 790/140/19 786/141/19
f 786/131/20 825/135/20 826/134/20 340/133/20 338/132/20
f 825/60/6 789/60/6 827/60/6 826/60/6
f 826/66/8 827/63/8 339/64/8
f 826/61/8 339/137/8 340/136/8
f 786/142/6 787/143/6 788/144/6 789/145/6 825/146/6
f 815/147/7 818/148/7 822/149/7 820/150/7 817/151/7
f 831/116/6 829/117/6 833/117/6 835/116/6
f 828/119/15 829/117/15 922/120/15 923/123/15
f 831/116/15 830/114/15 821/122/15 822/121/15
f 830/114/15 828/119/15 923/123/15 821/122/15
f 829/117/15 831/116/15 822/121/15 922/120/15
f 835/116/15 833/117/15 832/118/15 834/115/15
f 828/119/7 830/114/7 834/115/7 832/118/7
f 829/117/4 828/119/4 832/118/4 833/117/4
f 830/114/1 831/116/1 835/116/1 834/115/1
f 839/116/6 837/117/6 841/117/6 843/116/6
f 836/119/15 837/117/15 914/120/15 915/123/15
f 839/116/15 838/114/15 812/122/15 813/121/15
f 838/114/15 836/119/15 915/123/15 812/122/15
f 837/117/15 839/116/15 813/121/15 914/120/15
f 843/116/15 841/117/15 840/118/15 842/115/15
f 836/119/7 838/114/7 842/115/7 840/118/7
f 837/117/4 836/119/4 840/118/4 841/117/4
f 838/114/1 839/116/1 843/116/1 842/115/1
f 847/106/6 845/107/6 849/107/6 851/106/6
f 844/109/15 845/107/15 906/110/15 907/113/15
f 847/106/15 846/104/15 804/112/15 805/111/15
f 846/104/15 844/109/15 907/113/15 804/112/15
f 845/107/15 847/106/15 805/111/15 906/110/15
f 851/106/15 849/107/15 848/108/15 850/105/15
f 844/109/7 846/104/7 850/105/7 848/108/7
f 845/107/4 844/109/4 848/108/4 849/107/4
f 846/104/1 847/106/1 851/106/1 850/105/1
f 855/106/6 853/107/6 857/107/6 859/106/6
f 852/109/15 853/107/15 898/110/15 899/113/15
f 855/106/15 854/104/15 796/112/15 797/111/15
f 854/104/15 852/109/15 899/113/15 796/112/15
f 853/107/15 855/106/15 797/111/15 898/110/15
f 859/106/15 857/107/15 856/108/15 858/105/15
f 852/109/7 854/104/7 858/105/7 856/108/7
f 853/107/4 852/109/4 856/108/4 857/107/4
f 854/104/1 855/106/1 859/106/1 858/105/1
f 928/61/10 824/63/10 328/64/10 274/126/10
f 922/124/7 822/125/7 824/125/7 928/124/7
f 863/116/7 867/116/7 865/117/7 861/117/7
f 860/119/15 899/123/15 893/120/15 861/117/15
f 863/116/15 789/121/15 796/122/15 862/114/15
f 862/114/15 796/122/15 899/123/15 860/119/15
f 861/117/15 893/120/15 789/121/15 863/116/15
f 867/116/15 866/115/15 864/118/15 865/117/15
f 860/119/6 864/118/6 866/115/6 862/114/6
f 861/117/4 865/117/4 864/118/4 860/119/4
f 862/114/1 866/115/1 867/116/1 863/116/1
f 871/116/7 875/116/7 873/117/7 869/117/7
f 868/119/15 907/123/15 898/120/15 869/117/15
f 871/116/15 797/121/15 804/122/15 870/114/15
f 870/114/15 804/122/15 907/123/15 868/119/15
f 869/117/15 898/120/15 797/121/15 871/116/15
f 875/116/15 874/115/15 872/118/15 873/117/15
f 868/119/6 872/118/6 874/115/6 870/114/6
f 869/117/4 873/117/4 872/118/4 868/119/4
f 870/114/1 874/115/1 875/116/1 871/116/1
f 879/116/7 883/116/7 881/117/7 877/117/7
f 876/119/15 915/123/15 906/120/15 877/117/15
f 879/116/15 805/121/15 812/122/15 878/114/15
f 878/114/15 812/122/15 915/123/15 876/119/15
f 877/117/15 906/120/15 805/121/15 879/116/15
f 883/116/15 882/115/15 880/118/15 881/117/15
f 876/119/6 880/118/6 882/115/6 878/114/6
f 877/117/4 881/117/4 880/118/4 876/119/4
f 878/114/1 882/115/1 883/116/1 879/116/1
f 887/116/7 891/116/7 889/117/7 885/117/7
f 884/119/15 923/123/15 914/120/15 885/117/15
f 887/116/15 813/121/15 821/122/15 886/114/15
f 886/114/15 821/122/15 923/123/15 884/119/15
f 885/117/15 914/120/15 813/121/15 887/116/15
f 891/116/15 890/115/15 888/118/15 889/117/15
f 884/119/6 888/118/6 890/115/6 886/114/6
f 885/117/4 889/117/4 888/118/4 884/119/4
f 886/114/1 890/115/1 891/116/1 887/116/1
f 929/61/8 273/103/8 339/64/8 827/63/8
f 893/101/17 929/101/17 827/102/17 789/102/17
f 785/1/1 892/2/1 897/3/1 784/4/1
f 897/3/14 892/2/14 894/5/14 901/6/14
f 901/7/15 894/8/15 895/9/15 903/10/15
f 893/11/4 899/12/4 903/13/4 895/14/4
f 783/1/1 784/4/1 897/3/1 896/2/1
f 897/3/14 901/6/14 900/5/14 896/2/14
f 901/7/15 903/10/15 902/9/15 900/8/15
f 898/11/4 902/14/4 903/13/4 899/12/4
f 783/1/1 896/2/1 905/3/1 782/4/1
f 905/3/14 896/2/14 900/5/14 909/6/14
f 909/7/15 900/8/15 902/9/15 911/10/15
f 898/11/4 907/12/4 911/13/4 902/14/4
f 781/1/1 782/4/1 905/3/1 904/2/1
f 905/3/14 909/6/14 908/5/14 904/2/14
f 909/7/15 911/10/15 910/9/15 908/8/15
f 906/11/4 910/14/4 911/13/4 907/12/4
f 781/1/1 904/2/1 913/3/1 780/4/1
f 913/3/14 904/2/14 908/5/14 917/6/14
f 917/7/15 908/8/15 910/9/15 919/10/15
f 906/11/4 915/12/4 919/13/4 910/14/4
f 779/1/1 780/4/1 913/3/1 912/2/1
f 913/3/14 917/6/14 916/5/14 912/2/14
f 917/7/15 919/10/15 918/9/15 916/8/15
f 914/11/4 918/14/4 919/13/4 915/12/4
f 779/1/1 912/2/1 921/3/1 778/4/1
f 921/3/14 912/2/14 916/5/14 925/6/14
f 925/7/15 916/8/15 918/9/15 927/10/15
f 914/11/4 923/12/4 927/13/4 918/14/4
f 777/1/1 778/4/1 921/3/1 920/2/1
f 921/3/14 925/6/14 924/5/14 920/2/14
f 925/7/15 927/10/15 926/9/15 924/8/15
f 922/11/4 926/14/4 927/13/4 923/12/4
f 777/60/7 922/60/7 928/60/7 776/60/7
f 928/66/10 274/64/10 776/63/10
f 785/60/17 775/60/17 929/60/17 893/60/17
f 929/66/8 775/63/8 273/64/8
f 785/87/6 893/88/6 895/89/6 894/90/6 892/91/6
f 777/96/7 920/97/7 924/98/7 926/99/7 922/100/7
f 722/152/15 931/153/15 721/70/15
f 718/73/15 719/154/15 930/155/15 931/156/15
f 509/101/17 710/101/17 711/102/17 510/102/17
f 710/61/8 233/103/8 231/64/8 711/63/8
f 937/114/1 933/115/1 932/116/1 936/116/1
f 938/117/4 934/117/4 935/118/4 939/119/4
f 939/119/6 935/118/6 933/115/6 937/114/6
f 932/116/15 933/115/15 935/118/15 934/117/15
f 938/117/15 615/120/15 617/121/15 936/116/15
f 937/114/15 662/122/15 660/123/15 939/119/15
f 936/116/15 617/121/15 662/122/15 937/114/15
f 939/119/15 660/123/15 615/120/15 938/117/15
f 936/116/7 932/116/7 934/117/7 938/117/7
f 945/114/1 941/115/1 940/116/1 944/116/1
f 946/117/4 942/117/4 943/118/4 947/119/4
f 947/119/6 943/118/6 941/115/6 945/114/6
f 940/116/15 941/115/15 943/118/15 942/117/15
f 946/117/15 575/120/15 577/121/15 944/116/15
f 945/114/15 618/122/15 616/123/15 947/119/15
f 944/116/15 577/121/15 618/122/15 945/114/15
f 947/119/15 616/123/15 575/120/15 946/117/15
f 944/116/7 940/116/7 942/117/7 946/117/7
f 953/114/1 949/115/1 948/116/1 952/116/1
f 954/117/4 950/117/4 951/118/4 955/119/4
f 955/119/6 951/118/6 949/115/6 953/114/6
f 948/116/15 949/115/15 951/118/15 950/117/15
f 954/117/15 531/120/15 533/121/15 952/116/15
f 953/114/15 578/122/15 576/123/15 955/119/15
f 952/116/15 533/121/15 578/122/15 953/114/15
f 955/119/15 576/123/15 531/120/15 954/117/15
f 952/116/7 948/116/7 950/117/7 954/117/7
f 961/114/1 957/115/1 956/116/1 960/116/1
f 962/117/4 958/117/4 959/118/4 963/119/4
f 963/119/6 959/118/6 957/115/6 961/114/6
f 956/116/15 957/115/15 959/118/15 958/117/15
f 962/117/15 509/120/15 510/121/15 960/116/15
f 961/114/15 534/122/15 532/123/15 963/119/15
f 960/116/15 510/121/15 534/122/15 961/114/15
f 963/119/15 532/123/15 509/120/15 962/117/15
f 960/116/7 956/116/7 958/117/7 962/117/7
f 659/124/7 661/125/7 702/125/7 701/124/7
f 701/61/10 702/63/10 217/64/10 219/126/10
f 969/114/1 968/116/1 964/116/1 965/115/1
f 970/117/4 971/119/4 967/118/4 966/117/4
f 971/119/7 969/114/7 965/115/7 967/118/7
f 964/116/15 966/117/15 967/118/15 965/115/15
f 970/117/15 968/116/15 533/121/15 531/120/15
f 969/114/15 971/119/15 532/123/15 534/122/15
f 968/116/15 969/114/15 534/122/15 533/121/15
f 971/119/15 970/117/15 531/120/15 532/123/15
f 968/116/6 970/117/6 966/117/6 964/116/6
f 977/104/1 976/106/1 972/106/1 973/105/1
f 978/107/4 979/109/4 975/108/4 974/107/4
f 979/109/7 977/104/7 973/105/7 975/108/7
f 972/106/15 974/107/15 975/108/15 973/105/15
f 978/107/15 976/106/15 577/111/15 575/110/15
f 977/104/15 979/109/15 576/113/15 578/112/15
f 976/106/15 977/104/15 578/112/15 577/111/15
f 979/109/15 978/107/15 575/110/15 576/113/15
f 976/106/6 978/107/6 974/107/6 972/106/6
f 985/114/1 984/116/1 980/116/1 981/115/1
f 986/117/4 987/119/4 983/118/4 982/117/4
f 987/119/7 985/114/7 981/115/7 983/118/7
f 980/116/15 982/117/15 983/118/15 981/115/15
f 986/117/15 984/116/15 617/121/15 615/120/15
f 985/114/15 987/119/15 616/123/15 618/122/15
f 984/116/15 985/114/15 618/122/15 617/121/15
f 987/119/15 986/117/15 615/120/15 616/123/15
f 984/116/6 986/117/6 982/117/6 980/116/6
f 993/114/1 992/116/1 988/116/1 989/115/1
f 994/117/4 995/119/4 991/118/4 990/117/4
f 995/119/7 993/114/7 989/115/7 991/118/7
f 988/116/15 990/117/15 991/118/15 989/115/15
f 994/117/15 992/116/15 661/121/15 659/120/15
f 993/114/15 995/119/15 660/123/15 662/122/15
f 992/116/15 993/114/15 662/122/15 661/121/15
f 995/119/15 994/117/15 659/120/15 660/123/15
f 992/116/6 994/117/6 990/117/6 988/116/6
f 703/157/10 217/158/10 702/159/10
f 701/157/10 219/158/10 704/159/10
