# Blender 5.1.1
# www.blender.org
mtllib PBP1_Building3_2sided.mtl
o PBP1_Building3_2sided
v 9.702407 -3.422952 3.495040
v 9.702407 -0.262128 3.495040
v 9.702407 -0.262129 3.652358
v 9.702407 -0.073758 3.495040
v 9.702407 -0.157737 3.741618
v 9.702407 -0.073758 3.741618
v 9.702407 -6.772145 3.495040
v 9.702407 -3.611322 3.495040
v 9.702407 -3.611322 3.652358
v 9.702407 -3.506930 3.741618
v 9.702407 -3.422952 3.752686
v 9.702407 -5.993069 3.495040
v 7.991041 -5.993069 3.495039
v 7.991041 -4.175625 3.495039
v 8.986971 -4.175625 3.495040
v 8.986971 -5.993069 3.495040
v 8.986971 -6.772145 3.495040
v 7.991041 -6.772145 3.495039
v 7.991041 -5.993069 3.330635
v 7.991041 -4.175625 3.330635
v 8.986971 -4.175625 3.330635
v 8.986971 -5.993069 3.330635
v 7.953221 -0.870617 3.495039
v 9.024788 -0.870617 3.495040
v 7.953221 -2.623323 3.495039
v 9.024788 -2.623323 3.495040
v 7.953221 -0.870617 3.330635
v 9.024788 -0.870617 3.330635
v 7.953221 -2.623323 3.330635
v 9.024788 -2.623323 3.330635
v 4.848795 -3.422952 3.495041
v 7.275601 -3.422952 3.495040
v 4.848795 -0.262128 3.495041
v 7.275601 -0.262128 3.495040
v 4.848795 -0.262129 3.652359
v 7.275601 -0.262129 3.652358
v 4.848795 -0.073758 3.495041
v 7.275601 -0.073758 3.495040
v 4.848795 -0.157737 3.741619
v 7.275601 -0.157737 3.741618
v 4.848795 -0.073758 3.741619
v 7.275601 -0.073758 3.741618
v 4.848795 -6.772145 3.495041
v 7.275601 -6.772145 3.495040
v 4.848795 -3.611322 3.495041
v 7.275601 -3.611322 3.495040
v 4.848795 -3.611322 3.652359
v 7.275601 -3.611322 3.652358
v 4.848795 -3.506930 3.741619
v 7.275601 -3.506930 3.741618
v 4.848795 -3.422952 3.752688
v 7.275601 -3.422952 3.752686
v 4.848795 -5.993069 3.495041
v 7.275601 -5.993069 3.495040
v 6.560165 -5.993069 3.495040
v 6.560165 -4.175625 3.495040
v 5.564233 -4.175625 3.495041
v 5.564233 -5.993069 3.495041
v 5.564233 -6.772145 3.495041
v 6.560165 -6.772145 3.495040
v 6.560165 -5.993069 3.330635
v 6.560165 -4.175625 3.330635
v 5.564233 -4.175625 3.330636
v 5.564233 -5.993069 3.330636
v 6.597982 -0.870617 3.495040
v 5.526415 -0.870617 3.495041
v 6.597982 -2.623323 3.495040
v 5.526415 -2.623323 3.495041
v 6.597982 -2.623323 3.330635
v 5.526415 -2.623323 3.330635
v 6.597982 -0.870617 3.330635
v 5.526415 -0.870617 3.330635
v 3.137427 -5.993069 3.495041
v 3.137427 -4.175625 3.495041
v 4.133358 -4.175625 3.495041
v 4.133358 -5.993069 3.495041
v 4.133357 -6.772145 3.495041
v 3.137427 -6.772145 3.495041
v 3.137427 -5.993069 3.330636
v 3.137427 -4.175625 3.330636
v 4.133358 -4.175625 3.330636
v 4.133358 -5.993069 3.330636
v 3.099610 -0.870617 3.495041
v 4.171175 -0.870617 3.495041
v 3.099610 -2.623323 3.495041
v 4.171175 -2.623323 3.495041
v 3.099610 -0.870617 3.330636
v 4.171176 -0.870617 3.330636
v 3.099610 -2.623323 3.330636
v 4.171176 -2.623323 3.330636
v -0.004818 -3.422952 3.495043
v 2.421988 -3.422952 3.495041
v -0.004818 -0.262128 3.495043
v 2.421988 -0.262128 3.495041
v -0.004818 -0.262129 3.652361
v 2.421988 -0.262129 3.652360
v -0.004818 -0.073758 3.495043
v 2.421989 -0.073758 3.495041
v -0.004817 -0.157737 3.741621
v 2.421988 -0.157737 3.741620
v -0.004817 -0.073758 3.741621
v 2.421989 -0.073758 3.741620
v -0.004818 -6.772145 3.495043
v 2.421988 -6.772145 3.495041
v -0.004818 -3.611322 3.495043
v 2.421988 -3.611322 3.495041
v -0.004818 -3.611322 3.652361
v 2.421988 -3.611322 3.652360
v -0.004817 -3.506930 3.741621
v 2.421988 -3.506930 3.741620
v -0.004817 -3.422952 3.752689
v 2.421989 -3.422952 3.752688
v -0.004818 -5.993069 3.495043
v 2.421988 -5.993069 3.495041
v 2.216888 -5.993069 3.495042
v 2.216888 -4.175625 3.495042
v 0.200284 -4.175625 3.495043
v 0.200284 -5.993069 3.495043
v 0.200284 -6.772145 3.495043
v 2.216888 -6.772145 3.495042
v 1.744370 -0.870617 3.495042
v 0.672803 -0.870617 3.495043
v 1.744370 -2.623323 3.495042
v 0.672803 -2.623323 3.495043
v 1.744370 -2.623323 3.330636
v 0.672803 -2.623323 3.330636
v 1.744370 -0.870617 3.330636
v 0.672803 -0.870617 3.330636
v -1.716185 -5.993069 3.495043
v -1.716185 -4.175625 3.495043
v -0.720253 -4.175625 3.495043
v -0.720253 -5.993069 3.495043
v -0.720255 -6.772145 3.495043
v -1.716185 -6.772145 3.495043
v -1.716186 -5.993069 3.330638
v -1.716186 -4.175625 3.330638
v -0.720254 -4.175625 3.330638
v -0.720254 -5.993069 3.330638
v -1.754003 -0.870617 3.495043
v -0.682436 -0.870617 3.495043
v -1.754003 -2.623323 3.495043
v -0.682436 -2.623323 3.495043
v -1.754003 -0.870617 3.330638
v -0.682436 -0.870617 3.330638
v -1.754003 -2.623323 3.330638
v -0.682436 -2.623323 3.330638
v -4.858429 -3.422952 3.495045
v -2.431623 -3.422952 3.495043
v -4.858429 -0.262128 3.495045
v -2.431623 -0.262128 3.495043
v -4.858429 -0.262129 3.652363
v -2.431623 -0.262129 3.652361
v -4.858429 -0.073758 3.495045
v -2.431623 -0.073758 3.495043
v -4.858428 -0.157737 3.741623
v -2.431623 -0.157737 3.741621
v -4.858428 -0.073758 3.741623
v -2.431623 -0.073758 3.741621
v -4.858429 -6.772145 3.495045
v -2.431623 -6.772145 3.495043
v -4.858429 -3.611322 3.495045
v -2.431623 -3.611322 3.495043
v -4.858429 -3.611322 3.652363
v -2.431623 -3.611322 3.652361
v -4.858428 -3.506930 3.741623
v -2.431623 -3.506930 3.741621
v -4.858428 -3.422952 3.752691
v -2.431623 -3.422952 3.752689
v -4.858429 -5.993069 3.495045
v -2.431623 -5.993069 3.495043
v -3.147061 -5.993069 3.495044
v -3.147061 -4.175625 3.495044
v -4.142991 -4.175625 3.495044
v -4.142991 -5.993069 3.495044
v -4.142991 -6.772145 3.495044
v -3.147061 -6.772145 3.495044
v -3.147061 -5.993069 3.330638
v -3.147061 -4.175625 3.330638
v -4.142991 -4.175625 3.330639
v -4.142991 -5.993069 3.330639
v -3.109244 -0.870617 3.495044
v -4.180811 -0.870617 3.495044
v -3.109244 -2.623323 3.495044
v -4.180811 -2.623323 3.495044
v -3.109242 -2.623323 3.330638
v -4.180809 -2.623323 3.330638
v -3.109242 -0.870617 3.330638
v -4.180809 -0.870617 3.330638
v -6.569798 -5.993069 3.495044
v -6.569798 -4.175625 3.495044
v -5.573867 -4.175625 3.495044
v -5.573867 -5.993069 3.495044
v -5.573867 -6.772145 3.495044
v -6.569798 -6.772145 3.495044
v -6.569798 -5.993069 3.330639
v -6.569798 -4.175625 3.330639
v -5.573867 -4.175625 3.330639
v -5.573867 -5.993069 3.330639
v -6.607615 -0.870617 3.495044
v -5.536049 -0.870617 3.495044
v -6.607615 -2.623323 3.495044
v -5.536049 -2.623323 3.495044
v -6.607615 -0.870617 3.330639
v -5.536049 -0.870617 3.330639
v -6.607615 -2.623323 3.330639
v -5.536049 -2.623323 3.330639
v -9.712044 -3.422952 3.495046
v -7.285238 -3.422952 3.495044
v -9.712044 -0.262128 3.495046
v -7.285238 -0.262128 3.495044
v -9.712044 -0.262129 3.652364
v -7.285238 -0.262129 3.652363
v -9.712044 -0.073758 3.495046
v -7.285238 -0.073758 3.495044
v -9.712044 -0.157737 3.741624
v -7.285237 -0.157737 3.741623
v -9.712044 -0.073758 3.741624
v -7.285237 -0.073758 3.741623
v -9.712044 -6.772145 3.495046
v -7.285238 -6.772145 3.495044
v -9.712044 -3.611322 3.495046
v -7.285238 -3.611322 3.495044
v -9.712044 -3.611322 3.652364
v -7.285238 -3.611322 3.652363
v -9.712044 -3.506930 3.741624
v -7.285237 -3.506930 3.741623
v -9.712044 -3.422952 3.752692
v -7.285237 -3.422952 3.752691
v -9.712044 -5.993069 3.495046
v -7.285238 -5.993069 3.495044
v -8.000673 -5.993069 3.495045
v -8.000673 -4.175625 3.495045
v -8.996604 -4.175625 3.495046
v -8.996604 -5.993069 3.495046
v -8.996604 -6.772145 3.495046
v -8.000673 -6.772145 3.495045
v -8.000673 -5.993069 3.330640
v -8.000673 -4.175625 3.330640
v -8.996604 -4.175625 3.330641
v -8.996604 -5.993069 3.330641
v -7.962856 -0.870617 3.495045
v -9.034421 -0.870617 3.495046
v -7.962856 -2.623323 3.495045
v -9.034421 -2.623323 3.495046
v -7.962856 -2.623323 3.330639
v -9.034421 -2.623323 3.330639
v -7.962856 -0.870617 3.330639
v -9.034421 -0.870617 3.330639
v -5.589450 2.436333 3.349771
v -6.513599 2.436333 3.349771
v -5.589450 0.640375 3.349771
v -6.513599 0.640375 3.349771
v -5.589450 2.436333 3.495040
v -6.513599 2.436333 3.495039
v -5.589450 0.640375 3.495040
v -6.513599 0.640375 3.495039
v -9.712044 -3.422952 3.413153
v -9.712044 -0.262128 3.413153
v -9.712044 -0.073758 3.413153
v -9.712044 -3.611322 3.413153
v -9.712044 -5.993069 3.413153
v -0.735847 2.436333 3.349768
v -1.659996 2.436333 3.349768
v -9.712044 -6.772146 3.395100
v -0.735847 0.640375 3.349768
v 9.702415 -3.422952 3.413140
v 9.702415 -0.262128 3.413140
v 9.702415 -0.073758 3.413140
v 9.702415 -3.611322 3.413140
v 9.702415 -5.993069 3.413140
v -1.659996 0.640375 3.349768
v -0.735846 2.436333 3.495036
v 9.702415 -6.772146 3.395087
v 2.216888 -5.993069 3.313841
v 2.216888 -4.175625 3.313841
v 0.200284 -4.175625 3.313842
v 0.200284 -5.993069 3.313842
v 0.200284 -6.772145 3.313842
v 2.216888 -6.772145 3.313841
v -1.659996 2.436333 3.495036
v 9.707232 -0.262129 -0.000004
v 9.707232 -6.772147 -0.000004
v 9.707232 -3.611323 -0.000004
v -0.735846 0.640375 3.495036
v -1.659996 0.640375 3.495036
v 4.117769 2.436333 3.349768
v 3.193620 2.436333 3.349768
v 4.117769 0.640375 3.349768
v 3.193620 0.640375 3.349768
v 4.117769 2.436333 3.495036
v 3.193620 2.436333 3.495037
v 4.117769 0.640375 3.495036
v 3.193620 0.640375 3.495037
v 8.971373 2.436333 3.349765
v -9.707224 -0.262129 -0.000004
v -9.707224 -6.772147 -0.000004
v -9.707224 -3.611323 -0.000004
v 8.047224 2.436333 3.349765
v 8.971373 0.640375 3.349765
v 8.047224 0.640375 3.349765
v 8.971373 2.436333 3.495034
v 8.047224 2.436333 3.495033
v 8.971373 0.640375 3.495034
v 8.047224 0.640375 3.495033
v 5.579813 2.436333 3.349774
v 6.503963 2.436333 3.349773
v 5.579813 0.640375 3.349774
v 6.503963 0.640375 3.349773
v 5.579813 2.436333 3.495042
v 6.503963 2.436333 3.495042
v 5.579813 0.640375 3.495042
v 6.503963 0.640375 3.495042
v 0.726208 2.436333 3.349774
v 1.650358 2.436333 3.349774
v 0.726208 0.640375 3.349774
v 1.650358 0.640375 3.349774
v 0.726208 2.436333 3.495043
v 1.650359 2.436333 3.495042
v 0.726208 0.640375 3.495043
v 1.650359 0.640375 3.495042
v -4.127406 2.436333 3.349778
v -3.203256 2.436333 3.349777
v -4.127406 0.640375 3.349778
v -3.203256 0.640375 3.349777
v -4.127406 2.436333 3.495046
v -3.203256 2.436333 3.495045
v -4.127406 0.640375 3.495046
v -3.203256 0.640375 3.495045
v -8.981009 2.436333 3.349777
v -8.056861 2.436333 3.349777
v -8.981009 0.640375 3.349777
v -8.056861 0.640375 3.349777
v -8.981009 2.436333 3.495046
v -8.056861 2.436333 3.495045
v -8.981009 0.640375 3.495046
v -8.056861 0.640375 3.495045
v -9.707224 3.087065 -0.000004
v 9.707232 3.087065 -0.000004
v 9.702415 3.087065 3.413140
v -9.712044 3.087065 3.413153
v -9.712044 3.087065 3.495046
v -7.285238 3.087065 3.495044
v -4.858429 3.087065 3.495045
v -2.431623 3.087065 3.495043
v -0.004818 3.087065 3.495043
v 2.421988 3.087065 3.495041
v 4.848795 3.087065 3.495041
v 7.275601 3.087065 3.495040
v 9.702407 3.087065 3.495040
v 9.702407 6.624629 3.741618
v 9.702407 6.540651 3.741618
v 9.702407 6.436259 3.652358
v 9.702407 6.436259 3.495040
v 7.275601 6.624629 3.741618
v 4.848795 6.624629 3.741619
v 7.275601 6.540651 3.741618
v 4.848795 6.540651 3.741619
v 7.275601 6.436259 3.652358
v 4.848795 6.436259 3.652359
v 7.275601 6.436259 3.495040
v 4.848795 6.436259 3.495041
v 2.421989 6.624629 3.741620
v -0.004817 6.624629 3.741621
v 2.421988 6.540651 3.741620
v -0.004817 6.540651 3.741621
v 2.421988 6.436259 3.652360
v -0.004818 6.436259 3.652361
v 2.421988 6.436259 3.495041
v -0.004818 6.436259 3.495043
v -2.431623 6.624629 3.741621
v -4.858428 6.624629 3.741623
v -2.431623 6.540651 3.741621
v -4.858428 6.540651 3.741623
v -2.431623 6.436259 3.652361
v -4.858429 6.436259 3.652363
v -2.431623 6.436259 3.495043
v -4.858429 6.436259 3.495045
v -7.285237 6.624629 3.741623
v -9.712044 6.624629 3.741624
v -7.285237 6.540651 3.741623
v -9.712044 6.540651 3.741624
v -9.712044 6.624629 3.495046
v -7.285238 6.436259 3.652363
v -9.712044 6.436259 3.652364
v -7.285238 6.436259 3.495044
v -9.712044 6.436259 3.495046
v -9.712044 6.624629 3.413153
v -9.712044 6.436259 3.413153
v 9.702415 6.624629 3.495033
v 9.702415 6.624629 3.413140
v 9.702415 6.436259 3.413140
v 9.707232 6.436259 -0.000004
v 9.707232 9.098359 -0.000004
v 9.707232 9.318787 -0.000004
v 7.280424 9.318787 -0.000004
v 4.853618 9.318787 -0.000004
v 2.426810 9.318787 -0.000004
v 0.000004 9.318787 -0.000004
v -2.426803 9.318787 -0.000004
v -4.853611 9.318787 -0.000004
v -7.280418 9.318787 -0.000004
v -9.707224 9.318787 -0.000004
v -9.707224 6.436259 -0.000004
v -9.707224 9.098359 -0.000004
v -8.056861 3.989568 3.495045
v -8.981009 3.989568 3.495046
v -8.056861 5.785527 3.495045
v -8.981009 5.785527 3.495046
v -8.056861 3.989568 3.349777
v -8.981009 3.989568 3.349777
v -8.056861 5.785527 3.349777
v -8.981009 5.785527 3.349777
v -3.203256 3.989568 3.495045
v -4.127406 3.989568 3.495046
v -3.203256 5.785527 3.495045
v -4.127406 5.785527 3.495046
v -3.203256 3.989568 3.349777
v -4.127406 3.989568 3.349778
v -3.203256 5.785527 3.349777
v -4.127406 5.785527 3.349778
v 1.650359 3.989568 3.495042
v 0.726208 3.989568 3.495043
v 1.650359 5.785527 3.495042
v 0.726208 5.785527 3.495043
v 1.650358 3.989568 3.349774
v 0.726208 3.989568 3.349774
v 1.650358 5.785527 3.349774
v 0.726208 5.785527 3.349774
v 6.503963 3.989568 3.495042
v 5.579813 3.989568 3.495042
v 6.503963 5.785527 3.495042
v 5.579813 5.785527 3.495042
v 6.503963 3.989568 3.349773
v 5.579813 3.989568 3.349774
v 6.503963 5.785527 3.349773
v 5.579813 5.785527 3.349774
v 8.047224 3.989568 3.495033
v 8.971373 3.989568 3.495034
v 8.047224 5.785527 3.495033
v 8.971373 5.785527 3.495034
v 8.047224 3.989568 3.349765
v 8.971373 3.989568 3.349765
v 8.047224 5.785527 3.349765
v 8.971373 5.785527 3.349765
v 3.193620 3.989568 3.495037
v 4.117769 3.989568 3.495036
v 3.193620 5.785527 3.495037
v 4.117769 5.785527 3.495036
v 3.193620 3.989568 3.349768
v 4.117769 3.989568 3.349768
v 3.193620 5.785527 3.349768
v 4.117769 5.785527 3.349768
v -1.659996 3.989568 3.495036
v -0.735846 3.989568 3.495036
v -1.659996 5.785527 3.495036
v -0.735846 5.785527 3.495036
v -1.659996 3.989568 3.349768
v -0.735847 3.989568 3.349768
v -1.659996 5.785527 3.349768
v -0.735847 5.785527 3.349768
v -6.513599 3.989568 3.495039
v -5.589450 3.989568 3.495040
v -6.513599 5.785527 3.495039
v -5.589450 5.785527 3.495040
v -6.513599 3.989568 3.349771
v -5.589450 3.989568 3.349771
v -6.513599 5.785527 3.349771
v -5.589450 5.785527 3.349771
v 9.702407 3.087065 3.652358
v 9.702407 3.275436 3.495040
v 9.702407 3.191457 3.741618
v 9.702407 3.275436 3.741618
v 4.848795 3.087065 3.652359
v 7.275601 3.087065 3.652358
v 4.848795 3.275436 3.495041
v 7.275601 3.275436 3.495040
v 4.848795 3.191457 3.741619
v 7.275601 3.191457 3.741618
v 4.848795 3.275436 3.741619
v 7.275601 3.275436 3.741618
v -0.004818 3.087065 3.652361
v 2.421988 3.087065 3.652360
v -0.004818 3.275436 3.495043
v 2.421989 3.275436 3.495041
v -0.004817 3.191457 3.741621
v 2.421988 3.191457 3.741620
v -0.004817 3.275436 3.741621
v 2.421989 3.275436 3.741620
v -4.858429 3.087065 3.652363
v -2.431623 3.087065 3.652361
v -4.858429 3.275436 3.495045
v -2.431623 3.275436 3.495043
v -4.858428 3.191457 3.741623
v -2.431623 3.191457 3.741621
v -4.858428 3.275436 3.741623
v -2.431623 3.275436 3.741621
v -9.712044 3.087065 3.652364
v -7.285238 3.087065 3.652363
v -9.712044 3.275436 3.495046
v -7.285238 3.275436 3.495044
v -9.712044 3.191457 3.741624
v -7.285237 3.191457 3.741623
v -9.712044 3.275436 3.741624
v -7.285237 3.275436 3.741623
v -9.712044 3.275436 3.413153
v 9.702415 3.275436 3.413140
v 1.208586 -4.175625 3.313841
v 1.208586 -6.772145 3.313841
v -9.702409 -3.422953 -3.495048
v -9.702409 -0.262130 -3.495048
v -9.702409 -0.262130 -3.652366
v -9.702409 -0.073759 -3.495048
v -9.702409 -0.157738 -3.741626
v -9.702409 -0.073759 -3.741626
v -9.702409 -6.772147 -3.495048
v -9.702409 -3.611323 -3.495048
v -9.702409 -3.611323 -3.652366
v -9.702409 -3.506932 -3.741626
v -9.702409 -3.422953 -3.752694
v -9.702409 -5.993071 -3.495048
v -7.991043 -5.993071 -3.495048
v -7.991043 -4.175627 -3.495048
v -8.986973 -4.175627 -3.495048
v -8.986973 -5.993071 -3.495048
v -8.986973 -6.772147 -3.495048
v -7.991043 -6.772147 -3.495048
v -7.991043 -5.993071 -3.330643
v -7.991043 -4.175627 -3.330643
v -8.986973 -4.175627 -3.330643
v -8.986973 -5.993071 -3.330643
v -7.953221 -0.870619 -3.495048
v -9.024790 -0.870619 -3.495048
v -7.953221 -2.623324 -3.495048
v -9.024790 -2.623324 -3.495048
v -7.953221 -0.870619 -3.330643
v -9.024790 -0.870619 -3.330643
v -7.953221 -2.623324 -3.330643
v -9.024790 -2.623324 -3.330643
v -4.848795 -3.422953 -3.495050
v -7.275603 -3.422953 -3.495049
v -4.848795 -0.262130 -3.495050
v -7.275603 -0.262130 -3.495049
v -4.848795 -0.262130 -3.652368
v -7.275603 -0.262130 -3.652367
v -4.848795 -0.073759 -3.495050
v -7.275603 -0.073759 -3.495049
v -4.848795 -0.157738 -3.741628
v -7.275603 -0.157738 -3.741627
v -4.848795 -0.073759 -3.741628
v -7.275603 -0.073759 -3.741627
v -4.848795 -6.772147 -3.495050
v -7.275603 -6.772147 -3.495049
v -4.848795 -3.611323 -3.495050
v -7.275603 -3.611323 -3.495049
v -4.848795 -3.611323 -3.652368
v -7.275603 -3.611323 -3.652367
v -4.848795 -3.506932 -3.741628
v -7.275603 -3.506932 -3.741627
v -4.848795 -3.422953 -3.752696
v -7.275603 -3.422953 -3.752695
v -4.848795 -5.993071 -3.495050
v -7.275603 -5.993071 -3.495049
v -6.560167 -5.993071 -3.495049
v -6.560167 -4.175627 -3.495049
v -5.564233 -4.175627 -3.495049
v -5.564233 -5.993071 -3.495049
v -5.564233 -6.772147 -3.495049
v -6.560167 -6.772147 -3.495049
v -6.560167 -5.993071 -3.330644
v -6.560167 -4.175627 -3.330644
v -5.564233 -4.175627 -3.330645
v -5.564233 -5.993071 -3.330645
v -6.597984 -0.870619 -3.495049
v -5.526415 -0.870619 -3.495049
v -6.597984 -2.623324 -3.495049
v -5.526415 -2.623324 -3.495049
v -6.597984 -2.623324 -3.330643
v -5.526415 -2.623324 -3.330643
v -6.597984 -0.870619 -3.330643
v -5.526415 -0.870619 -3.330643
v -3.137428 -5.993071 -3.495050
v -3.137428 -4.175627 -3.495050
v -4.133359 -4.175627 -3.495050
v -4.133359 -5.993071 -3.495050
v -4.133357 -6.772147 -3.495050
v -3.137428 -6.772147 -3.495050
v -3.137428 -5.993071 -3.330645
v -3.137428 -4.175627 -3.330645
v -4.133359 -4.175627 -3.330645
v -4.133359 -5.993071 -3.330645
v -3.099610 -0.870619 -3.495050
v -4.171176 -0.870619 -3.495050
v -3.099610 -2.623324 -3.495050
v -4.171176 -2.623324 -3.495050
v -3.099610 -0.870619 -3.330645
v -4.171176 -0.870619 -3.330645
v -3.099610 -2.623324 -3.330645
v -4.171176 -2.623324 -3.330645
v 0.004817 -3.422953 -3.495052
v -2.421989 -3.422953 -3.495051
v 0.004817 -0.262130 -3.495052
v -2.421989 -0.262130 -3.495051
v 0.004817 -0.262130 -3.652370
v -2.421989 -0.262130 -3.652369
v 0.004817 -0.073759 -3.495052
v -2.421990 -0.073759 -3.495051
v 0.004817 -0.157738 -3.741631
v -2.421989 -0.157738 -3.741629
v 0.004817 -0.073759 -3.741631
v -2.421990 -0.073759 -3.741629
v 0.004817 -6.772147 -3.495052
v -2.421989 -6.772147 -3.495051
v 0.004817 -3.611323 -3.495052
v -2.421989 -3.611323 -3.495051
v 0.004817 -3.611323 -3.652370
v -2.421989 -3.611323 -3.652369
v 0.004817 -3.506932 -3.741631
v -2.421989 -3.506932 -3.741629
v 0.004817 -3.422953 -3.752698
v -2.421990 -3.422953 -3.752697
v 0.004817 -5.993071 -3.495052
v -2.421989 -5.993071 -3.495051
v -2.216889 -5.993071 -3.495051
v -2.216889 -4.175626 -3.495051
v -0.200285 -4.175626 -3.495052
v -0.200285 -5.993071 -3.495052
v -0.200285 -6.772147 -3.495052
v -2.216889 -6.772147 -3.495051
v -1.744370 -0.870619 -3.495052
v -0.672803 -0.870619 -3.495052
v -1.744370 -2.623324 -3.495052
v -0.672803 -2.623324 -3.495052
v -1.744370 -2.623324 -3.330645
v -0.672803 -2.623324 -3.330646
v -1.744370 -0.870619 -3.330645
v -0.672803 -0.870619 -3.330646
v 1.716185 -5.993071 -3.495052
v 1.716185 -4.175627 -3.495052
v 0.720253 -4.175627 -3.495052
v 0.720253 -5.993071 -3.495052
v 0.720255 -6.772147 -3.495052
v 1.716185 -6.772147 -3.495052
v 1.716185 -5.993071 -3.330647
v 1.716185 -4.175627 -3.330647
v 0.720253 -4.175627 -3.330647
v 0.720253 -5.993071 -3.330647
v 1.754002 -0.870619 -3.495052
v 0.682436 -0.870619 -3.495052
v 1.754002 -2.623324 -3.495052
v 0.682436 -2.623324 -3.495052
v 1.754003 -0.870619 -3.330647
v 0.682436 -0.870619 -3.330647
v 1.754003 -2.623324 -3.330647
v 0.682436 -2.623324 -3.330647
v 4.858429 -3.422953 -3.495054
v 2.431623 -3.422953 -3.495052
v 4.858429 -0.262130 -3.495054
v 2.431623 -0.262130 -3.495052
v 4.858429 -0.262130 -3.652372
v 2.431623 -0.262130 -3.652371
v 4.858429 -0.073759 -3.495054
v 2.431623 -0.073759 -3.495052
v 4.858428 -0.157738 -3.741633
v 2.431623 -0.157738 -3.741630
v 4.858428 -0.073759 -3.741633
v 2.431623 -0.073759 -3.741630
v 4.858429 -6.772147 -3.495054
v 2.431623 -6.772147 -3.495052
v 4.858429 -3.611323 -3.495054
v 2.431623 -3.611323 -3.495052
v 4.858429 -3.611323 -3.652372
v 2.431623 -3.611323 -3.652371
v 4.858428 -3.506932 -3.741633
v 2.431623 -3.506932 -3.741630
v 4.858428 -3.422953 -3.752701
v 2.431623 -3.422953 -3.752699
v 4.858429 -5.993071 -3.495054
v 2.431623 -5.993071 -3.495052
v 3.147061 -5.993071 -3.495054
v 3.147061 -4.175627 -3.495054
v 4.142991 -4.175627 -3.495054
v 4.142991 -5.993071 -3.495054
v 4.142991 -6.772147 -3.495054
v 3.147061 -6.772147 -3.495054
v 3.147061 -5.993071 -3.330648
v 3.147061 -4.175627 -3.330648
v 4.142991 -4.175627 -3.330649
v 4.142991 -5.993071 -3.330649
v 3.109244 -0.870619 -3.495054
v 4.180811 -0.870619 -3.495054
v 3.109244 -2.623324 -3.495054
v 4.180811 -2.623324 -3.495054
v 3.109242 -2.623324 -3.330647
v 4.180809 -2.623324 -3.330648
v 3.109242 -0.870619 -3.330647
v 4.180809 -0.870619 -3.330648
v 6.569799 -5.993071 -3.495054
v 6.569799 -4.175627 -3.495054
v 5.573867 -4.175627 -3.495054
v 5.573867 -5.993071 -3.495054
v 5.573867 -6.772147 -3.495054
v 6.569799 -6.772147 -3.495054
v 6.569799 -5.993071 -3.330649
v 6.569799 -4.175627 -3.330649
v 5.573867 -4.175627 -3.330649
v 5.573867 -5.993071 -3.330649
v 6.607616 -0.870619 -3.495054
v 5.536049 -0.870619 -3.495054
v 6.607616 -2.623324 -3.495054
v 5.536049 -2.623324 -3.495054
v 6.607616 -0.870619 -3.330649
v 5.536049 -0.870619 -3.330649
v 6.607616 -2.623324 -3.330649
v 5.536049 -2.623324 -3.330649
v 9.712044 -3.422953 -3.495057
v 7.285239 -3.422953 -3.495054
v 9.712044 -0.262130 -3.495057
v 7.285239 -0.262130 -3.495054
v 9.712044 -0.262130 -3.652375
v 7.285239 -0.262130 -3.652373
v 9.712044 -0.073759 -3.495057
v 7.285239 -0.073759 -3.495054
v 9.712044 -0.157738 -3.741635
v 7.285238 -0.157738 -3.741632
v 9.712044 -0.073759 -3.741635
v 7.285238 -0.073759 -3.741632
v 9.712044 -6.772147 -3.495057
v 7.285239 -6.772147 -3.495054
v 9.712044 -3.611323 -3.495057
v 7.285239 -3.611323 -3.495054
v 9.712044 -3.611323 -3.652375
v 7.285239 -3.611323 -3.652373
v 9.712044 -3.506932 -3.741635
v 7.285238 -3.506932 -3.741632
v 9.712044 -3.422953 -3.752703
v 7.285238 -3.422953 -3.752701
v 9.712044 -5.993071 -3.495057
v 7.285239 -5.993071 -3.495054
v 8.000674 -5.993071 -3.495055
v 8.000674 -4.175627 -3.495055
v 8.996604 -4.175627 -3.495056
v 8.996604 -5.993071 -3.495056
v 8.996604 -6.772147 -3.495056
v 8.000674 -6.772147 -3.495055
v 8.000674 -5.993071 -3.330650
v 8.000674 -4.175627 -3.330650
v 8.996604 -4.175627 -3.330651
v 8.996604 -5.993071 -3.330651
v 7.962857 -0.870619 -3.495055
v 9.034421 -0.870619 -3.495056
v 7.962857 -2.623324 -3.495055
v 9.034421 -2.623324 -3.495056
v 7.962857 -2.623324 -3.330649
v 9.034421 -2.623324 -3.330650
v 7.962857 -0.870619 -3.330649
v 9.034421 -0.870619 -3.330650
v 5.589450 2.436332 -3.349781
v 6.513600 2.436332 -3.349781
v 5.589450 0.640374 -3.349781
v 6.513600 0.640374 -3.349781
v 5.589450 2.436332 -3.495049
v 6.513600 2.436332 -3.495049
v 5.589450 0.640374 -3.495049
v 6.513600 0.640374 -3.495049
v 9.712044 -3.422953 -3.413163
v 9.712044 -0.262130 -3.413163
v 9.712044 -0.073759 -3.413163
v 9.712044 -3.611323 -3.413163
v 9.712044 -5.993071 -3.413163
v 0.735846 2.436332 -3.349777
v 1.659995 2.436332 -3.349777
v 9.712044 -6.772148 -3.395110
v 0.735846 0.640374 -3.349777
v -9.702416 -3.422953 -3.413148
v -9.702416 -0.262130 -3.413148
v -9.702416 -0.073759 -3.413148
v -9.702416 -3.611323 -3.413148
v -9.702416 -5.993071 -3.413148
v 1.659995 0.640374 -3.349777
v 0.735846 2.436332 -3.495045
v -9.702416 -6.772148 -3.395095
v -2.216889 -5.993071 -3.313850
v -2.216889 -4.175626 -3.313850
v -0.200285 -4.175626 -3.313851
v -0.200285 -5.993071 -3.313851
v -0.200285 -6.772147 -3.313851
v -2.216889 -6.772147 -3.313850
v 1.659995 2.436332 -3.495046
v 0.735846 0.640374 -3.495045
v 1.659995 0.640374 -3.495046
v -4.117769 2.436332 -3.349777
v -3.193620 2.436332 -3.349777
v -4.117769 0.640374 -3.349777
v -3.193620 0.640374 -3.349777
v -4.117769 2.436332 -3.495045
v -3.193620 2.436332 -3.495046
v -4.117769 0.640374 -3.495045
v -3.193620 0.640374 -3.495046
v -8.971375 2.436332 -3.349773
v -8.047226 2.436332 -3.349774
v -8.971375 0.640374 -3.349773
v -8.047226 0.640374 -3.349774
v -8.971375 2.436332 -3.495042
v -8.047226 2.436332 -3.495042
v -8.971375 0.640374 -3.495042
v -8.047226 0.640374 -3.495042
v -5.579813 2.436332 -3.349783
v -6.503964 2.436332 -3.349782
v -5.579813 0.640374 -3.349783
v -6.503964 0.640374 -3.349782
v -5.579813 2.436332 -3.495051
v -6.503964 2.436332 -3.495050
v -5.579813 0.640374 -3.495051
v -6.503964 0.640374 -3.495050
v -0.726209 2.436332 -3.349783
v -1.650359 2.436332 -3.349783
v -0.726209 0.640374 -3.349783
v -1.650359 0.640374 -3.349783
v -0.726209 2.436332 -3.495052
v -1.650359 2.436332 -3.495051
v -0.726209 0.640374 -3.495052
v -1.650359 0.640374 -3.495051
v 4.127406 2.436332 -3.349787
v 3.203256 2.436332 -3.349787
v 4.127406 0.640374 -3.349787
v 3.203256 0.640374 -3.349787
v 4.127406 2.436332 -3.495055
v 3.203256 2.436332 -3.495055
v 4.127406 0.640374 -3.495055
v 3.203256 0.640374 -3.495055
v 8.981009 2.436332 -3.349787
v 8.056862 2.436332 -3.349787
v 8.981009 0.640374 -3.349787
v 8.056862 0.640374 -3.349787
v 8.981009 2.436332 -3.495056
v 8.056862 2.436332 -3.495055
v 8.981009 0.640374 -3.495056
v 8.056862 0.640374 -3.495055
v -9.702416 3.087064 -3.413148
v 9.712044 3.087064 -3.413163
v 9.712044 3.087064 -3.495057
v 7.285239 3.087064 -3.495054
v 4.858429 3.087064 -3.495054
v 2.431623 3.087064 -3.495052
v 0.004817 3.087064 -3.495052
v -2.421989 3.087064 -3.495051
v -4.848795 3.087064 -3.495050
v -7.275603 3.087064 -3.495049
v -9.702409 3.087064 -3.495048
v -9.702409 6.624630 -3.741626
v -9.702409 6.540651 -3.741626
v -9.702409 6.436260 -3.652366
v -9.702409 6.436260 -3.495048
v -7.275603 6.624630 -3.741627
v -4.848795 6.624630 -3.741628
v -7.275603 6.540651 -3.741627
v -4.848795 6.540651 -3.741628
v -7.275603 6.436260 -3.652367
v -4.848795 6.436260 -3.652368
v -7.275603 6.436260 -3.495049
v -4.848795 6.436260 -3.495050
v -2.421990 6.624630 -3.741629
v 0.004817 6.624630 -3.741631
v -2.421989 6.540651 -3.741629
v 0.004817 6.540651 -3.741631
v -2.421989 6.436260 -3.652369
v 0.004817 6.436260 -3.652370
v -2.421989 6.436260 -3.495051
v 0.004817 6.436260 -3.495052
v 2.431623 6.624630 -3.741630
v 4.858428 6.624630 -3.741633
v 2.431623 6.540651 -3.741630
v 4.858428 6.540651 -3.741633
v 2.431623 6.436260 -3.652371
v 4.858429 6.436260 -3.652372
v 2.431623 6.436260 -3.495052
v 4.858429 6.436260 -3.495054
v 7.285238 6.624630 -3.741632
v 9.712044 6.624630 -3.741635
v 7.285238 6.540651 -3.741632
v 9.712044 6.540651 -3.741635
v 9.712044 6.624630 -3.495057
v 7.285239 6.436260 -3.652373
v 9.712044 6.436260 -3.652375
v 7.285239 6.436260 -3.495054
v 9.712044 6.436260 -3.495057
v 9.712044 6.624630 -3.413163
v 9.712044 6.436260 -3.413163
v -9.702416 6.624630 -3.495041
v -9.702416 6.624630 -3.413148
v -9.702416 6.436260 -3.413148
v 8.056862 3.989568 -3.495055
v 8.981009 3.989568 -3.495056
v 8.056862 5.785527 -3.495055
v 8.981009 5.785527 -3.495056
v 8.056862 3.989568 -3.349787
v 8.981009 3.989568 -3.349787
v 8.056862 5.785527 -3.349787
v 8.981009 5.785527 -3.349787
v 3.203256 3.989568 -3.495055
v 4.127406 3.989568 -3.495055
v 3.203256 5.785527 -3.495055
v 4.127406 5.785527 -3.495055
v 3.203256 3.989568 -3.349787
v 4.127406 3.989568 -3.349787
v 3.203256 5.785527 -3.349787
v 4.127406 5.785527 -3.349787
v -1.650359 3.989568 -3.495051
v -0.726209 3.989568 -3.495052
v -1.650359 5.785527 -3.495051
v -0.726209 5.785527 -3.495052
v -1.650359 3.989568 -3.349783
v -0.726209 3.989568 -3.349783
v -1.650359 5.785527 -3.349783
v -0.726209 5.785527 -3.349783
v -6.503964 3.989568 -3.495050
v -5.579813 3.989568 -3.495051
v -6.503964 5.785527 -3.495050
v -5.579813 5.785527 -3.495051
v -6.503964 3.989568 -3.349782
v -5.579813 3.989568 -3.349783
v -6.503964 5.785527 -3.349782
v -5.579813 5.785527 -3.349783
v -8.047226 3.989568 -3.495042
v -8.971375 3.989568 -3.495042
v -8.047226 5.785527 -3.495042
v -8.971375 5.785527 -3.495042
v -8.047226 3.989568 -3.349774
v -8.971375 3.989568 -3.349773
v -8.047226 5.785527 -3.349774
v -8.971375 5.785527 -3.349773
v -3.193620 3.989568 -3.495046
v -4.117769 3.989568 -3.495045
v -3.193620 5.785527 -3.495046
v -4.117769 5.785527 -3.495045
v -3.193620 3.989568 -3.349777
v -4.117769 3.989568 -3.349777
v -3.193620 5.785527 -3.349777
v -4.117769 5.785527 -3.349777
v 1.659995 3.989568 -3.495046
v 0.735846 3.989568 -3.495045
v 1.659995 5.785527 -3.495046
v 0.735846 5.785527 -3.495045
v 1.659995 3.989568 -3.349777
v 0.735846 3.989568 -3.349777
v 1.659995 5.785527 -3.349777
v 0.735846 5.785527 -3.349777
v 6.513600 3.989568 -3.495049
v 5.589450 3.989568 -3.495049
v 6.513600 5.785527 -3.495049
v 5.589450 5.785527 -3.495049
v 6.513600 3.989568 -3.349781
v 5.589450 3.989568 -3.349781
v 6.513600 5.785527 -3.349781
v 5.589450 5.785527 -3.349781
v -9.702409 3.087064 -3.652366
v -9.702409 3.275435 -3.495048
v -9.702409 3.191456 -3.741626
v -9.702409 3.275435 -3.741626
v -4.848795 3.087064 -3.652368
v -7.275603 3.087064 -3.652367
v -4.848795 3.275435 -3.495050
v -7.275603 3.275435 -3.495049
v -4.848795 3.191456 -3.741628
v -7.275603 3.191456 -3.741627
v -4.848795 3.275435 -3.741628
v -7.275603 3.275435 -3.741627
v 0.004817 3.087064 -3.652370
v -2.421989 3.087064 -3.652369
v 0.004817 3.275435 -3.495052
v -2.421990 3.275435 -3.495051
v 0.004817 3.191456 -3.741631
v -2.421989 3.191456 -3.741629
v 0.004817 3.275435 -3.741631
v -2.421990 3.275435 -3.741629
v 4.858429 3.087064 -3.652372
v 2.431623 3.087064 -3.652371
v 4.858429 3.275435 -3.495054
v 2.431623 3.275435 -3.495052
v 4.858428 3.191456 -3.741633
v 2.431623 3.191456 -3.741630
v 4.858428 3.275435 -3.741633
v 2.431623 3.275435 -3.741630
v 9.712044 3.087064 -3.652375
v 7.285239 3.087064 -3.652373
v 9.712044 3.275435 -3.495057
v 7.285239 3.275435 -3.495054
v 9.712044 3.191456 -3.741635
v 7.285238 3.191456 -3.741632
v 9.712044 3.275435 -3.741635
v 7.285238 3.275435 -3.741632
v 9.712044 3.275435 -3.413163
v -9.702416 3.275435 -3.413148
v -1.208587 -4.175626 -3.313851
v -1.208587 -6.772147 -3.313851
vn -0.0000 -1.0000 -0.0000
vn -0.0000 -0.6499 0.7600
vn -0.0000 -0.0000 1.0000
vn -0.0000 1.0000 -0.0000
vn 1.0000 -0.0000 -0.0000
vn -0.0000 -0.1307 0.9914
vn -1.0000 -0.0000 -0.0000
vn -1.0000 -0.0000 -0.0014
vn 1.0000 -0.0000 0.0001
vn 1.0000 -0.0000 0.0014
vn -1.0000 0.0010 -0.0007
vn -0.0000 0.8115 0.5843
vn 1.0000 -0.0010 0.0007
vn -0.0000 -0.6499 -0.7600
vn -0.0000 -0.0000 -1.0000
vn -0.0000 -0.1307 -0.9914
vn -1.0000 -0.0000 -0.0001
vn 1.0000 0.0010 0.0006
vn -0.0000 0.8115 -0.5843
vn -1.0000 -0.0009 -0.0007
vt 0.223585 0.259319
vt 0.223585 0.316881
vt 0.459598 0.316881
vt 0.459598 0.259319
vt 0.223585 0.349541
vt 0.459598 0.349541
vt 0.459598 0.340441
vt 0.223585 0.340441
vt 0.223585 0.348647
vt 0.459598 0.348647
vt 0.594535 0.538416
vt 0.761992 0.538416
vt 0.761992 0.549003
vt 0.594535 0.549003
vt 0.394490 0.270789
vt 0.394490 0.099541
vt 0.394490 0.099541
vt 0.394490 0.270789
vt 0.899860 0.801300
vt 0.991755 0.801300
vt 0.991755 0.643633
vt 0.899860 0.643633
vt 0.293487 0.097533
vt 0.293487 0.275106
vt 0.390795 0.275106
vt 0.223585 0.330242
vt 0.459598 0.330242
vt 0.390795 0.097533
vt 0.459598 0.097533
vt 0.223585 0.097533
vt 0.985995 0.643361
vt 0.904888 0.643361
vt 0.904888 0.801347
vt 0.985995 0.801347
vt 0.904500 0.801347
vt 0.985607 0.801347
vt 0.985608 0.643361
vt 0.904500 0.643361
vt 0.993838 0.980168
vt 0.993838 0.815012
vt 0.903335 0.815012
vt 0.903335 0.980168
vt 0.390795 0.275106
vt 0.390795 0.097533
vt 0.995686 0.801300
vt 0.895928 0.801300
vt 0.289792 0.270789
vt 0.289792 0.099541
vt 0.459598 0.021413
vt 0.223585 0.021413
vt 0.289792 0.099541
vt 0.289792 0.270789
vt 0.964333 0.801356
vt 0.964333 0.643310
vt 0.931925 0.643310
vt 0.931925 0.801356
vt 0.209654 0.079231
vt 0.257126 0.079231
vt 0.257126 0.052698
vt 0.233390 0.052698
vt 0.209654 0.052698
vt 0.440658 0.275106
vt 0.243625 0.275106
vt 0.440658 0.097533
vt 0.243625 0.097533
vt 0.962744 0.801347
vt 0.962744 0.643361
vt 0.927752 0.643361
vt 0.927752 0.801347
vt 0.000000 0.000000
vt 0.274449 0.746888
vt 0.274449 0.964603
vt 0.024511 0.964603
vt 0.024511 0.733913
vt 0.274449 0.977578
vt 0.274449 0.800550
vt 0.024511 0.746888
vt 0.024511 0.733914
vt 0.744629 0.652431
vt 0.744629 0.949137
vt 0.866474 0.949137
vt 0.866474 0.741457
vt 0.745107 0.652485
vt 0.865969 0.652485
vt 0.865969 0.741510
vt 0.459528 0.097631
vt 0.459528 0.275280
vt 0.440779 0.275280
vt 0.440779 0.097631
vt 0.223613 0.275280
vt 0.223613 0.097631
vt 0.243598 0.097631
vt 0.243598 0.275280
vt 0.371643 0.328962
vt 0.300369 0.328962
vt 0.300369 0.351751
vt 0.417098 0.351751
vt 0.412083 0.341592
vt 0.300369 0.328953
vt 0.300369 0.351742
vt 0.412083 0.351742
vt 0.412083 0.341582
vt 0.371643 0.328953
vt 0.371643 0.328962
vt 0.412083 0.341592
vt 0.300369 0.351751
vt 0.300369 0.328962
vt 0.300369 0.328953
vt 0.371643 0.328953
vt 0.412083 0.341582
vt 0.412083 0.351742
vt 0.300369 0.351742
vt 0.223585 0.340014
vt 0.223585 0.635453
vt 0.161680 0.575527
vt 0.161680 0.575527
vt 0.072218 0.575527
vt 0.072218 0.407284
vt 0.161680 0.407284
vt 0.161680 0.407284
vt 0.001451 0.340384
vt 0.001451 0.636487
vt 0.236375 0.636487
vt 0.236375 0.340384
vt 0.223585 0.337853
vt 0.223585 0.636383
vt 0.459598 0.330906
vt 0.223585 0.330906
vt 0.223585 0.339111
vt 0.459598 0.339111
vt 0.439941 0.636193
vt 0.019178 0.636370
vt 0.020403 0.629986
vt 0.402359 0.628984
vt 0.413199 0.631063
vt 0.024511 0.917277
vt 0.024511 0.733914
vt 0.348933 0.647051
vt 0.554961 0.647051
vt 0.554961 0.995247
vt 0.348933 0.995247
vt 0.412083 0.351745
vt 0.412083 0.341586
vt 0.371643 0.328956
vt 0.300369 0.328956
vt 0.300366 0.351745
vt 0.412083 0.351745
vt 0.300369 0.351745
vt 0.300369 0.328956
vt 0.371643 0.328956
vt 0.412083 0.341586
vt 0.866474 0.652431
vt 0.744629 0.652431
vt 0.865969 0.949191
vt 0.745107 0.949191
vt 0.745107 0.652485
s 0
usemtl Material.001
f 2/1/1 3/2/1 36/3/1 34/4/1
f 36/3/2 3/2/2 5/5/2 40/6/2
f 40/7/3 5/8/3 6/9/3 42/10/3
f 4/11/4 38/12/4 42/13/4 6/14/4
f 23/15/5 25/16/5 29/17/5 27/18/5
f 8/1/1 9/2/1 48/3/1 46/4/1
f 48/3/2 9/2/2 10/5/2 50/6/2
f 50/7/6 10/8/6 11/9/6 52/10/6
f 1/11/4 32/12/4 52/13/4 11/14/4
f 16/19/3 13/20/3 18/21/3 17/22/3
f 16/23/7 15/24/7 21/24/7 22/23/7
f 14/25/3 15/24/3 8/26/3 46/27/3
f 13/28/3 14/25/3 46/27/3 54/29/3
f 15/24/3 16/23/3 12/30/3 8/26/3
f 44/31/3 18/32/3 13/33/3 54/34/3
f 12/35/3 16/36/3 17/37/3 7/38/3
f 20/39/3 19/40/3 22/41/3 21/42/3
f 15/24/1 14/25/1 20/43/1 21/24/1
f 14/25/5 13/28/5 19/44/5 20/43/5
f 13/45/4 16/46/4 22/46/4 19/45/4
f 23/15/3 24/47/3 2/26/3 34/27/3
f 26/48/3 25/16/3 32/49/3 1/50/3
f 24/47/3 26/48/3 1/50/3 2/26/3
f 25/16/3 23/15/3 34/27/3 32/49/3
f 27/18/3 29/17/3 30/51/3 28/52/3
f 24/47/1 23/15/1 27/18/1 28/52/1
f 26/48/7 24/47/7 28/52/7 30/51/7
f 25/16/4 26/48/4 30/51/4 29/17/4
f 33/1/1 34/4/1 36/3/1 35/2/1
f 36/3/2 40/6/2 39/5/2 35/2/2
f 40/7/3 42/10/3 41/9/3 39/8/3
f 37/11/4 41/14/4 42/13/4 38/12/4
f 45/1/1 46/4/1 48/3/1 47/2/1
f 48/3/2 50/6/2 49/5/2 47/2/2
f 50/7/6 52/10/6 51/9/6 49/8/6
f 31/11/4 51/14/4 52/13/4 32/12/4
f 58/19/3 59/22/3 60/21/3 55/20/3
f 58/23/5 64/23/5 63/24/5 57/24/5
f 56/25/3 46/27/3 45/26/3 57/24/3
f 55/28/3 54/29/3 46/27/3 56/25/3
f 57/24/3 45/26/3 53/30/3 58/23/3
f 44/31/3 54/34/3 55/33/3 60/32/3
f 53/35/3 43/38/3 59/37/3 58/36/3
f 62/39/3 63/42/3 64/41/3 61/40/3
f 57/24/1 63/24/1 62/43/1 56/25/1
f 56/25/7 62/43/7 61/44/7 55/28/7
f 55/45/4 61/45/4 64/46/4 58/46/4
f 65/15/3 34/27/3 33/26/3 66/47/3
f 68/48/3 31/50/3 32/49/3 67/16/3
f 66/47/3 33/26/3 31/50/3 68/48/3
f 67/16/3 32/49/3 34/27/3 65/15/3
f 68/16/4 67/48/4 69/51/4 70/17/4
f 67/48/7 65/47/7 71/52/7 69/51/7
f 65/47/1 66/15/1 72/18/1 71/52/1
f 72/18/3 70/17/3 69/51/3 71/52/3
f 66/15/5 68/16/5 70/17/5 72/18/5
f 33/1/1 35/2/1 96/3/1 94/4/1
f 96/3/2 35/2/2 39/5/2 100/6/2
f 100/7/3 39/8/3 41/9/3 102/10/3
f 37/11/4 98/12/4 102/13/4 41/14/4
f 83/15/5 85/16/5 89/17/5 87/18/5
f 45/1/1 47/2/1 108/3/1 106/4/1
f 108/3/2 47/2/2 49/5/2 110/6/2
f 110/7/6 49/8/6 51/9/6 112/10/6
f 31/11/4 92/12/4 112/13/4 51/14/4
f 76/19/3 73/20/3 78/21/3 77/22/3
f 76/23/7 75/24/7 81/24/7 82/23/7
f 74/25/3 75/24/3 45/26/3 106/27/3
f 73/28/3 74/25/3 106/27/3 114/29/3
f 75/24/3 76/23/3 53/30/3 45/26/3
f 104/31/3 78/32/3 73/33/3 114/34/3
f 53/35/3 76/36/3 77/37/3 43/38/3
f 80/39/3 79/40/3 82/41/3 81/42/3
f 75/24/1 74/25/1 80/43/1 81/24/1
f 74/25/5 73/28/5 79/44/5 80/43/5
f 73/45/4 76/46/4 82/46/4 79/45/4
f 83/15/3 84/47/3 33/26/3 94/27/3
f 86/48/3 85/16/3 92/49/3 31/50/3
f 84/47/3 86/48/3 31/50/3 33/26/3
f 85/16/3 83/15/3 94/27/3 92/49/3
f 87/18/3 89/17/3 90/51/3 88/52/3
f 84/47/1 83/15/1 87/18/1 88/52/1
f 86/48/7 84/47/7 88/52/7 90/51/7
f 85/16/4 86/48/4 90/51/4 89/17/4
f 93/1/1 94/4/1 96/3/1 95/2/1
f 96/3/2 100/6/2 99/5/2 95/2/2
f 100/7/3 102/10/3 101/9/3 99/8/3
f 97/11/4 101/14/4 102/13/4 98/12/4
f 105/1/1 106/4/1 108/3/1 107/2/1
f 108/3/2 110/6/2 109/5/2 107/2/2
f 110/7/6 112/10/6 111/9/6 109/8/6
f 91/11/4 111/14/4 112/13/4 92/12/4
f 118/53/5 119/54/5 278/55/5 277/56/5
f 116/57/1 117/58/1 276/59/1 507/60/1 275/61/1
f 116/62/3 106/27/3 105/26/3 117/63/3
f 115/64/3 114/29/3 106/27/3 116/62/3
f 117/63/3 105/26/3 113/30/3 118/65/3
f 104/31/3 114/34/3 115/66/3 120/67/3
f 113/35/3 103/38/3 119/68/3 118/69/3
f 121/15/3 94/27/3 93/26/3 122/47/3
f 124/48/3 91/50/3 92/49/3 123/16/3
f 122/47/3 93/26/3 91/50/3 124/48/3
f 123/16/3 92/49/3 94/27/3 121/15/3
f 124/16/4 123/48/4 125/51/4 126/17/4
f 123/48/7 121/47/7 127/52/7 125/51/7
f 121/47/1 122/15/1 128/18/1 127/52/1
f 128/18/3 126/17/3 125/51/3 127/52/3
f 122/15/5 124/16/5 126/17/5 128/18/5
f 93/1/1 95/2/1 152/3/1 150/4/1
f 152/3/2 95/2/2 99/5/2 156/6/2
f 156/7/3 99/8/3 101/9/3 158/10/3
f 97/11/4 154/12/4 158/13/4 101/14/4
f 139/15/5 141/16/5 145/17/5 143/18/5
f 105/1/1 107/2/1 164/3/1 162/4/1
f 164/3/2 107/2/2 109/5/2 166/6/2
f 166/7/6 109/8/6 111/9/6 168/10/6
f 91/11/4 148/12/4 168/13/4 111/14/4
f 132/19/3 129/20/3 134/21/3 133/22/3
f 132/23/7 131/24/7 137/24/7 138/23/7
f 130/25/3 131/24/3 105/26/3 162/27/3
f 129/28/3 130/25/3 162/27/3 170/29/3
f 131/24/3 132/23/3 113/30/3 105/26/3
f 160/31/3 134/32/3 129/33/3 170/34/3
f 113/35/3 132/36/3 133/37/3 103/38/3
f 136/39/3 135/40/3 138/41/3 137/42/3
f 131/24/1 130/25/1 136/43/1 137/24/1
f 130/25/5 129/28/5 135/44/5 136/43/5
f 129/45/4 132/46/4 138/46/4 135/45/4
f 139/15/3 140/47/3 93/26/3 150/27/3
f 142/48/3 141/16/3 148/49/3 91/50/3
f 140/47/3 142/48/3 91/50/3 93/26/3
f 141/16/3 139/15/3 150/27/3 148/49/3
f 143/18/3 145/17/3 146/51/3 144/52/3
f 140/47/1 139/15/1 143/18/1 144/52/1
f 142/48/7 140/47/7 144/52/7 146/51/7
f 141/16/4 142/48/4 146/51/4 145/17/4
f 149/1/1 150/4/1 152/3/1 151/2/1
f 152/3/2 156/6/2 155/5/2 151/2/2
f 156/7/3 158/10/3 157/9/3 155/8/3
f 153/11/4 157/14/4 158/13/4 154/12/4
f 161/1/1 162/4/1 164/3/1 163/2/1
f 164/3/2 166/6/2 165/5/2 163/2/2
f 166/7/6 168/10/6 167/9/6 165/8/6
f 147/11/4 167/14/4 168/13/4 148/12/4
f 174/19/3 175/22/3 176/21/3 171/20/3
f 174/23/5 180/23/5 179/24/5 173/24/5
f 172/25/3 162/27/3 161/26/3 173/24/3
f 171/28/3 170/29/3 162/27/3 172/25/3
f 173/24/3 161/26/3 169/30/3 174/23/3
f 160/31/3 170/34/3 171/33/3 176/32/3
f 169/35/3 159/38/3 175/37/3 174/36/3
f 178/39/3 179/42/3 180/41/3 177/40/3
f 173/24/1 179/24/1 178/43/1 172/25/1
f 172/25/7 178/43/7 177/44/7 171/28/7
f 171/45/4 177/45/4 180/46/4 174/46/4
f 181/15/3 150/27/3 149/26/3 182/47/3
f 184/48/3 147/50/3 148/49/3 183/16/3
f 182/47/3 149/26/3 147/50/3 184/48/3
f 183/16/3 148/49/3 150/27/3 181/15/3
f 184/16/4 183/48/4 185/51/4 186/17/4
f 183/48/7 181/47/7 187/52/7 185/51/7
f 181/47/1 182/15/1 188/18/1 187/52/1
f 188/18/3 186/17/3 185/51/3 187/52/3
f 182/15/5 184/16/5 186/17/5 188/18/5
f 149/1/1 151/2/1 212/3/1 210/4/1
f 212/3/2 151/2/2 155/5/2 216/6/2
f 216/7/3 155/8/3 157/9/3 218/10/3
f 153/11/4 214/12/4 218/13/4 157/14/4
f 199/15/5 201/16/5 205/17/5 203/18/5
f 161/1/1 163/2/1 224/3/1 222/4/1
f 224/3/2 163/2/2 165/5/2 226/6/2
f 226/7/6 165/8/6 167/9/6 228/10/6
f 147/11/4 208/12/4 228/13/4 167/14/4
f 192/19/3 189/20/3 194/21/3 193/22/3
f 192/23/7 191/24/7 197/24/7 198/23/7
f 190/25/3 191/24/3 161/26/3 222/27/3
f 189/28/3 190/25/3 222/27/3 230/29/3
f 191/24/3 192/23/3 169/30/3 161/26/3
f 220/31/3 194/32/3 189/33/3 230/34/3
f 169/35/3 192/36/3 193/37/3 159/38/3
f 196/39/3 195/40/3 198/41/3 197/42/3
f 191/24/1 190/25/1 196/43/1 197/24/1
f 190/25/5 189/28/5 195/44/5 196/43/5
f 189/45/4 192/46/4 198/46/4 195/45/4
f 199/15/3 200/47/3 149/26/3 210/27/3
f 202/48/3 201/16/3 208/49/3 147/50/3
f 200/47/3 202/48/3 147/50/3 149/26/3
f 201/16/3 199/15/3 210/27/3 208/49/3
f 203/18/3 205/17/3 206/51/3 204/52/3
f 200/47/1 199/15/1 203/18/1 204/52/1
f 202/48/7 200/47/7 204/52/7 206/51/7
f 201/16/4 202/48/4 206/51/4 205/17/4
f 209/1/1 210/4/1 212/3/1 211/2/1
f 212/3/2 216/6/2 215/5/2 211/2/2
f 216/7/3 218/10/3 217/9/3 215/8/3
f 213/11/4 217/14/4 218/13/4 214/12/4
f 221/1/1 222/4/1 224/3/1 223/2/1
f 224/3/2 226/6/2 225/5/2 223/2/2
f 226/7/6 228/10/6 227/9/6 225/8/6
f 207/11/4 227/14/4 228/13/4 208/12/4
f 234/19/3 235/22/3 236/21/3 231/20/3
f 234/23/5 240/23/5 239/24/5 233/24/5
f 232/25/3 222/27/3 221/26/3 233/24/3
f 231/28/3 230/29/3 222/27/3 232/25/3
f 233/24/3 221/26/3 229/30/3 234/23/3
f 220/31/3 230/34/3 231/33/3 236/32/3
f 229/35/3 219/38/3 235/37/3 234/36/3
f 238/39/3 239/42/3 240/41/3 237/40/3
f 233/24/1 239/24/1 238/43/1 232/25/1
f 232/25/7 238/43/7 237/44/7 231/28/7
f 231/45/4 237/45/4 240/46/4 234/46/4
f 241/15/3 210/27/3 209/26/3 242/47/3
f 244/48/3 207/50/3 208/49/3 243/16/3
f 242/47/3 209/26/3 207/50/3 244/48/3
f 243/16/3 208/49/3 210/27/3 241/15/3
f 244/16/4 243/48/4 245/51/4 246/17/4
f 243/48/7 241/47/7 247/52/7 245/51/7
f 241/47/1 242/15/1 248/18/1 247/52/1
f 248/18/3 246/17/3 245/51/3 247/52/3
f 242/15/5 244/16/5 246/17/5 248/18/5
f 209/70/7 213/70/7 259/70/7 258/70/7
f 207/50/7 209/26/7 258/26/7 257/50/7
f 229/30/7 221/26/7 260/26/7 261/30/7
f 207/70/7 257/70/7 260/70/7 221/70/7
f 257/71/8 258/72/8 295/73/8 297/74/8
f 259/75/8 295/73/8 258/72/8
f 264/71/8 261/76/8 260/72/8 297/73/8 296/77/8
f 257/75/8 297/73/8 260/72/8
f 219/38/7 229/35/7 261/35/7 264/38/7
f 2/70/9 267/70/9 268/70/9 4/70/9
f 1/50/9 266/50/9 267/26/9 2/26/9
f 12/30/9 270/30/9 269/26/9 8/26/9
f 1/70/9 8/70/9 269/70/9 266/70/9
f 266/71/10 283/78/10 281/73/10 267/72/10
f 268/75/10 267/72/10 281/73/10
f 273/71/10 282/77/10 283/73/10 269/72/10 270/76/10
f 266/75/10 269/72/10 283/73/10
f 7/38/9 273/38/9 270/35/9 12/35/9
f 508/79/3 507/80/3 276/81/3 277/82/3
f 508/83/3 279/84/3 274/85/3
f 115/86/7 116/87/7 275/88/7 274/89/7
f 120/54/7 115/53/7 274/56/7 279/55/7
f 117/90/5 118/91/5 277/92/5 276/93/5
f 9/94/5 8/95/5 1/96/5 11/97/5 10/98/5
f 2/99/5 4/100/5 6/101/5 5/102/5 3/103/5
f 223/104/7 225/105/7 227/97/7 207/106/7 221/107/7
f 209/108/7 211/109/7 215/110/7 217/111/7 213/112/7
f 4/113/9 268/113/9 339/114/9 349/114/9
f 268/71/10 281/78/10 338/73/10 339/72/10
f 254/115/1 250/116/1 249/117/1 253/117/1
f 255/118/4 251/118/4 252/119/4 256/120/4
f 256/120/5 252/119/5 250/116/5 254/115/5
f 249/117/3 250/116/3 252/119/3 251/118/3
f 255/118/3 153/121/3 343/122/3 253/117/3
f 254/115/3 342/123/3 214/124/3 256/120/3
f 253/117/3 343/122/3 342/123/3 254/115/3
f 256/120/3 214/124/3 153/121/3 255/118/3
f 253/117/7 249/117/7 251/118/7 255/118/7
f 280/115/1 263/116/1 262/117/1 272/117/1
f 284/118/4 265/118/4 271/119/4 285/120/4
f 285/120/5 271/119/5 263/116/5 280/115/5
f 262/117/3 263/116/3 271/119/3 265/118/3
f 284/118/3 97/121/3 345/122/3 272/117/3
f 280/115/3 344/123/3 154/124/3 285/120/3
f 272/117/3 345/122/3 344/123/3 280/115/3
f 285/120/3 154/124/3 97/121/3 284/118/3
f 272/117/7 262/117/7 265/118/7 284/118/7
f 291/115/1 287/116/1 286/117/1 290/117/1
f 292/118/4 288/118/4 289/119/4 293/120/4
f 293/120/5 289/119/5 287/116/5 291/115/5
f 286/117/3 287/116/3 289/119/3 288/118/3
f 292/118/3 37/121/3 347/122/3 290/117/3
f 291/115/3 346/123/3 98/124/3 293/120/3
f 290/117/3 347/122/3 346/123/3 291/115/3
f 293/120/3 98/124/3 37/121/3 292/118/3
f 290/117/7 286/117/7 288/118/7 292/118/7
f 302/115/1 298/116/1 294/117/1 301/117/1
f 303/118/4 299/118/4 300/119/4 304/120/4
f 304/120/5 300/119/5 298/116/5 302/115/5
f 294/117/3 298/116/3 300/119/3 299/118/3
f 303/118/3 4/121/3 349/122/3 301/117/3
f 302/115/3 348/123/3 38/124/3 304/120/3
f 301/117/3 349/122/3 348/123/3 302/115/3
f 304/120/3 38/124/3 4/121/3 303/118/3
f 301/117/7 294/117/7 299/118/7 303/118/7
f 213/125/7 341/126/7 340/126/7 259/125/7
f 259/71/8 340/72/8 337/73/8 295/74/8
f 310/115/1 309/117/1 305/117/1 306/116/1
f 311/118/4 312/120/4 308/119/4 307/118/4
f 312/120/7 310/115/7 306/116/7 308/119/7
f 305/117/3 307/118/3 308/119/3 306/116/3
f 311/118/3 309/117/3 347/122/3 37/121/3
f 310/115/3 312/120/3 38/124/3 348/123/3
f 309/117/3 310/115/3 348/123/3 347/122/3
f 312/120/3 311/118/3 37/121/3 38/124/3
f 309/117/5 311/118/5 307/118/5 305/117/5
f 318/115/1 317/117/1 313/117/1 314/116/1
f 319/118/4 320/120/4 316/119/4 315/118/4
f 320/120/7 318/115/7 314/116/7 316/119/7
f 313/117/3 315/118/3 316/119/3 314/116/3
f 319/118/3 317/117/3 345/122/3 97/121/3
f 318/115/3 320/120/3 98/124/3 346/123/3
f 317/117/3 318/115/3 346/123/3 345/122/3
f 320/120/3 319/118/3 97/121/3 98/124/3
f 317/117/5 319/118/5 315/118/5 313/117/5
f 326/115/1 325/117/1 321/117/1 322/116/1
f 327/118/4 328/120/4 324/119/4 323/118/4
f 328/120/7 326/115/7 322/116/7 324/119/7
f 321/117/3 323/118/3 324/119/3 322/116/3
f 327/118/3 325/117/3 343/122/3 153/121/3
f 326/115/3 328/120/3 154/124/3 344/123/3
f 325/117/3 326/115/3 344/123/3 343/122/3
f 328/120/3 327/118/3 153/121/3 154/124/3
f 325/117/5 327/118/5 323/118/5 321/117/5
f 334/115/1 333/117/1 329/117/1 330/116/1
f 335/118/4 336/120/4 332/119/4 331/118/4
f 336/120/7 334/115/7 330/116/7 332/119/7
f 329/117/3 331/118/3 332/119/3 330/116/3
f 335/118/3 333/117/3 341/122/3 213/121/3
f 334/115/3 336/120/3 214/124/3 342/123/3
f 333/117/3 334/115/3 342/123/3 341/122/3
f 336/120/3 335/118/3 213/121/3 214/124/3
f 333/117/5 335/118/5 331/118/5 329/117/5
f 356/127/3 351/128/3 350/129/3 354/130/3
f 358/3/2 352/2/2 351/5/2 356/6/2
f 353/1/1 352/2/1 358/3/1 360/4/1
f 356/127/3 354/130/3 355/129/3 357/128/3
f 358/3/2 356/6/2 357/5/2 359/2/2
f 361/1/1 360/4/1 358/3/1 359/2/1
f 364/127/3 357/128/3 355/129/3 362/130/3
f 366/3/2 359/2/2 357/5/2 364/6/2
f 361/1/1 359/2/1 366/3/1 368/4/1
f 364/127/3 362/130/3 363/129/3 365/128/3
f 366/3/2 364/6/2 365/5/2 367/2/2
f 369/1/1 368/4/1 366/3/1 367/2/1
f 372/127/3 365/128/3 363/129/3 370/130/3
f 374/3/2 367/2/2 365/5/2 372/6/2
f 369/1/1 367/2/1 374/3/1 376/4/1
f 372/127/3 370/130/3 371/129/3 373/128/3
f 374/3/2 372/6/2 373/5/2 375/2/2
f 377/1/1 376/4/1 374/3/1 375/2/1
f 380/127/3 373/128/3 371/129/3 378/130/3
f 383/3/2 375/2/2 373/5/2 380/6/2
f 377/1/1 375/2/1 383/3/1 385/4/1
f 379/131/11 402/132/11 404/133/11 387/134/11 382/135/11
f 380/127/3 378/130/3 379/129/3 381/128/3
f 383/3/2 380/6/2 381/5/2 384/2/2
f 386/1/1 385/4/1 383/3/1 384/2/1
f 382/70/7 387/70/7 388/70/7 386/70/7
f 387/75/8 403/73/8 388/72/8
f 387/71/8 404/136/8 403/137/8
f 401/138/12 402/139/12 379/140/12 378/141/12
f 400/138/12 401/139/12 378/140/12 371/141/12
f 399/138/12 400/139/12 371/140/12 370/141/12
f 398/138/12 399/139/12 370/140/12 363/141/12
f 397/138/12 398/139/12 363/140/12 362/141/12
f 396/138/12 397/139/12 362/140/12 355/141/12
f 395/138/12 396/139/12 355/140/12 354/141/12
f 394/138/12 395/139/12 354/140/12 350/141/12
f 350/131/13 389/135/13 390/134/13 393/133/13 394/132/13
f 389/70/5 353/70/5 391/70/5 390/70/5
f 390/75/10 391/72/10 392/73/10
f 390/71/10 392/137/10 393/136/10
f 350/142/5 351/143/5 352/144/5 353/145/5 389/146/5
f 379/147/7 382/148/7 386/149/7 384/150/7 381/151/7
f 408/117/5 406/118/5 410/118/5 412/117/5
f 405/120/3 406/118/3 499/121/3 500/124/3
f 408/117/3 407/115/3 385/123/3 386/122/3
f 407/115/3 405/120/3 500/124/3 385/123/3
f 406/118/3 408/117/3 386/122/3 499/121/3
f 412/117/3 410/118/3 409/119/3 411/116/3
f 405/120/7 407/115/7 411/116/7 409/119/7
f 406/118/4 405/120/4 409/119/4 410/118/4
f 407/115/1 408/117/1 412/117/1 411/116/1
f 416/117/5 414/118/5 418/118/5 420/117/5
f 413/120/3 414/118/3 491/121/3 492/124/3
f 416/117/3 415/115/3 376/123/3 377/122/3
f 415/115/3 413/120/3 492/124/3 376/123/3
f 414/118/3 416/117/3 377/122/3 491/121/3
f 420/117/3 418/118/3 417/119/3 419/116/3
f 413/120/7 415/115/7 419/116/7 417/119/7
f 414/118/4 413/120/4 417/119/4 418/118/4
f 415/115/1 416/117/1 420/117/1 419/116/1
f 424/117/5 422/118/5 426/118/5 428/117/5
f 421/120/3 422/118/3 483/121/3 484/124/3
f 424/117/3 423/115/3 368/123/3 369/122/3
f 423/115/3 421/120/3 484/124/3 368/123/3
f 422/118/3 424/117/3 369/122/3 483/121/3
f 428/117/3 426/118/3 425/119/3 427/116/3
f 421/120/7 423/115/7 427/116/7 425/119/7
f 422/118/4 421/120/4 425/119/4 426/118/4
f 423/115/1 424/117/1 428/117/1 427/116/1
f 432/117/5 430/118/5 434/118/5 436/117/5
f 429/120/3 430/118/3 475/121/3 476/124/3
f 432/117/3 431/115/3 360/123/3 361/122/3
f 431/115/3 429/120/3 476/124/3 360/123/3
f 430/118/3 432/117/3 361/122/3 475/121/3
f 436/117/3 434/118/3 433/119/3 435/116/3
f 429/120/7 431/115/7 435/116/7 433/119/7
f 430/118/4 429/120/4 433/119/4 434/118/4
f 431/115/1 432/117/1 436/117/1 435/116/1
f 505/71/8 388/72/8 403/73/8 337/74/8
f 499/125/7 386/126/7 388/126/7 505/125/7
f 440/117/7 444/117/7 442/118/7 438/118/7
f 437/120/3 476/124/3 470/121/3 438/118/3
f 440/117/3 353/122/3 360/123/3 439/115/3
f 439/115/3 360/123/3 476/124/3 437/120/3
f 438/118/3 470/121/3 353/122/3 440/117/3
f 444/117/3 443/116/3 441/119/3 442/118/3
f 437/120/5 441/119/5 443/116/5 439/115/5
f 438/118/4 442/118/4 441/119/4 437/120/4
f 439/115/1 443/116/1 444/117/1 440/117/1
f 448/117/7 452/117/7 450/118/7 446/118/7
f 445/120/3 484/124/3 475/121/3 446/118/3
f 448/117/3 361/122/3 368/123/3 447/115/3
f 447/115/3 368/123/3 484/124/3 445/120/3
f 446/118/3 475/121/3 361/122/3 448/117/3
f 452/117/3 451/116/3 449/119/3 450/118/3
f 445/120/5 449/119/5 451/116/5 447/115/5
f 446/118/4 450/118/4 449/119/4 445/120/4
f 447/115/1 451/116/1 452/117/1 448/117/1
f 456/117/7 460/117/7 458/118/7 454/118/7
f 453/120/3 492/124/3 483/121/3 454/118/3
f 456/117/3 369/122/3 376/123/3 455/115/3
f 455/115/3 376/123/3 492/124/3 453/120/3
f 454/118/3 483/121/3 369/122/3 456/117/3
f 460/117/3 459/116/3 457/119/3 458/118/3
f 453/120/5 457/119/5 459/116/5 455/115/5
f 454/118/4 458/118/4 457/119/4 453/120/4
f 455/115/1 459/116/1 460/117/1 456/117/1
f 464/117/7 468/117/7 466/118/7 462/118/7
f 461/120/3 500/124/3 491/121/3 462/118/3
f 464/117/3 377/122/3 385/123/3 463/115/3
f 463/115/3 385/123/3 500/124/3 461/120/3
f 462/118/3 491/121/3 377/122/3 464/117/3
f 468/117/3 467/116/3 465/119/3 466/118/3
f 461/120/5 465/119/5 467/116/5 463/115/5
f 462/118/4 466/118/4 465/119/4 461/120/4
f 463/115/1 467/116/1 468/117/1 464/117/1
f 506/71/10 338/78/10 392/73/10 391/72/10
f 470/113/9 506/113/9 391/114/9 353/114/9
f 349/1/1 469/2/1 474/3/1 348/4/1
f 474/3/2 469/2/2 471/5/2 478/6/2
f 478/7/3 471/8/3 472/9/3 480/10/3
f 470/11/4 476/12/4 480/13/4 472/14/4
f 347/1/1 348/4/1 474/3/1 473/2/1
f 474/3/2 478/6/2 477/5/2 473/2/2
f 478/7/3 480/10/3 479/9/3 477/8/3
f 475/11/4 479/14/4 480/13/4 476/12/4
f 347/1/1 473/2/1 482/3/1 346/4/1
f 482/3/2 473/2/2 477/5/2 486/6/2
f 486/7/3 477/8/3 479/9/3 488/10/3
f 475/11/4 484/12/4 488/13/4 479/14/4
f 345/1/1 346/4/1 482/3/1 481/2/1
f 482/3/2 486/6/2 485/5/2 481/2/2
f 486/7/3 488/10/3 487/9/3 485/8/3
f 483/11/4 487/14/4 488/13/4 484/12/4
f 345/1/1 481/2/1 490/3/1 344/4/1
f 490/3/2 481/2/2 485/5/2 494/6/2
f 494/7/3 485/8/3 487/9/3 496/10/3
f 483/11/4 492/12/4 496/13/4 487/14/4
f 343/1/1 344/4/1 490/3/1 489/2/1
f 490/3/2 494/6/2 493/5/2 489/2/2
f 494/7/3 496/10/3 495/9/3 493/8/3
f 491/11/4 495/14/4 496/13/4 492/12/4
f 343/1/1 489/2/1 498/3/1 342/4/1
f 498/3/2 489/2/2 493/5/2 502/6/2
f 502/7/3 493/8/3 495/9/3 504/10/3
f 491/11/4 500/12/4 504/13/4 495/14/4
f 341/1/1 342/4/1 498/3/1 497/2/1
f 498/3/2 502/6/2 501/5/2 497/2/2
f 502/7/3 504/10/3 503/9/3 501/8/3
f 499/11/4 503/14/4 504/13/4 500/12/4
f 341/70/7 499/70/7 505/70/7 340/70/7
f 505/75/8 337/73/8 340/72/8
f 349/70/9 339/70/9 506/70/9 470/70/9
f 506/75/10 339/72/10 338/73/10
f 349/99/5 470/100/5 472/101/5 471/102/5 469/103/5
f 341/108/7 497/109/7 501/110/7 503/111/7 499/112/7
f 278/152/3 508/153/3 277/82/3
f 274/85/3 275/154/3 507/155/3 508/156/3
f 510/1/1 511/2/1 544/3/1 542/4/1
f 544/3/14 511/2/14 513/5/14 548/6/14
f 548/7/15 513/8/15 514/9/15 550/10/15
f 512/11/4 546/12/4 550/13/4 514/14/4
f 531/15/7 533/16/7 537/17/7 535/18/7
f 516/1/1 517/2/1 556/3/1 554/4/1
f 556/3/14 517/2/14 518/5/14 558/6/14
f 558/7/16 518/8/16 519/9/16 560/10/16
f 509/11/4 540/12/4 560/13/4 519/14/4
f 524/19/15 521/20/15 526/21/15 525/22/15
f 524/23/5 523/24/5 529/24/5 530/23/5
f 522/25/15 523/24/15 516/26/15 554/27/15
f 521/28/15 522/25/15 554/27/15 562/29/15
f 523/24/15 524/23/15 520/30/15 516/26/15
f 552/31/15 526/32/15 521/33/15 562/34/15
f 520/35/15 524/36/15 525/37/15 515/38/15
f 528/39/15 527/40/15 530/41/15 529/42/15
f 523/24/1 522/25/1 528/43/1 529/24/1
f 522/25/7 521/28/7 527/44/7 528/43/7
f 521/45/4 524/46/4 530/46/4 527/45/4
f 531/15/15 532/47/15 510/26/15 542/27/15
f 534/48/15 533/16/15 540/49/15 509/50/15
f 532/47/15 534/48/15 509/50/15 510/26/15
f 533/16/15 531/15/15 542/27/15 540/49/15
f 535/18/15 537/17/15 538/51/15 536/52/15
f 532/47/1 531/15/1 535/18/1 536/52/1
f 534/48/5 532/47/5 536/52/5 538/51/5
f 533/16/4 534/48/4 538/51/4 537/17/4
f 541/1/1 542/4/1 544/3/1 543/2/1
f 544/3/14 548/6/14 547/5/14 543/2/14
f 548/7/15 550/10/15 549/9/15 547/8/15
f 545/11/4 549/14/4 550/13/4 546/12/4
f 553/1/1 554/4/1 556/3/1 555/2/1
f 556/3/14 558/6/14 557/5/14 555/2/14
f 558/7/16 560/10/16 559/9/16 557/8/16
f 539/11/4 559/14/4 560/13/4 540/12/4
f 566/19/15 567/22/15 568/21/15 563/20/15
f 566/23/7 572/23/7 571/24/7 565/24/7
f 564/25/15 554/27/15 553/26/15 565/24/15
f 563/28/15 562/29/15 554/27/15 564/25/15
f 565/24/15 553/26/15 561/30/15 566/23/15
f 552/31/15 562/34/15 563/33/15 568/32/15
f 561/35/15 551/38/15 567/37/15 566/36/15
f 570/39/15 571/42/15 572/41/15 569/40/15
f 565/24/1 571/24/1 570/43/1 564/25/1
f 564/25/5 570/43/5 569/44/5 563/28/5
f 563/45/4 569/45/4 572/46/4 566/46/4
f 573/15/15 542/27/15 541/26/15 574/47/15
f 576/48/15 539/50/15 540/49/15 575/16/15
f 574/47/15 541/26/15 539/50/15 576/48/15
f 575/16/15 540/49/15 542/27/15 573/15/15
f 576/16/4 575/48/4 577/51/4 578/17/4
f 575/48/5 573/47/5 579/52/5 577/51/5
f 573/47/1 574/15/1 580/18/1 579/52/1
f 580/18/15 578/17/15 577/51/15 579/52/15
f 574/15/7 576/16/7 578/17/7 580/18/7
f 541/1/1 543/2/1 604/3/1 602/4/1
f 604/3/14 543/2/14 547/5/14 608/6/14
f 608/7/15 547/8/15 549/9/15 610/10/15
f 545/11/4 606/12/4 610/13/4 549/14/4
f 591/15/7 593/16/7 597/17/7 595/18/7
f 553/1/1 555/2/1 616/3/1 614/4/1
f 616/3/14 555/2/14 557/5/14 618/6/14
f 618/7/16 557/8/16 559/9/16 620/10/16
f 539/11/4 600/12/4 620/13/4 559/14/4
f 584/19/15 581/20/15 586/21/15 585/22/15
f 584/23/5 583/24/5 589/24/5 590/23/5
f 582/25/15 583/24/15 553/26/15 614/27/15
f 581/28/15 582/25/15 614/27/15 622/29/15
f 583/24/15 584/23/15 561/30/15 553/26/15
f 612/31/15 586/32/15 581/33/15 622/34/15
f 561/35/15 584/36/15 585/37/15 551/38/15
f 588/39/15 587/40/15 590/41/15 589/42/15
f 583/24/1 582/25/1 588/43/1 589/24/1
f 582/25/7 581/28/7 587/44/7 588/43/7
f 581/45/4 584/46/4 590/46/4 587/45/4
f 591/15/15 592/47/15 541/26/15 602/27/15
f 594/48/15 593/16/15 600/49/15 539/50/15
f 592/47/15 594/48/15 539/50/15 541/26/15
f 593/16/15 591/15/15 602/27/15 600/49/15
f 595/18/15 597/17/15 598/51/15 596/52/15
f 592/47/1 591/15/1 595/18/1 596/52/1
f 594/48/5 592/47/5 596/52/5 598/51/5
f 593/16/4 594/48/4 598/51/4 597/17/4
f 601/1/1 602/4/1 604/3/1 603/2/1
f 604/3/14 608/6/14 607/5/14 603/2/14
f 608/7/15 610/10/15 609/9/15 607/8/15
f 605/11/4 609/14/4 610/13/4 606/12/4
f 613/1/1 614/4/1 616/3/1 615/2/1
f 616/3/14 618/6/14 617/5/14 615/2/14
f 618/7/16 620/10/16 619/9/16 617/8/16
f 599/11/4 619/14/4 620/13/4 600/12/4
f 626/53/7 627/54/7 786/55/7 785/56/7
f 624/57/1 625/58/1 784/59/1 994/60/1 783/61/1
f 624/62/15 614/27/15 613/26/15 625/63/15
f 623/64/15 622/29/15 614/27/15 624/62/15
f 625/63/15 613/26/15 621/30/15 626/65/15
f 612/31/15 622/34/15 623/66/15 628/67/15
f 621/35/15 611/38/15 627/68/15 626/69/15
f 629/15/15 602/27/15 601/26/15 630/47/15
f 632/48/15 599/50/15 600/49/15 631/16/15
f 630/47/15 601/26/15 599/50/15 632/48/15
f 631/16/15 600/49/15 602/27/15 629/15/15
f 632/16/4 631/48/4 633/51/4 634/17/4
f 631/48/5 629/47/5 635/52/5 633/51/5
f 629/47/1 630/15/1 636/18/1 635/52/1
f 636/18/15 634/17/15 633/51/15 635/52/15
f 630/15/7 632/16/7 634/17/7 636/18/7
f 601/1/1 603/2/1 660/3/1 658/4/1
f 660/3/14 603/2/14 607/5/14 664/6/14
f 664/7/15 607/8/15 609/9/15 666/10/15
f 605/11/4 662/12/4 666/13/4 609/14/4
f 647/15/7 649/16/7 653/17/7 651/18/7
f 613/1/1 615/2/1 672/3/1 670/4/1
f 672/3/14 615/2/14 617/5/14 674/6/14
f 674/7/16 617/8/16 619/9/16 676/10/16
f 599/11/4 656/12/4 676/13/4 619/14/4
f 640/19/15 637/20/15 642/21/15 641/22/15
f 640/23/5 639/24/5 645/24/5 646/23/5
f 638/25/15 639/24/15 613/26/15 670/27/15
f 637/28/15 638/25/15 670/27/15 678/29/15
f 639/24/15 640/23/15 621/30/15 613/26/15
f 668/31/15 642/32/15 637/33/15 678/34/15
f 621/35/15 640/36/15 641/37/15 611/38/15
f 644/39/15 643/40/15 646/41/15 645/42/15
f 639/24/1 638/25/1 644/43/1 645/24/1
f 638/25/7 637/28/7 643/44/7 644/43/7
f 637/45/4 640/46/4 646/46/4 643/45/4
f 647/15/15 648/47/15 601/26/15 658/27/15
f 650/48/15 649/16/15 656/49/15 599/50/15
f 648/47/15 650/48/15 599/50/15 601/26/15
f 649/16/15 647/15/15 658/27/15 656/49/15
f 651/18/15 653/17/15 654/51/15 652/52/15
f 648/47/1 647/15/1 651/18/1 652/52/1
f 650/48/5 648/47/5 652/52/5 654/51/5
f 649/16/4 650/48/4 654/51/4 653/17/4
f 657/1/1 658/4/1 660/3/1 659/2/1
f 660/3/14 664/6/14 663/5/14 659/2/14
f 664/7/15 666/10/15 665/9/15 663/8/15
f 661/11/4 665/14/4 666/13/4 662/12/4
f 669/1/1 670/4/1 672/3/1 671/2/1
f 672/3/14 674/6/14 673/5/14 671/2/14
f 674/7/16 676/10/16 675/9/16 673/8/16
f 655/11/4 675/14/4 676/13/4 656/12/4
f 682/19/15 683/22/15 684/21/15 679/20/15
f 682/23/7 688/23/7 687/24/7 681/24/7
f 680/25/15 670/27/15 669/26/15 681/24/15
f 679/28/15 678/29/15 670/27/15 680/25/15
f 681/24/15 669/26/15 677/30/15 682/23/15
f 668/31/15 678/34/15 679/33/15 684/32/15
f 677/35/15 667/38/15 683/37/15 682/36/15
f 686/39/15 687/42/15 688/41/15 685/40/15
f 681/24/1 687/24/1 686/43/1 680/25/1
f 680/25/5 686/43/5 685/44/5 679/28/5
f 679/45/4 685/45/4 688/46/4 682/46/4
f 689/15/15 658/27/15 657/26/15 690/47/15
f 692/48/15 655/50/15 656/49/15 691/16/15
f 690/47/15 657/26/15 655/50/15 692/48/15
f 691/16/15 656/49/15 658/27/15 689/15/15
f 692/16/4 691/48/4 693/51/4 694/17/4
f 691/48/5 689/47/5 695/52/5 693/51/5
f 689/47/1 690/15/1 696/18/1 695/52/1
f 696/18/15 694/17/15 693/51/15 695/52/15
f 690/15/7 692/16/7 694/17/7 696/18/7
f 657/1/1 659/2/1 720/3/1 718/4/1
f 720/3/14 659/2/14 663/5/14 724/6/14
f 724/7/15 663/8/15 665/9/15 726/10/15
f 661/11/4 722/12/4 726/13/4 665/14/4
f 707/15/7 709/16/7 713/17/7 711/18/7
f 669/1/1 671/2/1 732/3/1 730/4/1
f 732/3/14 671/2/14 673/5/14 734/6/14
f 734/7/16 673/8/16 675/9/16 736/10/16
f 655/11/4 716/12/4 736/13/4 675/14/4
f 700/19/15 697/20/15 702/21/15 701/22/15
f 700/23/5 699/24/5 705/24/5 706/23/5
f 698/25/15 699/24/15 669/26/15 730/27/15
f 697/28/15 698/25/15 730/27/15 738/29/15
f 699/24/15 700/23/15 677/30/15 669/26/15
f 728/31/15 702/32/15 697/33/15 738/34/15
f 677/35/15 700/36/15 701/37/15 667/38/15
f 704/39/15 703/40/15 706/41/15 705/42/15
f 699/24/1 698/25/1 704/43/1 705/24/1
f 698/25/7 697/28/7 703/44/7 704/43/7
f 697/45/4 700/46/4 706/46/4 703/45/4
f 707/15/15 708/47/15 657/26/15 718/27/15
f 710/48/15 709/16/15 716/49/15 655/50/15
f 708/47/15 710/48/15 655/50/15 657/26/15
f 709/16/15 707/15/15 718/27/15 716/49/15
f 711/18/15 713/17/15 714/51/15 712/52/15
f 708/47/1 707/15/1 711/18/1 712/52/1
f 710/48/5 708/47/5 712/52/5 714/51/5
f 709/16/4 710/48/4 714/51/4 713/17/4
f 717/1/1 718/4/1 720/3/1 719/2/1
f 720/3/14 724/6/14 723/5/14 719/2/14
f 724/7/15 726/10/15 725/9/15 723/8/15
f 721/11/4 725/14/4 726/13/4 722/12/4
f 729/1/1 730/4/1 732/3/1 731/2/1
f 732/3/14 734/6/14 733/5/14 731/2/14
f 734/7/16 736/10/16 735/9/16 733/8/16
f 715/11/4 735/14/4 736/13/4 716/12/4
f 742/19/15 743/22/15 744/21/15 739/20/15
f 742/23/7 748/23/7 747/24/7 741/24/7
f 740/25/15 730/27/15 729/26/15 741/24/15
f 739/28/15 738/29/15 730/27/15 740/25/15
f 741/24/15 729/26/15 737/30/15 742/23/15
f 728/31/15 738/34/15 739/33/15 744/32/15
f 737/35/15 727/38/15 743/37/15 742/36/15
f 746/39/15 747/42/15 748/41/15 745/40/15
f 741/24/1 747/24/1 746/43/1 740/25/1
f 740/25/5 746/43/5 745/44/5 739/28/5
f 739/45/4 745/45/4 748/46/4 742/46/4
f 749/15/15 718/27/15 717/26/15 750/47/15
f 752/48/15 715/50/15 716/49/15 751/16/15
f 750/47/15 717/26/15 715/50/15 752/48/15
f 751/16/15 716/49/15 718/27/15 749/15/15
f 752/16/4 751/48/4 753/51/4 754/17/4
f 751/48/5 749/47/5 755/52/5 753/51/5
f 749/47/1 750/15/1 756/18/1 755/52/1
f 756/18/15 754/17/15 753/51/15 755/52/15
f 750/15/7 752/16/7 754/17/7 756/18/7
f 717/70/5 721/70/5 767/70/5 766/70/5
f 715/50/5 717/26/5 766/26/5 765/50/5
f 737/30/5 729/26/5 768/26/5 769/30/5
f 715/70/5 765/70/5 768/70/5 729/70/5
f 765/71/10 766/72/10 281/73/10 283/74/10
f 767/75/10 281/73/10 766/72/10
f 772/71/10 769/76/10 768/72/10 283/73/10 282/77/10
f 765/75/10 283/73/10 768/72/10
f 727/38/5 737/35/5 769/35/5 772/38/5
f 510/70/17 775/70/17 776/70/17 512/70/17
f 509/50/17 774/50/17 775/26/17 510/26/17
f 520/30/17 778/30/17 777/26/17 516/26/17
f 509/70/17 516/70/17 777/70/17 774/70/17
f 774/71/8 297/78/8 295/73/8 775/72/8
f 776/75/8 775/72/8 295/73/8
f 781/71/8 296/77/8 297/73/8 777/72/8 778/76/8
f 774/75/8 777/72/8 297/73/8
f 515/38/17 781/38/17 778/35/17 520/35/17
f 995/79/15 994/80/15 784/81/15 785/82/15
f 995/83/15 787/84/15 782/85/15
f 623/86/5 624/87/5 783/88/5 782/89/5
f 628/54/5 623/53/5 782/56/5 787/55/5
f 625/90/7 626/91/7 785/92/7 784/93/7
f 517/94/7 516/95/7 509/96/7 519/97/7 518/98/7
f 510/99/7 512/100/7 514/101/7 513/102/7 511/103/7
f 731/104/5 733/105/5 735/97/5 715/106/5 729/107/5
f 717/108/5 719/109/5 723/110/5 725/111/5 721/112/5
f 512/113/17 776/113/17 839/114/17 849/114/17
f 776/71/8 295/78/8 337/73/8 839/72/8
f 762/115/1 758/116/1 757/117/1 761/117/1
f 763/118/4 759/118/4 760/119/4 764/120/4
f 764/120/7 760/119/7 758/116/7 762/115/7
f 757/117/15 758/116/15 760/119/15 759/118/15
f 763/118/15 661/121/15 843/122/15 761/117/15
f 762/115/15 842/123/15 722/124/15 764/120/15
f 761/117/15 843/122/15 842/123/15 762/115/15
f 764/120/15 722/124/15 661/121/15 763/118/15
f 761/117/5 757/117/5 759/118/5 763/118/5
f 788/115/1 771/116/1 770/117/1 780/117/1
f 789/118/4 773/118/4 779/119/4 790/120/4
f 790/120/7 779/119/7 771/116/7 788/115/7
f 770/117/15 771/116/15 779/119/15 773/118/15
f 789/118/15 605/121/15 845/122/15 780/117/15
f 788/115/15 844/123/15 662/124/15 790/120/15
f 780/117/15 845/122/15 844/123/15 788/115/15
f 790/120/15 662/124/15 605/121/15 789/118/15
f 780/117/5 770/117/5 773/118/5 789/118/5
f 796/115/1 792/116/1 791/117/1 795/117/1
f 797/118/4 793/118/4 794/119/4 798/120/4
f 798/120/7 794/119/7 792/116/7 796/115/7
f 791/117/15 792/116/15 794/119/15 793/118/15
f 797/118/15 545/121/15 847/122/15 795/117/15
f 796/115/15 846/123/15 606/124/15 798/120/15
f 795/117/15 847/122/15 846/123/15 796/115/15
f 798/120/15 606/124/15 545/121/15 797/118/15
f 795/117/5 791/117/5 793/118/5 797/118/5
f 804/115/1 800/116/1 799/117/1 803/117/1
f 805/118/4 801/118/4 802/119/4 806/120/4
f 806/120/7 802/119/7 800/116/7 804/115/7
f 799/117/15 800/116/15 802/119/15 801/118/15
f 805/118/15 512/121/15 849/122/15 803/117/15
f 804/115/15 848/123/15 546/124/15 806/120/15
f 803/117/15 849/122/15 848/123/15 804/115/15
f 806/120/15 546/124/15 512/121/15 805/118/15
f 803/117/5 799/117/5 801/118/5 805/118/5
f 721/125/5 841/126/5 840/126/5 767/125/5
f 767/71/10 840/72/10 338/73/10 281/74/10
f 812/115/1 811/117/1 807/117/1 808/116/1
f 813/118/4 814/120/4 810/119/4 809/118/4
f 814/120/5 812/115/5 808/116/5 810/119/5
f 807/117/15 809/118/15 810/119/15 808/116/15
f 813/118/15 811/117/15 847/122/15 545/121/15
f 812/115/15 814/120/15 546/124/15 848/123/15
f 811/117/15 812/115/15 848/123/15 847/122/15
f 814/120/15 813/118/15 545/121/15 546/124/15
f 811/117/7 813/118/7 809/118/7 807/117/7
f 820/115/1 819/117/1 815/117/1 816/116/1
f 821/118/4 822/120/4 818/119/4 817/118/4
f 822/120/5 820/115/5 816/116/5 818/119/5
f 815/117/15 817/118/15 818/119/15 816/116/15
f 821/118/15 819/117/15 845/122/15 605/121/15
f 820/115/15 822/120/15 606/124/15 846/123/15
f 819/117/15 820/115/15 846/123/15 845/122/15
f 822/120/15 821/118/15 605/121/15 606/124/15
f 819/117/7 821/118/7 817/118/7 815/117/7
f 828/115/1 827/117/1 823/117/1 824/116/1
f 829/118/4 830/120/4 826/119/4 825/118/4
f 830/120/5 828/115/5 824/116/5 826/119/5
f 823/117/15 825/118/15 826/119/15 824/116/15
f 829/118/15 827/117/15 843/122/15 661/121/15
f 828/115/15 830/120/15 662/124/15 844/123/15
f 827/117/15 828/115/15 844/123/15 843/122/15
f 830/120/15 829/118/15 661/121/15 662/124/15
f 827/117/7 829/118/7 825/118/7 823/117/7
f 836/115/1 835/117/1 831/117/1 832/116/1
f 837/118/4 838/120/4 834/119/4 833/118/4
f 838/120/5 836/115/5 832/116/5 834/119/5
f 831/117/15 833/118/15 834/119/15 832/116/15
f 837/118/15 835/117/15 841/122/15 721/121/15
f 836/115/15 838/120/15 722/124/15 842/123/15
f 835/117/15 836/115/15 842/123/15 841/122/15
f 838/120/15 837/118/15 721/121/15 722/124/15
f 835/117/7 837/118/7 833/118/7 831/117/7
f 856/127/15 851/128/15 850/129/15 854/130/15
f 858/3/14 852/2/14 851/5/14 856/6/14
f 853/1/1 852/2/1 858/3/1 860/4/1
f 856/127/15 854/130/15 855/129/15 857/128/15
f 858/3/14 856/6/14 857/5/14 859/2/14
f 861/1/1 860/4/1 858/3/1 859/2/1
f 864/127/15 857/128/15 855/129/15 862/130/15
f 866/3/14 859/2/14 857/5/14 864/6/14
f 861/1/1 859/2/1 866/3/1 868/4/1
f 864/127/15 862/130/15 863/129/15 865/128/15
f 866/3/14 864/6/14 865/5/14 867/2/14
f 869/1/1 868/4/1 866/3/1 867/2/1
f 872/127/15 865/128/15 863/129/15 870/130/15
f 874/3/14 867/2/14 865/5/14 872/6/14
f 869/1/1 867/2/1 874/3/1 876/4/1
f 872/127/15 870/130/15 871/129/15 873/128/15
f 874/3/14 872/6/14 873/5/14 875/2/14
f 877/1/1 876/4/1 874/3/1 875/2/1
f 880/127/15 873/128/15 871/129/15 878/130/15
f 883/3/14 875/2/14 873/5/14 880/6/14
f 877/1/1 875/2/1 883/3/1 885/4/1
f 879/131/18 394/132/18 393/133/18 887/134/18 882/135/18
f 880/127/15 878/130/15 879/129/15 881/128/15
f 883/3/14 880/6/14 881/5/14 884/2/14
f 886/1/1 885/4/1 883/3/1 884/2/1
f 882/70/5 887/70/5 888/70/5 886/70/5
f 887/75/10 392/73/10 888/72/10
f 887/71/10 393/136/10 392/137/10
f 395/138/19 394/139/19 879/140/19 878/141/19
f 396/138/19 395/139/19 878/140/19 871/141/19
f 397/138/19 396/139/19 871/140/19 870/141/19
f 398/138/19 397/139/19 870/140/19 863/141/19
f 399/138/19 398/139/19 863/140/19 862/141/19
f 400/138/19 399/139/19 862/140/19 855/141/19
f 401/138/19 400/139/19 855/140/19 854/141/19
f 402/138/19 401/139/19 854/140/19 850/141/19
f 850/131/20 889/135/20 890/134/20 404/133/20 402/132/20
f 889/70/7 853/70/7 891/70/7 890/70/7
f 890/75/8 891/72/8 403/73/8
f 890/71/8 403/137/8 404/136/8
f 850/142/7 851/143/7 852/144/7 853/145/7 889/146/7
f 879/147/5 882/148/5 886/149/5 884/150/5 881/151/5
f 895/117/7 893/118/7 897/118/7 899/117/7
f 892/120/15 893/118/15 986/121/15 987/124/15
f 895/117/15 894/115/15 885/123/15 886/122/15
f 894/115/15 892/120/15 987/124/15 885/123/15
f 893/118/15 895/117/15 886/122/15 986/121/15
f 899/117/15 897/118/15 896/119/15 898/116/15
f 892/120/5 894/115/5 898/116/5 896/119/5
f 893/118/4 892/120/4 896/119/4 897/118/4
f 894/115/1 895/117/1 899/117/1 898/116/1
f 903/117/7 901/118/7 905/118/7 907/117/7
f 900/120/15 901/118/15 978/121/15 979/124/15
f 903/117/15 902/115/15 876/123/15 877/122/15
f 902/115/15 900/120/15 979/124/15 876/123/15
f 901/118/15 903/117/15 877/122/15 978/121/15
f 907/117/15 905/118/15 904/119/15 906/116/15
f 900/120/5 902/115/5 906/116/5 904/119/5
f 901/118/4 900/120/4 904/119/4 905/118/4
f 902/115/1 903/117/1 907/117/1 906/116/1
f 911/117/7 909/118/7 913/118/7 915/117/7
f 908/120/15 909/118/15 970/121/15 971/124/15
f 911/117/15 910/115/15 868/123/15 869/122/15
f 910/115/15 908/120/15 971/124/15 868/123/15
f 909/118/15 911/117/15 869/122/15 970/121/15
f 915/117/15 913/118/15 912/119/15 914/116/15
f 908/120/5 910/115/5 914/116/5 912/119/5
f 909/118/4 908/120/4 912/119/4 913/118/4
f 910/115/1 911/117/1 915/117/1 914/116/1
f 919/117/7 917/118/7 921/118/7 923/117/7
f 916/120/15 917/118/15 962/121/15 963/124/15
f 919/117/15 918/115/15 860/123/15 861/122/15
f 918/115/15 916/120/15 963/124/15 860/123/15
f 917/118/15 919/117/15 861/122/15 962/121/15
f 923/117/15 921/118/15 920/119/15 922/116/15
f 916/120/5 918/115/5 922/116/5 920/119/5
f 917/118/4 916/120/4 920/119/4 921/118/4
f 918/115/1 919/117/1 923/117/1 922/116/1
f 992/71/10 888/72/10 392/73/10 338/74/10
f 986/125/5 886/126/5 888/126/5 992/125/5
f 927/117/5 931/117/5 929/118/5 925/118/5
f 924/120/15 963/124/15 957/121/15 925/118/15
f 927/117/15 853/122/15 860/123/15 926/115/15
f 926/115/15 860/123/15 963/124/15 924/120/15
f 925/118/15 957/121/15 853/122/15 927/117/15
f 931/117/15 930/116/15 928/119/15 929/118/15
f 924/120/7 928/119/7 930/116/7 926/115/7
f 925/118/4 929/118/4 928/119/4 924/120/4
f 926/115/1 930/116/1 931/117/1 927/117/1
f 935/117/5 939/117/5 937/118/5 933/118/5
f 932/120/15 971/124/15 962/121/15 933/118/15
f 935/117/15 861/122/15 868/123/15 934/115/15
f 934/115/15 868/123/15 971/124/15 932/120/15
f 933/118/15 962/121/15 861/122/15 935/117/15
f 939/117/15 938/116/15 936/119/15 937/118/15
f 932/120/7 936/119/7 938/116/7 934/115/7
f 933/118/4 937/118/4 936/119/4 932/120/4
f 934/115/1 938/116/1 939/117/1 935/117/1
f 943/117/5 947/117/5 945/118/5 941/118/5
f 940/120/15 979/124/15 970/121/15 941/118/15
f 943/117/15 869/122/15 876/123/15 942/115/15
f 942/115/15 876/123/15 979/124/15 940/120/15
f 941/118/15 970/121/15 869/122/15 943/117/15
f 947/117/15 946/116/15 944/119/15 945/118/15
f 940/120/7 944/119/7 946/116/7 942/115/7
f 941/118/4 945/118/4 944/119/4 940/120/4
f 942/115/1 946/116/1 947/117/1 943/117/1
f 951/117/5 955/117/5 953/118/5 949/118/5
f 948/120/15 987/124/15 978/121/15 949/118/15
f 951/117/15 877/122/15 885/123/15 950/115/15
f 950/115/15 885/123/15 987/124/15 948/120/15
f 949/118/15 978/121/15 877/122/15 951/117/15
f 955/117/15 954/116/15 952/119/15 953/118/15
f 948/120/7 952/119/7 954/116/7 950/115/7
f 949/118/4 953/118/4 952/119/4 948/120/4
f 950/115/1 954/116/1 955/117/1 951/117/1
f 993/71/8 337/78/8 403/73/8 891/72/8
f 957/113/17 993/113/17 891/114/17 853/114/17
f 849/1/1 956/2/1 961/3/1 848/4/1
f 961/3/14 956/2/14 958/5/14 965/6/14
f 965/7/15 958/8/15 959/9/15 967/10/15
f 957/11/4 963/12/4 967/13/4 959/14/4
f 847/1/1 848/4/1 961/3/1 960/2/1
f 961/3/14 965/6/14 964/5/14 960/2/14
f 965/7/15 967/10/15 966/9/15 964/8/15
f 962/11/4 966/14/4 967/13/4 963/12/4
f 847/1/1 960/2/1 969/3/1 846/4/1
f 969/3/14 960/2/14 964/5/14 973/6/14
f 973/7/15 964/8/15 966/9/15 975/10/15
f 962/11/4 971/12/4 975/13/4 966/14/4
f 845/1/1 846/4/1 969/3/1 968/2/1
f 969/3/14 973/6/14 972/5/14 968/2/14
f 973/7/15 975/10/15 974/9/15 972/8/15
f 970/11/4 974/14/4 975/13/4 971/12/4
f 845/1/1 968/2/1 977/3/1 844/4/1
f 977/3/14 968/2/14 972/5/14 981/6/14
f 981/7/15 972/8/15 974/9/15 983/10/15
f 970/11/4 979/12/4 983/13/4 974/14/4
f 843/1/1 844/4/1 977/3/1 976/2/1
f 977/3/14 981/6/14 980/5/14 976/2/14
f 981/7/15 983/10/15 982/9/15 980/8/15
f 978/11/4 982/14/4 983/13/4 979/12/4
f 843/1/1 976/2/1 985/3/1 842/4/1
f 985/3/14 976/2/14 980/5/14 989/6/14
f 989/7/15 980/8/15 982/9/15 991/10/15
f 978/11/4 987/12/4 991/13/4 982/14/4
f 841/1/1 842/4/1 985/3/1 984/2/1
f 985/3/14 989/6/14 988/5/14 984/2/14
f 989/7/15 991/10/15 990/9/15 988/8/15
f 986/11/4 990/14/4 991/13/4 987/12/4
f 841/70/5 986/70/5 992/70/5 840/70/5
f 992/75/10 338/73/10 840/72/10
f 849/70/17 839/70/17 993/70/17 957/70/17
f 993/75/8 839/72/8 337/73/8
f 849/99/7 957/100/7 959/101/7 958/102/7 956/103/7
f 841/108/5 984/109/5 988/110/5 990/111/5 986/112/5
f 786/152/15 995/153/15 785/82/15
f 782/85/15 783/154/15 994/155/15 995/156/15
