# Blender 5.1.1
# www.blender.org
mtllib PBP1_Corner3.mtl
o PBP1_Corner3
v -12.828416 6.418858 2.357671
v -10.401617 6.418858 2.357671
v -7.974804 6.418858 2.357671
v -5.547998 6.418858 2.357671
v -3.121189 6.418858 2.357671
v -0.694383 6.418858 2.357671
v 2.375394 6.418858 2.357671
v 2.375397 6.418858 -10.419317
v 2.375398 6.418858 -7.992506
v 2.375399 6.418858 -5.565701
v 2.375400 6.418858 -3.138886
v 2.375400 6.418858 -0.712088
v 2.375394 -0.279533 2.357661
v 2.375394 -3.628727 2.357661
v -0.694391 -0.279533 2.357664
v -0.694391 -3.628727 2.357664
v -3.121197 -0.279533 2.357668
v -3.121197 -3.628727 2.357668
v -5.548006 -0.279533 2.357671
v -5.548006 -3.628727 2.357671
v -7.974819 -0.279533 2.357674
v -7.974819 -3.628727 2.357674
v -10.401626 -0.279533 2.357677
v -10.401626 -3.628727 2.357677
v -12.828431 -0.279533 2.357681
v -12.828431 -3.628727 2.357681
v 2.375394 -6.789551 2.357661
v -0.694391 -6.789551 2.357664
v -3.121197 -6.789551 2.357668
v -5.548006 -6.789551 2.357671
v -7.974819 -6.789551 2.357674
v -10.401626 -6.789551 2.357677
v -12.828431 -6.789551 2.357681
v 2.375394 3.069662 2.357661
v -0.694391 3.069662 2.357664
v -3.121197 3.069662 2.357668
v -5.548006 3.069662 2.357671
v -7.974819 3.069662 2.357674
v -10.401626 3.069662 2.357677
v -12.828431 3.069662 2.357681
v 2.375390 9.301386 2.357678
v 4.154421 -3.440357 5.852715
v 4.154421 -0.279533 5.852715
v 4.154421 -0.279533 6.010034
v 4.154421 -0.091162 5.852715
v 4.154421 -0.175141 6.099294
v 4.154421 -0.091162 6.099294
v 4.154421 -6.789552 5.852715
v 4.154421 -3.628727 5.852715
v 4.154421 -3.628727 6.010034
v 4.154421 -3.524335 6.099294
v 4.154421 -3.440357 6.110362
v 4.154421 -6.010475 5.852715
v 2.443055 -6.010475 5.852715
v 2.443055 -4.193031 5.852715
v 3.438985 -4.193031 5.852716
v 3.438985 -6.010475 5.852716
v 3.438985 -6.789552 5.852716
v 2.443055 -6.789552 5.852715
v 2.443055 -6.010475 5.688311
v 2.443055 -4.193031 5.688311
v 3.438985 -4.193031 5.688311
v 3.438985 -6.010475 5.688311
v 2.405234 -0.888022 5.852715
v 3.476803 -0.888022 5.852716
v 2.405234 -2.640728 5.852715
v 3.476803 -2.640728 5.852716
v 2.405234 -0.888022 5.688311
v 3.476803 -0.888022 5.688311
v 2.405234 -2.640728 5.688311
v 3.476803 -2.640728 5.688311
v -0.699194 -3.440357 5.852718
v 1.727615 -3.440357 5.852716
v -0.699194 -0.279533 5.852718
v 1.727615 -0.279533 5.852716
v -0.699194 -0.279533 6.010036
v 1.727615 -0.279533 6.010035
v -0.699194 -0.091162 5.852718
v 1.727615 -0.091162 5.852716
v -0.699194 -0.175141 6.099296
v 1.727615 -0.175141 6.099294
v -0.699194 -0.091162 6.099296
v 1.727615 -0.091162 6.099294
v -0.699194 -6.789552 5.852718
v 1.727615 -6.789552 5.852716
v -0.699194 -3.628727 5.852718
v 1.727615 -3.628727 5.852716
v -0.699194 -3.628727 6.010036
v 1.727615 -3.628727 6.010035
v -0.699194 -3.524335 6.099296
v 1.727615 -3.524335 6.099294
v -0.699194 -3.440357 6.110364
v 1.727615 -3.440357 6.110363
v -0.699194 -6.010475 5.852718
v 1.727615 -6.010475 5.852716
v 1.012179 -6.010475 5.852716
v 1.012179 -4.193031 5.852716
v 0.016245 -4.193031 5.852717
v 0.016245 -6.010475 5.852717
v 0.016245 -6.789552 5.852717
v 1.012179 -6.789552 5.852716
v 1.012179 -6.010475 5.688312
v 1.012179 -4.193031 5.688312
v 0.016245 -4.193031 5.688313
v 0.016245 -6.010475 5.688313
v 1.049997 -0.888022 5.852716
v -0.021572 -0.888022 5.852717
v 1.049997 -2.640728 5.852716
v -0.021572 -2.640728 5.852717
v 1.049997 -2.640728 5.688311
v -0.021572 -2.640728 5.688311
v 1.049997 -0.888022 5.688311
v -0.021572 -0.888022 5.688311
v -2.410560 -6.010475 5.852717
v -2.410560 -4.193031 5.852717
v -1.414630 -4.193031 5.852717
v -1.414630 -6.010475 5.852717
v -1.414630 -6.789552 5.852717
v -2.410560 -6.789552 5.852717
v -2.410560 -6.010475 5.688313
v -2.410560 -4.193031 5.688313
v -1.414630 -4.193031 5.688313
v -1.414630 -6.010475 5.688313
v -2.448378 -0.888022 5.852717
v -1.376813 -0.888022 5.852717
v -2.448378 -2.640728 5.852717
v -1.376813 -2.640728 5.852717
v -2.448378 -0.888022 5.688313
v -1.376813 -0.888022 5.688313
v -2.448378 -2.640728 5.688313
v -1.376813 -2.640728 5.688313
v -5.552806 -3.440357 5.852720
v -3.126000 -3.440357 5.852717
v -5.552806 -0.279533 5.852720
v -3.126000 -0.279533 5.852717
v -5.552806 -0.279533 6.010037
v -3.126000 -0.279533 6.010036
v -5.552806 -0.091162 5.852720
v -3.126000 -0.091162 5.852717
v -5.552806 -0.175141 6.099298
v -3.126000 -0.175141 6.099296
v -5.552806 -0.091162 6.099298
v -3.126000 -0.091162 6.099296
v -5.552806 -6.789552 5.852720
v -3.126000 -6.789552 5.852717
v -5.552806 -3.628727 5.852720
v -3.126000 -3.628727 5.852717
v -5.552806 -3.628727 6.010037
v -3.126000 -3.628727 6.010036
v -5.552806 -3.524335 6.099298
v -3.126000 -3.524335 6.099296
v -5.552806 -3.440357 6.110366
v -3.126000 -3.440357 6.110364
v -5.552806 -6.010475 5.852720
v -3.126000 -6.010475 5.852717
v -3.331103 -6.010475 5.852718
v -3.331103 -4.193031 5.852718
v -5.347707 -4.193031 5.852719
v -5.347707 -6.010475 5.852719
v -5.347707 -6.789552 5.852719
v -3.331103 -6.789552 5.852718
v -3.803619 -0.888022 5.852718
v -4.875187 -0.888022 5.852718
v -3.803619 -2.640728 5.852718
v -4.875187 -2.640728 5.852718
v -3.803619 -2.640728 5.688313
v -4.875187 -2.640728 5.688313
v -3.803619 -0.888022 5.688313
v -4.875187 -0.888022 5.688313
v -7.264176 -6.010475 5.852719
v -7.264176 -4.193031 5.852719
v -6.268242 -4.193031 5.852719
v -6.268242 -6.010475 5.852719
v -6.268246 -6.789552 5.852719
v -7.264176 -6.789552 5.852719
v -7.264176 -6.010475 5.688314
v -7.264176 -4.193031 5.688314
v -6.268242 -4.193031 5.688314
v -6.268242 -6.010475 5.688314
v -7.301993 -0.888022 5.852719
v -6.230424 -0.888022 5.852719
v -7.301993 -2.640728 5.852719
v -6.230424 -2.640728 5.852719
v -7.301993 -0.888022 5.688314
v -6.230424 -0.888022 5.688314
v -7.301993 -2.640728 5.688314
v -6.230424 -2.640728 5.688314
v -10.406422 -3.440357 5.852721
v -7.979616 -3.440357 5.852719
v -10.406422 -0.279533 5.852721
v -7.979616 -0.279533 5.852719
v -10.406422 -0.279533 6.010039
v -7.979616 -0.279533 6.010037
v -10.406422 -0.091162 5.852721
v -7.979616 -0.091162 5.852719
v -10.406422 -0.175141 6.099299
v -7.979616 -0.175141 6.099297
v -10.406422 -0.091162 6.099299
v -7.979616 -0.091162 6.099297
v -10.406422 -6.789552 5.852721
v -7.979616 -6.789552 5.852719
v -10.406422 -3.628727 5.852721
v -7.979616 -3.628727 5.852719
v -10.406422 -3.628727 6.010039
v -7.979616 -3.628727 6.010037
v -10.406422 -3.524335 6.099299
v -7.979616 -3.524335 6.099297
v -10.406422 -3.440357 6.110367
v -7.979616 -3.440357 6.110365
v -10.406422 -6.010475 5.852721
v -7.979616 -6.010475 5.852719
v -8.695051 -6.010475 5.852720
v -8.695051 -4.193031 5.852720
v -9.690982 -4.193031 5.852720
v -9.690982 -6.010475 5.852720
v -9.690982 -6.789552 5.852720
v -8.695051 -6.789552 5.852720
v -8.695051 -6.010475 5.688315
v -8.695051 -4.193031 5.688315
v -9.690982 -4.193031 5.688316
v -9.690982 -6.010475 5.688316
v -8.657234 -0.888022 5.852720
v -9.728803 -0.888022 5.852720
v -8.657234 -2.640728 5.852720
v -9.728803 -2.640728 5.852720
v -8.657234 -2.640728 5.688314
v -9.728799 -2.640728 5.688314
v -8.657234 -0.888022 5.688314
v -9.728799 -0.888022 5.688314
v -12.117791 -6.010475 5.852720
v -12.117791 -4.193031 5.852720
v -11.121858 -4.193031 5.852721
v -11.121858 -6.010475 5.852721
v -11.121858 -6.789552 5.852721
v -12.117791 -6.789552 5.852720
v -12.117791 -6.010475 5.688316
v -12.117791 -4.193031 5.688316
v -11.121858 -4.193031 5.688316
v -11.121858 -6.010475 5.688316
v -12.155609 -0.888022 5.852720
v -11.084040 -0.888022 5.852721
v -12.155609 -2.640728 5.852720
v -11.084040 -2.640728 5.852721
v -12.155609 -0.888022 5.688316
v -11.084040 -0.888022 5.688316
v -12.155609 -2.640728 5.688316
v -11.084040 -2.640728 5.688316
v -15.260036 -3.440357 5.852723
v -12.833231 -3.440357 5.852721
v -15.260036 -0.279533 5.852723
v -12.833231 -0.279533 5.852721
v -15.260036 -0.279533 6.010041
v -12.833231 -0.279533 6.010039
v -15.260036 -0.091162 5.852723
v -12.833231 -0.091162 5.852721
v -15.260036 -0.175141 6.099300
v -12.833231 -0.175141 6.099299
v -15.260036 -0.091162 6.099300
v -12.833231 -0.091162 6.099299
v -15.260036 -6.789552 5.852723
v -12.833231 -6.789552 5.852721
v -15.260036 -3.628727 5.852723
v -12.833231 -3.628727 5.852721
v -15.260036 -3.628727 6.010041
v -12.833231 -3.628727 6.010039
v -15.260036 -3.524335 6.099300
v -12.833231 -3.524335 6.099299
v -15.260036 -3.440357 6.110369
v -12.833231 -3.440357 6.110367
v -15.260036 -6.010475 5.852723
v -12.833231 -6.010475 5.852721
v -13.548667 -6.010475 5.852721
v -13.548667 -4.193031 5.852721
v -14.544597 -4.193031 5.852722
v -14.544597 -6.010475 5.852722
v -14.544597 -6.789552 5.852722
v -13.548667 -6.789552 5.852721
v -13.548667 -6.010475 5.688316
v -13.548667 -4.193031 5.688316
v -14.544597 -4.193031 5.688317
v -14.544597 -6.010475 5.688317
v -13.510850 -0.888022 5.852721
v -14.582415 -0.888022 5.852722
v -13.510850 -2.640728 5.852721
v -14.582415 -2.640728 5.852722
v -13.510850 -2.640728 5.688316
v -14.582415 -2.640728 5.688316
v -13.510850 -0.888022 5.688316
v -14.582415 -0.888022 5.688316
v -11.137444 2.418930 5.707448
v -12.061593 2.418930 5.707448
v -11.137444 0.622971 5.707448
v -12.061593 0.622971 5.707448
v -11.137444 2.418930 5.852716
v -12.061593 2.418930 5.852716
v -11.137444 0.622971 5.852716
v -12.061593 0.622971 5.852716
v -15.260036 -3.440357 5.770829
v -15.260036 -0.279533 5.770829
v -15.260036 -0.091162 5.770829
v -15.260036 -3.628727 5.770829
v -15.260036 -6.010475 5.770829
v -6.283836 2.418930 5.707444
v -7.207985 2.418930 5.707445
v -15.260036 -6.789553 5.752776
v -6.283836 0.622971 5.707444
v 4.154428 -0.279533 5.770816
v 4.154428 -0.091162 5.770816
v -7.207985 0.622971 5.707445
v -6.283836 2.418930 5.852712
v -3.331103 -6.010475 5.671517
v -3.331103 -4.193031 5.671517
v -5.347707 -4.193031 5.671518
v -5.347707 -6.010475 5.671518
v -5.347707 -6.789552 5.671518
v -3.331103 -6.789552 5.671517
v -7.207985 2.418930 5.852713
v -6.283836 0.622971 5.852712
v -7.207985 0.622971 5.852713
v -1.430220 2.418930 5.707445
v -2.354370 2.418930 5.707445
v -1.430220 0.622971 5.707445
v -2.354370 0.622971 5.707445
v -1.430220 2.418930 5.852713
v -2.354370 2.418930 5.852713
v -1.430220 0.622971 5.852713
v -2.354370 0.622971 5.852713
v 3.423387 2.418930 5.707442
v -15.255218 -0.279533 2.357671
v -15.255218 -6.789554 2.357671
v -15.255218 -3.628729 2.357671
v 2.499238 2.418930 5.707441
v 3.423387 0.622971 5.707442
v 2.499238 0.622971 5.707441
v 3.423387 2.418930 5.852710
v 2.499238 2.418930 5.852709
v 3.423387 0.622971 5.852710
v 2.499238 0.622971 5.852709
v 0.031824 2.418930 5.707450
v 0.955977 2.418930 5.707450
v 0.031824 0.622971 5.707450
v 0.955977 0.622971 5.707450
v 0.031824 2.418930 5.852719
v 0.955977 2.418930 5.852718
v 0.031824 0.622971 5.852719
v 0.955977 0.622971 5.852718
v -4.821780 2.418930 5.707450
v -3.897631 2.418930 5.707450
v -4.821780 0.622971 5.707450
v -3.897631 0.622971 5.707450
v -4.821780 2.418930 5.852718
v -3.897631 2.418930 5.852718
v -4.821780 0.622971 5.852718
v -3.897631 0.622971 5.852718
v -9.675395 2.418930 5.707454
v -8.751246 2.418930 5.707453
v -9.675395 0.622971 5.707454
v -8.751246 0.622971 5.707453
v -9.675395 2.418930 5.852722
v -8.751246 2.418930 5.852722
v -9.675395 0.622971 5.852722
v -8.751246 0.622971 5.852722
v -14.529003 2.418930 5.707454
v -13.604854 2.418930 5.707453
v -14.529003 0.622971 5.707454
v -13.604854 0.622971 5.707453
v -14.529003 2.418930 5.852722
v -13.604854 2.418930 5.852721
v -14.529003 0.622971 5.852722
v -13.604854 0.622971 5.852721
v -15.255218 3.069662 2.357671
v -15.260036 3.069662 5.770829
v -15.260036 3.069662 5.852723
v -12.833231 3.069662 5.852721
v -10.406422 3.069662 5.852721
v -7.979616 3.069662 5.852719
v -5.552806 3.069662 5.852720
v -3.126000 3.069662 5.852717
v -0.699194 3.069662 5.852718
v 1.727615 3.069662 5.852716
v 4.154421 3.069662 5.852715
v 4.154421 6.607227 6.099294
v 4.154421 6.523248 6.099294
v 4.154421 6.418857 6.010034
v 4.154421 6.418857 5.852715
v 1.727615 6.607227 6.099294
v -0.699194 6.607227 6.099296
v 1.727615 6.523248 6.099294
v -0.699194 6.523248 6.099296
v 1.727615 6.418857 6.010035
v -0.699194 6.418857 6.010036
v 1.727615 6.418857 5.852716
v -0.699194 6.418857 5.852718
v -3.126000 6.607227 6.099296
v -5.552806 6.607227 6.099298
v -3.126000 6.523248 6.099296
v -5.552806 6.523248 6.099298
v -3.126000 6.418857 6.010036
v -5.552806 6.418857 6.010037
v -3.126000 6.418857 5.852717
v -5.552806 6.418857 5.852720
v -7.979616 6.607227 6.099297
v -10.406422 6.607227 6.099299
v -7.979616 6.523248 6.099297
v -10.406422 6.523248 6.099299
v -7.979616 6.418857 6.010037
v -10.406422 6.418857 6.010039
v -7.979616 6.418857 5.852719
v -10.406422 6.418857 5.852721
v -12.833231 6.607227 6.099299
v -15.260036 6.607227 6.099300
v -12.833231 6.523248 6.099299
v -15.260036 6.523248 6.099300
v -15.260036 6.607227 5.852723
v -12.833231 6.418857 6.010039
v -15.260036 6.418857 6.010041
v -12.833231 6.418857 5.852721
v -15.260036 6.418857 5.852723
v -15.260036 6.607227 5.770829
v -15.260036 6.418857 5.770829
v -0.694371 9.301385 2.357671
v -3.121181 9.301385 2.357671
v -5.547987 9.301385 2.357671
v -7.974792 9.301385 2.357671
v -10.401602 9.301385 2.357671
v -12.828412 9.301385 2.357672
v -15.255218 9.301385 2.357671
v -15.255218 6.418857 2.357671
v -15.255218 9.080956 2.357671
v -13.604854 3.972165 5.852721
v -14.529003 3.972165 5.852722
v -13.604854 5.768124 5.852721
v -14.529003 5.768124 5.852722
v -13.604854 3.972165 5.707453
v -14.529003 3.972165 5.707454
v -13.604854 5.768124 5.707453
v -14.529003 5.768124 5.707454
v -8.751246 3.972165 5.852722
v -9.675395 3.972165 5.852722
v -8.751246 5.768124 5.852722
v -9.675395 5.768124 5.852722
v -8.751246 3.972165 5.707453
v -9.675395 3.972165 5.707454
v -8.751246 5.768124 5.707453
v -9.675395 5.768124 5.707454
v -3.897631 3.972165 5.852718
v -4.821780 3.972165 5.852718
v -3.897631 5.768124 5.852718
v -4.821780 5.768124 5.852718
v -3.897631 3.972165 5.707450
v -4.821780 3.972165 5.707450
v -3.897631 5.768124 5.707450
v -4.821780 5.768124 5.707450
v 0.955977 3.972165 5.852718
v 0.031824 3.972165 5.852719
v 0.955977 5.768124 5.852718
v 0.031824 5.768124 5.852719
v 0.955977 3.972165 5.707450
v 0.031824 3.972165 5.707450
v 0.955977 5.768124 5.707450
v 0.031824 5.768124 5.707450
v 2.499238 3.972165 5.852709
v 3.423387 3.972165 5.852710
v 2.499238 5.768124 5.852709
v 3.423387 5.768124 5.852710
v 2.499238 3.972165 5.707441
v 3.423387 3.972165 5.707442
v 2.499238 5.768124 5.707441
v 3.423387 5.768124 5.707442
v -2.354370 3.972165 5.852713
v -1.430220 3.972165 5.852713
v -2.354370 5.768124 5.852713
v -1.430220 5.768124 5.852713
v -2.354370 3.972165 5.707445
v -1.430220 3.972165 5.707445
v -2.354370 5.768124 5.707445
v -1.430220 5.768124 5.707445
v -7.207985 3.972165 5.852713
v -6.283836 3.972165 5.852712
v -7.207985 5.768124 5.852713
v -6.283836 5.768124 5.852712
v -7.207985 3.972165 5.707445
v -6.283836 3.972165 5.707444
v -7.207985 5.768124 5.707445
v -6.283836 5.768124 5.707444
v -12.061593 3.972165 5.852716
v -11.137444 3.972165 5.852716
v -12.061593 5.768124 5.852716
v -11.137444 5.768124 5.852716
v -12.061593 3.972165 5.707448
v -11.137444 3.972165 5.707448
v -12.061593 5.768124 5.707448
v -11.137444 5.768124 5.707448
v 4.154421 3.069661 6.010034
v 4.154421 3.258033 5.852715
v 4.154421 3.174054 6.099294
v 4.154421 3.258033 6.099294
v -0.699194 3.069661 6.010036
v 1.727615 3.069661 6.010035
v -0.699194 3.258033 5.852718
v 1.727615 3.258033 5.852716
v -0.699194 3.174054 6.099296
v 1.727615 3.174054 6.099294
v -0.699194 3.258033 6.099296
v 1.727615 3.258033 6.099294
v -5.552806 3.069661 6.010037
v -3.126000 3.069661 6.010036
v -5.552806 3.258033 5.852720
v -3.126000 3.258033 5.852717
v -5.552806 3.174054 6.099298
v -3.126000 3.174054 6.099296
v -5.552806 3.258033 6.099298
v -3.126000 3.258033 6.099296
v -10.406422 3.069661 6.010039
v -7.979616 3.069661 6.010037
v -10.406422 3.258033 5.852721
v -7.979616 3.258033 5.852719
v -10.406422 3.174054 6.099299
v -7.979616 3.174054 6.099297
v -10.406422 3.258033 6.099299
v -7.979616 3.258033 6.099297
v -15.260036 3.069661 6.010041
v -12.833231 3.069661 6.010039
v -15.260036 3.258033 5.852723
v -12.833231 3.258033 5.852721
v -15.260036 3.174054 6.099300
v -12.833231 3.174054 6.099299
v -15.260036 3.258033 6.099300
v -12.833231 3.258033 6.099299
v -15.260036 3.258033 5.770829
v -4.339403 -4.193031 5.671518
v -4.339403 -6.789552 5.671518
v 4.671333 3.972166 5.335809
v 5.324807 3.972166 4.682336
v 5.870437 6.418858 4.136704
v 5.870437 3.069662 4.136704
v 5.324807 0.622971 4.682336
v 4.671333 0.622971 5.335809
v 5.324807 2.418930 4.682336
v 4.671333 2.418930 5.335809
v 5.222085 0.622971 4.579616
v 4.568616 0.622971 5.233088
v 5.222085 2.418930 4.579616
v 4.568616 2.418930 5.233088
v 4.517323 -0.888022 5.257313
v 5.275033 -0.888022 4.499600
v 4.517323 -2.640728 5.257313
v 5.275033 -2.640728 4.499600
v 4.633574 -2.640728 5.373566
v 5.391288 -2.640728 4.615853
v 4.633574 -0.888022 5.373566
v 5.391288 -0.888022 4.615853
v 4.544065 -6.010476 5.230573
v 4.544065 -4.193032 5.230573
v 5.248294 -4.193032 4.526342
v 5.248294 -6.010476 4.526342
v 5.364545 -6.789553 4.642594
v 4.660316 -6.789553 5.346825
v 4.660316 -6.010476 5.346825
v 4.660316 -4.193032 5.346825
v 5.364545 -4.193032 4.642594
v 5.364545 -6.010476 4.642594
v 5.870437 -6.010476 4.136704
v 5.870437 -3.628728 4.136704
v 5.870437 -6.789553 4.136704
v 5.870437 -0.091162 4.136704
v 5.870437 -0.279533 4.136704
v 5.870437 -3.440357 4.136704
v 5.324807 5.768125 4.682336
v 4.671333 5.768125 5.335809
v 5.222085 3.972166 4.579616
v 4.568616 3.972166 5.233088
v 5.222085 5.768125 4.579616
v 4.568616 5.768125 5.233088
v 5.870437 3.258033 4.136704
v 6.027757 -0.279532 4.136705
v 6.117014 -0.175141 4.136705
v 6.117014 -0.091162 4.136705
v 6.027757 -3.628727 4.136705
v 6.117014 -3.524335 4.136705
v 6.128085 -3.440356 4.136705
v 5.870436 -6.010475 2.425338
v 5.870436 -4.193031 2.425338
v 5.870436 -4.193031 3.421268
v 5.870436 -6.010475 3.421268
v 5.870436 -6.789552 3.421268
v 5.870436 -6.789552 2.425338
v 5.706031 -6.010475 2.425338
v 5.706031 -4.193031 2.425338
v 5.706031 -4.193031 3.421268
v 5.706031 -6.010475 3.421268
v 5.870436 -0.888021 2.387519
v 5.870436 -0.888021 3.459085
v 5.870436 -2.640727 2.387519
v 5.870436 -2.640727 3.459085
v 5.706031 -0.888021 2.387519
v 5.706031 -0.888021 3.459085
v 5.706031 -2.640727 2.387519
v 5.706031 -2.640727 3.459085
v 5.870435 -3.440356 -0.716907
v 5.870436 -3.440356 1.709898
v 5.870435 -0.279532 -0.716907
v 5.870436 -0.279532 1.709898
v 6.027755 -0.279532 -0.716907
v 6.027756 -0.279532 1.709898
v 5.870435 -0.091162 -0.716907
v 5.870436 -0.091162 1.709898
v 6.117013 -0.175141 -0.716907
v 6.117013 -0.175141 1.709898
v 6.117013 -0.091162 -0.716907
v 6.117013 -0.091162 1.709898
v 5.870435 -6.789552 -0.716907
v 5.870436 -6.789552 1.709898
v 5.870435 -3.628727 -0.716907
v 5.870436 -3.628727 1.709898
v 6.027755 -3.628727 -0.716907
v 6.027756 -3.628727 1.709898
v 6.117013 -3.524335 -0.716907
v 6.117013 -3.524335 1.709898
v 6.128084 -3.440356 -0.716908
v 6.128080 -3.440356 1.709898
v 5.870435 -6.010475 -0.716907
v 5.870436 -6.010475 1.709898
v 5.870436 -6.010475 0.994462
v 5.870436 -4.193031 0.994462
v 5.870435 -4.193031 -0.001471
v 5.870435 -6.010475 -0.001471
v 5.870435 -6.789552 -0.001471
v 5.870436 -6.789552 0.994462
v 5.706030 -6.010475 0.994462
v 5.706030 -4.193031 0.994462
v 5.706030 -4.193031 -0.001471
v 5.706030 -6.010475 -0.001471
v 5.870436 -0.888021 1.032279
v 5.870435 -0.888021 -0.039288
v 5.870436 -2.640727 1.032279
v 5.870435 -2.640727 -0.039288
v 5.706030 -2.640727 1.032279
v 5.706030 -2.640727 -0.039288
v 5.706030 -0.888021 1.032279
v 5.706030 -0.888021 -0.039288
v 5.870434 -6.010475 -2.428277
v 5.870434 -4.193031 -2.428277
v 5.870435 -4.193031 -1.432346
v 5.870435 -6.010475 -1.432346
v 5.870435 -6.789552 -1.432347
v 5.870434 -6.789552 -2.428277
v 5.706029 -6.010475 -2.428277
v 5.706029 -4.193031 -2.428277
v 5.706029 -4.193031 -1.432346
v 5.706029 -6.010475 -1.432346
v 5.870434 -0.888021 -2.466094
v 5.870435 -0.888021 -1.394528
v 5.870434 -2.640727 -2.466094
v 5.870435 -2.640727 -1.394528
v 5.706029 -0.888021 -2.466094
v 5.706029 -0.888021 -1.394527
v 5.706029 -2.640727 -2.466094
v 5.706029 -2.640727 -1.394527
v 5.870433 -3.440356 -5.570522
v 5.870434 -3.440356 -3.143716
v 5.870433 -0.279532 -5.570522
v 5.870434 -0.279532 -3.143716
v 6.027753 -0.279532 -5.570522
v 6.027754 -0.279532 -3.143716
v 5.870433 -0.091162 -5.570522
v 5.870434 -0.091162 -3.143714
v 6.117011 -0.175141 -5.570522
v 6.117012 -0.175141 -3.143716
v 6.117011 -0.091162 -5.570522
v 6.117012 -0.091162 -3.143714
v 5.870433 -6.789552 -5.570522
v 5.870434 -6.789552 -3.143716
v 5.870433 -3.628727 -5.570522
v 5.870434 -3.628727 -3.143716
v 6.027753 -3.628727 -5.570522
v 6.027754 -3.628727 -3.143716
v 6.117011 -3.524335 -5.570522
v 6.117012 -3.524335 -3.143716
v 6.128082 -3.440356 -5.570522
v 6.128079 -3.440356 -3.143714
v 5.870433 -6.010475 -5.570522
v 5.870434 -6.010475 -3.143716
v 5.870434 -6.010475 -3.348815
v 5.870434 -4.193030 -3.348815
v 5.870433 -4.193030 -5.365421
v 5.870433 -6.010475 -5.365421
v 5.870433 -6.789552 -5.365421
v 5.870434 -6.789552 -3.348815
v 5.870434 -0.888021 -3.821335
v 5.870434 -0.888021 -4.892900
v 5.870434 -2.640727 -3.821335
v 5.870434 -2.640727 -4.892900
v 5.706028 -2.640727 -3.821335
v 5.706028 -2.640727 -4.892900
v 5.706028 -0.888021 -3.821335
v 5.706028 -0.888021 -4.892900
v 5.870433 -6.010475 -7.281891
v 5.870433 -4.193031 -7.281891
v 5.870433 -4.193031 -6.285958
v 5.870433 -6.010475 -6.285958
v 5.870433 -6.789552 -6.285961
v 5.870433 -6.789552 -7.281891
v 5.706028 -6.010475 -7.281891
v 5.706028 -4.193031 -7.281891
v 5.706028 -4.193031 -6.285958
v 5.706028 -6.010475 -6.285958
v 5.870433 -0.888021 -7.319708
v 5.870433 -0.888021 -6.248141
v 5.870433 -2.640727 -7.319708
v 5.870433 -2.640727 -6.248141
v 5.706028 -0.888021 -7.319708
v 5.706028 -0.888021 -6.248141
v 5.706028 -2.640727 -7.319708
v 5.706028 -2.640727 -6.248141
v 5.870432 -3.440356 -10.424134
v 5.870433 -3.440356 -7.997330
v 5.870432 -0.279532 -10.424134
v 5.870433 -0.279532 -7.997330
v 6.027752 -0.279532 -10.424134
v 6.027749 -0.279532 -7.997328
v 5.870432 -0.091162 -10.424134
v 5.870433 -0.091162 -7.997330
v 6.117009 -0.175141 -10.424134
v 6.117010 -0.175141 -7.997330
v 6.117009 -0.091162 -10.424134
v 6.117010 -0.091162 -7.997330
v 5.870432 -6.789552 -10.424134
v 5.870433 -6.789552 -7.997330
v 5.870432 -3.628727 -10.424134
v 5.870433 -3.628727 -7.997330
v 6.027752 -3.628727 -10.424134
v 6.027749 -3.628727 -7.997328
v 6.117009 -3.524335 -10.424134
v 6.117010 -3.524335 -7.997330
v 6.128077 -3.440356 -10.424134
v 6.128078 -3.440356 -7.997330
v 5.870432 -6.010475 -10.424134
v 5.870433 -6.010475 -7.997330
v 5.870432 -6.010475 -8.712765
v 5.870432 -4.193031 -8.712765
v 5.870432 -4.193031 -9.708695
v 5.870432 -6.010475 -9.708695
v 5.870432 -6.789552 -9.708695
v 5.870432 -6.789552 -8.712765
v 5.706027 -6.010475 -8.712765
v 5.706027 -4.193031 -8.712765
v 5.706027 -4.193031 -9.708695
v 5.706027 -6.010475 -9.708695
v 5.870432 -0.888021 -8.674948
v 5.870432 -0.888021 -9.746515
v 5.870432 -2.640727 -8.674948
v 5.870432 -2.640727 -9.746515
v 5.706027 -2.640727 -8.674946
v 5.706027 -2.640727 -9.746512
v 5.706027 -0.888021 -8.674946
v 5.706027 -0.888021 -9.746512
v 5.870431 -6.010475 -12.135506
v 5.870431 -4.193031 -12.135506
v 5.870431 -4.193031 -11.139571
v 5.870431 -6.010475 -11.139571
v 5.870431 -6.789552 -11.139571
v 5.870431 -6.789552 -12.135506
v 5.706026 -6.010475 -12.135506
v 5.706026 -4.193031 -12.135506
v 5.706026 -4.193031 -11.139571
v 5.706026 -6.010475 -11.139571
v 5.870431 -0.888021 -12.173323
v 5.870431 -0.888021 -11.101753
v 5.870431 -2.640727 -12.173323
v 5.870431 -2.640727 -11.101753
v 5.706026 -0.888021 -12.173323
v 5.706026 -0.888021 -11.101753
v 5.706026 -2.640727 -12.173323
v 5.706026 -2.640727 -11.101753
v 5.870430 -3.440356 -15.277754
v 5.870431 -3.440356 -12.850946
v 5.870430 -0.279532 -15.277754
v 5.870431 -0.279532 -12.850946
v 6.027750 -0.279532 -15.277754
v 6.027747 -0.279532 -12.850946
v 5.870430 -0.091162 -15.277754
v 5.870431 -0.091162 -12.850946
v 6.117008 -0.175141 -15.277754
v 6.117008 -0.175141 -12.850946
v 6.117008 -0.091162 -15.277750
v 6.117008 -0.091162 -12.850946
v 5.870430 -6.789552 -15.277754
v 5.870430 -3.628727 -15.277754
v 5.870431 -3.628727 -12.850946
v 6.027750 -3.628727 -15.277754
v 6.027747 -3.628727 -12.850946
v 6.117008 -3.524335 -15.277754
v 6.117008 -3.524335 -12.850946
v 6.128075 -3.440356 -15.277754
v 6.128076 -3.440356 -12.850946
v 5.870430 -6.010475 -15.277754
v 5.870431 -6.010475 -12.850946
v 5.870431 -6.010475 -13.566383
v 5.870431 -4.193031 -13.566383
v 5.870430 -4.193031 -14.562313
v 5.870430 -6.010475 -14.562313
v 5.870430 -6.789552 -14.562313
v 5.870431 -6.789552 -13.566383
v 5.706026 -6.010475 -13.566383
v 5.706026 -4.193031 -13.566383
v 5.706025 -4.193031 -14.562313
v 5.706025 -6.010475 -14.562313
v 5.870431 -0.888021 -13.528565
v 5.870430 -0.888021 -14.600131
v 5.870431 -2.640727 -13.528565
v 5.870430 -2.640727 -14.600131
v 5.706026 -2.640727 -13.528565
v 5.706025 -2.640727 -14.600131
v 5.706026 -0.888021 -13.528565
v 5.706025 -0.888021 -14.600131
v 5.725157 2.418930 -11.155155
v 5.725157 2.418930 -12.079306
v 5.725157 0.622971 -11.155155
v 5.725157 0.622971 -12.079306
v 5.870428 2.418930 -11.155155
v 5.870428 2.418930 -12.079306
v 5.870428 0.622971 -11.155155
v 5.870428 0.622971 -12.079306
v 5.788537 -3.440356 -15.277754
v 5.788537 -0.279532 -15.277754
v 5.788537 -0.091162 -15.277754
v 5.788537 -3.628727 -15.277754
v 5.788537 -6.010475 -15.277754
v 5.725159 2.418930 -6.301551
v 5.725159 2.418930 -7.225702
v 5.770485 -6.789552 -15.277754
v 5.725159 0.622971 -6.301551
v 5.788536 -0.279532 4.136712
v 5.788536 -0.091162 4.136712
v 5.725159 0.622971 -7.225702
v 5.870426 2.418930 -6.301551
v 5.689233 -6.010475 -3.348815
v 5.689233 -4.193030 -3.348815
v 5.689232 -4.193030 -5.365421
v 5.689232 -6.010475 -5.365421
v 5.689232 -6.789552 -5.365421
v 5.689233 -6.789552 -3.348815
v 5.870425 2.418930 -7.225702
v 5.870426 0.622971 -6.301551
v 5.870425 0.622971 -7.225702
v 5.725161 2.418930 -1.447935
v 5.725160 2.418930 -2.372084
v 5.725161 0.622971 -1.447935
v 5.725160 0.622971 -2.372084
v 5.870431 2.418930 -1.447935
v 5.870430 2.418930 -2.372084
v 5.870431 0.622971 -1.447935
v 5.870430 0.622971 -2.372084
v 5.725162 2.418930 3.405670
v 2.375380 -0.279533 -15.272931
v 2.375380 -6.789553 -15.272931
v 2.375380 -3.628728 -15.272931
v 5.725162 2.418930 2.481522
v 5.725162 0.622971 3.405670
v 5.725162 0.622971 2.481522
v 5.870429 2.418930 3.405670
v 5.870429 2.418930 2.481522
v 5.870429 0.622971 3.405670
v 5.870429 0.622971 2.481522
v 5.725169 2.418930 0.014110
v 5.725169 2.418930 0.938259
v 5.725169 0.622971 0.014110
v 5.725169 0.622971 0.938259
v 5.870435 2.418930 0.014110
v 5.870436 2.418930 0.938259
v 5.870435 0.622971 0.014110
v 5.870436 0.622971 0.938259
v 5.725167 2.418930 -4.839496
v 5.725163 2.418930 -3.915346
v 5.725167 0.622971 -4.839496
v 5.725163 0.622971 -3.915346
v 5.870434 2.418930 -4.839496
v 5.870434 2.418930 -3.915346
v 5.870434 0.622971 -4.839496
v 5.870434 0.622971 -3.915346
v 5.725165 2.418930 -9.693110
v 5.725166 2.418930 -8.768960
v 5.725165 0.622971 -9.693110
v 5.725166 0.622971 -8.768960
v 5.870432 2.418930 -9.693110
v 5.870432 2.418930 -8.768960
v 5.870432 0.622971 -9.693110
v 5.870432 0.622971 -8.768960
v 5.725160 2.418930 -14.546719
v 5.725161 2.418930 -13.622570
v 5.725160 0.622971 -14.546719
v 5.725161 0.622971 -13.622570
v 5.870430 2.418930 -14.546719
v 5.870431 2.418930 -13.622570
v 5.870430 0.622971 -14.546719
v 5.870431 0.622971 -13.622570
v 2.375380 3.069662 -15.272931
v 5.788537 3.069662 -15.277754
v 5.870430 3.069662 -15.277754
v 5.870431 3.069662 -12.850946
v 5.870432 3.069662 -10.424134
v 5.870433 3.069662 -7.997330
v 5.870433 3.069662 -5.570522
v 5.870434 3.069662 -3.143716
v 5.870435 3.069662 -0.716907
v 5.870436 3.069662 1.709898
v 6.117014 6.607227 4.136705
v 6.117014 6.523248 4.136705
v 6.027757 6.418857 4.136705
v 6.117013 6.607227 1.709898
v 6.117013 6.607227 -0.716907
v 6.117013 6.523248 1.709898
v 6.117013 6.523248 -0.716907
v 6.027756 6.418857 1.709898
v 6.027755 6.418857 -0.716907
v 5.870436 6.418857 1.709898
v 5.870435 6.418857 -0.716907
v 6.117012 6.607227 -3.143714
v 6.117011 6.607227 -5.570522
v 6.117012 6.523248 -3.143716
v 6.117011 6.523248 -5.570522
v 6.027754 6.418857 -3.143716
v 6.027753 6.418857 -5.570522
v 5.870434 6.418857 -3.143716
v 5.870433 6.418857 -5.570522
v 6.117010 6.607227 -7.997330
v 6.117009 6.607227 -10.424134
v 6.117010 6.523248 -7.997330
v 6.117009 6.523248 -10.424134
v 6.027749 6.418857 -7.997328
v 6.027752 6.418857 -10.424134
v 5.870433 6.418857 -7.997330
v 5.870432 6.418857 -10.424134
v 6.117008 6.607227 -12.850946
v 6.117008 6.607227 -15.277750
v 6.117008 6.523248 -12.850946
v 6.117008 6.523248 -15.277754
v 5.870430 6.607227 -15.277754
v 6.027747 6.418857 -12.850946
v 6.027750 6.418857 -15.277754
v 5.870431 6.418857 -12.850946
v 5.870430 6.418857 -15.277754
v 5.788537 6.607227 -15.277754
v 5.788537 6.418857 -15.277754
v 2.375389 9.301386 -0.712083
v 2.375388 9.301386 -3.138892
v 2.375387 9.301386 -5.565698
v 2.375382 9.301386 -7.992506
v 2.375382 9.301386 -10.419312
v 2.375381 9.301386 -12.846127
v 2.375380 9.301386 -15.272931
v 2.375380 6.418857 -15.272931
v 2.375380 9.080957 -15.272931
v 5.870431 3.972166 -13.622570
v 5.870430 3.972166 -14.546719
v 5.870431 5.768125 -13.622570
v 5.870430 5.768125 -14.546719
v 5.725161 3.972166 -13.622570
v 5.725160 3.972166 -14.546719
v 5.725161 5.768125 -13.622570
v 5.725160 5.768125 -14.546719
v 5.870432 3.972166 -8.768960
v 5.870432 3.972166 -9.693110
v 5.870432 5.768125 -8.768960
v 5.870432 5.768125 -9.693110
v 5.725166 3.972166 -8.768960
v 5.725165 3.972166 -9.693110
v 5.725166 5.768125 -8.768960
v 5.725165 5.768125 -9.693110
v 5.870434 3.972166 -3.915346
v 5.870434 3.972166 -4.839496
v 5.870434 5.768125 -3.915346
v 5.870434 5.768125 -4.839496
v 5.725163 3.972166 -3.915346
v 5.725167 3.972166 -4.839496
v 5.725163 5.768125 -3.915346
v 5.725167 5.768125 -4.839496
v 5.870436 3.972166 0.938259
v 5.870435 3.972166 0.014110
v 5.870436 5.768125 0.938259
v 5.870435 5.768125 0.014110
v 5.725169 3.972166 0.938259
v 5.725169 3.972166 0.014110
v 5.725169 5.768125 0.938259
v 5.725169 5.768125 0.014110
v 5.870429 3.972166 2.481522
v 5.870429 3.972166 3.405670
v 5.870429 5.768125 2.481522
v 5.870429 5.768125 3.405670
v 5.725162 3.972166 2.481522
v 5.725162 3.972166 3.405670
v 5.725162 5.768125 2.481522
v 5.725162 5.768125 3.405670
v 5.870430 3.972166 -2.372084
v 5.870431 3.972166 -1.447935
v 5.870430 5.768125 -2.372084
v 5.870431 5.768125 -1.447935
v 5.725160 3.972166 -2.372084
v 5.725161 3.972166 -1.447935
v 5.725160 5.768125 -2.372084
v 5.725161 5.768125 -1.447935
v 5.870425 3.972166 -7.225702
v 5.870426 3.972166 -6.301551
v 5.870425 5.768125 -7.225702
v 5.870426 5.768125 -6.301551
v 5.725159 3.972166 -7.225702
v 5.725159 3.972166 -6.301551
v 5.725159 5.768125 -7.225702
v 5.725159 5.768125 -6.301551
v 5.870428 3.972166 -12.079306
v 5.870428 3.972166 -11.155155
v 5.870428 5.768125 -12.079306
v 5.870428 5.768125 -11.155155
v 5.725157 3.972166 -12.079306
v 5.725157 3.972166 -11.155155
v 5.725157 5.768125 -12.079306
v 5.725157 5.768125 -11.155155
v 6.027757 3.069662 4.136705
v 6.117014 3.174054 4.136705
v 6.117014 3.258033 4.136705
v 6.027755 3.069662 -0.716907
v 6.027756 3.069662 1.709898
v 5.870435 3.258033 -0.716907
v 5.870436 3.258033 1.709898
v 6.117013 3.174054 -0.716907
v 6.117013 3.174054 1.709898
v 6.117013 3.258033 -0.716907
v 6.117013 3.258033 1.709898
v 6.027753 3.069662 -5.570522
v 6.027754 3.069662 -3.143716
v 5.870433 3.258033 -5.570522
v 5.870434 3.258033 -3.143714
v 6.117011 3.174054 -5.570522
v 6.117012 3.174054 -3.143716
v 6.117011 3.258033 -5.570522
v 6.117012 3.258033 -3.143714
v 6.027752 3.069662 -10.424134
v 6.027749 3.069662 -7.997328
v 5.870432 3.258033 -10.424134
v 5.870433 3.258033 -7.997330
v 6.117009 3.174054 -10.424134
v 6.117010 3.174054 -7.997330
v 6.117009 3.258033 -10.424134
v 6.117010 3.258033 -7.997330
v 6.027750 3.069662 -15.277754
v 6.027747 3.069662 -12.850946
v 5.870430 3.258033 -15.277754
v 5.870431 3.258033 -12.850946
v 6.117008 3.174054 -15.277754
v 6.117008 3.174054 -12.850946
v 6.117008 3.258033 -15.277750
v 6.117008 3.258033 -12.850946
v 5.788537 3.258033 -15.277754
v 5.689232 -4.193030 -4.357118
v 5.689232 -6.789552 -4.357118
v 2.375396 6.418858 -12.846123
v 2.375392 -0.279533 -12.846114
v 2.375392 -3.628727 -12.846114
v 2.375393 -0.279533 -10.419309
v 2.375393 -3.628727 -10.419309
v 2.375398 -0.279533 -7.992498
v 2.375398 -3.628727 -7.992498
v 2.375402 -0.279533 -5.565686
v 2.375402 -3.628727 -5.565686
v 2.375403 -0.279533 -3.138880
v 2.375403 -3.628727 -3.138880
v 2.375408 -0.279533 -0.712074
v 2.375408 -3.628727 -0.712074
v 2.375392 -6.789551 -12.846114
v 2.375393 -6.789551 -10.419309
v 2.375398 -6.789551 -7.992498
v 2.375402 -6.789551 -5.565686
v 2.375403 -6.789551 -3.138880
v 2.375408 -6.789551 -0.712074
v 2.375392 3.069662 -12.846114
v 2.375393 3.069662 -10.419309
v 2.375398 3.069662 -7.992498
v 2.375402 3.069662 -5.565686
v 2.375403 3.069662 -3.138880
v 2.375408 3.069662 -0.712074
vn -1.0000 -0.0000 -0.0000
vn -0.0000 -0.0000 -1.0000
vn -0.0000 0.8115 0.5843
vn 0.5843 0.8115 -0.0000
vn 0.4016 0.8230 0.4016
vn -0.0000 -1.0000 -0.0000
vn -0.0000 -0.6499 0.7600
vn -0.0000 -0.0000 1.0000
vn -0.0000 1.0000 -0.0000
vn 1.0000 -0.0000 -0.0000
vn -0.0000 -0.1307 0.9914
vn -1.0000 -0.0000 -0.0014
vn -1.0000 0.0010 -0.0007
vn 0.7071 -0.0000 0.7071
vn 0.6051 -0.5174 0.6051
vn -0.7071 -0.0000 0.7071
vn 0.7071 -0.0000 -0.7071
vn 0.7041 -0.0928 0.7041
vn 0.7601 -0.6499 -0.0000
vn 0.9914 -0.1307 -0.0000
vn 0.7600 -0.6499 -0.0000
vn -0.0014 -0.0000 -1.0000
vn -0.0006 0.0010 -1.0000
vt 0.274449 0.733913
vt 0.096739 0.733914
vt 0.096739 0.964603
vt 0.274449 0.964603
vt 0.273547 0.733913
vt 0.048753 0.733914
vt 0.048753 0.964603
vt 0.273547 0.964603
vt 0.273547 0.733914
vt 0.273547 0.964603
vt 0.273547 0.733913
vt 0.273547 0.964603
vt 0.301231 0.647051
vt 0.550207 0.647051
vt 0.550207 0.995247
vt 0.353687 0.995247
vt 0.471506 0.639280
vt 0.553089 0.995218
vt 0.350805 0.995218
vt 0.438229 0.647911
vt 0.353687 0.647051
vt 0.602663 0.647051
vt 0.223585 0.259319
vt 0.223585 0.316881
vt 0.459598 0.316881
vt 0.459598 0.259319
vt 0.223585 0.349541
vt 0.459598 0.349541
vt 0.459598 0.340441
vt 0.223585 0.340441
vt 0.223585 0.348647
vt 0.459598 0.348647
vt 0.594535 0.538416
vt 0.761992 0.538416
vt 0.761992 0.549003
vt 0.594535 0.549003
vt 0.394490 0.270789
vt 0.394490 0.099541
vt 0.394490 0.099541
vt 0.394490 0.270789
vt 0.899860 0.801300
vt 0.991755 0.801300
vt 0.991755 0.643633
vt 0.899860 0.643633
vt 0.293487 0.097533
vt 0.293487 0.275106
vt 0.390795 0.275106
vt 0.223585 0.330242
vt 0.459598 0.330242
vt 0.390795 0.097533
vt 0.459598 0.097533
vt 0.223585 0.097533
vt 0.985995 0.643361
vt 0.904888 0.643361
vt 0.904888 0.801347
vt 0.985995 0.801347
vt 0.904500 0.801347
vt 0.985607 0.801347
vt 0.985608 0.643361
vt 0.904500 0.643361
vt 0.993838 0.980168
vt 0.993838 0.815012
vt 0.903335 0.815012
vt 0.903335 0.980168
vt 0.390795 0.275106
vt 0.390795 0.097533
vt 0.995686 0.801300
vt 0.895928 0.801300
vt 0.289792 0.270789
vt 0.289792 0.099541
vt 0.459598 0.021413
vt 0.223585 0.021413
vt 0.289792 0.099541
vt 0.289792 0.270789
vt 0.964333 0.801356
vt 0.964333 0.643310
vt 0.931925 0.643310
vt 0.931925 0.801356
vt 0.209654 0.079231
vt 0.257126 0.079231
vt 0.257126 0.052698
vt 0.233390 0.052698
vt 0.209654 0.052698
vt 0.440658 0.275106
vt 0.243625 0.275106
vt 0.440658 0.097533
vt 0.243625 0.097533
vt 0.962744 0.801347
vt 0.962744 0.643361
vt 0.927752 0.643361
vt 0.927752 0.801347
vt 0.000000 0.000000
vt 0.274449 0.746888
vt 0.024511 0.964603
vt 0.024511 0.733913
vt 0.274449 0.977578
vt 0.274449 0.800550
vt 0.024511 0.746888
vt 0.744629 0.652431
vt 0.744629 0.949137
vt 0.866474 0.949137
vt 0.866474 0.741457
vt 0.745107 0.652485
vt 0.865969 0.652485
vt 0.865969 0.741510
vt 0.459528 0.097631
vt 0.459528 0.275280
vt 0.440779 0.275280
vt 0.440779 0.097631
vt 0.223613 0.275280
vt 0.223613 0.097631
vt 0.243598 0.097631
vt 0.243598 0.275280
vt 0.371643 0.328962
vt 0.412083 0.341592
vt 0.417098 0.351751
vt 0.300369 0.351751
vt 0.300369 0.328962
vt 0.300369 0.328953
vt 0.371643 0.328953
vt 0.412083 0.341582
vt 0.412083 0.351742
vt 0.300369 0.351742
vt 0.161680 0.575527
vt 0.161680 0.575527
vt 0.072218 0.575527
vt 0.072218 0.407284
vt 0.161680 0.407284
vt 0.161680 0.407284
vt 0.001451 0.340384
vt 0.001451 0.636487
vt 0.236375 0.636487
vt 0.236375 0.340384
vt 0.223585 0.337853
vt 0.223585 0.636383
vt 0.459598 0.330906
vt 0.223585 0.330906
vt 0.223585 0.339111
vt 0.459598 0.339111
vt 0.439941 0.636193
vt 0.019178 0.636370
vt 0.020403 0.629986
vt 0.402359 0.628984
vt 0.413199 0.631063
vt 0.024511 0.917277
vt 0.024511 0.733914
vt 0.348933 0.647051
vt 0.554961 0.647051
vt 0.554961 0.995247
vt 0.348933 0.995247
vt 0.412083 0.351745
vt 0.300369 0.351745
vt 0.300369 0.328956
vt 0.371643 0.328956
vt 0.412083 0.341586
vt 0.866474 0.652431
vt 0.865969 0.949191
vt 0.745107 0.949191
vt 0.273547 0.733913
vt 0.048753 0.932459
vt 0.273547 0.932459
vt 0.096739 0.932459
vt 0.274449 0.932460
vt 0.096739 0.917277
vt 0.049655 0.733914
vt 0.049655 0.964603
vt 0.049655 0.733914
vt 0.049655 0.964603
vt 0.049655 0.733914
vt 0.049655 0.964603
vt 0.049655 0.733914
vt 0.049655 0.964603
vt 0.274449 0.917277
vt 0.049655 0.733914
vt 0.049655 0.932460
s 0
usemtl Material.001
f 1063/1/1 1065/2/1 1064/3/1 1062/4/1
f 14/5/2 16/6/2 15/7/2 13/8/2
f 16/1/2 18/2/2 17/3/2 15/4/2
f 18/1/2 20/2/2 19/3/2 17/4/2
f 20/1/2 22/2/2 21/3/2 19/4/2
f 22/1/2 24/2/2 23/3/2 21/4/2
f 24/1/2 26/2/2 25/3/2 23/4/2
f 26/1/2 331/2/2 329/3/2 25/4/2
f 27/9/2 28/6/2 16/7/2 14/10/2
f 28/1/2 29/2/2 18/3/2 16/4/2
f 29/1/2 30/2/2 20/3/2 18/4/2
f 30/1/2 31/2/2 22/3/2 20/4/2
f 31/1/2 32/2/2 24/3/2 22/4/2
f 32/1/2 33/2/2 26/3/2 24/4/2
f 33/1/2 330/2/2 331/3/2 26/4/2
f 1061/1/1 1063/2/1 1062/3/1 1060/4/1
f 1059/1/1 1061/2/1 1060/3/1 1058/4/1
f 13/5/2 15/6/2 35/7/2 34/8/2
f 15/1/2 17/2/2 36/3/2 35/4/2
f 17/1/2 19/2/2 37/3/2 36/4/2
f 19/1/2 21/2/2 38/3/2 37/4/2
f 21/1/2 23/2/2 39/3/2 38/4/2
f 23/1/2 25/2/2 40/3/2 39/4/2
f 25/1/2 329/2/2 371/3/2 40/4/2
f 34/11/2 35/6/2 6/7/2 7/12/2
f 35/1/2 36/2/2 5/3/2 6/4/2
f 36/1/2 37/2/2 4/3/2 5/4/2
f 37/1/2 38/2/2 3/3/2 4/4/2
f 38/1/2 39/2/2 2/3/2 3/4/2
f 39/1/2 40/2/2 1/3/2 2/4/2
f 40/1/2 371/2/2 428/3/2 1/4/2
f 858/1/1 1059/2/1 1058/3/1 856/4/1
f 41/13/3 421/14/3 387/15/3 386/16/3
f 41/17/3 386/18/3 382/19/3
f 41/20/4 908/18/4 911/19/4
f 946/21/4 41/22/4 911/15/4 912/16/4
f 382/19/5 908/18/5 41/17/5
f 43/23/6 44/24/6 77/25/6 75/26/6
f 77/25/7 44/24/7 46/27/7 81/28/7
f 81/29/8 46/30/8 47/31/8 83/32/8
f 45/33/9 79/34/9 83/35/9 47/36/9
f 64/37/10 66/38/10 70/39/10 68/40/10
f 49/23/6 50/24/6 89/25/6 87/26/6
f 89/25/7 50/24/7 51/27/7 91/28/7
f 91/29/11 51/30/11 52/31/11 93/32/11
f 42/33/9 73/34/9 93/35/9 52/36/9
f 57/41/8 54/42/8 59/43/8 58/44/8
f 57/45/1 56/46/1 62/46/1 63/45/1
f 55/47/8 56/46/8 49/48/8 87/49/8
f 54/50/8 55/47/8 87/49/8 95/51/8
f 56/46/8 57/45/8 53/52/8 49/48/8
f 85/53/8 59/54/8 54/55/8 95/56/8
f 53/57/8 57/58/8 58/59/8 48/60/8
f 61/61/8 60/62/8 63/63/8 62/64/8
f 56/46/6 55/47/6 61/65/6 62/46/6
f 55/47/10 54/50/10 60/66/10 61/65/10
f 54/67/9 57/68/9 63/68/9 60/67/9
f 64/37/8 65/69/8 43/48/8 75/49/8
f 67/70/8 66/38/8 73/71/8 42/72/8
f 65/69/8 67/70/8 42/72/8 43/48/8
f 66/38/8 64/37/8 75/49/8 73/71/8
f 68/40/8 70/39/8 71/73/8 69/74/8
f 65/69/6 64/37/6 68/40/6 69/74/6
f 67/70/1 65/69/1 69/74/1 71/73/1
f 66/38/9 67/70/9 71/73/9 70/39/9
f 74/23/6 75/26/6 77/25/6 76/24/6
f 77/25/7 81/28/7 80/27/7 76/24/7
f 81/29/8 83/32/8 82/31/8 80/30/8
f 78/33/9 82/36/9 83/35/9 79/34/9
f 86/23/6 87/26/6 89/25/6 88/24/6
f 89/25/7 91/28/7 90/27/7 88/24/7
f 91/29/11 93/32/11 92/31/11 90/30/11
f 72/33/9 92/36/9 93/35/9 73/34/9
f 99/41/8 100/44/8 101/43/8 96/42/8
f 99/45/10 105/45/10 104/46/10 98/46/10
f 97/47/8 87/49/8 86/48/8 98/46/8
f 96/50/8 95/51/8 87/49/8 97/47/8
f 98/46/8 86/48/8 94/52/8 99/45/8
f 85/53/8 95/56/8 96/55/8 101/54/8
f 94/57/8 84/60/8 100/59/8 99/58/8
f 103/61/8 104/64/8 105/63/8 102/62/8
f 98/46/6 104/46/6 103/65/6 97/47/6
f 97/47/1 103/65/1 102/66/1 96/50/1
f 96/67/9 102/67/9 105/68/9 99/68/9
f 106/37/8 75/49/8 74/48/8 107/69/8
f 109/70/8 72/72/8 73/71/8 108/38/8
f 107/69/8 74/48/8 72/72/8 109/70/8
f 108/38/8 73/71/8 75/49/8 106/37/8
f 109/38/9 108/70/9 110/73/9 111/39/9
f 108/70/1 106/69/1 112/74/1 110/73/1
f 106/69/6 107/37/6 113/40/6 112/74/6
f 113/40/8 111/39/8 110/73/8 112/74/8
f 107/37/10 109/38/10 111/39/10 113/40/10
f 74/23/6 76/24/6 137/25/6 135/26/6
f 137/25/7 76/24/7 80/27/7 141/28/7
f 141/29/8 80/30/8 82/31/8 143/32/8
f 78/33/9 139/34/9 143/35/9 82/36/9
f 124/37/10 126/38/10 130/39/10 128/40/10
f 86/23/6 88/24/6 149/25/6 147/26/6
f 149/25/7 88/24/7 90/27/7 151/28/7
f 151/29/11 90/30/11 92/31/11 153/32/11
f 72/33/9 133/34/9 153/35/9 92/36/9
f 117/41/8 114/42/8 119/43/8 118/44/8
f 117/45/1 116/46/1 122/46/1 123/45/1
f 115/47/8 116/46/8 86/48/8 147/49/8
f 114/50/8 115/47/8 147/49/8 155/51/8
f 116/46/8 117/45/8 94/52/8 86/48/8
f 145/53/8 119/54/8 114/55/8 155/56/8
f 94/57/8 117/58/8 118/59/8 84/60/8
f 121/61/8 120/62/8 123/63/8 122/64/8
f 116/46/6 115/47/6 121/65/6 122/46/6
f 115/47/10 114/50/10 120/66/10 121/65/10
f 114/67/9 117/68/9 123/68/9 120/67/9
f 124/37/8 125/69/8 74/48/8 135/49/8
f 127/70/8 126/38/8 133/71/8 72/72/8
f 125/69/8 127/70/8 72/72/8 74/48/8
f 126/38/8 124/37/8 135/49/8 133/71/8
f 128/40/8 130/39/8 131/73/8 129/74/8
f 125/69/6 124/37/6 128/40/6 129/74/6
f 127/70/1 125/69/1 129/74/1 131/73/1
f 126/38/9 127/70/9 131/73/9 130/39/9
f 134/23/6 135/26/6 137/25/6 136/24/6
f 137/25/7 141/28/7 140/27/7 136/24/7
f 141/29/8 143/32/8 142/31/8 140/30/8
f 138/33/9 142/36/9 143/35/9 139/34/9
f 146/23/6 147/26/6 149/25/6 148/24/6
f 149/25/7 151/28/7 150/27/7 148/24/7
f 151/29/11 153/32/11 152/31/11 150/30/11
f 132/33/9 152/36/9 153/35/9 133/34/9
f 159/75/10 160/76/10 315/77/10 314/78/10
f 157/79/6 158/80/6 313/81/6 531/82/6 312/83/6
f 157/84/8 147/49/8 146/48/8 158/85/8
f 156/86/8 155/51/8 147/49/8 157/84/8
f 158/85/8 146/48/8 154/52/8 159/87/8
f 145/53/8 155/56/8 156/88/8 161/89/8
f 154/57/8 144/60/8 160/90/8 159/91/8
f 162/37/8 135/49/8 134/48/8 163/69/8
f 165/70/8 132/72/8 133/71/8 164/38/8
f 163/69/8 134/48/8 132/72/8 165/70/8
f 164/38/8 133/71/8 135/49/8 162/37/8
f 165/38/9 164/70/9 166/73/9 167/39/9
f 164/70/1 162/69/1 168/74/1 166/73/1
f 162/69/6 163/37/6 169/40/6 168/74/6
f 169/40/8 167/39/8 166/73/8 168/74/8
f 163/37/10 165/38/10 167/39/10 169/40/10
f 134/23/6 136/24/6 193/25/6 191/26/6
f 193/25/7 136/24/7 140/27/7 197/28/7
f 197/29/8 140/30/8 142/31/8 199/32/8
f 138/33/9 195/34/9 199/35/9 142/36/9
f 180/37/10 182/38/10 186/39/10 184/40/10
f 146/23/6 148/24/6 205/25/6 203/26/6
f 205/25/7 148/24/7 150/27/7 207/28/7
f 207/29/11 150/30/11 152/31/11 209/32/11
f 132/33/9 189/34/9 209/35/9 152/36/9
f 173/41/8 170/42/8 175/43/8 174/44/8
f 173/45/1 172/46/1 178/46/1 179/45/1
f 171/47/8 172/46/8 146/48/8 203/49/8
f 170/50/8 171/47/8 203/49/8 211/51/8
f 172/46/8 173/45/8 154/52/8 146/48/8
f 201/53/8 175/54/8 170/55/8 211/56/8
f 154/57/8 173/58/8 174/59/8 144/60/8
f 177/61/8 176/62/8 179/63/8 178/64/8
f 172/46/6 171/47/6 177/65/6 178/46/6
f 171/47/10 170/50/10 176/66/10 177/65/10
f 170/67/9 173/68/9 179/68/9 176/67/9
f 180/37/8 181/69/8 134/48/8 191/49/8
f 183/70/8 182/38/8 189/71/8 132/72/8
f 181/69/8 183/70/8 132/72/8 134/48/8
f 182/38/8 180/37/8 191/49/8 189/71/8
f 184/40/8 186/39/8 187/73/8 185/74/8
f 181/69/6 180/37/6 184/40/6 185/74/6
f 183/70/1 181/69/1 185/74/1 187/73/1
f 182/38/9 183/70/9 187/73/9 186/39/9
f 190/23/6 191/26/6 193/25/6 192/24/6
f 193/25/7 197/28/7 196/27/7 192/24/7
f 197/29/8 199/32/8 198/31/8 196/30/8
f 194/33/9 198/36/9 199/35/9 195/34/9
f 202/23/6 203/26/6 205/25/6 204/24/6
f 205/25/7 207/28/7 206/27/7 204/24/7
f 207/29/11 209/32/11 208/31/11 206/30/11
f 188/33/9 208/36/9 209/35/9 189/34/9
f 215/41/8 216/44/8 217/43/8 212/42/8
f 215/45/10 221/45/10 220/46/10 214/46/10
f 213/47/8 203/49/8 202/48/8 214/46/8
f 212/50/8 211/51/8 203/49/8 213/47/8
f 214/46/8 202/48/8 210/52/8 215/45/8
f 201/53/8 211/56/8 212/55/8 217/54/8
f 210/57/8 200/60/8 216/59/8 215/58/8
f 219/61/8 220/64/8 221/63/8 218/62/8
f 214/46/6 220/46/6 219/65/6 213/47/6
f 213/47/1 219/65/1 218/66/1 212/50/1
f 212/67/9 218/67/9 221/68/9 215/68/9
f 222/37/8 191/49/8 190/48/8 223/69/8
f 225/70/8 188/72/8 189/71/8 224/38/8
f 223/69/8 190/48/8 188/72/8 225/70/8
f 224/38/8 189/71/8 191/49/8 222/37/8
f 225/38/9 224/70/9 226/73/9 227/39/9
f 224/70/1 222/69/1 228/74/1 226/73/1
f 222/69/6 223/37/6 229/40/6 228/74/6
f 229/40/8 227/39/8 226/73/8 228/74/8
f 223/37/10 225/38/10 227/39/10 229/40/10
f 190/23/6 192/24/6 253/25/6 251/26/6
f 253/25/7 192/24/7 196/27/7 257/28/7
f 257/29/8 196/30/8 198/31/8 259/32/8
f 194/33/9 255/34/9 259/35/9 198/36/9
f 240/37/10 242/38/10 246/39/10 244/40/10
f 202/23/6 204/24/6 265/25/6 263/26/6
f 265/25/7 204/24/7 206/27/7 267/28/7
f 267/29/11 206/30/11 208/31/11 269/32/11
f 188/33/9 249/34/9 269/35/9 208/36/9
f 233/41/8 230/42/8 235/43/8 234/44/8
f 233/45/1 232/46/1 238/46/1 239/45/1
f 231/47/8 232/46/8 202/48/8 263/49/8
f 230/50/8 231/47/8 263/49/8 271/51/8
f 232/46/8 233/45/8 210/52/8 202/48/8
f 261/53/8 235/54/8 230/55/8 271/56/8
f 210/57/8 233/58/8 234/59/8 200/60/8
f 237/61/8 236/62/8 239/63/8 238/64/8
f 232/46/6 231/47/6 237/65/6 238/46/6
f 231/47/10 230/50/10 236/66/10 237/65/10
f 230/67/9 233/68/9 239/68/9 236/67/9
f 240/37/8 241/69/8 190/48/8 251/49/8
f 243/70/8 242/38/8 249/71/8 188/72/8
f 241/69/8 243/70/8 188/72/8 190/48/8
f 242/38/8 240/37/8 251/49/8 249/71/8
f 244/40/8 246/39/8 247/73/8 245/74/8
f 241/69/6 240/37/6 244/40/6 245/74/6
f 243/70/1 241/69/1 245/74/1 247/73/1
f 242/38/9 243/70/9 247/73/9 246/39/9
f 250/23/6 251/26/6 253/25/6 252/24/6
f 253/25/7 257/28/7 256/27/7 252/24/7
f 257/29/8 259/32/8 258/31/8 256/30/8
f 254/33/9 258/36/9 259/35/9 255/34/9
f 262/23/6 263/26/6 265/25/6 264/24/6
f 265/25/7 267/28/7 266/27/7 264/24/7
f 267/29/11 269/32/11 268/31/11 266/30/11
f 248/33/9 268/36/9 269/35/9 249/34/9
f 275/41/8 276/44/8 277/43/8 272/42/8
f 275/45/10 281/45/10 280/46/10 274/46/10
f 273/47/8 263/49/8 262/48/8 274/46/8
f 272/50/8 271/51/8 263/49/8 273/47/8
f 274/46/8 262/48/8 270/52/8 275/45/8
f 261/53/8 271/56/8 272/55/8 277/54/8
f 270/57/8 260/60/8 276/59/8 275/58/8
f 279/61/8 280/64/8 281/63/8 278/62/8
f 274/46/6 280/46/6 279/65/6 273/47/6
f 273/47/1 279/65/1 278/66/1 272/50/1
f 272/67/9 278/67/9 281/68/9 275/68/9
f 282/37/8 251/49/8 250/48/8 283/69/8
f 285/70/8 248/72/8 249/71/8 284/38/8
f 283/69/8 250/48/8 248/72/8 285/70/8
f 284/38/8 249/71/8 251/49/8 282/37/8
f 285/38/9 284/70/9 286/73/9 287/39/9
f 284/70/1 282/69/1 288/74/1 286/73/1
f 282/69/6 283/37/6 289/40/6 288/74/6
f 289/40/8 287/39/8 286/73/8 288/74/8
f 283/37/10 285/38/10 287/39/10 289/40/10
f 250/92/1 254/92/1 300/92/1 299/92/1
f 248/72/1 250/48/1 299/48/1 298/72/1
f 270/52/1 262/48/1 301/48/1 302/52/1
f 248/92/1 298/92/1 301/92/1 262/92/1
f 298/93/12 299/4/12 329/94/12 331/95/12
f 300/96/12 329/94/12 299/4/12
f 305/93/12 302/97/12 301/4/12 331/94/12 330/98/12
f 298/96/12 331/94/12 301/4/12
f 260/60/1 270/57/1 302/57/1 305/60/1
f 43/23/6 567/26/6 576/25/6 44/24/6
f 532/99/8 531/100/8 313/101/8 314/102/8
f 532/103/8 316/104/8 311/105/8
f 156/106/1 157/107/1 312/108/1 311/109/1
f 161/76/1 156/75/1 311/78/1 316/77/1
f 158/110/10 159/111/10 314/112/10 313/113/10
f 264/114/1 266/115/1 268/116/1 248/117/1 262/118/1
f 250/119/1 252/120/1 256/121/1 258/122/1 254/123/1
f 295/124/6 291/125/6 290/126/6 294/126/6
f 296/127/9 292/127/9 293/128/9 297/129/9
f 297/129/10 293/128/10 291/125/10 295/124/10
f 290/126/8 291/125/8 293/128/8 292/127/8
f 296/127/8 194/130/8 375/131/8 294/126/8
f 295/124/8 374/132/8 255/133/8 297/129/8
f 294/126/8 375/131/8 374/132/8 295/124/8
f 297/129/8 255/133/8 194/130/8 296/127/8
f 294/126/1 290/126/1 292/127/1 296/127/1
f 317/124/6 304/125/6 303/126/6 310/126/6
f 318/127/9 306/127/9 309/128/9 319/129/9
f 319/129/10 309/128/10 304/125/10 317/124/10
f 303/126/8 304/125/8 309/128/8 306/127/8
f 318/127/8 138/130/8 377/131/8 310/126/8
f 317/124/8 376/132/8 195/133/8 319/129/8
f 310/126/8 377/131/8 376/132/8 317/124/8
f 319/129/8 195/133/8 138/130/8 318/127/8
f 310/126/1 303/126/1 306/127/1 318/127/1
f 325/124/6 321/125/6 320/126/6 324/126/6
f 326/127/9 322/127/9 323/128/9 327/129/9
f 327/129/10 323/128/10 321/125/10 325/124/10
f 320/126/8 321/125/8 323/128/8 322/127/8
f 326/127/8 78/130/8 379/131/8 324/126/8
f 325/124/8 378/132/8 139/133/8 327/129/8
f 324/126/8 379/131/8 378/132/8 325/124/8
f 327/129/8 139/133/8 78/130/8 326/127/8
f 324/126/1 320/126/1 322/127/1 326/127/1
f 336/124/6 332/125/6 328/126/6 335/126/6
f 337/127/9 333/127/9 334/128/9 338/129/9
f 338/129/10 334/128/10 332/125/10 336/124/10
f 328/126/8 332/125/8 334/128/8 333/127/8
f 337/127/8 45/130/8 381/131/8 335/126/8
f 336/124/8 380/132/8 79/133/8 338/129/8
f 335/126/8 381/131/8 380/132/8 336/124/8
f 338/129/8 79/133/8 45/130/8 337/127/8
f 335/126/1 328/126/1 333/127/1 337/127/1
f 254/134/1 373/135/1 372/135/1 300/134/1
f 300/93/12 372/4/12 371/94/12 329/95/12
f 344/124/6 343/126/6 339/126/6 340/125/6
f 345/127/9 346/129/9 342/128/9 341/127/9
f 346/129/1 344/124/1 340/125/1 342/128/1
f 339/126/8 341/127/8 342/128/8 340/125/8
f 345/127/8 343/126/8 379/131/8 78/130/8
f 344/124/8 346/129/8 79/133/8 380/132/8
f 343/126/8 344/124/8 380/132/8 379/131/8
f 346/129/8 345/127/8 78/130/8 79/133/8
f 343/126/10 345/127/10 341/127/10 339/126/10
f 352/124/6 351/126/6 347/126/6 348/125/6
f 353/127/9 354/129/9 350/128/9 349/127/9
f 354/129/1 352/124/1 348/125/1 350/128/1
f 347/126/8 349/127/8 350/128/8 348/125/8
f 353/127/8 351/126/8 377/131/8 138/130/8
f 352/124/8 354/129/8 139/133/8 378/132/8
f 351/126/8 352/124/8 378/132/8 377/131/8
f 354/129/8 353/127/8 138/130/8 139/133/8
f 351/126/10 353/127/10 349/127/10 347/126/10
f 360/124/6 359/126/6 355/126/6 356/125/6
f 361/127/9 362/129/9 358/128/9 357/127/9
f 362/129/1 360/124/1 356/125/1 358/128/1
f 355/126/8 357/127/8 358/128/8 356/125/8
f 361/127/8 359/126/8 375/131/8 194/130/8
f 360/124/8 362/129/8 195/133/8 376/132/8
f 359/126/8 360/124/8 376/132/8 375/131/8
f 362/129/8 361/127/8 194/130/8 195/133/8
f 359/126/10 361/127/10 357/127/10 355/126/10
f 368/124/6 367/126/6 363/126/6 364/125/6
f 369/127/9 370/129/9 366/128/9 365/127/9
f 370/129/1 368/124/1 364/125/1 366/128/1
f 363/126/8 365/127/8 366/128/8 364/125/8
f 369/127/8 367/126/8 373/131/8 254/130/8
f 368/124/8 370/129/8 255/133/8 374/132/8
f 367/126/8 368/124/8 374/132/8 373/131/8
f 370/129/8 369/127/8 254/130/8 255/133/8
f 367/126/10 369/127/10 365/127/10 363/126/10
f 388/136/8 383/137/8 382/138/8 386/139/8
f 390/25/7 384/24/7 383/27/7 388/28/7
f 385/23/6 384/24/6 390/25/6 392/26/6
f 388/136/8 386/139/8 387/138/8 389/137/8
f 390/25/7 388/28/7 389/27/7 391/24/7
f 393/23/6 392/26/6 390/25/6 391/24/6
f 396/136/8 389/137/8 387/138/8 394/139/8
f 398/25/7 391/24/7 389/27/7 396/28/7
f 393/23/6 391/24/6 398/25/6 400/26/6
f 396/136/8 394/139/8 395/138/8 397/137/8
f 398/25/7 396/28/7 397/27/7 399/24/7
f 401/23/6 400/26/6 398/25/6 399/24/6
f 404/136/8 397/137/8 395/138/8 402/139/8
f 406/25/7 399/24/7 397/27/7 404/28/7
f 401/23/6 399/24/6 406/25/6 408/26/6
f 404/136/8 402/139/8 403/138/8 405/137/8
f 406/25/7 404/28/7 405/27/7 407/24/7
f 409/23/6 408/26/6 406/25/6 407/24/6
f 412/136/8 405/137/8 403/138/8 410/139/8
f 415/25/7 407/24/7 405/27/7 412/28/7
f 409/23/6 407/24/6 415/25/6 417/26/6
f 411/140/13 427/141/13 429/142/13 419/143/13 414/144/13
f 412/136/8 410/139/8 411/138/8 413/137/8
f 415/25/7 412/28/7 413/27/7 416/24/7
f 418/23/6 417/26/6 415/25/6 416/24/6
f 414/92/1 419/92/1 420/92/1 418/92/1
f 419/96/12 428/94/12 420/4/12
f 419/93/12 429/145/12 428/146/12
f 426/147/3 427/148/3 411/149/3 410/150/3
f 425/147/3 426/148/3 410/149/3 403/150/3
f 424/147/3 425/148/3 403/149/3 402/150/3
f 423/147/3 424/148/3 402/149/3 395/150/3
f 422/147/3 423/148/3 395/149/3 394/150/3
f 421/147/3 422/148/3 394/149/3 387/150/3
f 411/151/1 414/152/1 418/153/1 416/154/1 413/155/1
f 433/126/10 431/127/10 435/127/10 437/126/10
f 430/129/8 431/127/8 524/130/8 525/133/8
f 433/126/8 432/124/8 417/132/8 418/131/8
f 432/124/8 430/129/8 525/133/8 417/132/8
f 431/127/8 433/126/8 418/131/8 524/130/8
f 437/126/8 435/127/8 434/128/8 436/125/8
f 430/129/1 432/124/1 436/125/1 434/128/1
f 431/127/9 430/129/9 434/128/9 435/127/9
f 432/124/6 433/126/6 437/126/6 436/125/6
f 441/126/10 439/127/10 443/127/10 445/126/10
f 438/129/8 439/127/8 516/130/8 517/133/8
f 441/126/8 440/124/8 408/132/8 409/131/8
f 440/124/8 438/129/8 517/133/8 408/132/8
f 439/127/8 441/126/8 409/131/8 516/130/8
f 445/126/8 443/127/8 442/128/8 444/125/8
f 438/129/1 440/124/1 444/125/1 442/128/1
f 439/127/9 438/129/9 442/128/9 443/127/9
f 440/124/6 441/126/6 445/126/6 444/125/6
f 449/126/10 447/127/10 451/127/10 453/126/10
f 446/129/8 447/127/8 508/130/8 509/133/8
f 449/126/8 448/124/8 400/132/8 401/131/8
f 448/124/8 446/129/8 509/133/8 400/132/8
f 447/127/8 449/126/8 401/131/8 508/130/8
f 453/126/8 451/127/8 450/128/8 452/125/8
f 446/129/1 448/124/1 452/125/1 450/128/1
f 447/127/9 446/129/9 450/128/9 451/127/9
f 448/124/6 449/126/6 453/126/6 452/125/6
f 457/126/10 455/127/10 459/127/10 461/126/10
f 454/129/8 455/127/8 500/130/8 501/133/8
f 457/126/8 456/124/8 392/132/8 393/131/8
f 456/124/8 454/129/8 501/133/8 392/132/8
f 455/127/8 457/126/8 393/131/8 500/130/8
f 461/126/8 459/127/8 458/128/8 460/125/8
f 454/129/1 456/124/1 460/125/1 458/128/1
f 455/127/9 454/129/9 458/128/9 459/127/9
f 456/124/6 457/126/6 461/126/6 460/125/6
f 530/93/12 420/4/12 428/94/12 371/95/12
f 524/134/1 418/135/1 420/135/1 530/134/1
f 465/126/1 469/126/1 467/127/1 463/127/1
f 462/129/8 501/133/8 495/130/8 463/127/8
f 465/126/8 385/131/8 392/132/8 464/124/8
f 464/124/8 392/132/8 501/133/8 462/129/8
f 463/127/8 495/130/8 385/131/8 465/126/8
f 469/126/8 468/125/8 466/128/8 467/127/8
f 462/129/10 466/128/10 468/125/10 464/124/10
f 463/127/9 467/127/9 466/128/9 462/129/9
f 464/124/6 468/125/6 469/126/6 465/126/6
f 473/126/1 477/126/1 475/127/1 471/127/1
f 470/129/8 509/133/8 500/130/8 471/127/8
f 473/126/8 393/131/8 400/132/8 472/124/8
f 472/124/8 400/132/8 509/133/8 470/129/8
f 471/127/8 500/130/8 393/131/8 473/126/8
f 477/126/8 476/125/8 474/128/8 475/127/8
f 470/129/10 474/128/10 476/125/10 472/124/10
f 471/127/9 475/127/9 474/128/9 470/129/9
f 472/124/6 476/125/6 477/126/6 473/126/6
f 481/126/1 485/126/1 483/127/1 479/127/1
f 478/129/8 517/133/8 508/130/8 479/127/8
f 481/126/8 401/131/8 408/132/8 480/124/8
f 480/124/8 408/132/8 517/133/8 478/129/8
f 479/127/8 508/130/8 401/131/8 481/126/8
f 485/126/8 484/125/8 482/128/8 483/127/8
f 478/129/10 482/128/10 484/125/10 480/124/10
f 479/127/9 483/127/9 482/128/9 478/129/9
f 480/124/6 484/125/6 485/126/6 481/126/6
f 489/126/1 493/126/1 491/127/1 487/127/1
f 486/129/8 525/133/8 516/130/8 487/127/8
f 489/126/8 409/131/8 417/132/8 488/124/8
f 488/124/8 417/132/8 525/133/8 486/129/8
f 487/127/8 516/130/8 409/131/8 489/126/8
f 493/126/8 492/125/8 490/128/8 491/127/8
f 486/129/10 490/128/10 492/125/10 488/124/10
f 487/127/9 491/127/9 490/128/9 486/129/9
f 488/124/6 492/125/6 493/126/6 489/126/6
f 381/23/6 494/24/6 499/25/6 380/26/6
f 499/25/7 494/24/7 496/27/7 503/28/7
f 503/29/8 496/30/8 497/31/8 505/32/8
f 495/33/9 501/34/9 505/35/9 497/36/9
f 379/23/6 380/26/6 499/25/6 498/24/6
f 499/25/7 503/28/7 502/27/7 498/24/7
f 503/29/8 505/32/8 504/31/8 502/30/8
f 500/33/9 504/36/9 505/35/9 501/34/9
f 379/23/6 498/24/6 507/25/6 378/26/6
f 507/25/7 498/24/7 502/27/7 511/28/7
f 511/29/8 502/30/8 504/31/8 513/32/8
f 500/33/9 509/34/9 513/35/9 504/36/9
f 377/23/6 378/26/6 507/25/6 506/24/6
f 507/25/7 511/28/7 510/27/7 506/24/7
f 511/29/8 513/32/8 512/31/8 510/30/8
f 508/33/9 512/36/9 513/35/9 509/34/9
f 377/23/6 506/24/6 515/25/6 376/26/6
f 515/25/7 506/24/7 510/27/7 519/28/7
f 519/29/8 510/30/8 512/31/8 521/32/8
f 508/33/9 517/34/9 521/35/9 512/36/9
f 375/23/6 376/26/6 515/25/6 514/24/6
f 515/25/7 519/28/7 518/27/7 514/24/7
f 519/29/8 521/32/8 520/31/8 518/30/8
f 516/33/9 520/36/9 521/35/9 517/34/9
f 375/23/6 514/24/6 523/25/6 374/26/6
f 523/25/7 514/24/7 518/27/7 527/28/7
f 527/29/8 518/30/8 520/31/8 529/32/8
f 516/33/9 525/34/9 529/35/9 520/36/9
f 373/23/6 374/26/6 523/25/6 522/24/6
f 523/25/7 527/28/7 526/27/7 522/24/7
f 527/29/8 529/32/8 528/31/8 526/30/8
f 524/33/9 528/36/9 529/35/9 525/34/9
f 373/92/1 524/92/1 530/92/1 372/92/1
f 530/96/12 371/94/12 372/4/12
f 373/119/1 522/120/1 526/121/1 528/122/1 524/123/1
f 315/156/8 532/99/8 314/102/8
f 311/105/8 312/157/8 531/158/8 532/103/8
f 495/33/9 497/36/9 1021/35/9 575/34/9
f 1020/29/14 1021/32/14 497/31/14 496/30/14
f 1019/25/15 1020/28/15 496/27/15 494/24/15
f 381/23/6 536/26/6 1019/25/6 494/24/6
f 569/124/6 570/126/6 574/126/6 573/125/6
f 533/127/9 534/129/9 571/128/9 572/127/9
f 534/129/16 569/124/16 573/125/16 571/128/16
f 574/126/14 572/127/14 571/128/14 573/125/14
f 533/127/14 570/126/14 385/131/14 495/130/14
f 569/124/14 534/129/14 575/133/14 535/132/14
f 570/126/14 569/124/14 535/132/14 385/131/14
f 534/129/14 533/127/14 495/130/14 575/133/14
f 570/126/17 533/127/17 572/127/17 574/126/17
f 385/23/6 535/26/6 910/25/6 384/24/6
f 910/25/15 909/28/15 383/27/15 384/24/15
f 909/136/14 908/139/14 382/138/14 383/137/14
f 540/126/17 538/127/17 542/127/17 544/126/17
f 537/129/14 538/127/14 45/130/14 566/133/14
f 540/126/14 539/124/14 536/132/14 381/131/14
f 539/124/14 537/129/14 566/133/14 536/132/14
f 538/127/14 540/126/14 381/131/14 45/130/14
f 544/126/14 542/127/14 541/128/14 543/125/14
f 537/129/16 539/124/16 543/125/16 541/128/16
f 538/127/9 537/129/9 541/128/9 542/127/9
f 539/124/6 540/126/6 544/126/6 543/125/6
f 551/37/17 549/38/17 547/39/17 545/40/17
f 545/40/14 547/39/14 548/73/14 546/74/14
f 552/69/6 551/37/6 545/40/6 546/74/6
f 550/70/16 552/69/16 546/74/16 548/73/16
f 549/38/9 550/70/9 548/73/9 547/39/9
f 550/38/14 568/71/14 567/49/14 552/37/14
f 551/69/14 43/48/14 42/72/14 549/70/14
f 549/70/14 42/72/14 568/71/14 550/38/14
f 552/37/14 567/49/14 43/48/14 551/69/14
f 562/67/9 556/67/9 553/68/9 559/68/9
f 561/47/16 555/65/16 556/66/16 562/50/16
f 560/46/6 554/46/6 555/65/6 561/47/6
f 555/61/14 554/64/14 553/63/14 556/62/14
f 53/57/14 48/60/14 558/59/14 559/58/14
f 565/53/14 563/56/14 562/55/14 557/54/14
f 560/46/14 49/48/14 53/52/14 559/45/14
f 562/50/14 563/51/14 564/49/14 561/47/14
f 561/47/14 564/49/14 49/48/14 560/46/14
f 559/45/17 553/45/17 554/46/17 560/46/17
f 559/41/14 558/44/14 557/43/14 562/42/14
f 42/33/9 52/36/9 581/35/9 568/34/9
f 580/29/18 581/32/18 52/31/18 51/30/18
f 579/25/15 580/28/15 51/27/15 50/24/15
f 49/23/6 564/26/6 579/25/6 50/24/6
f 45/33/9 47/36/9 578/35/9 566/34/9
f 577/29/14 578/32/14 47/31/14 46/30/14
f 576/25/15 577/28/15 46/27/15 44/24/15
f 567/23/6 603/26/6 605/25/6 576/24/6
f 605/25/19 609/28/19 577/27/19 576/24/19
f 609/29/10 611/32/10 578/31/10 577/30/10
f 566/33/9 578/36/9 611/35/9 607/34/9
f 592/37/8 596/40/8 598/39/8 594/38/8
f 564/23/6 615/26/6 617/25/6 579/24/6
f 617/25/19 619/28/19 580/27/19 579/24/19
f 619/29/20 621/32/20 581/31/20 580/30/20
f 568/33/9 581/36/9 621/35/9 601/34/9
f 585/41/10 586/44/10 587/43/10 582/42/10
f 585/45/2 591/45/2 590/46/2 584/46/2
f 583/47/10 615/49/10 564/48/10 584/46/10
f 582/50/10 623/51/10 615/49/10 583/47/10
f 584/46/10 564/48/10 563/52/10 585/45/10
f 613/53/10 623/56/10 582/55/10 587/54/10
f 563/57/10 565/60/10 586/59/10 585/58/10
f 589/61/10 590/64/10 591/63/10 588/62/10
f 584/46/6 590/46/6 589/65/6 583/47/6
f 583/47/8 589/65/8 588/66/8 582/50/8
f 582/67/9 588/67/9 591/68/9 585/68/9
f 592/37/10 603/49/10 567/48/10 593/69/10
f 595/70/10 568/72/10 601/71/10 594/38/10
f 593/69/10 567/48/10 568/72/10 595/70/10
f 594/38/10 601/71/10 603/49/10 592/37/10
f 596/40/10 597/74/10 599/73/10 598/39/10
f 593/69/6 597/74/6 596/40/6 592/37/6
f 595/70/2 599/73/2 597/74/2 593/69/2
f 594/38/9 598/39/9 599/73/9 595/70/9
f 602/23/6 604/24/6 605/25/6 603/26/6
f 605/25/19 604/24/19 608/27/19 609/28/19
f 609/29/10 608/30/10 610/31/10 611/32/10
f 606/33/9 607/34/9 611/35/9 610/36/9
f 614/23/6 616/24/6 617/25/6 615/26/6
f 617/25/19 616/24/19 618/27/19 619/28/19
f 619/29/20 618/30/20 620/31/20 621/32/20
f 600/33/9 601/34/9 621/35/9 620/36/9
f 627/41/10 624/42/10 629/43/10 628/44/10
f 627/45/8 626/46/8 632/46/8 633/45/8
f 625/47/10 626/46/10 614/48/10 615/49/10
f 624/50/10 625/47/10 615/49/10 623/51/10
f 626/46/10 627/45/10 622/52/10 614/48/10
f 613/53/10 629/54/10 624/55/10 623/56/10
f 622/57/10 627/58/10 628/59/10 612/60/10
f 631/61/10 630/62/10 633/63/10 632/64/10
f 626/46/6 625/47/6 631/65/6 632/46/6
f 625/47/2 624/50/2 630/66/2 631/65/2
f 624/67/9 627/68/9 633/68/9 630/67/9
f 634/37/10 635/69/10 602/48/10 603/49/10
f 637/70/10 636/38/10 601/71/10 600/72/10
f 635/69/10 637/70/10 600/72/10 602/48/10
f 636/38/10 634/37/10 603/49/10 601/71/10
f 637/38/9 639/39/9 638/73/9 636/70/9
f 636/70/2 638/73/2 640/74/2 634/69/2
f 634/69/6 640/74/6 641/40/6 635/37/6
f 641/40/10 640/74/10 638/73/10 639/39/10
f 635/37/8 641/40/8 639/39/8 637/38/8
f 602/23/6 663/26/6 665/25/6 604/24/6
f 665/25/19 669/28/19 608/27/19 604/24/19
f 669/29/10 671/32/10 610/31/10 608/30/10
f 606/33/9 610/36/9 671/35/9 667/34/9
f 652/37/8 656/40/8 658/39/8 654/38/8
f 614/23/6 675/26/6 677/25/6 616/24/6
f 677/25/19 679/28/19 618/27/19 616/24/19
f 679/29/20 681/32/20 620/31/20 618/30/20
f 600/33/9 620/36/9 681/35/9 661/34/9
f 645/41/10 646/44/10 647/43/10 642/42/10
f 645/45/2 651/45/2 650/46/2 644/46/2
f 643/47/10 675/49/10 614/48/10 644/46/10
f 642/50/10 683/51/10 675/49/10 643/47/10
f 644/46/10 614/48/10 622/52/10 645/45/10
f 673/53/10 683/56/10 642/55/10 647/54/10
f 622/57/10 612/60/10 646/59/10 645/58/10
f 649/61/10 650/64/10 651/63/10 648/62/10
f 644/46/6 650/46/6 649/65/6 643/47/6
f 643/47/8 649/65/8 648/66/8 642/50/8
f 642/67/9 648/67/9 651/68/9 645/68/9
f 652/37/10 663/49/10 602/48/10 653/69/10
f 655/70/10 600/72/10 661/71/10 654/38/10
f 653/69/10 602/48/10 600/72/10 655/70/10
f 654/38/10 661/71/10 663/49/10 652/37/10
f 656/40/10 657/74/10 659/73/10 658/39/10
f 653/69/6 657/74/6 656/40/6 652/37/6
f 655/70/2 659/73/2 657/74/2 653/69/2
f 654/38/9 658/39/9 659/73/9 655/70/9
f 662/23/6 664/24/6 665/25/6 663/26/6
f 665/25/19 664/24/19 668/27/19 669/28/19
f 669/29/10 668/30/10 670/31/10 671/32/10
f 666/33/9 667/34/9 671/35/9 670/36/9
f 674/23/6 676/24/6 677/25/6 675/26/6
f 677/25/19 676/24/19 678/27/19 679/28/19
f 679/29/20 678/30/20 680/31/20 681/32/20
f 660/33/9 661/34/9 681/35/9 680/36/9
f 687/75/8 841/78/8 842/77/8 688/76/8
f 685/79/6 839/83/6 1055/82/6 840/81/6 686/80/6
f 685/84/10 686/85/10 674/48/10 675/49/10
f 684/86/10 685/84/10 675/49/10 683/51/10
f 686/85/10 687/87/10 682/52/10 674/48/10
f 673/53/10 689/89/10 684/88/10 683/56/10
f 682/57/10 687/91/10 688/90/10 672/60/10
f 690/37/10 691/69/10 662/48/10 663/49/10
f 693/70/10 692/38/10 661/71/10 660/72/10
f 691/69/10 693/70/10 660/72/10 662/48/10
f 692/38/10 690/37/10 663/49/10 661/71/10
f 693/38/9 695/39/9 694/73/9 692/70/9
f 692/70/2 694/73/2 696/74/2 690/69/2
f 690/69/6 696/74/6 697/40/6 691/37/6
f 697/40/10 696/74/10 694/73/10 695/39/10
f 691/37/8 697/40/8 695/39/8 693/38/8
f 662/23/6 719/26/6 721/25/6 664/24/6
f 721/25/21 725/28/21 668/27/21 664/24/21
f 725/29/10 727/32/10 670/31/10 668/30/10
f 666/33/9 670/36/9 727/35/9 723/34/9
f 708/37/8 712/40/8 714/39/8 710/38/8
f 674/23/6 731/26/6 733/25/6 676/24/6
f 733/25/21 735/28/21 678/27/21 676/24/21
f 735/29/20 737/32/20 680/31/20 678/30/20
f 660/33/9 680/36/9 737/35/9 717/34/9
f 701/41/10 702/44/10 703/43/10 698/42/10
f 701/45/2 707/45/2 706/46/2 700/46/2
f 699/47/10 731/49/10 674/48/10 700/46/10
f 698/50/10 739/51/10 731/49/10 699/47/10
f 700/46/10 674/48/10 682/52/10 701/45/10
f 729/53/10 739/56/10 698/55/10 703/54/10
f 682/57/10 672/60/10 702/59/10 701/58/10
f 705/61/10 706/64/10 707/63/10 704/62/10
f 700/46/6 706/46/6 705/65/6 699/47/6
f 699/47/8 705/65/8 704/66/8 698/50/8
f 698/67/9 704/67/9 707/68/9 701/68/9
f 708/37/10 719/49/10 662/48/10 709/69/10
f 711/70/10 660/72/10 717/71/10 710/38/10
f 709/69/10 662/48/10 660/72/10 711/70/10
f 710/38/10 717/71/10 719/49/10 708/37/10
f 712/40/10 713/74/10 715/73/10 714/39/10
f 709/69/6 713/74/6 712/40/6 708/37/6
f 711/70/2 715/73/2 713/74/2 709/69/2
f 710/38/9 714/39/9 715/73/9 711/70/9
f 718/23/6 720/24/6 721/25/6 719/26/6
f 721/25/21 720/24/21 724/27/21 725/28/21
f 725/29/10 724/30/10 726/31/10 727/32/10
f 722/33/9 723/34/9 727/35/9 726/36/9
f 730/23/6 732/24/6 733/25/6 731/26/6
f 733/25/21 732/24/21 734/27/21 735/28/21
f 735/29/20 734/30/20 736/31/20 737/32/20
f 716/33/9 717/34/9 737/35/9 736/36/9
f 743/41/10 740/42/10 745/43/10 744/44/10
f 743/45/8 742/46/8 748/46/8 749/45/8
f 741/47/10 742/46/10 730/48/10 731/49/10
f 740/50/10 741/47/10 731/49/10 739/51/10
f 742/46/10 743/45/10 738/52/10 730/48/10
f 729/53/10 745/54/10 740/55/10 739/56/10
f 738/57/10 743/58/10 744/59/10 728/60/10
f 747/61/10 746/62/10 749/63/10 748/64/10
f 742/46/6 741/47/6 747/65/6 748/46/6
f 741/47/2 740/50/2 746/66/2 747/65/2
f 740/67/9 743/68/9 749/68/9 746/67/9
f 750/37/10 751/69/10 718/48/10 719/49/10
f 753/70/10 752/38/10 717/71/10 716/72/10
f 751/69/10 753/70/10 716/72/10 718/48/10
f 752/38/10 750/37/10 719/49/10 717/71/10
f 753/38/9 755/39/9 754/73/9 752/70/9
f 752/70/2 754/73/2 756/74/2 750/69/2
f 750/69/6 756/74/6 757/40/6 751/37/6
f 757/40/10 756/74/10 754/73/10 755/39/10
f 751/37/8 757/40/8 755/39/8 753/38/8
f 718/23/6 779/26/6 781/25/6 720/24/6
f 781/25/21 785/28/21 724/27/21 720/24/21
f 785/29/10 787/32/10 726/31/10 724/30/10
f 722/33/9 726/36/9 787/35/9 783/34/9
f 768/37/8 772/40/8 774/39/8 770/38/8
f 730/23/6 790/26/6 792/25/6 732/24/6
f 792/25/21 794/28/21 734/27/21 732/24/21
f 794/29/20 796/32/20 736/31/20 734/30/20
f 716/33/9 736/36/9 796/35/9 777/34/9
f 761/41/10 762/44/10 763/43/10 758/42/10
f 761/45/2 767/45/2 766/46/2 760/46/2
f 759/47/10 790/49/10 730/48/10 760/46/10
f 758/50/10 798/51/10 790/49/10 759/47/10
f 760/46/10 730/48/10 738/52/10 761/45/10
f 738/57/10 728/60/10 762/59/10 761/58/10
f 765/61/10 766/64/10 767/63/10 764/62/10
f 760/46/6 766/46/6 765/65/6 759/47/6
f 759/47/8 765/65/8 764/66/8 758/50/8
f 758/67/9 764/67/9 767/68/9 761/68/9
f 768/37/10 779/49/10 718/48/10 769/69/10
f 771/70/10 716/72/10 777/71/10 770/38/10
f 769/69/10 718/48/10 716/72/10 771/70/10
f 770/38/10 777/71/10 779/49/10 768/37/10
f 772/40/10 773/74/10 775/73/10 774/39/10
f 769/69/6 773/74/6 772/40/6 768/37/6
f 771/70/2 775/73/2 773/74/2 769/69/2
f 770/38/9 774/39/9 775/73/9 771/70/9
f 778/23/6 780/24/6 781/25/6 779/26/6
f 781/25/21 780/24/21 784/27/21 785/28/21
f 785/29/10 784/30/10 786/31/10 787/32/10
f 782/33/9 783/34/9 787/35/9 786/36/9
f 789/23/6 791/24/6 792/25/6 790/26/6
f 792/25/21 791/24/21 793/27/21 794/28/21
f 794/29/20 793/30/20 795/31/20 796/32/20
f 776/33/9 777/34/9 796/35/9 795/36/9
f 802/41/10 799/42/10 804/43/10 803/44/10
f 802/45/8 801/46/8 807/46/8 808/45/8
f 800/47/10 801/46/10 789/48/10 790/49/10
f 799/50/10 800/47/10 790/49/10 798/51/10
f 801/46/10 802/45/10 797/52/10 789/48/10
f 797/57/10 802/58/10 803/59/10 788/60/10
f 806/61/10 805/62/10 808/63/10 807/64/10
f 801/46/6 800/47/6 806/65/6 807/46/6
f 800/47/2 799/50/2 805/66/2 806/65/2
f 799/67/9 802/68/9 808/68/9 805/67/9
f 809/37/10 810/69/10 778/48/10 779/49/10
f 812/70/10 811/38/10 777/71/10 776/72/10
f 810/69/10 812/70/10 776/72/10 778/48/10
f 811/38/10 809/37/10 779/49/10 777/71/10
f 812/38/9 814/39/9 813/73/9 811/70/9
f 811/70/2 813/73/2 815/74/2 809/69/2
f 809/69/6 815/74/6 816/40/6 810/37/6
f 816/40/10 815/74/10 813/73/10 814/39/10
f 810/37/8 816/40/8 814/39/8 812/38/8
f 778/92/2 826/92/2 827/92/2 782/92/2
f 776/72/2 825/72/2 826/48/2 778/48/2
f 797/52/2 829/52/2 828/48/2 789/48/2
f 776/92/2 789/92/2 828/92/2 825/92/2
f 825/93/22 858/95/22 856/94/22 826/4/22
f 827/96/22 826/4/22 856/94/22
f 832/93/22 857/98/22 858/94/22 828/4/22 829/97/22
f 825/96/22 828/4/22 858/94/22
f 788/60/2 832/60/2 829/57/2 797/57/2
f 1056/99/10 841/102/10 840/101/10 1055/100/10
f 1056/103/10 838/105/10 843/104/10
f 684/106/2 838/109/2 839/108/2 685/107/2
f 689/76/2 843/77/2 838/78/2 684/75/2
f 686/110/8 840/113/8 841/112/8 687/111/8
f 791/114/2 789/118/2 776/117/2 795/116/2 793/115/2
f 778/119/2 782/123/2 786/122/2 784/121/2 780/120/2
f 822/124/6 821/126/6 817/126/6 818/125/6
f 823/127/9 824/129/9 820/128/9 819/127/9
f 824/129/8 822/124/8 818/125/8 820/128/8
f 817/126/10 819/127/10 820/128/10 818/125/10
f 823/127/10 821/126/10 902/131/10 722/130/10
f 822/124/10 824/129/10 783/133/10 901/132/10
f 821/126/10 822/124/10 901/132/10 902/131/10
f 824/129/10 823/127/10 722/130/10 783/133/10
f 821/126/2 823/127/2 819/127/2 817/126/2
f 844/124/6 837/126/6 830/126/6 831/125/6
f 845/127/9 846/129/9 836/128/9 833/127/9
f 846/129/8 844/124/8 831/125/8 836/128/8
f 830/126/10 833/127/10 836/128/10 831/125/10
f 845/127/10 837/126/10 904/131/10 666/130/10
f 844/124/10 846/129/10 723/133/10 903/132/10
f 837/126/10 844/124/10 903/132/10 904/131/10
f 846/129/10 845/127/10 666/130/10 723/133/10
f 837/126/2 845/127/2 833/127/2 830/126/2
f 852/124/6 851/126/6 847/126/6 848/125/6
f 853/127/9 854/129/9 850/128/9 849/127/9
f 854/129/8 852/124/8 848/125/8 850/128/8
f 847/126/10 849/127/10 850/128/10 848/125/10
f 853/127/10 851/126/10 906/131/10 606/130/10
f 852/124/10 854/129/10 667/133/10 905/132/10
f 851/126/10 852/124/10 905/132/10 906/131/10
f 854/129/10 853/127/10 606/130/10 667/133/10
f 851/126/2 853/127/2 849/127/2 847/126/2
f 863/124/6 862/126/6 855/126/6 859/125/6
f 864/127/9 865/129/9 861/128/9 860/127/9
f 865/129/8 863/124/8 859/125/8 861/128/8
f 855/126/10 860/127/10 861/128/10 859/125/10
f 864/127/10 862/126/10 536/131/10 566/130/10
f 863/124/10 865/129/10 607/133/10 907/132/10
f 862/126/10 863/124/10 907/132/10 536/131/10
f 865/129/10 864/127/10 566/130/10 607/133/10
f 862/126/2 864/127/2 860/127/2 855/126/2
f 782/134/2 827/134/2 899/135/2 900/135/2
f 827/93/22 856/95/22 898/94/22 899/4/22
f 871/124/6 867/125/6 866/126/6 870/126/6
f 872/127/9 868/127/9 869/128/9 873/129/9
f 873/129/2 869/128/2 867/125/2 871/124/2
f 866/126/10 867/125/10 869/128/10 868/127/10
f 872/127/10 606/130/10 906/131/10 870/126/10
f 871/124/10 907/132/10 607/133/10 873/129/10
f 870/126/10 906/131/10 907/132/10 871/124/10
f 873/129/10 607/133/10 606/130/10 872/127/10
f 870/126/8 866/126/8 868/127/8 872/127/8
f 879/124/6 875/125/6 874/126/6 878/126/6
f 880/127/9 876/127/9 877/128/9 881/129/9
f 881/129/2 877/128/2 875/125/2 879/124/2
f 874/126/10 875/125/10 877/128/10 876/127/10
f 880/127/10 666/130/10 904/131/10 878/126/10
f 879/124/10 905/132/10 667/133/10 881/129/10
f 878/126/10 904/131/10 905/132/10 879/124/10
f 881/129/10 667/133/10 666/130/10 880/127/10
f 878/126/8 874/126/8 876/127/8 880/127/8
f 887/124/6 883/125/6 882/126/6 886/126/6
f 888/127/9 884/127/9 885/128/9 889/129/9
f 889/129/2 885/128/2 883/125/2 887/124/2
f 882/126/10 883/125/10 885/128/10 884/127/10
f 888/127/10 722/130/10 902/131/10 886/126/10
f 887/124/10 903/132/10 723/133/10 889/129/10
f 886/126/10 902/131/10 903/132/10 887/124/10
f 889/129/10 723/133/10 722/130/10 888/127/10
f 886/126/8 882/126/8 884/127/8 888/127/8
f 895/124/6 891/125/6 890/126/6 894/126/6
f 896/127/9 892/127/9 893/128/9 897/129/9
f 897/129/2 893/128/2 891/125/2 895/124/2
f 890/126/10 891/125/10 893/128/10 892/127/10
f 896/127/10 782/130/10 900/131/10 894/126/10
f 895/124/10 901/132/10 783/133/10 897/129/10
f 894/126/10 900/131/10 901/132/10 895/124/10
f 897/129/10 783/133/10 782/130/10 896/127/10
f 894/126/8 890/126/8 892/127/8 896/127/8
f 913/136/10 911/139/10 908/138/10 909/137/10
f 915/25/19 913/28/19 909/27/19 910/24/19
f 535/23/6 917/26/6 915/25/6 910/24/6
f 913/136/10 914/137/10 912/138/10 911/139/10
f 915/25/19 916/24/19 914/27/19 913/28/19
f 918/23/6 916/24/6 915/25/6 917/26/6
f 921/136/10 919/139/10 912/138/10 914/137/10
f 923/25/19 921/28/19 914/27/19 916/24/19
f 918/23/6 925/26/6 923/25/6 916/24/6
f 921/136/10 922/137/10 920/138/10 919/139/10
f 923/25/19 924/24/19 922/27/19 921/28/19
f 926/23/6 924/24/6 923/25/6 925/26/6
f 929/136/10 927/139/10 920/138/10 922/137/10
f 931/25/21 929/28/21 922/27/21 924/24/21
f 926/23/6 933/26/6 931/25/6 924/24/6
f 929/136/10 930/137/10 928/138/10 927/139/10
f 931/25/21 932/24/21 930/27/21 929/28/21
f 934/23/6 932/24/6 931/25/6 933/26/6
f 937/136/10 935/139/10 928/138/10 930/137/10
f 940/25/21 937/28/21 930/27/21 932/24/21
f 934/23/6 942/26/6 940/25/6 932/24/6
f 936/140/23 939/144/23 944/143/23 954/142/23 952/141/23
f 937/136/10 938/137/10 936/138/10 935/139/10
f 940/25/21 941/24/21 938/27/21 937/28/21
f 943/23/6 941/24/6 940/25/6 942/26/6
f 939/92/2 943/92/2 945/92/2 944/92/2
f 944/96/22 945/4/22 953/94/22
f 944/93/22 953/146/22 954/145/22
f 951/147/4 935/150/4 936/149/4 952/148/4
f 950/147/4 928/150/4 935/149/4 951/148/4
f 949/147/4 927/150/4 928/149/4 950/148/4
f 948/147/4 920/150/4 927/149/4 949/148/4
f 947/147/4 919/150/4 920/149/4 948/148/4
f 946/147/4 912/150/4 919/149/4 947/148/4
f 936/151/2 938/155/2 941/154/2 943/153/2 939/152/2
f 958/126/8 962/126/8 960/127/8 956/127/8
f 955/129/10 1049/133/10 1048/130/10 956/127/10
f 958/126/10 943/131/10 942/132/10 957/124/10
f 957/124/10 942/132/10 1049/133/10 955/129/10
f 956/127/10 1048/130/10 943/131/10 958/126/10
f 962/126/10 961/125/10 959/128/10 960/127/10
f 955/129/2 959/128/2 961/125/2 957/124/2
f 956/127/9 960/127/9 959/128/9 955/129/9
f 957/124/6 961/125/6 962/126/6 958/126/6
f 966/126/8 970/126/8 968/127/8 964/127/8
f 963/129/10 1041/133/10 1040/130/10 964/127/10
f 966/126/10 934/131/10 933/132/10 965/124/10
f 965/124/10 933/132/10 1041/133/10 963/129/10
f 964/127/10 1040/130/10 934/131/10 966/126/10
f 970/126/10 969/125/10 967/128/10 968/127/10
f 963/129/2 967/128/2 969/125/2 965/124/2
f 964/127/9 968/127/9 967/128/9 963/129/9
f 965/124/6 969/125/6 970/126/6 966/126/6
f 974/126/8 978/126/8 976/127/8 972/127/8
f 971/129/10 1033/133/10 1032/130/10 972/127/10
f 974/126/10 926/131/10 925/132/10 973/124/10
f 973/124/10 925/132/10 1033/133/10 971/129/10
f 972/127/10 1032/130/10 926/131/10 974/126/10
f 978/126/10 977/125/10 975/128/10 976/127/10
f 971/129/2 975/128/2 977/125/2 973/124/2
f 972/127/9 976/127/9 975/128/9 971/129/9
f 973/124/6 977/125/6 978/126/6 974/126/6
f 982/126/8 986/126/8 984/127/8 980/127/8
f 979/129/10 1025/133/10 1024/130/10 980/127/10
f 982/126/10 918/131/10 917/132/10 981/124/10
f 981/124/10 917/132/10 1025/133/10 979/129/10
f 980/127/10 1024/130/10 918/131/10 982/126/10
f 986/126/10 985/125/10 983/128/10 984/127/10
f 979/129/2 983/128/2 985/125/2 981/124/2
f 980/127/9 984/127/9 983/128/9 979/129/9
f 981/124/6 985/125/6 986/126/6 982/126/6
f 1054/93/22 898/95/22 953/94/22 945/4/22
f 1048/134/2 1054/134/2 945/135/2 943/135/2
f 990/126/2 988/127/2 992/127/2 994/126/2
f 987/129/10 988/127/10 575/130/10 1025/133/10
f 990/126/10 989/124/10 917/132/10 535/131/10
f 989/124/10 987/129/10 1025/133/10 917/132/10
f 988/127/10 990/126/10 535/131/10 575/130/10
f 994/126/10 992/127/10 991/128/10 993/125/10
f 987/129/8 989/124/8 993/125/8 991/128/8
f 988/127/9 987/129/9 991/128/9 992/127/9
f 989/124/6 990/126/6 994/126/6 993/125/6
f 998/126/2 996/127/2 1000/127/2 1002/126/2
f 995/129/10 996/127/10 1024/130/10 1033/133/10
f 998/126/10 997/124/10 925/132/10 918/131/10
f 997/124/10 995/129/10 1033/133/10 925/132/10
f 996/127/10 998/126/10 918/131/10 1024/130/10
f 1002/126/10 1000/127/10 999/128/10 1001/125/10
f 995/129/8 997/124/8 1001/125/8 999/128/8
f 996/127/9 995/129/9 999/128/9 1000/127/9
f 997/124/6 998/126/6 1002/126/6 1001/125/6
f 1006/126/2 1004/127/2 1008/127/2 1010/126/2
f 1003/129/10 1004/127/10 1032/130/10 1041/133/10
f 1006/126/10 1005/124/10 933/132/10 926/131/10
f 1005/124/10 1003/129/10 1041/133/10 933/132/10
f 1004/127/10 1006/126/10 926/131/10 1032/130/10
f 1010/126/10 1008/127/10 1007/128/10 1009/125/10
f 1003/129/8 1005/124/8 1009/125/8 1007/128/8
f 1004/127/9 1003/129/9 1007/128/9 1008/127/9
f 1005/124/6 1006/126/6 1010/126/6 1009/125/6
f 1014/126/2 1012/127/2 1016/127/2 1018/126/2
f 1011/129/10 1012/127/10 1040/130/10 1049/133/10
f 1014/126/10 1013/124/10 942/132/10 934/131/10
f 1013/124/10 1011/129/10 1049/133/10 942/132/10
f 1012/127/10 1014/126/10 934/131/10 1040/130/10
f 1018/126/10 1016/127/10 1015/128/10 1017/125/10
f 1011/129/8 1013/124/8 1017/125/8 1015/128/8
f 1012/127/9 1011/129/9 1015/128/9 1016/127/9
f 1013/124/6 1014/126/6 1018/126/6 1017/125/6
f 536/23/6 907/26/6 1023/25/6 1019/24/6
f 1023/25/19 1027/28/19 1020/27/19 1019/24/19
f 1027/29/10 1029/32/10 1021/31/10 1020/30/10
f 575/33/9 1021/36/9 1029/35/9 1025/34/9
f 906/23/6 1022/24/6 1023/25/6 907/26/6
f 1023/25/19 1022/24/19 1026/27/19 1027/28/19
f 1027/29/10 1026/30/10 1028/31/10 1029/32/10
f 1024/33/9 1025/34/9 1029/35/9 1028/36/9
f 906/23/6 905/26/6 1031/25/6 1022/24/6
f 1031/25/19 1035/28/19 1026/27/19 1022/24/19
f 1035/29/10 1037/32/10 1028/31/10 1026/30/10
f 1024/33/9 1028/36/9 1037/35/9 1033/34/9
f 904/23/6 1030/24/6 1031/25/6 905/26/6
f 1031/25/19 1030/24/19 1034/27/19 1035/28/19
f 1035/29/10 1034/30/10 1036/31/10 1037/32/10
f 1032/33/9 1033/34/9 1037/35/9 1036/36/9
f 904/23/6 903/26/6 1039/25/6 1030/24/6
f 1039/25/21 1043/28/21 1034/27/21 1030/24/21
f 1043/29/10 1045/32/10 1036/31/10 1034/30/10
f 1032/33/9 1036/36/9 1045/35/9 1041/34/9
f 902/23/6 1038/24/6 1039/25/6 903/26/6
f 1039/25/21 1038/24/21 1042/27/21 1043/28/21
f 1043/29/10 1042/30/10 1044/31/10 1045/32/10
f 1040/33/9 1041/34/9 1045/35/9 1044/36/9
f 902/23/6 901/26/6 1047/25/6 1038/24/6
f 1047/25/21 1051/28/21 1042/27/21 1038/24/21
f 1051/29/10 1053/32/10 1044/31/10 1042/30/10
f 1040/33/9 1044/36/9 1053/35/9 1049/34/9
f 900/23/6 1046/24/6 1047/25/6 901/26/6
f 1047/25/21 1046/24/21 1050/27/21 1051/28/21
f 1051/29/10 1050/30/10 1052/31/10 1053/32/10
f 1048/33/9 1049/34/9 1053/35/9 1052/36/9
f 900/92/2 899/92/2 1054/92/2 1048/92/2
f 1054/96/22 899/4/22 898/94/22
f 900/119/2 1048/123/2 1052/122/2 1050/121/2 1046/120/2
f 842/156/10 841/102/10 1056/99/10
f 838/105/10 1056/103/10 1055/158/10 839/157/10
f 7/159/2 6/6/2 421/160/2 41/161/2
f 6/1/2 5/2/2 422/162/2 421/163/2
f 5/1/2 4/2/2 423/162/2 422/163/2
f 4/1/2 3/2/2 424/162/2 423/163/2
f 3/1/2 2/2/2 425/162/2 424/163/2
f 2/1/2 1/2/2 426/162/2 425/163/2
f 1/1/2 428/2/2 429/164/2 427/162/2 426/163/2
f 1065/1/1 1067/2/1 1066/3/1 1064/4/1
f 1067/1/1 1069/2/1 1068/3/1 1066/4/1
f 1069/1/1 14/165/1 13/166/1 1068/4/1
f 857/1/1 1070/2/1 1059/3/1 858/4/1
f 1070/1/1 1071/2/1 1061/3/1 1059/4/1
f 1071/1/1 1072/2/1 1063/3/1 1061/4/1
f 1072/1/1 1073/2/1 1065/3/1 1063/4/1
f 1073/1/1 1074/2/1 1067/3/1 1065/4/1
f 1074/1/1 1075/2/1 1069/3/1 1067/4/1
f 1075/1/1 27/167/1 14/168/1 1069/4/1
f 856/1/1 1058/2/1 1076/3/1 898/4/1
f 1058/1/1 1060/2/1 1077/3/1 1076/4/1
f 1060/1/1 1062/2/1 1078/3/1 1077/4/1
f 1062/1/1 1064/2/1 1079/3/1 1078/4/1
f 1064/1/1 1066/2/1 1080/3/1 1079/4/1
f 1066/1/1 1068/2/1 1081/3/1 1080/4/1
f 1068/1/1 13/169/1 34/170/1 1081/4/1
f 898/1/1 1076/2/1 1057/3/1 953/4/1
f 1076/1/1 1077/2/1 8/3/1 1057/4/1
f 1077/1/1 1078/2/1 9/3/1 8/4/1
f 1078/1/1 1079/2/1 10/3/1 9/4/1
f 1079/1/1 1080/2/1 11/3/1 10/4/1
f 1080/1/1 1081/2/1 12/3/1 11/4/1
f 1081/1/1 34/171/1 7/172/1 12/4/1
f 953/1/1 1057/2/1 951/162/1 952/163/1 954/173/1
f 1057/1/1 8/2/1 950/162/1 951/163/1
f 8/1/1 9/2/1 949/162/1 950/163/1
f 9/1/1 10/2/1 948/162/1 949/163/1
f 10/1/1 11/2/1 947/162/1 948/163/1
f 11/1/1 12/2/1 946/162/1 947/163/1
f 12/1/1 7/174/1 41/175/1 946/163/1
l 307 308
l 834 835
