# Blender 5.1.1
# www.blender.org
mtllib PBP1_Corner2_2sided_2.mtl
o PBP1_Corner2_2sided_2
v 2.730589 9.342352 2.751650
v 4.509618 -3.399388 6.246687
v 4.509618 -0.238565 6.246687
v 4.509618 -0.238565 6.404006
v 4.509618 -0.050195 6.246687
v 4.509618 -0.134173 6.493266
v 4.509618 -0.050195 6.493266
v 4.509618 -6.748582 6.246687
v 4.509618 -3.587759 6.246687
v 4.509618 -3.587759 6.404006
v 4.509618 -3.483367 6.493266
v 4.509618 -3.399388 6.504334
v 4.509618 -5.969506 6.246687
v 2.798252 -5.969506 6.246687
v 2.798252 -4.152063 6.246687
v 3.794182 -4.152063 6.246687
v 3.794182 -5.969506 6.246687
v 3.794182 -6.748582 6.246687
v 2.798252 -6.748582 6.246687
v 2.798252 -5.969506 6.082283
v 2.798252 -4.152063 6.082283
v 3.794182 -4.152063 6.082283
v 3.794182 -5.969506 6.082283
v 2.760433 -0.847054 6.246687
v 3.832000 -0.847054 6.246687
v 2.760433 -2.599760 6.246687
v 3.832000 -2.599760 6.246687
v 2.760432 -0.847054 6.082283
v 3.832000 -0.847054 6.082283
v 2.760432 -2.599760 6.082283
v 3.832000 -2.599760 6.082283
v -0.343993 -3.399388 6.246689
v 2.082813 -3.399388 6.246688
v -0.343993 -0.238565 6.246689
v 2.082813 -0.238565 6.246688
v -0.343993 -0.238565 6.404007
v 2.082813 -0.238565 6.404006
v -0.343993 -0.050195 6.246689
v 2.082813 -0.050195 6.246688
v -0.343993 -0.134173 6.493268
v 2.082813 -0.134173 6.493266
v -0.343993 -0.050195 6.493268
v 2.082813 -0.050195 6.493266
v -0.343993 -6.748582 6.246689
v 2.082813 -6.748582 6.246688
v -0.343993 -3.587759 6.246689
v 2.082813 -3.587759 6.246688
v -0.343993 -3.587759 6.404007
v 2.082813 -3.587759 6.404006
v -0.343993 -3.483367 6.493268
v 2.082813 -3.483367 6.493266
v -0.343993 -3.399388 6.504336
v 2.082813 -3.399388 6.504334
v -0.343993 -5.969506 6.246689
v 2.082813 -5.969506 6.246688
v 1.367376 -5.969506 6.246688
v 1.367376 -4.152063 6.246688
v 0.371444 -4.152063 6.246689
v 0.371444 -5.969506 6.246689
v 0.371444 -6.748582 6.246689
v 1.367376 -6.748582 6.246688
v 1.367376 -5.969506 6.082283
v 1.367376 -4.152063 6.082283
v 0.371444 -4.152063 6.082284
v 0.371444 -5.969506 6.082284
v 1.405194 -0.847054 6.246688
v 0.333627 -0.847054 6.246689
v 1.405194 -2.599760 6.246688
v 0.333627 -2.599760 6.246689
v 1.405194 -2.599760 6.082283
v 0.333627 -2.599760 6.082283
v 1.405194 -0.847054 6.082283
v 0.333627 -0.847054 6.082283
v -2.055361 -5.969506 6.246689
v -2.055361 -4.152063 6.246689
v -1.059431 -4.152063 6.246689
v -1.059431 -5.969506 6.246689
v -1.059431 -6.748582 6.246689
v -2.055361 -6.748582 6.246689
v -2.055362 -5.969506 6.082284
v -2.055362 -4.152063 6.082284
v -1.059431 -4.152063 6.082284
v -1.059431 -5.969506 6.082284
v -2.093179 -0.847054 6.246689
v -1.021614 -0.847054 6.246689
v -2.093179 -2.599760 6.246689
v -1.021614 -2.599760 6.246689
v -2.093179 -0.847054 6.082284
v -1.021612 -0.847054 6.082284
v -2.093179 -2.599760 6.082284
v -1.021612 -2.599760 6.082284
v -2.770801 -3.399388 6.246689
v -2.770801 -0.238565 6.246689
v -2.770801 -0.238565 6.404007
v -2.770799 -0.050195 6.246689
v -2.770801 -0.134173 6.493268
v -2.770799 -0.050195 6.493268
v -2.770801 -6.748582 6.246689
v -2.770801 -3.587759 6.246689
v -2.770801 -3.587759 6.404007
v -2.770801 -3.483367 6.493268
v -2.770799 -3.399388 6.504335
v -2.770801 -5.969506 6.246689
v -2.975902 -5.969506 6.246690
v -2.975902 -4.152062 6.246690
v -4.992506 -4.152062 6.246690
v -4.992506 -5.969506 6.246690
v -4.992506 -6.748582 6.246690
v -2.975902 -6.748582 6.246690
v -3.448419 -0.847054 6.246690
v -4.519987 -0.847054 6.246690
v -3.448419 -2.599760 6.246690
v -4.519987 -2.599760 6.246690
v -3.448420 -2.599760 6.082284
v -4.519987 -2.599760 6.082284
v -3.448420 -0.847054 6.082284
v -4.519987 -0.847054 6.082284
v -5.197589 -3.399388 6.246693
v -5.197589 -0.238565 6.246693
v -5.197589 -0.238565 6.404011
v -5.197589 -0.050195 6.246693
v -5.197589 -0.134173 6.493271
v -5.197589 -0.050195 6.493271
v -5.197589 -6.748582 6.246693
v -5.197589 -3.587759 6.246693
v -5.197589 -3.587759 6.404011
v -5.197589 -3.483367 6.493271
v -5.197589 -3.399388 6.504339
v -5.197589 -5.969506 6.246693
v -6.908959 -5.969506 6.246692
v -6.908959 -4.152063 6.246692
v -5.913025 -4.152063 6.246692
v -5.913025 -5.969506 6.246692
v -5.913025 -6.748582 6.246692
v -6.908959 -6.748582 6.246692
v -6.908959 -5.969506 6.082288
v -6.908959 -4.152063 6.082288
v -5.913025 -4.152063 6.082287
v -5.913025 -5.969506 6.082287
v -6.946777 -0.847054 6.246692
v -5.875208 -0.847054 6.246692
v -6.946777 -2.599760 6.246692
v -5.875208 -2.599760 6.246692
v -6.946777 -0.847054 6.082288
v -5.875208 -0.847054 6.082287
v -6.946777 -2.599760 6.082288
v -5.875208 -2.599760 6.082287
v -10.047138 -3.399389 6.246694
v -7.624399 -3.399388 6.246692
v -10.047138 -0.238565 6.246694
v -7.624399 -0.238565 6.246692
v -10.047138 -0.238565 6.404013
v -7.624399 -0.238565 6.404011
v -10.047138 -0.050195 6.246694
v -7.624399 -0.050195 6.246692
v -10.047138 -0.134173 6.493273
v -7.624399 -0.134173 6.493270
v -10.047138 -0.050195 6.493273
v -7.624399 -0.050195 6.493270
v -10.047138 -6.748583 6.246694
v -7.624399 -6.748582 6.246692
v -10.047138 -3.587759 6.246694
v -7.624399 -3.587759 6.246692
v -10.047138 -3.587759 6.404013
v -7.624399 -3.587759 6.404011
v -10.047138 -3.483367 6.493273
v -7.624399 -3.483367 6.493270
v -10.047138 -3.399389 6.504341
v -7.624399 -3.399388 6.504339
v -10.047138 -5.969507 6.246694
v -7.624399 -5.969506 6.246692
v -8.339835 -5.969506 6.246693
v -8.339835 -4.152063 6.246693
v -9.335765 -4.152063 6.246693
v -9.335765 -5.969506 6.246693
v -9.335765 -6.748582 6.246693
v -8.339835 -6.748582 6.246693
v -8.339835 -5.969506 6.082288
v -8.339835 -4.152063 6.082288
v -9.335765 -4.152063 6.082289
v -9.335765 -5.969506 6.082289
v -8.302017 -0.847054 6.246693
v -9.373582 -0.847054 6.246693
v -8.302017 -2.599760 6.246693
v -9.373582 -2.599760 6.246693
v -8.302017 -2.599760 6.082288
v -9.373582 -2.599760 6.082287
v -8.302017 -0.847054 6.082288
v -9.373582 -0.847054 6.082287
v -5.928612 2.459897 6.101419
v -6.852761 2.459897 6.101419
v -5.928612 0.663938 6.101419
v -6.852761 0.663938 6.101419
v -5.928612 2.459897 6.246688
v -6.852761 2.459897 6.246688
v -5.928612 0.663938 6.246688
v -6.852761 0.663938 6.246688
v 4.509626 -0.238565 6.164788
v 4.509626 -0.050195 6.164788
v -2.975902 -5.969506 6.065489
v -2.975902 -4.152062 6.065489
v -4.992506 -4.152062 6.065490
v -4.992506 -5.969506 6.065490
v -4.992506 -6.748582 6.065490
v -2.975902 -6.748582 6.065489
v -1.075019 2.459897 6.101417
v -1.999169 2.459897 6.101416
v -1.075019 0.663938 6.101417
v -1.999169 0.663938 6.101416
v -1.075019 2.459897 6.246685
v -1.999169 2.459897 6.246684
v -1.075019 0.663938 6.246685
v -1.999169 0.663938 6.246684
v 3.778584 2.459897 6.101413
v -10.047137 -0.238565 2.751643
v -10.047137 -6.748586 2.751643
v -10.047137 -3.587761 2.751643
v 2.854435 2.459897 6.101413
v 3.778584 0.663938 6.101413
v 2.854435 0.663938 6.101413
v 3.778584 2.459897 6.246681
v 2.854435 2.459897 6.246681
v 3.778584 0.663938 6.246681
v 2.854435 0.663938 6.246681
v 0.387025 2.459897 6.101422
v 1.311174 2.459897 6.101422
v 0.387025 0.663938 6.101422
v 1.311174 0.663938 6.101422
v 0.387025 2.459897 6.246690
v 1.311174 2.459897 6.246690
v 0.387025 0.663938 6.246690
v 1.311174 0.663938 6.246690
v -4.466581 2.459897 6.101422
v -3.542430 2.459897 6.101421
v -4.466581 0.663938 6.101422
v -3.542430 0.663938 6.101421
v -4.466581 2.459897 6.246690
v -3.542430 2.459897 6.246690
v -4.466581 0.663938 6.246690
v -3.542430 0.663938 6.246690
v -9.320170 2.459897 6.101425
v -8.396022 2.459897 6.101425
v -9.320170 0.663938 6.101425
v -8.396022 0.663938 6.101425
v -9.320170 2.459897 6.246693
v -8.396022 2.459897 6.246693
v -9.320170 0.663938 6.246693
v -8.396022 0.663938 6.246693
v -10.047137 3.110630 2.751643
v -10.047138 3.110630 6.246694
v -7.624399 3.110630 6.246692
v -5.197589 3.110630 6.246693
v -2.770801 3.110630 6.246689
v -0.343993 3.110630 6.246689
v 2.082813 3.110630 6.246688
v 4.509618 3.110630 6.246687
v 4.509618 6.648194 6.493266
v 4.509618 6.564215 6.493266
v 4.509618 6.459824 6.404006
v 4.509618 6.459824 6.246687
v 2.082813 6.648194 6.493266
v -0.343993 6.648194 6.493268
v 2.082813 6.564215 6.493266
v -0.343993 6.564215 6.493268
v 2.082813 6.459824 6.404006
v -0.343993 6.459824 6.404007
v 2.082813 6.459824 6.246688
v -0.343993 6.459824 6.246689
v -2.770799 6.648194 6.493268
v -2.770801 6.564215 6.493268
v -2.770801 6.459824 6.404007
v -2.770801 6.459824 6.246689
v -5.197589 6.648194 6.493271
v -5.197589 6.564215 6.493271
v -5.197589 6.459824 6.404011
v -5.197589 6.459824 6.246693
v -7.624399 6.648194 6.493270
v -10.047138 6.648194 6.493273
v -7.624399 6.564215 6.493270
v -10.047138 6.564216 6.493273
v -10.047138 6.648194 6.246694
v -7.624399 6.459824 6.404011
v -10.047138 6.459824 6.404013
v -7.624399 6.459824 6.246692
v -10.047138 6.459824 6.246694
v -0.339170 9.342351 2.751643
v -2.765980 9.342351 2.751643
v -5.192770 9.342351 2.751643
v -7.619580 9.342351 2.751643
v -10.047137 9.342352 2.751643
v -10.047137 6.459824 2.751643
v -10.047137 9.121923 2.751643
v -8.396022 4.013133 6.246693
v -9.320170 4.013133 6.246693
v -8.396022 5.809091 6.246693
v -9.320170 5.809091 6.246693
v -8.396022 4.013133 6.101425
v -9.320170 4.013133 6.101425
v -8.396022 5.809091 6.101425
v -9.320170 5.809091 6.101425
v -3.542430 4.013133 6.246690
v -4.466581 4.013133 6.246690
v -3.542430 5.809091 6.246690
v -4.466581 5.809091 6.246690
v -3.542430 4.013133 6.101421
v -4.466581 4.013133 6.101422
v -3.542430 5.809091 6.101421
v -4.466581 5.809091 6.101422
v 1.311174 4.013133 6.246690
v 0.387025 4.013133 6.246690
v 1.311174 5.809091 6.246690
v 0.387025 5.809091 6.246690
v 1.311174 4.013133 6.101422
v 0.387025 4.013133 6.101422
v 1.311174 5.809091 6.101422
v 0.387025 5.809091 6.101422
v 2.854435 4.013133 6.246681
v 3.778584 4.013133 6.246681
v 2.854435 5.809091 6.246681
v 3.778584 5.809091 6.246681
v 2.854435 4.013133 6.101413
v 3.778584 4.013133 6.101413
v 2.854435 5.809091 6.101413
v 3.778584 5.809091 6.101413
v -1.999169 4.013133 6.246684
v -1.075019 4.013133 6.246685
v -1.999169 5.809091 6.246684
v -1.075019 5.809091 6.246685
v -1.999169 4.013133 6.101416
v -1.075019 4.013133 6.101417
v -1.999169 5.809091 6.101416
v -1.075019 5.809091 6.101417
v -6.852761 4.013133 6.246688
v -5.928612 4.013133 6.246688
v -6.852761 5.809091 6.246688
v -5.928612 5.809091 6.246688
v -6.852761 4.013133 6.101419
v -5.928612 4.013133 6.101419
v -6.852761 5.809091 6.101419
v -5.928612 5.809091 6.101419
v 4.509618 3.110629 6.404006
v 4.509618 3.299000 6.246687
v 4.509618 3.215021 6.493266
v 4.509618 3.299000 6.493266
v -0.343993 3.110629 6.404007
v 2.082813 3.110629 6.404006
v -0.343993 3.299000 6.246689
v 2.082813 3.299000 6.246688
v -0.343993 3.215021 6.493268
v 2.082813 3.215021 6.493266
v -0.343993 3.299000 6.493268
v 2.082813 3.299000 6.493266
v -2.770801 3.110629 6.404007
v -2.770799 3.299000 6.246689
v -2.770801 3.215021 6.493268
v -2.770799 3.299000 6.493268
v -5.197589 3.110629 6.404011
v -5.197589 3.299000 6.246693
v -5.197589 3.215021 6.493271
v -5.197589 3.299000 6.493271
v -10.047138 3.110629 6.404013
v -7.624399 3.110629 6.404011
v -10.047138 3.299000 6.246694
v -7.624399 3.299000 6.246692
v -10.047138 3.215021 6.493273
v -7.624399 3.215021 6.493270
v -10.047138 3.299000 6.493273
v -7.624399 3.299000 6.493270
v -3.984202 -4.152062 6.065490
v -3.984202 -6.748582 6.065490
v 5.026530 4.013133 5.729781
v 5.680004 4.013133 5.076307
v 6.225634 6.459825 4.530676
v 6.225634 3.110630 4.530676
v 5.680004 0.663938 5.076307
v 5.026530 0.663938 5.729781
v 5.680004 2.459898 5.076307
v 5.026530 2.459898 5.729781
v 5.577282 0.663938 4.973587
v 4.923813 0.663938 5.627060
v 5.577282 2.459898 4.973587
v 4.923813 2.459898 5.627060
v 4.872520 -0.847054 5.651284
v 5.630232 -0.847054 4.893572
v 4.872520 -2.599760 5.651284
v 5.630232 -2.599760 4.893572
v 4.988773 -2.599760 5.767538
v 5.746485 -2.599760 5.009825
v 4.988773 -0.847054 5.767538
v 5.746485 -0.847054 5.009825
v 4.899262 -5.969507 5.624545
v 4.899262 -4.152063 5.624545
v 5.603491 -4.152063 4.920314
v 5.603491 -5.969507 4.920314
v 5.719742 -6.748583 5.036566
v 5.015513 -6.748583 5.740797
v 5.015513 -5.969507 5.740797
v 5.015513 -4.152063 5.740797
v 5.719742 -4.152063 5.036566
v 5.719742 -5.969507 5.036566
v 6.225634 -5.969507 4.530676
v 6.225634 -3.587759 4.530676
v 6.225634 -6.748583 4.530676
v 6.225634 -0.050195 4.530676
v 6.225634 -0.238565 4.530676
v 6.225634 -3.399389 4.530676
v 5.680004 5.809092 5.076307
v 5.026530 5.809092 5.729781
v 5.577282 4.013133 4.973587
v 4.923813 4.013133 5.627060
v 5.577282 5.809092 4.973587
v 4.923813 5.809092 5.627060
v 6.225634 3.299000 4.530676
v 6.382954 -0.238565 4.530676
v 6.472213 -0.134173 4.530676
v 6.472213 -0.050194 4.530676
v 6.382954 -3.587758 4.530676
v 6.472213 -3.483366 4.530676
v 6.483282 -3.399388 4.530676
v 6.225634 -5.969506 2.819310
v 6.225634 -4.152062 2.819310
v 6.225636 -4.152062 3.815239
v 6.225636 -5.969506 3.815239
v 6.225636 -6.748582 3.815239
v 6.225634 -6.748582 2.819310
v 6.061230 -5.969506 2.819310
v 6.061230 -4.152062 2.819310
v 6.061231 -4.152062 3.815240
v 6.061231 -5.969506 3.815240
v 6.225634 -0.847054 2.781490
v 6.225636 -0.847054 3.853057
v 6.225634 -2.599759 2.781490
v 6.225636 -2.599759 3.853057
v 6.061230 -0.847054 2.781491
v 6.061231 -0.847054 3.853057
v 6.061230 -2.599759 2.781491
v 6.061231 -2.599759 3.853057
v 6.225635 -3.399388 -0.322935
v 6.225633 -3.399388 2.103870
v 6.225635 -0.238564 -0.322935
v 6.225633 -0.238564 2.103870
v 6.382952 -0.238565 -0.322935
v 6.382953 -0.238565 2.103870
v 6.225635 -0.050194 -0.322935
v 6.225633 -0.050194 2.103870
v 6.472211 -0.134173 -0.322936
v 6.472212 -0.134173 2.103870
v 6.472211 -0.050194 -0.322936
v 6.472212 -0.050194 2.103870
v 6.225635 -6.748582 -0.322935
v 6.225633 -6.748582 2.103870
v 6.225635 -3.587758 -0.322935
v 6.225633 -3.587758 2.103870
v 6.382952 -3.587758 -0.322935
v 6.382953 -3.587758 2.103870
v 6.472211 -3.483366 -0.322936
v 6.472212 -3.483366 2.103870
v 6.483281 -3.399388 -0.322936
v 6.483279 -3.399388 2.103870
v 6.225635 -5.969506 -0.322935
v 6.225633 -5.969506 2.103870
v 6.225633 -5.969506 1.388434
v 6.225633 -4.152062 1.388434
v 6.225635 -4.152062 0.392501
v 6.225635 -5.969506 0.392501
v 6.225635 -6.748582 0.392501
v 6.225633 -6.748582 1.388434
v 6.061230 -5.969506 1.388434
v 6.061230 -4.152062 1.388434
v 6.061229 -4.152062 0.392501
v 6.061229 -5.969506 0.392501
v 6.225633 -0.847054 1.426251
v 6.225635 -0.847054 0.354684
v 6.225633 -2.599759 1.426251
v 6.225635 -2.599759 0.354684
v 6.061228 -2.599759 1.426251
v 6.061227 -2.599759 0.354684
v 6.061228 -0.847054 1.426251
v 6.061227 -0.847054 0.354684
v 6.225632 -5.969506 -2.034305
v 6.225632 -4.152062 -2.034305
v 6.225632 -4.152062 -1.038373
v 6.225632 -5.969506 -1.038373
v 6.225632 -6.748582 -1.038375
v 6.225632 -6.748582 -2.034305
v 6.061227 -5.969506 -2.034305
v 6.061227 -4.152062 -2.034305
v 6.061229 -4.152062 -1.038373
v 6.061229 -5.969506 -1.038373
v 6.225632 -0.847054 -2.072123
v 6.225632 -0.847054 -1.000556
v 6.225632 -2.599759 -2.072123
v 6.225632 -2.599759 -1.000556
v 6.061227 -0.847054 -2.072122
v 6.061229 -0.847054 -1.000555
v 6.061227 -2.599759 -2.072122
v 6.061229 -2.599759 -1.000555
v 6.225633 -3.399388 -5.176549
v 6.225632 -3.399388 -2.749744
v 6.225633 -0.238564 -5.176549
v 6.225632 -0.238564 -2.749744
v 6.382950 -0.238565 -5.176549
v 6.382951 -0.238565 -2.749744
v 6.225633 -0.050194 -5.176549
v 6.225632 -0.050194 -2.749742
v 6.472209 -0.134173 -5.176549
v 6.472210 -0.134173 -2.749744
v 6.472209 -0.050194 -5.176549
v 6.472210 -0.050194 -2.749742
v 6.225633 -6.748582 -5.176549
v 6.225632 -6.748582 -2.749744
v 6.225633 -3.587758 -5.176549
v 6.225632 -3.587758 -2.749744
v 6.382950 -3.587758 -5.176549
v 6.382951 -3.587758 -2.749744
v 6.472209 -3.483366 -5.176549
v 6.472210 -3.483366 -2.749744
v 6.483279 -3.399388 -5.176549
v 6.483278 -3.399388 -2.749742
v 6.225633 -5.969506 -5.176549
v 6.225632 -5.969506 -2.749744
v 6.225632 -5.969506 -2.954843
v 6.225632 -4.152062 -2.954843
v 6.225631 -4.152062 -4.971447
v 6.225631 -5.969506 -4.971447
v 6.225631 -6.748582 -4.971447
v 6.225632 -6.748582 -2.954843
v 6.225632 -0.847054 -3.427362
v 6.225633 -0.847054 -4.498928
v 6.225632 -2.599759 -3.427362
v 6.225633 -2.599759 -4.498928
v 6.061226 -2.599759 -3.427362
v 6.061226 -2.599759 -4.498928
v 6.061226 -0.847054 -3.427362
v 6.061226 -0.847054 -4.498928
v 6.225629 -5.969506 -6.887919
v 6.225629 -4.152062 -6.887919
v 6.225629 -4.152062 -5.891985
v 6.225629 -5.969506 -5.891985
v 6.225629 -6.748582 -5.891985
v 6.225629 -6.748582 -6.887919
v 6.061224 -5.969506 -6.887919
v 6.061224 -4.152062 -6.887919
v 6.061224 -4.152062 -5.891985
v 6.061224 -5.969506 -5.891985
v 6.225629 -0.847054 -6.925737
v 6.225629 -0.847054 -5.854168
v 6.225629 -2.599759 -6.925737
v 6.225629 -2.599759 -5.854168
v 6.061224 -0.847054 -6.925737
v 6.061224 -0.847054 -5.854168
v 6.061224 -2.599759 -6.925737
v 6.061224 -2.599759 -5.854168
v 6.225628 -3.399388 -10.029594
v 6.225629 -3.399388 -7.603358
v 6.225628 -0.238564 -10.029594
v 6.225629 -0.238564 -7.603358
v 6.382947 -0.238565 -10.029594
v 6.382946 -0.238565 -7.603358
v 6.225628 -0.050194 -10.029594
v 6.225629 -0.050194 -7.603358
v 6.472207 -0.134173 -10.029594
v 6.472208 -0.134173 -7.603358
v 6.472207 -0.050194 -10.029594
v 6.472208 -0.050194 -7.603358
v 6.225628 -6.748583 -10.029594
v 6.225628 -3.587759 -10.029594
v 6.225629 -3.587758 -7.603358
v 6.382947 -3.587759 -10.029594
v 6.382946 -3.587758 -7.603358
v 6.472207 -3.483367 -10.029594
v 6.472208 -3.483366 -7.603358
v 6.483274 -3.399388 -10.029594
v 6.483275 -3.399388 -7.603358
v 6.225628 -5.969507 -10.029594
v 6.225629 -5.969506 -7.603358
v 6.225628 -5.969506 -8.318794
v 6.225628 -4.152062 -8.318794
v 6.225628 -4.152062 -9.314726
v 6.225628 -5.969506 -9.314726
v 6.225628 -6.748582 -9.314726
v 6.225628 -6.748582 -8.318794
v 6.061223 -5.969506 -8.318794
v 6.061223 -4.152062 -8.318794
v 6.061223 -4.152062 -9.314726
v 6.061223 -5.969506 -9.314726
v 6.225628 -0.847054 -8.280977
v 6.225628 -0.847054 -9.352543
v 6.225628 -2.599759 -8.280977
v 6.225628 -2.599759 -9.352543
v 6.061223 -2.599759 -8.280977
v 6.061223 -2.599759 -9.352543
v 6.061223 -0.847054 -8.280977
v 6.061223 -0.847054 -9.352543
v 6.080357 2.459898 -5.907570
v 6.080356 2.459898 -6.831720
v 6.080357 0.663939 -5.907570
v 6.080356 0.663939 -6.831720
v 6.225625 2.459898 -5.907570
v 6.225625 2.459898 -6.831720
v 6.225625 0.663939 -5.907570
v 6.225625 0.663939 -6.831720
v 2.730588 3.110630 -10.029598
v 2.730588 -3.587761 -10.029598
v 2.730588 -6.748586 -10.029598
v 2.730588 -0.238565 -10.029598
v 6.143734 -0.238564 4.530684
v 6.143734 -0.050194 4.530684
v 6.044432 -5.969506 -2.954842
v 6.044432 -4.152062 -2.954842
v 6.044431 -4.152062 -4.971447
v 6.044431 -5.969506 -4.971447
v 6.044431 -6.748582 -4.971447
v 6.044432 -6.748582 -2.954842
v 6.080359 2.459898 -1.053962
v 6.080359 2.459898 -1.978112
v 6.080359 0.663939 -1.053962
v 6.080359 0.663939 -1.978112
v 6.225628 2.459898 -1.053962
v 6.225628 2.459898 -1.978112
v 6.225628 0.663939 -1.053962
v 6.225628 0.663939 -1.978112
v 6.080359 2.459898 3.799642
v 6.080359 2.459898 2.875494
v 6.080359 0.663939 3.799642
v 6.080359 0.663939 2.875494
v 6.225628 2.459898 3.799642
v 6.225627 2.459898 2.875493
v 6.225628 0.663939 3.799642
v 6.225627 0.663939 2.875493
v 6.080368 2.459898 0.408082
v 6.080366 2.459898 1.332231
v 6.080368 0.663939 0.408082
v 6.080366 0.663939 1.332231
v 6.225635 2.459898 0.408082
v 6.225635 2.459898 1.332231
v 6.225635 0.663939 0.408082
v 6.225635 0.663939 1.332231
v 6.080364 2.459898 -4.445523
v 6.080363 2.459898 -3.521373
v 6.080364 0.663939 -4.445523
v 6.080363 0.663939 -3.521373
v 6.225631 2.459898 -4.445523
v 6.225632 2.459898 -3.521373
v 6.225631 0.663939 -4.445523
v 6.225632 0.663939 -3.521373
v 6.080359 2.459898 -9.299130
v 6.080359 2.459898 -8.374982
v 6.080359 0.663939 -9.299130
v 6.080359 0.663939 -8.374982
v 6.225628 2.459898 -9.299130
v 6.225628 2.459898 -8.374982
v 6.225628 0.663939 -9.299130
v 6.225628 0.663939 -8.374982
v 6.225628 3.110630 -10.029594
v 6.225629 3.110630 -7.603358
v 6.225633 3.110630 -5.176549
v 6.225632 3.110630 -2.749744
v 6.225635 3.110630 -0.322935
v 6.225633 3.110630 2.103870
v 6.472213 6.648194 4.530676
v 6.472213 6.564215 4.530676
v 6.382954 6.459824 4.530676
v 6.472212 6.648194 2.103870
v 6.472211 6.648194 -0.322936
v 6.472212 6.564215 2.103870
v 6.472211 6.564215 -0.322936
v 6.382953 6.459824 2.103870
v 6.382952 6.459824 -0.322935
v 6.225633 6.459824 2.103870
v 6.225635 6.459824 -0.322935
v 6.472210 6.648194 -2.749742
v 6.472209 6.648194 -5.176549
v 6.472210 6.564215 -2.749744
v 6.472209 6.564215 -5.176549
v 6.382951 6.459824 -2.749744
v 6.382950 6.459824 -5.176549
v 6.225632 6.459824 -2.749744
v 6.225633 6.459824 -5.176549
v 6.472208 6.648194 -7.603358
v 6.472207 6.648194 -10.029594
v 6.472208 6.564215 -7.603358
v 6.472207 6.564216 -10.029594
v 6.382946 6.459824 -7.603358
v 6.382947 6.459824 -10.029594
v 6.225629 6.459824 -7.603358
v 6.225628 6.459824 -10.029594
v 2.730588 9.342352 -0.318111
v 2.730585 9.342352 -2.744919
v 2.730584 9.342352 -5.171726
v 2.730580 9.342352 -7.598538
v 2.730577 9.342353 -10.029594
v 6.225628 4.013133 -8.374982
v 6.225628 4.013133 -9.299130
v 6.225628 5.809092 -8.374982
v 6.225628 5.809092 -9.299130
v 6.080359 4.013133 -8.374982
v 6.080359 4.013133 -9.299130
v 6.080359 5.809092 -8.374982
v 6.080359 5.809092 -9.299130
v 6.225632 4.013133 -3.521373
v 6.225631 4.013133 -4.445523
v 6.225632 5.809092 -3.521373
v 6.225631 5.809092 -4.445523
v 6.080363 4.013133 -3.521373
v 6.080364 4.013133 -4.445523
v 6.080363 5.809092 -3.521373
v 6.080364 5.809092 -4.445523
v 6.225635 4.013133 1.332231
v 6.225635 4.013133 0.408082
v 6.225635 5.809092 1.332231
v 6.225635 5.809092 0.408082
v 6.080366 4.013133 1.332231
v 6.080368 4.013133 0.408082
v 6.080366 5.809092 1.332231
v 6.080368 5.809092 0.408082
v 6.225627 4.013133 2.875493
v 6.225628 4.013133 3.799642
v 6.225627 5.809092 2.875493
v 6.225628 5.809092 3.799642
v 6.080359 4.013133 2.875494
v 6.080359 4.013133 3.799642
v 6.080359 5.809092 2.875494
v 6.080359 5.809092 3.799642
v 6.225628 4.013133 -1.978112
v 6.225628 4.013133 -1.053962
v 6.225628 5.809092 -1.978112
v 6.225628 5.809092 -1.053962
v 6.080359 4.013133 -1.978112
v 6.080359 4.013133 -1.053962
v 6.080359 5.809092 -1.978112
v 6.080359 5.809092 -1.053962
v 6.225625 4.013133 -6.831720
v 6.225625 4.013133 -5.907570
v 6.225625 5.809092 -6.831720
v 6.225625 5.809092 -5.907570
v 6.080356 4.013133 -6.831720
v 6.080357 4.013133 -5.907570
v 6.080356 5.809092 -6.831720
v 6.080357 5.809092 -5.907570
v 6.382954 3.110630 4.530676
v 6.472213 3.215021 4.530676
v 6.472213 3.299000 4.530676
v 6.382952 3.110630 -0.322935
v 6.382953 3.110630 2.103870
v 6.225635 3.299000 -0.322935
v 6.225633 3.299000 2.103870
v 6.472211 3.215021 -0.322936
v 6.472212 3.215021 2.103870
v 6.472211 3.299000 -0.322936
v 6.472212 3.299000 2.103870
v 6.382950 3.110630 -5.176549
v 6.382951 3.110630 -2.749744
v 6.225633 3.299000 -5.176549
v 6.225632 3.299000 -2.749742
v 6.472209 3.215021 -5.176549
v 6.472210 3.215021 -2.749744
v 6.472209 3.299000 -5.176549
v 6.472210 3.299000 -2.749742
v 6.382947 3.110630 -10.029594
v 6.382946 3.110630 -7.603358
v 6.225628 3.299001 -10.029594
v 6.225629 3.299000 -7.603358
v 6.472207 3.215022 -10.029594
v 6.472208 3.215021 -7.603358
v 6.472207 3.299001 -10.029594
v 6.472208 3.299000 -7.603358
v 6.044431 -4.152062 -3.963145
v 6.044431 -6.748582 -3.963145
v -7.614758 -3.399390 -0.743404
v -10.047138 -3.399390 -0.743403
v -7.614758 -0.238566 -0.743404
v -10.047138 -0.238566 -0.743403
v -7.614758 -0.238566 -0.900721
v -10.047138 -0.238566 -0.900721
v -7.614758 -0.050196 -0.743404
v -10.047138 -0.050196 -0.743403
v -7.614758 -0.134174 -0.989982
v -10.047138 -0.134175 -0.989981
v -7.614758 -0.050196 -0.989982
v -10.047138 -0.050196 -0.989981
v -7.614758 -6.748585 -0.743404
v -10.047138 -6.748586 -0.743403
v -7.614758 -3.587760 -0.743404
v -10.047138 -3.587761 -0.743403
v -7.614758 -3.587760 -0.900721
v -10.047138 -3.587761 -0.900721
v -7.614758 -3.483368 -0.989982
v -10.047138 -3.483369 -0.989981
v -7.614758 -3.399390 -1.001050
v -7.614758 -5.969507 -0.743404
v -10.047138 -5.969508 -0.743403
v -9.326128 -5.969507 -0.743403
v -9.326128 -4.152064 -0.743403
v -8.330195 -4.152064 -0.743403
v -8.330195 -5.969507 -0.743403
v -8.330195 -6.748585 -0.743403
v -9.326128 -6.748585 -0.743403
v -9.326128 -5.969507 -0.578997
v -9.326128 -4.152064 -0.578997
v -8.330195 -4.152064 -0.578998
v -8.330195 -5.969507 -0.578998
v -9.363945 -0.847055 -0.743403
v -8.292378 -0.847055 -0.743403
v -9.363945 -2.599761 -0.743403
v -8.292378 -2.599761 -0.743403
v -9.363945 -2.599761 -0.578997
v -8.292378 -2.599761 -0.578997
v -9.363945 -0.847055 -0.578997
v -8.292378 -0.847055 -0.578997
v -5.903389 -5.969507 -0.743403
v -5.903389 -4.152064 -0.743403
v -6.899319 -4.152064 -0.743403
v -6.899319 -5.969507 -0.743403
v -6.899319 -6.748585 -0.743403
v -5.903389 -6.748585 -0.743403
v -5.903389 -5.969507 -0.578998
v -5.903389 -4.152064 -0.578998
v -6.899319 -4.152064 -0.578998
v -6.899319 -5.969507 -0.578998
v -5.865571 -0.847055 -0.743403
v -6.937137 -0.847055 -0.743403
v -5.865571 -2.599761 -0.743403
v -6.937137 -2.599761 -0.743403
v -5.865571 -0.847055 -0.578998
v -6.937138 -0.847055 -0.578998
v -5.865571 -2.599761 -0.578998
v -6.937138 -2.599761 -0.578998
v -5.187950 -3.399390 -0.743403
v -5.187950 -0.238566 -0.743403
v -5.187950 -0.238566 -0.900721
v -5.187952 -0.050196 -0.743403
v -5.187950 -0.134174 -0.989981
v -5.187952 -0.050196 -0.989981
v -5.187950 -6.748585 -0.743403
v -5.187950 -3.587760 -0.743403
v -5.187950 -3.587760 -0.900721
v -5.187950 -3.483368 -0.989981
v -5.187952 -3.399390 -1.001050
v -5.187950 -5.969507 -0.743403
v -2.761160 -3.399390 -0.743406
v -2.761160 -0.238566 -0.743406
v -2.761160 -0.238566 -0.900724
v -2.761160 -0.050196 -0.743406
v -2.761160 -0.134174 -0.989984
v -2.761160 -0.050196 -0.989984
v -2.761160 -6.748585 -0.743406
v -2.761160 -3.587760 -0.743406
v -2.761160 -3.587760 -0.900724
v -2.761160 -3.483368 -0.989984
v -2.761160 -3.399390 -1.001052
v -2.761160 -5.969507 -0.743406
v -4.472531 -5.969507 -0.743405
v -4.472531 -4.152064 -0.743405
v -3.476600 -4.152064 -0.743405
v -3.476600 -5.969507 -0.743405
v -3.476600 -6.748585 -0.743405
v -4.472531 -6.748585 -0.743405
v -4.472530 -5.969507 -0.579000
v -4.472530 -4.152064 -0.579000
v -3.476600 -4.152064 -0.579001
v -3.476600 -5.969507 -0.579001
v -4.510348 -0.847055 -0.743405
v -3.438779 -0.847055 -0.743405
v -4.510348 -2.599761 -0.743405
v -3.438779 -2.599761 -0.743405
v -4.510348 -2.599761 -0.578999
v -3.438783 -2.599761 -0.578999
v -4.510348 -0.847055 -0.578999
v -3.438783 -0.847055 -0.578999
v -6.883730 2.459896 -0.598130
v -5.959581 2.459896 -0.598130
v -6.883730 0.663937 -0.598130
v -5.959581 0.663937 -0.598130
v -6.883731 2.459896 -0.743399
v -5.959582 2.459896 -0.743398
v -6.883731 0.663937 -0.743399
v -5.959582 0.663937 -0.743398
v -8.345777 2.459896 -0.598136
v -9.269925 2.459896 -0.598136
v -8.345777 0.663937 -0.598136
v -9.269925 0.663937 -0.598136
v -8.345777 2.459896 -0.743405
v -9.269925 2.459896 -0.743404
v -8.345777 0.663937 -0.743405
v -9.269925 0.663937 -0.743404
v -3.492187 2.459896 -0.598138
v -4.416336 2.459896 -0.598138
v -3.492187 0.663937 -0.598138
v -4.416336 0.663937 -0.598138
v -3.492187 2.459896 -0.743407
v -4.416336 2.459896 -0.743407
v -3.492187 0.663937 -0.743407
v -4.416336 0.663937 -0.743407
v -2.761160 3.110629 -0.743406
v -5.187950 3.110629 -0.743403
v -7.614758 3.110629 -0.743404
v -10.047138 3.110629 -0.743403
v -10.047138 6.648194 -0.989981
v -7.614758 6.648194 -0.989982
v -10.047138 6.564216 -0.989981
v -7.614758 6.564215 -0.989982
v -10.047138 6.459825 -0.900720
v -7.614759 6.459825 -0.900721
v -10.047138 6.459824 -0.743403
v -7.614758 6.459824 -0.743404
v -5.187952 6.648194 -0.989981
v -5.187950 6.564215 -0.989981
v -5.187951 6.459825 -0.900721
v -5.187950 6.459824 -0.743403
v -1.022101 6.648194 -0.989983
v -2.761160 6.564215 -0.989984
v -2.761160 6.459825 -0.900723
v -2.761160 6.459824 -0.743406
v -4.416336 4.013132 -0.743407
v -3.492187 4.013132 -0.743407
v -4.416336 5.809090 -0.743407
v -3.492187 5.809090 -0.743407
v -4.416336 4.013132 -0.598138
v -3.492187 4.013132 -0.598138
v -4.416336 5.809090 -0.598138
v -3.492187 5.809090 -0.598138
v -9.269925 4.013132 -0.743404
v -8.345777 4.013132 -0.743405
v -9.269925 5.809090 -0.743404
v -8.345777 5.809090 -0.743405
v -9.269925 4.013132 -0.598136
v -8.345777 4.013132 -0.598136
v -9.269925 5.809090 -0.598136
v -8.345777 5.809090 -0.598136
v -5.959582 4.013132 -0.743398
v -6.883731 4.013132 -0.743399
v -5.959582 5.809090 -0.743398
v -6.883731 5.809090 -0.743399
v -5.959581 4.013132 -0.598130
v -6.883730 4.013132 -0.598130
v -5.959581 5.809090 -0.598130
v -6.883730 5.809090 -0.598130
v -7.614758 3.110628 -0.900721
v -10.047138 3.110628 -0.900721
v -7.614758 3.298999 -0.743404
v -10.047138 3.299000 -0.743403
v -7.614758 3.215020 -0.989982
v -10.047138 3.215021 -0.989981
v -7.614758 3.298999 -0.989982
v -10.047138 3.299000 -0.989981
v -5.187950 3.110628 -0.900721
v -5.187952 3.298999 -0.743403
v -5.187950 3.215020 -0.989981
v -5.187952 3.298999 -0.989981
v -2.761160 3.110628 -0.900724
v -2.761160 3.298999 -0.743406
v -2.761160 3.215020 -0.989984
v -2.761160 3.298999 -0.989984
v -0.764466 -3.399389 -2.749737
v -0.764466 -0.238565 -2.749737
v -0.921784 -0.238565 -2.749737
v -0.764466 -0.050195 -2.749737
v -1.011045 -0.134173 -2.749737
v -1.011045 -0.050195 -2.749737
v -0.764466 -6.748583 -2.749737
v -0.764466 -3.587759 -2.749737
v -0.921784 -3.587759 -2.749737
v -1.011045 -3.483367 -2.749737
v -1.022112 -3.399389 -2.749737
v -0.764466 -5.969506 -2.749737
v -0.764465 -5.969506 -4.461105
v -0.764465 -4.152063 -4.461105
v -0.764466 -4.152063 -3.465175
v -0.764466 -5.969506 -3.465175
v -0.764466 -6.748583 -3.465175
v -0.764465 -6.748583 -4.461105
v -0.600061 -5.969506 -4.461106
v -0.600061 -4.152063 -4.461106
v -0.600060 -4.152063 -3.465175
v -0.600060 -5.969506 -3.465175
v -0.764465 -0.847054 -4.498923
v -0.764466 -0.847054 -3.427358
v -0.764465 -2.599760 -4.498923
v -0.764466 -2.599760 -3.427358
v -0.600061 -0.847054 -4.498924
v -0.600060 -0.847054 -3.427356
v -0.600061 -2.599760 -4.498924
v -0.600060 -2.599760 -3.427356
v -0.764465 -3.399389 -5.176545
v -0.764465 -0.238565 -5.176545
v -0.921784 -0.238565 -5.176545
v -0.764465 -0.050195 -5.176542
v -1.011045 -0.134173 -5.176545
v -1.011045 -0.050195 -5.176542
v -0.764465 -6.748583 -5.176545
v -0.764465 -3.587759 -5.176545
v -0.921784 -3.587759 -5.176545
v -1.011045 -3.483367 -5.176545
v -1.022112 -3.399389 -5.176542
v -0.764465 -5.969506 -5.176545
v -0.764469 -3.399389 -7.603353
v -0.764469 -0.238565 -7.603353
v -0.921786 -0.238565 -7.603353
v -0.764469 -0.050195 -7.603353
v -1.011047 -0.134173 -7.603353
v -1.011047 -0.050195 -7.603353
v -0.764469 -6.748583 -7.603353
v -0.764469 -3.587759 -7.603353
v -0.921786 -3.587759 -7.603353
v -1.011047 -3.483367 -7.603353
v -1.022115 -3.399389 -7.603353
v -0.764469 -5.969506 -7.603353
v -0.764467 -5.969506 -5.891982
v -0.764467 -4.152063 -5.891982
v -0.764468 -4.152063 -6.887912
v -0.764468 -5.969506 -6.887912
v -0.764468 -6.748583 -6.887912
v -0.764467 -6.748583 -5.891982
v -0.600062 -5.969506 -5.891983
v -0.600062 -4.152063 -5.891983
v -0.600063 -4.152063 -6.887912
v -0.600063 -5.969506 -6.887912
v -0.764467 -0.847054 -5.854165
v -0.764468 -0.847054 -6.925733
v -0.764467 -2.599760 -5.854165
v -0.764468 -2.599760 -6.925733
v -0.600062 -2.599760 -5.854166
v -0.600061 -2.599760 -6.925730
v -0.600062 -0.847054 -5.854166
v -0.600061 -0.847054 -6.925730
v -0.764468 -5.969506 -9.314723
v -0.764468 -4.152063 -9.314723
v -0.764469 -4.152063 -8.318789
v -0.764469 -5.969506 -8.318789
v -0.764469 -6.748583 -8.318789
v -0.764468 -6.748583 -9.314723
v -0.600063 -5.969506 -9.314723
v -0.600063 -4.152063 -9.314723
v -0.600062 -4.152063 -8.318789
v -0.600062 -5.969506 -8.318789
v -0.764468 -0.847054 -9.352541
v -0.764469 -0.847054 -8.280972
v -0.764468 -2.599760 -9.352541
v -0.764469 -2.599760 -8.280972
v -0.600063 -0.847054 -9.352541
v -0.600062 -0.847054 -8.280972
v -0.600063 -2.599760 -9.352541
v -0.600062 -2.599760 -8.280972
v -0.764469 -3.399390 -10.029594
v -0.764469 -0.238565 -10.029594
v -0.921787 -0.238565 -10.029594
v -0.764469 -0.050195 -10.029594
v -1.011047 -0.134173 -10.029594
v -1.011047 -0.050195 -10.029594
v -0.764469 -6.748585 -10.029594
v -0.764469 -3.587760 -10.029594
v -0.921787 -3.587760 -10.029594
v -1.011047 -3.483368 -10.029594
v -1.022115 -3.399390 -10.029594
v -0.764469 -5.969507 -10.029594
v -0.619196 2.459897 -8.334375
v -0.619195 2.459897 -9.258524
v -0.619196 0.663938 -8.334375
v -0.619195 0.663938 -9.258524
v -0.764463 2.459897 -8.334375
v -0.764463 2.459897 -9.258524
v -0.764463 0.663938 -8.334375
v -0.764463 0.663938 -9.258524
v -0.619193 2.459897 -3.480763
v -0.619193 2.459897 -4.404913
v -0.619193 0.663938 -3.480763
v -0.619193 0.663938 -4.404913
v -0.764461 2.459897 -3.480763
v -0.764461 2.459897 -4.404912
v -0.764461 0.663938 -3.480763
v -0.764461 0.663938 -4.404912
v -0.619201 2.459897 -6.872326
v -0.619201 2.459897 -5.948177
v -0.619201 0.663938 -6.872326
v -0.619201 0.663938 -5.948177
v -0.764469 2.459897 -6.872326
v -0.764470 2.459897 -5.948176
v -0.764469 0.663938 -6.872326
v -0.764470 0.663938 -5.948176
v -0.764469 3.110630 -10.029594
v -0.764469 3.110630 -7.603353
v -0.764465 3.110630 -5.176545
v -0.764466 3.110630 -2.749737
v -1.011045 6.564216 -2.749737
v -0.921784 6.459825 -2.749737
v -0.764466 6.459825 -2.749737
v -1.011045 6.648195 -5.176542
v -1.011045 6.564216 -5.176545
v -0.921784 6.459825 -5.176545
v -0.764465 6.459825 -5.176545
v -1.011047 6.648195 -7.603353
v -1.011047 6.564216 -7.603353
v -0.921786 6.459825 -7.603354
v -0.764469 6.459825 -7.603353
v -1.011047 6.648195 -10.029594
v -1.011047 6.564217 -10.029594
v -0.921786 6.459825 -10.029594
v -0.764469 6.459825 -10.029594
v -0.764470 4.013133 -5.948176
v -0.764469 4.013133 -6.872326
v -0.764470 5.809091 -5.948176
v -0.764469 5.809091 -6.872326
v -0.619201 4.013133 -5.948177
v -0.619201 4.013133 -6.872326
v -0.619201 5.809091 -5.948177
v -0.619201 5.809091 -6.872326
v -0.764461 4.013133 -4.404912
v -0.764461 4.013133 -3.480763
v -0.764461 5.809091 -4.404912
v -0.764461 5.809091 -3.480763
v -0.619193 4.013133 -4.404913
v -0.619193 4.013133 -3.480763
v -0.619193 5.809091 -4.404913
v -0.619193 5.809091 -3.480763
v -0.764463 4.013133 -9.258524
v -0.764463 4.013133 -8.334375
v -0.764463 5.809091 -9.258524
v -0.764463 5.809091 -8.334375
v -0.619195 4.013133 -9.258524
v -0.619196 4.013133 -8.334375
v -0.619195 5.809091 -9.258524
v -0.619196 5.809091 -8.334375
v -0.921784 3.110629 -2.749737
v -0.764466 3.299000 -2.749737
v -1.011045 3.215021 -2.749737
v -1.011045 3.299000 -2.749737
v -0.921784 3.110629 -5.176545
v -0.764465 3.299000 -5.176542
v -1.011045 3.215021 -5.176545
v -1.011045 3.299000 -5.176542
v -0.921786 3.110629 -7.603353
v -0.764469 3.299000 -7.603353
v -1.011047 3.215021 -7.603353
v -1.011047 3.299000 -7.603353
v -0.921787 3.110629 -10.029594
v -0.764469 3.299001 -10.029594
v -1.011047 3.215022 -10.029594
v -1.011047 3.299001 -10.029594
v -0.764458 -5.969506 -1.753807
v -0.764458 -6.748583 -1.753807
v -0.764466 -6.748585 -0.743407
v -0.764466 -5.969507 -0.743407
v -1.765236 -5.969507 -0.743406
v -1.765236 -6.748585 -0.743406
v -0.764465 -3.399389 -0.743407
v -0.764465 -0.238565 -0.743407
v -0.843119 -0.238566 -0.822066
v -0.764465 -0.050195 -0.743407
v -1.011029 -0.134174 -0.989984
v -1.011029 -0.050195 -0.989984
v -0.764465 -3.587759 -0.743407
v -0.843119 -3.587760 -0.822066
v -1.022042 -3.483368 -0.984466
v -1.022042 -3.399390 -0.990000
v -0.764465 3.110630 -0.743407
v -1.022117 6.564216 -0.989984
v -0.921784 6.459825 -0.900723
v -0.764465 6.459825 -0.743407
v -0.843119 3.110628 -0.822066
v -0.764465 3.299000 -0.743407
v -1.011029 3.215021 -0.989984
v -1.011029 3.299000 -0.989984
v -0.754829 -3.587759 -0.743405
v -0.754829 -5.969506 -0.743405
v -1.011045 6.648195 -2.749735
v -2.761163 6.648194 -0.989983
v -10.047138 -6.748586 -0.725350
v -10.047138 6.648192 -0.743403
v -10.047138 -3.399391 -0.989981
v -0.764463 6.648194 -10.029597
v 2.730588 6.459824 -10.029598
v 2.730588 9.121923 -10.029598
v 6.207582 -6.748586 -10.029596
v 6.225636 6.648192 -10.029596
v 6.472213 -3.399391 -10.029596
v 6.225630 -6.748582 -7.603358
vn -0.0000 0.8115 0.5843
vn 0.5843 0.8115 -0.0000
vn 0.4016 0.8230 0.4016
vn -0.0000 -1.0000 -0.0000
vn -0.0000 -0.6499 0.7600
vn -0.0000 -0.0000 1.0000
vn -0.0000 1.0000 -0.0000
vn 1.0000 -0.0000 -0.0000
vn -0.0000 -0.1307 0.9914
vn -1.0000 -0.0000 -0.0000
vn 0.7071 -0.0000 0.7071
vn 0.6051 -0.5174 0.6051
vn -0.7071 -0.0000 0.7071
vn 0.7071 -0.0000 -0.7071
vn 0.7041 -0.0928 0.7041
vn 0.7600 -0.6499 -0.0000
vn 0.9914 -0.1307 -0.0000
vn -0.0000 -0.0000 -1.0000
vn -0.0000 -0.6499 -0.7600
vn -0.0023 -0.0658 -0.9978
vn -0.0000 -0.1307 -0.9914
vn -0.0000 0.8115 -0.5843
vn -0.7600 -0.6499 -0.0000
vn -0.9914 -0.1307 -0.0000
vn -0.5843 0.8115 -0.0000
vn -0.5843 0.8115 -0.0010
vn -0.5832 0.8123 -0.0000
vn -0.6356 -0.7719 0.0136
vn -0.7398 -0.6728 -0.0023
vn -0.6185 -0.7857 0.0113
vn -0.9978 -0.0659 -0.0031
vn 0.0136 -0.7719 -0.6356
vn 0.0148 -0.7643 -0.6447
vn 0.0047 -0.0984 -0.9951
vn -1.0000 0.0001 -0.0063
vt 0.301231 0.647051
vt 0.550207 0.647051
vt 0.550207 0.995247
vt 0.353687 0.995247
vt 0.471506 0.639280
vt 0.553089 0.995218
vt 0.350805 0.995218
vt 0.438229 0.647911
vt 0.353687 0.647051
vt 0.602663 0.647051
vt 0.223585 0.259319
vt 0.223585 0.316881
vt 0.459598 0.316881
vt 0.459598 0.259319
vt 0.223585 0.349541
vt 0.459598 0.349541
vt 0.459598 0.340441
vt 0.223585 0.340441
vt 0.223585 0.348647
vt 0.459598 0.348647
vt 0.594535 0.538416
vt 0.761992 0.538416
vt 0.761992 0.549003
vt 0.594535 0.549003
vt 0.394490 0.270789
vt 0.394490 0.099541
vt 0.394490 0.099541
vt 0.394490 0.270789
vt 0.899860 0.801300
vt 0.991755 0.801300
vt 0.991755 0.643633
vt 0.899860 0.643633
vt 0.293487 0.097533
vt 0.293487 0.275106
vt 0.390795 0.275106
vt 0.223585 0.330242
vt 0.459598 0.330242
vt 0.390795 0.097533
vt 0.459598 0.097533
vt 0.223585 0.097533
vt 0.985995 0.643361
vt 0.904888 0.643361
vt 0.904888 0.801347
vt 0.985995 0.801347
vt 0.904500 0.801347
vt 0.985607 0.801347
vt 0.985608 0.643361
vt 0.904500 0.643361
vt 0.993838 0.980168
vt 0.993838 0.815012
vt 0.903335 0.815012
vt 0.903335 0.980168
vt 0.390795 0.275106
vt 0.390795 0.097533
vt 0.995686 0.801300
vt 0.895928 0.801300
vt 0.289792 0.270789
vt 0.289792 0.099541
vt 0.459598 0.021413
vt 0.223585 0.021413
vt 0.289792 0.099541
vt 0.289792 0.270789
vt 0.964333 0.801356
vt 0.964333 0.643310
vt 0.931925 0.643310
vt 0.931925 0.801356
vt 0.209654 0.079231
vt 0.257126 0.079231
vt 0.257126 0.052698
vt 0.233390 0.052698
vt 0.209654 0.052698
vt 0.440658 0.275106
vt 0.243625 0.275106
vt 0.440658 0.097533
vt 0.243625 0.097533
vt 0.962744 0.801347
vt 0.962744 0.643361
vt 0.927752 0.643361
vt 0.927752 0.801347
vt 0.274449 0.746888
vt 0.274449 0.964603
vt 0.024511 0.964603
vt 0.024511 0.733913
vt 0.274449 0.977578
vt 0.274449 0.800550
vt 0.024511 0.746888
vt 0.744629 0.652431
vt 0.744629 0.949137
vt 0.866474 0.949137
vt 0.866474 0.741457
vt 0.745107 0.652485
vt 0.865969 0.652485
vt 0.865969 0.741510
vt 0.459528 0.097631
vt 0.459528 0.275280
vt 0.440779 0.275280
vt 0.440779 0.097631
vt 0.223613 0.275280
vt 0.223613 0.097631
vt 0.243598 0.097631
vt 0.243598 0.275280
vt 0.371643 0.328962
vt 0.412083 0.341592
vt 0.417098 0.351751
vt 0.300369 0.351751
vt 0.300369 0.328962
vt 0.300369 0.328953
vt 0.371643 0.328953
vt 0.412083 0.341582
vt 0.412083 0.351742
vt 0.300369 0.351742
vt 0.161680 0.267910
vt 0.161680 0.267910
vt 0.072218 0.267910
vt 0.072218 0.099667
vt 0.161680 0.099667
vt 0.161680 0.099667
vt 0.001451 0.032767
vt 0.001451 0.328870
vt 0.236375 0.328870
vt 0.236375 0.032767
vt 0.459598 0.330906
vt 0.223585 0.330906
vt 0.223585 0.339111
vt 0.459598 0.339111
vt 0.439941 0.636193
vt 0.019178 0.636370
vt 0.020403 0.629986
vt 0.413199 0.631063
vt 0.024511 0.917277
vt 0.024511 0.733914
vt 0.348933 0.647051
vt 0.554961 0.647051
vt 0.554961 0.995247
vt 0.348933 0.995247
vt 0.412083 0.351745
vt 0.300369 0.351745
vt 0.300369 0.328956
vt 0.371643 0.328956
vt 0.412083 0.341586
vt 0.072218 0.262051
vt 0.072218 0.093807
vt 0.161680 0.093807
vt 0.001451 0.026908
vt 0.236375 0.026908
vt 0.161680 0.262051
vt 0.236375 0.323011
vt 0.001451 0.323011
vt 0.161680 0.093807
vt 0.161680 0.262051
vt 0.866474 0.652431
vt 0.865969 0.949191
vt 0.745107 0.949191
vt 0.459598 0.316881
vt 0.223585 0.316881
vt 0.459598 0.316881
vt 0.459598 0.316881
vt 0.223585 0.316881
vt 0.468954 0.995247
vt 0.223585 0.316881
vt 0.459598 0.316881
vt 0.223585 0.316881
vt 0.459598 0.316881
vt 0.435455 0.994854
vt 0.223585 0.316787
vt 0.223585 0.316881
vt 0.223620 0.330596
vt 0.223620 0.097141
vt 0.223620 0.097141
vt 0.223620 0.330598
vt 0.223620 0.097143
vt 0.223620 0.097143
vt 0.223620 0.097143
vt 0.223620 0.330598
vt 0.402359 0.628984
vt 0.301071 0.351529
vt 0.301071 0.341391
vt 0.341423 0.328789
vt 0.412543 0.351529
vt 0.412543 0.328789
s 0
usemtl Material.001
f 1/1/1 286/2/1 262/3/1 261/4/1
f 1/5/1 261/6/1 257/7/1
f 1/8/2 661/6/2 664/7/2
f 688/9/2 1/10/2 664/3/2 665/4/2
f 257/7/3 661/6/3 1/5/3
f 3/11/4 4/12/4 37/13/4 35/14/4
f 37/13/5 4/12/5 6/15/5 41/16/5
f 41/17/6 6/18/6 7/19/6 43/20/6
f 5/21/7 39/22/7 43/23/7 7/24/7
f 24/25/8 26/26/8 30/27/8 28/28/8
f 9/11/4 10/12/4 49/13/4 47/14/4
f 49/13/5 10/12/5 11/15/5 51/16/5
f 51/17/9 11/18/9 12/19/9 53/20/9
f 2/21/7 33/22/7 53/23/7 12/24/7
f 17/29/6 14/30/6 19/31/6 18/32/6
f 17/33/10 16/34/10 22/34/10 23/33/10
f 15/35/6 16/34/6 9/36/6 47/37/6
f 14/38/6 15/35/6 47/37/6 55/39/6
f 16/34/6 17/33/6 13/40/6 9/36/6
f 45/41/6 19/42/6 14/43/6 55/44/6
f 13/45/6 17/46/6 18/47/6 8/48/6
f 21/49/6 20/50/6 23/51/6 22/52/6
f 16/34/4 15/35/4 21/53/4 22/34/4
f 15/35/8 14/38/8 20/54/8 21/53/8
f 14/55/7 17/56/7 23/56/7 20/55/7
f 24/25/6 25/57/6 3/36/6 35/37/6
f 27/58/6 26/26/6 33/59/6 2/60/6
f 25/57/6 27/58/6 2/60/6 3/36/6
f 26/26/6 24/25/6 35/37/6 33/59/6
f 28/28/6 30/27/6 31/61/6 29/62/6
f 25/57/4 24/25/4 28/28/4 29/62/4
f 27/58/10 25/57/10 29/62/10 31/61/10
f 26/26/7 27/58/7 31/61/7 30/27/7
f 34/11/4 35/14/4 37/13/4 36/12/4
f 37/13/5 41/16/5 40/15/5 36/12/5
f 41/17/6 43/20/6 42/19/6 40/18/6
f 38/21/7 42/24/7 43/23/7 39/22/7
f 46/11/4 47/14/4 49/13/4 48/12/4
f 49/13/5 51/16/5 50/15/5 48/12/5
f 51/17/9 53/20/9 52/19/9 50/18/9
f 32/21/7 52/24/7 53/23/7 33/22/7
f 59/29/6 60/32/6 61/31/6 56/30/6
f 59/33/8 65/33/8 64/34/8 58/34/8
f 57/35/6 47/37/6 46/36/6 58/34/6
f 56/38/6 55/39/6 47/37/6 57/35/6
f 58/34/6 46/36/6 54/40/6 59/33/6
f 45/41/6 55/44/6 56/43/6 61/42/6
f 54/45/6 44/48/6 60/47/6 59/46/6
f 63/49/6 64/52/6 65/51/6 62/50/6
f 58/34/4 64/34/4 63/53/4 57/35/4
f 57/35/10 63/53/10 62/54/10 56/38/10
f 56/55/7 62/55/7 65/56/7 59/56/7
f 66/25/6 35/37/6 34/36/6 67/57/6
f 69/58/6 32/60/6 33/59/6 68/26/6
f 67/57/6 34/36/6 32/60/6 69/58/6
f 68/26/6 33/59/6 35/37/6 66/25/6
f 69/26/7 68/58/7 70/61/7 71/27/7
f 68/58/10 66/57/10 72/62/10 70/61/10
f 66/57/4 67/25/4 73/28/4 72/62/4
f 73/28/6 71/27/6 70/61/6 72/62/6
f 67/25/8 69/26/8 71/27/8 73/28/8
f 34/11/4 36/12/4 94/13/4 93/14/4
f 94/13/5 36/12/5 40/15/5 96/16/5
f 96/17/6 40/18/6 42/19/6 97/20/6
f 38/21/7 95/22/7 97/23/7 42/24/7
f 84/25/8 86/26/8 90/27/8 88/28/8
f 46/11/4 48/12/4 100/13/4 99/14/4
f 100/13/5 48/12/5 50/15/5 101/16/5
f 101/17/9 50/18/9 52/19/9 102/20/9
f 32/21/7 92/22/7 102/23/7 52/24/7
f 77/29/6 74/30/6 79/31/6 78/32/6
f 77/33/10 76/34/10 82/34/10 83/33/10
f 75/35/6 76/34/6 46/36/6 99/37/6
f 74/38/6 75/35/6 99/37/6 103/39/6
f 76/34/6 77/33/6 54/40/6 46/36/6
f 98/41/6 79/42/6 74/43/6 103/44/6
f 54/45/6 77/46/6 78/47/6 44/48/6
f 81/49/6 80/50/6 83/51/6 82/52/6
f 76/34/4 75/35/4 81/53/4 82/34/4
f 75/35/8 74/38/8 80/54/8 81/53/8
f 74/55/7 77/56/7 83/56/7 80/55/7
f 84/25/6 85/57/6 34/36/6 93/37/6
f 87/58/6 86/26/6 92/59/6 32/60/6
f 85/57/6 87/58/6 32/60/6 34/36/6
f 86/26/6 84/25/6 93/37/6 92/59/6
f 88/28/6 90/27/6 91/61/6 89/62/6
f 85/57/4 84/25/4 88/28/4 89/62/4
f 87/58/10 85/57/10 89/62/10 91/61/10
f 86/26/7 87/58/7 91/61/7 90/27/7
f 119/11/4 93/14/4 94/13/4 120/12/4
f 94/13/5 96/16/5 122/15/5 120/12/5
f 96/17/6 97/20/6 123/19/6 122/18/6
f 121/21/7 123/24/7 97/23/7 95/22/7
f 125/11/4 99/14/4 100/13/4 126/12/4
f 100/13/5 101/16/5 127/15/5 126/12/5
f 101/17/9 102/20/9 128/19/9 127/18/9
f 118/21/7 128/24/7 102/23/7 92/22/7
f 107/63/8 108/64/8 204/65/8 203/66/8
f 105/67/4 106/68/4 202/69/4 369/70/4 201/71/4
f 105/72/6 99/37/6 125/36/6 106/73/6
f 104/74/6 103/39/6 99/37/6 105/72/6
f 106/73/6 125/36/6 129/40/6 107/75/6
f 98/41/6 103/44/6 104/76/6 109/77/6
f 129/45/6 124/48/6 108/78/6 107/79/6
f 110/25/6 93/37/6 119/36/6 111/57/6
f 113/58/6 118/60/6 92/59/6 112/26/6
f 111/57/6 119/36/6 118/60/6 113/58/6
f 112/26/6 92/59/6 93/37/6 110/25/6
f 113/26/7 112/58/7 114/61/7 115/27/7
f 112/58/10 110/57/10 116/62/10 114/61/10
f 110/57/4 111/25/4 117/28/4 116/62/4
f 117/28/6 115/27/6 114/61/6 116/62/6
f 111/25/8 113/26/8 115/27/8 117/28/8
f 119/11/4 120/12/4 153/13/4 151/14/4
f 153/13/5 120/12/5 122/15/5 157/16/5
f 157/17/6 122/18/6 123/19/6 159/20/6
f 121/21/7 155/22/7 159/23/7 123/24/7
f 140/25/8 142/26/8 146/27/8 144/28/8
f 125/11/4 126/12/4 165/13/4 163/14/4
f 165/13/5 126/12/5 127/15/5 167/16/5
f 167/17/9 127/18/9 128/19/9 169/20/9
f 118/21/7 149/22/7 169/23/7 128/24/7
f 133/29/6 130/30/6 135/31/6 134/32/6
f 133/33/10 132/34/10 138/34/10 139/33/10
f 131/35/6 132/34/6 125/36/6 163/37/6
f 130/38/6 131/35/6 163/37/6 171/39/6
f 132/34/6 133/33/6 129/40/6 125/36/6
f 161/41/6 135/42/6 130/43/6 171/44/6
f 129/45/6 133/46/6 134/47/6 124/48/6
f 137/49/6 136/50/6 139/51/6 138/52/6
f 132/34/4 131/35/4 137/53/4 138/34/4
f 131/35/8 130/38/8 136/54/8 137/53/8
f 130/55/7 133/56/7 139/56/7 136/55/7
f 140/25/6 141/57/6 119/36/6 151/37/6
f 143/58/6 142/26/6 149/59/6 118/60/6
f 141/57/6 143/58/6 118/60/6 119/36/6
f 142/26/6 140/25/6 151/37/6 149/59/6
f 144/28/6 146/27/6 147/61/6 145/62/6
f 141/57/4 140/25/4 144/28/4 145/62/4
f 143/58/10 141/57/10 145/62/10 147/61/10
f 142/26/7 143/58/7 147/61/7 146/27/7
f 150/11/4 151/14/4 153/13/4 152/12/4
f 153/13/5 157/16/5 156/15/5 152/12/5
f 157/17/6 159/20/6 158/19/6 156/18/6
f 154/21/7 158/24/7 159/23/7 155/22/7
f 162/11/4 163/14/4 165/13/4 164/12/4
f 165/13/5 167/16/5 166/15/5 164/12/5
f 167/17/9 169/20/9 168/19/9 166/18/9
f 148/21/7 168/24/7 169/23/7 149/22/7
f 175/29/6 176/32/6 177/31/6 172/30/6
f 175/33/8 181/33/8 180/34/8 174/34/8
f 173/35/6 163/37/6 162/36/6 174/34/6
f 172/38/6 171/39/6 163/37/6 173/35/6
f 174/34/6 162/36/6 170/40/6 175/33/6
f 161/41/6 171/44/6 172/43/6 177/42/6
f 170/45/6 160/48/6 176/47/6 175/46/6
f 179/49/6 180/52/6 181/51/6 178/50/6
f 174/34/4 180/34/4 179/53/4 173/35/4
f 173/35/10 179/53/10 178/54/10 172/38/10
f 172/55/7 178/55/7 181/56/7 175/56/7
f 182/25/6 151/37/6 150/36/6 183/57/6
f 185/58/6 148/60/6 149/59/6 184/26/6
f 183/57/6 150/36/6 148/60/6 185/58/6
f 184/26/6 149/59/6 151/37/6 182/25/6
f 185/26/7 184/58/7 186/61/7 187/27/7
f 184/58/10 182/57/10 188/62/10 186/61/10
f 182/57/4 183/25/4 189/28/4 188/62/4
f 189/28/6 187/27/6 186/61/6 188/62/6
f 183/25/8 185/26/8 187/27/8 189/28/8
f 148/80/10 150/81/10 215/82/10 217/83/10
f 154/84/10 215/82/10 150/81/10
f 160/80/10 170/85/10 162/81/10 217/82/10 216/86/10
f 148/84/10 217/82/10 162/81/10
f 3/11/4 405/14/4 414/13/4 4/12/4
f 370/87/6 369/88/6 202/89/6 203/90/6
f 370/91/6 205/92/6 200/93/6
f 104/94/10 105/95/10 201/96/10 200/97/10
f 109/64/10 104/63/10 200/66/10 205/65/10
f 106/98/8 107/99/8 203/100/8 202/101/8
f 164/102/10 166/103/10 168/104/10 148/105/10 162/106/10
f 150/107/10 152/108/10 156/109/10 158/110/10 154/111/10
f 195/112/4 191/113/4 190/114/4 194/114/4
f 196/115/7 192/115/7 193/116/7 197/117/7
f 197/117/8 193/116/8 191/113/8 195/112/8
f 190/114/6 191/113/6 193/116/6 192/115/6
f 196/115/6 121/118/6 252/119/6 194/114/6
f 195/112/6 251/120/6 155/121/6 197/117/6
f 194/114/6 252/119/6 251/120/6 195/112/6
f 197/117/6 155/121/6 121/118/6 196/115/6
f 194/114/10 190/114/10 192/115/10 196/115/10
f 211/112/4 207/113/4 206/114/4 210/114/4
f 212/115/7 208/115/7 209/116/7 213/117/7
f 213/117/8 209/116/8 207/113/8 211/112/8
f 206/114/6 207/113/6 209/116/6 208/115/6
f 212/115/6 38/118/6 254/119/6 210/114/6
f 211/112/6 253/120/6 95/121/6 213/117/6
f 210/114/6 254/119/6 253/120/6 211/112/6
f 213/117/6 95/121/6 38/118/6 212/115/6
f 210/114/10 206/114/10 208/115/10 212/115/10
f 222/112/4 218/113/4 214/114/4 221/114/4
f 223/115/7 219/115/7 220/116/7 224/117/7
f 224/117/8 220/116/8 218/113/8 222/112/8
f 214/114/6 218/113/6 220/116/6 219/115/6
f 223/115/6 5/118/6 256/119/6 221/114/6
f 222/112/6 255/120/6 39/121/6 224/117/6
f 221/114/6 256/119/6 255/120/6 222/112/6
f 224/117/6 39/121/6 5/118/6 223/115/6
f 221/114/10 214/114/10 219/115/10 223/115/10
f 154/80/10 250/81/10 249/82/10 215/83/10
f 230/112/4 229/114/4 225/114/4 226/113/4
f 231/115/7 232/117/7 228/116/7 227/115/7
f 232/117/10 230/112/10 226/113/10 228/116/10
f 225/114/6 227/115/6 228/116/6 226/113/6
f 231/115/6 229/114/6 254/119/6 38/118/6
f 230/112/6 232/117/6 39/121/6 255/120/6
f 229/114/6 230/112/6 255/120/6 254/119/6
f 232/117/6 231/115/6 38/118/6 39/121/6
f 229/114/8 231/115/8 227/115/8 225/114/8
f 238/112/4 237/114/4 233/114/4 234/113/4
f 239/115/7 240/117/7 236/116/7 235/115/7
f 240/117/10 238/112/10 234/113/10 236/116/10
f 233/114/6 235/115/6 236/116/6 234/113/6
f 239/115/6 237/114/6 252/119/6 121/118/6
f 238/112/6 240/117/6 95/121/6 253/120/6
f 237/114/6 238/112/6 253/120/6 252/119/6
f 240/117/6 239/115/6 121/118/6 95/121/6
f 237/114/8 239/115/8 235/115/8 233/114/8
f 246/112/4 245/114/4 241/114/4 242/113/4
f 247/115/7 248/117/7 244/116/7 243/115/7
f 248/117/10 246/112/10 242/113/10 244/116/10
f 241/114/6 243/115/6 244/116/6 242/113/6
f 247/115/6 245/114/6 250/119/6 154/118/6
f 246/112/6 248/117/6 155/121/6 251/120/6
f 245/114/6 246/112/6 251/120/6 250/119/6
f 248/117/6 247/115/6 154/118/6 155/121/6
f 245/114/8 247/115/8 243/115/8 241/114/8
f 263/122/6 258/123/6 257/124/6 261/125/6
f 265/13/5 259/12/5 258/15/5 263/16/5
f 260/11/4 259/12/4 265/13/4 267/14/4
f 263/122/6 261/125/6 262/124/6 264/123/6
f 265/13/5 263/16/5 264/15/5 266/12/5
f 268/11/4 267/14/4 265/13/4 266/12/4
f 270/122/6 264/123/6 262/124/6 269/125/6
f 271/13/5 266/12/5 264/15/5 270/16/5
f 268/11/4 266/12/4 271/13/4 272/14/4
f 270/122/6 269/125/6 273/124/6 274/123/6
f 271/13/5 270/16/5 274/15/5 275/12/5
f 276/11/4 272/14/4 271/13/4 275/12/4
f 279/122/6 274/123/6 273/124/6 277/125/6
f 282/13/5 275/12/5 274/15/5 279/16/5
f 276/11/4 275/12/4 282/13/4 284/14/4
f 278/126/10 290/127/10 292/128/10 281/129/10
f 279/122/6 277/125/6 278/124/6 280/123/6
f 282/13/5 279/16/5 280/15/5 283/12/5
f 285/11/4 284/14/4 282/13/4 283/12/4
f 281/84/10 291/82/10 285/81/10
f 281/80/10 292/130/10 291/131/10
f 289/132/1 290/133/1 278/134/1 277/135/1
f 288/132/1 289/133/1 277/134/1 273/135/1
f 287/132/1 288/133/1 273/134/1 269/135/1
f 286/132/1 287/133/1 269/134/1 262/135/1
f 278/136/10 281/137/10 285/138/10 283/139/10 280/140/10
f 296/141/8 294/142/8 298/142/8 300/141/8
f 293/143/6 294/142/6 363/144/6 364/145/6
f 296/141/6 295/146/6 284/147/6 285/148/6
f 295/146/6 293/143/6 364/145/6 284/147/6
f 294/142/6 296/141/6 285/148/6 363/144/6
f 300/141/6 298/142/6 297/149/6 299/150/6
f 293/143/10 295/146/10 299/150/10 297/149/10
f 294/142/7 293/143/7 297/149/7 298/142/7
f 295/146/4 296/141/4 300/141/4 299/150/4
f 304/141/8 302/142/8 306/142/8 308/141/8
f 301/143/6 302/142/6 358/144/6 354/145/6
f 304/141/6 303/146/6 272/147/6 276/148/6
f 303/146/6 301/143/6 354/145/6 272/147/6
f 302/142/6 304/141/6 276/148/6 358/144/6
f 308/141/6 306/142/6 305/149/6 307/150/6
f 301/143/10 303/146/10 307/150/10 305/149/10
f 302/142/7 301/143/7 305/149/7 306/142/7
f 303/146/4 304/141/4 308/141/4 307/150/4
f 312/141/8 310/142/8 314/142/8 316/141/8
f 309/143/6 310/142/6 347/144/6 348/145/6
f 312/141/6 311/146/6 267/147/6 268/148/6
f 311/146/6 309/143/6 348/145/6 267/147/6
f 310/142/6 312/141/6 268/148/6 347/144/6
f 316/141/6 314/142/6 313/149/6 315/150/6
f 309/143/10 311/146/10 315/150/10 313/149/10
f 310/142/7 309/143/7 313/149/7 314/142/7
f 311/146/4 312/141/4 316/141/4 315/150/4
f 363/80/10 285/81/10 291/82/10 249/83/10
f 320/141/10 324/141/10 322/142/10 318/142/10
f 317/143/6 348/145/6 342/144/6 318/142/6
f 320/141/6 260/148/6 267/147/6 319/146/6
f 319/146/6 267/147/6 348/145/6 317/143/6
f 318/142/6 342/144/6 260/148/6 320/141/6
f 324/141/6 323/150/6 321/149/6 322/142/6
f 317/143/8 321/149/8 323/150/8 319/146/8
f 318/142/7 322/142/7 321/149/7 317/143/7
f 319/146/4 323/150/4 324/141/4 320/141/4
f 328/141/10 332/141/10 330/142/10 326/142/10
f 325/143/6 354/145/6 347/144/6 326/142/6
f 328/141/6 268/148/6 272/147/6 327/146/6
f 327/146/6 272/147/6 354/145/6 325/143/6
f 326/142/6 347/144/6 268/148/6 328/141/6
f 332/141/6 331/150/6 329/149/6 330/142/6
f 325/143/8 329/149/8 331/150/8 327/146/8
f 326/142/7 330/142/7 329/149/7 325/143/7
f 327/146/4 331/150/4 332/141/4 328/141/4
f 336/141/10 340/141/10 338/142/10 334/142/10
f 333/143/6 364/145/6 358/144/6 334/142/6
f 336/141/6 276/148/6 284/147/6 335/146/6
f 335/146/6 284/147/6 364/145/6 333/143/6
f 334/142/6 358/144/6 276/148/6 336/141/6
f 340/141/6 339/150/6 337/149/6 338/142/6
f 333/143/8 337/149/8 339/150/8 335/146/8
f 334/142/7 338/142/7 337/149/7 333/143/7
f 335/146/4 339/150/4 340/141/4 336/141/4
f 256/11/4 341/12/4 346/13/4 255/14/4
f 346/13/5 341/12/5 343/15/5 350/16/5
f 350/17/6 343/18/6 344/19/6 352/20/6
f 342/21/7 348/22/7 352/23/7 344/24/7
f 254/11/4 255/14/4 346/13/4 345/12/4
f 346/13/5 350/16/5 349/15/5 345/12/5
f 350/17/6 352/20/6 351/19/6 349/18/6
f 347/21/7 351/24/7 352/23/7 348/22/7
f 254/11/4 345/12/4 353/13/4 253/14/4
f 353/13/5 345/12/5 349/15/5 355/16/5
f 355/17/6 349/18/6 351/19/6 356/20/6
f 347/21/7 354/22/7 356/23/7 351/24/7
f 252/11/4 253/14/4 353/13/4 357/12/4
f 353/13/5 355/16/5 359/15/5 357/12/5
f 355/17/6 356/20/6 360/19/6 359/18/6
f 358/21/7 360/24/7 356/23/7 354/22/7
f 252/11/4 357/12/4 362/13/4 251/14/4
f 362/13/5 357/12/5 359/15/5 366/16/5
f 366/17/6 359/18/6 360/19/6 368/20/6
f 358/21/7 364/22/7 368/23/7 360/24/7
f 250/11/4 251/14/4 362/13/4 361/12/4
f 362/13/5 366/16/5 365/15/5 361/12/5
f 366/17/6 368/20/6 367/19/6 365/18/6
f 363/21/7 367/24/7 368/23/7 364/22/7
f 363/84/10 249/82/10 250/81/10
f 250/107/10 361/108/10 365/109/10 367/110/10 363/111/10
f 204/151/6 370/87/6 203/90/6
f 200/93/6 201/152/6 369/153/6 370/91/6
f 342/21/7 344/24/7 743/23/7 413/22/7
f 742/17/11 743/20/11 344/19/11 343/18/11
f 741/13/12 742/16/12 343/15/12 341/12/12
f 256/11/4 374/14/4 741/13/4 341/12/4
f 407/146/4 408/141/4 412/141/4 411/150/4
f 371/142/7 372/143/7 409/149/7 410/142/7
f 372/143/13 407/146/13 411/150/13 409/149/13
f 412/141/11 410/142/11 409/149/11 411/150/11
f 371/142/11 408/141/11 260/148/11 342/144/11
f 407/146/11 372/143/11 413/145/11 373/147/11
f 408/141/11 407/146/11 373/147/11 260/148/11
f 372/143/11 371/142/11 342/144/11 413/145/11
f 408/141/14 371/142/14 410/142/14 412/141/14
f 260/11/4 373/14/4 663/13/4 259/12/4
f 663/13/12 662/16/12 258/15/12 259/12/12
f 662/122/11 661/125/11 257/124/11 258/123/11
f 378/114/14 376/115/14 380/115/14 382/114/14
f 375/117/11 376/115/11 5/118/11 404/121/11
f 378/114/11 377/112/11 374/120/11 256/119/11
f 377/112/11 375/117/11 404/121/11 374/120/11
f 376/115/11 378/114/11 256/119/11 5/118/11
f 382/114/11 380/115/11 379/116/11 381/113/11
f 375/117/13 377/112/13 381/113/13 379/116/13
f 376/115/7 375/117/7 379/116/7 380/115/7
f 377/112/4 378/114/4 382/114/4 381/113/4
f 389/25/14 387/26/14 385/27/14 383/28/14
f 383/28/11 385/27/11 386/61/11 384/62/11
f 390/57/4 389/25/4 383/28/4 384/62/4
f 388/58/13 390/57/13 384/62/13 386/61/13
f 387/26/7 388/58/7 386/61/7 385/27/7
f 388/26/11 406/59/11 405/37/11 390/25/11
f 389/57/11 3/36/11 2/60/11 387/58/11
f 387/58/11 2/60/11 406/59/11 388/26/11
f 390/25/11 405/37/11 3/36/11 389/57/11
f 400/55/7 394/55/7 391/56/7 397/56/7
f 399/35/13 393/53/13 394/54/13 400/38/13
f 398/34/4 392/34/4 393/53/4 399/35/4
f 393/49/11 392/52/11 391/51/11 394/50/11
f 13/45/11 8/48/11 396/47/11 397/46/11
f 403/41/11 401/44/11 400/43/11 395/42/11
f 398/34/11 9/36/11 13/40/11 397/33/11
f 400/38/11 401/39/11 402/37/11 399/35/11
f 399/35/11 402/37/11 9/36/11 398/34/11
f 397/33/14 391/33/14 392/34/14 398/34/14
f 397/29/11 396/32/11 395/31/11 400/30/11
f 2/21/7 12/24/7 419/23/7 406/22/7
f 418/17/15 419/20/15 12/19/15 11/18/15
f 417/13/12 418/16/12 11/15/12 10/12/12
f 9/11/4 402/14/4 417/13/4 10/12/4
f 5/21/7 7/24/7 416/23/7 404/22/7
f 415/17/11 416/20/11 7/19/11 6/18/11
f 414/13/12 415/16/12 6/15/12 4/12/12
f 405/11/4 441/14/4 443/13/4 414/12/4
f 443/13/16 447/16/16 415/15/16 414/12/16
f 447/17/8 449/20/8 416/19/8 415/18/8
f 404/21/7 416/24/7 449/23/7 445/22/7
f 430/25/6 434/28/6 436/27/6 432/26/6
f 402/11/4 453/14/4 455/13/4 417/12/4
f 455/13/16 457/16/16 418/15/16 417/12/16
f 457/17/17 459/20/17 419/19/17 418/18/17
f 406/21/7 419/24/7 459/23/7 439/22/7
f 423/29/8 424/32/8 425/31/8 420/30/8
f 423/33/18 429/33/18 428/34/18 422/34/18
f 421/35/8 453/37/8 402/36/8 422/34/8
f 420/38/8 461/39/8 453/37/8 421/35/8
f 422/34/8 402/36/8 401/40/8 423/33/8
f 451/41/8 461/44/8 420/43/8 425/42/8
f 401/45/8 403/48/8 424/47/8 423/46/8
f 427/49/8 428/52/8 429/51/8 426/50/8
f 422/34/4 428/34/4 427/53/4 421/35/4
f 421/35/6 427/53/6 426/54/6 420/38/6
f 420/55/7 426/55/7 429/56/7 423/56/7
f 430/25/8 441/37/8 405/36/8 431/57/8
f 433/58/8 406/60/8 439/59/8 432/26/8
f 431/57/8 405/36/8 406/60/8 433/58/8
f 432/26/8 439/59/8 441/37/8 430/25/8
f 434/28/8 435/62/8 437/61/8 436/27/8
f 431/57/4 435/62/4 434/28/4 430/25/4
f 433/58/18 437/61/18 435/62/18 431/57/18
f 432/26/7 436/27/7 437/61/7 433/58/7
f 440/11/4 442/12/4 443/13/4 441/14/4
f 443/13/16 442/12/16 446/15/16 447/16/16
f 447/17/8 446/18/8 448/19/8 449/20/8
f 444/21/7 445/22/7 449/23/7 448/24/7
f 452/11/4 454/12/4 455/13/4 453/14/4
f 455/13/16 454/12/16 456/15/16 457/16/16
f 457/17/17 456/18/17 458/19/17 459/20/17
f 438/21/7 439/22/7 459/23/7 458/24/7
f 465/29/8 462/30/8 467/31/8 466/32/8
f 465/33/6 464/34/6 470/34/6 471/33/6
f 463/35/8 464/34/8 452/36/8 453/37/8
f 462/38/8 463/35/8 453/37/8 461/39/8
f 464/34/8 465/33/8 460/40/8 452/36/8
f 451/41/8 467/42/8 462/43/8 461/44/8
f 460/45/8 465/46/8 466/47/8 450/48/8
f 469/49/8 468/50/8 471/51/8 470/52/8
f 464/34/4 463/35/4 469/53/4 470/34/4
f 463/35/18 462/38/18 468/54/18 469/53/18
f 462/55/7 465/56/7 471/56/7 468/55/7
f 472/25/8 473/57/8 440/36/8 441/37/8
f 475/58/8 474/26/8 439/59/8 438/60/8
f 473/57/8 475/58/8 438/60/8 440/36/8
f 474/26/8 472/25/8 441/37/8 439/59/8
f 475/26/7 477/27/7 476/61/7 474/58/7
f 474/58/18 476/61/18 478/62/18 472/57/18
f 472/57/4 478/62/4 479/28/4 473/25/4
f 479/28/8 478/62/8 476/61/8 477/27/8
f 473/25/6 479/28/6 477/27/6 475/26/6
f 440/11/4 501/14/4 503/13/4 442/12/4
f 503/13/16 507/16/16 446/15/16 442/12/16
f 507/17/8 509/20/8 448/19/8 446/18/8
f 444/21/7 448/24/7 509/23/7 505/22/7
f 490/25/6 494/28/6 496/27/6 492/26/6
f 452/11/4 513/14/4 515/13/4 454/12/4
f 515/13/16 517/16/16 456/15/16 454/12/16
f 517/17/17 519/20/17 458/19/17 456/18/17
f 438/21/7 458/24/7 519/23/7 499/22/7
f 483/29/8 484/32/8 485/31/8 480/30/8
f 483/33/18 489/33/18 488/34/18 482/34/18
f 481/35/8 513/37/8 452/36/8 482/34/8
f 480/38/8 521/39/8 513/37/8 481/35/8
f 482/34/8 452/36/8 460/40/8 483/33/8
f 511/41/8 521/44/8 480/43/8 485/42/8
f 460/45/8 450/48/8 484/47/8 483/46/8
f 487/49/8 488/52/8 489/51/8 486/50/8
f 482/34/4 488/34/4 487/53/4 481/35/4
f 481/35/6 487/53/6 486/54/6 480/38/6
f 480/55/7 486/55/7 489/56/7 483/56/7
f 490/25/8 501/37/8 440/36/8 491/57/8
f 493/58/8 438/60/8 499/59/8 492/26/8
f 491/57/8 440/36/8 438/60/8 493/58/8
f 492/26/8 499/59/8 501/37/8 490/25/8
f 494/28/8 495/62/8 497/61/8 496/27/8
f 491/57/4 495/62/4 494/28/4 490/25/4
f 493/58/18 497/61/18 495/62/18 491/57/18
f 492/26/7 496/27/7 497/61/7 493/58/7
f 500/11/4 502/12/4 503/13/4 501/14/4
f 503/13/16 502/12/16 506/15/16 507/16/16
f 507/17/8 506/18/8 508/19/8 509/20/8
f 504/21/7 505/22/7 509/23/7 508/24/7
f 512/11/4 514/12/4 515/13/4 513/14/4
f 515/13/16 514/12/16 516/15/16 517/16/16
f 517/17/17 516/18/17 518/19/17 519/20/17
f 498/21/7 499/22/7 519/23/7 518/24/7
f 525/63/6 612/66/6 613/65/6 526/64/6
f 523/67/4 610/71/4 768/70/4 611/69/4 524/68/4
f 523/72/8 524/73/8 512/36/8 513/37/8
f 522/74/8 523/72/8 513/37/8 521/39/8
f 524/73/8 525/75/8 520/40/8 512/36/8
f 511/41/8 527/77/8 522/76/8 521/44/8
f 520/45/8 525/79/8 526/78/8 510/48/8
f 528/25/8 529/57/8 500/36/8 501/37/8
f 531/58/8 530/26/8 499/59/8 498/60/8
f 529/57/8 531/58/8 498/60/8 500/36/8
f 530/26/8 528/25/8 501/37/8 499/59/8
f 531/26/7 533/27/7 532/61/7 530/58/7
f 530/58/18 532/61/18 534/62/18 528/57/18
f 528/57/4 534/62/4 535/28/4 529/25/4
f 535/28/8 534/62/8 532/61/8 533/27/8
f 529/25/6 535/28/6 533/27/6 531/26/6
f 500/11/4 557/14/4 559/13/4 502/12/4
f 559/13/16 563/16/16 506/15/16 502/12/16
f 563/17/8 565/20/8 508/19/8 506/18/8
f 504/21/7 508/24/7 565/23/7 561/22/7
f 546/25/6 550/28/6 552/27/6 548/26/6
f 512/11/4 568/14/4 570/13/4 514/12/4
f 570/13/16 572/16/16 516/15/16 514/12/16
f 572/17/17 574/20/17 518/19/17 516/18/17
f 498/21/7 518/24/7 574/23/7 555/22/7
f 539/29/8 540/32/8 541/31/8 536/30/8
f 539/33/18 545/33/18 544/34/18 538/34/18
f 537/35/8 568/37/8 512/36/8 538/34/8
f 536/38/8 576/39/8 568/37/8 537/35/8
f 538/34/8 512/36/8 520/40/8 539/33/8
f 520/45/8 510/48/8 540/47/8 539/46/8
f 543/49/8 544/52/8 545/51/8 542/50/8
f 538/34/4 544/34/4 543/53/4 537/35/4
f 537/35/6 543/53/6 542/54/6 536/38/6
f 536/55/7 542/55/7 545/56/7 539/56/7
f 546/25/8 557/37/8 500/36/8 547/57/8
f 549/58/8 498/60/8 555/59/8 548/26/8
f 547/57/8 500/36/8 498/60/8 549/58/8
f 548/26/8 555/59/8 557/37/8 546/25/8
f 550/28/8 551/62/8 553/61/8 552/27/8
f 547/57/4 551/62/4 550/28/4 546/25/4
f 549/58/18 553/61/18 551/62/18 547/57/18
f 548/26/7 552/27/7 553/61/7 549/58/7
f 556/11/4 558/12/4 559/13/4 557/14/4
f 559/13/16 558/12/16 562/15/16 563/16/16
f 563/17/8 562/18/8 564/19/8 565/20/8
f 560/21/7 561/22/7 565/23/7 564/24/7
f 567/11/4 569/12/4 570/13/4 568/14/4
f 570/13/16 569/12/16 571/15/16 572/16/16
f 572/17/17 571/18/17 573/19/17 574/20/17
f 554/21/7 555/22/7 574/23/7 573/24/7
f 580/29/8 577/30/8 582/31/8 581/32/8
f 580/33/6 579/34/6 585/34/6 586/33/6
f 578/35/8 579/34/8 567/36/8 568/37/8
f 577/38/8 578/35/8 568/37/8 576/39/8
f 579/34/8 580/33/8 575/40/8 567/36/8
f 575/45/8 580/46/8 581/47/8 566/48/8
f 584/49/8 583/50/8 586/51/8 585/52/8
f 579/34/4 578/35/4 584/53/4 585/34/4
f 578/35/18 577/38/18 583/54/18 584/53/18
f 577/55/7 580/56/7 586/56/7 583/55/7
f 587/25/8 588/57/8 556/36/8 557/37/8
f 590/58/8 589/26/8 555/59/8 554/60/8
f 588/57/8 590/58/8 554/60/8 556/36/8
f 589/26/8 587/25/8 557/37/8 555/59/8
f 590/26/7 592/27/7 591/61/7 589/58/7
f 589/58/18 591/61/18 593/62/18 587/57/18
f 587/57/4 593/62/4 594/28/4 588/25/4
f 594/28/8 593/62/8 591/61/8 592/27/8
f 588/25/6 594/28/6 592/27/6 590/26/6
f 560/84/18 556/81/18 606/82/18
f 762/84/18 655/81/18 603/82/18
f 762/80/18 603/83/18 1172/82/18 687/81/18
f 1175/80/18 1172/131/18 1173/130/18
f 1175/84/18 687/81/18 1172/82/18
f 560/80/18 606/83/18 603/82/18 655/81/18
f 554/84/18 567/81/18 604/82/18
f 1174/80/18 605/86/18 604/82/18 567/81/18 575/85/18
f 554/80/18 604/83/18 606/82/18 556/81/18
f 769/87/8 612/90/8 611/89/8 768/88/8
f 769/91/8 609/93/8 614/92/8
f 522/94/18 609/97/18 610/96/18 523/95/18
f 527/64/18 614/65/18 609/66/18 522/63/18
f 524/98/6 611/101/6 612/100/6 525/99/6
f 1081/107/18 1136/108/18 1138/109/18 1139/110/18 1137/111/18
f 1137/84/18 603/82/18 1081/81/18
f 600/112/4 599/114/4 595/114/4 596/113/4
f 601/115/7 602/117/7 598/116/7 597/115/7
f 602/117/6 600/112/6 596/113/6 598/116/6
f 595/114/8 597/115/8 598/116/8 596/113/8
f 601/115/8 599/114/8 657/119/8 504/118/8
f 600/112/8 602/117/8 561/121/8 656/120/8
f 599/114/8 600/112/8 656/120/8 657/119/8
f 602/117/8 601/115/8 504/118/8 561/121/8
f 599/114/18 601/115/18 597/115/18 595/114/18
f 620/112/4 619/114/4 615/114/4 616/113/4
f 621/115/7 622/117/7 618/116/7 617/115/7
f 622/117/6 620/112/6 616/113/6 618/116/6
f 615/114/8 617/115/8 618/116/8 616/113/8
f 621/115/8 619/114/8 659/119/8 444/118/8
f 620/112/8 622/117/8 505/121/8 658/120/8
f 619/114/8 620/112/8 658/120/8 659/119/8
f 622/117/8 621/115/8 444/118/8 505/121/8
f 619/114/18 621/115/18 617/115/18 615/114/18
f 628/112/4 627/114/4 623/114/4 624/113/4
f 629/115/7 630/117/7 626/116/7 625/115/7
f 630/117/6 628/112/6 624/113/6 626/116/6
f 623/114/8 625/115/8 626/116/8 624/113/8
f 629/115/8 627/114/8 374/119/8 404/118/8
f 628/112/8 630/117/8 445/121/8 660/120/8
f 627/114/8 628/112/8 660/120/8 374/119/8
f 630/117/8 629/115/8 404/118/8 445/121/8
f 627/114/18 629/115/18 625/115/18 623/114/18
f 1137/80/18 1099/81/18 1172/82/18 603/83/18
f 1096/136/18 1171/137/18 1099/138/18 1098/139/18 1097/140/18
f 636/112/4 632/113/4 631/114/4 635/114/4
f 637/115/7 633/115/7 634/116/7 638/117/7
f 638/117/18 634/116/18 632/113/18 636/112/18
f 631/114/8 632/113/8 634/116/8 633/115/8
f 637/115/8 444/118/8 659/119/8 635/114/8
f 636/112/8 660/120/8 445/121/8 638/117/8
f 635/114/8 659/119/8 660/120/8 636/112/8
f 638/117/8 445/121/8 444/118/8 637/115/8
f 635/114/6 631/114/6 633/115/6 637/115/6
f 644/112/4 640/113/4 639/114/4 643/114/4
f 645/115/7 641/115/7 642/116/7 646/117/7
f 646/117/18 642/116/18 640/113/18 644/112/18
f 639/114/8 640/113/8 642/116/8 641/115/8
f 645/115/8 504/118/8 657/119/8 643/114/8
f 644/112/8 658/120/8 505/121/8 646/117/8
f 643/114/8 657/119/8 658/120/8 644/112/8
f 646/117/8 505/121/8 504/118/8 645/115/8
f 643/114/6 639/114/6 641/115/6 645/115/6
f 652/112/4 648/113/4 647/114/4 651/114/4
f 653/115/7 649/115/7 650/116/7 654/117/7
f 654/117/18 650/116/18 648/113/18 652/112/18
f 647/114/8 648/113/8 650/116/8 649/115/8
f 653/115/8 560/118/8 655/119/8 651/114/8
f 652/112/8 656/120/8 561/121/8 654/117/8
f 651/114/8 655/119/8 656/120/8 652/112/8
f 654/117/8 561/121/8 560/118/8 653/115/8
f 651/114/6 647/114/6 649/115/6 653/115/6
f 666/122/8 664/125/8 661/124/8 662/123/8
f 668/13/16 666/16/16 662/15/16 663/12/16
f 373/11/4 670/14/4 668/13/4 663/12/4
f 666/122/8 667/123/8 665/124/8 664/125/8
f 668/13/16 669/12/16 667/15/16 666/16/16
f 671/11/4 669/12/4 668/13/4 670/14/4
f 674/122/8 672/125/8 665/124/8 667/123/8
f 676/13/16 674/16/16 667/15/16 669/12/16
f 671/11/4 678/14/4 676/13/4 669/12/4
f 674/122/8 675/123/8 673/124/8 672/125/8
f 676/13/16 677/12/16 675/15/16 674/16/16
f 679/11/4 677/12/4 676/13/4 678/14/4
f 682/122/8 680/125/8 673/124/8 675/123/8
f 684/13/16 682/16/16 675/15/16 677/12/16
f 679/11/4 686/14/4 684/13/4 677/12/4
f 1171/80/18 1173/130/18 1172/131/18
f 682/122/8 683/123/8 681/124/8 680/125/8
f 684/13/16 685/12/16 683/15/16 682/16/16
f 687/11/4 685/12/4 684/13/4 686/14/4
f 1171/84/18 1172/82/18 1099/81/18
f 1096/126/18 692/127/18 1173/128/18 1171/129/18
f 1048/80/18 1081/81/18 603/82/18 606/83/18
f 691/132/2 680/135/2 681/134/2 692/133/2
f 690/132/2 673/135/2 680/134/2 691/133/2
f 689/132/2 672/135/2 673/134/2 690/133/2
f 688/132/2 665/135/2 672/134/2 689/133/2
f 1046/107/18 1047/108/18 1049/109/18 1050/110/18 1048/111/18
f 696/141/6 700/141/6 698/142/6 694/142/6
f 693/143/8 763/145/8 762/144/8 694/142/8
f 696/141/8 687/148/8 686/147/8 695/146/8
f 695/146/8 686/147/8 763/145/8 693/143/8
f 694/142/8 762/144/8 687/148/8 696/141/8
f 700/141/8 699/150/8 697/149/8 698/142/8
f 693/143/18 697/149/18 699/150/18 695/146/18
f 694/142/7 698/142/7 697/149/7 693/143/7
f 695/146/4 699/150/4 700/141/4 696/141/4
f 704/141/6 708/141/6 706/142/6 702/142/6
f 701/143/8 755/145/8 754/144/8 702/142/8
f 704/141/8 679/148/8 678/147/8 703/146/8
f 703/146/8 678/147/8 755/145/8 701/143/8
f 702/142/8 754/144/8 679/148/8 704/141/8
f 708/141/8 707/150/8 705/149/8 706/142/8
f 701/143/18 705/149/18 707/150/18 703/146/18
f 702/142/7 706/142/7 705/149/7 701/143/7
f 703/146/4 707/150/4 708/141/4 704/141/4
f 712/141/6 716/141/6 714/142/6 710/142/6
f 709/143/8 747/145/8 746/144/8 710/142/8
f 712/141/8 671/148/8 670/147/8 711/146/8
f 711/146/8 670/147/8 747/145/8 709/143/8
f 710/142/8 746/144/8 671/148/8 712/141/8
f 716/141/8 715/150/8 713/149/8 714/142/8
f 709/143/18 713/149/18 715/150/18 711/146/18
f 710/142/7 714/142/7 713/149/7 709/143/7
f 711/146/4 715/150/4 716/141/4 712/141/4
f 1053/102/18 1054/103/18 1055/104/18 1045/105/18 1052/106/18
f 1045/84/18 604/82/18 1052/81/18
f 720/141/18 718/142/18 722/142/18 724/141/18
f 717/143/8 718/142/8 413/144/8 747/145/8
f 720/141/8 719/146/8 670/147/8 373/148/8
f 719/146/8 717/143/8 747/145/8 670/147/8
f 718/142/8 720/141/8 373/148/8 413/144/8
f 724/141/8 722/142/8 721/149/8 723/150/8
f 717/143/6 719/146/6 723/150/6 721/149/6
f 718/142/7 717/143/7 721/149/7 722/142/7
f 719/146/4 720/141/4 724/141/4 723/150/4
f 728/141/18 726/142/18 730/142/18 732/141/18
f 725/143/8 726/142/8 746/144/8 755/145/8
f 728/141/8 727/146/8 678/147/8 671/148/8
f 727/146/8 725/143/8 755/145/8 678/147/8
f 726/142/8 728/141/8 671/148/8 746/144/8
f 732/141/8 730/142/8 729/149/8 731/150/8
f 725/143/6 727/146/6 731/150/6 729/149/6
f 726/142/7 725/143/7 729/149/7 730/142/7
f 727/146/4 728/141/4 732/141/4 731/150/4
f 736/141/18 734/142/18 738/142/18 740/141/18
f 733/143/8 734/142/8 754/144/8 763/145/8
f 736/141/8 735/146/8 686/147/8 679/148/8
f 735/146/8 733/143/8 763/145/8 686/147/8
f 734/142/8 736/141/8 679/148/8 754/144/8
f 740/141/8 738/142/8 737/149/8 739/150/8
f 733/143/6 735/146/6 739/150/6 737/149/6
f 734/142/7 733/143/7 737/149/7 738/142/7
f 735/146/4 736/141/4 740/141/4 739/150/4
f 374/11/4 660/14/4 745/13/4 741/12/4
f 745/13/16 749/16/16 742/15/16 741/12/16
f 749/17/8 751/20/8 743/19/8 742/18/8
f 413/21/7 743/24/7 751/23/7 747/22/7
f 659/11/4 744/12/4 745/13/4 660/14/4
f 745/13/16 744/12/16 748/15/16 749/16/16
f 749/17/8 748/18/8 750/19/8 751/20/8
f 746/21/7 747/22/7 751/23/7 750/24/7
f 659/11/4 658/14/4 753/13/4 744/12/4
f 753/13/16 757/16/16 748/15/16 744/12/16
f 757/17/8 759/20/8 750/19/8 748/18/8
f 746/21/7 750/24/7 759/23/7 755/22/7
f 657/11/4 752/12/4 753/13/4 658/14/4
f 753/13/16 752/12/16 756/15/16 757/16/16
f 757/17/8 756/18/8 758/19/8 759/20/8
f 754/21/7 755/22/7 759/23/7 758/24/7
f 657/11/4 656/14/4 761/13/4 752/12/4
f 761/13/16 765/16/16 756/15/16 752/12/16
f 765/17/8 767/20/8 758/19/8 756/18/8
f 754/21/7 758/24/7 767/23/7 763/22/7
f 655/11/4 760/12/4 761/13/4 656/14/4
f 761/13/16 760/12/16 764/15/16 765/16/16
f 765/17/8 764/18/8 766/19/8 767/20/8
f 762/21/7 763/22/7 767/23/7 766/24/7
f 1051/80/18 1056/85/18 1052/81/18 604/82/18 605/86/18
f 1048/84/18 606/82/18 1046/81/18
f 1045/80/18 1046/81/18 606/82/18 604/83/18
f 613/151/8 612/90/8 769/87/8
f 609/93/8 769/91/8 768/153/8 610/152/8
f 772/11/4 773/14/4 775/13/4 774/12/4
f 775/13/19 779/16/19 778/15/19 774/12/19
f 779/17/18 781/20/18 780/19/18 778/18/18
f 776/21/7 780/24/7 781/23/7 777/22/7
f 784/11/4 785/14/4 787/13/4 786/12/4
f 787/13/19 789/16/19 788/15/19 786/12/19
f 789/17/20 1170/20/20 790/19/20 788/18/20
f 770/21/7 790/24/7 1170/23/7 771/22/7
f 796/29/18 797/32/18 798/31/18 793/30/18
f 796/33/10 802/33/10 801/34/10 795/34/10
f 794/35/18 785/37/18 784/36/18 795/34/18
f 793/38/18 792/39/18 785/37/18 794/35/18
f 795/34/18 784/36/18 791/40/18 796/33/18
f 783/41/18 792/44/18 793/43/18 798/42/18
f 791/45/18 782/48/18 797/47/18 796/46/18
f 800/49/18 801/52/18 802/51/18 799/50/18
f 795/34/4 801/34/4 800/53/4 794/35/4
f 794/35/8 800/53/8 799/54/8 793/38/8
f 793/55/7 799/55/7 802/56/7 796/56/7
f 803/25/18 773/37/18 772/36/18 804/57/18
f 806/58/18 770/60/18 771/59/18 805/26/18
f 804/57/18 772/36/18 770/60/18 806/58/18
f 805/26/18 771/59/18 773/37/18 803/25/18
f 806/26/7 805/58/7 807/61/7 808/27/7
f 805/58/8 803/57/8 809/62/8 807/61/8
f 803/57/4 804/25/4 810/28/4 809/62/4
f 810/28/18 808/27/18 807/61/18 809/62/18
f 804/25/10 806/26/10 808/27/10 810/28/10
f 772/11/4 774/12/4 831/13/4 830/14/4
f 831/13/19 774/12/19 778/15/19 833/16/19
f 833/17/18 778/18/18 780/19/18 834/20/18
f 776/21/7 832/22/7 834/23/7 780/24/7
f 821/25/10 823/26/10 827/27/10 825/28/10
f 784/11/4 786/12/4 837/13/4 836/14/4
f 837/13/19 786/12/19 788/15/19 838/16/19
f 838/17/21 788/18/21 790/19/21 839/20/21
f 770/21/7 829/22/7 839/23/7 790/24/7
f 814/29/18 811/30/18 816/31/18 815/32/18
f 814/33/8 813/34/8 819/34/8 820/33/8
f 812/35/18 813/34/18 784/36/18 836/37/18
f 811/38/18 812/35/18 836/37/18 840/39/18
f 813/34/18 814/33/18 791/40/18 784/36/18
f 835/41/18 816/42/18 811/43/18 840/44/18
f 791/45/18 814/46/18 815/47/18 782/48/18
f 818/49/18 817/50/18 820/51/18 819/52/18
f 813/34/4 812/35/4 818/53/4 819/34/4
f 812/35/10 811/38/10 817/54/10 818/53/10
f 811/55/7 814/56/7 820/56/7 817/55/7
f 821/25/18 822/57/18 772/36/18 830/37/18
f 824/58/18 823/26/18 829/59/18 770/60/18
f 822/57/18 824/58/18 770/60/18 772/36/18
f 823/26/18 821/25/18 830/37/18 829/59/18
f 825/28/18 827/27/18 828/61/18 826/62/18
f 822/57/4 821/25/4 825/28/4 826/62/4
f 824/58/8 822/57/8 826/62/8 828/61/8
f 823/26/7 824/58/7 828/61/7 827/27/7
f 842/11/4 830/14/4 831/13/4 843/12/4
f 831/13/19 833/16/19 845/15/19 843/12/19
f 833/17/18 834/20/18 846/19/18 845/18/18
f 844/21/7 846/24/7 834/23/7 832/22/7
f 848/11/4 836/14/4 837/13/4 849/12/4
f 837/13/19 838/16/19 850/15/19 849/12/19
f 838/17/21 839/20/21 851/19/21 850/18/21
f 841/21/7 851/24/7 839/23/7 829/22/7
f 856/29/18 857/32/18 858/31/18 853/30/18
f 856/33/10 862/33/10 861/34/10 855/34/10
f 854/35/18 836/37/18 848/36/18 855/34/18
f 853/38/18 840/39/18 836/37/18 854/35/18
f 855/34/18 848/36/18 852/40/18 856/33/18
f 835/41/18 840/44/18 853/43/18 858/42/18
f 852/45/18 847/48/18 857/47/18 856/46/18
f 860/49/18 861/52/18 862/51/18 859/50/18
f 855/34/4 861/34/4 860/53/4 854/35/4
f 854/35/8 860/53/8 859/54/8 853/38/8
f 853/55/7 859/55/7 862/56/7 856/56/7
f 863/25/18 830/37/18 842/36/18 864/57/18
f 866/58/18 841/60/18 829/59/18 865/26/18
f 864/57/18 842/36/18 841/60/18 866/58/18
f 865/26/18 829/59/18 830/37/18 863/25/18
f 866/26/7 865/58/7 867/61/7 868/27/7
f 865/58/8 863/57/8 869/62/8 867/61/8
f 863/57/4 864/25/4 870/28/4 869/62/4
f 870/28/18 868/27/18 867/61/18 869/62/18
f 864/25/10 866/26/10 868/27/10 870/28/10
f 876/112/4 872/113/4 871/114/4 875/114/4
f 877/115/7 873/115/7 874/116/7 878/117/7
f 878/117/10 874/116/10 872/113/10 876/112/10
f 871/114/18 872/113/18 874/116/18 873/115/18
f 877/115/18 776/118/18 897/119/18 875/114/18
f 876/112/18 896/120/18 832/121/18 878/117/18
f 875/114/18 897/119/18 896/120/18 876/112/18
f 878/117/18 832/121/18 776/118/18 877/115/18
f 875/114/8 871/114/8 873/115/8 877/115/8
f 884/112/4 883/114/4 879/114/4 880/113/4
f 885/115/7 886/117/7 882/116/7 881/115/7
f 886/117/8 884/112/8 880/113/8 882/116/8
f 879/114/18 881/115/18 882/116/18 880/113/18
f 885/115/18 883/114/18 897/119/18 776/118/18
f 884/112/18 886/117/18 777/121/18 898/120/18
f 883/114/18 884/112/18 898/120/18 897/119/18
f 886/117/18 885/115/18 776/118/18 777/121/18
f 883/114/10 885/115/10 881/115/10 879/114/10
f 892/112/4 891/114/4 887/114/4 888/113/4
f 893/115/7 894/117/7 890/116/7 889/115/7
f 894/117/8 892/112/8 888/113/8 890/116/8
f 887/114/18 889/115/18 890/116/18 888/113/18
f 893/115/18 891/114/18 895/119/18 844/118/18
f 892/112/18 894/117/18 832/121/18 896/120/18
f 891/114/18 892/112/18 896/120/18 895/119/18
f 894/117/18 893/115/18 844/118/18 832/121/18
f 891/114/10 893/115/10 889/115/10 887/114/10
f 901/122/18 899/125/18 900/124/18 902/123/18
f 903/154/19 901/16/19 902/15/19 904/155/19
f 906/11/4 905/14/4 903/154/4 904/155/4
f 908/122/18 902/123/18 900/124/18 907/125/18
f 909/156/19 904/155/19 902/15/19 908/16/19
f 906/11/4 904/155/4 909/156/4 910/14/4
f 913/157/19 912/16/19 1157/15/19 1158/158/19
f 909/157/19 908/16/19 912/15/19 913/158/19
f 914/11/4 910/14/4 909/157/4 913/158/4
f 288/132/22 287/133/22 911/134/22 1167/159/22 907/135/22
f 289/132/22 288/133/22 907/134/22 900/135/22
f 918/141/10 916/142/10 920/142/10 922/141/10
f 915/143/18 916/142/18 952/144/18 948/145/18
f 918/141/18 917/146/18 910/147/18 914/148/18
f 917/146/18 915/143/18 948/145/18 910/147/18
f 916/142/18 918/141/18 914/148/18 952/144/18
f 922/141/18 920/142/18 919/149/18 921/150/18
f 915/143/8 917/146/8 921/150/8 919/149/8
f 916/142/7 915/143/7 919/149/7 920/142/7
f 917/146/4 918/141/4 922/141/4 921/150/4
f 926/141/10 924/142/10 928/142/10 930/141/10
f 923/143/18 924/142/18 941/144/18 942/145/18
f 926/141/18 925/146/18 905/147/18 906/148/18
f 925/146/18 923/143/18 942/145/18 905/147/18
f 924/142/18 926/141/18 906/148/18 941/144/18
f 930/141/18 928/142/18 927/149/18 929/150/18
f 923/143/8 925/146/8 929/150/8 927/149/8
f 924/142/7 923/143/7 927/149/7 928/142/7
f 925/146/4 926/141/4 930/141/4 929/150/4
f 934/141/8 938/141/8 936/142/8 932/142/8
f 931/143/18 948/145/18 941/144/18 932/142/18
f 934/141/18 906/148/18 910/147/18 933/146/18
f 933/146/18 910/147/18 948/145/18 931/143/18
f 932/142/18 941/144/18 906/148/18 934/141/18
f 938/141/18 937/150/18 935/149/18 936/142/18
f 931/143/10 935/149/10 937/150/10 933/146/10
f 932/142/7 936/142/7 935/149/7 931/143/7
f 933/146/4 937/150/4 938/141/4 934/141/4
f 897/11/4 898/14/4 940/13/4 939/12/4
f 940/13/19 944/16/19 943/15/19 939/12/19
f 944/17/18 946/20/18 945/19/18 943/18/18
f 941/21/7 945/24/7 946/23/7 942/22/7
f 897/11/4 939/12/4 947/13/4 896/14/4
f 947/13/19 939/12/19 943/15/19 949/16/19
f 949/17/18 943/18/18 945/19/18 950/20/18
f 941/21/7 948/22/7 950/23/7 945/24/7
f 895/11/4 896/14/4 947/13/4 951/12/4
f 947/13/19 949/16/19 953/15/19 951/12/19
f 949/17/18 950/20/18 954/19/18 953/18/18
f 952/21/7 954/24/7 950/23/7 948/22/7
f 290/132/22 289/133/22 900/134/22 899/135/22
f 956/11/4 957/12/4 987/13/4 986/14/4
f 987/13/23 957/12/23 959/15/23 989/16/23
f 989/17/10 959/18/10 960/19/10 990/20/10
f 958/21/7 988/22/7 990/23/7 960/24/7
f 977/25/6 979/26/6 983/27/6 981/28/6
f 962/11/4 963/12/4 993/13/4 992/14/4
f 993/13/23 963/12/23 964/15/23 994/16/23
f 994/17/24 964/18/24 965/19/24 995/20/24
f 955/21/7 985/22/7 995/23/7 965/24/7
f 970/29/10 967/30/10 972/31/10 971/32/10
f 970/33/18 969/34/18 975/34/18 976/33/18
f 968/35/10 969/34/10 962/36/10 992/37/10
f 967/38/10 968/35/10 992/37/10 996/39/10
f 969/34/10 970/33/10 966/40/10 962/36/10
f 991/41/10 972/42/10 967/43/10 996/44/10
f 966/45/10 970/46/10 971/47/10 961/48/10
f 974/49/10 973/50/10 976/51/10 975/52/10
f 969/34/4 968/35/4 974/53/4 975/34/4
f 968/35/6 967/38/6 973/54/6 974/53/6
f 967/55/7 970/56/7 976/56/7 973/55/7
f 977/25/10 978/57/10 956/36/10 986/37/10
f 980/58/10 979/26/10 985/59/10 955/60/10
f 978/57/10 980/58/10 955/60/10 956/36/10
f 979/26/10 977/25/10 986/37/10 985/59/10
f 981/28/10 983/27/10 984/61/10 982/62/10
f 978/57/4 977/25/4 981/28/4 982/62/4
f 980/58/18 978/57/18 982/62/18 984/61/18
f 979/26/7 980/58/7 984/61/7 983/27/7
f 998/11/4 986/14/4 987/13/4 999/12/4
f 987/13/23 989/16/23 1001/15/23 999/12/23
f 989/17/10 990/20/10 1002/19/10 1001/18/10
f 1000/21/7 1002/24/7 990/23/7 988/22/7
f 1004/11/4 992/14/4 993/13/4 1005/12/4
f 993/13/23 994/16/23 1006/15/23 1005/12/23
f 994/17/24 995/20/24 1007/19/24 1006/18/24
f 997/21/7 1007/24/7 995/23/7 985/22/7
f 1012/29/10 1013/32/10 1014/31/10 1009/30/10
f 1012/33/6 1018/33/6 1017/34/6 1011/34/6
f 1010/35/10 992/37/10 1004/36/10 1011/34/10
f 1009/38/10 996/39/10 992/37/10 1010/35/10
f 1011/34/10 1004/36/10 1008/40/10 1012/33/10
f 991/41/10 996/44/10 1009/43/10 1014/42/10
f 1008/45/10 1003/48/10 1013/47/10 1012/46/10
f 1016/49/10 1017/52/10 1018/51/10 1015/50/10
f 1011/34/4 1017/34/4 1016/53/4 1010/35/4
f 1010/35/18 1016/53/18 1015/54/18 1009/38/18
f 1009/55/7 1015/55/7 1018/56/7 1012/56/7
f 1019/25/10 986/37/10 998/36/10 1020/57/10
f 1022/58/10 997/60/10 985/59/10 1021/26/10
f 1020/57/10 998/36/10 997/60/10 1022/58/10
f 1021/26/10 985/59/10 986/37/10 1019/25/10
f 1022/26/7 1021/58/7 1023/61/7 1024/27/7
f 1021/58/18 1019/57/18 1025/62/18 1023/61/18
f 1019/57/4 1020/25/4 1026/28/4 1025/62/4
f 1026/28/10 1024/27/10 1023/61/10 1025/62/10
f 1020/25/6 1022/26/6 1024/27/6 1026/28/6
f 998/11/4 999/12/4 1047/13/4 1046/14/4
f 1047/13/23 999/12/23 1001/15/23 1049/16/23
f 1049/17/10 1001/18/10 1002/19/10 1050/20/10
f 1000/21/7 1048/22/7 1050/23/7 1002/24/7
f 1037/25/6 1039/26/6 1043/27/6 1041/28/6
f 1004/11/4 1005/12/4 1053/13/4 1052/14/4
f 1053/13/23 1005/12/23 1006/15/23 1054/16/23
f 1054/17/24 1006/18/24 1007/19/24 1055/20/24
f 997/21/7 1045/22/7 1055/23/7 1007/24/7
f 1030/29/10 1027/30/10 1032/31/10 1031/32/10
f 1030/33/18 1029/34/18 1035/34/18 1036/33/18
f 1028/35/10 1029/34/10 1004/36/10 1052/37/10
f 1027/38/10 1028/35/10 1052/37/10 1056/39/10
f 1029/34/10 1030/33/10 1008/40/10 1004/36/10
f 1051/41/10 1032/42/10 1027/43/10 1056/44/10
f 1008/45/10 1030/46/10 1031/47/10 1003/48/10
f 1034/49/10 1033/50/10 1036/51/10 1035/52/10
f 1029/34/4 1028/35/4 1034/53/4 1035/34/4
f 1028/35/6 1027/38/6 1033/54/6 1034/53/6
f 1027/55/7 1030/56/7 1036/56/7 1033/55/7
f 1037/25/10 1038/57/10 998/36/10 1046/37/10
f 1040/58/10 1039/26/10 1045/59/10 997/60/10
f 1038/57/10 1040/58/10 997/60/10 998/36/10
f 1039/26/10 1037/25/10 1046/37/10 1045/59/10
f 1041/28/10 1043/27/10 1044/61/10 1042/62/10
f 1038/57/4 1037/25/4 1041/28/4 1042/62/4
f 1040/58/18 1038/57/18 1042/62/18 1044/61/18
f 1039/26/7 1040/58/7 1044/61/7 1043/27/7
f 1062/112/4 1058/113/4 1057/114/4 1061/114/4
f 1063/115/7 1059/115/7 1060/116/7 1064/117/7
f 1064/117/6 1060/116/6 1058/113/6 1062/112/6
f 1057/114/10 1058/113/10 1060/116/10 1059/115/10
f 1063/115/10 1000/118/10 1082/119/10 1061/114/10
f 1062/112/10 1081/120/10 1048/121/10 1064/117/10
f 1061/114/10 1082/119/10 1081/120/10 1062/112/10
f 1064/117/10 1048/121/10 1000/118/10 1063/115/10
f 1061/114/18 1057/114/18 1059/115/18 1063/115/18
f 1070/112/4 1066/113/4 1065/114/4 1069/114/4
f 1071/115/7 1067/115/7 1068/116/7 1072/117/7
f 1072/117/6 1068/116/6 1066/113/6 1070/112/6
f 1065/114/10 1066/113/10 1068/116/10 1067/115/10
f 1071/115/10 958/118/10 1084/119/10 1069/114/10
f 1070/112/10 1083/120/10 988/121/10 1072/117/10
f 1069/114/10 1084/119/10 1083/120/10 1070/112/10
f 1072/117/10 988/121/10 958/118/10 1071/115/10
f 1069/114/18 1065/114/18 1067/115/18 1071/115/18
f 1078/112/4 1077/114/4 1073/114/4 1074/113/4
f 1079/115/7 1080/117/7 1076/116/7 1075/115/7
f 1080/117/18 1078/112/18 1074/113/18 1076/116/18
f 1073/114/10 1075/115/10 1076/116/10 1074/113/10
f 1079/115/10 1077/114/10 1082/119/10 1000/118/10
f 1078/112/10 1080/117/10 988/121/10 1083/120/10
f 1077/114/10 1078/112/10 1083/120/10 1082/119/10
f 1080/117/10 1079/115/10 1000/118/10 988/121/10
f 1077/114/6 1079/115/6 1075/115/6 1073/114/6
f 1090/157/23 1086/160/23 1085/15/23 1089/16/23
f 1087/11/4 1086/160/4 1090/157/4 1091/14/4
f 1089/122/10 1088/125/10 1092/124/10 1093/123/10
f 1090/161/23 1089/16/23 1093/15/23 1094/162/23
f 1095/11/4 1091/14/4 1090/161/4 1094/162/4
f 1097/122/10 1093/123/10 1092/124/10 1096/125/10
f 1098/163/23 1094/162/23 1093/15/23 1097/16/23
f 1095/11/4 1094/162/4 1098/163/4 1099/14/4
f 691/132/25 692/133/25 1096/134/25 1092/135/25
f 690/132/25 691/133/25 1092/134/25 1088/135/25
f 689/132/26 690/133/26 1088/134/26 1166/164/26 911/135/26
f 1103/141/6 1101/142/6 1105/142/6 1107/141/6
f 1100/143/10 1101/142/10 1133/144/10 1129/145/10
f 1103/141/10 1102/146/10 1091/147/10 1095/148/10
f 1102/146/10 1100/143/10 1129/145/10 1091/147/10
f 1101/142/10 1103/141/10 1095/148/10 1133/144/10
f 1107/141/10 1105/142/10 1104/149/10 1106/150/10
f 1100/143/18 1102/146/18 1106/150/18 1104/149/18
f 1101/142/7 1100/143/7 1104/149/7 1105/142/7
f 1102/146/4 1103/141/4 1107/141/4 1106/150/4
f 1111/141/18 1115/141/18 1113/142/18 1109/142/18
f 1108/143/10 1129/145/10 1125/144/10 1109/142/10
f 1111/141/10 1087/148/10 1091/147/10 1110/146/10
f 1110/146/10 1091/147/10 1129/145/10 1108/143/10
f 1109/142/10 1125/144/10 1087/148/10 1111/141/10
f 1115/141/10 1114/150/10 1112/149/10 1113/142/10
f 1108/143/6 1112/149/6 1114/150/6 1110/146/6
f 1109/142/7 1113/142/7 1112/149/7 1108/143/7
f 1110/146/4 1114/150/4 1115/141/4 1111/141/4
f 1119/141/18 1123/141/18 1121/142/18 1117/142/18
f 1116/143/10 1137/145/10 1133/144/10 1117/142/10
f 1119/141/10 1095/148/10 1099/147/10 1118/146/10
f 1118/146/10 1099/147/10 1137/145/10 1116/143/10
f 1117/142/10 1133/144/10 1095/148/10 1119/141/10
f 1123/141/10 1122/150/10 1120/149/10 1121/142/10
f 1116/143/6 1120/149/6 1122/150/6 1118/146/6
f 1117/142/7 1121/142/7 1120/149/7 1116/143/7
f 1118/146/4 1122/150/4 1123/141/4 1119/141/4
f 1084/11/4 1124/12/4 1128/13/4 1083/14/4
f 1128/13/23 1124/12/23 1126/15/23 1130/16/23
f 1130/17/10 1126/18/10 1127/19/10 1131/20/10
f 1125/21/7 1129/22/7 1131/23/7 1127/24/7
f 1082/11/4 1083/14/4 1128/13/4 1132/12/4
f 1128/13/23 1130/16/23 1134/15/23 1132/12/23
f 1130/17/10 1131/20/10 1135/19/10 1134/18/10
f 1133/21/7 1135/24/7 1131/23/7 1129/22/7
f 1082/11/4 1132/12/4 1136/13/4 1081/14/4
f 1136/13/23 1132/12/23 1134/15/23 1138/16/23
f 1138/17/10 1134/18/10 1135/19/10 1139/20/10
f 1133/21/7 1137/22/7 1139/23/7 1135/24/7
f 688/132/27 689/133/27 911/135/27
f 287/132/22 286/133/22 911/135/22
f 688/132/27 911/135/27 1/10/27
f 286/133/22 1/1/22 911/135/22
f 1140/29/10 966/30/10 961/31/10 1141/32/10
f 1143/45/10 1140/46/10 1141/47/10 1142/48/10
f 1144/29/18 1145/32/18 847/31/18 852/30/18
f 1143/45/18 1142/48/18 1145/47/18 1144/46/18
f 955/21/7 965/24/7 1155/24/7 1146/21/7
f 959/15/28 957/12/28 1148/12/28 1150/15/28
f 1084/119/10 958/118/10 1149/118/10 1156/119/10
f 1085/15/29 1086/160/29 1158/165/29 1157/15/29
f 1087/148/10 1125/144/10 1161/144/10 1159/148/10
f 960/19/10 959/18/10 1150/18/10 1151/19/10
f 956/36/10 955/60/10 1146/60/10 1147/36/10
f 1086/160/4 1087/11/4 1159/11/4 1158/165/4
f 958/21/7 960/24/7 1151/24/7 1149/21/7
f 963/12/4 962/11/4 1152/11/4 1153/12/4
f 1126/15/28 1124/12/28 1160/12/28 1162/15/28
f 964/15/30 963/12/30 1153/12/30 1154/15/30
f 1124/12/4 1084/11/4 1156/11/4 1160/12/4
f 1127/19/10 1126/18/10 1162/18/10 1163/19/10
f 965/19/31 964/18/31 1154/18/31 1155/19/31
f 1125/21/7 1127/24/7 1163/24/7 1161/21/7
f 957/12/4 956/11/4 1147/11/4 1148/12/4
f 841/60/18 842/36/18 1147/36/18 1146/60/18
f 914/11/4 913/158/4 1158/166/4 1159/11/4
f 951/12/32 953/15/32 1162/15/32 1160/12/32
f 846/24/7 844/21/7 1149/21/7 1151/24/7
f 952/144/18 914/148/18 1159/148/18 1161/144/18
f 953/18/18 954/19/18 1163/19/18 1162/18/18
f 843/12/32 845/15/32 1150/15/32 1148/12/32
f 849/12/33 850/15/33 1154/15/33 1153/12/33
f 851/24/7 841/21/7 1146/21/7 1155/24/7
f 842/11/4 843/12/4 1148/12/4 1147/11/4
f 954/24/7 952/21/7 1161/21/7 1163/24/7
f 848/11/4 849/12/4 1153/12/4 1152/11/4
f 845/18/18 846/19/18 1151/19/18 1150/18/18
f 844/118/18 895/119/18 1156/119/18 1149/118/18
f 850/18/34 851/19/34 1155/19/34 1154/18/34
f 895/11/4 951/12/4 1160/12/4 1156/11/4
f 962/167/10 966/168/10 1140/168/10 1143/169/10 1152/167/10
f 1164/170/18 1165/171/18 1144/172/18 852/173/18 848/174/18
f 1085/122/10 1166/125/10 1088/124/10 1089/123/10
f 1157/122/35 911/125/35 1166/124/35 1085/123/35
f 912/122/18 908/123/18 907/124/18 1167/125/18
f 1157/122/18 912/123/18 1167/124/18 911/125/18
f 771/80/10 217/83/10 215/82/10 773/81/10
f 1168/80/10 216/86/10 217/82/10 785/81/10 792/85/10
f 771/84/10 785/81/10 217/82/10
f 777/80/10 215/83/10 249/82/10 898/81/10
f 1169/84/10 905/81/10 291/82/10
f 1169/80/10 291/131/10 292/130/10
f 942/80/10 249/83/10 291/82/10 905/81/10
f 942/84/10 898/81/10 249/82/10
f 777/84/10 773/81/10 215/82/10
f 899/126/10 1169/175/10 292/128/10 290/127/10
f 899/176/10 901/177/10 903/178/10 1169/179/10
f 905/180/10 1169/179/10 903/178/10
f 946/176/10 944/177/10 940/178/10 942/179/10
f 898/180/10 942/179/10 940/178/10
f 781/176/10 779/177/10 775/178/10 777/179/10
f 773/180/10 777/179/10 775/178/10
f 1170/176/10 789/177/10 787/178/10 771/179/10
f 785/180/10 771/179/10 787/178/10
f 681/126/18 1175/175/18 1173/128/18 692/127/18
f 681/176/18 683/177/18 685/178/18 1175/179/18
f 687/180/18 1175/179/18 685/178/18
f 766/176/18 764/177/18 760/178/18 762/179/18
f 655/180/18 762/179/18 760/178/18
f 564/176/18 562/177/18 558/178/18 560/179/18
f 556/180/18 560/179/18 558/178/18
f 1176/176/18 571/177/18 569/178/18 554/179/18
f 567/180/18 554/179/18 569/178/18
f 576/45/8 536/46/8 541/47/8 1177/48/8
f 576/45/8 1177/48/8 582/47/8 577/46/8
l 198 199
l 607 608
