# Blender 5.1.1
# www.blender.org
mtllib PBP1_Building1.mtl
o PBP1_Building1
v 9.701434 -1.878512 0.391795
v 9.701434 1.282312 0.391795
v 9.701434 1.282311 0.549113
v 9.701434 1.470682 0.391795
v 9.701434 1.386703 0.638373
v 9.701434 1.470682 0.638373
v 9.701434 -5.227705 0.391795
v 9.701434 -2.066882 0.391795
v 9.701434 -2.066882 0.549113
v 9.701434 -1.962490 0.638373
v 9.701434 -1.878512 0.649441
v 9.701434 -4.448629 0.391795
v 7.990067 -4.448629 0.391795
v 7.990067 -2.631186 0.391795
v 8.985997 -2.631186 0.391795
v 8.985997 -4.448629 0.391795
v 8.985996 -5.227705 0.391795
v 7.990067 -5.227705 0.391795
v 7.990067 -4.448629 0.227390
v 7.990067 -2.631186 0.227390
v 8.985997 -2.631186 0.227390
v 8.985997 -4.448629 0.227390
v 7.952249 0.673823 0.391795
v 9.023815 0.673823 0.391795
v 7.952249 -1.078883 0.391795
v 9.023815 -1.078883 0.391795
v 7.952249 0.673823 0.227390
v 9.023816 0.673823 0.227390
v 7.952249 -1.078883 0.227390
v 9.023816 -1.078883 0.227390
v 9.023815 2.270310 0.391795
v 7.952249 2.270310 0.391795
v 9.023815 4.023016 0.391795
v 7.952249 4.023016 0.391795
v 9.701434 4.819875 0.638373
v 9.701434 4.735897 0.638373
v 9.701434 4.631505 0.549113
v 9.701434 4.631505 0.391795
v 7.952249 4.023016 0.227390
v 9.023816 4.023016 0.227390
v 7.952249 2.270310 0.227390
v 9.023816 2.270310 0.227390
v 4.847822 -1.878512 0.391797
v 7.274629 -1.878512 0.391795
v 4.847822 1.282312 0.391797
v 7.274629 1.282312 0.391795
v 4.847822 1.282311 0.549115
v 7.274629 1.282311 0.549114
v 4.847822 1.470682 0.391797
v 7.274629 1.470682 0.391795
v 4.847822 1.386703 0.638375
v 7.274629 1.386703 0.638374
v 4.847822 1.470682 0.638375
v 7.274629 1.470682 0.638374
v 4.847822 -5.227705 0.391797
v 7.274629 -5.227705 0.391795
v 4.847822 -2.066882 0.391797
v 7.274629 -2.066882 0.391795
v 4.847822 -2.066882 0.549115
v 7.274629 -2.066882 0.549114
v 4.847822 -1.962490 0.638375
v 7.274629 -1.962490 0.638374
v 4.847822 -1.878512 0.649443
v 7.274629 -1.878512 0.649442
v 4.847822 -4.448629 0.391797
v 7.274629 -4.448629 0.391795
v 6.559191 -4.448629 0.391796
v 6.559191 -2.631186 0.391796
v 5.563260 -2.631186 0.391796
v 5.563260 -4.448629 0.391796
v 5.563260 -5.227705 0.391796
v 6.559191 -5.227705 0.391796
v 6.559191 -4.448629 0.227391
v 6.559191 -2.631186 0.227391
v 5.563260 -2.631186 0.227392
v 5.563260 -4.448629 0.227392
v 6.597009 0.673823 0.391796
v 5.525442 0.673823 0.391797
v 6.597009 -1.078883 0.391796
v 5.525442 -1.078883 0.391797
v 6.597010 -1.078883 0.227390
v 5.525443 -1.078883 0.227390
v 6.597010 0.673823 0.227390
v 5.525443 0.673823 0.227390
v 5.525442 2.270310 0.391797
v 6.597009 2.270310 0.391796
v 5.525442 4.023016 0.391797
v 6.597009 4.023016 0.391796
v 7.274629 4.819875 0.638374
v 4.847822 4.819875 0.638375
v 7.274629 4.735897 0.638374
v 4.847822 4.735897 0.638375
v 7.274629 4.631505 0.549114
v 4.847822 4.631505 0.549115
v 7.274629 4.631505 0.391795
v 4.847822 4.631505 0.391797
v 5.525443 4.023016 0.227390
v 6.597010 4.023016 0.227390
v 5.525443 2.270310 0.227390
v 6.597010 2.270310 0.227390
v 3.136454 -4.448629 0.391797
v 3.136454 -2.631186 0.391797
v 4.132385 -2.631186 0.391797
v 4.132385 -4.448629 0.391797
v 4.132384 -5.227705 0.391797
v 3.136454 -5.227705 0.391797
v 3.136453 -4.448629 0.227392
v 3.136453 -2.631186 0.227392
v 4.132385 -2.631186 0.227392
v 4.132385 -4.448629 0.227392
v 3.098636 0.673823 0.391797
v 4.170202 0.673823 0.391797
v 3.098636 -1.078883 0.391797
v 4.170202 -1.078883 0.391797
v 3.098636 0.673823 0.227392
v 4.170203 0.673823 0.227392
v 3.098636 -1.078883 0.227392
v 4.170203 -1.078883 0.227392
v 4.170202 2.270310 0.391797
v 3.098636 2.270310 0.391797
v 4.170202 4.023016 0.391797
v 3.098636 4.023016 0.391797
v 3.098636 4.023016 0.227392
v 4.170203 4.023016 0.227392
v 3.098636 2.270310 0.227392
v 4.170203 2.270310 0.227392
v -0.005791 -1.878512 0.391798
v 2.421015 -1.878512 0.391797
v -0.005791 1.282312 0.391798
v 2.421015 1.282312 0.391797
v -0.005790 1.282311 0.549117
v 2.421015 1.282311 0.549115
v -0.005791 1.470682 0.391798
v 2.421016 1.470682 0.391797
v -0.005790 1.386703 0.638377
v 2.421015 1.386703 0.638375
v -0.005790 1.470682 0.638377
v 2.421016 1.470682 0.638375
v -0.005791 -5.227705 0.391798
v 2.421015 -5.227705 0.391797
v -0.005791 -2.066882 0.391798
v 2.421015 -2.066882 0.391797
v -0.005790 -2.066882 0.549117
v 2.421015 -2.066882 0.549115
v -0.005790 -1.962490 0.638377
v 2.421015 -1.962490 0.638375
v -0.005790 -1.878512 0.649445
v 2.421016 -1.878512 0.649443
v -0.005791 -4.448629 0.391798
v 2.421015 -4.448629 0.391797
v 2.215915 -4.448629 0.391797
v 2.215915 -2.631186 0.391797
v 0.199311 -2.631186 0.391798
v 0.199311 -4.448629 0.391798
v 0.199311 -5.227705 0.391798
v 2.215915 -5.227705 0.391797
v 1.743397 0.673823 0.391797
v 0.671830 0.673823 0.391798
v 1.743397 -1.078883 0.391797
v 0.671830 -1.078883 0.391798
v 1.743397 -1.078883 0.227392
v 0.671830 -1.078883 0.227392
v 1.743397 0.673823 0.227392
v 0.671830 0.673823 0.227392
v 0.671830 2.270310 0.391798
v 1.743397 2.270310 0.391797
v 0.671830 4.023016 0.391798
v 1.743397 4.023016 0.391797
v 2.421016 4.819875 0.638375
v -0.005790 4.819875 0.638377
v 2.421015 4.735897 0.638375
v -0.005790 4.735897 0.638377
v 2.421015 4.631505 0.549115
v -0.005790 4.631505 0.549117
v 2.421015 4.631505 0.391797
v -0.005791 4.631505 0.391798
v 0.671830 4.023016 0.227392
v 1.743397 4.023016 0.227392
v 0.671830 2.270310 0.227392
v 1.743397 2.270310 0.227392
v -1.717158 -4.448629 0.391798
v -1.717158 -2.631186 0.391798
v -0.721226 -2.631186 0.391798
v -0.721226 -4.448629 0.391798
v -0.721228 -5.227705 0.391798
v -1.717158 -5.227705 0.391798
v -1.717158 -4.448629 0.227393
v -1.717158 -2.631186 0.227393
v -0.721227 -2.631186 0.227393
v -0.721227 -4.448629 0.227393
v -1.754976 0.673823 0.391798
v -0.683409 0.673823 0.391798
v -1.754976 -1.078883 0.391798
v -0.683409 -1.078883 0.391798
v -1.754976 0.673823 0.227393
v -0.683409 0.673823 0.227393
v -1.754976 -1.078883 0.227393
v -0.683409 -1.078883 0.227393
v -0.683409 2.270310 0.391798
v -1.754976 2.270310 0.391798
v -0.683409 4.023016 0.391798
v -1.754976 4.023016 0.391798
v -1.754976 4.023016 0.227393
v -0.683409 4.023016 0.227393
v -1.754976 2.270310 0.227393
v -0.683409 2.270310 0.227393
v -4.859402 -1.878512 0.391800
v -2.432596 -1.878512 0.391799
v -4.859402 1.282312 0.391800
v -2.432596 1.282312 0.391799
v -4.859402 1.282311 0.549118
v -2.432596 1.282311 0.549117
v -4.859402 1.470682 0.391800
v -2.432596 1.470682 0.391799
v -4.859402 1.386703 0.638378
v -2.432596 1.386703 0.638377
v -4.859402 1.470682 0.638378
v -2.432596 1.470682 0.638377
v -4.859402 -5.227705 0.391800
v -2.432596 -5.227705 0.391799
v -4.859402 -2.066882 0.391800
v -2.432596 -2.066882 0.391799
v -4.859402 -2.066882 0.549118
v -2.432596 -2.066882 0.549117
v -4.859402 -1.962490 0.638378
v -2.432596 -1.962490 0.638377
v -4.859402 -1.878512 0.649446
v -2.432596 -1.878512 0.649445
v -4.859402 -4.448629 0.391800
v -2.432596 -4.448629 0.391799
v -3.148034 -4.448629 0.391799
v -3.148034 -2.631186 0.391799
v -4.143964 -2.631186 0.391800
v -4.143964 -4.448629 0.391800
v -4.143964 -5.227705 0.391800
v -3.148034 -5.227705 0.391799
v -3.148034 -4.448629 0.227394
v -3.148034 -2.631186 0.227394
v -4.143964 -2.631186 0.227395
v -4.143964 -4.448629 0.227395
v -3.110217 0.673823 0.391799
v -4.181784 0.673823 0.391800
v -3.110217 -1.078883 0.391799
v -4.181784 -1.078883 0.391800
v -3.110215 -1.078883 0.227393
v -4.181782 -1.078883 0.227393
v -3.110215 0.673823 0.227393
v -4.181782 0.673823 0.227393
v -4.181784 2.270310 0.391800
v -3.110217 2.270310 0.391799
v -4.181784 4.023016 0.391800
v -3.110217 4.023016 0.391799
v -2.432596 4.819875 0.638377
v -4.859402 4.819875 0.638378
v -2.432596 4.735897 0.638377
v -4.859402 4.735897 0.638378
v -2.432596 4.631505 0.549117
v -4.859402 4.631505 0.549118
v -2.432596 4.631505 0.391799
v -4.859402 4.631505 0.391800
v -4.181782 4.023016 0.227393
v -3.110215 4.023016 0.227393
v -4.181782 2.270310 0.227393
v -3.110215 2.270310 0.227393
v -6.570772 -4.448629 0.391800
v -6.570772 -2.631186 0.391800
v -5.574840 -2.631186 0.391800
v -5.574840 -4.448629 0.391800
v -5.574840 -5.227705 0.391800
v -6.570772 -5.227705 0.391800
v -6.570772 -4.448629 0.227395
v -6.570772 -2.631186 0.227395
v -5.574840 -2.631186 0.227395
v -5.574840 -4.448629 0.227395
v -6.608590 0.673823 0.391800
v -5.537023 0.673823 0.391800
v -6.608590 -1.078883 0.391800
v -5.537023 -1.078883 0.391800
v -6.608590 0.673823 0.227395
v -5.537023 0.673823 0.227395
v -6.608590 -1.078883 0.227395
v -5.537023 -1.078883 0.227395
v -5.537023 2.270310 0.391800
v -6.608590 2.270310 0.391800
v -5.537023 4.023016 0.391800
v -6.608590 4.023016 0.391800
v -6.608590 4.023016 0.227395
v -5.537023 4.023016 0.227395
v -6.608590 2.270310 0.227395
v -5.537023 2.270310 0.227395
v -9.713016 -1.878512 0.391802
v -7.286210 -1.878512 0.391800
v -9.713016 1.282312 0.391802
v -7.286210 1.282312 0.391800
v -9.713016 1.282311 0.549120
v -7.286210 1.282311 0.549118
v -9.713016 1.470682 0.391802
v -7.286210 1.470682 0.391800
v -9.713016 1.386703 0.638380
v -7.286210 1.386703 0.638378
v -9.713016 1.470682 0.638380
v -7.286210 1.470682 0.638378
v -9.713016 -5.227705 0.391802
v -7.286210 -5.227705 0.391800
v -9.713016 -2.066882 0.391802
v -7.286210 -2.066882 0.391800
v -9.713016 -2.066882 0.549120
v -7.286210 -2.066882 0.549118
v -9.713016 -1.962490 0.638380
v -7.286210 -1.962490 0.638378
v -9.713016 -1.878512 0.649448
v -7.286210 -1.878512 0.649446
v -9.713016 -4.448629 0.391802
v -7.286210 -4.448629 0.391800
v -8.001646 -4.448629 0.391801
v -8.001646 -2.631186 0.391801
v -8.997578 -2.631186 0.391801
v -8.997578 -4.448629 0.391801
v -8.997576 -5.227705 0.391801
v -8.001646 -5.227705 0.391801
v -8.001646 -4.448629 0.227396
v -8.001646 -2.631186 0.227396
v -8.997578 -2.631186 0.227396
v -8.997578 -4.448629 0.227396
v -7.963829 0.673823 0.391801
v -9.035396 0.673823 0.391801
v -7.963829 -1.078883 0.391801
v -9.035396 -1.078883 0.391801
v -7.963829 -1.078883 0.227395
v -9.035394 -1.078883 0.227395
v -7.963829 0.673823 0.227395
v -9.035394 0.673823 0.227395
v -9.035396 2.270310 0.391801
v -7.963829 2.270310 0.391801
v -9.035396 4.023016 0.391801
v -7.963829 4.023016 0.391801
v -7.286210 4.819875 0.638378
v -9.713016 4.819875 0.638380
v -7.286210 4.735897 0.638378
v -9.713016 4.735897 0.638380
v -9.713016 4.819875 0.391802
v -7.286210 4.631505 0.549118
v -9.713016 4.631505 0.549120
v -7.286210 4.631505 0.391800
v -9.713016 4.631505 0.391802
v -9.035394 4.023016 0.227395
v -7.963829 4.023016 0.227395
v -9.035394 2.270310 0.227395
v -7.963829 2.270310 0.227395
v -9.713016 -1.878512 0.309908
v -9.713016 1.282312 0.309908
v -9.713016 1.470682 0.309908
v -9.713016 -2.066882 0.309908
v -9.713016 -4.448629 0.309908
v -9.713016 4.819875 0.309908
v -9.713016 4.631505 0.309908
v -9.713015 4.631505 -3.103241
v -9.713015 1.282312 -3.103241
v -9.713016 -5.227706 0.291855
v -9.713015 -5.227706 -3.103241
v -9.713015 -2.066882 -3.103241
v -9.713015 7.293603 -3.103241
v -9.713015 7.514032 -3.103241
v -7.286209 7.514032 -3.103241
v -4.859403 7.514032 -3.103241
v -2.432595 7.514032 -3.103241
v -0.005790 7.514032 -3.103241
v 2.421016 7.514032 -3.103241
v 4.847823 7.514032 -3.103242
v 7.274630 7.514032 -3.103241
v 9.701437 7.514032 -3.103241
v 9.701440 4.819875 0.391788
v 9.701440 -1.878512 0.309895
v 9.701440 1.282312 0.309895
v 9.701440 1.470682 0.309895
v 9.701440 -2.066882 0.309895
v 9.701440 -4.448629 0.309895
v 9.701440 4.819875 0.309895
v 9.701440 4.631505 0.309895
v 9.701437 4.631505 -3.103255
v 9.701437 1.282312 -3.103255
v 9.701440 -5.227706 0.291842
v 9.701437 -5.227706 -3.103255
v 9.701437 -2.066882 -3.103255
v 9.701437 7.293603 -3.103255
v 2.215915 -4.448629 0.210597
v 2.215915 -2.631186 0.210597
v 0.199311 -2.631186 0.210597
v 0.199311 -4.448629 0.210597
v 0.199311 -5.227705 0.210597
v 2.215915 -5.227705 0.210597
v 7.274629 1.282312 -3.103251
v 7.274629 -2.066882 -3.103251
v 4.847820 1.282312 -3.103248
v 4.847820 -2.066882 -3.103248
v 2.421011 1.282312 -3.103245
v 2.421011 -2.066882 -3.103245
v -0.005798 1.282312 -3.103242
v -0.005798 -2.066882 -3.103242
v -2.432606 1.282312 -3.103238
v -2.432606 -2.066882 -3.103238
v -4.859415 1.282312 -3.103235
v -4.859415 -2.066882 -3.103235
v -7.286223 1.282312 -3.103232
v -7.286223 -2.066882 -3.103232
v 7.274629 -5.227706 -3.103251
v 4.847820 -5.227706 -3.103248
v 2.421011 -5.227706 -3.103245
v -0.005798 -5.227706 -3.103242
v -2.432606 -5.227706 -3.103238
v -4.859415 -5.227706 -3.103235
v -7.286223 -5.227706 -3.103232
v 7.274629 4.631505 -3.103251
v 4.847820 4.631505 -3.103248
v 2.421011 4.631505 -3.103245
v -0.005798 4.631505 -3.103242
v -2.432606 4.631505 -3.103238
v -4.859415 4.631505 -3.103235
v -7.286223 4.631505 -3.103232
vn -0.0000 -1.0000 -0.0000
vn -0.0000 -0.6499 0.7600
vn -0.0000 -0.0000 1.0000
vn -0.0000 1.0000 -0.0000
vn 1.0000 -0.0000 -0.0000
vn -0.0000 -0.1307 0.9914
vn -1.0000 -0.0000 -0.0000
vn -0.0000 0.8115 0.5843
vn 1.0000 -0.0000 0.0001
vn -0.0000 -0.0000 -1.0000
vt 0.223585 0.259319
vt 0.223585 0.316881
vt 0.459598 0.316881
vt 0.459598 0.259319
vt 0.223585 0.349541
vt 0.459598 0.349541
vt 0.459598 0.340441
vt 0.223585 0.340441
vt 0.223585 0.348647
vt 0.459598 0.348647
vt 0.594535 0.538416
vt 0.761992 0.538416
vt 0.761992 0.549003
vt 0.594535 0.549003
vt 0.394490 0.270789
vt 0.394490 0.099541
vt 0.394490 0.099541
vt 0.394490 0.270789
vt 0.899860 0.801300
vt 0.991755 0.801300
vt 0.991755 0.643633
vt 0.899860 0.643633
vt 0.293487 0.097533
vt 0.293487 0.275106
vt 0.390795 0.275106
vt 0.223585 0.330242
vt 0.459598 0.330242
vt 0.390795 0.097533
vt 0.459598 0.097533
vt 0.223585 0.097533
vt 0.985995 0.643361
vt 0.904888 0.643361
vt 0.904888 0.801347
vt 0.985995 0.801347
vt 0.904500 0.801347
vt 0.985607 0.801347
vt 0.985608 0.643361
vt 0.904500 0.643361
vt 0.993838 0.980168
vt 0.993838 0.815012
vt 0.903335 0.815012
vt 0.903335 0.980168
vt 0.390795 0.275106
vt 0.390795 0.097533
vt 0.995686 0.801300
vt 0.895928 0.801300
vt 0.289792 0.270789
vt 0.289792 0.099541
vt 0.459598 0.021413
vt 0.223585 0.021413
vt 0.289792 0.099541
vt 0.289792 0.270789
vt 0.394490 0.099541
vt 0.394490 0.270789
vt 0.459598 0.330906
vt 0.223585 0.330906
vt 0.223585 0.339111
vt 0.459598 0.339111
vt 0.964333 0.801356
vt 0.964333 0.643310
vt 0.931925 0.643310
vt 0.931925 0.801356
vt 0.209654 0.079231
vt 0.257126 0.079231
vt 0.257126 0.052698
vt 0.209654 0.052698
vt 0.440658 0.275106
vt 0.243625 0.275106
vt 0.440658 0.097533
vt 0.440658 0.275106
vt 0.243625 0.275106
vt 0.243625 0.097533
vt 0.962744 0.801347
vt 0.962744 0.643361
vt 0.927752 0.643361
vt 0.927752 0.801347
vt 0.439941 0.636193
vt 0.019178 0.636370
vt 0.020403 0.629986
vt 0.402359 0.628984
vt 0.413199 0.631063
vt 0.000000 0.000000
vt 0.274449 0.746888
vt 0.274449 0.964603
vt 0.024511 0.964603
vt 0.024511 0.733913
vt 0.274449 0.977578
vt 0.274449 0.800550
vt 0.024511 0.746888
vt 0.024511 0.917277
vt 0.024511 0.733914
vt 0.348933 0.647051
vt 0.554961 0.647051
vt 0.554961 0.995247
vt 0.348933 0.995247
vt 0.024511 0.733913
vt 0.024511 0.733914
vt 0.622784 0.741457
vt 0.622784 0.949137
vt 0.866474 0.949137
vt 0.866474 0.741457
vt 0.866474 0.652431
vt 0.622784 0.652431
vt 0.459528 0.097631
vt 0.459528 0.275280
vt 0.440779 0.275280
vt 0.440779 0.097631
vt 0.223613 0.275280
vt 0.223613 0.097631
vt 0.243598 0.097631
vt 0.243598 0.275280
vt 0.371643 0.328962
vt 0.300369 0.328962
vt 0.300369 0.351751
vt 0.417098 0.351751
vt 0.412083 0.341592
vt 0.300369 0.328953
vt 0.300369 0.351742
vt 0.412083 0.351742
vt 0.412083 0.341582
vt 0.371643 0.328953
vt 0.412083 0.351745
vt 0.412083 0.341586
vt 0.371643 0.328956
vt 0.300369 0.328956
vt 0.300366 0.351745
vt 0.371643 0.328962
vt 0.412083 0.341592
vt 0.300369 0.351751
vt 0.300369 0.328962
vt 0.300369 0.328953
vt 0.371643 0.328953
vt 0.412083 0.341582
vt 0.412083 0.351742
vt 0.300369 0.351742
vt 0.412083 0.351745
vt 0.300369 0.351745
vt 0.300369 0.328956
vt 0.371643 0.328956
vt 0.412083 0.341586
vt 0.274449 0.733913
vt 0.096739 0.733914
vt 0.096739 0.964603
vt 0.096739 0.946962
vt 0.274449 0.946962
s 0
usemtl Material.001
f 2/1/1 3/2/1 48/3/1 46/4/1
f 48/3/2 3/2/2 5/5/2 52/6/2
f 52/7/3 5/8/3 6/9/3 54/10/3
f 4/11/4 50/12/4 54/13/4 6/14/4
f 23/15/5 25/16/5 29/17/5 27/18/5
f 8/1/1 9/2/1 60/3/1 58/4/1
f 60/3/2 9/2/2 10/5/2 62/6/2
f 62/7/6 10/8/6 11/9/6 64/10/6
f 1/11/4 44/12/4 64/13/4 11/14/4
f 16/19/3 13/20/3 18/21/3 17/22/3
f 16/23/7 15/24/7 21/24/7 22/23/7
f 14/25/3 15/24/3 8/26/3 58/27/3
f 13/28/3 14/25/3 58/27/3 66/29/3
f 15/24/3 16/23/3 12/30/3 8/26/3
f 56/31/3 18/32/3 13/33/3 66/34/3
f 12/35/3 16/36/3 17/37/3 7/38/3
f 20/39/3 19/40/3 22/41/3 21/42/3
f 15/24/1 14/25/1 20/43/1 21/24/1
f 14/25/5 13/28/5 19/44/5 20/43/5
f 13/45/4 16/46/4 22/46/4 19/45/4
f 23/15/3 24/47/3 2/26/3 46/27/3
f 26/48/3 25/16/3 44/49/3 1/50/3
f 24/47/3 26/48/3 1/50/3 2/26/3
f 25/16/3 23/15/3 46/27/3 44/49/3
f 27/18/3 29/17/3 30/51/3 28/52/3
f 24/47/1 23/15/1 27/18/1 28/52/1
f 26/48/7 24/47/7 28/52/7 30/51/7
f 25/16/4 26/48/4 30/51/4 29/17/4
f 31/48/3 32/53/3 50/49/3 4/50/3
f 34/54/3 33/47/3 38/26/3 95/27/3
f 34/54/5 32/53/5 41/17/5 39/18/5
f 91/55/3 36/56/3 35/57/3 89/58/3
f 93/3/2 37/2/2 36/5/2 91/6/2
f 38/1/1 37/2/1 93/3/1 95/4/1
f 33/47/3 31/48/3 4/50/3 38/26/3
f 32/53/3 34/54/3 95/27/3 50/49/3
f 39/18/3 41/17/3 42/51/3 40/52/3
f 33/47/1 34/54/1 39/18/1 40/52/1
f 31/48/7 33/47/7 40/52/7 42/51/7
f 32/53/4 31/48/4 42/51/4 41/17/4
f 45/1/1 46/4/1 48/3/1 47/2/1
f 48/3/2 52/6/2 51/5/2 47/2/2
f 52/7/3 54/10/3 53/9/3 51/8/3
f 49/11/4 53/14/4 54/13/4 50/12/4
f 85/53/4 86/48/4 100/51/4 99/17/4
f 57/1/1 58/4/1 60/3/1 59/2/1
f 60/3/2 62/6/2 61/5/2 59/2/2
f 62/7/6 64/10/6 63/9/6 61/8/6
f 43/11/4 63/14/4 64/13/4 44/12/4
f 70/19/3 71/22/3 72/21/3 67/20/3
f 70/23/5 76/23/5 75/24/5 69/24/5
f 68/25/3 58/27/3 57/26/3 69/24/3
f 67/28/3 66/29/3 58/27/3 68/25/3
f 69/24/3 57/26/3 65/30/3 70/23/3
f 56/31/3 66/34/3 67/33/3 72/32/3
f 65/35/3 55/38/3 71/37/3 70/36/3
f 74/39/3 75/42/3 76/41/3 73/40/3
f 69/24/1 75/24/1 74/43/1 68/25/1
f 68/25/7 74/43/7 73/44/7 67/28/7
f 67/45/4 73/45/4 76/46/4 70/46/4
f 77/15/3 46/27/3 45/26/3 78/47/3
f 80/48/3 43/50/3 44/49/3 79/16/3
f 78/47/3 45/26/3 43/50/3 80/48/3
f 79/16/3 44/49/3 46/27/3 77/15/3
f 86/48/7 88/47/7 98/52/7 100/51/7
f 88/47/1 87/54/1 97/18/1 98/52/1
f 97/18/3 99/17/3 100/51/3 98/52/3
f 87/54/5 85/53/5 99/17/5 97/18/5
f 85/48/3 49/50/3 50/49/3 86/53/3
f 88/54/3 95/27/3 96/26/3 87/47/3
f 80/16/4 79/48/4 81/51/4 82/17/4
f 91/55/3 89/58/3 90/57/3 92/56/3
f 93/3/2 91/6/2 92/5/2 94/2/2
f 96/1/1 95/4/1 93/3/1 94/2/1
f 87/47/3 96/26/3 49/50/3 85/48/3
f 86/53/3 50/49/3 95/27/3 88/54/3
f 79/48/7 77/47/7 83/52/7 81/51/7
f 77/47/1 78/15/1 84/18/1 83/52/1
f 84/18/3 82/17/3 81/51/3 83/52/3
f 78/15/5 80/16/5 82/17/5 84/18/5
f 45/1/1 47/2/1 132/3/1 130/4/1
f 132/3/2 47/2/2 51/5/2 136/6/2
f 136/7/3 51/8/3 53/9/3 138/10/3
f 49/11/4 134/12/4 138/13/4 53/14/4
f 111/15/5 113/16/5 117/17/5 115/18/5
f 57/1/1 59/2/1 144/3/1 142/4/1
f 144/3/2 59/2/2 61/5/2 146/6/2
f 146/7/6 61/8/6 63/9/6 148/10/6
f 43/11/4 128/12/4 148/13/4 63/14/4
f 104/19/3 101/20/3 106/21/3 105/22/3
f 104/23/7 103/24/7 109/24/7 110/23/7
f 102/25/3 103/24/3 57/26/3 142/27/3
f 101/28/3 102/25/3 142/27/3 150/29/3
f 103/24/3 104/23/3 65/30/3 57/26/3
f 140/31/3 106/32/3 101/33/3 150/34/3
f 65/35/3 104/36/3 105/37/3 55/38/3
f 108/39/3 107/40/3 110/41/3 109/42/3
f 103/24/1 102/25/1 108/43/1 109/24/1
f 102/25/5 101/28/5 107/44/5 108/43/5
f 101/45/4 104/46/4 110/46/4 107/45/4
f 111/15/3 112/47/3 45/26/3 130/27/3
f 114/48/3 113/16/3 128/49/3 43/50/3
f 112/47/3 114/48/3 43/50/3 45/26/3
f 113/16/3 111/15/3 130/27/3 128/49/3
f 115/18/3 117/17/3 118/51/3 116/52/3
f 112/47/1 111/15/1 115/18/1 116/52/1
f 114/48/7 112/47/7 116/52/7 118/51/7
f 113/16/4 114/48/4 118/51/4 117/17/4
f 119/48/3 120/53/3 134/49/3 49/50/3
f 122/54/3 121/47/3 96/26/3 175/27/3
f 122/54/5 120/53/5 125/17/5 123/18/5
f 171/55/3 92/56/3 90/57/3 169/58/3
f 173/3/2 94/2/2 92/5/2 171/6/2
f 96/1/1 94/2/1 173/3/1 175/4/1
f 121/47/3 119/48/3 49/50/3 96/26/3
f 120/53/3 122/54/3 175/27/3 134/49/3
f 123/18/3 125/17/3 126/51/3 124/52/3
f 121/47/1 122/54/1 123/18/1 124/52/1
f 119/48/7 121/47/7 124/52/7 126/51/7
f 120/53/4 119/48/4 126/51/4 125/17/4
f 129/1/1 130/4/1 132/3/1 131/2/1
f 132/3/2 136/6/2 135/5/2 131/2/2
f 136/7/3 138/10/3 137/9/3 135/8/3
f 133/11/4 137/14/4 138/13/4 134/12/4
f 165/53/4 166/48/4 180/51/4 179/17/4
f 141/1/1 142/4/1 144/3/1 143/2/1
f 144/3/2 146/6/2 145/5/2 143/2/2
f 146/7/6 148/10/6 147/9/6 145/8/6
f 127/11/4 147/14/4 148/13/4 128/12/4
f 154/59/5 155/60/5 390/61/5 389/62/5
f 152/63/1 153/64/1 388/65/1 387/66/1
f 152/67/3 142/27/3 141/26/3 153/68/3
f 151/69/3 150/29/3 142/27/3 152/70/3
f 153/71/3 141/26/3 149/30/3 154/72/3
f 140/31/3 150/34/3 151/73/3 156/74/3
f 149/35/3 139/38/3 155/75/3 154/76/3
f 157/15/3 130/27/3 129/26/3 158/47/3
f 160/48/3 127/50/3 128/49/3 159/16/3
f 158/47/3 129/26/3 127/50/3 160/48/3
f 159/16/3 128/49/3 130/27/3 157/15/3
f 166/48/7 168/47/7 178/52/7 180/51/7
f 168/47/1 167/54/1 177/18/1 178/52/1
f 177/18/3 179/17/3 180/51/3 178/52/3
f 167/54/5 165/53/5 179/17/5 177/18/5
f 165/48/3 133/50/3 134/49/3 166/53/3
f 168/54/3 175/27/3 176/26/3 167/47/3
f 160/16/4 159/48/4 161/51/4 162/17/4
f 171/55/3 169/58/3 170/57/3 172/56/3
f 173/3/2 171/6/2 172/5/2 174/2/2
f 176/1/1 175/4/1 173/3/1 174/2/1
f 167/47/3 176/26/3 133/50/3 165/48/3
f 166/53/3 134/49/3 175/27/3 168/54/3
f 159/48/7 157/47/7 163/52/7 161/51/7
f 157/47/1 158/15/1 164/18/1 163/52/1
f 164/18/3 162/17/3 161/51/3 163/52/3
f 158/15/5 160/16/5 162/17/5 164/18/5
f 129/1/1 131/2/1 212/3/1 210/4/1
f 212/3/2 131/2/2 135/5/2 216/6/2
f 216/7/3 135/8/3 137/9/3 218/10/3
f 133/11/4 214/12/4 218/13/4 137/14/4
f 191/15/5 193/16/5 197/17/5 195/18/5
f 141/1/1 143/2/1 224/3/1 222/4/1
f 224/3/2 143/2/2 145/5/2 226/6/2
f 226/7/6 145/8/6 147/9/6 228/10/6
f 127/11/4 208/12/4 228/13/4 147/14/4
f 184/19/3 181/20/3 186/21/3 185/22/3
f 184/23/7 183/24/7 189/24/7 190/23/7
f 182/25/3 183/24/3 141/26/3 222/27/3
f 181/28/3 182/25/3 222/27/3 230/29/3
f 183/24/3 184/23/3 149/30/3 141/26/3
f 220/31/3 186/32/3 181/33/3 230/34/3
f 149/35/3 184/36/3 185/37/3 139/38/3
f 188/39/3 187/40/3 190/41/3 189/42/3
f 183/24/1 182/25/1 188/43/1 189/24/1
f 182/25/5 181/28/5 187/44/5 188/43/5
f 181/45/4 184/46/4 190/46/4 187/45/4
f 191/15/3 192/47/3 129/26/3 210/27/3
f 194/48/3 193/16/3 208/49/3 127/50/3
f 192/47/3 194/48/3 127/50/3 129/26/3
f 193/16/3 191/15/3 210/27/3 208/49/3
f 195/18/3 197/17/3 198/51/3 196/52/3
f 192/47/1 191/15/1 195/18/1 196/52/1
f 194/48/7 192/47/7 196/52/7 198/51/7
f 193/16/4 194/48/4 198/51/4 197/17/4
f 199/48/3 200/53/3 214/49/3 133/50/3
f 202/54/3 201/47/3 176/26/3 259/27/3
f 202/54/5 200/53/5 205/17/5 203/18/5
f 255/55/3 172/56/3 170/57/3 253/58/3
f 257/3/2 174/2/2 172/5/2 255/6/2
f 176/1/1 174/2/1 257/3/1 259/4/1
f 201/47/3 199/48/3 133/50/3 176/26/3
f 200/53/3 202/54/3 259/27/3 214/49/3
f 203/18/3 205/17/3 206/51/3 204/52/3
f 201/47/1 202/54/1 203/18/1 204/52/1
f 199/48/7 201/47/7 204/52/7 206/51/7
f 200/53/4 199/48/4 206/51/4 205/17/4
f 209/1/1 210/4/1 212/3/1 211/2/1
f 212/3/2 216/6/2 215/5/2 211/2/2
f 216/7/3 218/10/3 217/9/3 215/8/3
f 213/11/4 217/14/4 218/13/4 214/12/4
f 249/53/4 250/48/4 264/51/4 263/17/4
f 221/1/1 222/4/1 224/3/1 223/2/1
f 224/3/2 226/6/2 225/5/2 223/2/2
f 226/7/6 228/10/6 227/9/6 225/8/6
f 207/11/4 227/14/4 228/13/4 208/12/4
f 234/19/3 235/22/3 236/21/3 231/20/3
f 234/23/5 240/23/5 239/24/5 233/24/5
f 232/25/3 222/27/3 221/26/3 233/24/3
f 231/28/3 230/29/3 222/27/3 232/25/3
f 233/24/3 221/26/3 229/30/3 234/23/3
f 220/31/3 230/34/3 231/33/3 236/32/3
f 229/35/3 219/38/3 235/37/3 234/36/3
f 238/39/3 239/42/3 240/41/3 237/40/3
f 233/24/1 239/24/1 238/43/1 232/25/1
f 232/25/7 238/43/7 237/44/7 231/28/7
f 231/45/4 237/45/4 240/46/4 234/46/4
f 241/15/3 210/27/3 209/26/3 242/47/3
f 244/48/3 207/50/3 208/49/3 243/16/3
f 242/47/3 209/26/3 207/50/3 244/48/3
f 243/16/3 208/49/3 210/27/3 241/15/3
f 250/48/7 252/47/7 262/52/7 264/51/7
f 252/47/1 251/54/1 261/18/1 262/52/1
f 261/18/3 263/17/3 264/51/3 262/52/3
f 251/54/5 249/53/5 263/17/5 261/18/5
f 249/48/3 213/50/3 214/49/3 250/53/3
f 252/54/3 259/27/3 260/26/3 251/47/3
f 244/16/4 243/48/4 245/51/4 246/17/4
f 255/55/3 253/58/3 254/57/3 256/56/3
f 257/3/2 255/6/2 256/5/2 258/2/2
f 260/1/1 259/4/1 257/3/1 258/2/1
f 251/47/3 260/26/3 213/50/3 249/48/3
f 250/53/3 214/49/3 259/27/3 252/54/3
f 243/48/7 241/47/7 247/52/7 245/51/7
f 241/47/1 242/15/1 248/18/1 247/52/1
f 248/18/3 246/17/3 245/51/3 247/52/3
f 242/15/5 244/16/5 246/17/5 248/18/5
f 209/1/1 211/2/1 296/3/1 294/4/1
f 296/3/2 211/2/2 215/5/2 300/6/2
f 300/7/3 215/8/3 217/9/3 302/10/3
f 213/11/4 298/12/4 302/13/4 217/14/4
f 275/15/5 277/16/5 281/17/5 279/18/5
f 221/1/1 223/2/1 308/3/1 306/4/1
f 308/3/2 223/2/2 225/5/2 310/6/2
f 310/7/6 225/8/6 227/9/6 312/10/6
f 207/11/4 292/12/4 312/13/4 227/14/4
f 268/19/3 265/20/3 270/21/3 269/22/3
f 268/23/7 267/24/7 273/24/7 274/23/7
f 266/25/3 267/24/3 221/26/3 306/27/3
f 265/28/3 266/25/3 306/27/3 314/29/3
f 267/24/3 268/23/3 229/30/3 221/26/3
f 304/31/3 270/32/3 265/33/3 314/34/3
f 229/35/3 268/36/3 269/37/3 219/38/3
f 272/39/3 271/40/3 274/41/3 273/42/3
f 267/24/1 266/25/1 272/43/1 273/24/1
f 266/25/5 265/28/5 271/44/5 272/43/5
f 265/45/4 268/46/4 274/46/4 271/45/4
f 275/15/3 276/47/3 209/26/3 294/27/3
f 278/48/3 277/16/3 292/49/3 207/50/3
f 276/47/3 278/48/3 207/50/3 209/26/3
f 277/16/3 275/15/3 294/27/3 292/49/3
f 279/18/3 281/17/3 282/51/3 280/52/3
f 276/47/1 275/15/1 279/18/1 280/52/1
f 278/48/7 276/47/7 280/52/7 282/51/7
f 277/16/4 278/48/4 282/51/4 281/17/4
f 283/48/3 284/53/3 298/49/3 213/50/3
f 286/54/3 285/47/3 260/26/3 344/27/3
f 286/54/5 284/53/5 289/17/5 287/18/5
f 339/55/3 256/56/3 254/57/3 337/58/3
f 342/3/2 258/2/2 256/5/2 339/6/2
f 260/1/1 258/2/1 342/3/1 344/4/1
f 285/47/3 283/48/3 213/50/3 260/26/3
f 284/53/3 286/54/3 344/27/3 298/49/3
f 287/18/3 289/17/3 290/51/3 288/52/3
f 285/47/1 286/54/1 287/18/1 288/52/1
f 283/48/7 285/47/7 288/52/7 290/51/7
f 284/53/4 283/48/4 290/51/4 289/17/4
f 293/1/1 294/4/1 296/3/1 295/2/1
f 296/3/2 300/6/2 299/5/2 295/2/2
f 300/7/3 302/10/3 301/9/3 299/8/3
f 297/11/4 301/14/4 302/13/4 298/12/4
f 333/53/4 334/48/4 349/51/4 348/17/4
f 305/1/1 306/4/1 308/3/1 307/2/1
f 308/3/2 310/6/2 309/5/2 307/2/2
f 310/7/6 312/10/6 311/9/6 309/8/6
f 291/11/4 311/14/4 312/13/4 292/12/4
f 318/19/3 319/22/3 320/21/3 315/20/3
f 318/23/5 324/23/5 323/24/5 317/24/5
f 316/25/3 306/27/3 305/26/3 317/24/3
f 315/28/3 314/29/3 306/27/3 316/25/3
f 317/24/3 305/26/3 313/30/3 318/23/3
f 304/31/3 314/34/3 315/33/3 320/32/3
f 313/35/3 303/38/3 319/37/3 318/36/3
f 322/39/3 323/42/3 324/41/3 321/40/3
f 317/24/1 323/24/1 322/43/1 316/25/1
f 316/25/7 322/43/7 321/44/7 315/28/7
f 315/45/4 321/45/4 324/46/4 318/46/4
f 325/15/3 294/27/3 293/26/3 326/47/3
f 328/48/3 291/50/3 292/49/3 327/16/3
f 326/47/3 293/26/3 291/50/3 328/48/3
f 327/16/3 292/49/3 294/27/3 325/15/3
f 334/48/7 336/47/7 347/52/7 349/51/7
f 336/47/1 335/54/1 346/18/1 347/52/1
f 346/18/3 348/17/3 349/51/3 347/52/3
f 335/54/5 333/53/5 348/17/5 346/18/5
f 333/48/3 297/50/3 298/49/3 334/53/3
f 336/54/3 344/27/3 345/26/3 335/47/3
f 328/16/4 327/48/4 329/51/4 330/17/4
f 338/77/7 363/78/7 362/79/7 355/80/7 341/81/7
f 339/55/3 337/58/3 338/57/3 340/56/3
f 342/3/2 339/6/2 340/5/2 343/2/2
f 345/1/1 344/4/1 342/3/1 343/2/1
f 335/47/3 345/26/3 297/50/3 333/48/3
f 334/53/3 298/49/3 344/27/3 336/54/3
f 327/48/7 325/47/7 331/52/7 329/51/7
f 325/47/1 326/15/1 332/18/1 331/52/1
f 332/18/3 330/17/3 329/51/3 331/52/3
f 326/15/5 328/16/5 330/17/5 332/18/5
f 293/82/7 297/82/7 352/82/7 351/82/7
f 291/50/7 293/26/7 351/26/7 350/50/7
f 341/82/7 355/82/7 356/82/7 345/82/7
f 313/30/7 305/26/7 353/26/7 354/30/7
f 291/82/7 350/82/7 353/82/7 305/82/7
f 297/50/7 345/26/7 356/26/7 352/50/7
f 352/83/7 356/84/7 357/85/7 358/86/7
f 355/87/7 357/85/7 356/84/7
f 350/83/7 351/84/7 358/85/7 361/86/7
f 352/87/7 358/85/7 351/84/7
f 359/83/7 354/88/7 353/84/7 361/85/7 360/89/7
f 350/87/7 361/85/7 353/84/7
f 303/38/7 313/35/7 354/35/7 359/38/7
f 355/83/7 362/90/7 357/91/7
f 364/92/8 363/93/8 338/94/8 337/95/8
f 365/92/8 364/93/8 337/94/8 254/95/8
f 366/92/8 365/93/8 254/94/8 253/95/8
f 367/92/8 366/93/8 253/94/8 170/95/8
f 368/92/8 367/93/8 170/94/8 169/95/8
f 369/92/8 368/93/8 169/94/8 90/95/8
f 370/92/8 369/93/8 90/94/8 89/95/8
f 371/92/8 370/93/8 89/94/8 35/95/8
f 35/77/5 372/81/5 378/80/5 385/79/5 371/78/5
f 2/82/9 374/82/9 375/82/9 4/82/9
f 1/50/9 373/50/9 374/26/9 2/26/9
f 372/82/5 38/82/5 379/82/5 378/82/5
f 12/30/9 377/30/9 376/26/9 8/26/9
f 1/82/9 8/82/9 376/82/9 373/82/9
f 4/50/9 375/50/9 379/26/9 38/26/9
f 375/83/5 381/96/5 380/85/5 379/84/5
f 378/87/5 379/84/5 380/85/5
f 373/83/5 384/97/5 381/85/5 374/84/5
f 375/87/5 374/84/5 381/85/5
f 382/83/5 383/89/5 384/85/5 376/84/5 377/88/5
f 373/87/5 376/84/5 384/85/5
f 7/38/9 382/38/9 377/35/9 12/35/9
f 378/83/5 380/91/5 385/90/5
f 386/98/3 387/99/3 388/100/3 389/101/3
f 390/102/3 391/103/3 386/98/3 389/101/3
f 151/104/7 152/105/7 387/106/7 386/107/7
f 156/60/7 151/59/7 386/62/7 391/61/7
f 153/108/5 154/109/5 389/110/5 388/111/5
f 9/112/5 8/113/5 1/114/5 11/115/5 10/116/5
f 2/117/5 4/118/5 6/119/5 5/120/5 3/121/5
f 35/122/5 36/123/5 37/124/5 38/125/5 372/126/5
f 307/127/7 309/128/7 311/115/7 291/129/7 305/130/7
f 293/131/7 295/132/7 299/133/7 301/134/7 297/135/7
f 338/136/7 341/137/7 345/138/7 343/139/7 340/140/7
f 384/141/10 393/142/10 392/143/10 381/84/10
f 393/141/10 395/142/10 394/143/10 392/84/10
f 395/141/10 397/142/10 396/143/10 394/84/10
f 397/141/10 399/142/10 398/143/10 396/84/10
f 399/141/10 401/142/10 400/143/10 398/84/10
f 401/141/10 403/142/10 402/143/10 400/84/10
f 403/141/10 405/142/10 404/143/10 402/84/10
f 405/141/10 361/142/10 358/143/10 404/84/10
f 406/141/10 407/142/10 395/143/10 393/84/10
f 407/141/10 408/142/10 397/143/10 395/84/10
f 408/141/10 409/142/10 399/143/10 397/84/10
f 409/141/10 410/142/10 401/143/10 399/84/10
f 410/141/10 411/142/10 403/143/10 401/84/10
f 411/141/10 412/142/10 405/143/10 403/84/10
f 412/141/10 360/142/10 361/143/10 405/84/10
f 383/141/10 406/142/10 393/143/10 384/84/10
f 381/141/10 392/142/10 413/143/10 380/84/10
f 392/141/10 394/142/10 414/143/10 413/84/10
f 394/141/10 396/142/10 415/143/10 414/84/10
f 396/141/10 398/142/10 416/143/10 415/84/10
f 398/141/10 400/142/10 417/143/10 416/84/10
f 400/141/10 402/142/10 418/143/10 417/84/10
f 402/141/10 404/142/10 419/143/10 418/84/10
f 404/141/10 358/142/10 357/143/10 419/84/10
f 413/141/10 414/142/10 369/143/10 370/84/10
f 414/141/10 415/142/10 368/143/10 369/84/10
f 415/141/10 416/142/10 367/143/10 368/84/10
f 416/141/10 417/142/10 366/143/10 367/84/10
f 417/141/10 418/142/10 365/143/10 366/84/10
f 418/141/10 419/142/10 364/143/10 365/84/10
f 419/141/10 357/142/10 362/144/10 363/143/10 364/84/10
f 380/141/10 413/142/10 370/143/10 371/84/10 385/145/10
