# Blender 5.1.1
# www.blender.org
mtllib PBP1_Building3.mtl
o PBP1_Building3
v 7.275785 -0.339578 -3.136877
v 7.275785 -3.688772 -3.136877
v 4.848979 -0.339578 -3.136874
v 4.848979 -3.688772 -3.136874
v 2.422174 -0.339578 -3.136870
v 2.422174 -3.688772 -3.136870
v -0.004640 -0.339578 -3.136867
v -0.004640 -3.688772 -3.136867
v -2.431453 -0.339578 -3.136863
v -2.431453 -3.688772 -3.136863
v -4.858259 -0.339578 -3.136860
v -4.858259 -3.688772 -3.136860
v -7.285065 -0.339578 -3.136858
v -7.285065 -3.688772 -3.136858
v 7.275785 -6.849596 -3.136877
v 4.848979 -6.849596 -3.136874
v 2.422174 -6.849596 -3.136870
v -0.004640 -6.849596 -3.136867
v -2.431453 -6.849596 -3.136863
v -4.858259 -6.849596 -3.136860
v -7.285065 -6.849596 -3.136858
v 7.275785 3.009616 -3.136877
v 4.848979 3.009616 -3.136874
v 2.422174 3.009616 -3.136870
v -0.004640 3.009616 -3.136867
v -2.431453 3.009616 -3.136863
v -4.858259 3.009616 -3.136860
v -7.285065 3.009616 -3.136858
v 7.275770 6.358811 -3.136868
v 4.848964 6.358811 -3.136868
v 2.422158 6.358811 -3.136867
v -0.004655 6.358811 -3.136868
v -2.431461 6.358811 -3.136868
v -4.858267 6.358811 -3.136868
v -7.285072 6.358811 -3.136867
v 9.697729 -3.500402 0.358177
v 9.697729 -0.339578 0.358177
v 9.697729 -0.339578 0.515495
v 9.697729 -0.151208 0.358177
v 9.697729 -0.235187 0.604755
v 9.697729 -0.151208 0.604755
v 9.697729 -6.849596 0.358177
v 9.697729 -3.688772 0.358177
v 9.697729 -3.688772 0.515495
v 9.697729 -3.584380 0.604755
v 9.697729 -3.500402 0.615823
v 9.697729 -6.070519 0.358177
v 7.986359 -6.070519 0.358177
v 7.986359 -4.253076 0.358177
v 8.982293 -4.253076 0.358177
v 8.982293 -6.070519 0.358177
v 8.982293 -6.849596 0.358177
v 7.986359 -6.849596 0.358177
v 7.986359 -6.070519 0.193772
v 7.986359 -4.253076 0.193772
v 8.982293 -4.253076 0.193772
v 8.982293 -6.070519 0.193772
v 7.948545 -0.948067 0.358177
v 9.020107 -0.948067 0.358177
v 7.948545 -2.700773 0.358177
v 9.020107 -2.700773 0.358177
v 7.948545 -0.948067 0.193772
v 9.020107 -0.948067 0.193772
v 7.948545 -2.700773 0.193772
v 9.020107 -2.700773 0.193772
v 4.844118 -3.500402 0.358179
v 7.270923 -3.500402 0.358177
v 4.844118 -0.339578 0.358179
v 7.270923 -0.339578 0.358177
v 4.844118 -0.339578 0.515497
v 7.270923 -0.339578 0.515495
v 4.844118 -0.151208 0.358179
v 7.270923 -0.151208 0.358177
v 4.844118 -0.235187 0.604757
v 7.270923 -0.235187 0.604755
v 4.844118 -0.151208 0.604757
v 7.270923 -0.151208 0.604755
v 4.844118 -6.849596 0.358179
v 7.270923 -6.849596 0.358177
v 4.844118 -3.688772 0.358179
v 7.270923 -3.688772 0.358177
v 4.844118 -3.688772 0.515497
v 7.270923 -3.688772 0.515495
v 4.844118 -3.584380 0.604757
v 7.270923 -3.584380 0.604755
v 4.844118 -3.500402 0.615825
v 7.270923 -3.500402 0.615824
v 4.844118 -6.070519 0.358179
v 7.270923 -6.070519 0.358177
v 6.555488 -6.070519 0.358178
v 6.555488 -4.253076 0.358178
v 5.559554 -4.253076 0.358178
v 5.559554 -6.070519 0.358178
v 5.559554 -6.849596 0.358178
v 6.555488 -6.849596 0.358178
v 6.555488 -6.070519 0.193773
v 6.555488 -4.253076 0.193773
v 5.559554 -4.253076 0.193773
v 5.559554 -6.070519 0.193773
v 6.593301 -0.948067 0.358178
v 5.521740 -0.948067 0.358178
v 6.593301 -2.700773 0.358178
v 5.521740 -2.700773 0.358178
v 6.593301 -2.700773 0.193772
v 5.521740 -2.700773 0.193772
v 6.593301 -0.948067 0.193772
v 5.521740 -0.948067 0.193772
v 3.132748 -6.070519 0.358178
v 3.132748 -4.253076 0.358178
v 4.128682 -4.253076 0.358178
v 4.128682 -6.070519 0.358178
v 4.128682 -6.849596 0.358178
v 3.132748 -6.849596 0.358178
v 3.132748 -6.070519 0.193773
v 3.132748 -4.253076 0.193773
v 4.128682 -4.253076 0.193773
v 4.128682 -6.070519 0.193773
v 3.094934 -0.948067 0.358178
v 4.166495 -0.948067 0.358178
v 3.094934 -2.700773 0.358178
v 4.166495 -2.700773 0.358178
v 3.094934 -0.948067 0.193773
v 4.166495 -0.948067 0.193773
v 3.094934 -2.700773 0.193773
v 4.166495 -2.700773 0.193773
v -0.009494 -3.500402 0.358180
v 2.417312 -3.500402 0.358179
v -0.009494 -0.339578 0.358180
v 2.417312 -0.339578 0.358179
v -0.009494 -0.339578 0.515498
v 2.417312 -0.339578 0.515497
v -0.009494 -0.151208 0.358180
v 2.417312 -0.151208 0.358179
v -0.009494 -0.235187 0.604758
v 2.417312 -0.235187 0.604757
v -0.009494 -0.151208 0.604758
v 2.417312 -0.151208 0.604757
v -0.009494 -6.849596 0.358180
v 2.417312 -6.849596 0.358179
v -0.009494 -3.688772 0.358180
v 2.417312 -3.688772 0.358179
v -0.009494 -3.688772 0.515498
v 2.417312 -3.688772 0.515497
v -0.009494 -3.584380 0.604758
v 2.417312 -3.584380 0.604757
v -0.009494 -3.500402 0.615827
v 2.417312 -3.500402 0.615825
v -0.009494 -6.070519 0.358180
v 2.417312 -6.070519 0.358179
v 2.212209 -6.070519 0.358179
v 2.212209 -4.253076 0.358179
v 0.195609 -4.253076 0.358180
v 0.195609 -6.070519 0.358180
v 0.195609 -6.849596 0.358180
v 2.212209 -6.849596 0.358179
v 1.739690 -0.948067 0.358179
v 0.668128 -0.948067 0.358180
v 1.739690 -2.700773 0.358179
v 0.668128 -2.700773 0.358180
v 1.739690 -2.700773 0.193773
v 0.668128 -2.700773 0.193773
v 1.739690 -0.948067 0.193773
v 0.668128 -0.948067 0.193773
v -1.720864 -6.070519 0.358180
v -1.720864 -4.253076 0.358180
v -0.724930 -4.253076 0.358180
v -0.724930 -6.070519 0.358180
v -0.724937 -6.849596 0.358180
v -1.720864 -6.849596 0.358180
v -1.720864 -6.070519 0.193775
v -1.720864 -4.253076 0.193775
v -0.724930 -4.253076 0.193775
v -0.724930 -6.070519 0.193775
v -1.758685 -0.948067 0.358180
v -0.687116 -0.948067 0.358180
v -1.758685 -2.700773 0.358180
v -0.687116 -2.700773 0.358180
v -1.758685 -0.948067 0.193775
v -0.687116 -0.948067 0.193775
v -1.758685 -2.700773 0.193775
v -0.687116 -2.700773 0.193775
v -4.863106 -3.500402 0.358182
v -2.436300 -3.500402 0.358180
v -4.863106 -0.339578 0.358182
v -2.436300 -0.339578 0.358180
v -4.863106 -0.339578 0.515500
v -2.436300 -0.339578 0.515498
v -4.863106 -0.151208 0.358182
v -2.436300 -0.151208 0.358180
v -4.863106 -0.235187 0.604760
v -2.436300 -0.235187 0.604758
v -4.863106 -0.151208 0.604760
v -2.436300 -0.151208 0.604758
v -4.863106 -6.849596 0.358182
v -2.436300 -6.849596 0.358180
v -4.863106 -3.688772 0.358182
v -2.436300 -3.688772 0.358180
v -4.863106 -3.688772 0.515500
v -2.436300 -3.688772 0.515498
v -4.863106 -3.584380 0.604760
v -2.436300 -3.584380 0.604758
v -4.863106 -3.500402 0.615828
v -2.436300 -3.500402 0.615827
v -4.863106 -6.070519 0.358182
v -2.436300 -6.070519 0.358180
v -3.151743 -6.070519 0.358181
v -3.151743 -4.253076 0.358181
v -4.147670 -4.253076 0.358181
v -4.147670 -6.070519 0.358181
v -4.147670 -6.849596 0.358181
v -3.151743 -6.849596 0.358181
v -3.151743 -6.070519 0.193776
v -3.151743 -4.253076 0.193776
v -4.147670 -4.253076 0.193776
v -4.147670 -6.070519 0.193776
v -3.113922 -0.948067 0.358181
v -4.185491 -0.948067 0.358181
v -3.113922 -2.700773 0.358181
v -4.185491 -2.700773 0.358181
v -3.113922 -2.700773 0.193775
v -4.185491 -2.700773 0.193775
v -3.113922 -0.948067 0.193775
v -4.185491 -0.948067 0.193775
v -6.574475 -6.070519 0.358182
v -6.574475 -4.253076 0.358182
v -5.578549 -4.253076 0.358182
v -5.578549 -6.070519 0.358182
v -5.578549 -6.849596 0.358182
v -6.574475 -6.849596 0.358182
v -6.574475 -6.070519 0.193777
v -6.574475 -4.253076 0.193777
v -5.578549 -4.253076 0.193777
v -5.578549 -6.070519 0.193777
v -6.612297 -0.948067 0.358182
v -5.540728 -0.948067 0.358182
v -6.612297 -2.700773 0.358182
v -5.540728 -2.700773 0.358182
v -6.612297 -0.948067 0.193777
v -5.540728 -0.948067 0.193777
v -6.612297 -2.700773 0.193777
v -5.540728 -2.700773 0.193777
v -9.716724 -3.500402 0.358183
v -7.289919 -3.500402 0.358182
v -9.716724 -0.339578 0.358183
v -7.289919 -0.339578 0.358182
v -9.716724 -0.339578 0.515502
v -7.289919 -0.339578 0.515500
v -9.716724 -0.151208 0.358183
v -7.289919 -0.151208 0.358182
v -9.716724 -0.235187 0.604762
v -7.289919 -0.235187 0.604760
v -9.716724 -0.151208 0.604762
v -7.289919 -0.151208 0.604760
v -9.716724 -6.849596 0.358183
v -7.289919 -6.849596 0.358182
v -9.716724 -3.688772 0.358183
v -7.289919 -3.688772 0.358182
v -9.716724 -3.688772 0.515502
v -7.289919 -3.688772 0.515500
v -9.716724 -3.584380 0.604762
v -7.289919 -3.584380 0.604760
v -9.716724 -3.500402 0.615830
v -7.289919 -3.500402 0.615828
v -9.716724 -6.070519 0.358183
v -7.289919 -6.070519 0.358182
v -8.005355 -6.070519 0.358182
v -8.005355 -4.253076 0.358182
v -9.001281 -4.253076 0.358183
v -9.001281 -6.070519 0.358183
v -9.001281 -6.849596 0.358183
v -8.005355 -6.849596 0.358182
v -8.005355 -6.070519 0.193777
v -8.005355 -4.253076 0.193777
v -9.001281 -4.253076 0.193778
v -9.001281 -6.070519 0.193778
v -7.967534 -0.948067 0.358182
v -9.039103 -0.948067 0.358183
v -7.967534 -2.700773 0.358182
v -9.039103 -2.700773 0.358183
v -7.967534 -2.700773 0.193777
v -9.039103 -2.700773 0.193777
v -7.967534 -0.948067 0.193777
v -9.039103 -0.948067 0.193777
v -5.594128 2.358884 0.212908
v -6.518277 2.358884 0.212908
v -5.594128 0.562925 0.212908
v -6.518277 0.562925 0.212908
v -5.594128 2.358884 0.358177
v -6.518277 2.358884 0.358177
v -5.594128 0.562925 0.358177
v -6.518277 0.562925 0.358177
v -9.716724 -3.500402 0.276290
v -9.716724 -0.339578 0.276290
v -9.716724 -0.151208 0.276290
v -9.716724 -3.688772 0.276290
v -9.716724 -6.070519 0.276290
v -0.740524 2.358884 0.212905
v -1.664673 2.358884 0.212905
v -9.716724 -6.849596 0.258237
v -0.740524 0.562925 0.212905
v 9.697737 -3.500402 0.276277
v 9.697737 -0.339578 0.276277
v 9.697737 -0.151208 0.276277
v 9.697737 -3.688772 0.276277
v 9.697737 -6.070519 0.276277
v -1.664673 0.562925 0.212905
v -0.740524 2.358884 0.358174
v 9.697737 -6.849596 0.258224
v 2.212209 -6.070519 0.176979
v 2.212209 -4.253076 0.176979
v 0.195609 -4.253076 0.176979
v 0.195609 -6.070519 0.176979
v 0.195609 -6.849596 0.176979
v 2.212209 -6.849596 0.176979
v -1.664673 2.358884 0.358174
v 9.702553 -0.339579 -3.136868
v 9.702553 -6.849597 -3.136868
v 9.702553 -3.688774 -3.136868
v -0.740524 0.562925 0.358174
v -1.664673 0.562925 0.358174
v 4.113088 2.358884 0.212905
v 3.188939 2.358884 0.212905
v 4.113088 0.562925 0.212905
v 3.188939 0.562925 0.212905
v 4.113088 2.358884 0.358174
v 3.188939 2.358884 0.358174
v 4.113088 0.562925 0.358174
v 3.188939 0.562925 0.358174
v 8.966692 2.358884 0.212902
v -9.711902 -0.339579 -3.136868
v -9.711902 -6.849597 -3.136868
v -9.711902 -3.688774 -3.136868
v 8.042542 2.358884 0.212902
v 8.966692 0.562925 0.212902
v 8.042542 0.562925 0.212902
v 8.966692 2.358884 0.358170
v 8.042542 2.358884 0.358170
v 8.966692 0.562925 0.358170
v 8.042542 0.562925 0.358170
v 5.575132 2.358884 0.212911
v 6.499281 2.358884 0.212911
v 5.575132 0.562925 0.212911
v 6.499281 0.562925 0.212911
v 5.575132 2.358884 0.358180
v 6.499281 2.358884 0.358179
v 5.575132 0.562925 0.358180
v 6.499281 0.562925 0.358179
v 0.721528 2.358884 0.212911
v 1.645677 2.358884 0.212911
v 0.721528 0.562925 0.212911
v 1.645677 0.562925 0.212911
v 0.721528 2.358884 0.358180
v 1.645677 2.358884 0.358179
v 0.721528 0.562925 0.358180
v 1.645677 0.562925 0.358179
v -4.132083 2.358884 0.212915
v -3.207934 2.358884 0.212914
v -4.132083 0.562925 0.212915
v -3.207934 0.562925 0.212914
v -4.132083 2.358884 0.358183
v -3.207934 2.358884 0.358182
v -4.132083 0.562925 0.358183
v -3.207934 0.562925 0.358182
v -8.985687 2.358884 0.212915
v -8.061538 2.358884 0.212914
v -8.985687 0.562925 0.212915
v -8.061538 0.562925 0.212914
v -8.985687 2.358884 0.358183
v -8.061538 2.358884 0.358182
v -8.985687 0.562925 0.358183
v -8.061538 0.562925 0.358182
v -9.711902 3.009616 -3.136868
v 9.702553 3.009616 -3.136868
v 9.697737 3.009616 0.276277
v -9.716724 3.009616 0.276290
v -9.716724 3.009616 0.358183
v -7.289919 3.009616 0.358182
v -4.863106 3.009616 0.358182
v -2.436300 3.009616 0.358180
v -0.009494 3.009616 0.358180
v 2.417312 3.009616 0.358179
v 4.844118 3.009616 0.358179
v 7.270923 3.009616 0.358177
v 9.697729 3.009616 0.358177
v 9.697729 6.547181 0.604755
v 9.697729 6.463202 0.604755
v 9.697729 6.358810 0.515495
v 9.697729 6.358810 0.358177
v 7.270923 6.547181 0.604755
v 4.844118 6.547181 0.604757
v 7.270923 6.463202 0.604755
v 4.844118 6.463202 0.604757
v 7.270923 6.358810 0.515495
v 4.844118 6.358810 0.515497
v 7.270923 6.358810 0.358177
v 4.844118 6.358810 0.358179
v 2.417312 6.547181 0.604757
v -0.009494 6.547181 0.604758
v 2.417312 6.463202 0.604757
v -0.009494 6.463202 0.604758
v 2.417312 6.358810 0.515497
v -0.009494 6.358810 0.515498
v 2.417312 6.358810 0.358179
v -0.009494 6.358810 0.358180
v -2.436300 6.547181 0.604758
v -4.863106 6.547181 0.604760
v -2.436300 6.463202 0.604758
v -4.863106 6.463202 0.604760
v -2.436300 6.358810 0.515498
v -4.863106 6.358810 0.515500
v -2.436300 6.358810 0.358180
v -4.863106 6.358810 0.358182
v -7.289919 6.547181 0.604760
v -9.716724 6.547181 0.604762
v -7.289919 6.463202 0.604760
v -9.716724 6.463202 0.604762
v -9.716724 6.547181 0.358183
v -7.289919 6.358810 0.515500
v -9.716724 6.358810 0.515502
v -7.289919 6.358810 0.358182
v -9.716724 6.358810 0.358183
v -9.716724 6.547181 0.276290
v -9.716724 6.358810 0.276290
v 9.697737 6.547181 0.358170
v 9.697737 6.547181 0.276277
v 9.697737 6.358810 0.276277
v 9.702553 6.358810 -3.136868
v 9.702553 9.020910 -3.136868
v 9.702553 9.241338 -3.136868
v 7.275747 9.241338 -3.136868
v 4.848941 9.241338 -3.136868
v 2.422135 9.241338 -3.136867
v -0.004678 9.241338 -3.136868
v -2.431484 9.241338 -3.136868
v -4.858290 9.241338 -3.136868
v -7.285096 9.241338 -3.136867
v -9.711902 9.241338 -3.136868
v -9.711902 6.358810 -3.136868
v -9.711902 9.020910 -3.136868
v -8.061538 3.912119 0.358182
v -8.985687 3.912119 0.358183
v -8.061538 5.708078 0.358182
v -8.985687 5.708078 0.358183
v -8.061538 3.912119 0.212914
v -8.985687 3.912119 0.212915
v -8.061538 5.708078 0.212914
v -8.985687 5.708078 0.212915
v -3.207934 3.912119 0.358182
v -4.132083 3.912119 0.358183
v -3.207934 5.708078 0.358182
v -4.132083 5.708078 0.358183
v -3.207934 3.912119 0.212914
v -4.132083 3.912119 0.212915
v -3.207934 5.708078 0.212914
v -4.132083 5.708078 0.212915
v 1.645677 3.912119 0.358179
v 0.721528 3.912119 0.358180
v 1.645677 5.708078 0.358179
v 0.721528 5.708078 0.358180
v 1.645677 3.912119 0.212911
v 0.721528 3.912119 0.212911
v 1.645677 5.708078 0.212911
v 0.721528 5.708078 0.212911
v 6.499281 3.912119 0.358179
v 5.575132 3.912119 0.358180
v 6.499281 5.708078 0.358179
v 5.575132 5.708078 0.358180
v 6.499281 3.912119 0.212911
v 5.575132 3.912119 0.212911
v 6.499281 5.708078 0.212911
v 5.575132 5.708078 0.212911
v 8.042542 3.912119 0.358170
v 8.966692 3.912119 0.358170
v 8.042542 5.708078 0.358170
v 8.966692 5.708078 0.358170
v 8.042542 3.912119 0.212902
v 8.966692 3.912119 0.212902
v 8.042542 5.708078 0.212902
v 8.966692 5.708078 0.212902
v 3.188939 3.912119 0.358174
v 4.113088 3.912119 0.358174
v 3.188939 5.708078 0.358174
v 4.113088 5.708078 0.358174
v 3.188939 3.912119 0.212905
v 4.113088 3.912119 0.212905
v 3.188939 5.708078 0.212905
v 4.113088 5.708078 0.212905
v -1.664673 3.912119 0.358174
v -0.740524 3.912119 0.358174
v -1.664673 5.708078 0.358174
v -0.740524 5.708078 0.358174
v -1.664673 3.912119 0.212905
v -0.740524 3.912119 0.212905
v -1.664673 5.708078 0.212905
v -0.740524 5.708078 0.212905
v -6.518277 3.912119 0.358177
v -5.594128 3.912119 0.358177
v -6.518277 5.708078 0.358177
v -5.594128 5.708078 0.358177
v -6.518277 3.912119 0.212908
v -5.594128 3.912119 0.212908
v -6.518277 5.708078 0.212908
v -5.594128 5.708078 0.212908
v 9.697729 3.009616 0.515495
v 9.697729 3.197987 0.358177
v 9.697729 3.114007 0.604755
v 9.697729 3.197987 0.604755
v 4.844118 3.009616 0.515497
v 7.270923 3.009616 0.515495
v 4.844118 3.197987 0.358179
v 7.270923 3.197987 0.358177
v 4.844118 3.114007 0.604757
v 7.270923 3.114007 0.604755
v 4.844118 3.197987 0.604757
v 7.270923 3.197987 0.604755
v -0.009494 3.009616 0.515498
v 2.417312 3.009616 0.515497
v -0.009494 3.197987 0.358180
v 2.417312 3.197987 0.358179
v -0.009494 3.114007 0.604758
v 2.417312 3.114007 0.604757
v -0.009494 3.197987 0.604758
v 2.417312 3.197987 0.604757
v -4.863106 3.009616 0.515500
v -2.436300 3.009616 0.515498
v -4.863106 3.197987 0.358182
v -2.436300 3.197987 0.358180
v -4.863106 3.114007 0.604760
v -2.436300 3.114007 0.604758
v -4.863106 3.197987 0.604760
v -2.436300 3.197987 0.604758
v -9.716724 3.009616 0.515502
v -7.289919 3.009616 0.515500
v -9.716724 3.197987 0.358183
v -7.289919 3.197987 0.358182
v -9.716724 3.114007 0.604762
v -7.289919 3.114007 0.604760
v -9.716724 3.197987 0.604762
v -7.289919 3.197987 0.604760
v -9.716724 3.197987 0.276290
v 9.697737 3.197987 0.276277
v 1.203905 -4.253076 0.176979
v 1.203905 -6.849596 0.176979
vn -0.0000 -0.0000 -1.0000
vn -0.0000 -1.0000 -0.0000
vn -0.0000 -0.6499 0.7600
vn -0.0000 -0.0000 1.0000
vn -0.0000 1.0000 -0.0000
vn 1.0000 -0.0000 -0.0000
vn -0.0000 -0.1307 0.9914
vn -1.0000 -0.0000 -0.0000
vn -1.0000 -0.0000 -0.0014
vn 1.0000 -0.0000 0.0001
vn 1.0000 -0.0000 0.0014
vn -1.0000 0.0010 -0.0007
vn -0.0000 0.8115 0.5843
vn 1.0000 -0.0009 0.0007
vt 0.274449 0.733913
vt 0.096739 0.733914
vt 0.096739 0.964603
vt 0.274449 0.964603
vt 0.274449 0.725916
vt 0.096739 0.725916
vt 0.096739 0.993953
vt 0.274449 0.993953
vt 0.096739 0.993953
vt 0.096739 0.993953
vt 0.274449 0.993953
vt 0.096739 0.993953
vt 0.274449 0.993953
vt 0.096739 0.993953
vt 0.274449 0.993953
vt 0.096738 0.993953
vt 0.274448 0.993953
vt 0.223585 0.259319
vt 0.223585 0.316881
vt 0.459598 0.316881
vt 0.459598 0.259319
vt 0.223585 0.349541
vt 0.459598 0.349541
vt 0.459598 0.340441
vt 0.223585 0.340441
vt 0.223585 0.348647
vt 0.459598 0.348647
vt 0.594535 0.538416
vt 0.761992 0.538416
vt 0.761992 0.549003
vt 0.594535 0.549003
vt 0.394490 0.270789
vt 0.394490 0.099541
vt 0.394490 0.099541
vt 0.394490 0.270789
vt 0.899860 0.801300
vt 0.991755 0.801300
vt 0.991755 0.643633
vt 0.899860 0.643633
vt 0.293487 0.097533
vt 0.293487 0.275106
vt 0.390795 0.275106
vt 0.223585 0.330242
vt 0.459598 0.330242
vt 0.390795 0.097533
vt 0.459598 0.097533
vt 0.223585 0.097533
vt 0.985995 0.643361
vt 0.904888 0.643361
vt 0.904888 0.801347
vt 0.985995 0.801347
vt 0.904500 0.801347
vt 0.985607 0.801347
vt 0.985608 0.643361
vt 0.904500 0.643361
vt 0.993838 0.980168
vt 0.993838 0.815012
vt 0.903335 0.815012
vt 0.903335 0.980168
vt 0.390795 0.275106
vt 0.390795 0.097533
vt 0.995686 0.801300
vt 0.895928 0.801300
vt 0.289792 0.270789
vt 0.289792 0.099541
vt 0.459598 0.021413
vt 0.223585 0.021413
vt 0.289792 0.099541
vt 0.289792 0.270789
vt 0.964333 0.801356
vt 0.964333 0.643310
vt 0.931925 0.643310
vt 0.931925 0.801356
vt 0.209654 0.079231
vt 0.257126 0.079231
vt 0.257126 0.052698
vt 0.233390 0.052698
vt 0.209654 0.052698
vt 0.440658 0.275106
vt 0.243625 0.275106
vt 0.440658 0.097533
vt 0.243625 0.097533
vt 0.962744 0.801347
vt 0.962744 0.643361
vt 0.927752 0.643361
vt 0.927752 0.801347
vt 0.000000 0.000000
vt 0.274449 0.746888
vt 0.024511 0.964603
vt 0.024511 0.733913
vt 0.274449 0.977578
vt 0.274449 0.800550
vt 0.024511 0.746888
vt 0.024511 0.733914
vt 0.744629 0.652431
vt 0.744629 0.949137
vt 0.866474 0.949137
vt 0.866474 0.741457
vt 0.745107 0.652485
vt 0.865969 0.652485
vt 0.865969 0.741510
vt 0.459528 0.097631
vt 0.459528 0.275280
vt 0.440779 0.275280
vt 0.440779 0.097631
vt 0.223613 0.275280
vt 0.223613 0.097631
vt 0.243598 0.097631
vt 0.243598 0.275280
vt 0.371643 0.328962
vt 0.300369 0.328962
vt 0.300369 0.351751
vt 0.417098 0.351751
vt 0.412083 0.341592
vt 0.300369 0.328953
vt 0.300369 0.351742
vt 0.412083 0.351742
vt 0.412083 0.341582
vt 0.371643 0.328953
vt 0.371643 0.328962
vt 0.412083 0.341592
vt 0.300369 0.351751
vt 0.300369 0.328962
vt 0.300369 0.328953
vt 0.371643 0.328953
vt 0.412083 0.341582
vt 0.412083 0.351742
vt 0.300369 0.351742
vt 0.223585 0.340014
vt 0.223585 0.635453
vt 0.161680 0.575527
vt 0.161680 0.575527
vt 0.072218 0.575527
vt 0.072218 0.407284
vt 0.161680 0.407284
vt 0.161680 0.407284
vt 0.001451 0.340384
vt 0.001451 0.636487
vt 0.236375 0.636487
vt 0.236375 0.340384
vt 0.223585 0.337853
vt 0.223585 0.636383
vt 0.459598 0.330906
vt 0.223585 0.330906
vt 0.223585 0.339111
vt 0.459598 0.339111
vt 0.439941 0.636193
vt 0.019178 0.636370
vt 0.020403 0.629986
vt 0.402359 0.628984
vt 0.413199 0.631063
vt 0.024511 0.917277
vt 0.024511 0.733914
vt 0.348933 0.647051
vt 0.554961 0.647051
vt 0.554961 0.995247
vt 0.348933 0.995247
vt 0.412083 0.351745
vt 0.412083 0.341586
vt 0.371643 0.328956
vt 0.300369 0.328956
vt 0.300366 0.351745
vt 0.412083 0.351745
vt 0.300369 0.351745
vt 0.300369 0.328956
vt 0.371643 0.328956
vt 0.412083 0.341586
vt 0.866474 0.652431
vt 0.744629 0.652431
vt 0.865969 0.949191
vt 0.745107 0.949191
vt 0.745107 0.652485
vt 0.096739 0.973456
vt 0.274448 0.973456
s 0
usemtl Material.001
f 318/1/1 2/2/1 1/3/1 316/4/1
f 2/1/1 4/2/1 3/3/1 1/4/1
f 4/1/1 6/2/1 5/3/1 3/4/1
f 6/1/1 8/2/1 7/3/1 5/4/1
f 8/1/1 10/2/1 9/3/1 7/4/1
f 10/1/1 12/2/1 11/3/1 9/4/1
f 12/1/1 14/2/1 13/3/1 11/4/1
f 14/1/1 332/2/1 330/3/1 13/4/1
f 15/1/1 16/2/1 4/3/1 2/4/1
f 16/1/1 17/2/1 6/3/1 4/4/1
f 17/1/1 18/2/1 8/3/1 6/4/1
f 18/1/1 19/2/1 10/3/1 8/4/1
f 19/1/1 20/2/1 12/3/1 10/4/1
f 20/1/1 21/2/1 14/3/1 12/4/1
f 21/1/1 331/2/1 332/3/1 14/4/1
f 317/1/1 15/2/1 2/3/1 318/4/1
f 316/1/1 1/2/1 22/3/1 373/4/1
f 1/1/1 3/2/1 23/3/1 22/4/1
f 3/1/1 5/2/1 24/3/1 23/4/1
f 5/1/1 7/2/1 25/3/1 24/4/1
f 7/1/1 9/2/1 26/3/1 25/4/1
f 9/1/1 11/2/1 27/3/1 26/4/1
f 11/1/1 13/2/1 28/3/1 27/4/1
f 13/1/1 330/2/1 372/3/1 28/4/1
f 22/5/1 23/6/1 30/7/1 29/8/1
f 23/5/1 24/6/1 31/7/1 30/8/1
f 24/5/1 25/6/1 32/9/1 31/8/1
f 25/5/1 26/6/1 33/10/1 32/11/1
f 26/5/1 27/6/1 34/12/1 33/13/1
f 27/5/1 28/6/1 35/12/1 34/13/1
f 28/5/1 372/6/1 438/14/1 35/15/1
f 373/5/1 22/6/1 29/16/1 427/17/1
f 37/18/2 38/19/2 71/20/2 69/21/2
f 71/20/3 38/19/3 40/22/3 75/23/3
f 75/24/4 40/25/4 41/26/4 77/27/4
f 39/28/5 73/29/5 77/30/5 41/31/5
f 58/32/6 60/33/6 64/34/6 62/35/6
f 43/18/2 44/19/2 83/20/2 81/21/2
f 83/20/3 44/19/3 45/22/3 85/23/3
f 85/24/7 45/25/7 46/26/7 87/27/7
f 36/28/5 67/29/5 87/30/5 46/31/5
f 51/36/4 48/37/4 53/38/4 52/39/4
f 51/40/8 50/41/8 56/41/8 57/40/8
f 49/42/4 50/41/4 43/43/4 81/44/4
f 48/45/4 49/42/4 81/44/4 89/46/4
f 50/41/4 51/40/4 47/47/4 43/43/4
f 79/48/4 53/49/4 48/50/4 89/51/4
f 47/52/4 51/53/4 52/54/4 42/55/4
f 55/56/4 54/57/4 57/58/4 56/59/4
f 50/41/2 49/42/2 55/60/2 56/41/2
f 49/42/6 48/45/6 54/61/6 55/60/6
f 48/62/5 51/63/5 57/63/5 54/62/5
f 58/32/4 59/64/4 37/43/4 69/44/4
f 61/65/4 60/33/4 67/66/4 36/67/4
f 59/64/4 61/65/4 36/67/4 37/43/4
f 60/33/4 58/32/4 69/44/4 67/66/4
f 62/35/4 64/34/4 65/68/4 63/69/4
f 59/64/2 58/32/2 62/35/2 63/69/2
f 61/65/8 59/64/8 63/69/8 65/68/8
f 60/33/5 61/65/5 65/68/5 64/34/5
f 68/18/2 69/21/2 71/20/2 70/19/2
f 71/20/3 75/23/3 74/22/3 70/19/3
f 75/24/4 77/27/4 76/26/4 74/25/4
f 72/28/5 76/31/5 77/30/5 73/29/5
f 80/18/2 81/21/2 83/20/2 82/19/2
f 83/20/3 85/23/3 84/22/3 82/19/3
f 85/24/7 87/27/7 86/26/7 84/25/7
f 66/28/5 86/31/5 87/30/5 67/29/5
f 93/36/4 94/39/4 95/38/4 90/37/4
f 93/40/6 99/40/6 98/41/6 92/41/6
f 91/42/4 81/44/4 80/43/4 92/41/4
f 90/45/4 89/46/4 81/44/4 91/42/4
f 92/41/4 80/43/4 88/47/4 93/40/4
f 79/48/4 89/51/4 90/50/4 95/49/4
f 88/52/4 78/55/4 94/54/4 93/53/4
f 97/56/4 98/59/4 99/58/4 96/57/4
f 92/41/2 98/41/2 97/60/2 91/42/2
f 91/42/8 97/60/8 96/61/8 90/45/8
f 90/62/5 96/62/5 99/63/5 93/63/5
f 100/32/4 69/44/4 68/43/4 101/64/4
f 103/65/4 66/67/4 67/66/4 102/33/4
f 101/64/4 68/43/4 66/67/4 103/65/4
f 102/33/4 67/66/4 69/44/4 100/32/4
f 103/33/5 102/65/5 104/68/5 105/34/5
f 102/65/8 100/64/8 106/69/8 104/68/8
f 100/64/2 101/32/2 107/35/2 106/69/2
f 107/35/4 105/34/4 104/68/4 106/69/4
f 101/32/6 103/33/6 105/34/6 107/35/6
f 68/18/2 70/19/2 131/20/2 129/21/2
f 131/20/3 70/19/3 74/22/3 135/23/3
f 135/24/4 74/25/4 76/26/4 137/27/4
f 72/28/5 133/29/5 137/30/5 76/31/5
f 118/32/6 120/33/6 124/34/6 122/35/6
f 80/18/2 82/19/2 143/20/2 141/21/2
f 143/20/3 82/19/3 84/22/3 145/23/3
f 145/24/7 84/25/7 86/26/7 147/27/7
f 66/28/5 127/29/5 147/30/5 86/31/5
f 111/36/4 108/37/4 113/38/4 112/39/4
f 111/40/8 110/41/8 116/41/8 117/40/8
f 109/42/4 110/41/4 80/43/4 141/44/4
f 108/45/4 109/42/4 141/44/4 149/46/4
f 110/41/4 111/40/4 88/47/4 80/43/4
f 139/48/4 113/49/4 108/50/4 149/51/4
f 88/52/4 111/53/4 112/54/4 78/55/4
f 115/56/4 114/57/4 117/58/4 116/59/4
f 110/41/2 109/42/2 115/60/2 116/41/2
f 109/42/6 108/45/6 114/61/6 115/60/6
f 108/62/5 111/63/5 117/63/5 114/62/5
f 118/32/4 119/64/4 68/43/4 129/44/4
f 121/65/4 120/33/4 127/66/4 66/67/4
f 119/64/4 121/65/4 66/67/4 68/43/4
f 120/33/4 118/32/4 129/44/4 127/66/4
f 122/35/4 124/34/4 125/68/4 123/69/4
f 119/64/2 118/32/2 122/35/2 123/69/2
f 121/65/8 119/64/8 123/69/8 125/68/8
f 120/33/5 121/65/5 125/68/5 124/34/5
f 128/18/2 129/21/2 131/20/2 130/19/2
f 131/20/3 135/23/3 134/22/3 130/19/3
f 135/24/4 137/27/4 136/26/4 134/25/4
f 132/28/5 136/31/5 137/30/5 133/29/5
f 140/18/2 141/21/2 143/20/2 142/19/2
f 143/20/3 145/23/3 144/22/3 142/19/3
f 145/24/7 147/27/7 146/26/7 144/25/7
f 126/28/5 146/31/5 147/30/5 127/29/5
f 153/70/6 154/71/6 313/72/6 312/73/6
f 151/74/2 152/75/2 311/76/2 542/77/2 310/78/2
f 151/79/4 141/44/4 140/43/4 152/80/4
f 150/81/4 149/46/4 141/44/4 151/79/4
f 152/80/4 140/43/4 148/47/4 153/82/4
f 139/48/4 149/51/4 150/83/4 155/84/4
f 148/52/4 138/55/4 154/85/4 153/86/4
f 156/32/4 129/44/4 128/43/4 157/64/4
f 159/65/4 126/67/4 127/66/4 158/33/4
f 157/64/4 128/43/4 126/67/4 159/65/4
f 158/33/4 127/66/4 129/44/4 156/32/4
f 159/33/5 158/65/5 160/68/5 161/34/5
f 158/65/8 156/64/8 162/69/8 160/68/8
f 156/64/2 157/32/2 163/35/2 162/69/2
f 163/35/4 161/34/4 160/68/4 162/69/4
f 157/32/6 159/33/6 161/34/6 163/35/6
f 128/18/2 130/19/2 187/20/2 185/21/2
f 187/20/3 130/19/3 134/22/3 191/23/3
f 191/24/4 134/25/4 136/26/4 193/27/4
f 132/28/5 189/29/5 193/30/5 136/31/5
f 174/32/6 176/33/6 180/34/6 178/35/6
f 140/18/2 142/19/2 199/20/2 197/21/2
f 199/20/3 142/19/3 144/22/3 201/23/3
f 201/24/7 144/25/7 146/26/7 203/27/7
f 126/28/5 183/29/5 203/30/5 146/31/5
f 167/36/4 164/37/4 169/38/4 168/39/4
f 167/40/8 166/41/8 172/41/8 173/40/8
f 165/42/4 166/41/4 140/43/4 197/44/4
f 164/45/4 165/42/4 197/44/4 205/46/4
f 166/41/4 167/40/4 148/47/4 140/43/4
f 195/48/4 169/49/4 164/50/4 205/51/4
f 148/52/4 167/53/4 168/54/4 138/55/4
f 171/56/4 170/57/4 173/58/4 172/59/4
f 166/41/2 165/42/2 171/60/2 172/41/2
f 165/42/6 164/45/6 170/61/6 171/60/6
f 164/62/5 167/63/5 173/63/5 170/62/5
f 174/32/4 175/64/4 128/43/4 185/44/4
f 177/65/4 176/33/4 183/66/4 126/67/4
f 175/64/4 177/65/4 126/67/4 128/43/4
f 176/33/4 174/32/4 185/44/4 183/66/4
f 178/35/4 180/34/4 181/68/4 179/69/4
f 175/64/2 174/32/2 178/35/2 179/69/2
f 177/65/8 175/64/8 179/69/8 181/68/8
f 176/33/5 177/65/5 181/68/5 180/34/5
f 184/18/2 185/21/2 187/20/2 186/19/2
f 187/20/3 191/23/3 190/22/3 186/19/3
f 191/24/4 193/27/4 192/26/4 190/25/4
f 188/28/5 192/31/5 193/30/5 189/29/5
f 196/18/2 197/21/2 199/20/2 198/19/2
f 199/20/3 201/23/3 200/22/3 198/19/3
f 201/24/7 203/27/7 202/26/7 200/25/7
f 182/28/5 202/31/5 203/30/5 183/29/5
f 209/36/4 210/39/4 211/38/4 206/37/4
f 209/40/6 215/40/6 214/41/6 208/41/6
f 207/42/4 197/44/4 196/43/4 208/41/4
f 206/45/4 205/46/4 197/44/4 207/42/4
f 208/41/4 196/43/4 204/47/4 209/40/4
f 195/48/4 205/51/4 206/50/4 211/49/4
f 204/52/4 194/55/4 210/54/4 209/53/4
f 213/56/4 214/59/4 215/58/4 212/57/4
f 208/41/2 214/41/2 213/60/2 207/42/2
f 207/42/8 213/60/8 212/61/8 206/45/8
f 206/62/5 212/62/5 215/63/5 209/63/5
f 216/32/4 185/44/4 184/43/4 217/64/4
f 219/65/4 182/67/4 183/66/4 218/33/4
f 217/64/4 184/43/4 182/67/4 219/65/4
f 218/33/4 183/66/4 185/44/4 216/32/4
f 219/33/5 218/65/5 220/68/5 221/34/5
f 218/65/8 216/64/8 222/69/8 220/68/8
f 216/64/2 217/32/2 223/35/2 222/69/2
f 223/35/4 221/34/4 220/68/4 222/69/4
f 217/32/6 219/33/6 221/34/6 223/35/6
f 184/18/2 186/19/2 247/20/2 245/21/2
f 247/20/3 186/19/3 190/22/3 251/23/3
f 251/24/4 190/25/4 192/26/4 253/27/4
f 188/28/5 249/29/5 253/30/5 192/31/5
f 234/32/6 236/33/6 240/34/6 238/35/6
f 196/18/2 198/19/2 259/20/2 257/21/2
f 259/20/3 198/19/3 200/22/3 261/23/3
f 261/24/7 200/25/7 202/26/7 263/27/7
f 182/28/5 243/29/5 263/30/5 202/31/5
f 227/36/4 224/37/4 229/38/4 228/39/4
f 227/40/8 226/41/8 232/41/8 233/40/8
f 225/42/4 226/41/4 196/43/4 257/44/4
f 224/45/4 225/42/4 257/44/4 265/46/4
f 226/41/4 227/40/4 204/47/4 196/43/4
f 255/48/4 229/49/4 224/50/4 265/51/4
f 204/52/4 227/53/4 228/54/4 194/55/4
f 231/56/4 230/57/4 233/58/4 232/59/4
f 226/41/2 225/42/2 231/60/2 232/41/2
f 225/42/6 224/45/6 230/61/6 231/60/6
f 224/62/5 227/63/5 233/63/5 230/62/5
f 234/32/4 235/64/4 184/43/4 245/44/4
f 237/65/4 236/33/4 243/66/4 182/67/4
f 235/64/4 237/65/4 182/67/4 184/43/4
f 236/33/4 234/32/4 245/44/4 243/66/4
f 238/35/4 240/34/4 241/68/4 239/69/4
f 235/64/2 234/32/2 238/35/2 239/69/2
f 237/65/8 235/64/8 239/69/8 241/68/8
f 236/33/5 237/65/5 241/68/5 240/34/5
f 244/18/2 245/21/2 247/20/2 246/19/2
f 247/20/3 251/23/3 250/22/3 246/19/3
f 251/24/4 253/27/4 252/26/4 250/25/4
f 248/28/5 252/31/5 253/30/5 249/29/5
f 256/18/2 257/21/2 259/20/2 258/19/2
f 259/20/3 261/23/3 260/22/3 258/19/3
f 261/24/7 263/27/7 262/26/7 260/25/7
f 242/28/5 262/31/5 263/30/5 243/29/5
f 269/36/4 270/39/4 271/38/4 266/37/4
f 269/40/6 275/40/6 274/41/6 268/41/6
f 267/42/4 257/44/4 256/43/4 268/41/4
f 266/45/4 265/46/4 257/44/4 267/42/4
f 268/41/4 256/43/4 264/47/4 269/40/4
f 255/48/4 265/51/4 266/50/4 271/49/4
f 264/52/4 254/55/4 270/54/4 269/53/4
f 273/56/4 274/59/4 275/58/4 272/57/4
f 268/41/2 274/41/2 273/60/2 267/42/2
f 267/42/8 273/60/8 272/61/8 266/45/8
f 266/62/5 272/62/5 275/63/5 269/63/5
f 276/32/4 245/44/4 244/43/4 277/64/4
f 279/65/4 242/67/4 243/66/4 278/33/4
f 277/64/4 244/43/4 242/67/4 279/65/4
f 278/33/4 243/66/4 245/44/4 276/32/4
f 279/33/5 278/65/5 280/68/5 281/34/5
f 278/65/8 276/64/8 282/69/8 280/68/8
f 276/64/2 277/32/2 283/35/2 282/69/2
f 283/35/4 281/34/4 280/68/4 282/69/4
f 277/32/6 279/33/6 281/34/6 283/35/6
f 244/87/8 248/87/8 294/87/8 293/87/8
f 242/67/8 244/43/8 293/43/8 292/67/8
f 264/47/8 256/43/8 295/43/8 296/47/8
f 242/87/8 292/87/8 295/87/8 256/87/8
f 292/88/9 293/4/9 330/89/9 332/90/9
f 294/91/9 330/89/9 293/4/9
f 299/88/9 296/92/9 295/4/9 332/89/9 331/93/9
f 292/91/9 332/89/9 295/4/9
f 254/55/8 264/52/8 296/52/8 299/55/8
f 37/87/10 302/87/10 303/87/10 39/87/10
f 36/67/10 301/67/10 302/43/10 37/43/10
f 47/47/10 305/47/10 304/43/10 43/43/10
f 36/87/10 43/87/10 304/87/10 301/87/10
f 301/88/11 318/94/11 316/89/11 302/4/11
f 303/91/11 302/4/11 316/89/11
f 308/88/11 317/93/11 318/89/11 304/4/11 305/92/11
f 301/91/11 304/4/11 318/89/11
f 42/55/10 308/55/10 305/52/10 47/52/10
f 543/95/4 542/96/4 311/97/4 312/98/4
f 543/99/4 314/100/4 309/101/4
f 150/102/8 151/103/8 310/104/8 309/105/8
f 155/71/8 150/70/8 309/73/8 314/72/8
f 152/106/6 153/107/6 312/108/6 311/109/6
f 44/110/6 43/111/6 36/112/6 46/113/6 45/114/6
f 37/115/6 39/116/6 41/117/6 40/118/6 38/119/6
f 258/120/8 260/121/8 262/113/8 242/122/8 256/123/8
f 244/124/8 246/125/8 250/126/8 252/127/8 248/128/8
f 39/129/10 303/129/10 374/130/10 384/130/10
f 303/88/11 316/94/11 373/89/11 374/4/11
f 289/131/2 285/132/2 284/133/2 288/133/2
f 290/134/5 286/134/5 287/135/5 291/136/5
f 291/136/6 287/135/6 285/132/6 289/131/6
f 284/133/4 285/132/4 287/135/4 286/134/4
f 290/134/4 188/137/4 378/138/4 288/133/4
f 289/131/4 377/139/4 249/140/4 291/136/4
f 288/133/4 378/138/4 377/139/4 289/131/4
f 291/136/4 249/140/4 188/137/4 290/134/4
f 288/133/8 284/133/8 286/134/8 290/134/8
f 315/131/2 298/132/2 297/133/2 307/133/2
f 319/134/5 300/134/5 306/135/5 320/136/5
f 320/136/6 306/135/6 298/132/6 315/131/6
f 297/133/4 298/132/4 306/135/4 300/134/4
f 319/134/4 132/137/4 380/138/4 307/133/4
f 315/131/4 379/139/4 189/140/4 320/136/4
f 307/133/4 380/138/4 379/139/4 315/131/4
f 320/136/4 189/140/4 132/137/4 319/134/4
f 307/133/8 297/133/8 300/134/8 319/134/8
f 326/131/2 322/132/2 321/133/2 325/133/2
f 327/134/5 323/134/5 324/135/5 328/136/5
f 328/136/6 324/135/6 322/132/6 326/131/6
f 321/133/4 322/132/4 324/135/4 323/134/4
f 327/134/4 72/137/4 382/138/4 325/133/4
f 326/131/4 381/139/4 133/140/4 328/136/4
f 325/133/4 382/138/4 381/139/4 326/131/4
f 328/136/4 133/140/4 72/137/4 327/134/4
f 325/133/8 321/133/8 323/134/8 327/134/8
f 337/131/2 333/132/2 329/133/2 336/133/2
f 338/134/5 334/134/5 335/135/5 339/136/5
f 339/136/6 335/135/6 333/132/6 337/131/6
f 329/133/4 333/132/4 335/135/4 334/134/4
f 338/134/4 39/137/4 384/138/4 336/133/4
f 337/131/4 383/139/4 73/140/4 339/136/4
f 336/133/4 384/138/4 383/139/4 337/131/4
f 339/136/4 73/140/4 39/137/4 338/134/4
f 336/133/8 329/133/8 334/134/8 338/134/8
f 248/141/8 376/142/8 375/142/8 294/141/8
f 294/88/9 375/4/9 372/89/9 330/90/9
f 345/131/2 344/133/2 340/133/2 341/132/2
f 346/134/5 347/136/5 343/135/5 342/134/5
f 347/136/8 345/131/8 341/132/8 343/135/8
f 340/133/4 342/134/4 343/135/4 341/132/4
f 346/134/4 344/133/4 382/138/4 72/137/4
f 345/131/4 347/136/4 73/140/4 383/139/4
f 344/133/4 345/131/4 383/139/4 382/138/4
f 347/136/4 346/134/4 72/137/4 73/140/4
f 344/133/6 346/134/6 342/134/6 340/133/6
f 353/131/2 352/133/2 348/133/2 349/132/2
f 354/134/5 355/136/5 351/135/5 350/134/5
f 355/136/8 353/131/8 349/132/8 351/135/8
f 348/133/4 350/134/4 351/135/4 349/132/4
f 354/134/4 352/133/4 380/138/4 132/137/4
f 353/131/4 355/136/4 133/140/4 381/139/4
f 352/133/4 353/131/4 381/139/4 380/138/4
f 355/136/4 354/134/4 132/137/4 133/140/4
f 352/133/6 354/134/6 350/134/6 348/133/6
f 361/131/2 360/133/2 356/133/2 357/132/2
f 362/134/5 363/136/5 359/135/5 358/134/5
f 363/136/8 361/131/8 357/132/8 359/135/8
f 356/133/4 358/134/4 359/135/4 357/132/4
f 362/134/4 360/133/4 378/138/4 188/137/4
f 361/131/4 363/136/4 189/140/4 379/139/4
f 360/133/4 361/131/4 379/139/4 378/138/4
f 363/136/4 362/134/4 188/137/4 189/140/4
f 360/133/6 362/134/6 358/134/6 356/133/6
f 369/131/2 368/133/2 364/133/2 365/132/2
f 370/134/5 371/136/5 367/135/5 366/134/5
f 371/136/8 369/131/8 365/132/8 367/135/8
f 364/133/4 366/134/4 367/135/4 365/132/4
f 370/134/4 368/133/4 376/138/4 248/137/4
f 369/131/4 371/136/4 249/140/4 377/139/4
f 368/133/4 369/131/4 377/139/4 376/138/4
f 371/136/4 370/134/4 248/137/4 249/140/4
f 368/133/6 370/134/6 366/134/6 364/133/6
f 391/143/4 386/144/4 385/145/4 389/146/4
f 393/20/3 387/19/3 386/22/3 391/23/3
f 388/18/2 387/19/2 393/20/2 395/21/2
f 391/143/4 389/146/4 390/145/4 392/144/4
f 393/20/3 391/23/3 392/22/3 394/19/3
f 396/18/2 395/21/2 393/20/2 394/19/2
f 399/143/4 392/144/4 390/145/4 397/146/4
f 401/20/3 394/19/3 392/22/3 399/23/3
f 396/18/2 394/19/2 401/20/2 403/21/2
f 399/143/4 397/146/4 398/145/4 400/144/4
f 401/20/3 399/23/3 400/22/3 402/19/3
f 404/18/2 403/21/2 401/20/2 402/19/2
f 407/143/4 400/144/4 398/145/4 405/146/4
f 409/20/3 402/19/3 400/22/3 407/23/3
f 404/18/2 402/19/2 409/20/2 411/21/2
f 407/143/4 405/146/4 406/145/4 408/144/4
f 409/20/3 407/23/3 408/22/3 410/19/3
f 412/18/2 411/21/2 409/20/2 410/19/2
f 415/143/4 408/144/4 406/145/4 413/146/4
f 418/20/3 410/19/3 408/22/3 415/23/3
f 412/18/2 410/19/2 418/20/2 420/21/2
f 414/147/12 437/148/12 439/149/12 422/150/12 417/151/12
f 415/143/4 413/146/4 414/145/4 416/144/4
f 418/20/3 415/23/3 416/22/3 419/19/3
f 421/18/2 420/21/2 418/20/2 419/19/2
f 417/87/8 422/87/8 423/87/8 421/87/8
f 422/91/9 438/89/9 423/4/9
f 422/88/9 439/152/9 438/153/9
f 436/154/13 437/155/13 414/156/13 413/157/13
f 435/154/13 436/155/13 413/156/13 406/157/13
f 434/154/13 435/155/13 406/156/13 405/157/13
f 433/154/13 434/155/13 405/156/13 398/157/13
f 432/154/13 433/155/13 398/156/13 397/157/13
f 431/154/13 432/155/13 397/156/13 390/157/13
f 430/154/13 431/155/13 390/156/13 389/157/13
f 429/154/13 430/155/13 389/156/13 385/157/13
f 385/147/14 424/151/14 425/150/14 428/149/14 429/148/14
f 424/87/6 388/87/6 426/87/6 425/87/6
f 425/91/11 426/4/11 427/89/11
f 425/88/11 427/153/11 428/152/11
f 385/158/6 386/159/6 387/160/6 388/161/6 424/162/6
f 414/163/8 417/164/8 421/165/8 419/166/8 416/167/8
f 443/133/6 441/134/6 445/134/6 447/133/6
f 440/136/4 441/134/4 534/137/4 535/140/4
f 443/133/4 442/131/4 420/139/4 421/138/4
f 442/131/4 440/136/4 535/140/4 420/139/4
f 441/134/4 443/133/4 421/138/4 534/137/4
f 447/133/4 445/134/4 444/135/4 446/132/4
f 440/136/8 442/131/8 446/132/8 444/135/8
f 441/134/5 440/136/5 444/135/5 445/134/5
f 442/131/2 443/133/2 447/133/2 446/132/2
f 451/133/6 449/134/6 453/134/6 455/133/6
f 448/136/4 449/134/4 526/137/4 527/140/4
f 451/133/4 450/131/4 411/139/4 412/138/4
f 450/131/4 448/136/4 527/140/4 411/139/4
f 449/134/4 451/133/4 412/138/4 526/137/4
f 455/133/4 453/134/4 452/135/4 454/132/4
f 448/136/8 450/131/8 454/132/8 452/135/8
f 449/134/5 448/136/5 452/135/5 453/134/5
f 450/131/2 451/133/2 455/133/2 454/132/2
f 459/133/6 457/134/6 461/134/6 463/133/6
f 456/136/4 457/134/4 518/137/4 519/140/4
f 459/133/4 458/131/4 403/139/4 404/138/4
f 458/131/4 456/136/4 519/140/4 403/139/4
f 457/134/4 459/133/4 404/138/4 518/137/4
f 463/133/4 461/134/4 460/135/4 462/132/4
f 456/136/8 458/131/8 462/132/8 460/135/8
f 457/134/5 456/136/5 460/135/5 461/134/5
f 458/131/2 459/133/2 463/133/2 462/132/2
f 467/133/6 465/134/6 469/134/6 471/133/6
f 464/136/4 465/134/4 510/137/4 511/140/4
f 467/133/4 466/131/4 395/139/4 396/138/4
f 466/131/4 464/136/4 511/140/4 395/139/4
f 465/134/4 467/133/4 396/138/4 510/137/4
f 471/133/4 469/134/4 468/135/4 470/132/4
f 464/136/8 466/131/8 470/132/8 468/135/8
f 465/134/5 464/136/5 468/135/5 469/134/5
f 466/131/2 467/133/2 471/133/2 470/132/2
f 540/88/9 423/4/9 438/89/9 372/90/9
f 534/141/8 421/142/8 423/142/8 540/141/8
f 475/133/8 479/133/8 477/134/8 473/134/8
f 472/136/4 511/140/4 505/137/4 473/134/4
f 475/133/4 388/138/4 395/139/4 474/131/4
f 474/131/4 395/139/4 511/140/4 472/136/4
f 473/134/4 505/137/4 388/138/4 475/133/4
f 479/133/4 478/132/4 476/135/4 477/134/4
f 472/136/6 476/135/6 478/132/6 474/131/6
f 473/134/5 477/134/5 476/135/5 472/136/5
f 474/131/2 478/132/2 479/133/2 475/133/2
f 483/133/8 487/133/8 485/134/8 481/134/8
f 480/136/4 519/140/4 510/137/4 481/134/4
f 483/133/4 396/138/4 403/139/4 482/131/4
f 482/131/4 403/139/4 519/140/4 480/136/4
f 481/134/4 510/137/4 396/138/4 483/133/4
f 487/133/4 486/132/4 484/135/4 485/134/4
f 480/136/6 484/135/6 486/132/6 482/131/6
f 481/134/5 485/134/5 484/135/5 480/136/5
f 482/131/2 486/132/2 487/133/2 483/133/2
f 491/133/8 495/133/8 493/134/8 489/134/8
f 488/136/4 527/140/4 518/137/4 489/134/4
f 491/133/4 404/138/4 411/139/4 490/131/4
f 490/131/4 411/139/4 527/140/4 488/136/4
f 489/134/4 518/137/4 404/138/4 491/133/4
f 495/133/4 494/132/4 492/135/4 493/134/4
f 488/136/6 492/135/6 494/132/6 490/131/6
f 489/134/5 493/134/5 492/135/5 488/136/5
f 490/131/2 494/132/2 495/133/2 491/133/2
f 499/133/8 503/133/8 501/134/8 497/134/8
f 496/136/4 535/140/4 526/137/4 497/134/4
f 499/133/4 412/138/4 420/139/4 498/131/4
f 498/131/4 420/139/4 535/140/4 496/136/4
f 497/134/4 526/137/4 412/138/4 499/133/4
f 503/133/4 502/132/4 500/135/4 501/134/4
f 496/136/6 500/135/6 502/132/6 498/131/6
f 497/134/5 501/134/5 500/135/5 496/136/5
f 498/131/2 502/132/2 503/133/2 499/133/2
f 541/88/11 373/94/11 427/89/11 426/4/11
f 505/129/10 541/129/10 426/130/10 388/130/10
f 384/18/2 504/19/2 509/20/2 383/21/2
f 509/20/3 504/19/3 506/22/3 513/23/3
f 513/24/4 506/25/4 507/26/4 515/27/4
f 505/28/5 511/29/5 515/30/5 507/31/5
f 382/18/2 383/21/2 509/20/2 508/19/2
f 509/20/3 513/23/3 512/22/3 508/19/3
f 513/24/4 515/27/4 514/26/4 512/25/4
f 510/28/5 514/31/5 515/30/5 511/29/5
f 382/18/2 508/19/2 517/20/2 381/21/2
f 517/20/3 508/19/3 512/22/3 521/23/3
f 521/24/4 512/25/4 514/26/4 523/27/4
f 510/28/5 519/29/5 523/30/5 514/31/5
f 380/18/2 381/21/2 517/20/2 516/19/2
f 517/20/3 521/23/3 520/22/3 516/19/3
f 521/24/4 523/27/4 522/26/4 520/25/4
f 518/28/5 522/31/5 523/30/5 519/29/5
f 380/18/2 516/19/2 525/20/2 379/21/2
f 525/20/3 516/19/3 520/22/3 529/23/3
f 529/24/4 520/25/4 522/26/4 531/27/4
f 518/28/5 527/29/5 531/30/5 522/31/5
f 378/18/2 379/21/2 525/20/2 524/19/2
f 525/20/3 529/23/3 528/22/3 524/19/3
f 529/24/4 531/27/4 530/26/4 528/25/4
f 526/28/5 530/31/5 531/30/5 527/29/5
f 378/18/2 524/19/2 533/20/2 377/21/2
f 533/20/3 524/19/3 528/22/3 537/23/3
f 537/24/4 528/25/4 530/26/4 539/27/4
f 526/28/5 535/29/5 539/30/5 530/31/5
f 376/18/2 377/21/2 533/20/2 532/19/2
f 533/20/3 537/23/3 536/22/3 532/19/3
f 537/24/4 539/27/4 538/26/4 536/25/4
f 534/28/5 538/31/5 539/30/5 535/29/5
f 376/87/8 534/87/8 540/87/8 375/87/8
f 540/91/9 372/89/9 375/4/9
f 384/87/10 374/87/10 541/87/10 505/87/10
f 541/91/11 374/4/11 373/89/11
f 384/115/6 505/116/6 507/117/6 506/118/6 504/119/6
f 376/124/8 532/125/8 536/126/8 538/127/8 534/128/8
f 313/168/4 543/169/4 312/98/4
f 309/101/4 310/170/4 542/171/4 543/172/4
f 29/5/1 30/6/1 431/7/1 430/8/1
f 30/5/1 31/6/1 432/7/1 431/8/1
f 31/5/1 32/6/1 433/9/1 432/8/1
f 32/5/1 33/6/1 434/10/1 433/11/1
f 33/5/1 34/6/1 435/12/1 434/13/1
f 34/5/1 35/6/1 436/12/1 435/13/1
f 35/5/1 438/6/1 439/173/1 437/14/1 436/15/1
f 427/5/1 29/6/1 430/16/1 429/17/1 428/174/1
