# Blender 5.1.1
# www.blender.org
mtllib PBP1_Corner1.mtl
o PBP1_Corner1
v 4.199193 -1.812151 5.921027
v 4.199193 1.348673 5.921027
v 4.199193 1.348673 6.078345
v 4.199193 1.537043 5.921027
v 4.199193 1.453064 6.167605
v 4.199193 1.537043 6.167605
v 4.199193 -5.161345 5.921027
v 4.199193 -2.000521 5.921027
v 4.199193 -2.000521 6.078345
v 4.199193 -1.896129 6.167605
v 4.199193 -1.812151 6.178673
v 4.199193 -4.382268 5.921027
v 2.487825 -4.382268 5.921027
v 2.487825 -2.564825 5.921027
v 3.483756 -2.564825 5.921027
v 3.483756 -4.382268 5.921027
v 3.483755 -5.161345 5.921027
v 2.487825 -5.161345 5.921027
v 2.487825 -4.382268 5.756622
v 2.487825 -2.564825 5.756622
v 3.483756 -2.564825 5.756622
v 3.483756 -4.382268 5.756622
v 2.450007 0.740184 5.921027
v 3.521574 0.740184 5.921027
v 2.450007 -1.012522 5.921027
v 3.521574 -1.012522 5.921027
v 2.450007 0.740184 5.756622
v 3.521575 0.740184 5.756622
v 2.450007 -1.012522 5.756622
v 3.521575 -1.012522 5.756622
v 3.521574 2.336672 5.921027
v 2.450007 2.336672 5.921027
v 3.521574 4.089378 5.921027
v 2.450007 4.089378 5.921027
v 4.199193 4.886237 6.167605
v 4.199193 4.802258 6.167605
v 4.199193 4.697866 6.078345
v 4.199193 4.697866 5.921027
v 2.450007 4.089378 5.756622
v 3.521575 4.089378 5.756622
v 2.450007 2.336672 5.756622
v 3.521575 2.336672 5.756622
v -0.654419 -1.812151 5.921029
v 1.772387 -1.812151 5.921028
v -0.654419 1.348673 5.921029
v 1.772387 1.348673 5.921028
v -0.654419 1.348673 6.078347
v 1.772388 1.348673 6.078345
v -0.654419 1.537043 5.921029
v 1.772387 1.537043 5.921028
v -0.654419 1.453064 6.167606
v 1.772388 1.453064 6.167605
v -0.654419 1.537043 6.167606
v 1.772388 1.537043 6.167605
v -0.654419 -5.161345 5.921029
v 1.772387 -5.161345 5.921028
v -0.654419 -2.000521 5.921029
v 1.772387 -2.000521 5.921028
v -0.654419 -2.000521 6.078347
v 1.772388 -2.000521 6.078345
v -0.654419 -1.896129 6.167606
v 1.772388 -1.896129 6.167605
v -0.654419 -1.812151 6.178675
v 1.772388 -1.812151 6.178674
v -0.654419 -4.382268 5.921029
v 1.772387 -4.382268 5.921028
v 1.056950 -4.382268 5.921028
v 1.056950 -2.564825 5.921028
v 0.061018 -2.564825 5.921029
v 0.061018 -4.382268 5.921029
v 0.061019 -5.161345 5.921029
v 1.056950 -5.161345 5.921028
v 1.056950 -4.382268 5.756622
v 1.056950 -2.564825 5.756622
v 0.061018 -2.564825 5.756623
v 0.061018 -4.382268 5.756623
v 1.094768 0.740184 5.921028
v 0.023201 0.740184 5.921029
v 1.094768 -1.012522 5.921028
v 0.023201 -1.012522 5.921029
v 1.094769 -1.012522 5.756622
v 0.023201 -1.012522 5.756622
v 1.094769 0.740184 5.756622
v 0.023201 0.740184 5.756622
v 0.023201 2.336672 5.921029
v 1.094768 2.336672 5.921028
v 0.023201 4.089378 5.921029
v 1.094768 4.089378 5.921028
v 1.772388 4.886237 6.167605
v -0.654419 4.886237 6.167606
v 1.772388 4.802258 6.167605
v -0.654419 4.802258 6.167606
v 1.772388 4.697866 6.078345
v -0.654419 4.697866 6.078347
v 1.772387 4.697866 5.921028
v -0.654419 4.697866 5.921029
v 0.023201 4.089378 5.756622
v 1.094769 4.089378 5.756622
v 0.023201 2.336672 5.756622
v 1.094769 2.336672 5.756622
v -2.365788 -4.382268 5.921029
v -2.365788 -2.564825 5.921029
v -1.369857 -2.564825 5.921029
v -1.369857 -4.382268 5.921029
v -1.369857 -5.161345 5.921029
v -2.365788 -5.161345 5.921029
v -2.365788 -4.382268 5.756624
v -2.365788 -2.564825 5.756624
v -1.369857 -2.564825 5.756623
v -1.369857 -4.382268 5.756623
v -2.403606 0.740184 5.921029
v -1.332039 0.740184 5.921029
v -2.403606 -1.012522 5.921029
v -1.332039 -1.012522 5.921029
v -2.403606 0.740184 5.756624
v -1.332039 0.740184 5.756623
v -2.403606 -1.012522 5.756624
v -1.332039 -1.012522 5.756623
v -1.332039 2.336672 5.921029
v -2.403606 2.336672 5.921029
v -1.332039 4.089378 5.921029
v -2.403606 4.089378 5.921029
v -2.403606 4.089378 5.756624
v -1.332039 4.089378 5.756623
v -2.403606 2.336672 5.756624
v -1.332039 2.336672 5.756623
v -5.508033 -1.812151 5.921031
v -3.081227 -1.812151 5.921029
v -5.508033 1.348673 5.921031
v -3.081227 1.348673 5.921029
v -5.508033 1.348673 6.078349
v -3.081227 1.348673 6.078347
v -5.508033 1.537043 5.921031
v -3.081226 1.537043 5.921029
v -5.508033 1.453064 6.167608
v -3.081227 1.453064 6.167607
v -5.508033 1.537043 6.167608
v -3.081226 1.537043 6.167607
v -5.508033 -5.161345 5.921031
v -3.081227 -5.161345 5.921029
v -5.508033 -2.000521 5.921031
v -3.081227 -2.000521 5.921029
v -5.508033 -2.000521 6.078349
v -3.081227 -2.000521 6.078347
v -5.508033 -1.896129 6.167608
v -3.081227 -1.896129 6.167607
v -5.508033 -1.812151 6.178677
v -3.081226 -1.812151 6.178675
v -5.508033 -4.382268 5.921031
v -3.081227 -4.382268 5.921029
v -3.286327 -4.382268 5.921029
v -3.286327 -2.564825 5.921029
v -5.302931 -2.564825 5.921030
v -5.302931 -4.382268 5.921030
v -5.302931 -5.161345 5.921030
v -3.286327 -5.161345 5.921029
v -3.758845 0.740184 5.921030
v -4.830412 0.740184 5.921030
v -3.758845 -1.012522 5.921030
v -4.830412 -1.012522 5.921030
v -3.758845 -1.012522 5.756624
v -4.830412 -1.012522 5.756623
v -3.758845 0.740184 5.756624
v -4.830412 0.740184 5.756623
v -4.830412 2.336672 5.921030
v -3.758845 2.336672 5.921030
v -4.830412 4.089378 5.921030
v -3.758845 4.089378 5.921030
v -3.081226 4.886237 6.167607
v -5.508033 4.886237 6.167608
v -3.081227 4.802258 6.167607
v -5.508033 4.802258 6.167608
v -3.081227 4.697866 6.078347
v -5.508033 4.697866 6.078349
v -3.081227 4.697866 5.921029
v -5.508033 4.697866 5.921031
v -4.830412 4.089378 5.756623
v -3.758845 4.089378 5.756624
v -4.830412 2.336672 5.756623
v -3.758845 2.336672 5.756624
v -7.219401 -4.382268 5.921030
v -7.219401 -2.564825 5.921030
v -6.223469 -2.564825 5.921030
v -6.223469 -4.382268 5.921030
v -6.223471 -5.161345 5.921030
v -7.219401 -5.161345 5.921030
v -7.219401 -4.382268 5.756625
v -7.219401 -2.564825 5.756625
v -6.223469 -2.564825 5.756625
v -6.223469 -4.382268 5.756625
v -7.257219 0.740184 5.921030
v -6.185651 0.740184 5.921030
v -7.257219 -1.012522 5.921030
v -6.185651 -1.012522 5.921030
v -7.257219 0.740184 5.756625
v -6.185651 0.740184 5.756625
v -7.257219 -1.012522 5.756625
v -6.185651 -1.012522 5.756625
v -6.185651 2.336672 5.921030
v -7.257219 2.336672 5.921030
v -6.185651 4.089378 5.921030
v -7.257219 4.089378 5.921030
v -7.257219 4.089378 5.756625
v -6.185651 4.089378 5.756625
v -7.257219 2.336672 5.756625
v -6.185651 2.336672 5.756625
v -10.361645 -1.812151 5.921032
v -7.934839 -1.812151 5.921031
v -10.361645 1.348673 5.921032
v -7.934839 1.348673 5.921031
v -10.361645 1.348673 6.078350
v -7.934839 1.348673 6.078348
v -10.361645 1.537043 5.921032
v -7.934839 1.537043 5.921031
v -10.361645 1.453064 6.167610
v -7.934839 1.453064 6.167608
v -10.361645 1.537043 6.167610
v -7.934839 1.537043 6.167608
v -10.361645 -5.161345 5.921032
v -7.934839 -5.161345 5.921031
v -10.361645 -2.000521 5.921032
v -7.934839 -2.000521 5.921031
v -10.361645 -2.000521 6.078350
v -7.934839 -2.000521 6.078348
v -10.361645 -1.896129 6.167610
v -7.934839 -1.896129 6.167608
v -10.361645 -1.812151 6.178678
v -7.934839 -1.812151 6.178677
v -10.361645 -4.382268 5.921032
v -7.934839 -4.382268 5.921031
v -8.650277 -4.382268 5.921031
v -8.650277 -2.564825 5.921031
v -9.646207 -2.564825 5.921032
v -9.646207 -4.382268 5.921032
v -9.646207 -5.161345 5.921032
v -8.650277 -5.161345 5.921031
v -8.650277 -4.382268 5.756626
v -8.650277 -2.564825 5.756626
v -9.646207 -2.564825 5.756627
v -9.646207 -4.382268 5.756627
v -8.612459 0.740184 5.921031
v -9.684027 0.740184 5.921032
v -8.612459 -1.012522 5.921031
v -9.684027 -1.012522 5.921032
v -8.612457 -1.012522 5.756625
v -9.684025 -1.012522 5.756625
v -8.612457 0.740184 5.756625
v -9.684025 0.740184 5.756625
v -9.684027 2.336672 5.921032
v -8.612459 2.336672 5.921031
v -9.684027 4.089378 5.921032
v -8.612459 4.089378 5.921031
v -7.934839 4.886237 6.167608
v -10.361645 4.886237 6.167610
v -7.934839 4.802258 6.167608
v -10.361645 4.802258 6.167610
v -7.934839 4.697866 6.078348
v -10.361645 4.697866 6.078350
v -7.934839 4.697866 5.921031
v -10.361645 4.697866 5.921032
v -9.684025 4.089378 5.756625
v -8.612457 4.089378 5.756625
v -9.684025 2.336672 5.756625
v -8.612457 2.336672 5.756625
v -12.073016 -4.382268 5.921031
v -12.073016 -2.564825 5.921031
v -11.077083 -2.564825 5.921032
v -11.077083 -4.382268 5.921032
v -11.077083 -5.161345 5.921032
v -12.073016 -5.161345 5.921031
v -12.073016 -4.382268 5.756627
v -12.073016 -2.564825 5.756627
v -11.077083 -2.564825 5.756627
v -11.077083 -4.382268 5.756627
v -12.110833 0.740184 5.921031
v -11.039266 0.740184 5.921032
v -12.110833 -1.012522 5.921031
v -11.039266 -1.012522 5.921032
v -12.110833 0.740184 5.756627
v -11.039266 0.740184 5.756627
v -12.110833 -1.012522 5.756627
v -11.039266 -1.012522 5.756627
v -11.039266 2.336672 5.921032
v -12.110833 2.336672 5.921031
v -11.039266 4.089378 5.921032
v -12.110833 4.089378 5.921031
v -12.110833 4.089378 5.756627
v -11.039266 4.089378 5.756627
v -12.110833 2.336672 5.756627
v -11.039266 2.336672 5.756627
v -15.215260 -1.812151 5.921033
v -12.788453 -1.812151 5.921032
v -15.215260 1.348673 5.921033
v -12.788453 1.348673 5.921032
v -15.215260 1.348673 6.078351
v -12.788453 1.348673 6.078350
v -15.215260 1.537043 5.921033
v -12.788453 1.537043 5.921032
v -15.215260 1.453064 6.167611
v -12.788453 1.453064 6.167610
v -15.215260 1.537043 6.167611
v -12.788453 1.537043 6.167610
v -15.215260 -5.161345 5.921033
v -12.788453 -5.161345 5.921032
v -15.215260 -2.000521 5.921033
v -12.788453 -2.000521 5.921032
v -15.215260 -2.000521 6.078351
v -12.788453 -2.000521 6.078350
v -15.215260 -1.896129 6.167611
v -12.788453 -1.896129 6.167610
v -15.215260 -1.812151 6.178679
v -12.788453 -1.812151 6.178679
v -15.215260 -4.382268 5.921033
v -12.788453 -4.382268 5.921032
v -13.503889 -4.382268 5.921032
v -13.503889 -2.564825 5.921032
v -14.499822 -2.564825 5.921033
v -14.499822 -4.382268 5.921033
v -14.499820 -5.161345 5.921033
v -13.503889 -5.161345 5.921032
v -13.503889 -4.382268 5.756627
v -13.503889 -2.564825 5.756627
v -14.499822 -2.564825 5.756628
v -14.499822 -4.382268 5.756628
v -13.466072 0.740184 5.921032
v -14.537639 0.740184 5.921033
v -13.466072 -1.012522 5.921032
v -14.537639 -1.012522 5.921033
v -13.466072 -1.012522 5.756627
v -14.537637 -1.012522 5.756627
v -13.466072 0.740184 5.756627
v -14.537637 0.740184 5.756627
v -14.537639 2.336672 5.921033
v -13.466072 2.336672 5.921032
v -14.537639 4.089378 5.921033
v -13.466072 4.089378 5.921032
v -12.788453 4.886237 6.167610
v -15.215260 4.886237 6.167611
v -12.788453 4.802258 6.167610
v -15.215260 4.802258 6.167611
v -15.215260 4.886237 5.921033
v -12.788453 4.697866 6.078350
v -15.215260 4.697866 6.078351
v -12.788453 4.697866 5.921032
v -15.215260 4.697866 5.921033
v -14.537637 4.089378 5.756627
v -13.466072 4.089378 5.756627
v -14.537637 2.336672 5.756627
v -13.466072 2.336672 5.756627
v -15.215260 -1.812151 5.839140
v -15.215260 1.348673 5.839140
v -15.215260 1.537043 5.839140
v -15.215260 -2.000521 5.839140
v -15.215260 -4.382268 5.839140
v -15.215260 4.886237 5.839140
v -15.215260 4.697866 5.839140
v -15.215259 4.697866 2.425990
v -15.215259 1.348673 2.425990
v -15.215260 -5.161345 5.821087
v -15.215259 -5.161345 2.425990
v -15.215259 -2.000521 2.425990
v -15.215259 7.359966 2.425990
v -15.215259 7.580395 2.425990
v -12.788452 7.580395 2.425990
v -10.361646 7.580395 2.425990
v -7.934838 7.580395 2.425990
v -5.508032 7.580395 2.425990
v -3.081226 7.580395 2.425990
v -0.654419 7.580395 2.425990
v 2.420157 7.580395 2.425990
v 5.915202 -2.000521 4.205016
v 5.915202 -5.161345 4.205016
v -3.286327 -4.382268 5.739829
v -3.286327 -2.564825 5.739829
v -5.302931 -2.564825 5.739830
v -5.302931 -4.382268 5.739830
v -5.302931 -5.161345 5.739830
v -3.286327 -5.161345 5.739829
v 5.915195 -1.812151 -15.209436
v 5.915195 1.348673 -15.209436
v 6.072513 1.348673 -15.209436
v 5.915195 1.537043 -15.209436
v 6.161772 1.453064 -15.209436
v 6.161772 1.537043 -15.209436
v 5.915195 -5.161345 -15.209436
v 5.915195 -2.000521 -15.209436
v 6.072513 -2.000521 -15.209436
v 6.161772 -1.896129 -15.209436
v 6.172842 -1.812151 -15.209436
v 5.915195 -4.382268 -15.209436
v 5.915194 -4.382268 -13.498069
v 5.915194 -2.564825 -13.498069
v 5.915193 -2.564825 -14.493999
v 5.915193 -4.382268 -14.493999
v 5.915193 -5.161345 -14.493999
v 5.915194 -5.161345 -13.498069
v 5.750790 -4.382268 -13.498069
v 5.750790 -2.564825 -13.498069
v 5.750790 -2.564825 -14.493999
v 5.750790 -4.382268 -14.493999
v 5.915194 0.740184 -13.460252
v 5.915193 0.740184 -14.531816
v 5.915194 -1.012522 -13.460252
v 5.915193 -1.012522 -14.531816
v 5.750788 0.740184 -13.460252
v 5.750790 0.740184 -14.531816
v 5.750788 -1.012522 -13.460252
v 5.750790 -1.012522 -14.531816
v 5.915193 2.336672 -14.531816
v 5.915194 2.336672 -13.460252
v 5.915193 4.089378 -14.531816
v 5.915194 4.089378 -13.460252
v 6.161772 4.886237 -15.209436
v 6.161772 4.802258 -15.209436
v 6.072513 4.697866 -15.209436
v 5.915195 4.697866 -15.209436
v 5.750788 4.089378 -13.460252
v 5.750790 4.089378 -14.531816
v 5.750788 2.336672 -13.460252
v 5.750790 2.336672 -14.531816
v 5.915196 -1.812151 -10.355824
v 5.915194 -1.812151 -12.782632
v 5.915196 1.348673 -10.355824
v 5.915194 1.348673 -12.782632
v 6.072515 1.348673 -10.355824
v 6.072514 1.348673 -12.782632
v 5.915196 1.537043 -10.355824
v 5.915194 1.537043 -12.782632
v 6.161774 1.453064 -10.355824
v 6.161773 1.453064 -12.782632
v 6.161774 1.537043 -10.355824
v 6.161773 1.537043 -12.782632
v 5.915196 -5.161345 -10.355824
v 5.915194 -5.161345 -12.782632
v 5.915196 -2.000521 -10.355824
v 5.915194 -2.000521 -12.782632
v 6.072515 -2.000521 -10.355824
v 6.072514 -2.000521 -12.782632
v 6.161774 -1.896129 -10.355824
v 6.161773 -1.896129 -12.782632
v 6.172843 -1.812151 -10.355824
v 6.172840 -1.812151 -12.782632
v 5.915196 -4.382268 -10.355824
v 5.915194 -4.382268 -12.782632
v 5.915194 -4.382268 -12.067191
v 5.915194 -2.564825 -12.067191
v 5.915196 -2.564825 -11.071259
v 5.915196 -4.382268 -11.071259
v 5.915196 -5.161345 -11.071261
v 5.915194 -5.161345 -12.067191
v 5.750791 -4.382268 -12.067191
v 5.750791 -2.564825 -12.067191
v 5.750791 -2.564825 -11.071259
v 5.750791 -4.382268 -11.071259
v 5.915194 0.740184 -12.105009
v 5.915196 0.740184 -11.033442
v 5.915194 -1.012522 -12.105009
v 5.915196 -1.012522 -11.033442
v 5.750789 -1.012522 -12.105013
v 5.750789 -1.012522 -11.033443
v 5.750789 0.740184 -12.105013
v 5.750789 0.740184 -11.033443
v 5.915196 2.336672 -11.033442
v 5.915194 2.336672 -12.105009
v 5.915196 4.089378 -11.033442
v 5.915194 4.089378 -12.105009
v 6.161773 4.886237 -12.782632
v 6.161774 4.886237 -10.355824
v 6.161773 4.802258 -12.782632
v 6.161774 4.802258 -10.355824
v 6.072514 4.697866 -12.782632
v 6.072515 4.697866 -10.355824
v 5.915194 4.697866 -12.782632
v 5.915196 4.697866 -10.355824
v 5.750789 4.089378 -11.033443
v 5.750789 4.089378 -12.105013
v 5.750789 2.336672 -11.033443
v 5.750789 2.336672 -12.105013
v 5.915195 -4.382268 -8.644453
v 5.915195 -2.564825 -8.644453
v 5.915196 -2.564825 -9.640386
v 5.915196 -4.382268 -9.640386
v 5.915196 -5.161345 -9.640386
v 5.915195 -5.161345 -8.644453
v 5.750792 -4.382268 -8.644453
v 5.750792 -2.564825 -8.644453
v 5.750791 -2.564825 -9.640386
v 5.750791 -4.382268 -9.640386
v 5.915195 0.740184 -8.606636
v 5.915196 0.740184 -9.678203
v 5.915195 -1.012522 -8.606636
v 5.915196 -1.012522 -9.678203
v 5.750792 0.740184 -8.606636
v 5.750791 0.740184 -9.678203
v 5.750792 -1.012522 -8.606636
v 5.750791 -1.012522 -9.678203
v 5.915196 2.336672 -9.678203
v 5.915195 2.336672 -8.606636
v 5.915196 4.089378 -9.678203
v 5.915195 4.089378 -8.606636
v 5.750792 4.089378 -8.606636
v 5.750791 4.089378 -9.678203
v 5.750792 2.336672 -8.606636
v 5.750791 2.336672 -9.678203
v 5.915198 -1.812151 -5.502210
v 5.915195 -1.812151 -7.929017
v 5.915198 1.348673 -5.502210
v 5.915195 1.348673 -7.929017
v 6.072516 1.348673 -5.502210
v 6.072515 1.348673 -7.929017
v 5.915198 1.537043 -5.502210
v 5.915195 1.537043 -7.929019
v 6.161775 1.453064 -5.502210
v 6.161775 1.453064 -7.929017
v 6.161775 1.537043 -5.502210
v 6.161775 1.537043 -7.929019
v 5.915198 -5.161345 -5.502210
v 5.915195 -5.161345 -7.929017
v 5.915198 -2.000521 -5.502210
v 5.915195 -2.000521 -7.929017
v 6.072516 -2.000521 -5.502210
v 6.072515 -2.000521 -7.929017
v 6.161775 -1.896129 -5.502210
v 6.161775 -1.896129 -7.929017
v 6.172844 -1.812151 -5.502210
v 6.172842 -1.812151 -7.929019
v 5.915198 -4.382268 -5.502210
v 5.915195 -4.382268 -7.929017
v 5.915197 -4.382268 -7.723916
v 5.915197 -2.564825 -7.723916
v 5.915198 -2.564825 -5.707311
v 5.915198 -4.382268 -5.707311
v 5.915198 -5.161345 -5.707311
v 5.915197 -5.161345 -7.723916
v 5.915197 0.740184 -7.251397
v 5.915198 0.740184 -6.179829
v 5.915197 -1.012522 -7.251397
v 5.915198 -1.012522 -6.179829
v 5.750790 -1.012522 -7.251397
v 5.750791 -1.012522 -6.179829
v 5.750790 0.740184 -7.251397
v 5.750791 0.740184 -6.179829
v 5.915198 2.336672 -6.179829
v 5.915197 2.336672 -7.251397
v 5.915198 4.089378 -6.179829
v 5.915197 4.089378 -7.251397
v 6.161775 4.886237 -7.929019
v 6.161775 4.886237 -5.502210
v 6.161775 4.802258 -7.929017
v 6.161775 4.802258 -5.502210
v 6.072515 4.697866 -7.929017
v 6.072516 4.697866 -5.502210
v 5.915195 4.697866 -7.929017
v 5.915198 4.697866 -5.502210
v 5.750791 4.089378 -6.179829
v 5.750790 4.089378 -7.251397
v 5.750791 2.336672 -6.179829
v 5.750790 2.336672 -7.251397
v 5.915198 -4.382268 -3.790842
v 5.915198 -2.564825 -3.790842
v 5.915198 -2.564825 -4.786773
v 5.915198 -4.382268 -4.786773
v 5.915198 -5.161345 -4.786771
v 5.915198 -5.161345 -3.790842
v 5.750793 -4.382268 -3.790842
v 5.750793 -2.564825 -3.790842
v 5.750793 -2.564825 -4.786773
v 5.750793 -4.382268 -4.786773
v 5.915198 0.740184 -3.753024
v 5.915198 0.740184 -4.824591
v 5.915198 -1.012522 -3.753024
v 5.915198 -1.012522 -4.824591
v 5.750793 0.740184 -3.753024
v 5.750793 0.740184 -4.824592
v 5.750793 -1.012522 -3.753024
v 5.750793 -1.012522 -4.824592
v 5.915198 2.336672 -4.824591
v 5.915198 2.336672 -3.753024
v 5.915198 4.089378 -4.824591
v 5.915198 4.089378 -3.753024
v 5.750793 4.089378 -3.753024
v 5.750793 4.089378 -4.824592
v 5.750793 2.336672 -3.753024
v 5.750793 2.336672 -4.824592
v 5.915200 -1.812151 -0.648598
v 5.915199 -1.812151 -3.075404
v 5.915200 1.348673 -0.648598
v 5.915199 1.348673 -3.075404
v 6.072518 1.348673 -0.648598
v 6.072517 1.348673 -3.075404
v 5.915200 1.537043 -0.648598
v 5.915199 1.537043 -3.075404
v 6.161777 1.453064 -0.648598
v 6.161776 1.453064 -3.075404
v 6.161777 1.537043 -0.648598
v 6.161776 1.537043 -3.075404
v 5.915200 -5.161345 -0.648598
v 5.915199 -5.161345 -3.075404
v 5.915200 -2.000521 -0.648598
v 5.915199 -2.000521 -3.075404
v 6.072518 -2.000521 -0.648598
v 6.072517 -2.000521 -3.075404
v 6.161777 -1.896129 -0.648598
v 6.161776 -1.896129 -3.075404
v 6.172846 -1.812151 -0.648598
v 6.172845 -1.812151 -3.075404
v 5.915200 -4.382268 -0.648598
v 5.915199 -4.382268 -3.075404
v 5.915199 -4.382268 -2.359966
v 5.915199 -2.564825 -2.359966
v 5.915199 -2.564825 -1.364036
v 5.915199 -4.382268 -1.364036
v 5.915199 -5.161345 -1.364036
v 5.915199 -5.161345 -2.359966
v 5.750793 -4.382268 -2.359966
v 5.750793 -2.564825 -2.359966
v 5.750794 -2.564825 -1.364036
v 5.750794 -4.382268 -1.364036
v 5.915199 0.740184 -2.397784
v 5.915199 0.740184 -1.326216
v 5.915199 -1.012522 -2.397784
v 5.915199 -1.012522 -1.326216
v 5.750793 -1.012522 -2.397786
v 5.750792 -1.012522 -1.326218
v 5.750793 0.740184 -2.397786
v 5.750792 0.740184 -1.326218
v 5.915199 2.336672 -1.326216
v 5.915199 2.336672 -2.397784
v 5.915199 4.089378 -1.326216
v 5.915199 4.089378 -2.397784
v 6.161776 4.886237 -3.075404
v 6.161777 4.886237 -0.648598
v 6.161776 4.802258 -3.075404
v 6.161777 4.802258 -0.648598
v 6.072517 4.697866 -3.075404
v 6.072518 4.697866 -0.648598
v 5.915199 4.697866 -3.075404
v 5.915200 4.697866 -0.648598
v 5.750792 4.089378 -1.326218
v 5.750793 4.089378 -2.397786
v 5.750792 2.336672 -1.326218
v 5.750793 2.336672 -2.397786
v 5.915200 -4.382268 1.062772
v 5.915200 -2.564825 1.062772
v 5.915200 -2.564825 0.066840
v 5.915200 -4.382268 0.066840
v 5.915200 -5.161345 0.066840
v 5.915200 -5.161345 1.062772
v 5.750795 -4.382268 1.062772
v 5.750795 -2.564825 1.062772
v 5.750794 -2.564825 0.066840
v 5.750794 -4.382268 0.066840
v 5.915200 0.740184 1.100589
v 5.915200 0.740184 0.029023
v 5.915200 -1.012522 1.100589
v 5.915200 -1.012522 0.029023
v 5.750795 0.740184 1.100589
v 5.750794 0.740184 0.029023
v 5.750795 -1.012522 1.100589
v 5.750794 -1.012522 0.029023
v 5.915200 2.336672 0.029023
v 5.915200 2.336672 1.100589
v 5.915200 4.089378 0.029023
v 5.915200 4.089378 1.100589
v 5.750795 4.089378 1.100589
v 5.750794 4.089378 0.029023
v 5.750795 2.336672 1.100589
v 5.750794 2.336672 0.029023
v 5.915200 -1.812151 1.778210
v 5.915200 1.348673 1.778210
v 6.072519 1.348673 4.205017
v 6.072518 1.348673 1.778210
v 5.915200 1.537043 1.778210
v 6.161780 1.453064 4.205017
v 6.161777 1.453064 1.778210
v 6.161780 1.537043 4.205017
v 6.161777 1.537043 1.778210
v 5.915200 -5.161345 1.778210
v 5.915200 -2.000521 1.778210
v 6.072519 -2.000521 4.205017
v 6.072518 -2.000521 1.778210
v 6.161780 -1.896129 4.205017
v 6.161777 -1.896129 1.778210
v 6.172848 -1.812151 4.205017
v 6.172847 -1.812151 1.778210
v 5.915200 -4.382268 1.778210
v 5.915201 -4.382268 2.493646
v 5.915201 -2.564825 2.493646
v 5.915201 -2.564825 3.489578
v 5.915201 -4.382268 3.489578
v 5.915201 -5.161345 3.489577
v 5.915201 -5.161345 2.493646
v 5.750795 -4.382268 2.493646
v 5.750795 -2.564825 2.493646
v 5.750795 -2.564825 3.489578
v 5.750795 -4.382268 3.489578
v 5.915201 0.740184 2.455829
v 5.915201 0.740184 3.527396
v 5.915201 -1.012522 2.455829
v 5.915201 -1.012522 3.527396
v 5.750795 -1.012522 2.455829
v 5.750793 -1.012522 3.527394
v 5.750795 0.740184 2.455829
v 5.750793 0.740184 3.527394
v 5.915201 2.336672 3.527396
v 5.915201 2.336672 2.455829
v 5.915201 4.089378 3.527396
v 5.915201 4.089378 2.455829
v 6.161777 4.886237 1.778210
v 6.161780 4.886237 4.205017
v 6.161777 4.802258 1.778210
v 6.161780 4.802258 4.205017
v 6.072518 4.697866 1.778210
v 6.072519 4.697866 4.205017
v 5.915200 4.697866 1.778210
v 5.750793 4.089378 3.527394
v 5.750795 4.089378 2.455829
v 5.750793 2.336672 3.527394
v 5.750795 2.336672 2.455829
v 5.915202 1.537043 4.205016
v 5.915202 1.348673 4.205016
v 5.915202 -1.812151 4.205016
v 2.420157 7.580395 -0.648596
v 2.420156 7.580395 -3.075404
v 2.420157 7.580395 -5.502211
v 2.420157 7.580395 -7.929018
v 2.420158 7.580395 -10.355825
v 2.420157 7.580395 -12.782631
v 2.420156 7.580395 -15.209439
v 5.915187 4.886237 -15.209440
v 5.833294 -1.812151 -15.209440
v 5.833294 1.348673 -15.209440
v 5.833294 1.537043 -15.209440
v 5.833294 -2.000521 -15.209440
v 5.833294 -4.382268 -15.209440
v 5.833294 4.886237 -15.209440
v 5.833294 4.697866 -15.209440
v 2.420145 4.697866 -15.209439
v 2.420145 1.348673 -15.209439
v 5.815241 -5.161345 -15.209440
v 2.420145 -5.161345 -15.209439
v 2.420145 -2.000521 -15.209439
v 2.420145 7.359966 -15.209439
v 5.733996 -4.382268 -7.723916
v 5.733996 -2.564825 -7.723916
v 5.733996 -2.564825 -5.707311
v 5.733996 -4.382268 -5.707311
v 5.733996 -5.161345 -5.707311
v 5.733996 -5.161345 -7.723916
v 5.915202 -4.382268 4.205016
v 4.705083 -4.382268 5.415136
v 4.705083 -2.564825 5.415136
v 5.409312 -2.564825 4.710907
v 5.409312 -4.382268 4.710907
v 5.409312 -5.161345 4.710907
v 4.705083 -5.161345 5.415136
v 4.588830 -4.382268 5.298884
v 4.588830 -2.564825 5.298884
v 5.293060 -2.564825 4.594655
v 5.293060 -4.382268 4.594655
v 4.678341 0.740184 5.441877
v 5.436052 0.740184 4.684166
v 4.678341 -1.012522 5.441877
v 5.436052 -1.012522 4.684166
v 4.562089 0.740184 5.325625
v 5.319802 0.740184 4.567913
v 4.562089 -1.012522 5.325625
v 5.319802 -1.012522 4.567913
v 5.436052 2.336672 4.684166
v 4.678341 2.336672 5.441877
v 5.436052 4.089378 4.684166
v 4.678341 4.089378 5.441877
v 5.915202 4.697867 4.205016
v 4.562089 4.089378 5.325625
v 5.319802 4.089378 4.567913
v 4.562089 2.336672 5.325625
v 5.319802 2.336672 4.567913
v -12.788463 4.697865 2.425989
v -10.361664 4.697865 2.425989
v -7.934851 4.697865 2.425989
v -5.508037 4.697865 2.425989
v -3.081231 4.697865 2.425989
v -0.654425 4.697865 2.425989
v 2.415351 4.697865 2.425989
v 2.420134 4.697869 -10.355825
v 2.420135 4.697869 -7.929015
v 2.420136 4.697869 -5.502209
v 2.420137 4.697869 -3.075395
v 2.420137 4.697869 -0.648595
v 2.415351 -2.000525 2.425979
v -0.654433 -2.000525 2.425982
v -3.081239 -2.000525 2.425986
v -5.508052 -2.000525 2.425989
v -7.934866 -2.000525 2.425992
v -10.361664 -2.000525 2.425995
v -12.788478 -2.000525 2.425999
v 2.415351 1.348669 2.425979
v -0.654433 1.348669 2.425982
v -3.081239 1.348669 2.425986
v -5.508052 1.348669 2.425989
v -7.934866 1.348669 2.425992
v -10.361664 1.348669 2.425995
v -12.788478 1.348669 2.425999
v 2.420134 4.697869 -12.782631
v 2.420130 -2.000522 -12.782623
v 2.420130 -2.000522 -10.355817
v 2.420135 -2.000522 -7.929007
v 2.420140 -2.000522 -5.502194
v 2.420141 -2.000522 -3.075388
v 2.420145 -2.000522 -0.648581
v 2.420130 1.348672 -12.782623
v 2.420130 1.348672 -10.355817
v 2.420135 1.348672 -7.929007
v 2.420140 1.348672 -5.502194
v 2.420141 1.348672 -3.075388
v 2.420145 1.348672 -0.648581
v 2.415351 -5.161348 2.425979
v -0.654433 -5.161348 2.425982
v -3.081239 -5.161348 2.425986
v -5.508052 -5.161348 2.425989
v -7.934866 -5.161348 2.425992
v -10.361664 -5.161348 2.425995
v -12.788478 -5.161348 2.425999
v 2.420130 -5.161345 -12.782623
v 2.420130 -5.161345 -10.355817
v 2.420135 -5.161345 -7.929007
v 2.420140 -5.161345 -5.502194
v 2.420141 -5.161345 -3.075388
v 2.420145 -5.161345 -0.648581
vn -0.0000 -1.0000 -0.0000
vn -0.0000 -0.6499 0.7600
vn -0.0000 -0.0000 1.0000
vn -0.0000 1.0000 -0.0000
vn 1.0000 -0.0000 -0.0000
vn -0.0000 -0.1307 0.9914
vn -1.0000 -0.0000 -0.0000
vn -0.0000 0.8115 0.5843
vn 0.7071 -0.0000 0.7071
vn -0.7071 -0.0000 0.7071
vn 0.7041 -0.0928 0.7041
vn 0.7600 -0.6499 -0.0000
vn -0.0000 -0.0000 -1.0000
vn 0.9914 -0.1307 -0.0000
vn 0.6051 -0.5174 0.6051
vn 0.7071 -0.0000 -0.7071
vn 0.5843 0.8115 -0.0000
vn 0.0001 -0.0000 -1.0000
vn 0.4016 0.8230 0.4016
vn -1.0000 -0.0000 -0.0016
vn -1.0000 0.0008 -0.0008
vt 0.223585 0.259319
vt 0.223585 0.316881
vt 0.459598 0.316881
vt 0.459598 0.259319
vt 0.223585 0.349541
vt 0.459598 0.349541
vt 0.459598 0.340441
vt 0.223585 0.340441
vt 0.223585 0.348647
vt 0.459598 0.348647
vt 0.594535 0.538416
vt 0.761992 0.538416
vt 0.761992 0.549003
vt 0.594535 0.549003
vt 0.394490 0.270789
vt 0.394490 0.099541
vt 0.394490 0.099541
vt 0.394490 0.270789
vt 0.899860 0.801300
vt 0.991755 0.801300
vt 0.991755 0.643633
vt 0.899860 0.643633
vt 0.293487 0.097533
vt 0.293487 0.275106
vt 0.390795 0.275106
vt 0.223585 0.330242
vt 0.459598 0.330242
vt 0.390795 0.097533
vt 0.459598 0.097533
vt 0.223585 0.097533
vt 0.985995 0.643361
vt 0.904888 0.643361
vt 0.904888 0.801347
vt 0.985995 0.801347
vt 0.904500 0.801347
vt 0.985607 0.801347
vt 0.985608 0.643361
vt 0.904500 0.643361
vt 0.993838 0.980168
vt 0.993838 0.815012
vt 0.903335 0.815012
vt 0.903335 0.980168
vt 0.390795 0.275106
vt 0.390795 0.097533
vt 0.995686 0.801300
vt 0.895928 0.801300
vt 0.289792 0.270789
vt 0.289792 0.099541
vt 0.459598 0.021413
vt 0.223585 0.021413
vt 0.289792 0.099541
vt 0.289792 0.270789
vt 0.394490 0.099541
vt 0.394490 0.270789
vt 0.459598 0.330906
vt 0.223585 0.330906
vt 0.223585 0.339111
vt 0.459598 0.339111
vt 0.964333 0.801356
vt 0.964333 0.643310
vt 0.931925 0.643310
vt 0.931925 0.801356
vt 0.209654 0.079231
vt 0.257126 0.079231
vt 0.257126 0.052698
vt 0.209654 0.052698
vt 0.440658 0.275106
vt 0.243625 0.275106
vt 0.440658 0.097533
vt 0.440658 0.275106
vt 0.243625 0.275106
vt 0.243625 0.097533
vt 0.962744 0.801347
vt 0.962744 0.643361
vt 0.927752 0.643361
vt 0.927752 0.801347
vt 0.439941 0.636193
vt 0.019178 0.636370
vt 0.020403 0.629986
vt 0.402359 0.628984
vt 0.413199 0.631063
vt 0.000000 0.000000
vt 0.274449 0.746888
vt 0.274449 0.964603
vt 0.024511 0.964603
vt 0.024511 0.733913
vt 0.274449 0.977578
vt 0.274449 0.800550
vt 0.024511 0.746888
vt 0.024511 0.917277
vt 0.024511 0.733914
vt 0.348933 0.647051
vt 0.554961 0.647051
vt 0.554961 0.995247
vt 0.348933 0.995247
vt 0.301231 0.647051
vt 0.550207 0.647051
vt 0.550207 0.995247
vt 0.353687 0.995247
vt 0.471506 0.639280
vt 0.553089 0.995218
vt 0.350805 0.995218
vt 0.582056 0.545879
vt 0.213661 0.342814
vt 0.213112 0.346940
vt 0.622784 0.741457
vt 0.622784 0.949137
vt 0.866474 0.949137
vt 0.866474 0.741457
vt 0.866474 0.652431
vt 0.622784 0.652431
vt 0.459528 0.097631
vt 0.459528 0.275280
vt 0.440779 0.275280
vt 0.440779 0.097631
vt 0.223613 0.275280
vt 0.223613 0.097631
vt 0.243598 0.097631
vt 0.243598 0.275280
vt 0.371643 0.328962
vt 0.412083 0.341592
vt 0.417098 0.351751
vt 0.300369 0.351751
vt 0.300369 0.328962
vt 0.300369 0.328953
vt 0.371643 0.328953
vt 0.412083 0.341582
vt 0.412083 0.351742
vt 0.300369 0.351742
vt 0.412083 0.351745
vt 0.300369 0.351745
vt 0.300369 0.328956
vt 0.371643 0.328956
vt 0.412083 0.341586
vt 0.210840 0.310890
vt 0.204669 0.353924
vt 0.212764 0.299949
vt 0.582588 0.545880
vt 0.201490 0.343887
vt 0.201504 0.348647
vt 0.210840 0.310890
vt 0.204669 0.334237
vt 0.438229 0.647911
vt 0.353687 0.647051
vt 0.602663 0.647051
vt 0.024511 0.733913
vt 0.024511 0.733914
vt 0.371643 0.328962
vt 0.300369 0.328962
vt 0.300369 0.351751
vt 0.412083 0.341592
vt 0.300369 0.328953
vt 0.300369 0.351742
vt 0.412083 0.351742
vt 0.412083 0.341582
vt 0.371643 0.328953
vt 0.412083 0.351745
vt 0.412083 0.341586
vt 0.371643 0.328956
vt 0.300369 0.328956
vt 0.300366 0.351745
vt 0.201490 0.334351
vt 0.201504 0.339111
vt 0.210840 0.310890
vt 0.204669 0.334237
vt 0.273547 0.733913
vt 0.048753 0.733914
vt 0.048753 0.964603
vt 0.273547 0.964603
vt 0.274449 0.733913
vt 0.096739 0.733914
vt 0.096739 0.964603
vt 0.273547 0.733913
vt 0.273547 0.964603
vt 0.273547 0.733913
vt 0.048753 0.932459
vt 0.273547 0.932459
vt 0.096739 0.932459
vt 0.274449 0.932460
vt 0.096739 0.917277
vt 0.049655 0.733914
vt 0.049655 0.964603
vt 0.049655 0.733914
vt 0.049655 0.964603
vt 0.274449 0.917277
vt 0.049655 0.733914
vt 0.049655 0.932460
s 0
usemtl Material.001
f 2/1/1 3/2/1 48/3/1 46/4/1
f 48/3/2 3/2/2 5/5/2 52/6/2
f 52/7/3 5/8/3 6/9/3 54/10/3
f 4/11/4 50/12/4 54/13/4 6/14/4
f 23/15/5 25/16/5 29/17/5 27/18/5
f 8/1/1 9/2/1 60/3/1 58/4/1
f 60/3/2 9/2/2 10/5/2 62/6/2
f 62/7/6 10/8/6 11/9/6 64/10/6
f 1/11/4 44/12/4 64/13/4 11/14/4
f 16/19/3 13/20/3 18/21/3 17/22/3
f 16/23/7 15/24/7 21/24/7 22/23/7
f 14/25/3 15/24/3 8/26/3 58/27/3
f 13/28/3 14/25/3 58/27/3 66/29/3
f 15/24/3 16/23/3 12/30/3 8/26/3
f 56/31/3 18/32/3 13/33/3 66/34/3
f 12/35/3 16/36/3 17/37/3 7/38/3
f 20/39/3 19/40/3 22/41/3 21/42/3
f 15/24/1 14/25/1 20/43/1 21/24/1
f 14/25/5 13/28/5 19/44/5 20/43/5
f 13/45/4 16/46/4 22/46/4 19/45/4
f 23/15/3 24/47/3 2/26/3 46/27/3
f 26/48/3 25/16/3 44/49/3 1/50/3
f 24/47/3 26/48/3 1/50/3 2/26/3
f 25/16/3 23/15/3 46/27/3 44/49/3
f 27/18/3 29/17/3 30/51/3 28/52/3
f 24/47/1 23/15/1 27/18/1 28/52/1
f 26/48/7 24/47/7 28/52/7 30/51/7
f 25/16/4 26/48/4 30/51/4 29/17/4
f 31/48/3 32/53/3 50/49/3 4/50/3
f 34/54/3 33/47/3 38/26/3 95/27/3
f 34/54/5 32/53/5 41/17/5 39/18/5
f 91/55/3 36/56/3 35/57/3 89/58/3
f 93/3/2 37/2/2 36/5/2 91/6/2
f 38/1/1 37/2/1 93/3/1 95/4/1
f 33/47/3 31/48/3 4/50/3 38/26/3
f 32/53/3 34/54/3 95/27/3 50/49/3
f 39/18/3 41/17/3 42/51/3 40/52/3
f 33/47/1 34/54/1 39/18/1 40/52/1
f 31/48/7 33/47/7 40/52/7 42/51/7
f 32/53/4 31/48/4 42/51/4 41/17/4
f 45/1/1 46/4/1 48/3/1 47/2/1
f 48/3/2 52/6/2 51/5/2 47/2/2
f 52/7/3 54/10/3 53/9/3 51/8/3
f 49/11/4 53/14/4 54/13/4 50/12/4
f 85/53/4 86/48/4 100/51/4 99/17/4
f 57/1/1 58/4/1 60/3/1 59/2/1
f 60/3/2 62/6/2 61/5/2 59/2/2
f 62/7/6 64/10/6 63/9/6 61/8/6
f 43/11/4 63/14/4 64/13/4 44/12/4
f 70/19/3 71/22/3 72/21/3 67/20/3
f 70/23/5 76/23/5 75/24/5 69/24/5
f 68/25/3 58/27/3 57/26/3 69/24/3
f 67/28/3 66/29/3 58/27/3 68/25/3
f 69/24/3 57/26/3 65/30/3 70/23/3
f 56/31/3 66/34/3 67/33/3 72/32/3
f 65/35/3 55/38/3 71/37/3 70/36/3
f 74/39/3 75/42/3 76/41/3 73/40/3
f 69/24/1 75/24/1 74/43/1 68/25/1
f 68/25/7 74/43/7 73/44/7 67/28/7
f 67/45/4 73/45/4 76/46/4 70/46/4
f 77/15/3 46/27/3 45/26/3 78/47/3
f 80/48/3 43/50/3 44/49/3 79/16/3
f 78/47/3 45/26/3 43/50/3 80/48/3
f 79/16/3 44/49/3 46/27/3 77/15/3
f 86/48/7 88/47/7 98/52/7 100/51/7
f 88/47/1 87/54/1 97/18/1 98/52/1
f 97/18/3 99/17/3 100/51/3 98/52/3
f 87/54/5 85/53/5 99/17/5 97/18/5
f 85/48/3 49/50/3 50/49/3 86/53/3
f 88/54/3 95/27/3 96/26/3 87/47/3
f 80/16/4 79/48/4 81/51/4 82/17/4
f 91/55/3 89/58/3 90/57/3 92/56/3
f 93/3/2 91/6/2 92/5/2 94/2/2
f 96/1/1 95/4/1 93/3/1 94/2/1
f 87/47/3 96/26/3 49/50/3 85/48/3
f 86/53/3 50/49/3 95/27/3 88/54/3
f 79/48/7 77/47/7 83/52/7 81/51/7
f 77/47/1 78/15/1 84/18/1 83/52/1
f 84/18/3 82/17/3 81/51/3 83/52/3
f 78/15/5 80/16/5 82/17/5 84/18/5
f 45/1/1 47/2/1 132/3/1 130/4/1
f 132/3/2 47/2/2 51/5/2 136/6/2
f 136/7/3 51/8/3 53/9/3 138/10/3
f 49/11/4 134/12/4 138/13/4 53/14/4
f 111/15/5 113/16/5 117/17/5 115/18/5
f 57/1/1 59/2/1 144/3/1 142/4/1
f 144/3/2 59/2/2 61/5/2 146/6/2
f 146/7/6 61/8/6 63/9/6 148/10/6
f 43/11/4 128/12/4 148/13/4 63/14/4
f 104/19/3 101/20/3 106/21/3 105/22/3
f 104/23/7 103/24/7 109/24/7 110/23/7
f 102/25/3 103/24/3 57/26/3 142/27/3
f 101/28/3 102/25/3 142/27/3 150/29/3
f 103/24/3 104/23/3 65/30/3 57/26/3
f 140/31/3 106/32/3 101/33/3 150/34/3
f 65/35/3 104/36/3 105/37/3 55/38/3
f 108/39/3 107/40/3 110/41/3 109/42/3
f 103/24/1 102/25/1 108/43/1 109/24/1
f 102/25/5 101/28/5 107/44/5 108/43/5
f 101/45/4 104/46/4 110/46/4 107/45/4
f 111/15/3 112/47/3 45/26/3 130/27/3
f 114/48/3 113/16/3 128/49/3 43/50/3
f 112/47/3 114/48/3 43/50/3 45/26/3
f 113/16/3 111/15/3 130/27/3 128/49/3
f 115/18/3 117/17/3 118/51/3 116/52/3
f 112/47/1 111/15/1 115/18/1 116/52/1
f 114/48/7 112/47/7 116/52/7 118/51/7
f 113/16/4 114/48/4 118/51/4 117/17/4
f 119/48/3 120/53/3 134/49/3 49/50/3
f 122/54/3 121/47/3 96/26/3 175/27/3
f 122/54/5 120/53/5 125/17/5 123/18/5
f 171/55/3 92/56/3 90/57/3 169/58/3
f 173/3/2 94/2/2 92/5/2 171/6/2
f 96/1/1 94/2/1 173/3/1 175/4/1
f 121/47/3 119/48/3 49/50/3 96/26/3
f 120/53/3 122/54/3 175/27/3 134/49/3
f 123/18/3 125/17/3 126/51/3 124/52/3
f 121/47/1 122/54/1 123/18/1 124/52/1
f 119/48/7 121/47/7 124/52/7 126/51/7
f 120/53/4 119/48/4 126/51/4 125/17/4
f 129/1/1 130/4/1 132/3/1 131/2/1
f 132/3/2 136/6/2 135/5/2 131/2/2
f 136/7/3 138/10/3 137/9/3 135/8/3
f 133/11/4 137/14/4 138/13/4 134/12/4
f 165/53/4 166/48/4 180/51/4 179/17/4
f 141/1/1 142/4/1 144/3/1 143/2/1
f 144/3/2 146/6/2 145/5/2 143/2/2
f 146/7/6 148/10/6 147/9/6 145/8/6
f 127/11/4 147/14/4 148/13/4 128/12/4
f 154/59/5 155/60/5 377/61/5 376/62/5
f 152/63/1 153/64/1 375/65/1 374/66/1
f 152/67/3 142/27/3 141/26/3 153/68/3
f 151/69/3 150/29/3 142/27/3 152/70/3
f 153/71/3 141/26/3 149/30/3 154/72/3
f 140/31/3 150/34/3 151/73/3 156/74/3
f 149/35/3 139/38/3 155/75/3 154/76/3
f 157/15/3 130/27/3 129/26/3 158/47/3
f 160/48/3 127/50/3 128/49/3 159/16/3
f 158/47/3 129/26/3 127/50/3 160/48/3
f 159/16/3 128/49/3 130/27/3 157/15/3
f 166/48/7 168/47/7 178/52/7 180/51/7
f 168/47/1 167/54/1 177/18/1 178/52/1
f 177/18/3 179/17/3 180/51/3 178/52/3
f 167/54/5 165/53/5 179/17/5 177/18/5
f 165/48/3 133/50/3 134/49/3 166/53/3
f 168/54/3 175/27/3 176/26/3 167/47/3
f 160/16/4 159/48/4 161/51/4 162/17/4
f 171/55/3 169/58/3 170/57/3 172/56/3
f 173/3/2 171/6/2 172/5/2 174/2/2
f 176/1/1 175/4/1 173/3/1 174/2/1
f 167/47/3 176/26/3 133/50/3 165/48/3
f 166/53/3 134/49/3 175/27/3 168/54/3
f 159/48/7 157/47/7 163/52/7 161/51/7
f 157/47/1 158/15/1 164/18/1 163/52/1
f 164/18/3 162/17/3 161/51/3 163/52/3
f 158/15/5 160/16/5 162/17/5 164/18/5
f 129/1/1 131/2/1 212/3/1 210/4/1
f 212/3/2 131/2/2 135/5/2 216/6/2
f 216/7/3 135/8/3 137/9/3 218/10/3
f 133/11/4 214/12/4 218/13/4 137/14/4
f 191/15/5 193/16/5 197/17/5 195/18/5
f 141/1/1 143/2/1 224/3/1 222/4/1
f 224/3/2 143/2/2 145/5/2 226/6/2
f 226/7/6 145/8/6 147/9/6 228/10/6
f 127/11/4 208/12/4 228/13/4 147/14/4
f 184/19/3 181/20/3 186/21/3 185/22/3
f 184/23/7 183/24/7 189/24/7 190/23/7
f 182/25/3 183/24/3 141/26/3 222/27/3
f 181/28/3 182/25/3 222/27/3 230/29/3
f 183/24/3 184/23/3 149/30/3 141/26/3
f 220/31/3 186/32/3 181/33/3 230/34/3
f 149/35/3 184/36/3 185/37/3 139/38/3
f 188/39/3 187/40/3 190/41/3 189/42/3
f 183/24/1 182/25/1 188/43/1 189/24/1
f 182/25/5 181/28/5 187/44/5 188/43/5
f 181/45/4 184/46/4 190/46/4 187/45/4
f 191/15/3 192/47/3 129/26/3 210/27/3
f 194/48/3 193/16/3 208/49/3 127/50/3
f 192/47/3 194/48/3 127/50/3 129/26/3
f 193/16/3 191/15/3 210/27/3 208/49/3
f 195/18/3 197/17/3 198/51/3 196/52/3
f 192/47/1 191/15/1 195/18/1 196/52/1
f 194/48/7 192/47/7 196/52/7 198/51/7
f 193/16/4 194/48/4 198/51/4 197/17/4
f 199/48/3 200/53/3 214/49/3 133/50/3
f 202/54/3 201/47/3 176/26/3 259/27/3
f 202/54/5 200/53/5 205/17/5 203/18/5
f 255/55/3 172/56/3 170/57/3 253/58/3
f 257/3/2 174/2/2 172/5/2 255/6/2
f 176/1/1 174/2/1 257/3/1 259/4/1
f 201/47/3 199/48/3 133/50/3 176/26/3
f 200/53/3 202/54/3 259/27/3 214/49/3
f 203/18/3 205/17/3 206/51/3 204/52/3
f 201/47/1 202/54/1 203/18/1 204/52/1
f 199/48/7 201/47/7 204/52/7 206/51/7
f 200/53/4 199/48/4 206/51/4 205/17/4
f 209/1/1 210/4/1 212/3/1 211/2/1
f 212/3/2 216/6/2 215/5/2 211/2/2
f 216/7/3 218/10/3 217/9/3 215/8/3
f 213/11/4 217/14/4 218/13/4 214/12/4
f 249/53/4 250/48/4 264/51/4 263/17/4
f 221/1/1 222/4/1 224/3/1 223/2/1
f 224/3/2 226/6/2 225/5/2 223/2/2
f 226/7/6 228/10/6 227/9/6 225/8/6
f 207/11/4 227/14/4 228/13/4 208/12/4
f 234/19/3 235/22/3 236/21/3 231/20/3
f 234/23/5 240/23/5 239/24/5 233/24/5
f 232/25/3 222/27/3 221/26/3 233/24/3
f 231/28/3 230/29/3 222/27/3 232/25/3
f 233/24/3 221/26/3 229/30/3 234/23/3
f 220/31/3 230/34/3 231/33/3 236/32/3
f 229/35/3 219/38/3 235/37/3 234/36/3
f 238/39/3 239/42/3 240/41/3 237/40/3
f 233/24/1 239/24/1 238/43/1 232/25/1
f 232/25/7 238/43/7 237/44/7 231/28/7
f 231/45/4 237/45/4 240/46/4 234/46/4
f 241/15/3 210/27/3 209/26/3 242/47/3
f 244/48/3 207/50/3 208/49/3 243/16/3
f 242/47/3 209/26/3 207/50/3 244/48/3
f 243/16/3 208/49/3 210/27/3 241/15/3
f 250/48/7 252/47/7 262/52/7 264/51/7
f 252/47/1 251/54/1 261/18/1 262/52/1
f 261/18/3 263/17/3 264/51/3 262/52/3
f 251/54/5 249/53/5 263/17/5 261/18/5
f 249/48/3 213/50/3 214/49/3 250/53/3
f 252/54/3 259/27/3 260/26/3 251/47/3
f 244/16/4 243/48/4 245/51/4 246/17/4
f 255/55/3 253/58/3 254/57/3 256/56/3
f 257/3/2 255/6/2 256/5/2 258/2/2
f 260/1/1 259/4/1 257/3/1 258/2/1
f 251/47/3 260/26/3 213/50/3 249/48/3
f 250/53/3 214/49/3 259/27/3 252/54/3
f 243/48/7 241/47/7 247/52/7 245/51/7
f 241/47/1 242/15/1 248/18/1 247/52/1
f 248/18/3 246/17/3 245/51/3 247/52/3
f 242/15/5 244/16/5 246/17/5 248/18/5
f 209/1/1 211/2/1 296/3/1 294/4/1
f 296/3/2 211/2/2 215/5/2 300/6/2
f 300/7/3 215/8/3 217/9/3 302/10/3
f 213/11/4 298/12/4 302/13/4 217/14/4
f 275/15/5 277/16/5 281/17/5 279/18/5
f 221/1/1 223/2/1 308/3/1 306/4/1
f 308/3/2 223/2/2 225/5/2 310/6/2
f 310/7/6 225/8/6 227/9/6 312/10/6
f 207/11/4 292/12/4 312/13/4 227/14/4
f 268/19/3 265/20/3 270/21/3 269/22/3
f 268/23/7 267/24/7 273/24/7 274/23/7
f 266/25/3 267/24/3 221/26/3 306/27/3
f 265/28/3 266/25/3 306/27/3 314/29/3
f 267/24/3 268/23/3 229/30/3 221/26/3
f 304/31/3 270/32/3 265/33/3 314/34/3
f 229/35/3 268/36/3 269/37/3 219/38/3
f 272/39/3 271/40/3 274/41/3 273/42/3
f 267/24/1 266/25/1 272/43/1 273/24/1
f 266/25/5 265/28/5 271/44/5 272/43/5
f 265/45/4 268/46/4 274/46/4 271/45/4
f 275/15/3 276/47/3 209/26/3 294/27/3
f 278/48/3 277/16/3 292/49/3 207/50/3
f 276/47/3 278/48/3 207/50/3 209/26/3
f 277/16/3 275/15/3 294/27/3 292/49/3
f 279/18/3 281/17/3 282/51/3 280/52/3
f 276/47/1 275/15/1 279/18/1 280/52/1
f 278/48/7 276/47/7 280/52/7 282/51/7
f 277/16/4 278/48/4 282/51/4 281/17/4
f 283/48/3 284/53/3 298/49/3 213/50/3
f 286/54/3 285/47/3 260/26/3 344/27/3
f 286/54/5 284/53/5 289/17/5 287/18/5
f 339/55/3 256/56/3 254/57/3 337/58/3
f 342/3/2 258/2/2 256/5/2 339/6/2
f 260/1/1 258/2/1 342/3/1 344/4/1
f 285/47/3 283/48/3 213/50/3 260/26/3
f 284/53/3 286/54/3 344/27/3 298/49/3
f 287/18/3 289/17/3 290/51/3 288/52/3
f 285/47/1 286/54/1 287/18/1 288/52/1
f 283/48/7 285/47/7 288/52/7 290/51/7
f 284/53/4 283/48/4 290/51/4 289/17/4
f 293/1/1 294/4/1 296/3/1 295/2/1
f 296/3/2 300/6/2 299/5/2 295/2/2
f 300/7/3 302/10/3 301/9/3 299/8/3
f 297/11/4 301/14/4 302/13/4 298/12/4
f 333/53/4 334/48/4 349/51/4 348/17/4
f 305/1/1 306/4/1 308/3/1 307/2/1
f 308/3/2 310/6/2 309/5/2 307/2/2
f 310/7/6 312/10/6 311/9/6 309/8/6
f 291/11/4 311/14/4 312/13/4 292/12/4
f 318/19/3 319/22/3 320/21/3 315/20/3
f 318/23/5 324/23/5 323/24/5 317/24/5
f 316/25/3 306/27/3 305/26/3 317/24/3
f 315/28/3 314/29/3 306/27/3 316/25/3
f 317/24/3 305/26/3 313/30/3 318/23/3
f 304/31/3 314/34/3 315/33/3 320/32/3
f 313/35/3 303/38/3 319/37/3 318/36/3
f 322/39/3 323/42/3 324/41/3 321/40/3
f 317/24/1 323/24/1 322/43/1 316/25/1
f 316/25/7 322/43/7 321/44/7 315/28/7
f 315/45/4 321/45/4 324/46/4 318/46/4
f 325/15/3 294/27/3 293/26/3 326/47/3
f 328/48/3 291/50/3 292/49/3 327/16/3
f 326/47/3 293/26/3 291/50/3 328/48/3
f 327/16/3 292/49/3 294/27/3 325/15/3
f 334/48/7 336/47/7 347/52/7 349/51/7
f 336/47/1 335/54/1 346/18/1 347/52/1
f 346/18/3 348/17/3 349/51/3 347/52/3
f 335/54/5 333/53/5 348/17/5 346/18/5
f 333/48/3 297/50/3 298/49/3 334/53/3
f 336/54/3 344/27/3 345/26/3 335/47/3
f 328/16/4 327/48/4 329/51/4 330/17/4
f 338/77/7 363/78/7 362/79/7 355/80/7 341/81/7
f 339/55/3 337/58/3 338/57/3 340/56/3
f 342/3/2 339/6/2 340/5/2 343/2/2
f 345/1/1 344/4/1 342/3/1 343/2/1
f 335/47/3 345/26/3 297/50/3 333/48/3
f 334/53/3 298/49/3 344/27/3 336/54/3
f 327/48/7 325/47/7 331/52/7 329/51/7
f 325/47/1 326/15/1 332/18/1 331/52/1
f 332/18/3 330/17/3 329/51/3 331/52/3
f 326/15/5 328/16/5 330/17/5 332/18/5
f 293/82/7 297/82/7 352/82/7 351/82/7
f 291/50/7 293/26/7 351/26/7 350/50/7
f 341/82/7 355/82/7 356/82/7 345/82/7
f 313/30/7 305/26/7 353/26/7 354/30/7
f 291/82/7 350/82/7 353/82/7 305/82/7
f 297/50/7 345/26/7 356/26/7 352/50/7
f 352/83/7 356/84/7 357/85/7 358/86/7
f 355/87/7 357/85/7 356/84/7
f 350/83/7 351/84/7 358/85/7 361/86/7
f 352/87/7 358/85/7 351/84/7
f 359/83/7 354/88/7 353/84/7 361/85/7 360/89/7
f 350/87/7 361/85/7 353/84/7
f 303/38/7 313/35/7 354/35/7 359/38/7
f 355/83/7 362/90/7 357/91/7
f 364/92/8 363/93/8 338/94/8 337/95/8
f 365/92/8 364/93/8 337/94/8 254/95/8
f 366/92/8 365/93/8 254/94/8 253/95/8
f 367/92/8 366/93/8 253/94/8 170/95/8
f 368/92/8 367/93/8 170/94/8 169/95/8
f 369/92/8 368/93/8 169/94/8 90/95/8
f 370/96/8 369/97/8 90/98/8 89/99/8
f 370/100/8 89/101/8 35/102/8
f 753/24/9 754/23/9 750/30/9 371/26/9
f 751/28/9 752/25/9 8/27/9 12/29/9
f 752/25/9 753/24/9 371/26/9 8/27/9
f 754/23/10 753/24/10 759/24/10 760/23/10
f 754/19/9 751/20/9 756/21/9 755/22/9
f 722/11/4 1/12/4 11/13/4 684/103/4
f 10/7/11 682/104/11 684/105/11 11/10/11
f 373/106/3 374/107/3 375/108/3 376/109/3
f 377/110/3 378/111/3 373/106/3 376/109/3
f 151/112/7 152/113/7 374/114/7 373/115/7
f 156/60/7 151/59/7 373/62/7 378/61/7
f 153/116/5 154/117/5 376/118/5 375/119/5
f 307/120/7 309/121/7 311/122/7 291/123/7 305/124/7
f 293/125/7 295/126/7 299/127/7 301/128/7 297/129/7
f 338/130/7 341/131/7 345/132/7 343/133/7 340/134/7
f 380/1/1 381/2/1 426/3/1 424/4/1
f 426/3/12 381/2/12 383/5/12 430/6/12
f 430/7/5 383/8/5 384/9/5 432/10/5
f 382/11/4 428/12/4 432/13/4 384/14/4
f 401/15/13 403/16/13 407/17/13 405/18/13
f 386/1/1 387/2/1 438/3/1 436/4/1
f 438/3/12 387/2/12 388/5/12 440/6/12
f 440/7/14 388/8/14 389/9/14 442/10/14
f 379/11/4 422/12/4 442/13/4 389/14/4
f 394/19/5 391/20/5 396/21/5 395/22/5
f 394/23/3 393/24/3 399/24/3 400/23/3
f 392/25/5 393/24/5 386/26/5 436/27/5
f 391/28/5 392/25/5 436/27/5 444/29/5
f 393/24/5 394/23/5 390/30/5 386/26/5
f 434/31/5 396/32/5 391/33/5 444/34/5
f 390/35/5 394/36/5 395/37/5 385/38/5
f 398/39/5 397/40/5 400/41/5 399/42/5
f 393/24/1 392/25/1 398/43/1 399/24/1
f 392/25/13 391/28/13 397/44/13 398/43/13
f 391/45/4 394/46/4 400/46/4 397/45/4
f 401/15/5 402/47/5 380/26/5 424/27/5
f 404/48/5 403/16/5 422/49/5 379/50/5
f 402/47/5 404/48/5 379/50/5 380/26/5
f 403/16/5 401/15/5 424/27/5 422/49/5
f 405/18/5 407/17/5 408/51/5 406/52/5
f 402/47/1 401/15/1 405/18/1 406/52/1
f 404/48/3 402/47/3 406/52/3 408/51/3
f 403/16/4 404/48/4 408/51/4 407/17/4
f 409/48/5 410/53/5 428/49/5 382/50/5
f 412/54/5 411/47/5 416/26/5 473/27/5
f 412/54/13 410/53/13 419/17/13 417/18/13
f 469/55/5 414/56/5 413/57/5 467/58/5
f 471/3/12 415/2/12 414/5/12 469/6/12
f 416/1/1 415/2/1 471/3/1 473/4/1
f 411/47/5 409/48/5 382/50/5 416/26/5
f 410/53/5 412/54/5 473/27/5 428/49/5
f 417/18/5 419/17/5 420/51/5 418/52/5
f 411/47/1 412/54/1 417/18/1 418/52/1
f 409/48/3 411/47/3 418/52/3 420/51/3
f 410/53/4 409/48/4 420/51/4 419/17/4
f 423/1/1 424/4/1 426/3/1 425/2/1
f 426/3/12 430/6/12 429/5/12 425/2/12
f 430/7/5 432/10/5 431/9/5 429/8/5
f 427/11/4 431/14/4 432/13/4 428/12/4
f 463/53/4 464/48/4 478/51/4 477/17/4
f 435/1/1 436/4/1 438/3/1 437/2/1
f 438/3/12 440/6/12 439/5/12 437/2/12
f 440/7/14 442/10/14 441/9/14 439/8/14
f 421/11/4 441/14/4 442/13/4 422/12/4
f 448/19/5 449/22/5 450/21/5 445/20/5
f 448/23/13 454/23/13 453/24/13 447/24/13
f 446/25/5 436/27/5 435/26/5 447/24/5
f 445/28/5 444/29/5 436/27/5 446/25/5
f 447/24/5 435/26/5 443/30/5 448/23/5
f 434/31/5 444/34/5 445/33/5 450/32/5
f 443/35/5 433/38/5 449/37/5 448/36/5
f 452/39/5 453/42/5 454/41/5 451/40/5
f 447/24/1 453/24/1 452/43/1 446/25/1
f 446/25/3 452/43/3 451/44/3 445/28/3
f 445/45/4 451/45/4 454/46/4 448/46/4
f 455/15/5 424/27/5 423/26/5 456/47/5
f 458/48/5 421/50/5 422/49/5 457/16/5
f 456/47/5 423/26/5 421/50/5 458/48/5
f 457/16/5 422/49/5 424/27/5 455/15/5
f 464/48/3 466/47/3 476/52/3 478/51/3
f 466/47/1 465/54/1 475/18/1 476/52/1
f 475/18/5 477/17/5 478/51/5 476/52/5
f 465/54/13 463/53/13 477/17/13 475/18/13
f 463/48/5 427/50/5 428/49/5 464/53/5
f 466/54/5 473/27/5 474/26/5 465/47/5
f 458/16/4 457/48/4 459/51/4 460/17/4
f 469/55/5 467/58/5 468/57/5 470/56/5
f 471/3/12 469/6/12 470/5/12 472/2/12
f 474/1/1 473/4/1 471/3/1 472/2/1
f 465/47/5 474/26/5 427/50/5 463/48/5
f 464/53/5 428/49/5 473/27/5 466/54/5
f 457/48/3 455/47/3 461/52/3 459/51/3
f 455/47/1 456/15/1 462/18/1 461/52/1
f 462/18/5 460/17/5 459/51/5 461/52/5
f 456/15/13 458/16/13 460/17/13 462/18/13
f 423/1/1 425/2/1 510/3/1 508/4/1
f 510/3/12 425/2/12 429/5/12 514/6/12
f 514/7/5 429/8/5 431/9/5 516/10/5
f 427/11/4 512/12/4 516/13/4 431/14/4
f 489/15/13 491/16/13 495/17/13 493/18/13
f 435/1/1 437/2/1 522/3/1 520/4/1
f 522/3/12 437/2/12 439/5/12 524/6/12
f 524/7/14 439/8/14 441/9/14 526/10/14
f 421/11/4 506/12/4 526/13/4 441/14/4
f 482/19/5 479/20/5 484/21/5 483/22/5
f 482/23/3 481/24/3 487/24/3 488/23/3
f 480/25/5 481/24/5 435/26/5 520/27/5
f 479/28/5 480/25/5 520/27/5 528/29/5
f 481/24/5 482/23/5 443/30/5 435/26/5
f 518/31/5 484/32/5 479/33/5 528/34/5
f 443/35/5 482/36/5 483/37/5 433/38/5
f 486/39/5 485/40/5 488/41/5 487/42/5
f 481/24/1 480/25/1 486/43/1 487/24/1
f 480/25/13 479/28/13 485/44/13 486/43/13
f 479/45/4 482/46/4 488/46/4 485/45/4
f 489/15/5 490/47/5 423/26/5 508/27/5
f 492/48/5 491/16/5 506/49/5 421/50/5
f 490/47/5 492/48/5 421/50/5 423/26/5
f 491/16/5 489/15/5 508/27/5 506/49/5
f 493/18/5 495/17/5 496/51/5 494/52/5
f 490/47/1 489/15/1 493/18/1 494/52/1
f 492/48/3 490/47/3 494/52/3 496/51/3
f 491/16/4 492/48/4 496/51/4 495/17/4
f 497/48/5 498/53/5 512/49/5 427/50/5
f 500/54/5 499/47/5 474/26/5 553/27/5
f 500/54/13 498/53/13 503/17/13 501/18/13
f 549/55/5 470/56/5 468/57/5 547/58/5
f 551/3/12 472/2/12 470/5/12 549/6/12
f 474/1/1 472/2/1 551/3/1 553/4/1
f 499/47/5 497/48/5 427/50/5 474/26/5
f 498/53/5 500/54/5 553/27/5 512/49/5
f 501/18/5 503/17/5 504/51/5 502/52/5
f 499/47/1 500/54/1 501/18/1 502/52/1
f 497/48/3 499/47/3 502/52/3 504/51/3
f 498/53/4 497/48/4 504/51/4 503/17/4
f 507/1/1 508/4/1 510/3/1 509/2/1
f 510/3/12 514/6/12 513/5/12 509/2/12
f 514/7/5 516/10/5 515/9/5 513/8/5
f 511/11/4 515/14/4 516/13/4 512/12/4
f 543/53/4 544/48/4 558/51/4 557/17/4
f 519/1/1 520/4/1 522/3/1 521/2/1
f 522/3/12 524/6/12 523/5/12 521/2/12
f 524/7/14 526/10/14 525/9/14 523/8/14
f 505/11/4 525/14/4 526/13/4 506/12/4
f 532/59/13 533/60/13 748/61/13 747/62/13
f 530/63/1 531/64/1 746/65/1 745/66/1
f 530/67/5 520/27/5 519/26/5 531/68/5
f 529/69/5 528/29/5 520/27/5 530/70/5
f 531/71/5 519/26/5 527/30/5 532/72/5
f 518/31/5 528/34/5 529/73/5 534/74/5
f 527/35/5 517/38/5 533/75/5 532/76/5
f 535/15/5 508/27/5 507/26/5 536/47/5
f 538/48/5 505/50/5 506/49/5 537/16/5
f 536/47/5 507/26/5 505/50/5 538/48/5
f 537/16/5 506/49/5 508/27/5 535/15/5
f 544/48/3 546/47/3 556/52/3 558/51/3
f 546/47/1 545/54/1 555/18/1 556/52/1
f 555/18/5 557/17/5 558/51/5 556/52/5
f 545/54/13 543/53/13 557/17/13 555/18/13
f 543/48/5 511/50/5 512/49/5 544/53/5
f 546/54/5 553/27/5 554/26/5 545/47/5
f 538/16/4 537/48/4 539/51/4 540/17/4
f 549/55/5 547/58/5 548/57/5 550/56/5
f 551/3/12 549/6/12 550/5/12 552/2/12
f 554/1/1 553/4/1 551/3/1 552/2/1
f 545/47/5 554/26/5 511/50/5 543/48/5
f 544/53/5 512/49/5 553/27/5 546/54/5
f 537/48/3 535/47/3 541/52/3 539/51/3
f 535/47/1 536/15/1 542/18/1 541/52/1
f 542/18/5 540/17/5 539/51/5 541/52/5
f 536/15/13 538/16/13 540/17/13 542/18/13
f 507/1/1 509/2/1 590/3/1 588/4/1
f 590/3/12 509/2/12 513/5/12 594/6/12
f 594/7/5 513/8/5 515/9/5 596/10/5
f 511/11/4 592/12/4 596/13/4 515/14/4
f 569/15/13 571/16/13 575/17/13 573/18/13
f 519/1/1 521/2/1 602/3/1 600/4/1
f 602/3/12 521/2/12 523/5/12 604/6/12
f 604/7/14 523/8/14 525/9/14 606/10/14
f 505/11/4 586/12/4 606/13/4 525/14/4
f 562/19/5 559/20/5 564/21/5 563/22/5
f 562/23/3 561/24/3 567/24/3 568/23/3
f 560/25/5 561/24/5 519/26/5 600/27/5
f 559/28/5 560/25/5 600/27/5 608/29/5
f 561/24/5 562/23/5 527/30/5 519/26/5
f 598/31/5 564/32/5 559/33/5 608/34/5
f 527/35/5 562/36/5 563/37/5 517/38/5
f 566/39/5 565/40/5 568/41/5 567/42/5
f 561/24/1 560/25/1 566/43/1 567/24/1
f 560/25/13 559/28/13 565/44/13 566/43/13
f 559/45/4 562/46/4 568/46/4 565/45/4
f 569/15/5 570/47/5 507/26/5 588/27/5
f 572/48/5 571/16/5 586/49/5 505/50/5
f 570/47/5 572/48/5 505/50/5 507/26/5
f 571/16/5 569/15/5 588/27/5 586/49/5
f 573/18/5 575/17/5 576/51/5 574/52/5
f 570/47/1 569/15/1 573/18/1 574/52/1
f 572/48/3 570/47/3 574/52/3 576/51/3
f 571/16/4 572/48/4 576/51/4 575/17/4
f 577/48/5 578/53/5 592/49/5 511/50/5
f 580/54/5 579/47/5 554/26/5 637/27/5
f 580/54/13 578/53/13 583/17/13 581/18/13
f 633/55/5 550/56/5 548/57/5 631/58/5
f 635/3/12 552/2/12 550/5/12 633/6/12
f 554/1/1 552/2/1 635/3/1 637/4/1
f 579/47/5 577/48/5 511/50/5 554/26/5
f 578/53/5 580/54/5 637/27/5 592/49/5
f 581/18/5 583/17/5 584/51/5 582/52/5
f 579/47/1 580/54/1 581/18/1 582/52/1
f 577/48/3 579/47/3 582/52/3 584/51/3
f 578/53/4 577/48/4 584/51/4 583/17/4
f 587/1/1 588/4/1 590/3/1 589/2/1
f 590/3/12 594/6/12 593/5/12 589/2/12
f 594/7/5 596/10/5 595/9/5 593/8/5
f 591/11/4 595/14/4 596/13/4 592/12/4
f 627/53/4 628/48/4 642/51/4 641/17/4
f 599/1/1 600/4/1 602/3/1 601/2/1
f 602/3/12 604/6/12 603/5/12 601/2/12
f 604/7/14 606/10/14 605/9/14 603/8/14
f 585/11/4 605/14/4 606/13/4 586/12/4
f 612/19/5 613/22/5 614/21/5 609/20/5
f 612/23/13 618/23/13 617/24/13 611/24/13
f 610/25/5 600/27/5 599/26/5 611/24/5
f 609/28/5 608/29/5 600/27/5 610/25/5
f 611/24/5 599/26/5 607/30/5 612/23/5
f 598/31/5 608/34/5 609/33/5 614/32/5
f 607/35/5 597/38/5 613/37/5 612/36/5
f 616/39/5 617/42/5 618/41/5 615/40/5
f 611/24/1 617/24/1 616/43/1 610/25/1
f 610/25/3 616/43/3 615/44/3 609/28/3
f 609/45/4 615/45/4 618/46/4 612/46/4
f 619/15/5 588/27/5 587/26/5 620/47/5
f 622/48/5 585/50/5 586/49/5 621/16/5
f 620/47/5 587/26/5 585/50/5 622/48/5
f 621/16/5 586/49/5 588/27/5 619/15/5
f 628/48/3 630/47/3 640/52/3 642/51/3
f 630/47/1 629/54/1 639/18/1 640/52/1
f 639/18/5 641/17/5 642/51/5 640/52/5
f 629/54/13 627/53/13 641/17/13 639/18/13
f 627/48/5 591/50/5 592/49/5 628/53/5
f 630/54/5 637/27/5 638/26/5 629/47/5
f 622/16/4 621/48/4 623/51/4 624/17/4
f 633/55/5 631/58/5 632/57/5 634/56/5
f 635/3/12 633/6/12 634/5/12 636/2/12
f 638/1/1 637/4/1 635/3/1 636/2/1
f 629/47/5 638/26/5 591/50/5 627/48/5
f 628/53/5 592/49/5 637/27/5 630/54/5
f 621/48/3 619/47/3 625/52/3 623/51/3
f 619/47/1 620/15/1 626/18/1 625/52/1
f 626/18/5 624/17/5 623/51/5 625/52/5
f 620/15/13 622/16/13 624/17/13 626/18/13
f 587/1/1 589/2/1 672/3/1 670/4/1
f 672/3/12 589/2/12 593/5/12 675/6/12
f 675/7/5 593/8/5 595/9/5 677/10/5
f 591/11/4 673/12/4 677/13/4 595/14/4
f 653/15/13 655/16/13 659/17/13 657/18/13
f 599/1/1 601/2/1 681/3/1 679/4/1
f 681/3/12 601/2/12 603/5/12 683/6/12
f 683/7/14 603/8/14 605/9/14 685/10/14
f 585/11/4 669/12/4 685/13/4 605/14/4
f 646/19/5 643/20/5 648/21/5 647/22/5
f 646/23/3 645/24/3 651/24/3 652/23/3
f 644/25/5 645/24/5 599/26/5 679/27/5
f 643/28/5 644/25/5 679/27/5 686/29/5
f 645/24/5 646/23/5 607/30/5 599/26/5
f 678/31/5 648/32/5 643/33/5 686/34/5
f 607/35/5 646/36/5 647/37/5 597/38/5
f 650/39/5 649/40/5 652/41/5 651/42/5
f 645/24/1 644/25/1 650/43/1 651/24/1
f 644/25/13 643/28/13 649/44/13 650/43/13
f 643/45/4 646/46/4 652/46/4 649/45/4
f 653/15/5 654/47/5 587/26/5 670/27/5
f 656/48/5 655/16/5 669/49/5 585/50/5
f 654/47/5 656/48/5 585/50/5 587/26/5
f 655/16/5 653/15/5 670/27/5 669/49/5
f 657/18/5 659/17/5 660/51/5 658/52/5
f 654/47/1 653/15/1 657/18/1 658/52/1
f 656/48/3 654/47/3 658/52/3 660/51/3
f 655/16/4 656/48/4 660/51/4 659/17/4
f 661/48/5 662/53/5 673/49/5 591/50/5
f 664/54/5 663/47/5 638/26/5 715/27/5
f 664/54/13 662/53/13 667/17/13 665/18/13
f 711/55/5 634/56/5 632/57/5 709/58/5
f 713/3/12 636/2/12 634/5/12 711/6/12
f 638/1/1 636/2/1 713/3/1 715/4/1
f 663/47/5 661/48/5 591/50/5 638/26/5
f 662/53/5 664/54/5 715/27/5 673/49/5
f 665/18/5 667/17/5 668/51/5 666/52/5
f 663/47/1 664/54/1 665/18/1 666/52/1
f 661/48/3 663/47/3 666/52/3 668/51/3
f 662/53/4 661/48/4 668/51/4 667/17/4
f 721/1/1 670/4/1 672/3/1 671/2/1
f 672/3/12 675/6/12 674/5/12 671/2/12
f 675/7/5 677/10/5 676/9/5 674/8/5
f 720/11/4 676/14/4 677/13/4 673/12/4
f 705/53/4 706/48/4 719/51/4 718/17/4
f 371/1/1 679/4/1 681/3/1 680/2/1
f 681/3/12 683/6/12 682/5/12 680/2/12
f 683/7/14 685/10/14 684/9/14 682/8/14
f 722/11/4 684/14/4 685/13/4 669/12/4
f 690/19/5 691/22/5 692/21/5 687/20/5
f 690/23/13 696/23/13 695/24/13 689/24/13
f 688/25/5 679/27/5 371/26/5 689/24/5
f 687/28/5 686/29/5 679/27/5 688/25/5
f 689/24/5 371/26/5 750/30/5 690/23/5
f 678/31/5 686/34/5 687/33/5 692/32/5
f 750/35/5 372/38/5 691/37/5 690/36/5
f 694/39/5 695/42/5 696/41/5 693/40/5
f 689/24/1 695/24/1 694/43/1 688/25/1
f 688/25/3 694/43/3 693/44/3 687/28/3
f 687/45/4 693/45/4 696/46/4 690/46/4
f 697/15/5 670/27/5 721/26/5 698/47/5
f 700/48/5 722/50/5 669/49/5 699/16/5
f 698/47/5 721/26/5 722/50/5 700/48/5
f 699/16/5 669/49/5 670/27/5 697/15/5
f 706/48/3 708/47/3 717/52/3 719/51/3
f 708/47/1 707/54/1 716/18/1 717/52/1
f 716/18/5 718/17/5 719/51/5 717/52/5
f 707/54/13 705/53/13 718/17/13 716/18/13
f 705/48/5 720/50/5 673/49/5 706/53/5
f 708/54/5 715/27/5 773/26/5 707/47/5
f 700/16/4 699/48/4 701/51/4 702/17/4
f 711/55/5 709/58/5 710/57/5 712/56/5
f 713/3/12 711/6/12 712/5/12 714/2/12
f 773/1/1 715/4/1 713/3/1 714/2/1
f 707/47/5 773/26/5 720/50/5 705/48/5
f 706/53/5 673/49/5 715/27/5 708/54/5
f 699/48/3 697/47/3 703/52/3 701/51/3
f 697/47/1 698/15/1 704/18/1 703/52/1
f 704/18/5 702/17/5 701/51/5 703/52/5
f 698/15/13 700/16/13 702/17/13 704/18/13
f 9/3/15 680/135/15 682/136/15 10/6/15
f 371/1/1 680/137/1 9/3/1 8/4/1
f 761/15/16 763/16/16 767/17/16 765/18/16
f 720/11/4 4/12/4 6/13/4 676/138/4
f 5/7/9 674/139/9 676/140/9 6/10/9
f 3/3/15 671/141/15 674/142/15 5/6/15
f 721/1/1 671/137/1 3/3/1 2/4/1
f 370/143/17 710/101/17 709/102/17
f 723/144/17 370/145/17 709/98/17 632/99/17
f 724/92/17 723/93/17 632/94/17 631/95/17
f 725/92/17 724/93/17 631/94/17 548/95/17
f 726/92/17 725/93/17 548/94/17 547/95/17
f 727/92/17 726/93/17 547/94/17 468/95/17
f 728/92/17 727/93/17 468/94/17 467/95/17
f 729/92/17 728/93/17 467/94/17 413/95/17
f 413/77/13 730/81/13 736/80/13 743/79/13 729/78/13
f 380/82/18 732/82/18 733/82/18 382/82/18
f 379/50/18 731/50/18 732/26/18 380/26/18
f 730/82/13 416/82/13 737/82/13 736/82/13
f 390/30/18 735/30/18 734/26/18 386/26/18
f 379/82/18 386/82/18 734/82/18 731/82/18
f 382/50/18 733/50/18 737/26/18 416/26/18
f 733/83/13 739/146/13 738/85/13 737/84/13
f 736/87/13 737/84/13 738/85/13
f 731/83/13 742/147/13 739/85/13 732/84/13
f 733/87/13 732/84/13 739/85/13
f 740/83/13 741/89/13 742/85/13 734/84/13 735/88/13
f 731/87/13 734/84/13 742/85/13
f 385/38/13 740/38/13 735/35/13 390/35/13
f 736/83/13 738/91/13 743/90/13
f 744/106/5 745/107/5 746/108/5 747/109/5
f 748/110/5 749/111/5 744/106/5 747/109/5
f 529/112/3 530/113/3 745/114/3 744/115/3
f 534/60/3 529/59/3 744/62/3 749/61/3
f 531/116/13 532/117/13 747/118/13 746/119/13
f 387/148/13 386/149/13 379/150/13 389/122/13 388/151/13
f 380/152/13 382/153/13 384/154/13 383/155/13 381/156/13
f 413/157/13 414/158/13 415/159/13 416/160/13 730/161/13
f 7/31/9 756/32/9 751/33/9 12/34/9
f 750/35/9 754/36/9 755/37/9 372/38/9
f 758/39/9 757/40/9 760/41/9 759/42/9
f 753/24/1 752/25/1 758/43/1 759/24/1
f 752/25/16 751/28/16 757/44/16 758/43/16
f 751/45/4 754/46/4 760/46/4 757/45/4
f 761/15/9 762/47/9 721/26/9 2/27/9
f 764/48/9 763/16/9 1/49/9 722/50/9
f 762/47/9 764/48/9 722/50/9 721/26/9
f 763/16/9 761/15/9 2/27/9 1/49/9
f 765/18/9 767/17/9 768/51/9 766/52/9
f 762/47/1 761/15/1 765/18/1 766/52/1
f 764/48/10 762/47/10 766/52/10 768/51/10
f 763/16/4 764/48/4 768/51/4 767/17/4
f 769/48/9 770/53/9 4/49/9 720/50/9
f 772/54/9 771/47/9 773/26/9 38/27/9
f 772/54/16 770/53/16 776/17/16 774/18/16
f 36/55/9 712/162/9 710/163/9 35/58/9
f 37/3/15 714/164/15 712/165/15 36/6/15
f 773/1/1 714/137/1 37/3/1 38/4/1
f 771/47/9 769/48/9 720/50/9 773/26/9
f 770/53/9 772/54/9 38/27/9 4/49/9
f 774/18/9 776/17/9 777/51/9 775/52/9
f 771/47/1 772/54/1 774/18/1 775/52/1
f 769/48/10 771/47/10 775/52/10 777/51/10
f 770/53/4 769/48/4 777/51/4 776/17/4
f 35/102/19 710/101/19 370/100/19
f 790/166/13 791/167/13 798/168/13 797/169/13
f 791/170/13 792/171/13 799/172/13 798/84/13
f 792/170/13 793/171/13 800/172/13 799/84/13
f 793/170/13 794/171/13 801/172/13 800/84/13
f 794/170/13 795/171/13 802/172/13 801/84/13
f 795/170/13 796/171/13 803/172/13 802/84/13
f 796/170/13 361/171/13 358/172/13 803/84/13
f 797/173/13 798/167/13 783/168/13 784/174/13
f 798/170/13 799/171/13 782/172/13 783/84/13
f 799/170/13 800/171/13 781/172/13 782/84/13
f 800/170/13 801/171/13 780/172/13 781/84/13
f 801/170/13 802/171/13 779/172/13 780/84/13
f 802/170/13 803/171/13 778/172/13 779/84/13
f 803/170/13 358/171/13 357/172/13 778/84/13
f 784/175/13 783/167/13 369/176/13 370/177/13
f 783/170/13 782/171/13 368/178/13 369/179/13
f 782/170/13 781/171/13 367/178/13 368/179/13
f 781/170/13 780/171/13 366/178/13 367/179/13
f 780/170/13 779/171/13 365/178/13 366/179/13
f 779/170/13 778/171/13 364/178/13 365/179/13
f 778/170/13 357/171/13 362/180/13 363/178/13 364/179/13
f 742/170/7 805/171/7 811/172/7 739/84/7
f 805/170/7 806/171/7 812/172/7 811/84/7
f 806/170/7 807/171/7 813/172/7 812/84/7
f 807/170/7 808/171/7 814/172/7 813/84/7
f 808/170/7 809/171/7 815/172/7 814/84/7
f 809/170/7 810/171/7 816/172/7 815/84/7
f 810/170/20 790/181/20 797/182/20 816/84/20
f 739/170/7 811/171/7 804/172/7 738/84/7
f 811/170/7 812/171/7 785/172/7 804/84/7
f 812/170/7 813/171/7 786/172/7 785/84/7
f 813/170/7 814/171/7 787/172/7 786/84/7
f 814/170/7 815/171/7 788/172/7 787/84/7
f 815/170/7 816/171/7 789/172/7 788/84/7
f 816/170/20 797/183/20 784/184/20 789/84/20
f 738/170/7 804/171/7 728/178/7 729/179/7 743/185/7
f 804/170/7 785/171/7 727/178/7 728/179/7
f 785/170/7 786/171/7 726/178/7 727/179/7
f 786/170/7 787/171/7 725/178/7 726/179/7
f 787/170/7 788/171/7 724/178/7 725/179/7
f 788/170/7 789/171/7 723/178/7 724/179/7
f 789/170/21 784/186/21 370/187/21 723/179/21
f 817/166/13 818/167/13 791/168/13 790/169/13
f 818/170/13 819/171/13 792/172/13 791/84/13
f 819/170/13 820/171/13 793/172/13 792/84/13
f 820/170/13 821/171/13 794/172/13 793/84/13
f 821/170/13 822/171/13 795/172/13 794/84/13
f 822/170/13 823/171/13 796/172/13 795/84/13
f 823/170/13 360/171/13 361/172/13 796/84/13
f 741/170/7 824/171/7 805/172/7 742/84/7
f 824/170/7 825/171/7 806/172/7 805/84/7
f 825/170/7 826/171/7 807/172/7 806/84/7
f 826/170/7 827/171/7 808/172/7 807/84/7
f 827/170/7 828/171/7 809/172/7 808/84/7
f 828/170/7 829/171/7 810/172/7 809/84/7
f 829/170/20 817/181/20 790/182/20 810/84/20
