# Blender 5.1.1
# www.blender.org
mtllib PBP1_Building2.mtl
o PBP1_Building2
v 7.278938 1.292067 -3.104719
v 7.278938 -2.057127 -3.104719
v 4.852132 1.292067 -3.104716
v 4.852132 -2.057127 -3.104716
v 2.425322 1.292067 -3.104712
v 2.425322 -2.057127 -3.104712
v -0.001485 1.292067 -3.104709
v -0.001485 -2.057127 -3.104709
v -2.428297 1.292067 -3.104705
v -2.428297 -2.057127 -3.104705
v -4.855104 1.292067 -3.104702
v -4.855104 -2.057127 -3.104702
v -7.281914 1.292067 -3.104699
v -7.281914 -2.057127 -3.104699
v 7.278938 -5.217951 -3.104719
v 4.852132 -5.217951 -3.104716
v 2.425322 -5.217951 -3.104712
v -0.001485 -5.217951 -3.104709
v -2.428297 -5.217951 -3.104705
v -4.855104 -5.217951 -3.104702
v -7.281914 -5.217951 -3.104699
v 7.278938 4.641261 -3.104719
v 4.852132 4.641261 -3.104716
v 2.425322 4.641261 -3.104712
v -0.001485 4.641261 -3.104709
v -2.428297 4.641261 -3.104705
v -4.855104 4.641261 -3.104702
v -7.281914 4.641261 -3.104699
v 9.700905 -1.868757 0.390335
v 9.700905 1.292067 0.390335
v 9.700905 1.292067 0.547653
v 9.700905 1.480437 0.390335
v 9.700905 1.396459 0.636913
v 9.700905 1.480437 0.636913
v 9.700905 -5.217950 0.390335
v 9.700905 -2.057127 0.390335
v 9.700905 -2.057127 0.547653
v 9.700905 -1.952735 0.636913
v 9.700905 -1.868757 0.647981
v 9.700905 -4.438874 0.390335
v 7.989539 -4.438874 0.390335
v 7.989539 -2.621431 0.390335
v 8.985469 -2.621431 0.390335
v 8.985469 -4.438874 0.390335
v 8.985469 -5.217950 0.390335
v 7.989539 -5.217950 0.390335
v 7.989539 -4.438874 0.225930
v 7.989539 -2.621431 0.225930
v 8.985469 -2.621431 0.225930
v 8.985469 -4.438874 0.225930
v 7.951717 0.683578 0.390335
v 9.023286 0.683578 0.390335
v 7.951717 -1.069128 0.390335
v 9.023286 -1.069128 0.390335
v 7.951717 0.683578 0.225930
v 9.023286 0.683578 0.225930
v 7.951717 -1.069128 0.225930
v 9.023286 -1.069128 0.225930
v 9.700905 4.829631 0.636913
v 9.700905 4.745653 0.636913
v 9.700905 4.641261 0.547653
v 9.700905 4.641261 0.390335
v 4.847293 -1.868757 0.390336
v 7.274099 -1.868757 0.390335
v 4.847293 1.292067 0.390336
v 7.274099 1.292067 0.390335
v 4.847293 1.292067 0.547655
v 7.274099 1.292067 0.547653
v 4.847293 1.480437 0.390336
v 7.274099 1.480437 0.390335
v 4.847293 1.396459 0.636915
v 7.274099 1.396459 0.636913
v 4.847293 1.480437 0.636915
v 7.274099 1.480437 0.636913
v 4.847293 -5.217950 0.390336
v 7.274099 -5.217950 0.390335
v 4.847293 -2.057127 0.390336
v 7.274099 -2.057127 0.390335
v 4.847293 -2.057127 0.547655
v 7.274099 -2.057127 0.547653
v 4.847293 -1.952735 0.636915
v 7.274099 -1.952735 0.636913
v 4.847293 -1.868757 0.647983
v 7.274099 -1.868757 0.647981
v 4.847293 -4.438874 0.390336
v 7.274099 -4.438874 0.390335
v 6.558663 -4.438874 0.390335
v 6.558663 -2.621431 0.390335
v 5.562731 -2.621431 0.390336
v 5.562731 -4.438874 0.390336
v 5.562731 -5.217950 0.390336
v 6.558663 -5.217950 0.390335
v 6.558663 -4.438874 0.225930
v 6.558663 -2.621431 0.225930
v 5.562731 -2.621431 0.225931
v 5.562731 -4.438874 0.225931
v 6.596480 0.683578 0.390335
v 5.524913 0.683578 0.390336
v 6.596480 -1.069128 0.390335
v 5.524913 -1.069128 0.390336
v 6.596480 -1.069128 0.225930
v 5.524913 -1.069128 0.225930
v 6.596480 0.683578 0.225930
v 5.524913 0.683578 0.225930
v 7.274099 4.829631 0.636913
v 4.847293 4.829631 0.636915
v 7.274099 4.745653 0.636913
v 4.847293 4.745653 0.636915
v 7.274099 4.641261 0.547653
v 4.847293 4.641261 0.547655
v 7.274099 4.641261 0.390335
v 4.847293 4.641261 0.390336
v 3.135924 -4.438874 0.390336
v 3.135924 -2.621431 0.390336
v 4.131855 -2.621431 0.390336
v 4.131855 -4.438874 0.390336
v 4.131855 -5.217950 0.390336
v 3.135924 -5.217950 0.390336
v 3.135923 -4.438874 0.225931
v 3.135923 -2.621431 0.225931
v 4.131855 -2.621431 0.225931
v 4.131855 -4.438874 0.225931
v 3.098106 0.683578 0.390336
v 4.169673 0.683578 0.390336
v 3.098106 -1.069128 0.390336
v 4.169673 -1.069128 0.390336
v 3.098106 0.683578 0.225931
v 4.169675 0.683578 0.225931
v 3.098106 -1.069128 0.225931
v 4.169675 -1.069128 0.225931
v -0.006320 -1.868757 0.390338
v 2.420486 -1.868757 0.390337
v -0.006320 1.292067 0.390338
v 2.420486 1.292067 0.390337
v -0.006320 1.292067 0.547656
v 2.420486 1.292067 0.547655
v -0.006320 1.480437 0.390338
v 2.420488 1.480437 0.390337
v -0.006320 1.396459 0.636916
v 2.420486 1.396459 0.636915
v -0.006320 1.480437 0.636916
v 2.420488 1.480437 0.636915
v -0.006320 -5.217950 0.390338
v 2.420486 -5.217950 0.390337
v -0.006320 -2.057127 0.390338
v 2.420486 -2.057127 0.390337
v -0.006320 -2.057127 0.547656
v 2.420486 -2.057127 0.547655
v -0.006320 -1.952735 0.636916
v 2.420486 -1.952735 0.636915
v -0.006320 -1.868757 0.647984
v 2.420488 -1.868757 0.647983
v -0.006320 -4.438874 0.390338
v 2.420486 -4.438874 0.390337
v 2.215385 -4.438874 0.390337
v 2.215385 -2.621431 0.390337
v 0.198781 -2.621431 0.390338
v 0.198781 -4.438874 0.390338
v 0.198781 -5.217950 0.390338
v 2.215385 -5.217950 0.390337
v 1.742867 0.683578 0.390337
v 0.671300 0.683578 0.390338
v 1.742867 -1.069128 0.390337
v 0.671300 -1.069128 0.390338
v 1.742867 -1.069128 0.225931
v 0.671300 -1.069128 0.225931
v 1.742867 0.683578 0.225931
v 0.671300 0.683578 0.225931
v 2.420488 4.829631 0.636915
v -0.006320 4.829631 0.636916
v 2.420486 4.745653 0.636915
v -0.006320 4.745653 0.636916
v 2.420486 4.641261 0.547655
v -0.006320 4.641261 0.547656
v 2.420486 4.641261 0.390337
v -0.006320 4.641261 0.390338
v -1.717688 -4.438874 0.390338
v -1.717688 -2.621431 0.390338
v -0.721756 -2.621431 0.390338
v -0.721756 -4.438874 0.390338
v -0.721758 -5.217950 0.390338
v -1.717688 -5.217950 0.390338
v -1.717688 -4.438874 0.225933
v -1.717688 -2.621431 0.225933
v -0.721756 -2.621431 0.225933
v -0.721756 -4.438874 0.225933
v -1.755506 0.683578 0.390338
v -0.683939 0.683578 0.390338
v -1.755506 -1.069128 0.390338
v -0.683939 -1.069128 0.390338
v -1.755506 0.683578 0.225933
v -0.683939 0.683578 0.225933
v -1.755506 -1.069128 0.225933
v -0.683939 -1.069128 0.225933
v -4.859934 -1.868757 0.390340
v -2.433128 -1.868757 0.390338
v -4.859934 1.292067 0.390340
v -2.433128 1.292067 0.390338
v -4.859934 1.292067 0.547658
v -2.433128 1.292067 0.547656
v -4.859934 1.480437 0.390340
v -2.433128 1.480437 0.390338
v -4.859934 1.396459 0.636918
v -2.433128 1.396459 0.636916
v -4.859934 1.480437 0.636918
v -2.433128 1.480437 0.636916
v -4.859934 -5.217950 0.390340
v -2.433128 -5.217950 0.390338
v -4.859934 -2.057127 0.390340
v -2.433128 -2.057127 0.390338
v -4.859934 -2.057127 0.547658
v -2.433128 -2.057127 0.547656
v -4.859934 -1.952735 0.636918
v -2.433128 -1.952735 0.636916
v -4.859934 -1.868757 0.647986
v -2.433128 -1.868757 0.647984
v -4.859934 -4.438874 0.390340
v -2.433128 -4.438874 0.390338
v -3.148564 -4.438874 0.390339
v -3.148564 -2.621431 0.390339
v -4.144494 -2.621431 0.390339
v -4.144494 -4.438874 0.390339
v -4.144494 -5.217950 0.390339
v -3.148564 -5.217950 0.390339
v -3.148564 -4.438874 0.225934
v -3.148564 -2.621431 0.225934
v -4.144494 -2.621431 0.225934
v -4.144494 -4.438874 0.225934
v -3.110746 0.683578 0.390339
v -4.182315 0.683578 0.390339
v -3.110746 -1.069128 0.390339
v -4.182315 -1.069128 0.390339
v -3.110746 -1.069128 0.225933
v -4.182312 -1.069128 0.225933
v -3.110746 0.683578 0.225933
v -4.182312 0.683578 0.225933
v -2.433128 4.829631 0.636916
v -4.859934 4.829631 0.636918
v -2.433128 4.745653 0.636916
v -4.859934 4.745653 0.636918
v -2.433128 4.641261 0.547656
v -4.859934 4.641261 0.547658
v -2.433128 4.641261 0.390338
v -4.859934 4.641261 0.390340
v -6.571302 -4.438874 0.390339
v -6.571302 -2.621431 0.390339
v -5.575370 -2.621431 0.390339
v -5.575370 -4.438874 0.390339
v -5.575370 -5.217950 0.390339
v -6.571302 -5.217950 0.390339
v -6.571302 -4.438874 0.225934
v -6.571302 -2.621431 0.225934
v -5.575370 -2.621431 0.225934
v -5.575370 -4.438874 0.225934
v -6.609119 0.683578 0.390339
v -5.537552 0.683578 0.390339
v -6.609119 -1.069128 0.390339
v -5.537552 -1.069128 0.390339
v -6.609119 0.683578 0.225934
v -5.537552 0.683578 0.225934
v -6.609119 -1.069128 0.225934
v -5.537552 -1.069128 0.225934
v -9.713548 -1.868757 0.390341
v -7.286742 -1.868757 0.390340
v -9.713548 1.292067 0.390341
v -7.286742 1.292067 0.390340
v -9.713548 1.292067 0.547659
v -7.286742 1.292067 0.547658
v -9.713548 1.480437 0.390341
v -7.286742 1.480437 0.390340
v -9.713548 1.396459 0.636919
v -7.286742 1.396459 0.636918
v -9.713548 1.480437 0.636919
v -7.286742 1.480437 0.636918
v -9.713548 -5.217950 0.390341
v -7.286742 -5.217950 0.390340
v -9.713548 -2.057127 0.390341
v -7.286742 -2.057127 0.390340
v -9.713548 -2.057127 0.547659
v -7.286742 -2.057127 0.547658
v -9.713548 -1.952735 0.636919
v -7.286742 -1.952735 0.636918
v -9.713548 -1.868757 0.647988
v -7.286742 -1.868757 0.647986
v -9.713548 -4.438874 0.390341
v -7.286742 -4.438874 0.390340
v -8.002177 -4.438874 0.390340
v -8.002177 -2.621431 0.390340
v -8.998108 -2.621431 0.390341
v -8.998108 -4.438874 0.390341
v -8.998108 -5.217950 0.390341
v -8.002177 -5.217950 0.390340
v -8.002177 -4.438874 0.225935
v -8.002177 -2.621431 0.225935
v -8.998108 -2.621431 0.225936
v -8.998108 -4.438874 0.225936
v -7.964360 0.683578 0.390340
v -9.035925 0.683578 0.390341
v -7.964360 -1.069128 0.390340
v -9.035925 -1.069128 0.390341
v -7.964360 -1.069128 0.225934
v -9.035925 -1.069128 0.225934
v -7.964360 0.683578 0.225934
v -9.035925 0.683578 0.225934
v -7.286742 4.829631 0.636918
v -9.713548 4.829631 0.636919
v -7.286742 4.745653 0.636918
v -9.713548 4.745653 0.636919
v -9.713548 4.829631 0.390341
v -7.286742 4.641261 0.547658
v -9.713548 4.641261 0.547659
v -7.286742 4.641261 0.390340
v -9.713548 4.641261 0.390341
v -9.713548 -1.868757 0.308448
v -9.713548 1.292067 0.308448
v -9.713548 1.480437 0.308448
v -9.713548 -2.057127 0.308448
v -9.713548 -4.438874 0.308448
v -9.713548 4.829631 0.308448
v -9.713548 4.641261 0.308448
v -9.713548 -5.217951 0.290395
v 9.700912 4.829631 0.390328
v 9.700912 -1.868757 0.308435
v 9.700912 1.292067 0.308435
v 9.700912 1.480437 0.308435
v 9.700912 -2.057127 0.308435
v 9.700912 -4.438874 0.308435
v 9.700912 4.829631 0.308435
v 9.700912 4.641261 0.308435
v 9.700912 -5.217951 0.290382
v 2.215385 -4.438874 0.209136
v 2.215385 -2.621431 0.209136
v 0.198781 -2.621431 0.209137
v 0.198781 -4.438874 0.209137
v 0.198781 -5.217950 0.209137
v 2.215385 -5.217950 0.209136
v 9.705729 4.641261 -3.104710
v 9.705729 1.292066 -3.104710
v 9.705729 -5.217952 -3.104710
v 9.705729 -2.057128 -3.104710
v 9.705729 7.303360 -3.104710
v 9.705729 7.523789 -3.104710
v 7.278922 7.523789 -3.104709
v 4.852117 7.523789 -3.104710
v 2.425307 7.523789 -3.104709
v -0.001499 7.523789 -3.104710
v -2.428307 7.523789 -3.104709
v -4.855114 7.523789 -3.104709
v -7.281922 7.523789 -3.104709
v -9.708728 7.523789 -3.104710
v -9.708728 4.641261 -3.104710
v -9.708728 1.292066 -3.104710
v -9.708728 -5.217952 -3.104710
v -9.708728 -2.057128 -3.104710
v -9.708728 7.303360 -3.104710
v -8.058365 2.194571 0.390340
v -8.982513 2.194571 0.390341
v -8.058365 3.990529 0.390340
v -8.982513 3.990529 0.390341
v -8.058365 2.194571 0.245072
v -8.982513 2.194571 0.245072
v -8.058365 3.990529 0.245072
v -8.982513 3.990529 0.245072
v -3.204758 2.194571 0.390340
v -4.128910 2.194571 0.390341
v -3.204758 3.990529 0.390340
v -4.128910 3.990529 0.390341
v -3.204759 2.194571 0.245072
v -4.128910 2.194571 0.245072
v -3.204759 3.990529 0.245072
v -4.128910 3.990529 0.245072
v 1.648857 2.194571 0.390337
v 0.724706 2.194571 0.390338
v 1.648857 3.990529 0.390337
v 0.724706 3.990529 0.390338
v 1.648857 2.194571 0.245069
v 0.724706 2.194571 0.245069
v 1.648857 3.990529 0.245069
v 0.724706 3.990529 0.245069
v 6.502460 2.194571 0.390337
v 5.578311 2.194571 0.390338
v 6.502460 3.990529 0.390337
v 5.578311 3.990529 0.390338
v 6.502460 2.194571 0.245069
v 5.578311 2.194571 0.245069
v 6.502460 3.990529 0.245069
v 5.578311 3.990529 0.245069
v 8.045722 2.194571 0.390328
v 8.969871 2.194571 0.390328
v 8.045722 3.990529 0.390328
v 8.969871 3.990529 0.390328
v 8.045722 2.194571 0.245060
v 8.969871 2.194571 0.245060
v 8.045722 3.990529 0.245060
v 8.969871 3.990529 0.245060
v 3.192118 2.194571 0.390332
v 4.116267 2.194571 0.390332
v 3.192118 3.990529 0.390332
v 4.116267 3.990529 0.390332
v 3.192118 2.194571 0.245063
v 4.116267 2.194571 0.245063
v 3.192118 3.990529 0.245063
v 4.116267 3.990529 0.245063
v -1.661497 2.194571 0.390331
v -0.737348 2.194571 0.390331
v -1.661497 3.990529 0.390331
v -0.737348 3.990529 0.390331
v -1.661497 2.194571 0.245063
v -0.737348 2.194571 0.245063
v -1.661497 3.990529 0.245063
v -0.737348 3.990529 0.245063
v -6.515103 2.194571 0.390335
v -5.590954 2.194571 0.390335
v -6.515103 3.990529 0.390335
v -5.590954 3.990529 0.390335
v -6.515103 2.194571 0.245066
v -5.590954 2.194571 0.245066
v -6.515103 3.990529 0.245066
v -5.590954 3.990529 0.245066
vn -0.0000 -0.0000 -1.0000
vn -0.0000 -1.0000 -0.0000
vn -0.0000 -0.6499 0.7600
vn -0.0000 -0.0000 1.0000
vn -0.0000 1.0000 -0.0000
vn 1.0000 -0.0000 -0.0000
vn -0.0000 -0.1307 0.9914
vn -1.0000 -0.0000 -0.0000
vn -1.0000 0.0010 -0.0007
vn -1.0000 -0.0000 -0.0014
vn -0.0000 0.8115 0.5843
vn 1.0000 -0.0009 0.0007
vn 1.0000 -0.0000 0.0001
vn 1.0000 -0.0000 0.0014
vt 0.274449 0.733913
vt 0.096739 0.733914
vt 0.096739 0.964603
vt 0.274449 0.964603
vt 0.096739 0.946962
vt 0.274449 0.946962
vt 0.223585 0.259319
vt 0.223585 0.316881
vt 0.459598 0.316881
vt 0.459598 0.259319
vt 0.223585 0.349541
vt 0.459598 0.349541
vt 0.459598 0.340441
vt 0.223585 0.340441
vt 0.223585 0.348647
vt 0.459598 0.348647
vt 0.594535 0.538416
vt 0.761992 0.538416
vt 0.761992 0.549003
vt 0.594535 0.549003
vt 0.394490 0.270789
vt 0.394490 0.099541
vt 0.394490 0.099541
vt 0.394490 0.270789
vt 0.899860 0.801300
vt 0.991755 0.801300
vt 0.991755 0.643633
vt 0.899860 0.643633
vt 0.293487 0.097533
vt 0.293487 0.275106
vt 0.390795 0.275106
vt 0.223585 0.330242
vt 0.459598 0.330242
vt 0.390795 0.097533
vt 0.459598 0.097533
vt 0.223585 0.097533
vt 0.985995 0.643361
vt 0.904888 0.643361
vt 0.904888 0.801347
vt 0.985995 0.801347
vt 0.904500 0.801347
vt 0.985607 0.801347
vt 0.985608 0.643361
vt 0.904500 0.643361
vt 0.993838 0.980168
vt 0.993838 0.815012
vt 0.903335 0.815012
vt 0.903335 0.980168
vt 0.390795 0.275106
vt 0.390795 0.097533
vt 0.995686 0.801300
vt 0.895928 0.801300
vt 0.289792 0.270789
vt 0.289792 0.099541
vt 0.459598 0.021413
vt 0.223585 0.021413
vt 0.289792 0.099541
vt 0.289792 0.270789
vt 0.459598 0.330906
vt 0.223585 0.330906
vt 0.223585 0.339111
vt 0.459598 0.339111
vt 0.964333 0.801356
vt 0.964333 0.643310
vt 0.931925 0.643310
vt 0.931925 0.801356
vt 0.209654 0.079231
vt 0.257126 0.079231
vt 0.257126 0.052698
vt 0.209654 0.052698
vt 0.440658 0.275106
vt 0.243625 0.275106
vt 0.440658 0.097533
vt 0.243625 0.097533
vt 0.962744 0.801347
vt 0.962744 0.643361
vt 0.927752 0.643361
vt 0.927752 0.801347
vt 0.439941 0.636193
vt 0.019178 0.636370
vt 0.020403 0.629986
vt 0.402359 0.628984
vt 0.413199 0.631063
vt 0.000000 0.000000
vt 0.274449 0.977578
vt 0.024511 0.964603
vt 0.274449 0.746888
vt 0.024511 0.733913
vt 0.274449 0.800550
vt 0.024511 0.746888
vt 0.024511 0.917277
vt 0.024511 0.733914
vt 0.348933 0.647051
vt 0.554961 0.647051
vt 0.554961 0.995247
vt 0.348933 0.995247
vt 0.024511 0.733914
vt 0.622784 0.741457
vt 0.622784 0.949137
vt 0.866474 0.949137
vt 0.866474 0.741457
vt 0.866474 0.652431
vt 0.622784 0.652431
vt 0.459528 0.097631
vt 0.459528 0.275280
vt 0.440779 0.275280
vt 0.440779 0.097631
vt 0.223613 0.275280
vt 0.223613 0.097631
vt 0.243598 0.097631
vt 0.243598 0.275280
vt 0.371643 0.328962
vt 0.300369 0.328962
vt 0.300369 0.351751
vt 0.417098 0.351751
vt 0.412083 0.341592
vt 0.300369 0.328953
vt 0.300369 0.351742
vt 0.412083 0.351742
vt 0.412083 0.341582
vt 0.371643 0.328953
vt 0.412083 0.351745
vt 0.412083 0.341586
vt 0.371643 0.328956
vt 0.300369 0.328956
vt 0.300366 0.351745
vt 0.371643 0.328962
vt 0.412083 0.341592
vt 0.300369 0.351751
vt 0.300369 0.328962
vt 0.300369 0.328953
vt 0.371643 0.328953
vt 0.412083 0.341582
vt 0.412083 0.351742
vt 0.300369 0.351742
vt 0.412083 0.351745
vt 0.300369 0.351745
vt 0.300369 0.328956
vt 0.371643 0.328956
vt 0.412083 0.341586
vt 0.295447 0.575527
vt 0.295447 0.407284
vt 0.384908 0.407284
vt 0.224679 0.340384
vt 0.458505 0.340384
vt 0.384908 0.575527
vt 0.458505 0.636487
vt 0.224679 0.636487
vt 0.384908 0.407284
vt 0.384908 0.575527
vt 0.223585 0.337853
vt 0.223585 0.636383
vt 0.223585 0.340014
vt 0.223585 0.635453
s 0
usemtl Material.001
f 340/1/1 2/2/1 1/3/1 338/4/1
f 2/1/1 4/2/1 3/3/1 1/4/1
f 4/1/1 6/2/1 5/3/1 3/4/1
f 6/1/1 8/2/1 7/3/1 5/4/1
f 8/1/1 10/2/1 9/3/1 7/4/1
f 10/1/1 12/2/1 11/3/1 9/4/1
f 12/1/1 14/2/1 13/3/1 11/4/1
f 14/1/1 354/2/1 352/3/1 13/4/1
f 15/1/1 16/2/1 4/3/1 2/4/1
f 16/1/1 17/2/1 6/3/1 4/4/1
f 17/1/1 18/2/1 8/3/1 6/4/1
f 18/1/1 19/2/1 10/3/1 8/4/1
f 19/1/1 20/2/1 12/3/1 10/4/1
f 20/1/1 21/2/1 14/3/1 12/4/1
f 21/1/1 353/2/1 354/3/1 14/4/1
f 339/1/1 15/2/1 2/3/1 340/4/1
f 338/1/1 1/2/1 22/3/1 337/4/1
f 1/1/1 3/2/1 23/3/1 22/4/1
f 3/1/1 5/2/1 24/3/1 23/4/1
f 5/1/1 7/2/1 25/3/1 24/4/1
f 7/1/1 9/2/1 26/3/1 25/4/1
f 9/1/1 11/2/1 27/3/1 26/4/1
f 11/1/1 13/2/1 28/3/1 27/4/1
f 13/1/1 352/2/1 351/3/1 28/4/1
f 22/1/1 23/2/1 344/3/1 343/4/1
f 23/1/1 24/2/1 345/3/1 344/4/1
f 24/1/1 25/2/1 346/3/1 345/4/1
f 25/1/1 26/2/1 347/3/1 346/4/1
f 26/1/1 27/2/1 348/3/1 347/4/1
f 27/1/1 28/2/1 349/3/1 348/4/1
f 28/1/1 351/2/1 355/5/1 350/3/1 349/4/1
f 337/1/1 22/2/1 343/3/1 342/4/1 341/6/1
f 30/7/2 31/8/2 68/9/2 66/10/2
f 68/9/3 31/8/3 33/11/3 72/12/3
f 72/13/4 33/14/4 34/15/4 74/16/4
f 32/17/5 70/18/5 74/19/5 34/20/5
f 51/21/6 53/22/6 57/23/6 55/24/6
f 36/7/2 37/8/2 80/9/2 78/10/2
f 80/9/3 37/8/3 38/11/3 82/12/3
f 82/13/7 38/14/7 39/15/7 84/16/7
f 29/17/5 64/18/5 84/19/5 39/20/5
f 44/25/4 41/26/4 46/27/4 45/28/4
f 44/29/8 43/30/8 49/30/8 50/29/8
f 42/31/4 43/30/4 36/32/4 78/33/4
f 41/34/4 42/31/4 78/33/4 86/35/4
f 43/30/4 44/29/4 40/36/4 36/32/4
f 76/37/4 46/38/4 41/39/4 86/40/4
f 40/41/4 44/42/4 45/43/4 35/44/4
f 48/45/4 47/46/4 50/47/4 49/48/4
f 43/30/2 42/31/2 48/49/2 49/30/2
f 42/31/6 41/34/6 47/50/6 48/49/6
f 41/51/5 44/52/5 50/52/5 47/51/5
f 51/21/4 52/53/4 30/32/4 66/33/4
f 54/54/4 53/22/4 64/55/4 29/56/4
f 52/53/4 54/54/4 29/56/4 30/32/4
f 53/22/4 51/21/4 66/33/4 64/55/4
f 55/24/4 57/23/4 58/57/4 56/58/4
f 52/53/2 51/21/2 55/24/2 56/58/2
f 54/54/8 52/53/8 56/58/8 58/57/8
f 53/22/5 54/54/5 58/57/5 57/23/5
f 107/59/4 60/60/4 59/61/4 105/62/4
f 109/9/3 61/8/3 60/11/3 107/12/3
f 62/7/2 61/8/2 109/9/2 111/10/2
f 65/7/2 66/10/2 68/9/2 67/8/2
f 68/9/3 72/12/3 71/11/3 67/8/3
f 72/13/4 74/16/4 73/15/4 71/14/4
f 69/17/5 73/20/5 74/19/5 70/18/5
f 77/7/2 78/10/2 80/9/2 79/8/2
f 80/9/3 82/12/3 81/11/3 79/8/3
f 82/13/7 84/16/7 83/15/7 81/14/7
f 63/17/5 83/20/5 84/19/5 64/18/5
f 90/25/4 91/28/4 92/27/4 87/26/4
f 90/29/6 96/29/6 95/30/6 89/30/6
f 88/31/4 78/33/4 77/32/4 89/30/4
f 87/34/4 86/35/4 78/33/4 88/31/4
f 89/30/4 77/32/4 85/36/4 90/29/4
f 76/37/4 86/40/4 87/39/4 92/38/4
f 85/41/4 75/44/4 91/43/4 90/42/4
f 94/45/4 95/48/4 96/47/4 93/46/4
f 89/30/2 95/30/2 94/49/2 88/31/2
f 88/31/8 94/49/8 93/50/8 87/34/8
f 87/51/5 93/51/5 96/52/5 90/52/5
f 97/21/4 66/33/4 65/32/4 98/53/4
f 100/54/4 63/56/4 64/55/4 99/22/4
f 98/53/4 65/32/4 63/56/4 100/54/4
f 99/22/4 64/55/4 66/33/4 97/21/4
f 100/22/5 99/54/5 101/57/5 102/23/5
f 107/59/4 105/62/4 106/61/4 108/60/4
f 109/9/3 107/12/3 108/11/3 110/8/3
f 112/7/2 111/10/2 109/9/2 110/8/2
f 99/54/8 97/53/8 103/58/8 101/57/8
f 97/53/2 98/21/2 104/24/2 103/58/2
f 104/24/4 102/23/4 101/57/4 103/58/4
f 98/21/6 100/22/6 102/23/6 104/24/6
f 65/7/2 67/8/2 136/9/2 134/10/2
f 136/9/3 67/8/3 71/11/3 140/12/3
f 140/13/4 71/14/4 73/15/4 142/16/4
f 69/17/5 138/18/5 142/19/5 73/20/5
f 123/21/6 125/22/6 129/23/6 127/24/6
f 77/7/2 79/8/2 148/9/2 146/10/2
f 148/9/3 79/8/3 81/11/3 150/12/3
f 150/13/7 81/14/7 83/15/7 152/16/7
f 63/17/5 132/18/5 152/19/5 83/20/5
f 116/25/4 113/26/4 118/27/4 117/28/4
f 116/29/8 115/30/8 121/30/8 122/29/8
f 114/31/4 115/30/4 77/32/4 146/33/4
f 113/34/4 114/31/4 146/33/4 154/35/4
f 115/30/4 116/29/4 85/36/4 77/32/4
f 144/37/4 118/38/4 113/39/4 154/40/4
f 85/41/4 116/42/4 117/43/4 75/44/4
f 120/45/4 119/46/4 122/47/4 121/48/4
f 115/30/2 114/31/2 120/49/2 121/30/2
f 114/31/6 113/34/6 119/50/6 120/49/6
f 113/51/5 116/52/5 122/52/5 119/51/5
f 123/21/4 124/53/4 65/32/4 134/33/4
f 126/54/4 125/22/4 132/55/4 63/56/4
f 124/53/4 126/54/4 63/56/4 65/32/4
f 125/22/4 123/21/4 134/33/4 132/55/4
f 127/24/4 129/23/4 130/57/4 128/58/4
f 124/53/2 123/21/2 127/24/2 128/58/2
f 126/54/8 124/53/8 128/58/8 130/57/8
f 125/22/5 126/54/5 130/57/5 129/23/5
f 171/59/4 108/60/4 106/61/4 169/62/4
f 173/9/3 110/8/3 108/11/3 171/12/3
f 112/7/2 110/8/2 173/9/2 175/10/2
f 133/7/2 134/10/2 136/9/2 135/8/2
f 136/9/3 140/12/3 139/11/3 135/8/3
f 140/13/4 142/16/4 141/15/4 139/14/4
f 137/17/5 141/20/5 142/19/5 138/18/5
f 145/7/2 146/10/2 148/9/2 147/8/2
f 148/9/3 150/12/3 149/11/3 147/8/3
f 150/13/7 152/16/7 151/15/7 149/14/7
f 131/17/5 151/20/5 152/19/5 132/18/5
f 158/63/6 159/64/6 335/65/6 334/66/6
f 156/67/2 157/68/2 333/69/2 332/70/2
f 156/71/4 146/33/4 145/32/4 157/72/4
f 155/73/4 154/35/4 146/33/4 156/71/4
f 157/72/4 145/32/4 153/36/4 158/74/4
f 144/37/4 154/40/4 155/75/4 160/76/4
f 153/41/4 143/44/4 159/77/4 158/78/4
f 161/21/4 134/33/4 133/32/4 162/53/4
f 164/54/4 131/56/4 132/55/4 163/22/4
f 162/53/4 133/32/4 131/56/4 164/54/4
f 163/22/4 132/55/4 134/33/4 161/21/4
f 164/22/5 163/54/5 165/57/5 166/23/5
f 171/59/4 169/62/4 170/61/4 172/60/4
f 173/9/3 171/12/3 172/11/3 174/8/3
f 176/7/2 175/10/2 173/9/2 174/8/2
f 163/54/8 161/53/8 167/58/8 165/57/8
f 161/53/2 162/21/2 168/24/2 167/58/2
f 168/24/4 166/23/4 165/57/4 167/58/4
f 162/21/6 164/22/6 166/23/6 168/24/6
f 133/7/2 135/8/2 200/9/2 198/10/2
f 200/9/3 135/8/3 139/11/3 204/12/3
f 204/13/4 139/14/4 141/15/4 206/16/4
f 137/17/5 202/18/5 206/19/5 141/20/5
f 187/21/6 189/22/6 193/23/6 191/24/6
f 145/7/2 147/8/2 212/9/2 210/10/2
f 212/9/3 147/8/3 149/11/3 214/12/3
f 214/13/7 149/14/7 151/15/7 216/16/7
f 131/17/5 196/18/5 216/19/5 151/20/5
f 180/25/4 177/26/4 182/27/4 181/28/4
f 180/29/8 179/30/8 185/30/8 186/29/8
f 178/31/4 179/30/4 145/32/4 210/33/4
f 177/34/4 178/31/4 210/33/4 218/35/4
f 179/30/4 180/29/4 153/36/4 145/32/4
f 208/37/4 182/38/4 177/39/4 218/40/4
f 153/41/4 180/42/4 181/43/4 143/44/4
f 184/45/4 183/46/4 186/47/4 185/48/4
f 179/30/2 178/31/2 184/49/2 185/30/2
f 178/31/6 177/34/6 183/50/6 184/49/6
f 177/51/5 180/52/5 186/52/5 183/51/5
f 187/21/4 188/53/4 133/32/4 198/33/4
f 190/54/4 189/22/4 196/55/4 131/56/4
f 188/53/4 190/54/4 131/56/4 133/32/4
f 189/22/4 187/21/4 198/33/4 196/55/4
f 191/24/4 193/23/4 194/57/4 192/58/4
f 188/53/2 187/21/2 191/24/2 192/58/2
f 190/54/8 188/53/8 192/58/8 194/57/8
f 189/22/5 190/54/5 194/57/5 193/23/5
f 239/59/4 172/60/4 170/61/4 237/62/4
f 241/9/3 174/8/3 172/11/3 239/12/3
f 176/7/2 174/8/2 241/9/2 243/10/2
f 197/7/2 198/10/2 200/9/2 199/8/2
f 200/9/3 204/12/3 203/11/3 199/8/3
f 204/13/4 206/16/4 205/15/4 203/14/4
f 201/17/5 205/20/5 206/19/5 202/18/5
f 209/7/2 210/10/2 212/9/2 211/8/2
f 212/9/3 214/12/3 213/11/3 211/8/3
f 214/13/7 216/16/7 215/15/7 213/14/7
f 195/17/5 215/20/5 216/19/5 196/18/5
f 222/25/4 223/28/4 224/27/4 219/26/4
f 222/29/6 228/29/6 227/30/6 221/30/6
f 220/31/4 210/33/4 209/32/4 221/30/4
f 219/34/4 218/35/4 210/33/4 220/31/4
f 221/30/4 209/32/4 217/36/4 222/29/4
f 208/37/4 218/40/4 219/39/4 224/38/4
f 217/41/4 207/44/4 223/43/4 222/42/4
f 226/45/4 227/48/4 228/47/4 225/46/4
f 221/30/2 227/30/2 226/49/2 220/31/2
f 220/31/8 226/49/8 225/50/8 219/34/8
f 219/51/5 225/51/5 228/52/5 222/52/5
f 229/21/4 198/33/4 197/32/4 230/53/4
f 232/54/4 195/56/4 196/55/4 231/22/4
f 230/53/4 197/32/4 195/56/4 232/54/4
f 231/22/4 196/55/4 198/33/4 229/21/4
f 232/22/5 231/54/5 233/57/5 234/23/5
f 239/59/4 237/62/4 238/61/4 240/60/4
f 241/9/3 239/12/3 240/11/3 242/8/3
f 244/7/2 243/10/2 241/9/2 242/8/2
f 231/54/8 229/53/8 235/58/8 233/57/8
f 229/53/2 230/21/2 236/24/2 235/58/2
f 236/24/4 234/23/4 233/57/4 235/58/4
f 230/21/6 232/22/6 234/23/6 236/24/6
f 197/7/2 199/8/2 268/9/2 266/10/2
f 268/9/3 199/8/3 203/11/3 272/12/3
f 272/13/4 203/14/4 205/15/4 274/16/4
f 201/17/5 270/18/5 274/19/5 205/20/5
f 255/21/6 257/22/6 261/23/6 259/24/6
f 209/7/2 211/8/2 280/9/2 278/10/2
f 280/9/3 211/8/3 213/11/3 282/12/3
f 282/13/7 213/14/7 215/15/7 284/16/7
f 195/17/5 264/18/5 284/19/5 215/20/5
f 248/25/4 245/26/4 250/27/4 249/28/4
f 248/29/8 247/30/8 253/30/8 254/29/8
f 246/31/4 247/30/4 209/32/4 278/33/4
f 245/34/4 246/31/4 278/33/4 286/35/4
f 247/30/4 248/29/4 217/36/4 209/32/4
f 276/37/4 250/38/4 245/39/4 286/40/4
f 217/41/4 248/42/4 249/43/4 207/44/4
f 252/45/4 251/46/4 254/47/4 253/48/4
f 247/30/2 246/31/2 252/49/2 253/30/2
f 246/31/6 245/34/6 251/50/6 252/49/6
f 245/51/5 248/52/5 254/52/5 251/51/5
f 255/21/4 256/53/4 197/32/4 266/33/4
f 258/54/4 257/22/4 264/55/4 195/56/4
f 256/53/4 258/54/4 195/56/4 197/32/4
f 257/22/4 255/21/4 266/33/4 264/55/4
f 259/24/4 261/23/4 262/57/4 260/58/4
f 256/53/2 255/21/2 259/24/2 260/58/2
f 258/54/8 256/53/8 260/58/8 262/57/8
f 257/22/5 258/54/5 262/57/5 261/23/5
f 307/59/4 240/60/4 238/61/4 305/62/4
f 310/9/3 242/8/3 240/11/3 307/12/3
f 244/7/2 242/8/2 310/9/2 312/10/2
f 265/7/2 266/10/2 268/9/2 267/8/2
f 268/9/3 272/12/3 271/11/3 267/8/3
f 272/13/4 274/16/4 273/15/4 271/14/4
f 269/17/5 273/20/5 274/19/5 270/18/5
f 277/7/2 278/10/2 280/9/2 279/8/2
f 280/9/3 282/12/3 281/11/3 279/8/3
f 282/13/7 284/16/7 283/15/7 281/14/7
f 263/17/5 283/20/5 284/19/5 264/18/5
f 290/25/4 291/28/4 292/27/4 287/26/4
f 290/29/6 296/29/6 295/30/6 289/30/6
f 288/31/4 278/33/4 277/32/4 289/30/4
f 287/34/4 286/35/4 278/33/4 288/31/4
f 289/30/4 277/32/4 285/36/4 290/29/4
f 276/37/4 286/40/4 287/39/4 292/38/4
f 285/41/4 275/44/4 291/43/4 290/42/4
f 294/45/4 295/48/4 296/47/4 293/46/4
f 289/30/2 295/30/2 294/49/2 288/31/2
f 288/31/8 294/49/8 293/50/8 287/34/8
f 287/51/5 293/51/5 296/52/5 290/52/5
f 297/21/4 266/33/4 265/32/4 298/53/4
f 300/54/4 263/56/4 264/55/4 299/22/4
f 298/53/4 265/32/4 263/56/4 300/54/4
f 299/22/4 264/55/4 266/33/4 297/21/4
f 300/22/5 299/54/5 301/57/5 302/23/5
f 306/79/9 350/80/9 355/81/9 319/82/9 309/83/9
f 307/59/4 305/62/4 306/61/4 308/60/4
f 310/9/3 307/12/3 308/11/3 311/8/3
f 313/7/2 312/10/2 310/9/2 311/8/2
f 299/54/8 297/53/8 303/58/8 301/57/8
f 297/53/2 298/21/2 304/24/2 303/58/2
f 304/24/4 302/23/4 301/57/4 303/58/4
f 298/21/6 300/22/6 302/23/6 304/24/6
f 265/84/8 269/84/8 316/84/8 315/84/8
f 263/56/8 265/32/8 315/32/8 314/56/8
f 309/84/8 319/84/8 320/84/8 313/84/8
f 285/36/8 277/32/8 317/32/8 318/36/8
f 263/84/8 314/84/8 317/84/8 277/84/8
f 319/85/10 351/86/10 320/4/10
f 314/87/10 315/4/10 352/86/10 354/88/10
f 316/85/10 352/86/10 315/4/10
f 321/87/10 318/89/10 317/4/10 354/86/10 353/90/10
f 314/85/10 354/86/10 317/4/10
f 275/44/8 285/41/8 318/41/8 321/44/8
f 319/87/10 355/91/10 351/92/10
f 349/93/11 350/94/11 306/95/11 305/96/11
f 348/93/11 349/94/11 305/95/11 238/96/11
f 347/93/11 348/94/11 238/95/11 237/96/11
f 346/93/11 347/94/11 237/95/11 170/96/11
f 345/93/11 346/94/11 170/95/11 169/96/11
f 344/93/11 345/94/11 169/95/11 106/96/11
f 343/93/11 344/94/11 106/95/11 105/96/11
f 342/93/11 343/94/11 105/95/11 59/96/11
f 59/79/12 322/83/12 328/82/12 341/81/12 342/80/12
f 30/84/13 324/84/13 325/84/13 32/84/13
f 29/56/13 323/56/13 324/32/13 30/32/13
f 322/84/6 62/84/6 329/84/6 328/84/6
f 40/36/13 327/36/13 326/32/13 36/32/13
f 29/84/13 36/84/13 326/84/13 323/84/13
f 328/85/14 329/4/14 337/86/14
f 323/87/14 340/97/14 338/86/14 324/4/14
f 325/85/14 324/4/14 338/86/14
f 330/87/14 339/90/14 340/86/14 326/4/14 327/89/14
f 323/85/14 326/4/14 340/86/14
f 35/44/13 330/44/13 327/41/13 40/41/13
f 328/87/14 337/92/14 341/91/14
f 331/98/4 332/99/4 333/100/4 334/101/4
f 335/102/4 336/103/4 331/98/4 334/101/4
f 155/104/8 156/105/8 332/106/8 331/107/8
f 160/64/8 155/63/8 331/66/8 336/65/8
f 157/108/6 158/109/6 334/110/6 333/111/6
f 37/112/6 36/113/6 29/114/6 39/115/6 38/116/6
f 30/117/6 32/118/6 34/119/6 33/120/6 31/121/6
f 59/122/6 60/123/6 61/124/6 62/125/6 322/126/6
f 279/127/8 281/128/8 283/115/8 263/129/8 277/130/8
f 265/131/8 267/132/8 271/133/8 273/134/8 269/135/8
f 306/136/8 309/137/8 313/138/8 311/139/8 308/140/8
f 359/141/6 357/142/6 361/142/6 363/141/6
f 356/143/4 357/142/4 269/144/4 270/145/4
f 359/141/4 358/146/4 312/147/4 313/148/4
f 358/146/4 356/143/4 270/145/4 312/147/4
f 357/142/4 359/141/4 313/148/4 269/144/4
f 363/141/4 361/142/4 360/149/4 362/150/4
f 356/143/8 358/146/8 362/150/8 360/149/8
f 357/142/5 356/143/5 360/149/5 361/142/5
f 358/146/2 359/141/2 363/141/2 362/150/2
f 367/141/6 365/142/6 369/142/6 371/141/6
f 364/143/4 365/142/4 201/144/4 202/145/4
f 367/141/4 366/146/4 243/147/4 244/148/4
f 366/146/4 364/143/4 202/145/4 243/147/4
f 365/142/4 367/141/4 244/148/4 201/144/4
f 371/141/4 369/142/4 368/149/4 370/150/4
f 364/143/8 366/146/8 370/150/8 368/149/8
f 365/142/5 364/143/5 368/149/5 369/142/5
f 366/146/2 367/141/2 371/141/2 370/150/2
f 375/141/6 373/142/6 377/142/6 379/141/6
f 372/143/4 373/142/4 137/144/4 138/145/4
f 375/141/4 374/146/4 175/147/4 176/148/4
f 374/146/4 372/143/4 138/145/4 175/147/4
f 373/142/4 375/141/4 176/148/4 137/144/4
f 379/141/4 377/142/4 376/149/4 378/150/4
f 372/143/8 374/146/8 378/150/8 376/149/8
f 373/142/5 372/143/5 376/149/5 377/142/5
f 374/146/2 375/141/2 379/141/2 378/150/2
f 383/141/6 381/142/6 385/142/6 387/141/6
f 380/143/4 381/142/4 69/144/4 70/145/4
f 383/141/4 382/146/4 111/147/4 112/148/4
f 382/146/4 380/143/4 70/145/4 111/147/4
f 381/142/4 383/141/4 112/148/4 69/144/4
f 387/141/4 385/142/4 384/149/4 386/150/4
f 380/143/8 382/146/8 386/150/8 384/149/8
f 381/142/5 380/143/5 384/149/5 385/142/5
f 382/146/2 383/141/2 387/141/2 386/150/2
f 316/87/10 320/4/10 351/86/10 352/88/10
f 269/151/8 313/152/8 320/152/8 316/151/8
f 391/141/8 395/141/8 393/142/8 389/142/8
f 388/143/4 70/145/4 32/144/4 389/142/4
f 391/141/4 62/148/4 111/147/4 390/146/4
f 390/146/4 111/147/4 70/145/4 388/143/4
f 389/142/4 32/144/4 62/148/4 391/141/4
f 395/141/4 394/150/4 392/149/4 393/142/4
f 388/143/6 392/149/6 394/150/6 390/146/6
f 389/142/5 393/142/5 392/149/5 388/143/5
f 390/146/2 394/150/2 395/141/2 391/141/2
f 399/141/8 403/141/8 401/142/8 397/142/8
f 396/143/4 138/145/4 69/144/4 397/142/4
f 399/141/4 112/148/4 175/147/4 398/146/4
f 398/146/4 175/147/4 138/145/4 396/143/4
f 397/142/4 69/144/4 112/148/4 399/141/4
f 403/141/4 402/150/4 400/149/4 401/142/4
f 396/143/6 400/149/6 402/150/6 398/146/6
f 397/142/5 401/142/5 400/149/5 396/143/5
f 398/146/2 402/150/2 403/141/2 399/141/2
f 407/141/8 411/141/8 409/142/8 405/142/8
f 404/143/4 202/145/4 137/144/4 405/142/4
f 407/141/4 176/148/4 243/147/4 406/146/4
f 406/146/4 243/147/4 202/145/4 404/143/4
f 405/142/4 137/144/4 176/148/4 407/141/4
f 411/141/4 410/150/4 408/149/4 409/142/4
f 404/143/6 408/149/6 410/150/6 406/146/6
f 405/142/5 409/142/5 408/149/5 404/143/5
f 406/146/2 410/150/2 411/141/2 407/141/2
f 415/141/8 419/141/8 417/142/8 413/142/8
f 412/143/4 270/145/4 201/144/4 413/142/4
f 415/141/4 244/148/4 312/147/4 414/146/4
f 414/146/4 312/147/4 270/145/4 412/143/4
f 413/142/4 201/144/4 244/148/4 415/141/4
f 419/141/4 418/150/4 416/149/4 417/142/4
f 412/143/6 416/149/6 418/150/6 414/146/6
f 413/142/5 417/142/5 416/149/5 412/143/5
f 414/146/2 418/150/2 419/141/2 415/141/2
f 325/87/14 338/97/14 337/86/14 329/4/14
f 32/153/13 325/153/13 329/154/13 62/154/13
