# Blender 5.1.1
# www.blender.org
mtllib PBP1_Building4.mtl
o PBP1_Building4
v 7.276017 -0.332052 -3.138006
v 7.276017 -3.681247 -3.138006
v 4.849219 -0.332052 -3.138004
v 4.849219 -3.681247 -3.138004
v 2.422406 -0.332052 -3.138000
v 2.422406 -3.681247 -3.138000
v -0.004400 -0.332052 -3.137997
v -0.004400 -3.681247 -3.137997
v -2.431214 -0.332052 -3.137993
v -2.431214 -3.681247 -3.137993
v -4.858012 -0.332052 -3.137990
v -4.858012 -3.681247 -3.137990
v -7.284825 -0.332052 -3.137987
v -7.284825 -3.681247 -3.137987
v 7.276017 -6.842071 -3.138006
v 4.849219 -6.842071 -3.138004
v 2.422406 -6.842071 -3.138000
v -0.004400 -6.842071 -3.137997
v -2.431214 -6.842071 -3.137993
v -4.858012 -6.842071 -3.137990
v -7.284825 -6.842071 -3.137987
v 7.276017 3.017142 -3.138006
v 4.849219 3.017142 -3.138004
v 2.422406 3.017142 -3.138000
v -0.004400 3.017142 -3.137997
v -2.431214 3.017142 -3.137993
v -4.858012 3.017142 -3.137990
v -7.284825 3.017142 -3.137987
v 7.276002 6.366338 -3.137997
v 4.849204 6.366338 -3.137997
v 2.422390 6.366338 -3.137997
v -0.004416 6.366338 -3.137998
v -2.431214 6.366338 -3.137997
v -4.858027 6.366338 -3.137997
v -7.284825 6.366338 -3.137997
v 9.697946 -3.492874 0.357048
v 9.697946 -0.332050 0.357048
v 9.697946 -0.332050 0.514367
v 9.697946 -0.143680 0.357048
v 9.697946 -0.227658 0.603626
v 9.697946 -0.143680 0.603626
v 9.697946 -6.842068 0.357048
v 9.697946 -3.681244 0.357048
v 9.697946 -3.681244 0.514367
v 9.697946 -3.576852 0.603626
v 9.697946 -3.492873 0.614695
v 9.697946 -6.062991 0.357048
v 7.986583 -6.062991 0.357048
v 7.986583 -4.245548 0.357048
v 8.982510 -4.245548 0.357048
v 8.982510 -6.062991 0.357048
v 8.982510 -6.842068 0.357048
v 7.986583 -6.842068 0.357048
v 7.986583 -6.062991 0.192643
v 7.986583 -4.245548 0.192643
v 8.982510 -4.245548 0.192643
v 8.982510 -6.062991 0.192643
v 4.844334 -3.492874 0.357050
v 7.271148 -3.492874 0.357049
v 4.844334 -0.332050 0.357050
v 7.271148 -0.332050 0.357049
v 4.844334 -0.332050 0.514368
v 7.271148 -0.332050 0.514367
v 4.844334 -0.143680 0.357050
v 7.271148 -0.143680 0.357049
v 4.844334 -0.227658 0.603628
v 7.271148 -0.227658 0.603627
v 4.844334 -0.143680 0.603628
v 7.271148 -0.143680 0.603627
v 4.844334 -6.842068 0.357050
v 7.271148 -6.842068 0.357049
v 4.844334 -3.681244 0.357050
v 7.271148 -3.681244 0.357049
v 4.844334 -3.681244 0.514368
v 7.271148 -3.681244 0.514367
v 4.844334 -3.576852 0.603628
v 7.271148 -3.576852 0.603627
v 4.844334 -3.492873 0.614696
v 7.271148 -3.492873 0.614695
v 4.844334 -6.062991 0.357050
v 7.271148 -6.062991 0.357049
v 6.555712 -6.062991 0.357049
v 6.555712 -4.245548 0.357049
v 5.559785 -4.245548 0.357050
v 5.559785 -6.062991 0.357050
v 5.559785 -6.842068 0.357050
v 6.555712 -6.842068 0.357049
v 6.555712 -6.062991 0.192644
v 6.555712 -4.245548 0.192644
v 5.559785 -4.245548 0.192645
v 5.559785 -6.062991 0.192645
v 3.132972 -6.062991 0.357050
v 3.132972 -4.245548 0.357050
v 4.128898 -4.245548 0.357050
v 4.128898 -6.062991 0.357050
v 4.128898 -6.842068 0.357050
v 3.132972 -6.842068 0.357050
v 3.132972 -6.062991 0.192645
v 3.132972 -4.245548 0.192645
v 4.128898 -4.245548 0.192645
v 4.128898 -6.062991 0.192645
v -0.009270 -3.492874 0.357052
v 2.417536 -3.492874 0.357050
v -0.009270 -0.332050 0.357052
v 2.417536 -0.332050 0.357050
v -0.009270 -0.332050 0.514370
v 2.417536 -0.332050 0.514368
v -0.009270 -0.143680 0.357052
v 2.417536 -0.143680 0.357050
v -0.009270 -0.227658 0.603630
v 2.417536 -0.227658 0.603628
v -0.009270 -0.143680 0.603630
v 2.417536 -0.143680 0.603628
v -0.009270 -6.842068 0.357052
v 2.417536 -6.842068 0.357050
v -0.009270 -3.681244 0.357052
v 2.417536 -3.681244 0.357050
v -0.009270 -3.681244 0.514370
v 2.417536 -3.681244 0.514368
v -0.009270 -3.576852 0.603630
v 2.417536 -3.576852 0.603628
v -0.009270 -3.492873 0.614698
v 2.417536 -3.492873 0.614697
v -0.009270 -6.062991 0.357052
v 2.417536 -6.062991 0.357050
v 2.212441 -6.062991 0.357051
v 2.212441 -4.245547 0.357051
v 0.195833 -4.245547 0.357051
v 0.195833 -6.062991 0.357051
v 0.195833 -6.842068 0.357051
v 2.212441 -6.842068 0.357051
v -1.720640 -6.062991 0.357051
v -1.720640 -4.245548 0.357051
v -0.724706 -4.245548 0.357051
v -0.724706 -6.062991 0.357051
v -0.724713 -6.842068 0.357051
v -1.720640 -6.842068 0.357051
v -1.720640 -6.062991 0.192646
v -1.720640 -4.245548 0.192646
v -0.724706 -4.245548 0.192646
v -0.724706 -6.062991 0.192646
v -4.862881 -3.492874 0.357053
v -2.436075 -3.492874 0.357052
v -4.862881 -0.332050 0.357053
v -2.436075 -0.332050 0.357052
v -4.862881 -0.332050 0.514371
v -2.436075 -0.332050 0.514370
v -4.862881 -0.143680 0.357053
v -2.436075 -0.143680 0.357052
v -4.862881 -0.227658 0.603631
v -2.436075 -0.227658 0.603630
v -4.862881 -0.143680 0.603631
v -2.436075 -0.143680 0.603630
v -4.862881 -6.842068 0.357053
v -2.436075 -6.842068 0.357052
v -4.862881 -3.681244 0.357053
v -2.436075 -3.681244 0.357052
v -4.862881 -3.681244 0.514371
v -2.436075 -3.681244 0.514370
v -4.862881 -3.576852 0.603631
v -2.436075 -3.576852 0.603630
v -4.862881 -3.492873 0.614700
v -2.436075 -3.492873 0.614698
v -4.862881 -6.062991 0.357053
v -2.436075 -6.062991 0.357052
v -3.151519 -6.062991 0.357052
v -3.151519 -4.245548 0.357052
v -4.147446 -4.245548 0.357053
v -4.147446 -6.062991 0.357053
v -4.147446 -6.842068 0.357053
v -3.151519 -6.842068 0.357052
v -3.151519 -6.062991 0.192647
v -3.151519 -4.245548 0.192647
v -4.147446 -4.245548 0.192648
v -4.147446 -6.062991 0.192648
v -6.574251 -6.062991 0.357053
v -6.574251 -4.245548 0.357053
v -5.578325 -4.245548 0.357053
v -5.578325 -6.062991 0.357053
v -5.578325 -6.842068 0.357053
v -6.574251 -6.842068 0.357053
v -6.574251 -6.062991 0.192648
v -6.574251 -4.245548 0.192648
v -5.578325 -4.245548 0.192648
v -5.578325 -6.062991 0.192648
v -9.716500 -3.492874 0.357055
v -7.289695 -3.492874 0.357053
v -9.716500 -0.332050 0.357055
v -7.289695 -0.332050 0.357053
v -9.716500 -0.332050 0.514373
v -7.289695 -0.332050 0.514372
v -9.716500 -0.143680 0.357055
v -7.289695 -0.143680 0.357053
v -9.716500 -0.227658 0.603633
v -7.289695 -0.227658 0.603631
v -9.716500 -0.143680 0.603633
v -7.289695 -0.143680 0.603631
v -9.716500 -6.842068 0.357055
v -7.289695 -6.842068 0.357053
v -9.716500 -3.681244 0.357055
v -7.289695 -3.681244 0.357053
v -9.716500 -3.681244 0.514373
v -7.289695 -3.681244 0.514372
v -9.716500 -3.576852 0.603633
v -7.289695 -3.576852 0.603631
v -9.716500 -3.492873 0.614701
v -7.289695 -3.492873 0.614700
v -9.716500 -6.062991 0.357055
v -7.289695 -6.062991 0.357053
v -8.005131 -6.062991 0.357054
v -8.005131 -4.245548 0.357054
v -9.001057 -4.245548 0.357054
v -9.001057 -6.062991 0.357054
v -9.001057 -6.842068 0.357054
v -8.005131 -6.842068 0.357054
v -8.005131 -6.062991 0.192649
v -8.005131 -4.245548 0.192649
v -9.001057 -4.245548 0.192649
v -9.001057 -6.062991 0.192649
v -5.593904 2.366412 0.211780
v -6.518053 2.366412 0.211780
v -5.593904 0.570453 0.211780
v -6.518053 0.570453 0.211780
v -5.593904 2.366412 0.357048
v -6.518053 2.366412 0.357048
v -5.593904 0.570453 0.357048
v -6.518053 0.570453 0.357048
v -9.716500 -3.492874 0.275162
v -9.716500 -0.332050 0.275162
v -9.716500 -0.143680 0.275162
v -9.716500 -3.681244 0.275162
v -9.716500 -6.062991 0.275162
v -0.740300 2.366412 0.211777
v -1.664449 2.366412 0.211777
v -9.716500 -6.842068 0.257109
v -0.740300 0.570453 0.211777
v 9.697961 -3.492874 0.275148
v 9.697961 -0.332050 0.275148
v 9.697961 -0.143680 0.275148
v 9.697961 -3.681244 0.275148
v 9.697961 -6.062991 0.275148
v -1.664449 0.570453 0.211777
v -0.740300 2.366412 0.357045
v 9.697961 -6.842068 0.257095
v 2.212441 -6.062991 0.175850
v 2.212441 -4.245547 0.175850
v 0.195833 -4.245547 0.175851
v 0.195833 -6.062991 0.175851
v 0.195833 -6.842068 0.175851
v 2.212441 -6.842068 0.175850
v -1.664449 2.366412 0.357045
v 9.702785 -0.332051 -3.137996
v 9.702785 -6.842069 -3.137996
v 9.702785 -3.681245 -3.137996
v -0.740300 0.570453 0.357045
v -1.664449 0.570453 0.357045
v 4.113312 2.366412 0.211777
v 3.189163 2.366412 0.211777
v 4.113312 0.570453 0.211777
v 3.189163 0.570453 0.211777
v 4.113312 2.366412 0.357045
v 3.189163 2.366412 0.357045
v 4.113312 0.570453 0.357045
v 3.189163 0.570453 0.357045
v 8.966924 2.366412 0.211774
v -9.711678 -0.332051 -3.137996
v -9.711678 -6.842069 -3.137996
v -9.711678 -3.681245 -3.137996
v 8.042774 2.366412 0.211774
v 8.966924 0.570453 0.211774
v 8.042774 0.570453 0.211774
v 8.966924 2.366412 0.357042
v 8.042774 2.366412 0.357042
v 8.966924 0.570453 0.357042
v 8.042774 0.570453 0.357042
v 5.575356 2.366412 0.211783
v 6.499506 2.366412 0.211782
v 5.575356 0.570453 0.211783
v 6.499506 0.570453 0.211782
v 5.575356 2.366412 0.357051
v 6.499506 2.366412 0.357051
v 5.575356 0.570453 0.357051
v 6.499506 0.570453 0.357051
v 0.721752 2.366412 0.211783
v 1.645909 2.366412 0.211782
v 0.721752 0.570453 0.211783
v 1.645909 0.570453 0.211782
v 0.721752 2.366412 0.357051
v 1.645909 2.366412 0.357051
v 0.721752 0.570453 0.357051
v 1.645909 0.570453 0.357051
v -4.131859 2.366412 0.211786
v -3.207710 2.366412 0.211785
v -4.131859 0.570453 0.211786
v -3.207710 0.570453 0.211785
v -4.131859 2.366412 0.357054
v -3.207710 2.366412 0.357054
v -4.131859 0.570453 0.357054
v -3.207710 0.570453 0.357054
v -8.985463 2.366412 0.211786
v -8.061314 2.366412 0.211785
v -8.985463 0.570453 0.211786
v -8.061314 0.570453 0.211785
v -8.985463 2.366412 0.357054
v -8.061314 2.366412 0.357054
v -8.985463 0.570453 0.357054
v -8.061314 0.570453 0.357054
v -9.711678 3.017144 -3.137996
v 9.702785 3.017144 -3.137996
v 9.697961 3.017144 0.275148
v -9.716500 3.017144 0.275162
v -9.716500 3.017144 0.357055
v -7.289695 3.017144 0.357053
v -4.862881 3.017144 0.357053
v -2.436075 3.017144 0.357052
v -0.009270 3.017144 0.357052
v 2.417536 3.017144 0.357050
v 4.844334 3.017144 0.357050
v 7.271148 3.017144 0.357049
v 9.697946 3.017144 0.357048
v 9.697946 6.554708 0.603626
v 9.697946 6.470729 0.603626
v 9.697946 6.366338 0.514367
v 9.697946 6.366338 0.357048
v 7.271148 6.554708 0.603627
v 4.844334 6.554708 0.603628
v 7.271148 6.470729 0.603627
v 4.844334 6.470729 0.603628
v 7.271148 6.366338 0.514367
v 4.844334 6.366338 0.514368
v 7.271148 6.366338 0.357049
v 4.844334 6.366338 0.357050
v 2.417536 6.554708 0.603628
v -0.009270 6.554708 0.603630
v 2.417536 6.470729 0.603628
v -0.009270 6.470729 0.603630
v 2.417536 6.366338 0.514368
v -0.009270 6.366338 0.514370
v 2.417536 6.366338 0.357050
v -0.009270 6.366338 0.357052
v -2.436075 6.554708 0.603630
v -4.862881 6.554708 0.603631
v -2.436075 6.470729 0.603630
v -4.862881 6.470729 0.603631
v -2.436075 6.366338 0.514370
v -4.862881 6.366338 0.514371
v -2.436075 6.366338 0.357052
v -4.862881 6.366338 0.357053
v -7.289695 6.554708 0.603631
v -9.716500 6.554708 0.603633
v -7.289695 6.470729 0.603631
v -9.716500 6.470729 0.603633
v -9.716500 6.554708 0.357055
v -7.289695 6.366338 0.514372
v -9.716500 6.366338 0.514373
v -7.289695 6.366338 0.357053
v -9.716500 6.366338 0.357055
v -9.716500 6.554708 0.275162
v -9.716500 6.366338 0.275162
v 9.697961 6.554708 0.357041
v 9.697961 6.554708 0.275148
v 9.697961 6.366338 0.275148
v 9.702785 6.366338 -3.137996
v 9.702785 9.028439 -3.137996
v 9.702785 9.248866 -3.137996
v 7.275971 9.248866 -3.137996
v 4.849157 9.248866 -3.137996
v 2.422359 9.248866 -3.137996
v -0.004454 9.248866 -3.137996
v -2.431260 9.248866 -3.137996
v -4.858066 9.248866 -3.137996
v -7.284872 9.248866 -3.137996
v -9.711678 9.248866 -3.137996
v -9.711678 6.366338 -3.137996
v -9.711678 9.028439 -3.137996
v -8.061314 3.919647 0.357054
v -8.985463 3.919647 0.357054
v -8.061314 5.715606 0.357054
v -8.985463 5.715606 0.357054
v -8.061314 3.919647 0.211785
v -8.985463 3.919647 0.211786
v -8.061314 5.715606 0.211785
v -8.985463 5.715606 0.211786
v -3.207710 3.919647 0.357054
v -4.131859 3.919647 0.357054
v -3.207710 5.715606 0.357054
v -4.131859 5.715606 0.357054
v -3.207710 3.919647 0.211785
v -4.131859 3.919647 0.211786
v -3.207710 5.715606 0.211785
v -4.131859 5.715606 0.211786
v 1.645909 3.919647 0.357051
v 0.721752 3.919647 0.357051
v 1.645909 5.715606 0.357051
v 0.721752 5.715606 0.357051
v 1.645909 3.919647 0.211782
v 0.721752 3.919647 0.211783
v 1.645909 5.715606 0.211782
v 0.721752 5.715606 0.211783
v 6.499506 3.919647 0.357051
v 5.575356 3.919647 0.357051
v 6.499506 5.715606 0.357051
v 5.575356 5.715606 0.357051
v 6.499506 3.919647 0.211782
v 5.575356 3.919647 0.211783
v 6.499506 5.715606 0.211782
v 5.575356 5.715606 0.211783
v 8.042774 3.919647 0.357042
v 8.966924 3.919647 0.357042
v 8.042774 5.715606 0.357042
v 8.966924 5.715606 0.357042
v 8.042774 3.919647 0.211774
v 8.966924 3.919647 0.211774
v 8.042774 5.715606 0.211774
v 8.966924 5.715606 0.211774
v 3.189163 3.919647 0.357045
v 4.113312 3.919647 0.357045
v 3.189163 5.715606 0.357045
v 4.113312 5.715606 0.357045
v 3.189163 3.919647 0.211777
v 4.113312 3.919647 0.211777
v 3.189163 5.715606 0.211777
v 4.113312 5.715606 0.211777
v -1.664449 3.919647 0.357045
v -0.740300 3.919647 0.357045
v -1.664449 5.715606 0.357045
v -0.740300 5.715606 0.357045
v -1.664449 3.919647 0.211777
v -0.740300 3.919647 0.211777
v -1.664449 5.715606 0.211777
v -0.740300 5.715606 0.211777
v -6.518053 3.919647 0.357048
v -5.593904 3.919647 0.357048
v -6.518053 5.715606 0.357048
v -5.593904 5.715606 0.357048
v -6.518053 3.919647 0.211780
v -5.593904 3.919647 0.211780
v -6.518053 5.715606 0.211780
v -5.593904 5.715606 0.211780
v 9.697946 3.017143 0.514367
v 9.697946 3.205514 0.357048
v 9.697946 3.121536 0.603626
v 9.697946 3.205514 0.603626
v 4.844334 3.017143 0.514368
v 7.271148 3.017143 0.514367
v 4.844334 3.205514 0.357050
v 7.271148 3.205514 0.357049
v 4.844334 3.121536 0.603628
v 7.271148 3.121536 0.603627
v 4.844334 3.205514 0.603628
v 7.271148 3.205514 0.603627
v -0.009270 3.017143 0.514370
v 2.417536 3.017143 0.514368
v -0.009270 3.205514 0.357052
v 2.417536 3.205514 0.357050
v -0.009270 3.121536 0.603630
v 2.417536 3.121536 0.603628
v -0.009270 3.205514 0.603630
v 2.417536 3.205514 0.603628
v -4.862881 3.017143 0.514371
v -2.436075 3.017143 0.514370
v -4.862881 3.205514 0.357053
v -2.436075 3.205514 0.357052
v -4.862881 3.121536 0.603631
v -2.436075 3.121536 0.603630
v -4.862881 3.205514 0.603631
v -2.436075 3.205514 0.603630
v -9.716500 3.017143 0.514373
v -7.289695 3.017143 0.514372
v -9.716500 3.205514 0.357055
v -7.289695 3.205514 0.357053
v -9.716500 3.121536 0.603633
v -7.289695 3.121536 0.603631
v -9.716500 3.205514 0.603633
v -7.289695 3.205514 0.603631
v -9.716500 3.205514 0.275162
v 9.697961 3.205514 0.275148
v 1.204129 -4.245547 0.175850
v 1.204129 -6.842068 0.175850
v -5.593904 -0.982782 0.211780
v -6.518053 -0.982782 0.211780
v -5.593904 -2.778741 0.211780
v -6.518053 -2.778741 0.211780
v -5.593904 -0.982782 0.357048
v -6.518053 -0.982782 0.357048
v -5.593904 -2.778741 0.357048
v -6.518053 -2.778741 0.357048
v -0.740300 -0.982782 0.211777
v -1.664449 -0.982782 0.211777
v -0.740300 -2.778741 0.211777
v -1.664449 -2.778741 0.211777
v -0.740300 -0.982782 0.357045
v -1.664449 -0.982782 0.357045
v -0.740300 -2.778741 0.357045
v -1.664449 -2.778741 0.357045
v 4.113312 -0.982782 0.211777
v 3.189163 -0.982782 0.211777
v 4.113312 -2.778741 0.211777
v 3.189163 -2.778741 0.211777
v 4.113312 -0.982782 0.357045
v 3.189163 -0.982782 0.357045
v 4.113312 -2.778741 0.357045
v 3.189163 -2.778741 0.357045
v 8.966924 -0.982782 0.211774
v 8.042774 -0.982782 0.211774
v 8.966924 -2.778741 0.211774
v 8.042774 -2.778741 0.211774
v 8.966924 -0.982782 0.357042
v 8.042774 -0.982782 0.357042
v 8.966924 -2.778741 0.357042
v 8.042774 -2.778741 0.357042
v 5.575356 -0.982782 0.211783
v 6.499506 -0.982782 0.211782
v 5.575356 -2.778741 0.211783
v 6.499506 -2.778741 0.211782
v 5.575356 -0.982782 0.357051
v 6.499506 -0.982782 0.357051
v 5.575356 -2.778741 0.357051
v 6.499506 -2.778741 0.357051
v 0.721752 -0.982782 0.211783
v 1.645909 -0.982782 0.211782
v 0.721752 -2.778741 0.211783
v 1.645909 -2.778741 0.211782
v 0.721752 -0.982782 0.357051
v 1.645909 -0.982782 0.357051
v 0.721752 -2.778741 0.357051
v 1.645909 -2.778741 0.357051
v -4.131859 -0.982782 0.211786
v -3.207710 -0.982782 0.211785
v -4.131859 -2.778741 0.211786
v -3.207710 -2.778741 0.211785
v -4.131859 -0.982782 0.357054
v -3.207710 -0.982782 0.357054
v -4.131859 -2.778741 0.357054
v -3.207710 -2.778741 0.357054
v -8.985463 -0.982782 0.211786
v -8.061314 -0.982782 0.211785
v -8.985463 -2.778741 0.211786
v -8.061314 -2.778741 0.211785
v -8.985463 -0.982782 0.357054
v -8.061314 -0.982782 0.357054
v -8.985463 -2.778741 0.357054
v -8.061314 -2.778741 0.357054
vn -0.0000 -0.0000 -1.0000
vn -0.0000 -1.0000 -0.0000
vn -0.0000 -0.6499 0.7600
vn -0.0000 -0.0000 1.0000
vn -0.0000 1.0000 -0.0000
vn -0.0000 -0.1307 0.9914
vn -1.0000 -0.0000 -0.0000
vn 1.0000 -0.0000 -0.0000
vn -1.0000 -0.0000 -0.0014
vn 1.0000 -0.0000 0.0002
vn 1.0000 -0.0000 0.0014
vn -1.0000 0.0010 -0.0007
vn -0.0000 0.8115 0.5843
vn 1.0000 -0.0009 0.0007
vn 1.0000 -0.0000 0.0001
vt 0.274449 0.733913
vt 0.096739 0.733914
vt 0.096739 0.964603
vt 0.274449 0.964603
vt 0.274449 0.725916
vt 0.096739 0.725916
vt 0.096739 0.993953
vt 0.274449 0.993953
vt 0.096739 0.993953
vt 0.096739 0.993953
vt 0.274449 0.993953
vt 0.096739 0.993953
vt 0.274449 0.993953
vt 0.096739 0.993953
vt 0.274449 0.993953
vt 0.096738 0.993953
vt 0.274448 0.993953
vt 0.096739 0.973456
vt 0.274448 0.973456
vt 0.223585 0.259319
vt 0.223585 0.316881
vt 0.459598 0.316881
vt 0.459598 0.259319
vt 0.223585 0.349541
vt 0.459598 0.349541
vt 0.459598 0.340441
vt 0.223585 0.340441
vt 0.223585 0.348647
vt 0.459598 0.348647
vt 0.594535 0.538416
vt 0.761992 0.538416
vt 0.761992 0.549003
vt 0.594535 0.549003
vt 0.899860 0.801300
vt 0.991755 0.801300
vt 0.991755 0.643633
vt 0.899860 0.643633
vt 0.293487 0.097533
vt 0.293487 0.275106
vt 0.390795 0.275106
vt 0.223585 0.330242
vt 0.459598 0.330242
vt 0.390795 0.097533
vt 0.459598 0.097533
vt 0.223585 0.097533
vt 0.985995 0.643361
vt 0.904888 0.643361
vt 0.904888 0.801347
vt 0.985995 0.801347
vt 0.904500 0.801347
vt 0.985607 0.801347
vt 0.985608 0.643361
vt 0.904500 0.643361
vt 0.993838 0.980168
vt 0.993838 0.815012
vt 0.903335 0.815012
vt 0.903335 0.980168
vt 0.390795 0.275106
vt 0.390795 0.097533
vt 0.995686 0.801300
vt 0.895928 0.801300
vt 0.964333 0.801356
vt 0.964333 0.643310
vt 0.931925 0.643310
vt 0.931925 0.801356
vt 0.209654 0.079231
vt 0.257126 0.079231
vt 0.257126 0.052698
vt 0.233390 0.052698
vt 0.209654 0.052698
vt 0.440658 0.275106
vt 0.243625 0.275106
vt 0.440658 0.097533
vt 0.243625 0.097533
vt 0.962744 0.801347
vt 0.962744 0.643361
vt 0.927752 0.643361
vt 0.927752 0.801347
vt 0.000000 0.000000
vt 0.274449 0.746888
vt 0.274449 0.800550
vt 0.024511 0.964603
vt 0.024511 0.746888
vt 0.274449 0.977578
vt 0.744629 0.652431
vt 0.744629 0.949137
vt 0.866474 0.949137
vt 0.866474 0.741457
vt 0.745107 0.652485
vt 0.865969 0.652485
vt 0.865969 0.741510
vt 0.459528 0.097631
vt 0.459528 0.275280
vt 0.440779 0.275280
vt 0.440779 0.097631
vt 0.223613 0.275280
vt 0.223613 0.097631
vt 0.243598 0.097631
vt 0.243598 0.275280
vt 0.371643 0.328962
vt 0.300369 0.328962
vt 0.300369 0.351751
vt 0.417098 0.351751
vt 0.412083 0.341592
vt 0.300369 0.328953
vt 0.300369 0.351742
vt 0.412083 0.351742
vt 0.412083 0.341582
vt 0.371643 0.328953
vt 0.371643 0.328962
vt 0.412083 0.341592
vt 0.300369 0.351751
vt 0.300369 0.328962
vt 0.300369 0.328953
vt 0.371643 0.328953
vt 0.412083 0.341582
vt 0.412083 0.351742
vt 0.300369 0.351742
vt 0.223585 0.340014
vt 0.223585 0.635453
vt 0.024511 0.733914
vt 0.161680 0.575527
vt 0.161680 0.575527
vt 0.072218 0.575527
vt 0.072218 0.407284
vt 0.161680 0.407284
vt 0.161680 0.407284
vt 0.001451 0.340384
vt 0.001451 0.636487
vt 0.236375 0.636487
vt 0.236375 0.340384
vt 0.223585 0.337853
vt 0.223585 0.636383
vt 0.024511 0.733913
vt 0.459598 0.330906
vt 0.223585 0.330906
vt 0.223585 0.339111
vt 0.459598 0.339111
vt 0.439941 0.636193
vt 0.019178 0.636370
vt 0.020403 0.629986
vt 0.402359 0.628984
vt 0.413199 0.631063
vt 0.024511 0.917277
vt 0.024511 0.733914
vt 0.348933 0.647051
vt 0.554961 0.647051
vt 0.554961 0.995247
vt 0.348933 0.995247
vt 0.412083 0.351745
vt 0.412083 0.341586
vt 0.371643 0.328956
vt 0.300369 0.328956
vt 0.300366 0.351745
vt 0.412083 0.351745
vt 0.300369 0.351745
vt 0.300369 0.328956
vt 0.371643 0.328956
vt 0.412083 0.341586
vt 0.866474 0.652431
vt 0.744629 0.652431
vt 0.865969 0.949191
vt 0.745107 0.949191
vt 0.745107 0.652485
s 0
usemtl Material.001
f 254/1/1 2/2/1 1/3/1 252/4/1
f 2/1/1 4/2/1 3/3/1 1/4/1
f 4/1/1 6/2/1 5/3/1 3/4/1
f 6/1/1 8/2/1 7/3/1 5/4/1
f 8/1/1 10/2/1 9/3/1 7/4/1
f 10/1/1 12/2/1 11/3/1 9/4/1
f 12/1/1 14/2/1 13/3/1 11/4/1
f 14/1/1 268/2/1 266/3/1 13/4/1
f 15/1/1 16/2/1 4/3/1 2/4/1
f 16/1/1 17/2/1 6/3/1 4/4/1
f 17/1/1 18/2/1 8/3/1 6/4/1
f 18/1/1 19/2/1 10/3/1 8/4/1
f 19/1/1 20/2/1 12/3/1 10/4/1
f 20/1/1 21/2/1 14/3/1 12/4/1
f 21/1/1 267/2/1 268/3/1 14/4/1
f 253/1/1 15/2/1 2/3/1 254/4/1
f 252/1/1 1/2/1 22/3/1 309/4/1
f 1/1/1 3/2/1 23/3/1 22/4/1
f 3/1/1 5/2/1 24/3/1 23/4/1
f 5/1/1 7/2/1 25/3/1 24/4/1
f 7/1/1 9/2/1 26/3/1 25/4/1
f 9/1/1 11/2/1 27/3/1 26/4/1
f 11/1/1 13/2/1 28/3/1 27/4/1
f 13/1/1 266/2/1 308/3/1 28/4/1
f 22/5/1 23/6/1 30/7/1 29/8/1
f 23/5/1 24/6/1 31/7/1 30/8/1
f 24/5/1 25/6/1 32/9/1 31/8/1
f 25/5/1 26/6/1 33/10/1 32/11/1
f 26/5/1 27/6/1 34/12/1 33/13/1
f 27/5/1 28/6/1 35/12/1 34/13/1
f 28/5/1 308/6/1 374/14/1 35/15/1
f 309/5/1 22/6/1 29/16/1 363/17/1
f 29/5/1 30/6/1 367/7/1 366/8/1
f 30/5/1 31/6/1 368/7/1 367/8/1
f 31/5/1 32/6/1 369/9/1 368/8/1
f 32/5/1 33/6/1 370/10/1 369/11/1
f 33/5/1 34/6/1 371/12/1 370/13/1
f 34/5/1 35/6/1 372/12/1 371/13/1
f 35/5/1 374/6/1 375/18/1 373/14/1 372/15/1
f 363/5/1 29/6/1 366/16/1 365/17/1 364/19/1
f 37/20/2 38/21/2 63/22/2 61/23/2
f 63/22/3 38/21/3 40/24/3 67/25/3
f 67/26/4 40/27/4 41/28/4 69/29/4
f 39/30/5 65/31/5 69/32/5 41/33/5
f 43/20/2 44/21/2 75/22/2 73/23/2
f 75/22/3 44/21/3 45/24/3 77/25/3
f 77/26/6 45/27/6 46/28/6 79/29/6
f 36/30/5 59/31/5 79/32/5 46/33/5
f 51/34/4 48/35/4 53/36/4 52/37/4
f 51/38/7 50/39/7 56/39/7 57/38/7
f 49/40/4 50/39/4 43/41/4 73/42/4
f 48/43/4 49/40/4 73/42/4 81/44/4
f 50/39/4 51/38/4 47/45/4 43/41/4
f 71/46/4 53/47/4 48/48/4 81/49/4
f 47/50/4 51/51/4 52/52/4 42/53/4
f 55/54/4 54/55/4 57/56/4 56/57/4
f 50/39/2 49/40/2 55/58/2 56/39/2
f 49/40/8 48/43/8 54/59/8 55/58/8
f 48/60/5 51/61/5 57/61/5 54/60/5
f 60/20/2 61/23/2 63/22/2 62/21/2
f 63/22/3 67/25/3 66/24/3 62/21/3
f 67/26/4 69/29/4 68/28/4 66/27/4
f 64/30/5 68/33/5 69/32/5 65/31/5
f 72/20/2 73/23/2 75/22/2 74/21/2
f 75/22/3 77/25/3 76/24/3 74/21/3
f 77/26/6 79/29/6 78/28/6 76/27/6
f 58/30/5 78/33/5 79/32/5 59/31/5
f 85/34/4 86/37/4 87/36/4 82/35/4
f 85/38/8 91/38/8 90/39/8 84/39/8
f 83/40/4 73/42/4 72/41/4 84/39/4
f 82/43/4 81/44/4 73/42/4 83/40/4
f 84/39/4 72/41/4 80/45/4 85/38/4
f 71/46/4 81/49/4 82/48/4 87/47/4
f 80/50/4 70/53/4 86/52/4 85/51/4
f 89/54/4 90/57/4 91/56/4 88/55/4
f 84/39/2 90/39/2 89/58/2 83/40/2
f 83/40/7 89/58/7 88/59/7 82/43/7
f 82/60/5 88/60/5 91/61/5 85/61/5
f 60/20/2 62/21/2 107/22/2 105/23/2
f 107/22/3 62/21/3 66/24/3 111/25/3
f 111/26/4 66/27/4 68/28/4 113/29/4
f 64/30/5 109/31/5 113/32/5 68/33/5
f 72/20/2 74/21/2 119/22/2 117/23/2
f 119/22/3 74/21/3 76/24/3 121/25/3
f 121/26/6 76/27/6 78/28/6 123/29/6
f 58/30/5 103/31/5 123/32/5 78/33/5
f 95/34/4 92/35/4 97/36/4 96/37/4
f 95/38/7 94/39/7 100/39/7 101/38/7
f 93/40/4 94/39/4 72/41/4 117/42/4
f 92/43/4 93/40/4 117/42/4 125/44/4
f 94/39/4 95/38/4 80/45/4 72/41/4
f 115/46/4 97/47/4 92/48/4 125/49/4
f 80/50/4 95/51/4 96/52/4 70/53/4
f 99/54/4 98/55/4 101/56/4 100/57/4
f 94/39/2 93/40/2 99/58/2 100/39/2
f 93/40/8 92/43/8 98/59/8 99/58/8
f 92/60/5 95/61/5 101/61/5 98/60/5
f 104/20/2 105/23/2 107/22/2 106/21/2
f 107/22/3 111/25/3 110/24/3 106/21/3
f 111/26/4 113/29/4 112/28/4 110/27/4
f 108/30/5 112/33/5 113/32/5 109/31/5
f 116/20/2 117/23/2 119/22/2 118/21/2
f 119/22/3 121/25/3 120/24/3 118/21/3
f 121/26/6 123/29/6 122/28/6 120/27/6
f 102/30/5 122/33/5 123/32/5 103/31/5
f 129/62/8 130/63/8 249/64/8 248/65/8
f 127/66/2 128/67/2 247/68/2 478/69/2 246/70/2
f 127/71/4 117/42/4 116/41/4 128/72/4
f 126/73/4 125/44/4 117/42/4 127/71/4
f 128/72/4 116/41/4 124/45/4 129/74/4
f 115/46/4 125/49/4 126/75/4 131/76/4
f 124/50/4 114/53/4 130/77/4 129/78/4
f 104/20/2 106/21/2 147/22/2 145/23/2
f 147/22/3 106/21/3 110/24/3 151/25/3
f 151/26/4 110/27/4 112/28/4 153/29/4
f 108/30/5 149/31/5 153/32/5 112/33/5
f 116/20/2 118/21/2 159/22/2 157/23/2
f 159/22/3 118/21/3 120/24/3 161/25/3
f 161/26/6 120/27/6 122/28/6 163/29/6
f 102/30/5 143/31/5 163/32/5 122/33/5
f 135/34/4 132/35/4 137/36/4 136/37/4
f 135/38/7 134/39/7 140/39/7 141/38/7
f 133/40/4 134/39/4 116/41/4 157/42/4
f 132/43/4 133/40/4 157/42/4 165/44/4
f 134/39/4 135/38/4 124/45/4 116/41/4
f 155/46/4 137/47/4 132/48/4 165/49/4
f 124/50/4 135/51/4 136/52/4 114/53/4
f 139/54/4 138/55/4 141/56/4 140/57/4
f 134/39/2 133/40/2 139/58/2 140/39/2
f 133/40/8 132/43/8 138/59/8 139/58/8
f 132/60/5 135/61/5 141/61/5 138/60/5
f 144/20/2 145/23/2 147/22/2 146/21/2
f 147/22/3 151/25/3 150/24/3 146/21/3
f 151/26/4 153/29/4 152/28/4 150/27/4
f 148/30/5 152/33/5 153/32/5 149/31/5
f 156/20/2 157/23/2 159/22/2 158/21/2
f 159/22/3 161/25/3 160/24/3 158/21/3
f 161/26/6 163/29/6 162/28/6 160/27/6
f 142/30/5 162/33/5 163/32/5 143/31/5
f 169/34/4 170/37/4 171/36/4 166/35/4
f 169/38/8 175/38/8 174/39/8 168/39/8
f 167/40/4 157/42/4 156/41/4 168/39/4
f 166/43/4 165/44/4 157/42/4 167/40/4
f 168/39/4 156/41/4 164/45/4 169/38/4
f 155/46/4 165/49/4 166/48/4 171/47/4
f 164/50/4 154/53/4 170/52/4 169/51/4
f 173/54/4 174/57/4 175/56/4 172/55/4
f 168/39/2 174/39/2 173/58/2 167/40/2
f 167/40/7 173/58/7 172/59/7 166/43/7
f 166/60/5 172/60/5 175/61/5 169/61/5
f 144/20/2 146/21/2 191/22/2 189/23/2
f 191/22/3 146/21/3 150/24/3 195/25/3
f 195/26/4 150/27/4 152/28/4 197/29/4
f 148/30/5 193/31/5 197/32/5 152/33/5
f 156/20/2 158/21/2 203/22/2 201/23/2
f 203/22/3 158/21/3 160/24/3 205/25/3
f 205/26/6 160/27/6 162/28/6 207/29/6
f 142/30/5 187/31/5 207/32/5 162/33/5
f 179/34/4 176/35/4 181/36/4 180/37/4
f 179/38/7 178/39/7 184/39/7 185/38/7
f 177/40/4 178/39/4 156/41/4 201/42/4
f 176/43/4 177/40/4 201/42/4 209/44/4
f 178/39/4 179/38/4 164/45/4 156/41/4
f 199/46/4 181/47/4 176/48/4 209/49/4
f 164/50/4 179/51/4 180/52/4 154/53/4
f 183/54/4 182/55/4 185/56/4 184/57/4
f 178/39/2 177/40/2 183/58/2 184/39/2
f 177/40/8 176/43/8 182/59/8 183/58/8
f 176/60/5 179/61/5 185/61/5 182/60/5
f 188/20/2 189/23/2 191/22/2 190/21/2
f 191/22/3 195/25/3 194/24/3 190/21/3
f 195/26/4 197/29/4 196/28/4 194/27/4
f 192/30/5 196/33/5 197/32/5 193/31/5
f 200/20/2 201/23/2 203/22/2 202/21/2
f 203/22/3 205/25/3 204/24/3 202/21/3
f 205/26/6 207/29/6 206/28/6 204/27/6
f 186/30/5 206/33/5 207/32/5 187/31/5
f 213/34/4 214/37/4 215/36/4 210/35/4
f 213/38/8 219/38/8 218/39/8 212/39/8
f 211/40/4 201/42/4 200/41/4 212/39/4
f 210/43/4 209/44/4 201/42/4 211/40/4
f 212/39/4 200/41/4 208/45/4 213/38/4
f 199/46/4 209/49/4 210/48/4 215/47/4
f 208/50/4 198/53/4 214/52/4 213/51/4
f 217/54/4 218/57/4 219/56/4 216/55/4
f 212/39/2 218/39/2 217/58/2 211/40/2
f 211/40/7 217/58/7 216/59/7 210/43/7
f 210/60/5 216/60/5 219/61/5 213/61/5
f 188/79/7 192/79/7 230/79/7 229/79/7
f 208/45/7 200/41/7 231/41/7 232/45/7
f 186/79/7 228/79/7 231/79/7 200/79/7
f 235/80/9 232/81/9 231/4/9 268/82/9 267/83/9
f 198/53/7 208/50/7 232/50/7 235/53/7
f 37/79/10 238/79/10 239/79/10 39/79/10
f 47/45/10 241/45/10 240/41/10 43/41/10
f 36/79/10 43/79/10 240/79/10 237/79/10
f 239/84/11 238/4/11 252/82/11
f 244/80/11 253/83/11 254/82/11 240/4/11 241/81/11
f 237/84/11 240/4/11 254/82/11
f 42/53/10 244/53/10 241/50/10 47/50/10
f 479/85/4 478/86/4 247/87/4 248/88/4
f 479/89/4 250/90/4 245/91/4
f 126/92/7 127/93/7 246/94/7 245/95/7
f 131/63/7 126/62/7 245/65/7 250/64/7
f 128/96/8 129/97/8 248/98/8 247/99/8
f 44/100/8 43/101/8 36/102/8 46/103/8 45/104/8
f 37/105/8 39/106/8 41/107/8 40/108/8 38/109/8
f 202/110/7 204/111/7 206/103/7 186/112/7 200/113/7
f 188/114/7 190/115/7 194/116/7 196/117/7 192/118/7
f 39/119/10 239/119/10 310/120/10 320/120/10
f 239/80/11 252/121/11 309/82/11 310/4/11
f 225/122/2 221/123/2 220/124/2 224/124/2
f 226/125/5 222/125/5 223/126/5 227/127/5
f 227/127/8 223/126/8 221/123/8 225/122/8
f 220/124/4 221/123/4 223/126/4 222/125/4
f 226/125/4 148/128/4 314/129/4 224/124/4
f 225/122/4 313/130/4 193/131/4 227/127/4
f 224/124/4 314/129/4 313/130/4 225/122/4
f 227/127/4 193/131/4 148/128/4 226/125/4
f 224/124/7 220/124/7 222/125/7 226/125/7
f 251/122/2 234/123/2 233/124/2 243/124/2
f 255/125/5 236/125/5 242/126/5 256/127/5
f 256/127/8 242/126/8 234/123/8 251/122/8
f 233/124/4 234/123/4 242/126/4 236/125/4
f 255/125/4 108/128/4 316/129/4 243/124/4
f 251/122/4 315/130/4 149/131/4 256/127/4
f 243/124/4 316/129/4 315/130/4 251/122/4
f 256/127/4 149/131/4 108/128/4 255/125/4
f 243/124/7 233/124/7 236/125/7 255/125/7
f 262/122/2 258/123/2 257/124/2 261/124/2
f 263/125/5 259/125/5 260/126/5 264/127/5
f 264/127/8 260/126/8 258/123/8 262/122/8
f 257/124/4 258/123/4 260/126/4 259/125/4
f 263/125/4 64/128/4 318/129/4 261/124/4
f 262/122/4 317/130/4 109/131/4 264/127/4
f 261/124/4 318/129/4 317/130/4 262/122/4
f 264/127/4 109/131/4 64/128/4 263/125/4
f 261/124/7 257/124/7 259/125/7 263/125/7
f 273/122/2 269/123/2 265/124/2 272/124/2
f 274/125/5 270/125/5 271/126/5 275/127/5
f 275/127/8 271/126/8 269/123/8 273/122/8
f 265/124/4 269/123/4 271/126/4 270/125/4
f 274/125/4 39/128/4 320/129/4 272/124/4
f 273/122/4 319/130/4 65/131/4 275/127/4
f 272/124/4 320/129/4 319/130/4 273/122/4
f 275/127/4 65/131/4 39/128/4 274/125/4
f 272/124/7 265/124/7 270/125/7 274/125/7
f 192/132/7 312/133/7 311/133/7 230/132/7
f 230/80/9 311/4/9 308/82/9 266/134/9
f 281/122/2 280/124/2 276/124/2 277/123/2
f 282/125/5 283/127/5 279/126/5 278/125/5
f 283/127/7 281/122/7 277/123/7 279/126/7
f 276/124/4 278/125/4 279/126/4 277/123/4
f 282/125/4 280/124/4 318/129/4 64/128/4
f 281/122/4 283/127/4 65/131/4 319/130/4
f 280/124/4 281/122/4 319/130/4 318/129/4
f 283/127/4 282/125/4 64/128/4 65/131/4
f 280/124/8 282/125/8 278/125/8 276/124/8
f 289/122/2 288/124/2 284/124/2 285/123/2
f 290/125/5 291/127/5 287/126/5 286/125/5
f 291/127/7 289/122/7 285/123/7 287/126/7
f 284/124/4 286/125/4 287/126/4 285/123/4
f 290/125/4 288/124/4 316/129/4 108/128/4
f 289/122/4 291/127/4 109/131/4 317/130/4
f 288/124/4 289/122/4 317/130/4 316/129/4
f 291/127/4 290/125/4 108/128/4 109/131/4
f 288/124/8 290/125/8 286/125/8 284/124/8
f 297/122/2 296/124/2 292/124/2 293/123/2
f 298/125/5 299/127/5 295/126/5 294/125/5
f 299/127/7 297/122/7 293/123/7 295/126/7
f 292/124/4 294/125/4 295/126/4 293/123/4
f 298/125/4 296/124/4 314/129/4 148/128/4
f 297/122/4 299/127/4 149/131/4 315/130/4
f 296/124/4 297/122/4 315/130/4 314/129/4
f 299/127/4 298/125/4 148/128/4 149/131/4
f 296/124/8 298/125/8 294/125/8 292/124/8
f 305/122/2 304/124/2 300/124/2 301/123/2
f 306/125/5 307/127/5 303/126/5 302/125/5
f 307/127/7 305/122/7 301/123/7 303/126/7
f 300/124/4 302/125/4 303/126/4 301/123/4
f 306/125/4 304/124/4 312/129/4 192/128/4
f 305/122/4 307/127/4 193/131/4 313/130/4
f 304/124/4 305/122/4 313/130/4 312/129/4
f 307/127/4 306/125/4 192/128/4 193/131/4
f 304/124/8 306/125/8 302/125/8 300/124/8
f 327/135/4 322/136/4 321/137/4 325/138/4
f 329/22/3 323/21/3 322/24/3 327/25/3
f 324/20/2 323/21/2 329/22/2 331/23/2
f 327/135/4 325/138/4 326/137/4 328/136/4
f 329/22/3 327/25/3 328/24/3 330/21/3
f 332/20/2 331/23/2 329/22/2 330/21/2
f 335/135/4 328/136/4 326/137/4 333/138/4
f 337/22/3 330/21/3 328/24/3 335/25/3
f 332/20/2 330/21/2 337/22/2 339/23/2
f 335/135/4 333/138/4 334/137/4 336/136/4
f 337/22/3 335/25/3 336/24/3 338/21/3
f 340/20/2 339/23/2 337/22/2 338/21/2
f 343/135/4 336/136/4 334/137/4 341/138/4
f 345/22/3 338/21/3 336/24/3 343/25/3
f 340/20/2 338/21/2 345/22/2 347/23/2
f 343/135/4 341/138/4 342/137/4 344/136/4
f 345/22/3 343/25/3 344/24/3 346/21/3
f 348/20/2 347/23/2 345/22/2 346/21/2
f 351/135/4 344/136/4 342/137/4 349/138/4
f 354/22/3 346/21/3 344/24/3 351/25/3
f 348/20/2 346/21/2 354/22/2 356/23/2
f 350/139/12 373/140/12 375/141/12 358/142/12 353/143/12
f 351/135/4 349/138/4 350/137/4 352/136/4
f 354/22/3 351/25/3 352/24/3 355/21/3
f 357/20/2 356/23/2 354/22/2 355/21/2
f 353/79/7 358/79/7 359/79/7 357/79/7
f 358/84/9 374/82/9 359/4/9
f 358/80/9 375/144/9 374/145/9
f 372/146/13 373/147/13 350/148/13 349/149/13
f 371/146/13 372/147/13 349/148/13 342/149/13
f 370/146/13 371/147/13 342/148/13 341/149/13
f 369/146/13 370/147/13 341/148/13 334/149/13
f 368/146/13 369/147/13 334/148/13 333/149/13
f 367/146/13 368/147/13 333/148/13 326/149/13
f 366/146/13 367/147/13 326/148/13 325/149/13
f 365/146/13 366/147/13 325/148/13 321/149/13
f 321/139/14 360/143/14 361/142/14 364/141/14 365/140/14
f 360/79/15 324/79/15 362/79/15 361/79/15
f 361/84/11 362/4/11 363/82/11
f 361/80/11 363/145/11 364/144/11
f 321/150/8 322/151/8 323/152/8 324/153/8 360/154/8
f 350/155/7 353/156/7 357/157/7 355/158/7 352/159/7
f 379/124/8 377/125/8 381/125/8 383/124/8
f 376/127/4 377/125/4 470/128/4 471/131/4
f 379/124/4 378/122/4 356/130/4 357/129/4
f 378/122/4 376/127/4 471/131/4 356/130/4
f 377/125/4 379/124/4 357/129/4 470/128/4
f 383/124/4 381/125/4 380/126/4 382/123/4
f 376/127/7 378/122/7 382/123/7 380/126/7
f 377/125/5 376/127/5 380/126/5 381/125/5
f 378/122/2 379/124/2 383/124/2 382/123/2
f 387/124/8 385/125/8 389/125/8 391/124/8
f 384/127/4 385/125/4 462/128/4 463/131/4
f 387/124/4 386/122/4 347/130/4 348/129/4
f 386/122/4 384/127/4 463/131/4 347/130/4
f 385/125/4 387/124/4 348/129/4 462/128/4
f 391/124/4 389/125/4 388/126/4 390/123/4
f 384/127/7 386/122/7 390/123/7 388/126/7
f 385/125/5 384/127/5 388/126/5 389/125/5
f 386/122/2 387/124/2 391/124/2 390/123/2
f 395/124/8 393/125/8 397/125/8 399/124/8
f 392/127/4 393/125/4 454/128/4 455/131/4
f 395/124/4 394/122/4 339/130/4 340/129/4
f 394/122/4 392/127/4 455/131/4 339/130/4
f 393/125/4 395/124/4 340/129/4 454/128/4
f 399/124/4 397/125/4 396/126/4 398/123/4
f 392/127/7 394/122/7 398/123/7 396/126/7
f 393/125/5 392/127/5 396/126/5 397/125/5
f 394/122/2 395/124/2 399/124/2 398/123/2
f 403/124/8 401/125/8 405/125/8 407/124/8
f 400/127/4 401/125/4 446/128/4 447/131/4
f 403/124/4 402/122/4 331/130/4 332/129/4
f 402/122/4 400/127/4 447/131/4 331/130/4
f 401/125/4 403/124/4 332/129/4 446/128/4
f 407/124/4 405/125/4 404/126/4 406/123/4
f 400/127/7 402/122/7 406/123/7 404/126/7
f 401/125/5 400/127/5 404/126/5 405/125/5
f 402/122/2 403/124/2 407/124/2 406/123/2
f 476/80/9 359/4/9 374/82/9 308/134/9
f 470/132/7 357/133/7 359/133/7 476/132/7
f 411/124/7 415/124/7 413/125/7 409/125/7
f 408/127/4 447/131/4 441/128/4 409/125/4
f 411/124/4 324/129/4 331/130/4 410/122/4
f 410/122/4 331/130/4 447/131/4 408/127/4
f 409/125/4 441/128/4 324/129/4 411/124/4
f 415/124/4 414/123/4 412/126/4 413/125/4
f 408/127/8 412/126/8 414/123/8 410/122/8
f 409/125/5 413/125/5 412/126/5 408/127/5
f 410/122/2 414/123/2 415/124/2 411/124/2
f 419/124/7 423/124/7 421/125/7 417/125/7
f 416/127/4 455/131/4 446/128/4 417/125/4
f 419/124/4 332/129/4 339/130/4 418/122/4
f 418/122/4 339/130/4 455/131/4 416/127/4
f 417/125/4 446/128/4 332/129/4 419/124/4
f 423/124/4 422/123/4 420/126/4 421/125/4
f 416/127/8 420/126/8 422/123/8 418/122/8
f 417/125/5 421/125/5 420/126/5 416/127/5
f 418/122/2 422/123/2 423/124/2 419/124/2
f 427/124/7 431/124/7 429/125/7 425/125/7
f 424/127/4 463/131/4 454/128/4 425/125/4
f 427/124/4 340/129/4 347/130/4 426/122/4
f 426/122/4 347/130/4 463/131/4 424/127/4
f 425/125/4 454/128/4 340/129/4 427/124/4
f 431/124/4 430/123/4 428/126/4 429/125/4
f 424/127/8 428/126/8 430/123/8 426/122/8
f 425/125/5 429/125/5 428/126/5 424/127/5
f 426/122/2 430/123/2 431/124/2 427/124/2
f 435/124/7 439/124/7 437/125/7 433/125/7
f 432/127/4 471/131/4 462/128/4 433/125/4
f 435/124/4 348/129/4 356/130/4 434/122/4
f 434/122/4 356/130/4 471/131/4 432/127/4
f 433/125/4 462/128/4 348/129/4 435/124/4
f 439/124/4 438/123/4 436/126/4 437/125/4
f 432/127/8 436/126/8 438/123/8 434/122/8
f 433/125/5 437/125/5 436/126/5 432/127/5
f 434/122/2 438/123/2 439/124/2 435/124/2
f 477/80/11 309/121/11 363/82/11 362/4/11
f 441/119/10 477/119/10 362/120/10 324/120/10
f 320/20/2 440/21/2 445/22/2 319/23/2
f 445/22/3 440/21/3 442/24/3 449/25/3
f 449/26/4 442/27/4 443/28/4 451/29/4
f 441/30/5 447/31/5 451/32/5 443/33/5
f 318/20/2 319/23/2 445/22/2 444/21/2
f 445/22/3 449/25/3 448/24/3 444/21/3
f 449/26/4 451/29/4 450/28/4 448/27/4
f 446/30/5 450/33/5 451/32/5 447/31/5
f 318/20/2 444/21/2 453/22/2 317/23/2
f 453/22/3 444/21/3 448/24/3 457/25/3
f 457/26/4 448/27/4 450/28/4 459/29/4
f 446/30/5 455/31/5 459/32/5 450/33/5
f 316/20/2 317/23/2 453/22/2 452/21/2
f 453/22/3 457/25/3 456/24/3 452/21/3
f 457/26/4 459/29/4 458/28/4 456/27/4
f 454/30/5 458/33/5 459/32/5 455/31/5
f 316/20/2 452/21/2 461/22/2 315/23/2
f 461/22/3 452/21/3 456/24/3 465/25/3
f 465/26/4 456/27/4 458/28/4 467/29/4
f 454/30/5 463/31/5 467/32/5 458/33/5
f 314/20/2 315/23/2 461/22/2 460/21/2
f 461/22/3 465/25/3 464/24/3 460/21/3
f 465/26/4 467/29/4 466/28/4 464/27/4
f 462/30/5 466/33/5 467/32/5 463/31/5
f 314/20/2 460/21/2 469/22/2 313/23/2
f 469/22/3 460/21/3 464/24/3 473/25/3
f 473/26/4 464/27/4 466/28/4 475/29/4
f 462/30/5 471/31/5 475/32/5 466/33/5
f 312/20/2 313/23/2 469/22/2 468/21/2
f 469/22/3 473/25/3 472/24/3 468/21/3
f 473/26/4 475/29/4 474/28/4 472/27/4
f 470/30/5 474/33/5 475/32/5 471/31/5
f 312/79/7 470/79/7 476/79/7 311/79/7
f 476/84/9 308/82/9 311/4/9
f 320/79/10 310/79/10 477/79/10 441/79/10
f 477/84/11 310/4/11 309/82/11
f 320/105/8 441/106/8 443/107/8 442/108/8 440/109/8
f 312/114/7 468/115/7 472/116/7 474/117/7 470/118/7
f 249/160/4 479/161/4 248/88/4
f 245/91/4 246/162/4 478/163/4 479/164/4
f 36/119/10 237/119/10 238/120/10 37/120/10
f 237/80/11 254/121/11 252/82/11 238/4/11
f 485/122/2 481/123/2 480/124/2 484/124/2
f 486/125/5 482/125/5 483/126/5 487/127/5
f 487/127/8 483/126/8 481/123/8 485/122/8
f 480/124/4 481/123/4 483/126/4 482/125/4
f 486/125/4 142/128/4 144/129/4 484/124/4
f 485/122/4 189/130/4 187/131/4 487/127/4
f 484/124/4 144/129/4 189/130/4 485/122/4
f 487/127/4 187/131/4 142/128/4 486/125/4
f 484/124/7 480/124/7 482/125/7 486/125/7
f 493/122/2 489/123/2 488/124/2 492/124/2
f 494/125/5 490/125/5 491/126/5 495/127/5
f 495/127/8 491/126/8 489/123/8 493/122/8
f 488/124/4 489/123/4 491/126/4 490/125/4
f 494/125/4 102/128/4 104/129/4 492/124/4
f 493/122/4 145/130/4 143/131/4 495/127/4
f 492/124/4 104/129/4 145/130/4 493/122/4
f 495/127/4 143/131/4 102/128/4 494/125/4
f 492/124/7 488/124/7 490/125/7 494/125/7
f 501/122/2 497/123/2 496/124/2 500/124/2
f 502/125/5 498/125/5 499/126/5 503/127/5
f 503/127/8 499/126/8 497/123/8 501/122/8
f 496/124/4 497/123/4 499/126/4 498/125/4
f 502/125/4 58/128/4 60/129/4 500/124/4
f 501/122/4 105/130/4 103/131/4 503/127/4
f 500/124/4 60/129/4 105/130/4 501/122/4
f 503/127/4 103/131/4 58/128/4 502/125/4
f 500/124/7 496/124/7 498/125/7 502/125/7
f 509/122/2 505/123/2 504/124/2 508/124/2
f 510/125/5 506/125/5 507/126/5 511/127/5
f 511/127/8 507/126/8 505/123/8 509/122/8
f 504/124/4 505/123/4 507/126/4 506/125/4
f 510/125/4 36/128/4 37/129/4 508/124/4
f 509/122/4 61/130/4 59/131/4 511/127/4
f 508/124/4 37/129/4 61/130/4 509/122/4
f 511/127/4 59/131/4 36/128/4 510/125/4
f 508/124/7 504/124/7 506/125/7 510/125/7
f 186/132/7 188/133/7 229/133/7 228/132/7
f 228/80/9 229/4/9 266/82/9 268/134/9
f 517/122/2 516/124/2 512/124/2 513/123/2
f 518/125/5 519/127/5 515/126/5 514/125/5
f 519/127/7 517/122/7 513/123/7 515/126/7
f 512/124/4 514/125/4 515/126/4 513/123/4
f 518/125/4 516/124/4 60/129/4 58/128/4
f 517/122/4 519/127/4 59/131/4 61/130/4
f 516/124/4 517/122/4 61/130/4 60/129/4
f 519/127/4 518/125/4 58/128/4 59/131/4
f 516/124/8 518/125/8 514/125/8 512/124/8
f 525/122/2 524/124/2 520/124/2 521/123/2
f 526/125/5 527/127/5 523/126/5 522/125/5
f 527/127/7 525/122/7 521/123/7 523/126/7
f 520/124/4 522/125/4 523/126/4 521/123/4
f 526/125/4 524/124/4 104/129/4 102/128/4
f 525/122/4 527/127/4 103/131/4 105/130/4
f 524/124/4 525/122/4 105/130/4 104/129/4
f 527/127/4 526/125/4 102/128/4 103/131/4
f 524/124/8 526/125/8 522/125/8 520/124/8
f 533/122/2 532/124/2 528/124/2 529/123/2
f 534/125/5 535/127/5 531/126/5 530/125/5
f 535/127/7 533/122/7 529/123/7 531/126/7
f 528/124/4 530/125/4 531/126/4 529/123/4
f 534/125/4 532/124/4 144/129/4 142/128/4
f 533/122/4 535/127/4 143/131/4 145/130/4
f 532/124/4 533/122/4 145/130/4 144/129/4
f 535/127/4 534/125/4 142/128/4 143/131/4
f 532/124/8 534/125/8 530/125/8 528/124/8
f 541/122/2 540/124/2 536/124/2 537/123/2
f 542/125/5 543/127/5 539/126/5 538/125/5
f 543/127/7 541/122/7 537/123/7 539/126/7
f 536/124/4 538/125/4 539/126/4 537/123/4
f 542/125/4 540/124/4 188/129/4 186/128/4
f 541/122/4 543/127/4 187/131/4 189/130/4
f 540/124/4 541/122/4 189/130/4 188/129/4
f 543/127/4 542/125/4 186/128/4 187/131/4
f 540/124/8 542/125/8 538/125/8 536/124/8
