{
	"asset":{
		"generator":"Khronos glTF Blender I/O v5.0.21",
		"version":"2.0"
	},
	"extensionsUsed":[
		"KHR_materials_specular"
	],
	"scene":0,
	"scenes":[
		{
			"name":"Scene",
			"nodes":[
				0
			]
		}
	],
	"nodes":[
		{
			"mesh":0,
			"name":"road_intersection_Tjunction_01",
			"rotation":[
				0,
				-1,
				0,
				3.3776623808989825e-07
			]
		}
	],
	"materials":[
		{
			"doubleSided":true,
			"extensions":{
				"KHR_materials_specular":{
					"specularFactor":0
				}
			},
			"name":"ROAD2",
			"normalTexture":{
				"index":0
			},
			"pbrMetallicRoughness":{
				"baseColorTexture":{
					"index":1
				},
				"metallicFactor":0,
				"roughnessFactor":0.5
			}
		}
	],
	"meshes":[
		{
			"name":"road_corner_02_Mesh.003",
			"primitives":[
				{
					"attributes":{
						"POSITION":0,
						"NORMAL":1,
						"TEXCOORD_0":2,
						"TEXCOORD_1":3,
						"TEXCOORD_2":4,
						"TEXCOORD_3":5
					},
					"indices":6,
					"material":0
				},
				{
					"attributes":{
						"POSITION":7,
						"NORMAL":8,
						"TEXCOORD_0":9,
						"TEXCOORD_1":10,
						"TEXCOORD_2":11,
						"TEXCOORD_3":12
					},
					"indices":13,
					"material":0
				}
			]
		}
	],
	"textures":[
		{
			"sampler":0,
			"source":0
		},
		{
			"sampler":0,
			"source":1
		}
	],
	"images":[
		{
			"mimeType":"image/png",
			"name":"road256_normal",
			"uri":"../../../textures/road256_normal.png"
		},
		{
			"mimeType":"image/png",
			"name":"road_albedo256_psified",
			"uri":"../../../textures/road_albedo256_psified.png"
		}
	],
	"accessors":[
		{
			"bufferView":0,
			"componentType":5126,
			"count":68,
			"max":[
				6.000004768371582,
				0.07500000298023224,
				2
			],
			"min":[
				-2,
				-0.02500000223517418,
				-5.999998092651367
			],
			"type":"VEC3"
		},
		{
			"bufferView":1,
			"componentType":5126,
			"count":68,
			"type":"VEC3"
		},
		{
			"bufferView":2,
			"componentType":5126,
			"count":68,
			"type":"VEC2"
		},
		{
			"bufferView":3,
			"componentType":5126,
			"count":68,
			"type":"VEC2"
		},
		{
			"bufferView":4,
			"componentType":5126,
			"count":68,
			"type":"VEC2"
		},
		{
			"bufferView":5,
			"componentType":5126,
			"count":68,
			"type":"VEC2"
		},
		{
			"bufferView":6,
			"componentType":5123,
			"count":102,
			"type":"SCALAR"
		},
		{
			"bufferView":7,
			"componentType":5126,
			"count":48,
			"max":[
				6.000001907348633,
				0.07500000298023224,
				2.0000057220458984
			],
			"min":[
				-1.9999983310699463,
				-0.02500000223517418,
				-6.000000953674316
			],
			"type":"VEC3"
		},
		{
			"bufferView":8,
			"componentType":5126,
			"count":48,
			"type":"VEC3"
		},
		{
			"bufferView":9,
			"componentType":5126,
			"count":48,
			"type":"VEC2"
		},
		{
			"bufferView":10,
			"componentType":5126,
			"count":48,
			"type":"VEC2"
		},
		{
			"bufferView":11,
			"componentType":5126,
			"count":48,
			"type":"VEC2"
		},
		{
			"bufferView":12,
			"componentType":5126,
			"count":48,
			"type":"VEC2"
		},
		{
			"bufferView":13,
			"componentType":5123,
			"count":72,
			"type":"SCALAR"
		}
	],
	"bufferViews":[
		{
			"buffer":0,
			"byteLength":816,
			"byteOffset":0,
			"target":34962
		},
		{
			"buffer":0,
			"byteLength":816,
			"byteOffset":816,
			"target":34962
		},
		{
			"buffer":0,
			"byteLength":544,
			"byteOffset":1632,
			"target":34962
		},
		{
			"buffer":0,
			"byteLength":544,
			"byteOffset":2176,
			"target":34962
		},
		{
			"buffer":0,
			"byteLength":544,
			"byteOffset":2720,
			"target":34962
		},
		{
			"buffer":0,
			"byteLength":544,
			"byteOffset":3264,
			"target":34962
		},
		{
			"buffer":0,
			"byteLength":204,
			"byteOffset":3808,
			"target":34963
		},
		{
			"buffer":0,
			"byteLength":576,
			"byteOffset":4012,
			"target":34962
		},
		{
			"buffer":0,
			"byteLength":576,
			"byteOffset":4588,
			"target":34962
		},
		{
			"buffer":0,
			"byteLength":384,
			"byteOffset":5164,
			"target":34962
		},
		{
			"buffer":0,
			"byteLength":384,
			"byteOffset":5548,
			"target":34962
		},
		{
			"buffer":0,
			"byteLength":384,
			"byteOffset":5932,
			"target":34962
		},
		{
			"buffer":0,
			"byteLength":384,
			"byteOffset":6316,
			"target":34962
		},
		{
			"buffer":0,
			"byteLength":144,
			"byteOffset":6700,
			"target":34963
		}
	],
	"samplers":[
		{
			"magFilter":9728,
			"minFilter":9984
		}
	],
	"buffers":[
		{
			"byteLength":6844,
			"uri":"road_intersection_Tjunction_01.bin"
		}
	]
}
