# Made in Blockbench 5.1.4
mtllib model.mtl

o plane
v -0.4999999999999999 0.03125 0.5000000000000001
v 0.6875000000000001 0.03125 0.4999999999999999
v -0.5000000000000001 0.03125 -0.4999999999999999
v 0.6874999999999999 0.03125 -0.5000000000000001
vt 0.3977272727272727 0.28409090909090906
vt 0.3977272727272727 0.5
vt 0.14772727272727273 0.5
vt 0.14772727272727273 0.28409090909090906
vn 0 1 0
usemtl m_1b3c2838-35da-3995-aad7-ddd46258b7af
f 1/1/1 2/2/1 4/3/1 3/4/1
o cube
v -0.4999999999999999 0.90625 0.5000000000000001
v 0.6875000000000001 0.90625 0.4999999999999999
v -0.4999999999999999 0.03125 0.5000000000000001
v 0.6875000000000001 0.03125 0.4999999999999999
v -0.5000000000000001 0.90625 -0.4999999999999999
v 0.6874999999999999 0.90625 -0.5000000000000001
v -0.5000000000000001 0.03125 -0.4999999999999999
v 0.6874999999999999 0.03125 -0.5000000000000001
vt 0.2159090909090909 0.625
vt 0.2159090909090909 0.7840909090909091
vt 0 0.7840909090909091
vt 0 0.625
vt 0.6818181818181818 0.625
vt 0.6818181818181818 0.7840909090909091
vt 0.4659090909090909 0.7840909090909091
vt 0.4659090909090909 0.625
vt 0.2159090909090909 1
vt 0.2159090909090909 0.7840909090909091
vt 0.4659090909090909 0.7840909090909091
vt 0.4659090909090909 1
vt 0.9318181818181818 0.625
vt 0.9318181818181818 0.7840909090909091
vt 0.6818181818181818 0.7840909090909091
vt 0.6818181818181818 0.625
vt 0.4659090909090909 0.625
vt 0.4659090909090909 0.7840909090909091
vt 0.2159090909090909 0.7840909090909091
vt 0.2159090909090909 0.625
vn 2.220446049250313e-16 0 1
vn -2.220446049250313e-16 0 -1
vn 0 1 0
vn -1 0 2.220446049250313e-16
vn 1 0 -2.220446049250313e-16
usemtl m_b033d9cc-c0e5-688c-ba5a-4d720ecda931
f 8/5/2 6/6/2 5/7/2 7/8/2
f 11/9/3 9/10/3 10/11/3 12/12/3
f 5/13/4 6/14/4 10/15/4 9/16/4
f 7/17/5 5/18/5 9/19/5 11/20/5
f 12/21/6 10/22/6 6/23/6 8/24/6