{
	"asset":{
		"generator":"Khronos glTF Blender I/O v5.0.21",
		"version":"2.0"
	},
	"extensionsUsed":[
		"KHR_materials_specular"
	],
	"scene":0,
	"scenes":[
		{
			"name":"Scene",
			"nodes":[
				0
			]
		}
	],
	"nodes":[
		{
			"mesh":0,
			"name":"roof_concrete_01"
		}
	],
	"materials":[
		{
			"doubleSided":true,
			"extensions":{
				"KHR_materials_specular":{
					"specularFactor":0
				}
			},
			"name":"Demo_Atlas",
			"normalTexture":{
				"index":0
			},
			"pbrMetallicRoughness":{
				"baseColorTexture":{
					"index":1
				},
				"metallicFactor":0,
				"roughnessFactor":0.5
			}
		}
	],
	"meshes":[
		{
			"name":"roof_concrete_01_Mesh",
			"primitives":[
				{
					"attributes":{
						"POSITION":0,
						"NORMAL":1,
						"TEXCOORD_0":2,
						"TEXCOORD_1":3,
						"TEXCOORD_2":4,
						"TEXCOORD_3":5
					},
					"indices":6,
					"material":0
				}
			]
		}
	],
	"textures":[
		{
			"sampler":0,
			"source":0
		},
		{
			"sampler":0,
			"source":1
		}
	],
	"images":[
		{
			"mimeType":"image/png",
			"name":"demo_texture_512x512_normal",
			"uri":"../../textures/demo_texture_512x512_normal.png"
		},
		{
			"mimeType":"image/png",
			"name":"demo_texture_512x512_albedo_psified",
			"uri":"../../textures/demo_texture_512x512_albedo_psified.png"
		}
	],
	"accessors":[
		{
			"bufferView":0,
			"componentType":5126,
			"count":93,
			"max":[
				1,
				0.1499999761581421,
				2
			],
			"min":[
				-2,
				0,
				-1
			],
			"type":"VEC3"
		},
		{
			"bufferView":1,
			"componentType":5126,
			"count":93,
			"type":"VEC3"
		},
		{
			"bufferView":2,
			"componentType":5126,
			"count":93,
			"type":"VEC2"
		},
		{
			"bufferView":3,
			"componentType":5126,
			"count":93,
			"type":"VEC2"
		},
		{
			"bufferView":4,
			"componentType":5126,
			"count":93,
			"type":"VEC2"
		},
		{
			"bufferView":5,
			"componentType":5126,
			"count":93,
			"type":"VEC2"
		},
		{
			"bufferView":6,
			"componentType":5123,
			"count":192,
			"type":"SCALAR"
		}
	],
	"bufferViews":[
		{
			"buffer":0,
			"byteLength":1116,
			"byteOffset":0,
			"target":34962
		},
		{
			"buffer":0,
			"byteLength":1116,
			"byteOffset":1116,
			"target":34962
		},
		{
			"buffer":0,
			"byteLength":744,
			"byteOffset":2232,
			"target":34962
		},
		{
			"buffer":0,
			"byteLength":744,
			"byteOffset":2976,
			"target":34962
		},
		{
			"buffer":0,
			"byteLength":744,
			"byteOffset":3720,
			"target":34962
		},
		{
			"buffer":0,
			"byteLength":744,
			"byteOffset":4464,
			"target":34962
		},
		{
			"buffer":0,
			"byteLength":384,
			"byteOffset":5208,
			"target":34963
		}
	],
	"samplers":[
		{
			"magFilter":9728,
			"minFilter":9984
		}
	],
	"buffers":[
		{
			"byteLength":5592,
			"uri":"roof_concrete_01.bin"
		}
	]
}
