{
	"asset":{
		"generator":"Khronos glTF Blender I/O v5.0.21",
		"version":"2.0"
	},
	"extensionsUsed":[
		"KHR_materials_specular"
	],
	"scene":0,
	"scenes":[
		{
			"name":"Scene",
			"nodes":[
				0
			]
		}
	],
	"nodes":[
		{
			"mesh":0,
			"name":"road_intersection_4way_01"
		}
	],
	"materials":[
		{
			"doubleSided":true,
			"extensions":{
				"KHR_materials_specular":{
					"specularFactor":0
				}
			},
			"name":"ROAD2",
			"normalTexture":{
				"index":0
			},
			"pbrMetallicRoughness":{
				"baseColorTexture":{
					"index":1
				},
				"metallicFactor":0,
				"roughnessFactor":0.5
			}
		}
	],
	"meshes":[
		{
			"name":"road_corner_03_Mesh.004",
			"primitives":[
				{
					"attributes":{
						"POSITION":0,
						"NORMAL":1,
						"TEXCOORD_0":2,
						"TEXCOORD_1":3,
						"TEXCOORD_2":4,
						"TEXCOORD_3":5
					},
					"indices":6,
					"material":0
				}
			]
		}
	],
	"textures":[
		{
			"sampler":0,
			"source":0
		},
		{
			"sampler":0,
			"source":1
		}
	],
	"images":[
		{
			"mimeType":"image/png",
			"name":"road256_normal",
			"uri":"../../../textures/road256_normal.png"
		},
		{
			"mimeType":"image/png",
			"name":"road_albedo256_psified",
			"uri":"../../../textures/road_albedo256_psified.png"
		}
	],
	"accessors":[
		{
			"bufferView":0,
			"componentType":5126,
			"count":112,
			"max":[
				6.000004768371582,
				0.07500000298023224,
				2.000005006790161
			],
			"min":[
				-2,
				-0.02500000223517418,
				-6.000002861022949
			],
			"type":"VEC3"
		},
		{
			"bufferView":1,
			"componentType":5126,
			"count":112,
			"type":"VEC3"
		},
		{
			"bufferView":2,
			"componentType":5126,
			"count":112,
			"type":"VEC2"
		},
		{
			"bufferView":3,
			"componentType":5126,
			"count":112,
			"type":"VEC2"
		},
		{
			"bufferView":4,
			"componentType":5126,
			"count":112,
			"type":"VEC2"
		},
		{
			"bufferView":5,
			"componentType":5126,
			"count":112,
			"type":"VEC2"
		},
		{
			"bufferView":6,
			"componentType":5123,
			"count":168,
			"type":"SCALAR"
		}
	],
	"bufferViews":[
		{
			"buffer":0,
			"byteLength":1344,
			"byteOffset":0,
			"target":34962
		},
		{
			"buffer":0,
			"byteLength":1344,
			"byteOffset":1344,
			"target":34962
		},
		{
			"buffer":0,
			"byteLength":896,
			"byteOffset":2688,
			"target":34962
		},
		{
			"buffer":0,
			"byteLength":896,
			"byteOffset":3584,
			"target":34962
		},
		{
			"buffer":0,
			"byteLength":896,
			"byteOffset":4480,
			"target":34962
		},
		{
			"buffer":0,
			"byteLength":896,
			"byteOffset":5376,
			"target":34962
		},
		{
			"buffer":0,
			"byteLength":336,
			"byteOffset":6272,
			"target":34963
		}
	],
	"samplers":[
		{
			"magFilter":9728,
			"minFilter":9984
		}
	],
	"buffers":[
		{
			"byteLength":6608,
			"uri":"road_intersection_4way_01.bin"
		}
	]
}
